<svg xmlns="http://www.w3.org/2000/svg" xmlns:xlink="http://www.w3.org/1999/xlink" xml:space="preserve" stroke-miterlimit="10" style="fill-rule:nonzero;clip-rule:evenodd;stroke-linecap:round;stroke-linejoin:round" viewBox="0 0 1024 1024"><defs><linearGradient id="d" x1="254.923" x2="799.163" y1="821.777" y2="230.397" gradientUnits="userSpaceOnUse"><stop offset="0" stop-color="#85ec74"/><stop offset="1" stop-color="#4cce78"/></linearGradient><linearGradient id="f" x1="130.8" x2="861.694" y1="905.926" y2="96.187" gradientTransform="translate(107.06 107.06)scale(.7909)" gradientUnits="userSpaceOnUse"><stop offset=".003" stop-color="#00bc60"/><stop offset="1" stop-color="#1e74ff"/></linearGradient><linearGradient id="g" x1="389.483" x2="671.661" y1="664.985" y2="390.102" gradientTransform="translate(107.06 107.06)scale(.7909)" gradientUnits="userSpaceOnUse"><stop offset=".003" stop-color="#00bc60"/><stop offset="1" stop-color="#1e74ff"/></linearGradient><path id="b" d="M0 512C0 229.23 229.23 0 512 0s512 229.23 512 512-229.23 512-512 512S0 794.77 0 512"/></defs><clipPath id="a"><path d="M0 0h1024v1024H0z"/></clipPath><g clip-path="url(#a)"><use xlink:href="#b" fill="url(#d)"/><mask id="e" width="1024" height="1024" x="0" y="0" maskUnits="userSpaceOnUse"><path d="M0 0h1024v1024H0z"/><use xlink:href="#b" fill="#fff" fill-rule="evenodd"/></mask><use xlink:href="#b" fill="none" stroke="#2b7b46" stroke-linecap="butt" stroke-linejoin="miter" stroke-width="72" mask="url(#e)"/><path fill="url(#f)" d="m512 107.06-52.07 191.86c16.694-4.065 34.124-6.278 52.07-6.278s35.376 2.213 52.07 6.278zM225.659 225.659l98.856 172.429a220.5 220.5 0 0 1 73.573-73.573zm572.682 0-172.429 98.856a220.5 220.5 0 0 1 73.573 73.573zM298.92 459.93 107.06 512l191.86 52.07c-4.065-16.694-6.278-34.124-6.278-52.07s2.213-35.376 6.278-52.07m426.16 0c4.065 16.694 6.278 34.124 6.278 52.07s-2.213 35.376-6.278 52.07L916.94 512zM324.515 625.912l-98.856 172.429 172.429-98.856a220.5 220.5 0 0 1-73.573-73.573m374.97 0a220.5 220.5 0 0 1-73.573 73.573l172.429 98.856zM459.93 725.08 512 916.94l52.07-191.86c-16.694 4.065-34.124 6.278-52.07 6.278s-35.376-2.213-52.07-6.278"/><path fill="url(#g)" d="M322.552 512c0-104.629 84.819-189.448 189.448-189.448S701.448 407.371 701.448 512 616.629 701.448 512 701.448 322.552 616.629 322.552 512"/></g></svg>