<svg xmlns="http://www.w3.org/2000/svg" fill="none" viewBox="0 0 1024 1024"><circle cx="512" cy="512" r="481" fill="url(#a)" stroke="#13868C" stroke-width="62"/><circle cx="512" cy="512" r="171" fill="url(#b)"/><path fill="url(#c)" fill-rule="evenodd" d="M413.399 337.92 233.553 233.247l104.606 179.731a201 201 0 0 1 75.24-75.058m-94.233 120.716L118 511.786l201.04 53.117c-4.61-16.851-7.071-34.59-7.071-52.903 0-18.48 2.506-36.375 7.197-53.364m18.754 151.966L233.247 790.448l179.731-104.607a201 201 0 0 1-75.058-75.239m120.713 94.231L511.784 906 564.9 704.961c-16.85 4.609-34.588 7.07-52.9 7.07-18.481 0-36.378-2.507-53.367-7.198m151.969-18.752 179.845 104.672-104.606-179.731a201 201 0 0 1-75.239 75.059m94.232-120.717L906 512.214l-201.04-53.117c4.61 16.851 7.071 34.59 7.071 52.903 0 18.48-2.506 36.375-7.197 53.364M686.08 413.398l104.673-179.846-179.731 104.607a201 201 0 0 1 75.058 75.239m-120.713-94.231L512.217 118 459.1 319.039c16.85-4.609 34.588-7.07 52.9-7.07 18.482 0 36.378 2.507 53.367 7.198" clip-rule="evenodd"/><defs><linearGradient id="a" x1="1024" x2="0" y1="0" y2="1024" gradientUnits="userSpaceOnUse"><stop stop-color="#B5FF46"/><stop offset="1" stop-color="#87E7FF"/></linearGradient><linearGradient id="b" x1="424.538" x2="625.98" y1="621.214" y2="424.98" gradientUnits="userSpaceOnUse"><stop offset=".003" stop-color="#00BC60"/><stop offset="1" stop-color="#1E74FF"/></linearGradient><linearGradient id="c" x1="310.479" x2="774.621" y1="763.64" y2="311.497" gradientUnits="userSpaceOnUse"><stop offset=".003" stop-color="#17C670"/><stop offset="1" stop-color="#5093FF"/></linearGradient></defs></svg>