<svg xmlns="http://www.w3.org/2000/svg" xml:space="preserve" stroke-miterlimit="10" style="fill-rule:nonzero;clip-rule:evenodd;stroke-linecap:round;stroke-linejoin:round" viewBox="0 0 640 640"><defs><linearGradient id="a" x1="0" x2="1" y1="0" y2="0" gradientTransform="rotate(-45.055 705.524 136.325)scale(612.88)" gradientUnits="userSpaceOnUse"><stop offset="0" stop-color="#e3c9f9"/><stop offset="1" stop-color="#dcbcf8"/></linearGradient></defs><path fill="url(#a)" d="M0 0h640v640H0z"/><path fill="#f9fafb" d="M132.5 320c0-103.553 83.947-187.5 187.5-187.5S507.5 216.447 507.5 320 423.553 507.5 320 507.5 132.5 423.553 132.5 320"/><path fill="#f3f0ff" d="M320 132.5c-103.553 0-187.5 83.947-187.5 187.5S216.447 507.5 320 507.5c63.939 0 120.368-32.033 154.212-80.896-19.206 11.941-41.859 18.86-66.138 18.86-69.291 0-125.464-56.173-125.464-125.464s56.173-125.464 125.464-125.464c24.279 0 46.932 6.919 66.138 18.86C440.368 164.533 383.939 132.5 320 132.5"/></svg>