<svg xmlns="http://www.w3.org/2000/svg" xml:space="preserve" stroke-miterlimit="10" style="fill-rule:nonzero;clip-rule:evenodd;stroke-linecap:round;stroke-linejoin:round" viewBox="0 0 640 640"><defs><linearGradient id="a" x1="0" x2="1" y1="0" y2="0" gradientTransform="rotate(-45.055 705.524 136.325)scale(612.88)" gradientUnits="userSpaceOnUse"><stop offset="0" stop-color="#e3c9f9"/><stop offset="1" stop-color="#dcbcf8"/></linearGradient></defs><path fill="url(#a)" d="M0 0h640v640H0z"/><path fill="#f9fafb" d="M125.188 320c0-107.591 87.221-194.812 194.812-194.812S514.812 212.409 514.812 320 427.591 514.812 320 514.812 125.188 427.591 125.188 320"/><path fill="#f3f0ff" d="M320 125.188c-107.591 0-194.812 87.221-194.812 194.812S212.409 514.812 320 514.812c66.433 0 125.062-33.283 160.225-84.051-19.955 12.407-43.491 19.595-68.717 19.595-71.993 0-130.356-58.363-130.356-130.356s58.363-130.356 130.356-130.356c25.226 0 48.762 7.188 68.717 19.595-35.163-50.768-93.792-84.051-160.225-84.051"/></svg>