<svg xmlns="http://www.w3.org/2000/svg" fill="none" viewBox="0 0 1024 1024"><path fill="url(#a)" d="M0 0h1024v1024H0z"/><circle cx="512" cy="512" r="300" fill="url(#b)" fill-opacity=".4"/><circle cx="561.463" cy="474.831" r="229.463" fill="url(#c)"/><path fill="url(#d)" d="M512.292 812.001c165.523 0 299.707-134.184 299.707-299.708S677.815 212.586 512.292 212.586c-165.524 0-299.707 134.183-299.707 299.707s134.183 299.708 299.707 299.708" style="mix-blend-mode:multiply"/><mask id="e" width="600" height="600" x="212" y="212" maskUnits="userSpaceOnUse" style="mask-type:alpha"><path fill="#d9d9d9" d="M512.293 212.582C677.816 212.582 812 346.765 812 512.289S677.816 811.997 512.293 811.997c-165.524 0-299.707-134.184-299.707-299.708S346.77 212.582 512.293 212.582m0 14.051c-157.765 0-285.658 127.893-285.658 285.658S354.528 797.95 512.293 797.95s285.658-127.894 285.658-285.659-127.894-285.658-285.658-285.658"/></mask><g mask="url(#e)"><circle cx="299.707" cy="299.707" r="299.707" fill="url(#f)" transform="rotate(-45 662.61 149.384)"/></g><defs><radialGradient id="a" cx="0" cy="0" r="1" gradientTransform="translate(512 1024)scale(1144.87)" gradientUnits="userSpaceOnUse"><stop stop-color="#eefaea"/><stop offset="1" stop-color="#f3fff3"/></radialGradient><radialGradient id="b" cx="0" cy="0" r="1" gradientTransform="rotate(90 0 512)scale(300)" gradientUnits="userSpaceOnUse"><stop stop-color="#82af83"/><stop offset="1" stop-color="#82af83" stop-opacity=".8"/></radialGradient><radialGradient id="c" cx="0" cy="0" r="1" gradientTransform="rotate(90 43.316 518.147)scale(229.463)" gradientUnits="userSpaceOnUse"><stop offset=".18" stop-color="#ecf6ec" stop-opacity=".14"/><stop offset="1" stop-color="#bcd1bc" stop-opacity="0"/></radialGradient><radialGradient id="d" cx="0" cy="0" r="1" gradientTransform="translate(512.292 512.293)scale(299.707)" gradientUnits="userSpaceOnUse"><stop offset=".955" stop-opacity="0"/><stop offset=".96" stop-opacity=".018"/><stop offset=".965" stop-opacity=".034"/><stop offset=".97" stop-opacity=".05"/><stop offset=".975" stop-opacity=".066"/><stop offset=".98" stop-opacity=".082"/><stop offset=".985" stop-opacity=".096"/><stop offset=".99" stop-opacity=".107"/><stop offset=".995" stop-opacity=".115"/><stop offset="1" stop-opacity=".12"/></radialGradient><linearGradient id="f" x1="299.707" x2="299.707" y1="0" y2="599.414" gradientUnits="userSpaceOnUse"><stop stop-color="#ecf6ec" stop-opacity=".75"/><stop offset=".15" stop-color="#ecf6ec" stop-opacity=".15"/><stop offset=".85" stop-color="#ecf6ec" stop-opacity=".15"/><stop offset="1" stop-color="#ecf6ec" stop-opacity=".75"/></linearGradient></defs></svg>