<svg xmlns="http://www.w3.org/2000/svg" xml:space="preserve" stroke-miterlimit="10" style="fill-rule:nonzero;clip-rule:evenodd;stroke-linecap:round;stroke-linejoin:round" viewBox="0 0 1920 1920"><defs><radialGradient id="c" cx="697.299" cy="1115.08" r="396.353" gradientTransform="translate(-1926.17 -1770.63)scale(2.92426)" gradientUnits="userSpaceOnUse"><stop offset="0" stop-color="#f1c5ff"/><stop offset="1" stop-color="#ffebee" stop-opacity="0"/></radialGradient><radialGradient id="d" cx="1042.87" cy="838.569" r="440.015" gradientTransform="translate(-1263.94 -1498.76)scale(3.05305)" gradientUnits="userSpaceOnUse"><stop offset="0" stop-color="#abffb8"/><stop offset="1" stop-color="#abffb8" stop-opacity="0"/></radialGradient><linearGradient id="b" x1="490.961" x2="1488.95" y1="875.063" y2="284.185" gradientUnits="userSpaceOnUse"><stop offset="0" stop-color="#fff5e5"/><stop offset="1" stop-color="#fcffe4"/></linearGradient><filter id="e" width="1674.18" height="1674.18" x="122.912" y="137.912" color-interpolation-filters="sRGB" filterUnits="userSpaceOnUse"><feDropShadow dx="0" dy="15" flood-color="#000" flood-opacity=".333" in="SourceGraphic" result="Shadow" stdDeviation="40"/></filter></defs><clipPath id="a" clip-rule="nonzero"><path d="M0 0h1920v1920H0z"/></clipPath><g clip-path="url(#a)"><path fill="url(#b)" d="M0 0h1920v1920H0z"/><path fill="url(#c)" d="M-1046.13 1490.14c0-640.116 518.919-1159.034 1159.038-1159.034S1271.95 850.024 1271.95 1490.14c0 640.12-518.923 1159.04-1159.042 1159.04S-1046.13 2130.26-1046.13 1490.14"/><path fill="url(#d)" d="M576.614 1061.44c0-741.933 601.456-1343.391 1343.396-1343.391 741.93 0 1343.38 601.458 1343.38 1343.391 0 741.93-601.45 1343.39-1343.38 1343.39-741.94 0-1343.396-601.46-1343.396-1343.39"/></g><path fill="#ffa19a" fill-rule="evenodd" d="M412.359 932.803c135.943 0 245.858 131.287 245.858 293.337 0 149.61-93.762 320.89-215.084 339.22l23.622 40.97c14.86 25.79 6.507 32.87-18.961 32.87h-15.506c48.527 122.68 52.704 150.08 5.223 272.76 0 4.34-3.7 8.04-8.038 8.04h-23.86a8.17 8.17 0 0 1-8.038-8.04c48.127-122.68 42.743-150.08-5.223-272.76h-26.675c-19.275.31-17.991-18.32-9.96-31.34l26.351-42.5c-121.883-17.76-216.207-189.3-216.207-339.22 0-162.05 110.154-293.337 245.859-293.337zm44.273 97.697c-6.833-3.68-9.386-12.2-5.703-19.04 3.683-6.83 12.208-9.38 19.041-5.7 23.536 12.69 47.081 31.49 67.649 52.78 21.213 21.94 39.289 46.6 50.78 69.9 3.206 6.91.321 15.11-6.504 18.49s-15.098.7-18.648-6.03c-10.283-20.73-26.59-42.91-45.873-62.92-18.56-19.28-39.774-36.23-60.742-47.48"/><path fill="#ffc09a" fill-rule="evenodd" d="M1499.09 194.557c109.48 0 198 105.727 198 236.237 0 120.485-75.52 258.434-173.22 273.186l19.03 32.999c11.97 20.772 5.24 26.469-15.27 26.469h-12.49c39.08 98.805 42.44 120.87 4.2 219.675 0 3.495-2.98 6.468-6.47 6.468h-19.22a6.576 6.576 0 0 1-6.47-6.468c38.76-98.805 34.43-120.87-4.2-219.675h-21.48c-15.53.255-14.5-14.752-8.03-25.238l21.23-34.23c-98.16-14.298-174.12-152.446-174.12-273.186 0-130.51 88.71-236.237 197.99-236.237zm35.65 78.68c-5.41-3.013-7.39-9.811-4.45-15.259 2.93-5.449 9.7-7.528 15.19-4.668 18.96 10.224 37.92 25.362 54.48 42.509 17.09 17.668 31.65 37.532 40.9 56.296 2.77 5.593.48 12.372-5.11 15.14-5.6 2.769-12.38.479-15.15-5.114-8.27-16.693-21.41-34.549-36.94-50.662-14.95-15.53-32.03-29.181-48.92-38.242"/><path fill="#ff9ac7" fill-rule="evenodd" d="M1090.33 592.074c148.38 0 268.36 143.304 268.36 320.196 0 163.3-102.34 350.28-234.77 370.28l25.78 44.72c16.22 28.16 7.1 35.87-20.7 35.87h-16.93c52.98 133.92 57.54 163.83 5.71 297.75 0 4.73-4.03 8.77-8.77 8.77h-26.05c-4.81-.08-8.7-3.96-8.77-8.77 52.54-133.92 46.65-163.83-5.7-297.75h-29.12c-21.04.36-19.64-20-10.87-34.2l28.76-46.39c-133.038-19.39-236.003-206.63-236.003-370.28 0-176.892 120.244-320.196 268.373-320.196zm48.32 106.644c-7.46-4.019-10.24-13.324-6.23-20.782 4.02-7.459 13.33-10.248 20.79-6.229 25.69 13.857 51.39 34.382 73.84 57.617 23.16 23.946 42.89 50.866 55.43 76.303 3.39 7.518.22 16.37-7.17 20.03-7.39 3.659-16.35.814-20.28-6.438-11.22-22.629-29.03-46.832-50.08-68.666-20.26-21.048-43.41-39.552-66.3-51.835"/><path fill="#e7ff9a" fill-rule="evenodd" d="M821.553 80.98c125.124 0 226.287 120.829 226.287 269.985 0 137.695-86.302 295.357-197.96 312.212l21.736 37.714c13.683 23.742 5.992 30.248-17.447 30.248h-14.275c44.668 112.921 48.51 138.137 4.808 251.058 0 3.993-3.401 7.394-7.394 7.394h-21.966a7.515 7.515 0 0 1-7.394-7.394c44.294-112.921 39.34-138.137-4.809-251.058h-24.551c-17.743.296-16.565-16.86-9.17-28.84l24.261-39.122c-112.184-16.342-199.001-174.221-199.001-312.212 0-149.156 101.388-269.985 226.283-269.985zm40.747 89.923c-6.101-3.482-8.31-11.195-4.977-17.379s10.99-8.579 17.253-5.397c21.669 11.684 43.333 28.986 62.266 48.583 19.519 20.19 36.162 42.892 46.734 64.332 2.871 6.342.202 13.818-6.036 16.908s-13.801.684-17.108-5.442c-9.466-19.077-24.478-39.49-42.227-57.904-17.078-17.749-36.603-33.347-55.905-43.701"/><g filter="url(#e)"><clipPath id="f" clip-rule="nonzero"><path d="M222.912 222.912H1697.09V1697.09H222.912z"/></clipPath><g clip-path="url(#f)"><path fill="#face52" d="M693.429 1144.53h56.168v34.14h-56.168zm-106.979-18.5h100.683v134.3H586.45z"/><path fill="#face52" d="M529.941 1199.37h150.544v45.59H529.941z"/><clipPath id="g" clip-rule="nonzero"><path d="M132.659 63.663V1856.34H2026.73V63.663zM1239.16 502.45c71.67 0 129.82 58.076 129.82 129.743 0 71.669-58.15 129.745-129.82 129.745s-129.75-58.076-129.75-129.745c0-71.667 58.08-129.743 129.75-129.743m0 591.05c79.99 0 144.91 69.56 144.91 155.4s-64.92 155.48-144.91 155.48c-80 0-144.83-69.64-144.83-155.48s64.83-155.4 144.83-155.4"/></clipPath><g clip-path="url(#g)"><g fill="#519acb"><path d="M915.3 691.071h110.93v111.205H915.3zm35.266-144.847h630.674v144.337H950.566zm79.624 221.036h150.51v146.731h-150.51z"/><path d="M890.075 797.245c-22.608-48.625-24.566-95.653-4.374-105.041 20.192-9.389 54.889 22.418 77.496 71.042s24.566 95.652 4.373 105.041-54.888-22.419-77.495-71.042"/></g><path fill="#519acb" d="m853.759 694.388 18.372 57.573c12.346-8.2 38.458-34.574 59.926-24.315 16.209 7.747 29.899 20.258 42.768 32.793 5.23 5.095 7.057 12.784 10.584 19.175l11.781-11.087c15.07 12.077 39.31.476 57.51 6.93 9.57 3.392 15.45 14.195 19.22 23.619 6.6 16.489-13.62 17.46-21.04 19.743 1.39 14.264 22.99 17.376 35.77 23.849l-6.93-19.401 8.32-1.386c4.13 12.122 4.68 26.144 12.39 36.365 7.67 10.155 25.71 12.371 29.18 24.61l-6.99 2.567c25.51 15.909-9.52 24.3-20.72 26.535-1.62-4.157-.67-10.925-4.85-12.471-10.41-3.85-22.17-1.078-33.26-1.617l-5.05-33.88-16.46-.426.1 7.146 14.87 4.578-20.49 6.876.83 16.397-18.66.449c5.61 19.716 8.88 12.587-2.95 23.342l7.62 12.472c-69.454 49.095-135.972 97.326-171.841 178.076-29.529 66.48-43.404 146.25-25.637 218.26 53.336 216.21 282.558 345.04 498.198 306.27 38.46-6.92 75.6-20.06 112.57-32.73 61.64-21.12 126.67-74.12 164.35-125.84 32.23-44.23 65.4-94.12 69.62-148.68 3.35-43.43 5.69-87.41.6-130.67-3.52-29.96-12.64-59.66-26.14-86.65-16.42-32.85-36.38-64.95-62.55-90.73-33.62-33.119-76.21-55.672-114.32-83.508 4.26-4.246 7.07-10.86 12.79-12.737 4.48-1.471 9.25 6.06 13.53 4.089 13.05-6.005 23.84-16.236 34.28-26.096 63.29-59.761 98.5-122.358 109.85-209.49.69-5.363-3.7-10.164-5.55-15.245l-1.78 9.789c-25.07-.848-48.37-13.609-73.05-18.104-13.87-2.525-28.47 1.489-42.27-1.386-13.45-2.802-24.73-12.902-38.25-15.384-36.05-6.618-72.89-7.804-109.33-11.707-8.97-116.231-132.85-190.173-224.51-98.324-12.53 12.564-20.75 29.026-28.41 45.039-7.68 16.078-1.3 42.761-17.32 50.581-38.23 18.669-84.6 10.259-126.137 19.476-40.868 9.069-80.356 23.509-120.534 35.265"/><path fill="#f9cf9d" d="M854.451 695.08c61.715-15.614 122.014-35.656 179.459-43.654 13.77-1.916 59.89 2.327 68.27-10.651 8.31-12.866 6.36-30.248 12.9-44.099 22.06-46.766 68.68-94.75 126.08-91.992 60.13 2.891 109.45 47.171 126.73 103.783 3.46 11.338-4.04 25.327 2.03 35.506 4.23 7.086 15.42 6.482 23.61 7.453 23.68 2.812 47.74 1.276 71.45 3.828 56.51 6.084 113.64 35.31 169.73 34.767-1.18-33.018.66-66.281-3.54-99.053-4.24-33.163-32.68-92.021-46.92-117.904-57.25-104.037-179.84-170.951-296.04-178.482-95.6-6.196-200.27 8.324-282.71 60.82-8.338 5.312-11.228 16.548-18.704 23.021-9.03 7.819-21.875 10.728-30.183 19.308-6.302 6.509-6.185 17.47-12.085 24.346-18.114 21.112-43.209 36.047-59.239 58.781-43.596 61.831-50.112 143.927-30.838 214.222"/><path fill="#8ad2d1" d="M476.126 720.025c-1.847.924-5.521.705-5.542 2.771-1.624 150.825.427 301.664.64 452.504 25.117 1.81 50.871 11.34 75.349 5.44 11.882-2.87 11.415-23.68 22.402-29.04 14.707-7.17 32.43-6.72 48.757-5.66 34.316 2.23 33.149 41.02 34.391 63.17 14.329-11.14-6.124-39.3 14.193-41.38 17.584-1.8 35.517 1.59 53.019-.88 2.77-.39 1.563-6.65 4.304-7.2 11.944-2.39 36.291 8.25 36.326-3.93.227-77.65-7.268-155.14-8.757-232.775-1.465-76.486 14.863-156.446-8.314-229.351-20.366 1.771-58.361-6.398-76.896-11.861-31.89-9.398-61.709-25.025-93.558-34.563-7.241-2.169-15.289 1.359-22.676-.246-24.203-5.262-51.97-21.722-75.717-29.55-41.327-13.621-78.19 22.787-119.006-9.876l7.45-4.674-9.702-2.771 34.646-4.158c-15.436-6.239-31.67-10.781-46.305-18.717-21.35-11.574-10.042-36.523-9.128-55.424-18.412-6.665-30.563-34.864-51.538-19.522-6.163 4.507-15.632 8.565-16.215 16.178-5.488 71.583-3.24 143.6-1.537 215.372.305 12.85 11.337 25.208 22.737 31.145 65.394 34.062 126.546-71.64 190.677-45.002"/><path fill="#face52" d="M552.346 1168.33c-.391 1.84-.28 11.15-5.543 11.09-25.431-.31-50.813-2.31-76.219-3.47 0 113.64 1.127 227.28 0 340.91-.398 40.02-7.292 68.58 20.323 103.36 32.977 41.54 90.571 31.42 135.579 30.37 25.899-.6 52.086.3 77.605-4.16 8.129-1.41 14.737-7.72 21.02-13.07 12.53-10.68 32.522-18.48 35.105-34.74 10.655-67.06 2.773-135.8 2.773-203.71 0-79.46-1.849-158.9-2.773-238.36-31.511 9.01-64.531 2.39-96.733 9.55-12.186 2.7-2.014 25.23-6.508 36.88-3.848 9.97-12.479 17.81-21.085 24.15-5.629 4.14-36.614 3.1-39.198 2.87-66.132-5.84-29.998-17.97-44.346-61.67"/><path fill="#f9cf9d" d="M297.358 498.989c11.279 10.092 22.4 22.608 37.113 26.164.591 9.02-1.654 18.695 1.772 27.059 11.441 27.928 88.576 49.149 115.576 48.064-2.499 4.147-9.256 11.091.048 15.632 6.039 2.948 13.783.255 19.947 2.934 2.524 1.097 1.192 6.321 3.741 7.359 17.887 7.288 10.237-5.485 23.437 3.054 21.332 13.796 45.166 19.471 70.41 18.795l1.217 6.597c22.097 3.373 33.589 10.411 52.216 10.205l-3.97 4.59c21.812 2.49 117.417 23.942 121.951 31.875 8.771-32.894 2.552-68.046 3.036-102.086.059-4.182 7.008-5.997 7.356-10.165 3.785-45.295-6.932-98.295-7.621-141.352-.425-26.574 3.197-53.11 2.771-79.684-.314-19.672-11.947-46.894-30.842-57.572-54.503-30.802-121.487-19.006-180.714-9.622-5.591.885-13.084 1.583-15.633 6.637-3.889 7.716 1.198 17.5-.776 25.913-7.798 33.245-24.912 57.586-47.809 83.147-45.051 50.287-110.981 65.837-173.226 82.456"/><path fill="#519acb" d="M997.19 765.756c-23.033 16.635-4.283 39.647-24.095 60.369-22.677 23.716-23.277 12.69-52.48-2.02-1.464-.737-3.418-.211-4.891.508-13.899 6.791 19.402 37.37 25.502 42.101 25.219 19.556 50.349 37.81 76.754 56.331 12.32-8.726 7.64-2.414 9.7-21.479l9.11-.424c3.2-11.859 10.43-35.263 28.3-20.365-11.51 28.72 15.69 19.705 33.96 20.095 3.67 18.935 7.66 8.705 22.17 12.473 6.22-9.951 14.34-3.323 24.25-7.623-5.24-4.395-12.37 1.576-15.94-3.464-4.87-6.877 8.86-14.913 1.39-27.716-7.65-13.109-18.15-6.631-26.37-16.182-3.93-4.573-1.26-12.141-3.42-17.771-4.02-10.439-12.57-5.291-7.63-18.016-8.47-3.304-3.87-2.886-13.86 0l9.01 16.631c-13.51-3.084-22.08-12.427-35.09-16.812 10.97-.936 4.32.6 18.46-8.826-2.17-5.006-2.19-21.527-1.11-27.807-6.03-3.436-10.07-9.835-16.21-13.074-18.04-9.512-39.81 8.801-57.51-6.929"/><path fill="#fba399" d="M1364.74 1447.82c.51 10.83-5.42 16.64-4.62 27.75 3.12 43.31 43.66 51.22 76.93 33.58 14.84-7.86 26.38-28.56 42.35-30.1.16-20.73 9.31-24.03 7.67-50.88-.46-7.55-8.43-12.79-14.17-17.73-24.74-21.29-64.42-.34-84.58 16.94-7.9 6.77-13.79 16.92-23.58 20.44"/><path fill="#face52" d="m1306.22 432.469-6.23-2.771c6.02-2.411 14.25-5.604 17.32 2.079 17.18-20.898 24.57-53.101-4.16-70.676-12.28-7.516-102.76 15.294-118.99 27.725-10.21 7.821-14.01 63.595 9.51 64.43 31.75 1.129 74.52-4.116 102.55-20.787"/><path fill="#fba399" d="m1508.55 586.987 2.2 6.173c74.67-40.75-38.53-127.746-86.39-99.099-9.49 5.679-9.26 13.519-14.19 23.78-20.43 42.512 69.01 71.444 98.38 69.146"/><path fill="#face52" d="M947.3 1321.46c-53.73 15.36 33.695 119.36 69.98 116.41 23.12-1.88 34.34-35.75 21.48-52.66-27.55-36.23-46.829-76.5-91.46-63.75m165.6-293.79 2.78 3.47c24.48-34.946-8.6-57.524-40.6-52.729-9.67 1.45-49.02 44.539-57.1 54.109-21.667 25.64 8.99 58.73 36.72 52.66 22.71-4.96 43.95-38.02 58.2-57.51"/><path fill="#fba399" d="m937.599 568.972 2.772-4.158c34.316 43.621 62.659-4.948 90.989-34.719 12.31-12.938 23.46-34.138 6.74-49.326-34.65-31.483-77.215 30.611-94.957 48.014-8.672 8.506-13.427 30.335-5.544 40.189"/><path fill="#face52" d="M681.225 1008.96c13.492-2.59 11.231-16.708 13.829-31.005 7.924-43.611-62.896-55.323-90.88-51.226-37.573 5.502-16.71 58.359 7.805 69.496a343 343 0 0 0 26.286 10.665c16.252 5.8 27.219 5.11 42.96 2.07"/><path fill="#71c6f3" d="m566.203 1151.7 4.158 2.77c-37.406 53.83 1.993 75.65 55.853 76.42 2.419.04 4.925-.07 7.201-.89 27.152-9.74 27.327-58.29 7.249-75.17-18.348-15.43-54.182-10.81-74.461-3.13"/><path fill="#fba399" d="m958.386 742.89-4.85 1.386c-7.639-32.994-77.802-26.497-65.553 30.264 5.067 23.478 33.842 34.928 54.582 47.043 19.41 11.337 36.392-4.529 43.712-20.844 13.539-30.169-23.416-37.372-27.891-57.849"/><path fill="#519acb" d="M1336.02 841.975c4.07 11.792-2.52 23.96.69 35.339 2.24 7.939 14.98.882 18.71 7.621 3.48 6.29-.35 11.3.65 18.088 1.34 9.154 11.61 4.94 16.67 8.243 9.85 6.421-.4 12.149 15.25 6.236l-3.47-3.465c7.8-6.173 16.26-13.115 26.12-14.425-3.22-7.4 5.19-19.592 9.91-26.456-23.38-11.402 12.29-45.443-44.58-41.779l-2.26 8.927z"/><path fill="#8ad2d1" d="M1572.99 1220.3c-17.01 4.98-52.26 29.65-56.82 46.43-5.13 18.9 7.75 50.99 32.25 39.58 24.41-11.35 76.77-48.75 49.46-78.8-6.86-7.54-15.73-9.89-24.89-7.21"/><path fill="#fba399" d="M1412.24 1028.37c-10.68 1.06-58.27 45.58-59.59 55.43-2.64 19.63-1.69 43.72 25.64 37.42 22.17-5.12 100.17-99.46 33.95-92.85"/><path fill="#face52" d="M1299.99 888.4c-2.11-6.471-10.91-6.456-16.63-10.394l6.24-2.771c-19.97-14.751-59.49-5.508-48.23 25.01 6.87 18.631 28.78 25.699 44.07 34.579 10.15 5.894 10.35 9.225 22.36 9.225 39.91 0 24.14-65.525-7.81-55.649"/><path fill="#71c6f3" d="m602.234 1365.81 2.772-2.77c45.652 40.1 95.34.83 32.352-47.92-40.901-31.65-69.847 22.73-35.124 50.69"/><path fill="#eb8423" d="M566.562 1570.28c4.395 19.27 78.187 14.03 81.82-21.11 1.12-10.84-20.404-4.1-28.823-9.89-24.69-16.96-32.978-22.23-46.795-43.3-36.981 20.96 9.015 71.29-6.202 74.3"/><path fill="#386f8a" d="M927.899 1154.47c-18.233 23.1-26.315 62.99 2.079 82.46 7.552 5.18 43.992 33.41 56.125 16.63 5.086-7.04 7.8-15.55 12.472-22.87-6.005-4.8-9.781.8-15.606-2.73-30.222-18.31-40.437-45.58-55.07-73.49m216.881 310.43c-12.49 19.59-23.01 38.01-14.45 61.24 7.2 19.55 52.94 38.6 70.9 21.66 8.52-8.04 10.06-18.22 14.92-30.24-17.14-11.01-50.06-10.29-64.1-26.88-6.4-7.56-3.1-17.32-7.27-25.78"/><path fill="#71c6f3" d="M610.55 491.366c-2.121 10.483 1.259 21.606 11.574 28.471 43.856 29.187 112.644-97.966 37.036-73.318-8.22 2.679-14.182 14.307-20.86 19.964-9.48 8.031-25.289 12.705-27.75 24.883"/><path fill="#386b68" d="M584.219 936.903c-3.896 9.307 3.893 30.906-10.075 32.338-3.167 12.936.288 37.679 1.761 44.569 8.554 40.08 60.875 18.02 85.92 18.02l-1.387-4.16c9.708-2.42 14.037-11.66 21.481-19.4-27.255-7.06-75.232 2.32-92.608-31.199-6.104-11.773-1.595-27.045-5.092-40.168"/><path fill="#8ad2d1" d="M1441.03 733.138c13.25-3.959 42.96 35.927 55.05 41.625 6.32 2.98 14.97-1.105 20.79 2.772 20.32-35.322-13.8-46.607-36.73-65.826l2.77-2.771c-22.54-19.808-55.36-8.242-41.88 24.2"/><path fill="#fba399" d="M936.215 1144.77c-16.447 5.34-2.778 32.83 5.909 42.65 12.033 13.59 24.17 27.11 37.007 39.95 1.456 1.45 3.602 2.08 5.586 2.63 16.533 4.57 30.323-19.08 20.093-31.87-9.116-11.41-18.721-22.42-28.348-33.41-16.144-18.41-19.384-26.72-40.247-19.95"/><path fill="#386f8a" d="M1234.16 889.093c-2.28 17.357-7.14 40.069-5.99 56.591 1.7 24.344 65.99 31.148 78.89 18.766 6.57-6.304 15.61-19.961 19.42-29.351-27.92 17.085-43.7-4.623-70.84-18.983-4.08-2.16-14.16 2.842-19.64 2.621.2-11.105 1.78-19.696-1.84-29.644"/><path fill="#fba399" d="M586.99 1479.45c-42.584 16.58 33.297 70.24 58.204 65.82 37.2-6.6-12.121-46.52-15.433-49.4-13.004-11.33-27.027-22.55-42.771-16.42"/><path fill="#0c486f" d="M932.057 1336.71c-8.796 6.51-5.466 10.56-6.287 22.32-2.764 39.59 24.384 76.33 59.143 95.53 16.357 9.04 46.287-5.97 42.767-25-32.255 24.15-77.698-38.31-91.463-61.02-7.478-12.34.389-19.95-4.16-31.83"/><path fill="#f2ba37" d="M1194.67 1470.44c-2.05-1.54-62.52-29.63-47.26 16.17 3.06 9.19 19.11 11.72 25.08 14.32 11.14 4.82 27.51 16.68 41.51 14.27 17.35-2.97 19.58-26.4 6.18-35.66-9.71-6.7-17.48-3.08-25.51-9.1"/><path fill="#0c486f" d="M1360.27 1453.81c-19.02 31.7-8.69 82.68 29.8 88 2.25.31 18.63 5.88 23.86 2.09 11.03-8 22.21-22.05 32.95-30.5 11.21-8.82 28.1-16.54 29.8-35.34-21.68 11.47-89.55 74.75-111.56 15.94-5.59-14.95-1.22-26.58-4.85-40.19"/><path fill="#bd7329" d="M590.455 1313.84c-10.97 9.7-8.047 28.43-8.67 43.06-.768 18.01 9.982 25.26 20.449 38.01-14.904 4.37-15.617 10.73 2.079 21.48 23.409 14.22 45.635-28.53 54.739-39.49-19.716-.83-38.485.31-54.046-15.25l-2.772 2.77c-11.35-16.84-4.864-33.29-11.779-50.58"/><path fill="#fba399" d="M1530.73 1100.43c-13.41 3.59-21.44 18-31.65 27.41-12.13 11.18-17.6 51.94 10.86 42.57 22.01-7.25 74.26-84.32 20.79-69.98"/><path fill="#b2533c" d="M1187.74 395.054c-10.9 15.326-6.7 26.303-5.55 42.266 3.29 45.388 11.83 33.275 63.75 30.488 17.6-.944 5.93 2.859 16.63-1.386l-7.89-2.049c2.44-7.882 45.71-7.122 59.64-25.234 11.74-15.27-10.52-14.907-19.18-8.054l2.77 2.771c-9.61 3.744-18.03 3.035-27.56 6.002-.45 10.53-65.82 19.918-77.06 2.611-10.06-15.505 2.08-33.579-5.55-47.415"/><path fill="#519acb" d="M1266.04 1065.09c26.66 14.26 50.59 25.41 76.22 42.27 2.92-5.48 1.54-10.35 5.54-15.25 3 7.78-.96 14.75 2.77 22.18 2.72-21.37 1.78-10.51 2.77-32.57-7.45-2.13-10.28-11.68-14.35-18.27-14.54-23.51-28.86-18.14-53.55-14.3-15.33 2.39-16.29-.77-19.4 15.94"/><path fill="#386f8a" d="M633.415 832.967c-4.748-3.318-11.754.212-17.323-1.386-14.182-4.065-32.686-21.092-33.635-36.67l-3.781.639c-2.716-6.121-.141-11.062-4.157-16.629-18.07 14.203-8.94 52.782-6.237 72.754 1.175 8.674 21.801 6.214 22.173 6.237 21.183 1.319 35.448-1.529 42.96-24.945"/><path fill="#8ad2d1" d="M334.774 525.318c-8.228 9.585-7.243 24.632-6.909 37.259.583 22.012 44.326 14.962 44.326 30.647 8.548 1.814 4.104.36 13.165 4.85l-9.007 2.771c14.465 6.098 69.601 19.445 79.008 1.307-23.813-2.266-106.787-28.218-117.34-50.856-4.214-9.038 1.549-17.055-3.243-25.978"/><path fill="#a53a2c" d="M1408.08 523.933c-10.22 5.92-2.09 21.969-.69 30.487 6.89 42.076 94.04 68.482 104.42 34.102-34.59-9.612-100.06-12.112-103.73-64.589"/><path fill="#386f8a" d="M1507.17 788.621c.49-.636 9.19-9.84 8.31-13.858-1.16-5.315-20.08-.158-26.93-6.612-3.73-3.52-45.95-31.69-46.23-33.163-1.5-7.853-.53-16.132-2.67-23.833-13.55 3.632-11.16 35.5-4.24 45.347 12.79 18.202 45.39 37.254 71.76 32.119"/><path fill="#519acb" d="M889.789 738.732c-10.241 13.919-3.604 10.488-18.644 12.44 13.062 25.063 22.867 42.168 40.217 64.598.917 1.185 2.04 2.535 1.986 4.032-.608 16.819-5.295 4.159 0 15.244.012-.093-.591-12.486 5.424-10.018 29.276 12.005 47.473 34.332 64.769-16.681-30.296 29.365-53.12 4.055-81.274-18.686-3.589-2.9-8.828-7.289-11.277-11.568-7.387-12.912 3.251-27.481-1.201-39.361"/><path fill="#2f526b" d="M1114.29 1024.9c-11.61 13.71-71.76 93.77-97.01 45.04-5.85-11.3-.32-23.94-5.54-35.34-4.63 8.71-4.34 20.42-4.12 30.2 1.77 81.89 47.88 29.43 82.42-5.89 12.42-12.7 24.81-17.79 24.25-34.01"/><path fill="#8ad2d1" d="M350.71 601.538c20.11 25.397 68.525 32.082 99.085 13.857l-2.077-6.928c-24.894 3.625-79.726-26.678-97.008-6.929"/><path fill="#a53a2c" d="M934.828 541.949c-30.697 20.995 2.305 93.978 39.414 40.616-25.101-3.306-35.229-16.899-39.414-40.616"/><path fill="#2f526b" d="M1550.13 1129.53c-24.97 28.27-43.51 62.65-67.22 15.24-3.92 10.69-.95 10.18 0 21.48 4.67 55.34 71.99-25.03 67.22-36.72"/><path fill="#0c486f" d="M1591.01 1268.11c-28.83 29.57-66.88 65.73-76.22 2.77-10.66 5.99-7.83 33.63-.7 41.58 6.51 7.24 19.48-.28 29.22-.56 2.51-.08 5.49 2.05 7.51.56 14.03-10.43 26.38-22.97 38.96-35.1 4.84-4.67 3.38-4.98 1.23-9.25"/><path fill="#534956" d="M611.242 490.674c-25.995 37.623 1.8 62.152 39.496 30.488-6.96-2.908-12.664 4.319-18.709 2.079-18.324-6.794-11.504-18.777-20.787-32.567"/><path fill="#386f8a" d="M567.59 1151.7c-16.884 17.18-25.316 41.69-12.023 65.84 13.442-2.9 1.289-28.32 3.015-40.89 1.133-8.25 9.052-15.06 12.135-22.94z"/><path fill="#519acb" d="M1482.22 950.068c1.83-10.712 6.38-14.187 15.25-20.787-17.16-13.056-41.78 10.567-15.25 20.787"/><path fill="#386f8a" d="M1238.32 880.777c-6.4 13.47-5.48 27.385-2.08 41.575 8.49-4.523 12.5.006 17.09-9.727-15.91-15.671-7.13-14.039-15.01-31.848"/><path fill="#1b5d8b" d="M1514.79 1313.15c1.28 1.28 3.41 5.76 4.85 6.24 11.31 3.77 23.6 1.04 31.18-7.63-2.76-1.83-34.79.14-36.03 1.39"/><path fill="#534956" d="M562.74 1208.52c-3.774 5.72-1.7 2.14-5.544 11.09 7.798 7.1 14.006 11.92 24.868 9.14.116-3.7-15.849-16.14-19.324-20.23"/><path fill="#386f8a" d="M1444.8 728.34c-8.76 8.761 19.91 29.989 26.33 23.558-8.37-8.379-18.27-15.506-26.33-23.558"/><path fill="#4b462c" d="M579.83 943.934c-2.887 8.855-5.844 14.952-4.904 24.38 13.213 1.53 14.948-21.128 4.904-24.38"/><path fill="#a53a2c" d="M1211.7 460.343c12 .098 15.91 7.993 27.15 3.921l-2.58-6.166z"/></g><path fill="#8ad2d1" d="M302.883 502.431 688.484 735.23l-42.108 69.744-385.599-232.799z"/><path fill="#f9cf9d" d="M305.064 499.998v14.477C414.959 591.56 548.6 654.412 700.806 701.432h41.128V600.716H523.5V499.998z"/><path fill="#face52" d="M649.096 810.911c7.923-43.609-30.821-45.902-58.806-41.805-37.573 5.5-17.703 55.189 6.812 66.326a341 341 0 0 0 26.286 10.661c16.252 5.806 23.111-20.885 25.708-35.182"/></g></g></svg>