<svg xmlns="http://www.w3.org/2000/svg" xml:space="preserve" stroke-miterlimit="10" style="fill-rule:nonzero;clip-rule:evenodd;stroke-linecap:round;stroke-linejoin:round" viewBox="0 0 1920 1920"><defs><radialGradient id="d" cx="0" cy="0" r="1" gradientTransform="translate(112.913 1490.15)scale(1159.04)" gradientUnits="userSpaceOnUse"><stop offset="0" stop-color="#f1c5ff"/><stop offset="1" stop-color="#ffebee" stop-opacity="0"/></radialGradient><radialGradient id="e" cx="0" cy="0" r="1" gradientTransform="translate(1919.99 1061.44)scale(1343.39)" gradientUnits="userSpaceOnUse"><stop offset="0" stop-color="#abffb8"/><stop offset="1" stop-color="#abffb8" stop-opacity="0"/></radialGradient><linearGradient id="c" x1="0" x2="1" y1="0" y2="0" gradientTransform="rotate(-30.628 1844.07 -459.278)scale(1159.793)" gradientUnits="userSpaceOnUse"><stop offset="0" stop-color="#fff5e5"/><stop offset="1" stop-color="#fcffe4"/></linearGradient></defs><clipPath id="a"><path d="M0 0h1920v1920H0z"/></clipPath><g clip-path="url(#a)"><clipPath id="b" clip-rule="nonzero"><path d="M0 0h1920v1920H0z"/></clipPath><g clip-path="url(#b)"><path fill="url(#c)" d="M0 0h1920v1920H0z"/><path fill="url(#d)" d="M-1046.13 1490.14c0-640.116 518.919-1159.034 1159.038-1159.034S1271.95 850.024 1271.95 1490.14c0 640.12-518.923 1159.04-1159.042 1159.04S-1046.13 2130.26-1046.13 1490.14"/><path fill="url(#e)" d="M576.614 1061.44c0-741.933 601.456-1343.391 1343.396-1343.391 741.93 0 1343.38 601.458 1343.38 1343.391 0 741.93-601.45 1343.39-1343.38 1343.39-741.94 0-1343.396-601.46-1343.396-1343.39"/></g><path fill="#ffa19a" fill-rule="evenodd" d="M323.395 989.591c135.944 0 245.859 131.279 245.859 293.339 0 149.61-93.762 320.89-215.084 339.22l23.621 40.97c14.861 25.79 6.507 32.87-18.96 32.87h-15.507c48.528 122.68 52.704 150.08 5.223 272.76 0 4.34-3.7 8.04-8.038 8.04h-23.86a8.17 8.17 0 0 1-8.037-8.04c48.127-122.68 42.743-150.08-5.223-272.76h-26.675c-19.276.31-17.991-18.33-9.961-31.34l26.352-42.5c-121.883-17.76-216.207-189.3-216.207-339.22 0-162.06 110.153-293.339 245.859-293.339zm44.274 97.699c-6.833-3.68-9.387-12.21-5.704-19.04s12.208-9.39 19.041-5.7c23.537 12.69 47.081 31.49 67.649 52.78 21.214 21.94 39.29 46.6 50.781 69.9 3.206 6.91.32 15.11-6.504 18.49-6.825 3.38-15.098.7-18.648-6.04-10.284-20.73-26.59-42.9-45.873-62.91-18.561-19.28-39.775-36.23-60.742-47.48"/><path fill="#ffc09a" fill-rule="evenodd" d="M1653.41 327.065c109.48 0 198 105.727 198 236.238 0 120.484-75.51 258.433-173.22 273.186l19.03 32.999c11.97 20.772 5.24 26.468-15.27 26.468h-12.49c39.08 98.805 42.44 120.874 4.2 219.674 0 3.5-2.98 6.47-6.47 6.47h-19.22a6.58 6.58 0 0 1-6.47-6.47c38.76-98.8 34.43-120.869-4.2-219.674h-21.48c-15.53.256-14.5-14.752-8.03-25.237l21.23-34.23c-98.16-14.299-174.12-152.446-174.12-273.186 0-130.511 88.71-236.238 197.99-236.238zm35.65 78.68c-5.4-3.013-7.39-9.81-4.45-15.259 2.93-5.448 9.7-7.528 15.19-4.668 18.96 10.225 37.92 25.363 54.48 42.509 17.09 17.668 31.65 37.533 40.9 56.296 2.77 5.594.48 12.372-5.11 15.141-5.6 2.768-12.38.479-15.15-5.115-8.27-16.692-21.41-34.548-36.94-50.662-14.95-15.529-32.03-29.181-48.92-38.242"/><path fill="#e7ff9a" fill-rule="evenodd" d="M658.513 137.769c125.124 0 226.283 120.828 226.283 269.984 0 137.696-86.297 295.357-197.956 312.212l21.736 37.715c13.684 23.742 5.993 30.248-17.446 30.248h-14.276c44.669 112.921 48.511 138.136 4.809 251.062 0 3.99-3.401 7.39-7.394 7.39h-21.966c-4.057-.06-7.329-3.34-7.394-7.39 44.293-112.926 39.34-138.141-4.809-251.062h-24.551c-17.743.296-16.565-16.861-9.171-28.841l24.262-39.122c-112.184-16.341-199.001-174.22-199.001-312.212 0-149.156 101.388-269.984 226.282-269.984zm40.748 89.922c-6.101-3.482-8.311-11.195-4.978-17.379 3.333-6.183 10.991-8.579 17.254-5.396 21.669 11.683 43.333 28.985 62.266 48.583 19.518 20.189 36.162 42.892 46.734 64.332 2.87 6.341.202 13.817-6.036 16.907s-13.802.685-17.108-5.441c-9.466-19.078-24.479-39.491-42.227-57.905-17.079-17.748-36.604-33.347-55.905-43.701"/><path fill="#ff9ac7" fill-rule="evenodd" d="M960.517 327.065c215.763 0 390.233 208.381 390.233 465.603 0 237.452-148.83 509.352-341.39 538.422l37.49 65.04c23.59 40.94 10.32 52.15-30.1 52.15h-24.615c77.035 194.74 83.665 238.23 8.295 432.97 0 6.87-5.863 12.75-12.752 12.75h-37.88c-6.997-.11-12.643-5.76-12.755-12.75 76.397-194.74 67.847-238.23-8.286-432.97H886.42c-30.605.52-28.569-29.07-15.814-49.73l41.83-67.46c-193.458-28.18-343.182-300.46-343.182-538.422 0-257.222 174.849-465.603 390.24-465.603zm70.263 155.073c-10.84-5.844-14.9-19.374-9.05-30.22 5.84-10.846 19.37-14.901 30.22-9.057 37.36 20.15 74.73 49.996 107.37 83.781 33.68 34.82 62.37 73.965 80.6 110.953 4.93 10.934.32 23.805-10.42 29.127-10.75 5.321-23.78 1.184-29.49-9.362-16.32-32.905-42.22-68.099-72.82-99.848-29.46-30.606-63.13-57.513-96.41-75.374"/></g></svg>