<svg xmlns="http://www.w3.org/2000/svg" xml:space="preserve" stroke-miterlimit="10" style="fill-rule:nonzero;clip-rule:evenodd;stroke-linecap:round;stroke-linejoin:round" viewBox="0 0 1920 1920"><defs><radialGradient id="c" cx="697.299" cy="1115.08" r="396.353" gradientTransform="translate(-1926.17 -1770.63) scale(2.92426)" gradientUnits="userSpaceOnUse"><stop offset="0" stop-color="#f1c5ff"/><stop offset="1" stop-color="#ffebee" stop-opacity="0"/></radialGradient><radialGradient id="d" cx="1042.87" cy="838.569" r="440.015" gradientTransform="translate(-1263.94 -1498.76) scale(3.05305)" gradientUnits="userSpaceOnUse"><stop offset="0" stop-color="#abffb8"/><stop offset="1" stop-color="#abffb8" stop-opacity="0"/></radialGradient><linearGradient id="b" x1="490.961" x2="1488.95" y1="875.063" y2="284.185" gradientUnits="userSpaceOnUse"><stop offset="0" stop-color="#fff5e5"/><stop offset="1" stop-color="#fcffe4"/></linearGradient></defs><clipPath id="a" clip-rule="nonzero"><path d="M0 0h1920v1920H0V0Z"/></clipPath><g clip-path="url(#a)"><path fill="url(#b)" d="M0 0h1920v1920H0V0Z"/><path fill="url(#c)" d="M-1046.13 1490.14c0-640.116 518.919-1159.034 1159.038-1159.034S1271.95 850.024 1271.95 1490.14c0 640.12-518.923 1159.04-1159.042 1159.04-640.119 0-1159.038-518.92-1159.038-1159.04Z"/><path fill="url(#d)" d="M576.614 1061.44c0-741.933 601.456-1343.391 1343.396-1343.391 741.93 0 1343.38 601.458 1343.38 1343.391 0 741.93-601.45 1343.39-1343.38 1343.39-741.94 0-1343.396-601.46-1343.396-1343.39Z"/></g><path fill="#ffa19a" fill-rule="evenodd" d="M412.359 932.803c135.943 0 245.858 131.287 245.858 293.337 0 149.61-93.762 320.89-215.084 339.22l23.622 40.97c14.86 25.79 6.507 32.87-18.961 32.87h-15.506c48.527 122.68 52.704 150.08 5.223 272.76 0 4.34-3.7 8.04-8.038 8.04h-23.86a8.17 8.17 0 0 1-8.038-8.04c48.127-122.68 42.743-150.08-5.223-272.76h-26.675c-19.275.31-17.991-18.32-9.96-31.34l26.351-42.5c-121.883-17.76-216.207-189.3-216.207-339.22 0-162.05 110.154-293.337 245.859-293.337h.639Zm44.273 97.697c-6.833-3.68-9.386-12.2-5.703-19.04 3.683-6.83 12.208-9.38 19.041-5.7 23.536 12.69 47.081 31.49 67.649 52.78 21.213 21.94 39.289 46.6 50.78 69.9 3.206 6.91.321 15.11-6.504 18.49-6.824 3.38-15.098.7-18.648-6.03-10.283-20.73-26.59-42.91-45.873-62.92-18.56-19.28-39.774-36.23-60.742-47.48Z"/><path fill="#ffc09a" fill-rule="evenodd" d="M1629.23 535.286c109.48 0 198 105.727 198 236.237 0 120.485-75.51 258.437-173.22 273.187l19.03 33c11.97 20.77 5.24 26.47-15.27 26.47h-12.49c39.08 98.8 42.45 120.87 4.2 219.67 0 3.5-2.97 6.47-6.47 6.47h-19.22a6.564 6.564 0 0 1-6.46-6.47c38.75-98.8 34.42-120.87-4.21-219.67h-21.48c-15.53.25-14.5-14.76-8.03-25.24l21.23-34.23c-98.16-14.3-174.12-152.447-174.12-273.187 0-130.51 88.71-236.237 197.99-236.237h.52Zm35.65 78.68c-5.4-3.014-7.39-9.811-4.45-15.259 2.94-5.449 9.71-7.528 15.19-4.668 18.97 10.224 37.92 25.362 54.49 42.509 17.08 17.668 31.64 37.532 40.89 56.296 2.77 5.593.48 12.372-5.11 15.14-5.6 2.769-12.37.479-15.14-5.114-8.28-16.693-21.42-34.549-36.95-50.663-14.95-15.529-32.03-29.18-48.92-38.241Z"/><path fill="#ff9ac7" fill-rule="evenodd" d="M1090.33 734.172c148.38 0 268.36 143.304 268.36 320.198 0 163.3-102.34 350.28-234.77 370.27l25.78 44.73c16.22 28.16 7.1 35.87-20.7 35.87h-16.93c52.98 133.92 57.54 163.83 5.71 297.75 0 4.73-4.03 8.77-8.77 8.77h-26.05c-4.81-.08-8.7-3.96-8.77-8.77 52.54-133.92 46.65-163.83-5.7-297.75h-29.12c-21.04.35-19.64-20-10.87-34.2l28.76-46.4c-133.038-19.38-236.003-206.62-236.003-370.27 0-176.894 120.244-320.198 268.373-320.198h.7Zm48.32 106.643c-7.46-4.018-10.24-13.323-6.23-20.782 4.02-7.459 13.33-10.247 20.79-6.229 25.69 13.858 51.39 34.383 73.84 57.617 23.16 23.946 42.89 50.866 55.43 76.303 3.39 7.519.22 16.371-7.17 20.03-7.39 3.66-16.35.815-20.28-6.437-11.22-22.629-29.03-46.832-50.08-68.667-20.26-21.047-43.41-39.551-66.3-51.835Z"/><path fill="#e7ff9a" fill-rule="evenodd" d="M821.553 80.98c125.124 0 226.287 120.829 226.287 269.985 0 137.695-86.302 295.357-197.96 312.212l21.736 37.714c13.683 23.742 5.992 30.248-17.447 30.248h-14.275c44.668 112.921 48.51 138.137 4.808 251.058 0 3.993-3.401 7.394-7.394 7.394h-21.966a7.515 7.515 0 0 1-7.394-7.394c44.294-112.921 39.34-138.137-4.809-251.058h-24.551c-17.743.296-16.565-16.86-9.17-28.84l24.261-39.122c-112.184-16.342-199.001-174.221-199.001-312.212 0-149.156 101.388-269.985 226.283-269.985h.592Zm40.747 89.923c-6.101-3.482-8.31-11.195-4.977-17.379 3.333-6.184 10.99-8.579 17.253-5.397 21.669 11.684 43.333 28.986 62.266 48.583 19.519 20.19 36.162 42.892 46.734 64.332 2.871 6.342.202 13.818-6.036 16.908-6.237 3.09-13.801.684-17.108-5.442-9.466-19.077-24.478-39.49-42.227-57.904-17.078-17.749-36.603-33.347-55.905-43.701Z"/><clipPath id="e" clip-rule="nonzero"><path d="M291.026 291.026H1628.97V1628.97H291.026V291.026Z"/></clipPath><g clip-path="url(#e)"><path fill="#face52" d="M718.063 1127.48h50.978v30.98h-50.978v-30.98Zm-97.093-16.79h91.379v121.88H620.97v-121.88Z"/><path fill="#face52" d="M569.683 1177.25h136.632v41.37H569.683v-41.37Z"/><clipPath id="f" clip-rule="nonzero"><path d="M209.114 146.494V1773.51H1928.16V146.494H209.114ZM1213.36 544.732c65.05 0 117.83 52.709 117.83 117.754 0 65.046-52.78 117.755-117.83 117.755-65.04 0-117.75-52.709-117.75-117.755 0-65.045 52.71-117.754 117.75-117.754Zm0 536.428c72.61 0 131.52 63.14 131.52 141.04 0 77.91-58.91 141.11-131.52 141.11-72.6 0-131.45-63.2-131.45-141.11 0-77.9 58.85-141.04 131.45-141.04Z"/></clipPath><g clip-path="url(#f)"><g fill="#519acb"><path d="M919.43 715.923h100.68v100.928H919.43V715.923Zm32.008-131.462h572.392V715.46H951.438V584.461Zm72.262 200.61h136.61v133.172H1023.7V785.071Z"/><path d="M896.536 812.285c-20.518-44.132-22.295-86.814-3.969-95.334 18.326-8.522 49.816 20.346 70.335 64.477 20.517 44.13 22.296 86.813 3.968 95.334-18.326 8.521-49.815-20.347-70.334-64.477Z"/></g><path fill="#519acb" d="m863.576 718.933 16.675 52.253c11.205-7.442 34.904-31.379 54.388-22.068 14.711 7.031 27.137 18.386 38.816 29.763 4.747 4.624 6.405 11.602 9.606 17.402l10.692-10.062c13.677 10.961 35.677.432 52.197 6.29 8.68 3.078 14.02 12.883 17.44 21.436 5.99 14.966-12.36 15.846-19.09 17.918 1.26 12.946 20.86 15.771 32.46 21.645l-6.29-17.607 7.55-1.258c3.75 11.001 4.25 23.727 11.25 33.004 6.96 9.217 23.33 11.227 26.48 22.336l-6.34 2.33c23.15 14.439-8.65 22.054-18.81 24.083-1.47-3.774-.61-9.916-4.4-11.319-9.45-3.494-20.12-.979-30.19-1.467l-4.58-30.75-14.93-.386.08 6.485 13.49 4.155-18.59 6.241.75 14.882-16.93.407c5.09 17.894 8.06 11.424-2.68 21.185l6.92 11.319c-63.038 44.559-123.409 88.33-155.964 161.62-26.799 60.33-39.392 132.74-23.267 198.09 48.407 196.23 256.441 313.16 452.161 277.97 34.9-6.28 68.62-18.21 102.17-29.7 55.94-19.18 114.96-67.28 149.16-114.22 29.25-40.14 59.36-85.42 63.18-134.94 3.05-39.41 5.16-79.33.55-118.59-3.2-27.19-11.48-54.15-23.72-78.64-14.91-29.82-33.02-58.95-56.77-82.35-30.52-30.06-69.17-50.529-103.76-75.793 3.87-3.853 6.42-9.855 11.61-11.559 4.06-1.336 8.39 5.499 12.28 3.71 11.84-5.449 21.64-14.735 31.11-23.684 57.44-54.238 89.4-111.051 99.69-190.131.64-4.867-3.35-9.225-5.03-13.836l-1.62 8.884c-22.75-.77-43.9-12.351-66.29-16.43-12.59-2.292-25.84 1.351-38.37-1.259-12.21-2.542-22.44-11.709-34.71-13.962-32.72-6.006-66.15-7.083-99.23-10.625-8.14-105.49-120.58-172.599-203.76-89.237-11.38 11.402-18.83 26.343-25.78 40.876-6.98 14.592-1.19 38.81-15.72 45.907-34.7 16.944-76.79 9.311-114.488 17.676-37.092 8.231-72.93 21.336-109.396 32.006Z"/><path fill="#f9cf9d" d="M864.205 719.561c56.012-14.171 110.738-32.361 162.875-39.619 12.5-1.739 54.36 2.111 61.96-9.668 7.54-11.677 5.78-27.452 11.71-40.023 20.02-42.445 62.34-85.995 114.43-83.491 54.57 2.623 99.33 42.811 115.02 94.192 3.14 10.29-3.67 22.987 1.84 32.226 3.84 6.431 13.99 5.882 21.43 6.764 21.49 2.551 43.32 1.157 64.85 3.474 51.28 5.522 103.13 32.047 154.04 31.554-1.07-29.967.6-60.157-3.21-89.9-3.85-30.098-29.66-83.517-42.59-107.008-51.95-94.423-163.22-155.154-268.68-161.988-86.76-5.624-181.77 7.554-256.58 55.199-7.572 4.821-10.195 15.019-16.98 20.894-8.195 7.096-19.854 9.736-27.394 17.524-5.719 5.907-5.614 15.855-10.968 22.095-16.441 19.161-39.216 32.716-53.765 53.35-39.567 56.116-45.481 130.626-27.988 194.425Z"/><path fill="#8ad2d1" d="M520.841 742.201c-1.676.839-5.011.64-5.03 2.515-1.474 136.887.388 273.794.581 410.684 22.796 1.65 46.17 10.3 68.386 4.94 10.784-2.6 10.36-21.49 20.331-26.35 13.349-6.51 29.434-6.1 44.252-5.14 31.145 2.02 30.086 37.23 31.213 57.33 13.005-10.11-5.558-35.67 12.882-37.56 15.958-1.63 32.235 1.44 48.119-.8 2.514-.35 1.419-6.03 3.907-6.53 10.839-2.17 32.936 7.49 32.969-3.56.205-70.48-6.597-140.811-7.948-211.27-1.33-69.418 13.489-141.989-7.546-208.157-18.484 1.607-52.968-5.806-69.79-10.765-28.944-8.529-56.007-22.712-84.913-31.368-6.572-1.969-13.876 1.233-20.58-.224-21.966-4.775-47.168-19.715-68.72-26.819-37.508-12.363-70.965 20.681-108.009-8.963l6.762-4.243-8.805-2.515 31.444-3.773c-14.009-5.663-28.744-9.785-42.027-16.987-19.376-10.505-9.113-33.148-8.283-50.303-16.712-6.049-27.739-31.643-46.776-17.718-5.594 4.091-14.187 7.774-14.716 14.683-4.981 64.968-2.941 130.33-1.396 195.47.277 11.663 10.29 22.878 20.637 28.267 59.35 30.914 114.851-65.02 173.056-40.844Z"/><path fill="#face52" d="M590.017 1149.08c-.354 1.67-.253 10.12-5.03 10.06-23.081-.28-46.118-2.09-69.176-3.14 0 103.13 1.023 206.27 0 309.4-.361 36.33-6.618 62.24 18.445 93.81 29.93 37.7 82.201 28.52 123.05 27.56 23.506-.54 47.273.28 70.433-3.77 7.379-1.29 13.376-7.01 19.078-11.87 11.372-9.68 29.517-16.77 31.861-31.52 9.67-60.87 2.517-123.25 2.517-184.89 0-72.11-1.678-144.22-2.517-216.33-28.599 8.17-58.568 2.17-87.794 8.66-11.06 2.46-1.828 22.9-5.907 33.47-3.492 9.05-11.325 16.17-19.136 21.92-5.109 3.76-33.23 2.82-35.576 2.61-60.021-5.3-27.225-16.31-40.248-55.97Z"/><path fill="#f9cf9d" d="M358.593 541.591c10.237 9.159 20.33 20.519 33.683 23.746.536 8.187-1.501 16.967 1.609 24.559 10.383 25.347 80.39 44.606 104.895 43.623-2.268 3.763-8.401 10.066.044 14.187 5.481 2.675 12.509.231 18.104 2.662 2.29.996 1.082 5.738 3.394 6.68 16.235 6.614 9.291-4.978 21.272 2.771 19.361 12.521 40.992 17.672 63.903 17.059l1.105 5.987c20.054 3.061 30.485 9.449 47.391 9.262l-3.604 4.165c19.796 2.261 106.567 21.73 110.681 28.93 7.962-29.855 2.317-61.758 2.756-92.652.054-3.796 6.361-5.443 6.677-9.226 3.435-41.109-6.291-89.211-6.917-128.29-.386-24.118 2.902-48.201 2.515-72.32-.285-17.854-10.844-42.56-27.993-52.251-49.466-27.956-110.26-17.25-164.013-8.734-5.075.804-11.876 1.438-14.188 6.024-3.531 7.003 1.087 15.883-.705 23.518-7.077 30.173-22.61 52.265-43.391 75.464-40.888 45.64-100.725 59.753-157.218 74.836Z"/><path fill="#519acb" d="M993.753 783.706c-20.904 15.097-3.887 35.983-21.868 54.79-20.582 21.525-21.127 11.518-47.631-1.833-1.328-.669-3.102-.192-4.438.461-12.615 6.164 17.609 33.917 23.145 38.21 22.889 17.749 45.696 34.317 69.659 51.126 11.18-7.919 6.93-2.191 8.8-19.494l8.27-.385c2.91-10.763 9.47-32.005 25.69-18.483-10.44 26.066 14.24 17.884 30.82 18.238 3.34 17.185 6.95 7.901 20.12 11.32 5.65-9.031 13.02-3.016 22.01-6.918-4.76-3.989-11.22 1.43-14.46-3.144-4.42-6.242 8.04-13.535 1.25-25.154-6.94-11.898-16.47-6.019-23.93-14.688-3.57-4.15-1.14-11.018-3.11-16.128-3.64-9.474-11.4-4.802-6.91-16.351-7.69-2.999-3.52-2.62-12.58 0l8.17 15.094c-12.26-2.799-20.04-11.279-31.84-15.259 9.95-.849 3.92.545 16.75-8.01-1.97-4.543-1.99-19.538-1.01-25.237-5.47-3.119-9.14-8.927-14.71-11.867-16.37-8.632-36.14 7.989-52.197-6.288Z"/><path fill="#fba399" d="M1327.34 1402.74c.46 9.83-4.92 15.1-4.2 25.18 2.84 39.32 39.63 46.49 69.83 30.49 13.47-7.14 23.94-25.93 38.43-27.33.14-18.81 8.45-21.81 6.96-46.17-.41-6.86-7.65-11.62-12.85-16.1-22.46-19.32-58.47-.31-76.77 15.38-7.17 6.14-12.52 15.36-21.4 18.55Z"/><path fill="#face52" d="m1274.23 481.219-5.66-2.516c5.47-2.188 12.93-5.086 15.72 1.887 15.6-18.966 22.3-48.193-3.77-64.144-11.15-6.822-93.26 13.88-108 25.162-9.26 7.099-12.71 57.719 8.64 58.476 28.81 1.025 67.62-3.735 93.07-18.865Z"/><path fill="#fba399" d="m1457.86 621.457 1.99 5.603c67.78-36.984-34.96-115.941-78.4-89.942-8.61 5.155-8.41 12.271-12.88 21.583-18.55 38.583 62.64 64.842 89.29 62.756Z"/><path fill="#face52" d="M948.473 1288.06c-48.764 13.93 30.582 108.33 63.517 105.65 20.98-1.71 31.17-32.44 19.49-47.79-25-32.88-42.5-69.43-83.007-57.86Zm150.297-266.64 2.52 3.14c22.22-31.711-7.8-52.202-36.84-47.85-8.78 1.316-44.49 40.43-51.83 49.11-19.663 23.27 8.16 53.3 33.33 47.8 20.61-4.51 39.89-34.52 52.82-52.2Z"/><path fill="#fba399" d="m939.669 605.107 2.516-3.774c31.145 39.59 56.866-4.49 82.575-31.511 11.18-11.742 21.29-30.983 6.12-44.767-31.448-28.574-70.076 27.782-86.179 43.577-7.871 7.719-12.186 27.531-5.032 36.475Z"/><path fill="#face52" d="M706.987 1004.44c12.245-2.36 10.193-15.168 12.551-28.144 7.191-39.581-57.084-50.211-82.482-46.493-34.101 4.994-15.166 52.967 7.084 63.075a307.68 307.68 0 0 0 23.857 9.672c14.75 5.27 24.704 4.64 38.99 1.89Z"/><path fill="#71c6f3" d="m602.594 1133.99 3.774 2.51c-33.949 48.85 1.808 68.66 50.691 69.36 2.195.03 4.47-.07 6.536-.81 24.642-8.84 24.802-52.91 6.579-68.23-16.653-13.99-49.175-9.8-67.58-2.83Z"/><path fill="#fba399" d="m958.535 762.953-4.402 1.259c-6.932-29.946-70.612-24.05-59.495 27.467 4.599 21.307 30.715 31.7 49.538 42.695 17.617 10.289 33.029-4.11 39.673-18.918 12.287-27.381-21.253-33.918-25.314-52.503Z"/><path fill="#519acb" d="M1301.27 852.882c3.69 10.702-2.28 21.745.63 32.073 2.03 7.206 13.6.801 16.98 6.917 3.16 5.708-.32 10.255.59 16.416 1.21 8.308 10.53 4.484 15.13 7.481 8.94 5.828-.37 11.027 13.84 5.66l-3.15-3.144c7.08-5.603 14.76-11.904 23.7-13.093-2.92-6.715 4.72-17.781 9-24.011-21.22-10.348 11.16-41.243-40.46-37.918l-2.05 8.102-34.21 1.517Z"/><path fill="#8ad2d1" d="M1516.34 1196.25c-15.43 4.51-47.43 26.91-51.56 42.13-4.66 17.16 7.03 46.28 29.26 35.93 22.16-10.31 69.68-44.25 44.89-71.52-6.22-6.85-14.27-8.98-22.59-6.54Z"/><path fill="#fba399" d="M1370.45 1022.05c-9.7.97-52.89 41.37-54.09 50.31-2.39 17.82-1.53 39.68 23.27 33.96 20.13-4.65 90.91-90.27 30.82-84.27Z"/><path fill="#face52" d="M1268.57 895.017c-1.91-5.873-9.9-5.86-15.09-9.434l5.66-2.515c-18.12-13.387-53.99-4.999-43.77 22.699 6.24 16.909 26.12 23.324 39.99 31.383 9.21 5.35 9.4 8.373 20.3 8.373 36.22 0 21.91-59.469-7.09-50.506Z"/><path fill="#71c6f3" d="m635.296 1328.31 2.515-2.52c41.433 36.4 86.53.76 29.363-43.48-37.122-28.73-63.393 20.62-31.878 46Z"/><path fill="#eb8423" d="M602.92 1513.88c3.989 17.5 70.962 12.74 74.258-19.16 1.017-9.83-18.518-3.72-26.159-8.97-22.408-15.39-29.93-20.18-42.471-39.3-33.563 19.02 8.182 64.7-5.628 67.43Z"/><path fill="#386f8a" d="M930.866 1136.5c-16.548 20.96-23.883 57.16 1.886 74.84 6.855 4.7 39.927 30.33 50.939 15.09 4.616-6.38 7.079-14.11 11.319-20.75-5.45-4.36-8.877.72-14.163-2.48-27.43-16.62-36.701-41.37-49.981-66.7Zm196.834 281.74c-11.33 17.78-20.88 34.5-13.11 55.58 6.53 17.74 48.05 35.04 64.35 19.66 7.73-7.29 9.13-16.54 13.54-27.45-15.55-9.99-45.43-9.33-58.18-24.39-5.8-6.86-2.81-15.72-6.6-23.4Z"/><path fill="#71c6f3" d="M642.842 534.673c-1.924 9.514 1.144 19.609 10.505 25.84 39.803 26.49 102.234-88.913 33.614-66.543-7.461 2.431-12.871 12.985-18.933 18.119-8.604 7.289-22.951 11.531-25.186 22.584Z"/><path fill="#386b68" d="M618.945 939.037c-3.536 8.447 3.533 28.05-9.144 29.35-2.874 11.741.262 34.193 1.598 40.453 7.764 36.37 55.249 16.35 77.98 16.35l-1.258-3.77c8.81-2.2 12.739-10.58 19.496-17.61-24.737-6.409-68.28 2.11-84.051-28.316-5.54-10.686-1.447-24.546-4.621-36.457Z"/><path fill="#8ad2d1" d="M1396.58 754.102c12.03-3.593 38.99 32.608 49.96 37.779 5.74 2.705 13.59-1.003 18.87 2.515 18.45-32.057-12.53-42.299-33.33-59.742l2.51-2.515c-20.46-17.978-50.24-7.481-38.01 21.963Z"/><path fill="#fba399" d="M938.413 1127.7c-14.927 4.85-2.521 29.79 5.363 38.7 10.921 12.34 21.936 24.61 33.587 36.26 1.321 1.32 3.269 1.89 5.07 2.39 15.006 4.15 27.517-17.32 18.237-28.93-8.274-10.35-16.992-20.35-25.729-30.31-14.652-16.72-17.593-24.26-36.528-18.11Z"/><path fill="#386f8a" d="M1208.83 895.645c-2.07 15.754-6.49 36.367-5.44 51.362 1.54 22.095 59.89 28.27 71.6 17.032 5.96-5.722 14.17-18.116 17.62-26.639-25.34 15.507-39.66-4.196-64.29-17.229-3.7-1.96-12.86 2.579-17.83 2.38.19-10.079 1.62-17.877-1.66-26.906Z"/><path fill="#fba399" d="M621.46 1431.44c-38.649 15.05 30.22 63.76 52.825 59.75 33.763-5.99-11.001-42.22-14.006-44.84-11.803-10.29-24.53-20.47-38.819-14.91Z"/><path fill="#0c486f" d="M934.639 1301.9c-7.983 5.91-4.961 9.58-5.706 20.26-2.508 35.93 22.131 69.27 53.678 86.7 14.845 8.2 42.009-5.42 38.809-22.69-29.269 21.91-70.513-34.77-83.005-55.38-6.788-11.2.353-18.11-3.776-28.89Z"/><path fill="#f2ba37" d="M1172.98 1423.27c-1.85-1.39-56.74-26.89-42.89 14.68 2.78 8.34 17.34 10.64 22.77 12.99 10.1 4.38 24.96 15.14 37.67 12.96 15.74-2.71 17.77-23.97 5.61-32.37-8.81-6.08-15.86-2.79-23.16-8.26Z"/><path fill="#0c486f" d="M1323.28 1408.18c-17.27 28.76-7.88 75.04 27.04 79.86 2.05.28 16.92 5.34 21.66 1.9 10.01-7.26 20.16-20.01 29.91-27.68 10.17-8 25.5-15.01 27.04-32.07-19.67 10.4-81.27 67.84-101.25 14.46-5.07-13.57-1.1-24.12-4.4-36.47Z"/><path fill="#bd7329" d="M624.605 1281.14c-9.956 8.8-7.304 25.81-7.87 39.08-.696 16.35 9.06 22.93 18.561 34.5-13.528 3.96-14.174 9.74 1.886 19.5 21.245 12.9 41.418-25.9 49.681-35.85-17.894-.75-34.929.29-49.052-13.83l-2.515 2.51c-10.302-15.29-4.415-30.22-10.691-45.91Z"/><path fill="#fba399" d="M1477.98 1087.45c-12.16 3.26-19.45 16.34-28.72 24.88-11.01 10.14-15.97 47.14 9.86 38.64 19.98-6.58 67.4-76.53 18.86-63.52Z"/><path fill="#b2533c" d="M1166.69 447.26c-9.89 13.91-6.08 23.873-5.03 38.361 2.98 41.194 10.73 30.2 57.86 27.67 15.97-.857 5.37 2.595 15.09-1.258l-7.17-1.859c2.22-7.154 41.49-6.464 54.13-22.902 10.66-13.859-9.54-13.53-17.4-7.31l2.51 2.515c-8.72 3.398-16.36 2.754-25.01 5.447-.41 9.558-59.73 18.078-69.93 2.37-9.14-14.072 1.88-30.476-5.05-43.034Z"/><path fill="#519acb" d="M1237.75 1055.38c24.21 12.94 45.93 23.06 69.18 38.36 2.66-4.97 1.41-9.39 5.03-13.84 2.73 7.06-.87 13.39 2.52 20.13 2.47-19.39 1.61-9.54 2.51-29.56-6.76-1.93-9.33-10.6-13.03-16.58-13.19-21.34-26.19-16.46-48.6-12.98-13.91 2.17-14.78-.7-17.61 14.47Z"/><path fill="#386f8a" d="M663.595 844.707c-4.309-3.012-10.668.192-15.722-1.259-12.871-3.689-29.666-19.143-30.527-33.281l-3.431.58c-2.466-5.556-.129-10.04-3.774-15.092-16.4 12.89-8.114 47.904-5.66 66.031 1.066 7.872 19.786 5.639 20.124 5.66 19.225 1.197 32.172-1.388 38.99-22.639Z"/><path fill="#8ad2d1" d="M392.551 565.487c-7.467 8.699-6.574 22.356-6.27 33.816.529 19.978 40.229 13.579 40.229 27.815 7.759 1.646 3.726.326 11.949 4.402l-8.175 2.515c13.128 5.534 63.17 17.648 71.707 1.186-21.613-2.056-96.919-25.61-106.496-46.156-3.825-8.203 1.405-15.48-2.944-23.578Z"/><path fill="#a53a2c" d="M1366.67 564.23c-9.28 5.373-1.89 19.939-.63 27.67 6.26 38.187 85.36 62.153 94.77 30.95-31.39-8.724-90.8-10.992-94.14-58.62Z"/><path fill="#386f8a" d="M1456.6 804.458c.45-.577 8.34-8.93 7.55-12.577-1.05-4.824-18.22-.144-24.44-6.001-3.39-3.195-41.71-28.762-41.96-30.099-1.36-7.127-.48-14.641-2.43-21.63-12.29 3.296-10.13 32.219-3.85 41.156 11.61 16.521 41.2 33.812 65.13 29.151Z"/><path fill="#519acb" d="M896.278 759.18c-9.295 12.632-3.272 9.518-16.922 11.29 11.855 22.746 20.754 38.271 36.501 58.628.832 1.075 1.851 2.301 1.802 3.66-.552 15.265-4.806 3.775 0 13.835.011-.085-.536-11.332 4.923-9.092 26.571 10.895 43.086 31.159 58.783-15.14-27.496 26.652-48.21 3.681-73.763-16.959-3.257-2.632-8.012-6.616-10.235-10.499-6.704-11.719 2.951-24.941-1.089-35.723Z"/><path fill="#2f526b" d="M1100.03 1018.9c-10.54 12.45-65.12 85.11-88.04 40.88-5.31-10.26-.3-21.73-5.03-32.07-4.2 7.9-3.94 18.52-3.74 27.4 1.61 74.33 43.46 26.71 74.81-5.34 11.26-11.52 22.51-16.15 22-30.87Z"/><path fill="#8ad2d1" d="M407.015 634.663c18.252 23.051 62.192 29.118 89.928 12.577l-1.885-6.288c-22.594 3.29-72.359-24.213-88.043-6.289Z"/><path fill="#a53a2c" d="M937.154 580.581c-27.86 19.055 2.092 85.294 35.772 36.863-22.782-3-31.973-15.337-35.772-36.863Z"/><path fill="#2f526b" d="M1495.59 1113.86c-22.66 25.66-39.48 56.87-61 13.84-3.56 9.7-.86 9.23 0 19.49 4.23 50.23 65.33-22.72 61-33.33Z"/><path fill="#0c486f" d="M1532.7 1239.64c-26.17 26.83-60.7 59.65-69.18 2.51-9.67 5.44-7.11 30.52-.63 37.74 5.91 6.57 17.68-.25 26.51-.51 2.28-.07 4.99 1.86 6.82.51 12.73-9.47 23.95-20.84 35.36-31.86 4.4-4.24 3.07-4.52 1.12-8.39Z"/><path fill="#534956" d="M643.471 534.044c-23.593 34.146 1.633 56.409 35.846 27.671-6.317-2.639-11.494 3.92-16.98 1.887-16.631-6.166-10.441-17.042-18.866-29.558Z"/><path fill="#386f8a" d="M603.852 1133.99c-15.323 15.59-22.976 37.84-10.911 59.75 12.2-2.63 1.17-25.71 2.736-37.11 1.028-7.49 8.216-13.67 11.013-20.82l-2.838-1.82Z"/><path fill="#519acb" d="M1433.96 950.986c1.66-9.722 5.79-12.877 13.84-18.866-15.57-11.849-37.91 9.59-13.84 18.866Z"/><path fill="#386f8a" d="M1212.6 888.098c-5.81 12.225-4.97 24.854-1.89 37.733 7.71-4.105 11.35.006 15.51-8.828-14.44-14.222-6.47-12.742-13.62-28.905Z"/><path fill="#1b5d8b" d="M1463.52 1280.51c1.16 1.17 3.1 5.23 4.4 5.66 10.27 3.43 21.42.95 28.3-6.91-2.5-1.67-31.57.13-32.7 1.25Z"/><path fill="#534956" d="M599.451 1185.56c-3.425 5.18-1.543 1.94-5.032 10.06 7.078 6.45 12.712 10.82 22.57 8.3.106-3.37-14.384-14.66-17.538-18.36Z"/><path fill="#386f8a" d="M1400 749.748c-7.95 7.951 18.07 27.217 23.9 21.381-7.6-7.605-16.59-14.074-23.9-21.381Z"/><path fill="#4b462c" d="M614.961 945.418c-2.62 8.037-5.303 13.571-4.45 22.128 11.992 1.388 13.566-19.176 4.45-22.128Z"/><path fill="#a53a2c" d="M1188.44 506.517c10.89.089 14.44 7.254 24.64 3.558l-2.34-5.596-22.3 2.038Z"/></g><path fill="#8ad2d1" d="m363.607 544.715 349.968 211.286-38.217 63.299-349.966-211.286 38.215-63.299Z"/><path fill="#f9cf9d" d="M365.587 542.507v13.139c99.74 69.961 221.03 127.006 359.171 169.68h37.328v-91.409H563.837v-91.41h-198.25Z"/><path fill="#face52" d="M677.826 824.688c7.192-39.579-27.972-41.66-53.371-37.942-34.101 4.993-16.067 50.09 6.183 60.197a308.35 308.35 0 0 0 23.857 9.676c14.75 5.269 20.974-18.955 23.331-31.931Z"/></g></svg>