<svg xmlns="http://www.w3.org/2000/svg" xml:space="preserve" stroke-miterlimit="10" style="fill-rule:nonzero;clip-rule:evenodd;stroke-linecap:round;stroke-linejoin:round" viewBox="0 0 1920 1920"><defs><radialGradient id="d" cx="0" cy="0" r="1" gradientTransform="translate(112.913 1490.15)scale(1159.04)" gradientUnits="userSpaceOnUse"><stop offset="0" stop-color="#f1c5ff"/><stop offset="1" stop-color="#ffebee" stop-opacity="0"/></radialGradient><radialGradient id="e" cx="0" cy="0" r="1" gradientTransform="translate(1919.99 1061.44)scale(1343.39)" gradientUnits="userSpaceOnUse"><stop offset="0" stop-color="#abffb8"/><stop offset="1" stop-color="#abffb8" stop-opacity="0"/></radialGradient><linearGradient id="b" x1="0" x2="1" y1="0" y2="0" gradientTransform="rotate(-30.628 1844.07 -459.278)scale(1159.793)" gradientUnits="userSpaceOnUse"><stop offset="0" stop-color="#fff5e5"/><stop offset="1" stop-color="#fcffe4"/></linearGradient></defs><clipPath id="a"><path d="M0 0h1920v1920H0z"/></clipPath><g clip-path="url(#a)"><path fill="url(#b)" d="M0 0h1920v1920H0z"/><path fill="url(#d)" d="M-1046.13 1490.14c0-640.116 518.919-1159.034 1159.038-1159.034S1271.95 850.024 1271.95 1490.14c0 640.12-518.923 1159.04-1159.042 1159.04S-1046.13 2130.26-1046.13 1490.14"/><path fill="url(#e)" d="M576.614 1061.44c0-741.933 601.456-1343.391 1343.396-1343.391 741.93 0 1343.38 601.458 1343.38 1343.391 0 741.93-601.45 1343.39-1343.38 1343.39-741.94 0-1343.396-601.46-1343.396-1343.39"/></g></svg>