<svg xmlns="http://www.w3.org/2000/svg" fill="none" viewBox="0 0 1920 1920"><g clip-path="url(#a)"><path fill="url(#b)" d="M0 0h1920v1920H0z"/><path fill="url(#c)" d="M-135.574 960c0-605.069 490.505-1095.574 1095.574-1095.574S2055.57 354.931 2055.57 960 1565.07 2055.57 960 2055.57-135.574 1565.07-135.574 960" opacity=".497"/><path fill="url(#d)" d="M216.067 960c0-410.862 333.07-743.932 743.932-743.932 410.861 0 743.931 333.07 743.931 743.932 0 410.86-333.07 743.93-743.931 743.93S216.067 1370.86 216.067 960" opacity=".901"/><path fill="url(#e)" d="M1325.58 428.296c-38.22-.236-74.37 40.621-108.59 105.777-13 24.752-25.72 53.037-38.16 83.88-117.19 290.654-212.131 921.377-307.988 609.197-95.857-312.17-320.759-386.979-430.527-271.431-87.119 91.711-101.063 159.291-122.467 379.741C446.981 1555.84 686.126 1703.93 960 1703.93c287.2.01 536.22-162.84 660.2-401.14-1.93-30.75-5.65-63.04-11.88-97.36-104.66-577.195-198.64-776.616-282.74-777.134m-7.02 348.715c79.83 0 144.54 64.714 144.54 144.542 0 79.827-64.71 144.547-144.54 144.547s-144.55-64.72-144.55-144.547c0-79.828 64.72-144.542 144.55-144.542" opacity=".713"/></g><defs><linearGradient id="b" x1="517.665" x2="1349.06" y1="1445.43" y2="535.878" gradientUnits="userSpaceOnUse"><stop stop-color="#F9E8FF"/><stop offset="1" stop-color="#FFEBF1"/></linearGradient><linearGradient id="d" x1="674.653" x2="1216.07" y1="1235.05" y2="760.853" gradientUnits="userSpaceOnUse"><stop stop-color="#FBF0FF"/><stop offset=".995" stop-color="#FFE1F5"/></linearGradient><linearGradient id="e" x1="317.846" x2="1620.19" y1="1066.11" y2="1066.11" gradientUnits="userSpaceOnUse"><stop stop-color="#F2A2FF"/><stop offset=".994" stop-color="#FF90DA"/></linearGradient><radialGradient id="c" cx="0" cy="0" r="1" gradientTransform="translate(960.008 960.003)scale(1024.36)" gradientUnits="userSpaceOnUse"><stop offset=".675" stop-color="#D556FF"/><stop offset="1" stop-color="#FFB2D6" stop-opacity="0"/></radialGradient><clipPath id="a"><path fill="#fff" d="M0 0h1920v1920H0z"/></clipPath></defs></svg>