<svg xmlns="http://www.w3.org/2000/svg" xml:space="preserve" stroke-miterlimit="10" style="fill-rule:nonzero;clip-rule:evenodd;stroke-linecap:round;stroke-linejoin:round" viewBox="0 0 1024 1024"><path fill="#e8f4ff" d="M0 0h1024v1024H0z"/><path fill="#acd6ff" d="M511.933 212C346.531 212 212 346.534 212 511.933 212 677.335 346.531 812 511.933 812 677.332 812 811.994 677.335 812 511.933 812 346.535 677.335 212 511.933 212m0 82.722c119.772 0 217.212 97.44 217.212 217.211 0 12.856-10.363 23.349-23.216 23.349-12.853.001-23.215-10.493-23.215-23.349-.001-94.106-76.675-170.647-170.781-170.647-12.852.001-23.215-10.359-23.215-23.215s10.363-23.349 23.215-23.349" opacity=".85"/></svg>