<svg xmlns="http://www.w3.org/2000/svg" xml:space="preserve" stroke-miterlimit="10" style="fill-rule:nonzero;clip-rule:evenodd;stroke-linecap:round;stroke-linejoin:round" viewBox="0 0 1024 1024"><clipPath id="a"><path d="M0 0h1024v1024H0z"/></clipPath><g clip-path="url(#a)"><path fill="#e8f4ff" d="M0 0h1026.29v1024H0V0Z"/><path fill="#9ed7ff" d="M755.388 221.147c-87.036 0-157.827 70.793-157.827 157.827 0 87.036 70.791 157.898 157.827 157.898 87.035 0 157.895-70.862 157.898-157.898 0-87.034-70.862-157.827-157.898-157.827Zm0 43.529c63.025 0 114.299 51.274 114.299 114.298 0 6.765-5.453 12.287-12.216 12.287-6.764 0-12.216-5.522-12.216-12.287-.001-49.519-40.347-89.796-89.867-89.796a12.193 12.193 0 0 1-12.216-12.216c0-6.764 5.453-12.286 12.216-12.286Z" opacity=".85"/><path fill="#a0d7ff" d="M237.198 608.121c-52.222 0-94.697 42.475-94.697 94.696 0 52.222 42.475 94.739 94.697 94.739 52.22 0 94.736-42.517 94.738-94.739 0-52.22-42.517-94.696-94.738-94.696Zm0 26.117c37.815 0 68.579 30.764 68.579 68.579 0 4.059-3.272 7.372-7.33 7.372s-7.33-3.313-7.33-7.372c0-29.712-24.208-53.878-53.919-53.878a7.315 7.315 0 0 1-7.33-7.329c0-4.059 3.272-7.372 7.33-7.372Z" opacity=".85"/><path fill="#aad6ff" d="M452.596 732.824c-64.793 0-117.494 52.702-117.494 117.494 0 64.793 52.701 117.546 117.494 117.546 64.792 0 117.544-52.753 117.546-117.546 0-64.792-52.753-117.494-117.546-117.494Zm0 32.405c46.918 0 85.089 38.17 85.089 85.089 0 5.036-4.06 9.146-9.094 9.146-5.035.001-9.095-4.11-9.095-9.146 0-36.865-30.036-66.848-66.9-66.848a9.078 9.078 0 0 1-9.094-9.095c0-5.036 4.059-9.146 9.094-9.146Z" opacity=".85"/><path fill="#9cd6ff" d="M334.963 72.874c-68.662 0-124.508 55.848-124.508 124.508 0 68.662 55.846 124.564 124.508 124.564 68.66 0 124.561-55.902 124.564-124.564 0-68.66-55.902-124.508-124.564-124.508Zm0 34.339c49.719 0 90.169 40.449 90.169 90.169 0 5.337-4.302 9.693-9.637 9.693-5.336 0-9.638-4.356-9.638-9.693 0-39.065-31.829-70.839-70.894-70.839a9.62 9.62 0 0 1-9.637-9.637c0-5.337 4.302-9.693 9.637-9.693Z" opacity=".85"/><path fill="#acd6ff" d="M431.591 361.154c-83.167 0-150.812 67.646-150.812 150.812 0 83.168 67.645 150.88 150.812 150.88 83.167 0 150.877-67.712 150.88-150.88 0-83.165-67.712-150.812-150.88-150.812Zm0 41.594c60.224 0 109.219 48.995 109.219 109.218 0 6.465-5.211 11.741-11.673 11.741-6.463 0-11.673-5.276-11.673-11.741-.001-47.318-38.554-85.805-85.873-85.805a11.652 11.652 0 0 1-11.673-11.673c0-6.464 5.211-11.74 11.673-11.74Z" opacity=".85"/><path fill="#91d6ff" d="M764.233 568.041c-68.661 0-124.508 55.847-124.508 124.508 0 68.662 55.847 124.564 124.508 124.564s124.562-55.902 124.564-124.564c0-68.66-55.902-124.508-124.564-124.508Zm0 34.339c49.72 0 90.169 40.449 90.169 90.169 0 5.337-4.302 9.693-9.637 9.693-5.336 0-9.637-4.356-9.637-9.693 0-39.065-31.829-70.839-70.895-70.839a9.62 9.62 0 0 1-9.637-9.637c0-5.337 4.302-9.693 9.637-9.693Z" opacity=".85"/></g></svg>