<svg xmlns="http://www.w3.org/2000/svg" fill="none" viewBox="0 0 1024 1024"><path fill="url(#a)" d="M0 0h1024v1024H0z"/><g fill="url(#b)"><path d="M493 494h32v32h-32z"/><path d="M581 496h32v32h-32z"/><path d="M556 559h32v32h-32z"/><path d="M429 558h32v32h-32z"/><path d="M490 585h32v32h-32z"/><path d="M401 500h32v32h-32z"/><path d="M429 439h32v32h-32z"/><path d="M494 404h32v32h-32z"/><path d="M556 439h32v32h-32z"/><path d="M713 496h32v32h-32z"/><path d="M701 567h32v32h-32z"/><path d="M667 630h32v32h-32z"/><path d="M614 679h32v32h-32z"/><path d="M548 707h32v32h-32z"/><path d="M477 713h32v32h-32z"/><path d="M407 696h32v32h-32z"/><path d="M347 656h32v32h-32z"/><path d="M303 600h32v32h-32z"/><path d="M279 532h32v32h-32z"/><path d="M279 460h32v32h-32z"/><path d="M303 392h32v32h-32z"/><path d="M347 335h32v32h-32z"/><path d="M407 295h32v32h-32z"/><path d="M477 278h32v32h-32z"/><path d="M548 284h32v32h-32z"/><path d="M614 313h32v32h-32z"/><path d="M667 361h32v32h-32z"/><path d="M701 425h32v32h-32z"/><path d="M731 496h32v32h-32z"/><path d="M720 565h32v32h-32z"/><path d="M690 629h32v32h-32z"/><path d="M642 680h32v32h-32z"/><path d="M581 715h32v32h-32z"/><path d="M512 731h32v32h-32z"/><path d="M442 726h32v32h-32z"/><path d="M377 700h32v32h-32z"/><path d="M322 656h32v32h-32z"/><path d="M282 598h32v32h-32z"/><path d="M261 531h32v32h-32z"/><path d="M261 460h32v32h-32z"/><path d="M282 393h32v32h-32z"/><path d="M322 335h32v32h-32z"/><path d="M377 291h32v32h-32z"/><path d="M442 266h32v32h-32z"/><path d="M512 260h32v32h-32z"/><path d="M581 276h32v32h-32z"/><path d="M642 311h32v32h-32z"/><path d="M690 363h32v32h-32z"/><path d="M720 426h32v32h-32z"/><path d="M844 496h32v32h-32z"/><path d="M837 566h32v32h-32z"/><path d="M816 633h32v32h-32z"/><path d="M782 695h32v32h-32z"/><path d="M736 749h32v32h-32z"/><path d="M680 792h32v32h-32z"/><path d="M616 823h32v32h-32z"/><path d="M548 841h32v32h-32z"/><path d="M477 845h32v32h-32z"/><path d="M407 834h32v32h-32z"/><path d="M341 809h32v32h-32z"/><path d="M281 772h32v32h-32z"/><path d="M229 723h32v32h-32z"/><path d="M189 665h32v32h-32z"/><path d="M161 600h32v32h-32z"/><path d="M147 531h32v32h-32z"/><path d="M147 460h32v32h-32z"/><path d="M161 391h32v32h-32z"/><path d="M189 326h32v32h-32z"/><path d="M229 268h32v32h-32z"/><path d="M281 219h32v32h-32z"/><path d="M341 182h32v32h-32z"/><path d="M407 157h32v32h-32z"/><path d="M477 146h32v32h-32z"/><path d="M548 150h32v32h-32z"/><path d="M616 168h32v32h-32z"/><path d="M680 199h32v32h-32z"/><path d="M736 242h32v32h-32z"/><path d="M782 296h32v32h-32z"/><path d="M816 358h32v32h-32z"/><path d="M837 425h32v32h-32z"/><path d="M866 496h32v32h-32z"/><path d="M859 566h32v32h-32z"/><path d="M840 634h32v32h-32z"/><path d="M807 696h32v32h-32z"/><path d="M764 752h32v32h-32z"/><path d="M710 798h32v32h-32z"/><path d="M649 833h32v32h-32z"/><path d="M582 857h32v32h-32z"/><path d="M512 867h32v32h-32z"/><path d="M442 863h32v32h-32z"/><path d="M373 847h32v32h-32z"/><path d="M309 817h32v32h-32z"/><path d="M251 776h32v32h-32z"/><path d="M203 725h32v32h-32z"/><path d="M165 666h32v32h-32z"/><path d="M138 600h32v32h-32z"/><path d="M125 531h32v32h-32z"/><path d="M125 460h32v32h-32z"/><path d="M138 391h32v32h-32z"/><path d="M165 325h32v32h-32z"/><path d="M203 266h32v32h-32z"/><path d="M251 215h32v32h-32z"/><path d="M309 174h32v32h-32z"/><path d="M373 145h32v32h-32z"/><path d="M442 128h32v32h-32z"/><path d="M512 125h32v32h-32z"/><path d="M582 135h32v32h-32z"/><path d="M649 158h32v32h-32z"/><path d="M710 193h32v32h-32z"/><path d="M764 239h32v32h-32z"/><path d="M807 295h32v32h-32z"/><path d="M840 358h32v32h-32z"/><path d="M859 425h32v32h-32z"/></g><circle cx="512" cy="512" r="466" fill="url(#c)"/><defs><radialGradient id="a" cx="0" cy="0" r="1" gradientTransform="matrix(972.8 0 0 1187.84 512.031 1044.51)" gradientUnits="userSpaceOnUse"><stop offset="0" stop-color="#1f3550"/><stop offset=".038" stop-color="#1f3550"/><stop offset=".077" stop-color="#1f3550"/><stop offset=".115" stop-color="#1f344f"/><stop offset=".154" stop-color="#1f344e"/><stop offset=".192" stop-color="#1f334d"/><stop offset=".231" stop-color="#1e324c"/><stop offset=".269" stop-color="#1e324b"/><stop offset=".308" stop-color="#1e314a"/><stop offset=".346" stop-color="#1e3049"/><stop offset=".385" stop-color="#1e2e47"/><stop offset=".423" stop-color="#1d2d46"/><stop offset=".462" stop-color="#1d2c44"/><stop offset=".5" stop-color="#1d2b43"/><stop offset=".538" stop-color="#1d2a41"/><stop offset=".577" stop-color="#1c293f"/><stop offset=".615" stop-color="#1c283e"/><stop offset=".654" stop-color="#1c263c"/><stop offset=".692" stop-color="#1c253b"/><stop offset=".731" stop-color="#1b243a"/><stop offset=".769" stop-color="#1b2338"/><stop offset=".808" stop-color="#1b2237"/><stop offset=".846" stop-color="#1b2136"/><stop offset=".885" stop-color="#1b2034"/><stop offset=".923" stop-color="#1a2033"/><stop offset=".962" stop-color="#1a1f32"/><stop offset="1" stop-color="#1a1e31"/></radialGradient><radialGradient id="b" cx="50%" cy="50%" r="50%" gradientUnits="objectBoundingBox"><stop offset="0" stop-color="#96e8ff" stop-opacity=".62"/><stop offset=".019" stop-color="#97e8ff" stop-opacity=".618"/><stop offset=".038" stop-color="#98e8ff" stop-opacity=".612"/><stop offset=".057" stop-color="#99e9ff" stop-opacity=".601"/><stop offset=".075" stop-color="#9be9ff" stop-opacity=".588"/><stop offset=".094" stop-color="#9deaff" stop-opacity=".571"/><stop offset=".113" stop-color="#9feaff" stop-opacity=".551"/><stop offset=".132" stop-color="#a2eaff" stop-opacity=".529"/><stop offset=".151" stop-color="#a4ebff" stop-opacity=".506"/><stop offset=".17" stop-color="#a7ecff" stop-opacity=".482"/><stop offset=".189" stop-color="#a9ecff" stop-opacity=".457"/><stop offset=".207" stop-color="#abedff" stop-opacity=".432"/><stop offset=".226" stop-color="#aeedff" stop-opacity=".407"/><stop offset=".245" stop-color="#b0edff" stop-opacity=".383"/><stop offset=".264" stop-color="#b2eeff" stop-opacity=".36"/><stop offset=".283" stop-color="#b4eeff" stop-opacity=".337"/><stop offset=".302" stop-color="#b6efff" stop-opacity=".315"/><stop offset=".321" stop-color="#b8efff" stop-opacity=".294"/><stop offset=".34" stop-color="#b9efff" stop-opacity=".275"/><stop offset=".358" stop-color="#bbf0ff" stop-opacity=".256"/><stop offset=".377" stop-color="#bcf0ff" stop-opacity=".238"/><stop offset=".396" stop-color="#bef0ff" stop-opacity=".222"/><stop offset=".415" stop-color="#bff1ff" stop-opacity=".206"/><stop offset=".434" stop-color="#c0f1ff" stop-opacity=".191"/><stop offset=".453" stop-color="#c1f1ff" stop-opacity=".178"/><stop offset=".472" stop-color="#c2f1ff" stop-opacity=".165"/><stop offset=".491" stop-color="#c3f2ff" stop-opacity=".153"/><stop offset=".509" stop-color="#c4f2ff" stop-opacity=".141"/><stop offset=".528" stop-color="#c5f2ff" stop-opacity=".131"/><stop offset=".547" stop-color="#c6f2ff" stop-opacity=".121"/><stop offset=".566" stop-color="#c6f2ff" stop-opacity=".112"/><stop offset=".585" stop-color="#c7f2ff" stop-opacity=".103"/><stop offset=".604" stop-color="#c8f2ff" stop-opacity=".095"/><stop offset=".623" stop-color="#c8f3ff" stop-opacity=".087"/><stop offset=".641" stop-color="#c9f3ff" stop-opacity=".08"/><stop offset=".66" stop-color="#c9f3ff" stop-opacity=".073"/><stop offset=".679" stop-color="#caf3ff" stop-opacity=".067"/><stop offset=".698" stop-color="#caf3ff" stop-opacity=".061"/><stop offset=".717" stop-color="#cbf3ff" stop-opacity=".055"/><stop offset=".736" stop-color="#cbf3ff" stop-opacity=".05"/><stop offset=".755" stop-color="#ccf3ff" stop-opacity=".045"/><stop offset=".774" stop-color="#ccf3ff" stop-opacity=".04"/><stop offset=".792" stop-color="#ccf3ff" stop-opacity=".036"/><stop offset=".811" stop-color="#cdf3ff" stop-opacity=".032"/><stop offset=".83" stop-color="#cdf4ff" stop-opacity=".028"/><stop offset=".849" stop-color="#cdf4ff" stop-opacity=".024"/><stop offset=".868" stop-color="#cdf4ff" stop-opacity=".02"/><stop offset=".887" stop-color="#cef4ff" stop-opacity=".017"/><stop offset=".906" stop-color="#cef4ff" stop-opacity=".014"/><stop offset=".924" stop-color="#cef4ff" stop-opacity=".011"/><stop offset=".943" stop-color="#cef4ff" stop-opacity=".008"/><stop offset=".962" stop-color="#cff4ff" stop-opacity=".005"/><stop offset=".981" stop-color="#cff4ff" stop-opacity=".003"/><stop offset="1" stop-color="#cff4ff" stop-opacity="0"/></radialGradient><radialGradient id="c" cx="0" cy="0" r="1" gradientTransform="rotate(90 0 512)scale(466)" gradientUnits="userSpaceOnUse"><stop offset="0" stop-color="#b3ecff" stop-opacity=".8"/><stop offset=".024" stop-color="#b3ecff" stop-opacity=".798"/><stop offset=".049" stop-color="#b3ecff" stop-opacity=".791"/><stop offset=".073" stop-color="#b3ecff" stop-opacity=".78"/><stop offset=".098" stop-color="#b3ecff" stop-opacity=".765"/><stop offset=".122" stop-color="#b4ecff" stop-opacity=".747"/><stop offset=".146" stop-color="#b4ecff" stop-opacity=".725"/><stop offset=".171" stop-color="#b4ecff" stop-opacity=".701"/><stop offset=".195" stop-color="#b5ecff" stop-opacity=".675"/><stop offset=".22" stop-color="#b5ecff" stop-opacity=".646"/><stop offset=".244" stop-color="#b5edff" stop-opacity=".617"/><stop offset=".268" stop-color="#b5edff" stop-opacity=".586"/><stop offset=".293" stop-color="#b6edff" stop-opacity=".555"/><stop offset=".317" stop-color="#b6edff" stop-opacity=".524"/><stop offset=".342" stop-color="#b6edff" stop-opacity=".494"/><stop offset=".366" stop-color="#b7edff" stop-opacity=".464"/><stop offset=".39" stop-color="#b7edff" stop-opacity=".434"/><stop offset=".415" stop-color="#b7edff" stop-opacity=".405"/><stop offset=".439" stop-color="#b8edff" stop-opacity=".377"/><stop offset=".463" stop-color="#b8edff" stop-opacity=".35"/><stop offset=".488" stop-color="#b8edff" stop-opacity=".324"/><stop offset=".512" stop-color="#b8edff" stop-opacity=".299"/><stop offset=".537" stop-color="#b8edff" stop-opacity=".276"/><stop offset=".561" stop-color="#b9edff" stop-opacity=".253"/><stop offset=".585" stop-color="#b9edff" stop-opacity=".232"/><stop offset=".61" stop-color="#b9eeff" stop-opacity=".212"/><stop offset=".634" stop-color="#b9eeff" stop-opacity=".192"/><stop offset=".658" stop-color="#b9eeff" stop-opacity=".174"/><stop offset=".683" stop-color="#baeeff" stop-opacity=".157"/><stop offset=".707" stop-color="#baeeff" stop-opacity=".14"/><stop offset=".732" stop-color="#baeeff" stop-opacity=".125"/><stop offset=".756" stop-color="#baeeff" stop-opacity=".11"/><stop offset=".78" stop-color="#baeeff" stop-opacity=".096"/><stop offset=".805" stop-color="#baeeff" stop-opacity=".083"/><stop offset=".829" stop-color="#baeeff" stop-opacity=".07"/><stop offset=".854" stop-color="#baeeff" stop-opacity=".059"/><stop offset=".878" stop-color="#bef" stop-opacity=".048"/><stop offset=".902" stop-color="#bef" stop-opacity=".037"/><stop offset=".927" stop-color="#bef" stop-opacity=".027"/><stop offset=".951" stop-color="#bef" stop-opacity=".018"/><stop offset=".976" stop-color="#bef" stop-opacity=".009"/><stop offset="1" stop-color="#bef" stop-opacity="0"/></radialGradient></defs></svg>