<svg xmlns="http://www.w3.org/2000/svg" fill="none" viewBox="0 0 1024 1024"><path fill="url(#a)" d="M1024 0H0v1024h1024z"/><path fill="url(#b)" d="M525 494h-32v32h32z"/><path fill="url(#c)" d="M613 496h-32v32h32z"/><path fill="url(#d)" d="M588 559h-32v32h32z"/><path fill="url(#e)" d="M461 558h-32v32h32z"/><path fill="url(#f)" d="M522 585h-32v32h32z"/><path fill="url(#g)" d="M433 500h-32v32h32z"/><path fill="url(#h)" d="M461 439h-32v32h32z"/><path fill="url(#i)" d="M526 404h-32v32h32z"/><path fill="url(#j)" d="M588 439h-32v32h32z"/><path fill="url(#k)" d="M745 496h-32v32h32z"/><path fill="url(#l)" d="M733 567h-32v32h32z"/><path fill="url(#m)" d="M699 630h-32v32h32z"/><path fill="url(#n)" d="M646 679h-32v32h32z"/><path fill="url(#o)" d="M580 707h-32v32h32z"/><path fill="url(#p)" d="M509 713h-32v32h32z"/><path fill="url(#q)" d="M439 696h-32v32h32z"/><path fill="url(#r)" d="M379 656h-32v32h32z"/><path fill="url(#s)" d="M335 600h-32v32h32z"/><path fill="url(#t)" d="M311 532h-32v32h32z"/><path fill="url(#u)" d="M311 460h-32v32h32z"/><path fill="url(#v)" d="M335 392h-32v32h32z"/><path fill="url(#w)" d="M379 335h-32v32h32z"/><path fill="url(#x)" d="M439 295h-32v32h32z"/><path fill="url(#y)" d="M509 278h-32v32h32z"/><path fill="url(#z)" d="M580 284h-32v32h32z"/><path fill="url(#A)" d="M646 313h-32v32h32z"/><path fill="url(#B)" d="M699 361h-32v32h32z"/><path fill="url(#C)" d="M733 425h-32v32h32z"/><path fill="url(#D)" d="M763 496h-32v32h32z"/><path fill="url(#E)" d="M752 565h-32v32h32z"/><path fill="url(#F)" d="M722 629h-32v32h32z"/><path fill="url(#G)" d="M674 680h-32v32h32z"/><path fill="url(#H)" d="M613 715h-32v32h32z"/><path fill="url(#I)" d="M544 731h-32v32h32z"/><path fill="url(#J)" d="M474 726h-32v32h32z"/><path fill="url(#K)" d="M409 700h-32v32h32z"/><path fill="url(#L)" d="M354 656h-32v32h32z"/><path fill="url(#M)" d="M314 598h-32v32h32z"/><path fill="url(#N)" d="M293 531h-32v32h32z"/><path fill="url(#O)" d="M293 460h-32v32h32z"/><path fill="url(#P)" d="M314 393h-32v32h32z"/><path fill="url(#Q)" d="M354 335h-32v32h32z"/><path fill="url(#R)" d="M409 291h-32v32h32z"/><path fill="url(#S)" d="M474 266h-32v32h32z"/><path fill="url(#T)" d="M544 260h-32v32h32z"/><path fill="url(#U)" d="M613 276h-32v32h32z"/><path fill="url(#V)" d="M674 311h-32v32h32z"/><path fill="url(#W)" d="M722 363h-32v32h32z"/><path fill="url(#X)" d="M752 426h-32v32h32z"/><path fill="url(#Y)" d="M876 496h-32v32h32z"/><path fill="url(#Z)" d="M869 566h-32v32h32z"/><path fill="url(#aa)" d="M848 633h-32v32h32z"/><path fill="url(#ab)" d="M814 695h-32v32h32z"/><path fill="url(#ac)" d="M768 749h-32v32h32z"/><path fill="url(#ad)" d="M712 792h-32v32h32z"/><path fill="url(#ae)" d="M648 823h-32v32h32z"/><path fill="url(#af)" d="M580 841h-32v32h32z"/><path fill="url(#ag)" d="M509 845h-32v32h32z"/><path fill="url(#ah)" d="M439 834h-32v32h32z"/><path fill="url(#ai)" d="M373 809h-32v32h32z"/><path fill="url(#aj)" d="M313 772h-32v32h32z"/><path fill="url(#ak)" d="M261 723h-32v32h32z"/><path fill="url(#al)" d="M221 665h-32v32h32z"/><path fill="url(#am)" d="M193 600h-32v32h32z"/><path fill="url(#an)" d="M179 531h-32v32h32z"/><path fill="url(#ao)" d="M179 460h-32v32h32z"/><path fill="url(#ap)" d="M193 391h-32v32h32z"/><path fill="url(#aq)" d="M221 326h-32v32h32z"/><path fill="url(#ar)" d="M261 268h-32v32h32z"/><path fill="url(#as)" d="M313 219h-32v32h32z"/><path fill="url(#at)" d="M373 182h-32v32h32z"/><path fill="url(#au)" d="M439 157h-32v32h32z"/><path fill="url(#av)" d="M509 146h-32v32h32z"/><path fill="url(#aw)" d="M580 150h-32v32h32z"/><path fill="url(#ax)" d="M648 168h-32v32h32z"/><path fill="url(#ay)" d="M712 199h-32v32h32z"/><path fill="url(#az)" d="M768 242h-32v32h32z"/><path fill="url(#aA)" d="M814 296h-32v32h32z"/><path fill="url(#aB)" d="M848 358h-32v32h32z"/><path fill="url(#aC)" d="M869 425h-32v32h32z"/><path fill="url(#aD)" d="M898 496h-32v32h32z"/><path fill="url(#aE)" d="M891 566h-32v32h32z"/><path fill="url(#aF)" d="M872 634h-32v32h32z"/><path fill="url(#aG)" d="M839 696h-32v32h32z"/><path fill="url(#aH)" d="M796 752h-32v32h32z"/><path fill="url(#aI)" d="M742 798h-32v32h32z"/><path fill="url(#aJ)" d="M681 833h-32v32h32z"/><path fill="url(#aK)" d="M614 857h-32v32h32z"/><path fill="url(#aL)" d="M544 867h-32v32h32z"/><path fill="url(#aM)" d="M474 863h-32v32h32z"/><path fill="url(#aN)" d="M405 847h-32v32h32z"/><path fill="url(#aO)" d="M341 817h-32v32h32z"/><path fill="url(#aP)" d="M283 776h-32v32h32z"/><path fill="url(#aQ)" d="M235 725h-32v32h32z"/><path fill="url(#aR)" d="M197 666h-32v32h32z"/><path fill="url(#aS)" d="M170 600h-32v32h32z"/><path fill="url(#aT)" d="M157 531h-32v32h32z"/><path fill="url(#aU)" d="M157 460h-32v32h32z"/><path fill="url(#aV)" d="M170 391h-32v32h32z"/><path fill="url(#aW)" d="M197 325h-32v32h32z"/><path fill="url(#aX)" d="M235 266h-32v32h32z"/><path fill="url(#aY)" d="M283 215h-32v32h32z"/><path fill="url(#aZ)" d="M341 174h-32v32h32z"/><path fill="url(#ba)" d="M405 145h-32v32h32z"/><path fill="url(#bb)" d="M474 128h-32v32h32z"/><path fill="url(#bc)" d="M544 125h-32v32h32z"/><path fill="url(#bd)" d="M614 135h-32v32h32z"/><path fill="url(#be)" d="M681 158h-32v32h32z"/><path fill="url(#bf)" d="M742 193h-32v32h32z"/><path fill="url(#bg)" d="M796 239h-32v32h32z"/><path fill="url(#bh)" d="M839 295h-32v32h32z"/><path fill="url(#bi)" d="M872 358h-32v32h32z"/><path fill="url(#bj)" d="M891 425h-32v32h32z"/><circle cx="512" cy="512" r="466" fill="url(#bk)"/><defs><radialGradient id="a" cx="0" cy="0" r="1" gradientTransform="matrix(972.8 0 0 1187.84 512.031 1044.51)" gradientUnits="userSpaceOnUse"><stop stop-color="#1F3550"/><stop offset="1" stop-color="#1A1E31"/></radialGradient><radialGradient id="b" cx="0" cy="0" r="1" gradientTransform="matrix(0 16 -16 0 509 510)" gradientUnits="userSpaceOnUse"><stop stop-color="#96E8FF" stop-opacity=".6"/><stop offset="1" stop-color="#CFF4FF" stop-opacity="0"/></radialGradient><radialGradient id="c" cx="0" cy="0" r="1" gradientTransform="matrix(0 16 -16 0 597 512)" gradientUnits="userSpaceOnUse"><stop stop-color="#96E8FF" stop-opacity=".6"/><stop offset="1" stop-color="#CFF4FF" stop-opacity="0"/></radialGradient><radialGradient id="d" cx="0" cy="0" r="1" gradientTransform="matrix(0 16 -16 0 572 575)" gradientUnits="userSpaceOnUse"><stop stop-color="#96E8FF" stop-opacity=".6"/><stop offset="1" stop-color="#CFF4FF" stop-opacity="0"/></radialGradient><radialGradient id="e" cx="0" cy="0" r="1" gradientTransform="matrix(0 16 -16 0 445 574)" gradientUnits="userSpaceOnUse"><stop stop-color="#96E8FF" stop-opacity=".6"/><stop offset="1" stop-color="#CFF4FF" stop-opacity="0"/></radialGradient><radialGradient id="f" cx="0" cy="0" r="1" gradientTransform="matrix(0 16 -16 0 506 601)" gradientUnits="userSpaceOnUse"><stop stop-color="#96E8FF" stop-opacity=".6"/><stop offset="1" stop-color="#CFF4FF" stop-opacity="0"/></radialGradient><radialGradient id="g" cx="0" cy="0" r="1" gradientTransform="matrix(0 16 -16 0 417 516)" gradientUnits="userSpaceOnUse"><stop stop-color="#96E8FF" stop-opacity=".6"/><stop offset="1" stop-color="#CFF4FF" stop-opacity="0"/></radialGradient><radialGradient id="h" cx="0" cy="0" r="1" gradientTransform="rotate(90 -5 450)scale(16)" gradientUnits="userSpaceOnUse"><stop stop-color="#96E8FF" stop-opacity=".6"/><stop offset="1" stop-color="#CFF4FF" stop-opacity="0"/></radialGradient><radialGradient id="i" cx="0" cy="0" r="1" gradientTransform="rotate(90 45 465)scale(16)" gradientUnits="userSpaceOnUse"><stop stop-color="#96E8FF" stop-opacity=".6"/><stop offset="1" stop-color="#CFF4FF" stop-opacity="0"/></radialGradient><radialGradient id="j" cx="0" cy="0" r="1" gradientTransform="matrix(0 16 -16 0 572 455)" gradientUnits="userSpaceOnUse"><stop stop-color="#96E8FF" stop-opacity=".6"/><stop offset="1" stop-color="#CFF4FF" stop-opacity="0"/></radialGradient><radialGradient id="k" cx="0" cy="0" r="1" gradientTransform="matrix(0 16 -16 0 729 512)" gradientUnits="userSpaceOnUse"><stop stop-color="#96E8FF" stop-opacity=".6"/><stop offset="1" stop-color="#CFF4FF" stop-opacity="0"/></radialGradient><radialGradient id="l" cx="0" cy="0" r="1" gradientTransform="rotate(90 67 650)scale(16)" gradientUnits="userSpaceOnUse"><stop stop-color="#96E8FF" stop-opacity=".6"/><stop offset="1" stop-color="#CFF4FF" stop-opacity="0"/></radialGradient><radialGradient id="m" cx="0" cy="0" r="1" gradientTransform="matrix(0 16 -16 0 683 646)" gradientUnits="userSpaceOnUse"><stop stop-color="#96E8FF" stop-opacity=".6"/><stop offset="1" stop-color="#CFF4FF" stop-opacity="0"/></radialGradient><radialGradient id="n" cx="0" cy="0" r="1" gradientTransform="matrix(0 16 -16 0 630 695)" gradientUnits="userSpaceOnUse"><stop stop-color="#96E8FF" stop-opacity=".6"/><stop offset="1" stop-color="#CFF4FF" stop-opacity="0"/></radialGradient><radialGradient id="o" cx="0" cy="0" r="1" gradientTransform="matrix(0 16 -16 0 564 723)" gradientUnits="userSpaceOnUse"><stop stop-color="#96E8FF" stop-opacity=".6"/><stop offset="1" stop-color="#CFF4FF" stop-opacity="0"/></radialGradient><radialGradient id="p" cx="0" cy="0" r="1" gradientTransform="matrix(0 16 -16 0 493 729)" gradientUnits="userSpaceOnUse"><stop stop-color="#96E8FF" stop-opacity=".6"/><stop offset="1" stop-color="#CFF4FF" stop-opacity="0"/></radialGradient><radialGradient id="q" cx="0" cy="0" r="1" gradientTransform="matrix(0 16 -16 0 423 712)" gradientUnits="userSpaceOnUse"><stop stop-color="#96E8FF" stop-opacity=".6"/><stop offset="1" stop-color="#CFF4FF" stop-opacity="0"/></radialGradient><radialGradient id="r" cx="0" cy="0" r="1" gradientTransform="matrix(0 16 -16 0 363 672)" gradientUnits="userSpaceOnUse"><stop stop-color="#96E8FF" stop-opacity=".6"/><stop offset="1" stop-color="#CFF4FF" stop-opacity="0"/></radialGradient><radialGradient id="s" cx="0" cy="0" r="1" gradientTransform="matrix(0 16 -16 0 319 616)" gradientUnits="userSpaceOnUse"><stop stop-color="#96E8FF" stop-opacity=".6"/><stop offset="1" stop-color="#CFF4FF" stop-opacity="0"/></radialGradient><radialGradient id="t" cx="0" cy="0" r="1" gradientTransform="matrix(0 16 -16 0 295 548)" gradientUnits="userSpaceOnUse"><stop stop-color="#96E8FF" stop-opacity=".6"/><stop offset="1" stop-color="#CFF4FF" stop-opacity="0"/></radialGradient><radialGradient id="u" cx="0" cy="0" r="1" gradientTransform="matrix(0 16 -16 0 295 476)" gradientUnits="userSpaceOnUse"><stop stop-color="#96E8FF" stop-opacity=".6"/><stop offset="1" stop-color="#CFF4FF" stop-opacity="0"/></radialGradient><radialGradient id="v" cx="0" cy="0" r="1" gradientTransform="matrix(0 16 -16 0 319 408)" gradientUnits="userSpaceOnUse"><stop stop-color="#96E8FF" stop-opacity=".6"/><stop offset="1" stop-color="#CFF4FF" stop-opacity="0"/></radialGradient><radialGradient id="w" cx="0" cy="0" r="1" gradientTransform="rotate(90 6 357)scale(16)" gradientUnits="userSpaceOnUse"><stop stop-color="#96E8FF" stop-opacity=".6"/><stop offset="1" stop-color="#CFF4FF" stop-opacity="0"/></radialGradient><radialGradient id="x" cx="0" cy="0" r="1" gradientTransform="rotate(90 56 367)scale(16)" gradientUnits="userSpaceOnUse"><stop stop-color="#96E8FF" stop-opacity=".6"/><stop offset="1" stop-color="#CFF4FF" stop-opacity="0"/></radialGradient><radialGradient id="y" cx="0" cy="0" r="1" gradientTransform="matrix(0 16 -16 0 493 294)" gradientUnits="userSpaceOnUse"><stop stop-color="#96E8FF" stop-opacity=".6"/><stop offset="1" stop-color="#CFF4FF" stop-opacity="0"/></radialGradient><radialGradient id="z" cx="0" cy="0" r="1" gradientTransform="matrix(0 16 -16 0 564 300)" gradientUnits="userSpaceOnUse"><stop stop-color="#96E8FF" stop-opacity=".6"/><stop offset="1" stop-color="#CFF4FF" stop-opacity="0"/></radialGradient><radialGradient id="A" cx="0" cy="0" r="1" gradientTransform="matrix(0 16 -16 0 630 329)" gradientUnits="userSpaceOnUse"><stop stop-color="#96E8FF" stop-opacity=".6"/><stop offset="1" stop-color="#CFF4FF" stop-opacity="0"/></radialGradient><radialGradient id="B" cx="0" cy="0" r="1" gradientTransform="matrix(0 16 -16 0 683 377)" gradientUnits="userSpaceOnUse"><stop stop-color="#96E8FF" stop-opacity=".6"/><stop offset="1" stop-color="#CFF4FF" stop-opacity="0"/></radialGradient><radialGradient id="C" cx="0" cy="0" r="1" gradientTransform="matrix(0 16 -16 0 717 441)" gradientUnits="userSpaceOnUse"><stop stop-color="#96E8FF" stop-opacity=".6"/><stop offset="1" stop-color="#CFF4FF" stop-opacity="0"/></radialGradient><radialGradient id="D" cx="0" cy="0" r="1" gradientTransform="matrix(0 16 -16 0 747 512)" gradientUnits="userSpaceOnUse"><stop stop-color="#96E8FF" stop-opacity=".6"/><stop offset="1" stop-color="#CFF4FF" stop-opacity="0"/></radialGradient><radialGradient id="E" cx="0" cy="0" r="1" gradientTransform="matrix(0 16 -16 0 736 581)" gradientUnits="userSpaceOnUse"><stop stop-color="#96E8FF" stop-opacity=".6"/><stop offset="1" stop-color="#CFF4FF" stop-opacity="0"/></radialGradient><radialGradient id="F" cx="0" cy="0" r="1" gradientTransform="matrix(0 16 -16 0 706 645)" gradientUnits="userSpaceOnUse"><stop stop-color="#96E8FF" stop-opacity=".6"/><stop offset="1" stop-color="#CFF4FF" stop-opacity="0"/></radialGradient><radialGradient id="G" cx="0" cy="0" r="1" gradientTransform="matrix(0 16 -16 0 658 696)" gradientUnits="userSpaceOnUse"><stop stop-color="#96E8FF" stop-opacity=".6"/><stop offset="1" stop-color="#CFF4FF" stop-opacity="0"/></radialGradient><radialGradient id="H" cx="0" cy="0" r="1" gradientTransform="matrix(0 16 -16 0 597 731)" gradientUnits="userSpaceOnUse"><stop stop-color="#96E8FF" stop-opacity=".6"/><stop offset="1" stop-color="#CFF4FF" stop-opacity="0"/></radialGradient><radialGradient id="I" cx="0" cy="0" r="1" gradientTransform="matrix(0 16 -16 0 528 747)" gradientUnits="userSpaceOnUse"><stop stop-color="#96E8FF" stop-opacity=".6"/><stop offset="1" stop-color="#CFF4FF" stop-opacity="0"/></radialGradient><radialGradient id="J" cx="0" cy="0" r="1" gradientTransform="matrix(0 16 -16 0 458 742)" gradientUnits="userSpaceOnUse"><stop stop-color="#96E8FF" stop-opacity=".6"/><stop offset="1" stop-color="#CFF4FF" stop-opacity="0"/></radialGradient><radialGradient id="K" cx="0" cy="0" r="1" gradientTransform="matrix(0 16 -16 0 393 716)" gradientUnits="userSpaceOnUse"><stop stop-color="#96E8FF" stop-opacity=".6"/><stop offset="1" stop-color="#CFF4FF" stop-opacity="0"/></radialGradient><radialGradient id="L" cx="0" cy="0" r="1" gradientTransform="matrix(0 16 -16 0 338 672)" gradientUnits="userSpaceOnUse"><stop stop-color="#96E8FF" stop-opacity=".6"/><stop offset="1" stop-color="#CFF4FF" stop-opacity="0"/></radialGradient><radialGradient id="M" cx="0" cy="0" r="1" gradientTransform="matrix(0 16 -16 0 298 614)" gradientUnits="userSpaceOnUse"><stop stop-color="#96E8FF" stop-opacity=".6"/><stop offset="1" stop-color="#CFF4FF" stop-opacity="0"/></radialGradient><radialGradient id="N" cx="0" cy="0" r="1" gradientTransform="matrix(0 16 -16 0 277 547)" gradientUnits="userSpaceOnUse"><stop stop-color="#96E8FF" stop-opacity=".6"/><stop offset="1" stop-color="#CFF4FF" stop-opacity="0"/></radialGradient><radialGradient id="O" cx="0" cy="0" r="1" gradientTransform="matrix(0 16 -16 0 277 476)" gradientUnits="userSpaceOnUse"><stop stop-color="#96E8FF" stop-opacity=".6"/><stop offset="1" stop-color="#CFF4FF" stop-opacity="0"/></radialGradient><radialGradient id="P" cx="0" cy="0" r="1" gradientTransform="matrix(0 16 -16 0 298 409)" gradientUnits="userSpaceOnUse"><stop stop-color="#96E8FF" stop-opacity=".6"/><stop offset="1" stop-color="#CFF4FF" stop-opacity="0"/></radialGradient><radialGradient id="Q" cx="0" cy="0" r="1" gradientTransform="matrix(0 16 -16 0 338 351)" gradientUnits="userSpaceOnUse"><stop stop-color="#96E8FF" stop-opacity=".6"/><stop offset="1" stop-color="#CFF4FF" stop-opacity="0"/></radialGradient><radialGradient id="R" cx="0" cy="0" r="1" gradientTransform="rotate(90 43 350)scale(16)" gradientUnits="userSpaceOnUse"><stop stop-color="#96E8FF" stop-opacity=".6"/><stop offset="1" stop-color="#CFF4FF" stop-opacity="0"/></radialGradient><radialGradient id="S" cx="0" cy="0" r="1" gradientTransform="rotate(90 88 370)scale(16)" gradientUnits="userSpaceOnUse"><stop stop-color="#96E8FF" stop-opacity=".6"/><stop offset="1" stop-color="#CFF4FF" stop-opacity="0"/></radialGradient><radialGradient id="T" cx="0" cy="0" r="1" gradientTransform="matrix(0 16 -16 0 528 276)" gradientUnits="userSpaceOnUse"><stop stop-color="#96E8FF" stop-opacity=".6"/><stop offset="1" stop-color="#CFF4FF" stop-opacity="0"/></radialGradient><radialGradient id="U" cx="0" cy="0" r="1" gradientTransform="matrix(0 16 -16 0 597 292)" gradientUnits="userSpaceOnUse"><stop stop-color="#96E8FF" stop-opacity=".6"/><stop offset="1" stop-color="#CFF4FF" stop-opacity="0"/></radialGradient><radialGradient id="V" cx="0" cy="0" r="1" gradientTransform="matrix(0 16 -16 0 658 327)" gradientUnits="userSpaceOnUse"><stop stop-color="#96E8FF" stop-opacity=".6"/><stop offset="1" stop-color="#CFF4FF" stop-opacity="0"/></radialGradient><radialGradient id="W" cx="0" cy="0" r="1" gradientTransform="matrix(0 16 -16 0 706 379)" gradientUnits="userSpaceOnUse"><stop stop-color="#96E8FF" stop-opacity=".6"/><stop offset="1" stop-color="#CFF4FF" stop-opacity="0"/></radialGradient><radialGradient id="X" cx="0" cy="0" r="1" gradientTransform="matrix(0 16 -16 0 736 442)" gradientUnits="userSpaceOnUse"><stop stop-color="#96E8FF" stop-opacity=".6"/><stop offset="1" stop-color="#CFF4FF" stop-opacity="0"/></radialGradient><radialGradient id="Y" cx="0" cy="0" r="1" gradientTransform="matrix(0 16 -16 0 860 512)" gradientUnits="userSpaceOnUse"><stop stop-color="#96E8FF" stop-opacity=".6"/><stop offset="1" stop-color="#CFF4FF" stop-opacity="0"/></radialGradient><radialGradient id="Z" cx="0" cy="0" r="1" gradientTransform="matrix(0 16 -16 0 853 582)" gradientUnits="userSpaceOnUse"><stop stop-color="#96E8FF" stop-opacity=".6"/><stop offset="1" stop-color="#CFF4FF" stop-opacity="0"/></radialGradient><radialGradient id="aa" cx="0" cy="0" r="1" gradientTransform="matrix(0 16 -16 0 832 649)" gradientUnits="userSpaceOnUse"><stop stop-color="#96E8FF" stop-opacity=".6"/><stop offset="1" stop-color="#CFF4FF" stop-opacity="0"/></radialGradient><radialGradient id="ab" cx="0" cy="0" r="1" gradientTransform="matrix(0 16 -16 0 798 711)" gradientUnits="userSpaceOnUse"><stop stop-color="#96E8FF" stop-opacity=".6"/><stop offset="1" stop-color="#CFF4FF" stop-opacity="0"/></radialGradient><radialGradient id="ac" cx="0" cy="0" r="1" gradientTransform="matrix(0 16 -16 0 752 765)" gradientUnits="userSpaceOnUse"><stop stop-color="#96E8FF" stop-opacity=".6"/><stop offset="1" stop-color="#CFF4FF" stop-opacity="0"/></radialGradient><radialGradient id="ad" cx="0" cy="0" r="1" gradientTransform="matrix(0 16 -16 0 696 808)" gradientUnits="userSpaceOnUse"><stop stop-color="#96E8FF" stop-opacity=".6"/><stop offset="1" stop-color="#CFF4FF" stop-opacity="0"/></radialGradient><radialGradient id="ae" cx="0" cy="0" r="1" gradientTransform="matrix(0 16 -16 0 632 839)" gradientUnits="userSpaceOnUse"><stop stop-color="#96E8FF" stop-opacity=".6"/><stop offset="1" stop-color="#CFF4FF" stop-opacity="0"/></radialGradient><radialGradient id="af" cx="0" cy="0" r="1" gradientTransform="matrix(0 16 -16 0 564 857)" gradientUnits="userSpaceOnUse"><stop stop-color="#96E8FF" stop-opacity=".6"/><stop offset="1" stop-color="#CFF4FF" stop-opacity="0"/></radialGradient><radialGradient id="ag" cx="0" cy="0" r="1" gradientTransform="matrix(0 16 -16 0 493 861)" gradientUnits="userSpaceOnUse"><stop stop-color="#96E8FF" stop-opacity=".6"/><stop offset="1" stop-color="#CFF4FF" stop-opacity="0"/></radialGradient><radialGradient id="ah" cx="0" cy="0" r="1" gradientTransform="matrix(0 16 -16 0 423 850)" gradientUnits="userSpaceOnUse"><stop stop-color="#96E8FF" stop-opacity=".6"/><stop offset="1" stop-color="#CFF4FF" stop-opacity="0"/></radialGradient><radialGradient id="ai" cx="0" cy="0" r="1" gradientTransform="matrix(0 16 -16 0 357 825)" gradientUnits="userSpaceOnUse"><stop stop-color="#96E8FF" stop-opacity=".6"/><stop offset="1" stop-color="#CFF4FF" stop-opacity="0"/></radialGradient><radialGradient id="aj" cx="0" cy="0" r="1" gradientTransform="matrix(0 16 -16 0 297 788)" gradientUnits="userSpaceOnUse"><stop stop-color="#96E8FF" stop-opacity=".6"/><stop offset="1" stop-color="#CFF4FF" stop-opacity="0"/></radialGradient><radialGradient id="ak" cx="0" cy="0" r="1" gradientTransform="matrix(0 16 -16 0 245 739)" gradientUnits="userSpaceOnUse"><stop stop-color="#96E8FF" stop-opacity=".6"/><stop offset="1" stop-color="#CFF4FF" stop-opacity="0"/></radialGradient><radialGradient id="al" cx="0" cy="0" r="1" gradientTransform="matrix(0 16 -16 0 205 681)" gradientUnits="userSpaceOnUse"><stop stop-color="#96E8FF" stop-opacity=".6"/><stop offset="1" stop-color="#CFF4FF" stop-opacity="0"/></radialGradient><radialGradient id="am" cx="0" cy="0" r="1" gradientTransform="matrix(0 16 -16 0 177 616)" gradientUnits="userSpaceOnUse"><stop stop-color="#96E8FF" stop-opacity=".6"/><stop offset="1" stop-color="#CFF4FF" stop-opacity="0"/></radialGradient><radialGradient id="an" cx="0" cy="0" r="1" gradientTransform="matrix(0 16 -16 0 163 547)" gradientUnits="userSpaceOnUse"><stop stop-color="#96E8FF" stop-opacity=".6"/><stop offset="1" stop-color="#CFF4FF" stop-opacity="0"/></radialGradient><radialGradient id="ao" cx="0" cy="0" r="1" gradientTransform="matrix(0 16 -16 0 163 476)" gradientUnits="userSpaceOnUse"><stop stop-color="#96E8FF" stop-opacity=".6"/><stop offset="1" stop-color="#CFF4FF" stop-opacity="0"/></radialGradient><radialGradient id="ap" cx="0" cy="0" r="1" gradientTransform="matrix(0 16 -16 0 177 407)" gradientUnits="userSpaceOnUse"><stop stop-color="#96E8FF" stop-opacity=".6"/><stop offset="1" stop-color="#CFF4FF" stop-opacity="0"/></radialGradient><radialGradient id="aq" cx="0" cy="0" r="1" gradientTransform="matrix(0 16 -16 0 205 342)" gradientUnits="userSpaceOnUse"><stop stop-color="#96E8FF" stop-opacity=".6"/><stop offset="1" stop-color="#CFF4FF" stop-opacity="0"/></radialGradient><radialGradient id="ar" cx="0" cy="0" r="1" gradientTransform="matrix(0 16 -16 0 245 284)" gradientUnits="userSpaceOnUse"><stop stop-color="#96E8FF" stop-opacity=".6"/><stop offset="1" stop-color="#CFF4FF" stop-opacity="0"/></radialGradient><radialGradient id="as" cx="0" cy="0" r="1" gradientTransform="rotate(90 31 266)scale(16)" gradientUnits="userSpaceOnUse"><stop stop-color="#96E8FF" stop-opacity=".6"/><stop offset="1" stop-color="#CFF4FF" stop-opacity="0"/></radialGradient><radialGradient id="at" cx="0" cy="0" r="1" gradientTransform="matrix(0 16 -16 0 357 198)" gradientUnits="userSpaceOnUse"><stop stop-color="#96E8FF" stop-opacity=".6"/><stop offset="1" stop-color="#CFF4FF" stop-opacity="0"/></radialGradient><radialGradient id="au" cx="0" cy="0" r="1" gradientTransform="matrix(0 16 -16 0 423 173)" gradientUnits="userSpaceOnUse"><stop stop-color="#96E8FF" stop-opacity=".6"/><stop offset="1" stop-color="#CFF4FF" stop-opacity="0"/></radialGradient><radialGradient id="av" cx="0" cy="0" r="1" gradientTransform="matrix(0 16 -16 0 493 162)" gradientUnits="userSpaceOnUse"><stop stop-color="#96E8FF" stop-opacity=".6"/><stop offset="1" stop-color="#CFF4FF" stop-opacity="0"/></radialGradient><radialGradient id="aw" cx="0" cy="0" r="1" gradientTransform="matrix(0 16 -16 0 564 166)" gradientUnits="userSpaceOnUse"><stop stop-color="#96E8FF" stop-opacity=".6"/><stop offset="1" stop-color="#CFF4FF" stop-opacity="0"/></radialGradient><radialGradient id="ax" cx="0" cy="0" r="1" gradientTransform="matrix(0 16 -16 0 632 184)" gradientUnits="userSpaceOnUse"><stop stop-color="#96E8FF" stop-opacity=".6"/><stop offset="1" stop-color="#CFF4FF" stop-opacity="0"/></radialGradient><radialGradient id="ay" cx="0" cy="0" r="1" gradientTransform="matrix(0 16 -16 0 696 215)" gradientUnits="userSpaceOnUse"><stop stop-color="#96E8FF" stop-opacity=".6"/><stop offset="1" stop-color="#CFF4FF" stop-opacity="0"/></radialGradient><radialGradient id="az" cx="0" cy="0" r="1" gradientTransform="matrix(0 16 -16 0 752 258)" gradientUnits="userSpaceOnUse"><stop stop-color="#96E8FF" stop-opacity=".6"/><stop offset="1" stop-color="#CFF4FF" stop-opacity="0"/></radialGradient><radialGradient id="aA" cx="0" cy="0" r="1" gradientTransform="matrix(0 16 -16 0 798 312)" gradientUnits="userSpaceOnUse"><stop stop-color="#96E8FF" stop-opacity=".6"/><stop offset="1" stop-color="#CFF4FF" stop-opacity="0"/></radialGradient><radialGradient id="aB" cx="0" cy="0" r="1" gradientTransform="matrix(0 16 -16 0 832 374)" gradientUnits="userSpaceOnUse"><stop stop-color="#96E8FF" stop-opacity=".6"/><stop offset="1" stop-color="#CFF4FF" stop-opacity="0"/></radialGradient><radialGradient id="aC" cx="0" cy="0" r="1" gradientTransform="matrix(0 16 -16 0 853 441)" gradientUnits="userSpaceOnUse"><stop stop-color="#96E8FF" stop-opacity=".6"/><stop offset="1" stop-color="#CFF4FF" stop-opacity="0"/></radialGradient><radialGradient id="aD" cx="0" cy="0" r="1" gradientTransform="matrix(0 16 -16 0 882 512)" gradientUnits="userSpaceOnUse"><stop stop-color="#96E8FF" stop-opacity=".6"/><stop offset="1" stop-color="#CFF4FF" stop-opacity="0"/></radialGradient><radialGradient id="aE" cx="0" cy="0" r="1" gradientTransform="matrix(0 16 -16 0 875 582)" gradientUnits="userSpaceOnUse"><stop stop-color="#96E8FF" stop-opacity=".6"/><stop offset="1" stop-color="#CFF4FF" stop-opacity="0"/></radialGradient><radialGradient id="aF" cx="0" cy="0" r="1" gradientTransform="matrix(0 16 -16 0 856 650)" gradientUnits="userSpaceOnUse"><stop stop-color="#96E8FF" stop-opacity=".6"/><stop offset="1" stop-color="#CFF4FF" stop-opacity="0"/></radialGradient><radialGradient id="aG" cx="0" cy="0" r="1" gradientTransform="matrix(0 16 -16 0 823 712)" gradientUnits="userSpaceOnUse"><stop stop-color="#96E8FF" stop-opacity=".6"/><stop offset="1" stop-color="#CFF4FF" stop-opacity="0"/></radialGradient><radialGradient id="aH" cx="0" cy="0" r="1" gradientTransform="rotate(90 6 774)scale(16)" gradientUnits="userSpaceOnUse"><stop stop-color="#96E8FF" stop-opacity=".6"/><stop offset="1" stop-color="#CFF4FF" stop-opacity="0"/></radialGradient><radialGradient id="aI" cx="0" cy="0" r="1" gradientTransform="matrix(0 16 -16 0 726 814)" gradientUnits="userSpaceOnUse"><stop stop-color="#96E8FF" stop-opacity=".6"/><stop offset="1" stop-color="#CFF4FF" stop-opacity="0"/></radialGradient><radialGradient id="aJ" cx="0" cy="0" r="1" gradientTransform="matrix(0 16 -16 0 665 849)" gradientUnits="userSpaceOnUse"><stop stop-color="#96E8FF" stop-opacity=".6"/><stop offset="1" stop-color="#CFF4FF" stop-opacity="0"/></radialGradient><radialGradient id="aK" cx="0" cy="0" r="1" gradientTransform="matrix(0 16 -16 0 598 873)" gradientUnits="userSpaceOnUse"><stop stop-color="#96E8FF" stop-opacity=".6"/><stop offset="1" stop-color="#CFF4FF" stop-opacity="0"/></radialGradient><radialGradient id="aL" cx="0" cy="0" r="1" gradientTransform="matrix(0 16 -16 0 528 883)" gradientUnits="userSpaceOnUse"><stop stop-color="#96E8FF" stop-opacity=".6"/><stop offset="1" stop-color="#CFF4FF" stop-opacity="0"/></radialGradient><radialGradient id="aM" cx="0" cy="0" r="1" gradientTransform="matrix(0 16 -16 0 458 879)" gradientUnits="userSpaceOnUse"><stop stop-color="#96E8FF" stop-opacity=".6"/><stop offset="1" stop-color="#CFF4FF" stop-opacity="0"/></radialGradient><radialGradient id="aN" cx="0" cy="0" r="1" gradientTransform="matrix(0 16 -16 0 389 863)" gradientUnits="userSpaceOnUse"><stop stop-color="#96E8FF" stop-opacity=".6"/><stop offset="1" stop-color="#CFF4FF" stop-opacity="0"/></radialGradient><radialGradient id="aO" cx="0" cy="0" r="1" gradientTransform="matrix(0 16 -16 0 325 833)" gradientUnits="userSpaceOnUse"><stop stop-color="#96E8FF" stop-opacity=".6"/><stop offset="1" stop-color="#CFF4FF" stop-opacity="0"/></radialGradient><radialGradient id="aP" cx="0" cy="0" r="1" gradientTransform="matrix(0 16 -16 0 267 792)" gradientUnits="userSpaceOnUse"><stop stop-color="#96E8FF" stop-opacity=".6"/><stop offset="1" stop-color="#CFF4FF" stop-opacity="0"/></radialGradient><radialGradient id="aQ" cx="0" cy="0" r="1" gradientTransform="matrix(0 16 -16 0 219 741)" gradientUnits="userSpaceOnUse"><stop stop-color="#96E8FF" stop-opacity=".6"/><stop offset="1" stop-color="#CFF4FF" stop-opacity="0"/></radialGradient><radialGradient id="aR" cx="0" cy="0" r="1" gradientTransform="matrix(0 16 -16 0 181 682)" gradientUnits="userSpaceOnUse"><stop stop-color="#96E8FF" stop-opacity=".6"/><stop offset="1" stop-color="#CFF4FF" stop-opacity="0"/></radialGradient><radialGradient id="aS" cx="0" cy="0" r="1" gradientTransform="matrix(0 16 -16 0 154 616)" gradientUnits="userSpaceOnUse"><stop stop-color="#96E8FF" stop-opacity=".6"/><stop offset="1" stop-color="#CFF4FF" stop-opacity="0"/></radialGradient><radialGradient id="aT" cx="0" cy="0" r="1" gradientTransform="matrix(0 16 -16 0 141 547)" gradientUnits="userSpaceOnUse"><stop stop-color="#96E8FF" stop-opacity=".6"/><stop offset="1" stop-color="#CFF4FF" stop-opacity="0"/></radialGradient><radialGradient id="aU" cx="0" cy="0" r="1" gradientTransform="matrix(0 16 -16 0 141 476)" gradientUnits="userSpaceOnUse"><stop stop-color="#96E8FF" stop-opacity=".6"/><stop offset="1" stop-color="#CFF4FF" stop-opacity="0"/></radialGradient><radialGradient id="aV" cx="0" cy="0" r="1" gradientTransform="matrix(0 16 -16 0 154 407)" gradientUnits="userSpaceOnUse"><stop stop-color="#96E8FF" stop-opacity=".6"/><stop offset="1" stop-color="#CFF4FF" stop-opacity="0"/></radialGradient><radialGradient id="aW" cx="0" cy="0" r="1" gradientTransform="matrix(0 16 -16 0 181 341)" gradientUnits="userSpaceOnUse"><stop stop-color="#96E8FF" stop-opacity=".6"/><stop offset="1" stop-color="#CFF4FF" stop-opacity="0"/></radialGradient><radialGradient id="aX" cx="0" cy="0" r="1" gradientTransform="matrix(0 16 -16 0 219 282)" gradientUnits="userSpaceOnUse"><stop stop-color="#96E8FF" stop-opacity=".6"/><stop offset="1" stop-color="#CFF4FF" stop-opacity="0"/></radialGradient><radialGradient id="aY" cx="0" cy="0" r="1" gradientTransform="rotate(90 18 249)scale(16)" gradientUnits="userSpaceOnUse"><stop stop-color="#96E8FF" stop-opacity=".6"/><stop offset="1" stop-color="#CFF4FF" stop-opacity="0"/></radialGradient><radialGradient id="aZ" cx="0" cy="0" r="1" gradientTransform="matrix(0 16 -16 0 325 190)" gradientUnits="userSpaceOnUse"><stop stop-color="#96E8FF" stop-opacity=".6"/><stop offset="1" stop-color="#CFF4FF" stop-opacity="0"/></radialGradient><radialGradient id="ba" cx="0" cy="0" r="1" gradientTransform="matrix(0 16 -16 0 389 161)" gradientUnits="userSpaceOnUse"><stop stop-color="#96E8FF" stop-opacity=".6"/><stop offset="1" stop-color="#CFF4FF" stop-opacity="0"/></radialGradient><radialGradient id="bb" cx="0" cy="0" r="1" gradientTransform="matrix(0 16 -16 0 458 144)" gradientUnits="userSpaceOnUse"><stop stop-color="#96E8FF" stop-opacity=".6"/><stop offset="1" stop-color="#CFF4FF" stop-opacity="0"/></radialGradient><radialGradient id="bc" cx="0" cy="0" r="1" gradientTransform="matrix(0 16 -16 0 528 141)" gradientUnits="userSpaceOnUse"><stop stop-color="#96E8FF" stop-opacity=".6"/><stop offset="1" stop-color="#CFF4FF" stop-opacity="0"/></radialGradient><radialGradient id="bd" cx="0" cy="0" r="1" gradientTransform="matrix(0 16 -16 0 598 151)" gradientUnits="userSpaceOnUse"><stop stop-color="#96E8FF" stop-opacity=".6"/><stop offset="1" stop-color="#CFF4FF" stop-opacity="0"/></radialGradient><radialGradient id="be" cx="0" cy="0" r="1" gradientTransform="matrix(0 16 -16 0 665 174)" gradientUnits="userSpaceOnUse"><stop stop-color="#96E8FF" stop-opacity=".6"/><stop offset="1" stop-color="#CFF4FF" stop-opacity="0"/></radialGradient><radialGradient id="bf" cx="0" cy="0" r="1" gradientTransform="matrix(0 16 -16 0 726 209)" gradientUnits="userSpaceOnUse"><stop stop-color="#96E8FF" stop-opacity=".6"/><stop offset="1" stop-color="#CFF4FF" stop-opacity="0"/></radialGradient><radialGradient id="bg" cx="0" cy="0" r="1" gradientTransform="matrix(0 16 -16 0 780 255)" gradientUnits="userSpaceOnUse"><stop stop-color="#96E8FF" stop-opacity=".6"/><stop offset="1" stop-color="#CFF4FF" stop-opacity="0"/></radialGradient><radialGradient id="bh" cx="0" cy="0" r="1" gradientTransform="matrix(0 16 -16 0 823 311)" gradientUnits="userSpaceOnUse"><stop stop-color="#96E8FF" stop-opacity=".6"/><stop offset="1" stop-color="#CFF4FF" stop-opacity="0"/></radialGradient><radialGradient id="bi" cx="0" cy="0" r="1" gradientTransform="matrix(0 16 -16 0 856 374)" gradientUnits="userSpaceOnUse"><stop stop-color="#96E8FF" stop-opacity=".6"/><stop offset="1" stop-color="#CFF4FF" stop-opacity="0"/></radialGradient><radialGradient id="bj" cx="0" cy="0" r="1" gradientTransform="matrix(0 16 -16 0 875 441)" gradientUnits="userSpaceOnUse"><stop stop-color="#96E8FF" stop-opacity=".6"/><stop offset="1" stop-color="#CFF4FF" stop-opacity="0"/></radialGradient><radialGradient id="bk" cx="0" cy="0" r="1" gradientTransform="rotate(90 0 512)scale(466)" gradientUnits="userSpaceOnUse"><stop stop-color="#B3ECFF" stop-opacity=".8"/><stop offset=".39" stop-color="#B7EDFF" stop-opacity=".36"/><stop offset=".725" stop-color="#BAEEFF" stop-opacity=".106"/><stop offset="1" stop-color="#BEF" stop-opacity="0"/></radialGradient></defs></svg>