<svg xmlns="http://www.w3.org/2000/svg" xml:space="preserve" stroke-miterlimit="10" style="fill-rule:nonzero;clip-rule:evenodd;stroke-linecap:round;stroke-linejoin:round" viewBox="0 0 1024 1024"><clipPath id="a"><path d="M0 0h1024v1024H0z"/></clipPath><g clip-path="url(#a)"><path fill="#fdf7f7" d="M0 0h1024v1024H0z"/><path fill="#ff3a40" d="M40.566 122.336c0-42.912 34.787-77.699 77.699-77.699s77.699 34.787 77.699 77.699-34.787 77.698-77.699 77.698-77.698-34.787-77.698-77.698Zm313.79 0c0-42.912 34.787-77.699 77.699-77.699s77.698 34.787 77.698 77.699-34.787 77.698-77.698 77.698c-42.912 0-77.699-34.787-77.699-77.698m313.79 0c0-42.912 34.787-77.699 77.698-77.699 42.912 0 77.699 34.787 77.699 77.699s-34.787 77.698-77.699 77.698-77.698-34.787-77.698-77.698"/><path fill="#5cb84e" d="M-114.831 372.563c0-42.911 34.787-77.698 77.699-77.698s77.698 34.787 77.698 77.698c0 42.912-34.786 77.699-77.698 77.699s-77.699-34.787-77.699-77.699m313.79 0c0-42.911 34.787-77.698 77.699-77.698s77.698 34.787 77.698 77.698c0 42.912-34.787 77.699-77.698 77.699-42.912 0-77.699-34.787-77.699-77.699m313.79 0c0-42.911 34.787-77.698 77.698-77.698 42.912 0 77.699 34.787 77.699 77.698 0 42.912-34.787 77.699-77.699 77.699s-77.698-34.787-77.698-77.699m313.79 0c0-42.911 34.786-77.698 77.698-77.698s77.699 34.787 77.699 77.698c0 42.912-34.787 77.699-77.699 77.699s-77.698-34.787-77.698-77.699"/><path fill="#ff3a40" d="M983.433 122.336c0-42.912 34.787-77.699 77.697-77.699s77.7 34.787 77.7 77.699-34.79 77.698-77.7 77.698-77.697-34.787-77.697-77.698M40.566 651.437c0-42.912 34.787-77.699 77.699-77.699s77.699 34.787 77.699 77.699-34.787 77.698-77.699 77.698-77.698-34.787-77.698-77.698Zm313.79 0c0-42.912 34.787-77.699 77.699-77.699s77.698 34.787 77.698 77.699-34.787 77.698-77.698 77.698c-42.912 0-77.699-34.787-77.699-77.698m313.79 0c0-42.912 34.787-77.699 77.698-77.699 42.912 0 77.699 34.787 77.699 77.699s-34.787 77.698-77.699 77.698-77.698-34.787-77.698-77.698"/><path fill="#5cb84e" d="M-114.831 901.664c0-42.911 34.787-77.698 77.699-77.698s77.698 34.787 77.698 77.698c0 42.912-34.786 77.699-77.698 77.699s-77.699-34.787-77.699-77.699m313.79 0c0-42.911 34.787-77.698 77.699-77.698s77.698 34.787 77.698 77.698c0 42.912-34.787 77.699-77.698 77.699-42.912 0-77.699-34.787-77.699-77.699m313.79 0c0-42.911 34.787-77.698 77.698-77.698 42.912 0 77.699 34.787 77.699 77.698 0 42.912-34.787 77.699-77.699 77.699s-77.698-34.787-77.698-77.699m313.79 0c0-42.911 34.786-77.698 77.698-77.698s77.699 34.787 77.699 77.698c0 42.912-34.787 77.699-77.699 77.699s-77.698-34.787-77.698-77.699"/><path fill="#ff3a40" d="M983.433 651.437c0-42.912 34.787-77.699 77.697-77.699s77.7 34.787 77.7 77.699-34.79 77.698-77.7 77.698-77.697-34.787-77.697-77.698"/></g></svg>