<svg xmlns="http://www.w3.org/2000/svg" fill="none" viewBox="0 0 1024 1024"><g clip-path="url(#a)"><path fill="url(#b)" d="M0 0h1024v1024H0z"/><g clip-path="url(#c)"><path fill="#F5DEDE" d="M997.925 820.67c-8.724-21.126-19.24-41.253-30.554-60.891-146.632 80.996-234.747 133.067-351.004 208.709.177.244.354.488.464.776 129.121-51.715 225.672-85.771 385.229-136.931-1.48-3.843-2.542-7.864-4.135-11.663m-450.502 89.482c54.398-128.936 96.641-221.572 169.326-373.477-1.219-.51-2.303-1.155-3.476-1.666-25.306-10.507-51.807-18.526-78.884-25.013-37.882 163.589-59.778 262.578-87.918 399.867.288.133.643.222.952.289m-69.85-.289c-28.14-137.289-50.037-236.278-87.939-399.867-27.1 6.487-53.601 14.506-78.885 25.013-1.195.488-2.302 1.156-3.476 1.666C379.959 688.58 422.2 781.239 476.598 910.152q.502-.097.975-.289m91.436 9.618c78.53-115.161 139.216-197.356 242.388-330.201-2.459-1.732-4.76-3.732-7.262-5.42-20.922-14.062-43.239-26.081-66.132-37.077-72.817 151.195-115.238 243.631-169.878 372.21.288.156.597.333.884.488m19.218 13.418c99.407-97.189 175.568-165.7 303.648-274.508-15.632-16.195-32.922-32.634-46.317-43.653-4.981-4.11-10.427-7.663-15.564-11.595-103.127 132.245-163.879 214.239-242.519 329.09.243.222.509.443.752.666m36.974 57.914c137.377-25.68 238.247-40.297 404.559-59.78-.64-3.799-1.22-7.62-1.97-11.374-4.47-22.725-10.91-44.696-18.22-66.289-159.385 51.072-255.693 84.994-384.634 136.621.088.267.176.578.265.822m-20.834-41.119c116.411-75.798 204.616-128.025 351.47-209.241-2.303-3.6-4.184-7.442-6.576-10.997-9.609-14.373-19.838-28.235-30.797-41.565-3.232-3.954-7.041-8.329-11.07-12.818-128.057 108.52-204.239 176.853-303.646 273.888.176.199.42.466.619.733M26.075 820.648c-1.57 3.799-2.677 7.819-4.161 11.663 159.583 51.182 256.091 85.215 385.232 136.953.133-.31.31-.555.443-.821C291.333 892.824 203.261 840.73 56.585 759.735c-11.27 19.66-21.786 39.787-30.51 60.913m372.989 169.298c-128.963-51.627-225.249-85.549-384.633-136.621C7.102 874.941.66 896.912-3.812 919.637c-.754 3.754-1.307 7.597-1.948 11.374 166.335 19.483 267.182 34.122 404.559 59.802zm37.483-57.692c-78.64-114.872-139.392-196.889-242.541-329.111-5.137 3.932-10.583 7.485-15.564 11.595-13.395 11.041-30.685 27.48-46.294 43.653C260.205 767.199 336.387 835.71 435.773 932.899c.243-.244.509-.444.774-.645m-16.295 16.707c-99.43-97.035-175.589-165.345-303.646-273.909-4.029 4.51-7.86 8.885-11.092 12.839a529 529 0 0 0-30.775 41.565c-2.37 3.532-4.295 7.375-6.576 10.997 146.876 81.238 235.081 133.443 351.47 209.241.199-.245.421-.489.619-.733m198.572 123.289c52.981 5.07 102.928 13.84 144.906 26.59 139.037 42.12 255.09 65.27 258.5 51.59 2.07-8.25 3.92-16.56 5.56-24.91 4.47-22.72 7.4-46.03 8.86-69.71-166.694-13.17-267.629-18.43-407.951-20.03-1.395 12.9-4.627 25.21-9.875 36.47m-631.515-16.44c1.462 23.68 4.384 46.99 8.856 69.71a568 568 0 0 0 5.58 24.93c3.41 13.68 119.488-9.51 258.503-51.58 42-12.75 91.925-21.55 144.905-26.6-5.247-11.28-8.48-23.59-9.918-36.49-140.323 1.6-241.236 6.88-407.926 20.03M1033.15 952.981c-166.271 19.483-266.896 34.056-404.075 59.719.023.31.067.57.088.86 140.522 1.62 241.679 6.91 408.387 20.04.07-3.69.27-7.33.27-11.02 0-23.592-1.68-46.806-4.67-69.599m-638.225 59.759c-137.179-25.681-237.804-40.253-404.073-59.714-2.99 22.793-4.672 45.962-4.672 69.594 0 3.69.2 7.36.266 11.02 166.712-13.17 267.869-18.43 408.391-20.03.021-.32.066-.63.088-.87m60.95-93.724c-54.64-128.602-97.061-221.038-169.878-372.211-22.915 10.952-45.21 22.993-66.132 37.055-2.524 1.688-4.781 3.688-7.284 5.42 103.216 132.845 163.88 215.062 242.41 330.201.287-.155.596-.311.884-.465m43.793-13.64c.354-.045.686-.068 1.041-.112-.222-140.087-.399-241.253-.665-408.775 9.565-.022 14.37-.022 23.934 0-.267 167.499-.443 268.688-.687 408.775.355.044.687.067 1.041.112 27.718-137.422 49.349-236.501 86.743-400.334 7.241 1.444 11.735 2.354 17.69 3.554-4.76-1.089-9.343-2.599-14.17-3.554A527.6 527.6 0 0 0 511.978 495c-35.113 0-69.431 3.444-102.618 10.042-4.782.932-9.365 2.465-14.125 3.554 5.977-1.2 10.449-2.11 17.69-3.554 37.416 163.833 59.025 262.912 86.743 400.334m107.333 107.984c-.508-5.17-1.305-10.22-2.567-15.126-.288-1.133-.664-2.178-1.019-3.266-1.505-4.999-3.277-9.819-5.534-14.418-.465-1.044-1.086-2-1.595-2.998-2.458-4.6-5.18-8.976-8.347-13.13-.686-.889-1.416-1.71-2.147-2.577a92 92 0 0 0-10.849-11.329c-.841-.733-1.705-1.422-2.568-2.133-4.074-3.332-8.346-6.331-12.929-8.974-.953-.556-1.948-1.067-2.945-1.6a97 97 0 0 0-14.567-6.198c-1.041-.355-2.104-.666-3.167-1-5.07-1.465-10.206-2.488-15.564-3.154a85 85 0 0 0-3.299-.334c-2.656-.221-5.225-.799-7.949-.799-2.723 0-5.291.578-7.947.799a80 80 0 0 0-3.299.334c-5.358.644-10.516 1.666-15.564 3.154-1.063.334-2.126.645-3.167 1a98.4 98.4 0 0 0-14.568 6.198 76 76 0 0 0-2.922 1.6 97 97 0 0 0-12.952 8.974 57 57 0 0 0-2.567 2.133c-3.941 3.465-7.506 7.241-10.849 11.329-.709.867-1.462 1.688-2.126 2.577-3.144 4.154-5.867 8.53-8.325 13.13-.531.998-1.107 1.954-1.616 2.998-2.258 4.599-4.029 9.441-5.535 14.395-.331 1.089-.73 2.177-1.018 3.289-1.284 4.906-2.06 9.926-2.568 15.126-.111 1.16-.288 2.29-.354 3.47-.112 1.95-.576 3.8-.576 5.77 0 4.45.73 8.71 1.306 12.98 1.705 12.55 5.756 24.23 11.8 34.76 16.606 28.86 47.314 48.52 82.892 48.52s66.286-19.66 82.847-48.52c6.044-10.55 10.096-22.21 11.801-34.76.553-4.27 1.284-8.53 1.284-12.98 0-1.97-.465-3.84-.576-5.79-.045-1.16-.243-2.32-.355-3.45"/></g><g clip-path="url(#d)"><path fill="#E5C7CC" fill-rule="evenodd" d="M416.609 299.146h198.756v13.136H416.609zm0 23.34h198.756v58.919H416.609zm-37.327 119.047h273.406v13.135H379.282zm0 23.34h273.406v58.915H379.282zm-28.661 119.042h330.727v13.14H350.621zm0 23.342h330.727v67.547H350.621zm-19.653 127.669h370.038v13.14H330.968zm0 23.342h370.038v67.547H330.968zm-.581 149.014h371.222v77.184H330.387z" clip-rule="evenodd"/><path fill="#FFF4F4" d="M593.633 330.328h-22.678v39.58h22.678zm-44.004 0h-22.683v39.58h22.683zm-44.009 0h-22.683v39.58h22.683zm-44.004 39.58h-22.679v-39.58h22.679zm149.609 101.063h-27.84v39.58h27.84zm-54.015 0h-27.839v39.58h27.839zm-54.015 0h-27.839v39.58h27.839zm-54.01 39.58h-27.839v-39.58h27.839zm170.749 110.688H589.54v39.58h30.394zm-58.968 0h-30.394v39.58h30.394zm-58.972 0H471.6v39.58h30.394zm-58.968 39.58h-30.394v-39.58h30.394zm207.587 111.438h-39.388v42.004h39.388zm-76.425 0h-39.389v42.004h39.389zm-76.421 0h-39.389v42.004h39.389zm-76.421 42.004h-39.389v-42.004h39.389z"/><path fill="#89545C" fill-rule="evenodd" d="M408.573 312.282h214.823v10.206H408.573zm-37.322 142.386h289.472v10.207H371.251zm-28.665 142.387h346.793v10.202H342.586zm-19.648 151.011h386.103v10.202H322.938z" clip-rule="evenodd"/><path fill="#89545C" d="M499.988 197.498s-55.865 74.203-145.084 69.13a41.05 41.05 0 0 0 13.999 10.534 41.1 41.1 0 0 0 17.125 3.745h259.934a41.07 41.07 0 0 0 31.128-14.279c-89.223 5.073-145.083-69.13-145.083-69.13z"/><path fill="#89545C" d="M462.506 280.916h106.983c-30.1-18.442-50.548-83.41-50.548-83.41h-5.891s-20.449 64.968-50.544 83.41m180.558 100.487H388.931s-25.457 23.644-67.763 31.159a48.16 48.16 0 0 0 30.311 10.733h329.037a48.13 48.13 0 0 0 30.308-10.733c-42.306-7.515-67.76-31.159-67.76-31.159"/><path fill="#89545C" d="M428.699 423.298h174.596c-16.982-16.143-35.689-41.893-35.689-41.893H464.388s-18.707 25.75-35.689 41.893m251.688 100.488H351.605s-25.457 23.645-67.763 31.16l6.012 3.675a48.2 48.2 0 0 0 25.108 7.062h402.069a48.17 48.17 0 0 0 25.104-7.062l6.012-3.675c-42.306-7.515-67.76-31.16-67.76-31.16"/><path fill="#89545C" d="M412.05 565.681h207.898c-20.223-16.142-37.352-41.892-37.352-41.892H449.398s-17.129 25.75-37.348 41.892m297 109.119H322.947s-25.458 23.645-67.764 31.159l6.012 3.676a48.04 48.04 0 0 0 25.104 7.057h459.395a48.16 48.16 0 0 0 25.103-7.057l6.012-3.676c-42.306-7.514-67.759-31.159-67.759-31.159"/><path fill="#89545C" d="M388.927 716.673H643.06c-24.719-16.142-37.015-41.892-37.015-41.892H421.616s-7.975 25.75-32.689 41.892m356.305 109.141h-458.47s-25.453 23.644-67.759 31.159l6.012 3.676a48.05 48.05 0 0 0 25.104 7.057H781.88a48.16 48.16 0 0 0 25.104-7.057l6.012-3.676c-42.306-7.515-67.764-31.159-67.764-31.159"/><path fill="#89545C" d="M379.294 867.709H652.7c-26.591-16.143-40.473-41.893-40.473-41.893h-192.46s-13.883 25.75-40.473 41.893"/><path fill="#B07177" fill-rule="evenodd" d="M537.587 929.149h-43.174v62.728h43.174z" clip-rule="evenodd"/><path fill="#B07177" d="m317.419 888.64 12.967 18.64h371.226l12.966-18.64zm91.163-607.729 8.035 18.231 198.76-.003 8.03-18.23zm-37.32 142.386 8.03 18.229 273.41.003 8.031-18.232zm-28.664 142.385 8.035 18.231 330.729-.005 8.029-18.23zm-19.653 151.014 8.03 18.229 370.04.002 8.032-18.231z"/><path fill="#B07177" fill-rule="evenodd" d="M317.405 867.709h397.159v20.935H317.405z" clip-rule="evenodd"/><path fill="#B07177" d="M411.663 287.896H620.33l3.078-6.984H408.585zm-37.328 142.383h283.317l3.077-6.984H371.258zm334.714 286.415H322.946l3.038 6.903h380.022z"/><path fill="#B07177" fill-rule="evenodd" d="M714.578 867.71h-397.16v6.902h397.16zm-12.965 48.082h-370.63v4.314h370.63z" clip-rule="evenodd"/><path fill="#B07177" fill-rule="evenodd" d="M425.799 917.948h-4.322v66.52h4.322zm185.316 0h-4.323v66.52h4.323z" clip-rule="evenodd"/><path fill="#B07177" d="M391.081 379.246h249.811v-16.772H391.081zm254.133 4.314H386.759v-25.4h258.455zM353.755 521.633h324.46v-16.768h-324.46zm328.786 4.314H349.437v-25.396h333.104zM325.099 672.648H706.88v-16.773H325.099zm386.103 4.314H320.776v-25.401h390.426z"/><path fill="#B07177" d="M351.604 496.487a.904.904 0 0 0-.886.884c0 .979 1.772.979 1.772 0a.904.904 0 0 0-.886-.884m0 6.082h-.147a5.28 5.28 0 0 1-3.668-1.541 5.25 5.25 0 0 1-1.544-3.661c0-2.852 2.351-5.203 5.212-5.203l.151.004a5.266 5.266 0 0 1 5.062 5.199c0 2.799-2.265 5.125-5.066 5.202m-28.658 144.932a.905.905 0 0 0-.886.884c0 .975 1.772.979 1.772 0a.905.905 0 0 0-.886-.884m0 6.082h-.147a5.28 5.28 0 0 1-3.669-1.541 5.26 5.26 0 0 1-1.544-3.661c0-2.852 2.351-5.203 5.213-5.203l.151.004a5.28 5.28 0 0 1 3.57 1.591 5.26 5.26 0 0 1 1.491 3.608c0 2.799-2.264 5.124-5.065 5.202M286.759 798.51a.904.904 0 0 0-.886.884c0 .98 1.772.98 1.772 0a.9.9 0 0 0-.886-.884m0 6.083h-.147a5.28 5.28 0 0 1-3.668-1.542 5.25 5.25 0 0 1-1.544-3.661c0-2.852 2.351-5.203 5.212-5.203l.151.005a5.28 5.28 0 0 1 3.571 1.591 5.26 5.26 0 0 1 1.491 3.607c0 2.8-2.265 5.125-5.066 5.203m458.473-6.083a.904.904 0 0 0-.886.884c0 .98 1.772.98 1.772 0a.9.9 0 0 0-.886-.884m0 6.083c-2.87 0-5.208-2.33-5.208-5.199 0-2.864 2.338-5.198 5.208-5.198s5.209 2.334 5.209 5.198c0 2.869-2.339 5.199-5.209 5.199M388.927 354.099a.904.904 0 0 0-.886.884c0 .98 1.772.98 1.772 0a.906.906 0 0 0-.886-.884m0 6.083h-.147a5.28 5.28 0 0 1-3.668-1.542 5.25 5.25 0 0 1-1.544-3.661c0-2.852 2.351-5.203 5.212-5.203l.151.005a5.28 5.28 0 0 1 3.571 1.591 5.26 5.26 0 0 1 1.491 3.607c0 2.8-2.265 5.125-5.066 5.203m254.137-6.083a.904.904 0 0 0-.886.884c0 .979 1.772.979 1.772 0a.9.9 0 0 0-.886-.884m0 6.082c-2.87 0-5.208-2.329-5.208-5.198 0-2.864 2.338-5.198 5.208-5.198s5.209 2.334 5.209 5.198c0 2.869-2.339 5.198-5.209 5.198m37.323 136.306a.904.904 0 0 0-.886.884c0 .979 1.772.979 1.772 0a.9.9 0 0 0-.886-.884m0 6.082c-2.87 0-5.208-2.329-5.208-5.198 0-2.864 2.338-5.198 5.208-5.198s5.209 2.334 5.209 5.198c0 2.869-2.339 5.198-5.209 5.198M709.05 647.5a.91.91 0 0 0-.886.885c0 .979 1.772.979 1.772 0a.9.9 0 0 0-.265-.619.9.9 0 0 0-.621-.266m0 6.083c-2.87 0-5.208-2.329-5.208-5.198 0-2.865 2.338-5.198 5.208-5.198s5.208 2.333 5.208 5.198c0 2.869-2.338 5.198-5.208 5.198"/><path fill="#B07177" d="M288.913 823.659h454.148v-16.773H288.913zm458.47 4.313H284.591v-25.4h462.792z"/><path fill="#B07177" fill-rule="evenodd" d="M518.159 35.003h-4.322v153.748h4.322z" clip-rule="evenodd"/><path fill="#B07177" fill-rule="evenodd" d="M532.007 179.993h-32.019v17.51h32.019z" clip-rule="evenodd"/><path fill="#B07177" d="M515.991 168.689c-5.221 0-9.859 3.866-11.501 9.582l-.488 1.717h23.984l-.493-1.717c-1.638-5.716-6.276-9.582-11.502-9.582"/><path fill="#B07177" fill-rule="evenodd" d="M524.941 157.715h-17.877v4.314h17.877zm0-9.861h-17.877v4.314h17.877zm0-9.861h-17.877v4.314h17.877zm0-9.861h-17.877v4.314h17.877zm0-9.865h-17.877v4.314h17.877zm0-9.861h-17.877v4.314h17.877zm0-9.861h-17.877v4.314h17.877zm0-9.869h-17.877v4.313h17.877zm0-9.861h-17.877v4.314h17.877zm0-9.861h-17.877v4.314h17.877z" clip-rule="evenodd"/><path fill="#B07177" d="M345.591 572.473h340.815l2.986-6.786H342.6z"/><path fill="#B07177" fill-rule="evenodd" d="M350.621 607.257h330.727v5.707H350.621zm-19.653 151.015h370.038v5.707H330.968zm-24.645 226.196h419.324v25.062H306.323z" clip-rule="evenodd"/><path fill="#B07177" fill-rule="evenodd" d="M257.084 1009.52H774.89V1025H257.084z" clip-rule="evenodd"/></g></g><defs><clipPath id="a"><path fill="#fff" d="M0 0h1024v1024H0z"/></clipPath><clipPath id="c"><path fill="#fff" d="M-13.82 495h1051.64v659.503H-13.82z"/></clipPath><clipPath id="d"><path fill="#fff" d="M219 35h594v990H219z"/></clipPath><linearGradient id="b" x1="512" x2="512" y1="0" y2="1024" gradientUnits="userSpaceOnUse"><stop stop-color="#FFF7F7"/><stop offset="1" stop-color="#FFF8F8"/></linearGradient></defs></svg>