<svg xmlns="http://www.w3.org/2000/svg" fill="none" viewBox="0 0 32 32"><g clip-path="url(#a)"><path fill="#DE99B6" d="M32 0H0v32h32z"/><path fill="#272842" d="M32 32H0V20h32z"/><path fill="#DE99B6" d="M1 0H0v1h1z"/><path fill="#CD90B9" d="M2 0H1v1h1zm1 0H2v1h1z"/><path fill="#DE99B6" d="M4 0H3v1h1z"/><path fill="#CD90B9" d="M5 0H4v1h1zm1 0H5v1h1z"/><path fill="#DE99B6" d="M7 0H6v1h1z"/><path fill="#CD90B9" d="M8 0H7v1h1z"/><path fill="#DE99B6" d="M9 0H8v1h1zm1 0H9v1h1z"/><path fill="#CD90B9" d="M11 0h-1v1h1z"/><path fill="#DE99B6" d="M12 0h-1v1h1zm1 0h-1v1h1z"/><path fill="#CD90B9" d="M14 0h-1v1h1z"/><path fill="#DE99B6" d="M15 0h-1v1h1z"/><path fill="#CD90B9" d="M16 0h-1v1h1zm1 0h-1v1h1z"/><path fill="#DE99B6" d="M18 0h-1v1h1z"/><path fill="#CD90B9" d="M19 0h-1v1h1z"/><path fill="#DE99B6" d="M20 0h-1v1h1zm1 0h-1v1h1z"/><path fill="#CD90B9" d="M22 0h-1v1h1zm1 0h-1v1h1z"/><path fill="#DE99B6" d="M24 0h-1v1h1zm1 0h-1v1h1zm1 0h-1v1h1z"/><path fill="#CD90B9" d="M27 0h-1v1h1zm1 0h-1v1h1z"/><path fill="#DE99B6" d="M29 0h-1v1h1zm1 0h-1v1h1z"/><path fill="#CD90B9" d="M31 0h-1v1h1z"/><path fill="#DE99B6" d="M32 0h-1v1h1zM1 1H0v1h1z"/><path fill="#ECA2B1" d="M2 1H1v1h1z"/><path fill="#DE99B6" d="M3 1H2v1h1zm1 0H3v1h1zm1 0H4v1h1zm1 0H5v1h1zm1 0H6v1h1zm1 0H7v1h1zm1 0H8v1h1zm1 0H9v1h1zm1 0h-1v1h1zm1 0h-1v1h1zm1 0h-1v1h1zm1 0h-1v1h1zm1 0h-1v1h1zm1 0h-1v1h1zm1 0h-1v1h1zm1 0h-1v1h1zm1 0h-1v1h1zm1 0h-1v1h1zm1 0h-1v1h1zm1 0h-1v1h1zm1 0h-1v1h1zm1 0h-1v1h1zm1 0h-1v1h1zm1 0h-1v1h1zm1 0h-1v1h1zm1 0h-1v1h1zm1 0h-1v1h1zm1 0h-1v1h1zm1 0h-1v1h1zm1 0h-1v1h1z"/><path fill="#ECA2B1" d="M1 2H0v1h1zm1 0H1v1h1z"/><path fill="#DE99B6" d="M3 2H2v1h1z"/><path fill="#ECA2B1" d="M4 2H3v1h1z"/><path fill="#DE99B6" d="M5 2H4v1h1zm1 0H5v1h1zm1 0H6v1h1zm1 0H7v1h1zm1 0H8v1h1z"/><path fill="#ECA2B1" d="M10 2H9v1h1z"/><path fill="#DE99B6" d="M11 2h-1v1h1zm1 0h-1v1h1z"/><path fill="#ECA2B1" d="M13 2h-1v1h1z"/><path fill="#DE99B6" d="M14 2h-1v1h1zm1 0h-1v1h1zm1 0h-1v1h1zm1 0h-1v1h1z"/><path fill="#ECA2B1" d="M18 2h-1v1h1zm1 0h-1v1h1zm1 0h-1v1h1zm1 0h-1v1h1z"/><path fill="#DE99B6" d="M22 2h-1v1h1zm1 0h-1v1h1z"/><path fill="#ECA2B1" d="M24 2h-1v1h1zm1 0h-1v1h1zm1 0h-1v1h1zm1 0h-1v1h1z"/><path fill="#DE99B6" d="M28 2h-1v1h1zm1 0h-1v1h1zm1 0h-1v1h1z"/><path fill="#ECA2B1" d="M31 2h-1v1h1z"/><path fill="#DE99B6" d="M32 2h-1v1h1z"/><path fill="#ECA2B1" d="M1 3H0v1h1zm1 0H1v1h1zm1 0H2v1h1zm1 0H3v1h1zm1 0H4v1h1zm1 0H5v1h1zm1 0H6v1h1zm1 0H7v1h1zm1 0H8v1h1zm1 0H9v1h1zm1 0h-1v1h1zm1 0h-1v1h1zm1 0h-1v1h1zm1 0h-1v1h1zm1 0h-1v1h1zm1 0h-1v1h1zm1 0h-1v1h1zm1 0h-1v1h1zm1 0h-1v1h1zm1 0h-1v1h1zm1 0h-1v1h1zm1 0h-1v1h1zm1 0h-1v1h1zm1 0h-1v1h1zm1 0h-1v1h1zm1 0h-1v1h1zm1 0h-1v1h1zm1 0h-1v1h1zm1 0h-1v1h1zm1 0h-1v1h1zm1 0h-1v1h1zm1 0h-1v1h1zM1 4H0v1h1zm1 0H1v1h1zm1 0H2v1h1zm1 0H3v1h1zm1 0H4v1h1z"/><path fill="#F8A9A7" d="M6 4H5v1h1z"/><path fill="#ECA2B1" d="M7 4H6v1h1zm1 0H7v1h1zm1 0H8v1h1zm1 0H9v1h1zm1 0h-1v1h1zm1 0h-1v1h1zm1 0h-1v1h1zm1 0h-1v1h1zm1 0h-1v1h1zm1 0h-1v1h1z"/><path fill="#F8A9A7" d="M17 4h-1v1h1z"/><path fill="#ECA2B1" d="M18 4h-1v1h1zm1 0h-1v1h1zm1 0h-1v1h1zm1 0h-1v1h1zm1 0h-1v1h1zm1 0h-1v1h1zm1 0h-1v1h1z"/><path fill="#F8A9A7" d="M25 4h-1v1h1zm1 0h-1v1h1z"/><path fill="#ECA2B1" d="M27 4h-1v1h1zm1 0h-1v1h1zm1 0h-1v1h1zm1 0h-1v1h1zm1 0h-1v1h1zm1 0h-1v1h1z"/><path fill="#F8A9A7" d="M1 5H0v1h1z"/><path fill="#ECA2B1" d="M2 5H1v1h1z"/><path fill="#F8A9A7" d="M3 5H2v1h1zm1 0H3v1h1zm1 0H4v1h1zm1 0H5v1h1zm1 0H6v1h1zm1 0H7v1h1zm1 0H8v1h1zm1 0H9v1h1zm1 0h-1v1h1zm1 0h-1v1h1zm1 0h-1v1h1zm1 0h-1v1h1zm1 0h-1v1h1zm1 0h-1v1h1zm1 0h-1v1h1zm1 0h-1v1h1zm1 0h-1v1h1zm1 0h-1v1h1zm1 0h-1v1h1zm1 0h-1v1h1zm1 0h-1v1h1zm1 0h-1v1h1zm1 0h-1v1h1zm1 0h-1v1h1zm1 0h-1v1h1zm1 0h-1v1h1zm1 0h-1v1h1zm1 0h-1v1h1zm1 0h-1v1h1z"/><path fill="#ECA2B1" d="M32 5h-1v1h1z"/><path fill="#F8A9A7" d="M1 6H0v1h1zm1 0H1v1h1zm1 0H2v1h1zm1 0H3v1h1zm1 0H4v1h1zm1 0H5v1h1zm1 0H6v1h1zm1 0H7v1h1zm1 0H8v1h1zm1 0H9v1h1zm1 0h-1v1h1zm1 0h-1v1h1zm1 0h-1v1h1zm1 0h-1v1h1zm1 0h-1v1h1zm1 0h-1v1h1zm1 0h-1v1h1zm1 0h-1v1h1zm1 0h-1v1h1zm1 0h-1v1h1z"/><path fill="#FDB9A4" d="M21 6h-1v1h1zm1 0h-1v1h1zm1 0h-1v1h1z"/><path fill="#F7A5A3" d="M24 6h-1v1h1zm1 0h-1v1h1z"/><path fill="#F8A9A7" d="M26 6h-1v1h1zm1 0h-1v1h1zm1 0h-1v1h1zm1 0h-1v1h1zm1 0h-1v1h1zm1 0h-1v1h1zm1 0h-1v1h1z"/><path fill="#EE8DA0" d="M1 7H0v1h1z"/><path fill="#F7A5A3" d="M2 7H1v1h1zm1 0H2v1h1z"/><path fill="#EE8DA0" d="M4 7H3v1h1z"/><path fill="#FDB1A4" d="M5 7H4v1h1z"/><path fill="#F8A9A7" d="M6 7H5v1h1zm1 0H6v1h1z"/><path fill="#FDB1A4" d="M8 7H7v1h1zm1 0H8v1h1zm1 0H9v1h1zm1 0h-1v1h1zm1 0h-1v1h1zm1 0h-1v1h1z"/><path fill="#F8A9A7" d="M14 7h-1v1h1zm1 0h-1v1h1zm1 0h-1v1h1zm1 0h-1v1h1z"/><path fill="#FDB1A4" d="M18 7h-1v1h1zm1 0h-1v1h1z"/><path fill="#F8A9A7" d="M20 7h-1v1h1z"/><path fill="#FDB9A4" d="M21 7h-1v1h1zm1 0h-1v1h1zm1 0h-1v1h1z"/><path fill="#F7A5A3" d="M24 7h-1v1h1zm1 0h-1v1h1z"/><path fill="#FDB1A4" d="M26 7h-1v1h1z"/><path fill="#F8A9A7" d="M27 7h-1v1h1zm1 0h-1v1h1zm1 0h-1v1h1zm1 0h-1v1h1zm1 0h-1v1h1z"/><path fill="#FDB9A4" d="M32 7h-1v1h1z"/><path fill="#EE8DA0" d="M1 8H0v1h1zm1 0H1v1h1zm1 0H2v1h1zm1 0H3v1h1z"/><path fill="#FDB1A4" d="M5 8H4v1h1zm1 0H5v1h1z"/><path fill="#DA6985" d="M7 8H6v1h1zm1 0H7v1h1zm1 0H8v1h1z"/><path fill="#CE6176" d="M10 8H9v1h1zm1 0h-1v1h1zm1 0h-1v1h1z"/><path fill="#FDB1A4" d="M13 8h-1v1h1zm1 0h-1v1h1zm1 0h-1v1h1zm1 0h-1v1h1zm1 0h-1v1h1zm1 0h-1v1h1zm1 0h-1v1h1zm1 0h-1v1h1z"/><path fill="#FDB9A4" d="M21 8h-1v1h1z"/><path fill="#EE8DA0" d="M22 8h-1v1h1zm1 0h-1v1h1zm1 0h-1v1h1z"/><path fill="#DA6985" d="M25 8h-1v1h1zm1 0h-1v1h1zm1 0h-1v1h1z"/><path fill="#CE6176" d="M28 8h-1v1h1z"/><path fill="#FDB9A4" d="M29 8h-1v1h1z"/><path fill="#CE6176" d="M30 8h-1v1h1z"/><path fill="#FDB1A4" d="M31 8h-1v1h1z"/><path fill="#FDB9A4" d="M32 8h-1v1h1zM1 9H0v1h1z"/><path fill="#F7A5A3" d="M2 9H1v1h1zm1 0H2v1h1zm1 0H3v1h1z"/><path fill="#FDB1A4" d="M5 9H4v1h1zm1 0H5v1h1z"/><path fill="#DA6985" d="M7 9H6v1h1zm1 0H7v1h1zm1 0H8v1h1z"/><path fill="#CE6176" d="M10 9H9v1h1zm1 0h-1v1h1zm1 0h-1v1h1z"/><path fill="#F7A5A3" d="M13 9h-1v1h1z"/><path fill="#EE8DA0" d="M14 9h-1v1h1z"/><path fill="#FDB1A4" d="M15 9h-1v1h1zm1 0h-1v1h1zm1 0h-1v1h1z"/><path fill="#DA6985" d="M18 9h-1v1h1z"/><path fill="#CE6176" d="M19 9h-1v1h1z"/><path fill="#FDB1A4" d="M20 9h-1v1h1z"/><path fill="#FDB9A4" d="M21 9h-1v1h1zm1 0h-1v1h1zm1 0h-1v1h1z"/><path fill="#DA6985" d="M24 9h-1v1h1zm1 0h-1v1h1zm1 0h-1v1h1zm1 0h-1v1h1z"/><path fill="#CE6176" d="M28 9h-1v1h1zm1 0h-1v1h1zm1 0h-1v1h1z"/><path fill="#FDB1A4" d="M31 9h-1v1h1z"/><path fill="#EE8DA0" d="M32 9h-1v1h1zM1 10H0v1h1z"/><path fill="#F7A5A3" d="M2 10H1v1h1zm1 0H2v1h1z"/><path fill="#EE8DA0" d="M4 10H3v1h1z"/><path fill="#FDB9A4" d="M5 10H4v1h1z"/><path fill="#FDB1A4" d="M6 10H5v1h1z"/><path fill="#DA6985" d="M7 10H6v1h1zm1 0H7v1h1zm1 0H8v1h1z"/><path fill="#CE6176" d="M10 10H9v1h1zm1 0h-1v1h1zm1 0h-1v1h1z"/><path fill="#EE8DA0" d="M13 10h-1v1h1zm1 0h-1v1h1z"/><path fill="#FDB1A4" d="M15 10h-1v1h1z"/><path fill="#DA6985" d="M16 10h-1v1h1zm1 0h-1v1h1z"/><path fill="#CE6176" d="M18 10h-1v1h1zm1 0h-1v1h1z"/><path fill="#FDB1A4" d="M20 10h-1v1h1z"/><path fill="#FDB9A4" d="M21 10h-1v1h1zm1 0h-1v1h1zm1 0h-1v1h1z"/><path fill="#DA6985" d="M24 10h-1v1h1zm1 0h-1v1h1zm1 0h-1v1h1z"/><path fill="#FDB9A4" d="M27 10h-1v1h1z"/><path fill="#CE6176" d="M28 10h-1v1h1zm1 0h-1v1h1zm1 0h-1v1h1z"/><path fill="#FDB1A4" d="M31 10h-1v1h1z"/><path fill="#FDB9A4" d="M32 10h-1v1h1z"/><path fill="#EE8DA0" d="M1 11H0v1h1zm1 0H1v1h1z"/><path fill="#DA6985" d="M3 11H2v1h1zm1 0H3v1h1zm1 0H4v1h1zm1 0H5v1h1zm1 0H6v1h1zm1 0H7v1h1zm1 0H8v1h1z"/><path fill="#CE6176" d="M10 11H9v1h1zm1 0h-1v1h1zm1 0h-1v1h1z"/><path fill="#F7A5A3" d="M13 11h-1v1h1z"/><path fill="#EE8DA0" d="M14 11h-1v1h1z"/><path fill="#FDB1A4" d="M15 11h-1v1h1z"/><path fill="#DA6985" d="M16 11h-1v1h1z"/><path fill="#FDB9A4" d="M17 11h-1v1h1z"/><path fill="#CE6176" d="M18 11h-1v1h1zm1 0h-1v1h1z"/><path fill="#EE8DA0" d="M20 11h-1v1h1zm1 0h-1v1h1zm1 0h-1v1h1zm1 0h-1v1h1z"/><path fill="#DA6985" d="M24 11h-1v1h1zm1 0h-1v1h1zm1 0h-1v1h1zm1 0h-1v1h1z"/><path fill="#CE6176" d="M28 11h-1v1h1zm1 0h-1v1h1zm1 0h-1v1h1z"/><path fill="#EE8DA0" d="M31 11h-1v1h1z"/><path fill="#FDB9A4" d="M32 11h-1v1h1z"/><path fill="#CE6176" d="M1 12H0v1h1z"/><path fill="#EE8DA0" d="M2 12H1v1h1zm1 0H2v1h1z"/><path fill="#FDB9A4" d="M4 12H3v1h1z"/><path fill="#9A4566" d="M5 12H4v1h1zm1 0H5v1h1zm1 0H6v1h1zm1 0H7v1h1z"/><path fill="#8C4868" d="M9 12H8v1h1zm1 0H9v1h1z"/><path fill="#CE6176" d="M11 12h-1v1h1zm1 0h-1v1h1z"/><path fill="#F7A5A3" d="M13 12h-1v1h1z"/><path fill="#EE8DA0" d="M14 12h-1v1h1z"/><path fill="#FDB9A4" d="M15 12h-1v1h1z"/><path fill="#DA6985" d="M16 12h-1v1h1zm1 0h-1v1h1z"/><path fill="#CE6176" d="M18 12h-1v1h1zm1 0h-1v1h1z"/><path fill="#EE8DA0" d="M20 12h-1v1h1zm1 0h-1v1h1zm1 0h-1v1h1z"/><path fill="#FDB9A4" d="M23 12h-1v1h1z"/><path fill="#DA6985" d="M24 12h-1v1h1zm1 0h-1v1h1zm1 0h-1v1h1zm1 0h-1v1h1z"/><path fill="#CE6176" d="M28 12h-1v1h1zm1 0h-1v1h1zm1 0h-1v1h1z"/><path fill="#EE8DA0" d="M31 12h-1v1h1zm1 0h-1v1h1z"/><path fill="#CE6176" d="M1 13H0v1h1z"/><path fill="#EE8DA0" d="M2 13H1v1h1z"/><path fill="#DA6985" d="M3 13H2v1h1zm1 0H3v1h1zm1 0H4v1h1zm1 0H5v1h1zm1 0H6v1h1zm1 0H7v1h1zm1 0H8v1h1z"/><path fill="#8C4868" d="M10 13H9v1h1z"/><path fill="#CE6176" d="M11 13h-1v1h1zm1 0h-1v1h1z"/><path fill="#EE8DA0" d="M13 13h-1v1h1z"/><path fill="#DA6985" d="M14 13h-1v1h1zm1 0h-1v1h1z"/><path fill="#CE6176" d="M16 13h-1v1h1zm1 0h-1v1h1zm1 0h-1v1h1zm1 0h-1v1h1z"/><path fill="#EE8DA0" d="M20 13h-1v1h1zm1 0h-1v1h1zm1 0h-1v1h1zm1 0h-1v1h1z"/><path fill="#DA6985" d="M24 13h-1v1h1zm1 0h-1v1h1zm1 0h-1v1h1zm1 0h-1v1h1z"/><path fill="#CE6176" d="M28 13h-1v1h1zm1 0h-1v1h1zm1 0h-1v1h1z"/><path fill="#EE8DA0" d="M31 13h-1v1h1zm1 0h-1v1h1z"/><path fill="#8C4868" d="M1 14H0v1h1zm1 0H1v1h1z"/><path fill="#DA6985" d="M3 14H2v1h1zm1 0H3v1h1zm1 0H4v1h1z"/><path fill="#9A4566" d="M6 14H5v1h1zm1 0H6v1h1z"/><path fill="#DA6985" d="M8 14H7v1h1z"/><path fill="#8C4868" d="M9 14H8v1h1zm1 0H9v1h1z"/><path fill="#CE6176" d="M11 14h-1v1h1zm1 0h-1v1h1z"/><path fill="#EE8DA0" d="M13 14h-1v1h1zm1 0h-1v1h1z"/><path fill="#DA6985" d="M15 14h-1v1h1z"/><path fill="#CE6176" d="M16 14h-1v1h1zm1 0h-1v1h1zm1 0h-1v1h1zm1 0h-1v1h1z"/><path fill="#EE8DA0" d="M20 14h-1v1h1zm1 0h-1v1h1zm1 0h-1v1h1z"/><path fill="#CE6176" d="M23 14h-1v1h1z"/><path fill="#DA6985" d="M24 14h-1v1h1zm1 0h-1v1h1zm1 0h-1v1h1zm1 0h-1v1h1z"/><path fill="#CE6176" d="M28 14h-1v1h1zm1 0h-1v1h1zm1 0h-1v1h1z"/><path fill="#3D3354" d="M31 14h-1v1h1zm1 0h-1v1h1z"/><path fill="#8C4868" d="M1 15H0v1h1zm1 0H1v1h1z"/><path fill="#DA6985" d="M3 15H2v1h1zm1 0H3v1h1z"/><path fill="#9A4566" d="M5 15H4v1h1zm1 0H5v1h1zm1 0H6v1h1zm1 0H7v1h1z"/><path fill="#8C4868" d="M9 15H8v1h1zm1 0H9v1h1z"/><path fill="#CE6176" d="M11 15h-1v1h1zm1 0h-1v1h1z"/><path fill="#EE8DA0" d="M13 15h-1v1h1z"/><path fill="#DA6985" d="M14 15h-1v1h1zm1 0h-1v1h1z"/><path fill="#CE6176" d="M16 15h-1v1h1zm1 0h-1v1h1zm1 0h-1v1h1zm1 0h-1v1h1zm1 0h-1v1h1zm1 0h-1v1h1z"/><path fill="#EE8DA0" d="M22 15h-1v1h1z"/><path fill="#3D3354" d="M23 15h-1v1h1zm1 0h-1v1h1zm1 0h-1v1h1zm1 0h-1v1h1zm1 0h-1v1h1zm1 0h-1v1h1z"/><path fill="#CE6176" d="M29 15h-1v1h1zm1 0h-1v1h1z"/><path fill="#3D3354" d="M31 15h-1v1h1zm1 0h-1v1h1z"/><path fill="#8C4868" d="M1 16H0v1h1zm1 0H1v1h1z"/><path fill="#DA6985" d="M3 16H2v1h1zm1 0H3v1h1z"/><path fill="#9A4566" d="M5 16H4v1h1zm1 0H5v1h1zm1 0H6v1h1zm1 0H7v1h1z"/><path fill="#8C4868" d="M9 16H8v1h1zm1 0H9v1h1z"/><path fill="#CE6176" d="M11 16h-1v1h1z"/><path fill="#8C4868" d="M12 16h-1v1h1z"/><path fill="#9A4566" d="M13 16h-1v1h1zm1 0h-1v1h1zm1 0h-1v1h1zm1 0h-1v1h1zm1 0h-1v1h1z"/><path fill="#CE6176" d="M18 16h-1v1h1z"/><path fill="#8C4868" d="M19 16h-1v1h1z"/><path fill="#EE8DA0" d="M20 16h-1v1h1z"/><path fill="#9A4566" d="M21 16h-1v1h1z"/><path fill="#3D3354" d="M22 16h-1v1h1zm1 0h-1v1h1zm1 0h-1v1h1zm1 0h-1v1h1zm1 0h-1v1h1zm1 0h-1v1h1zm1 0h-1v1h1z"/><path fill="#CE6176" d="M29 16h-1v1h1zm1 0h-1v1h1z"/><path fill="#3D3354" d="M31 16h-1v1h1zm1 0h-1v1h1z"/><path fill="#8C4868" d="M1 17H0v1h1zm1 0H1v1h1z"/><path fill="#DA6985" d="M3 17H2v1h1zm1 0H3v1h1z"/><path fill="#9A4566" d="M5 17H4v1h1zm1 0H5v1h1zm1 0H6v1h1zm1 0H7v1h1z"/><path fill="#8C4868" d="M9 17H8v1h1zm1 0H9v1h1z"/><path fill="#CE6176" d="M11 17h-1v1h1z"/><path fill="#8C4868" d="M12 17h-1v1h1z"/><path fill="#9A4566" d="M13 17h-1v1h1zm1 0h-1v1h1z"/><path fill="#CE6176" d="M15 17h-1v1h1zm1 0h-1v1h1zm1 0h-1v1h1z"/><path fill="#8C4868" d="M18 17h-1v1h1zm1 0h-1v1h1z"/><path fill="#9A4566" d="M20 17h-1v1h1zm1 0h-1v1h1zm1 0h-1v1h1z"/><path fill="#3D3354" d="M23 17h-1v1h1zm1 0h-1v1h1zm1 0h-1v1h1zm1 0h-1v1h1zm1 0h-1v1h1zm1 0h-1v1h1z"/><path fill="#9A4566" d="M29 17h-1v1h1zm1 0h-1v1h1z"/><path fill="#3D3354" d="M31 17h-1v1h1zm1 0h-1v1h1z"/><path fill="#8C4868" d="M1 18H0v1h1zm1 0H1v1h1z"/><path fill="#DA6985" d="M3 18H2v1h1zm1 0H3v1h1z"/><path fill="#9A4566" d="M5 18H4v1h1zm1 0H5v1h1zm1 0H6v1h1zm1 0H7v1h1z"/><path fill="#8C4868" d="M9 18H8v1h1zm1 0H9v1h1z"/><path fill="#CE6176" d="M11 18h-1v1h1z"/><path fill="#8C4868" d="M12 18h-1v1h1z"/><path fill="#9A4566" d="M13 18h-1v1h1z"/><path fill="#3D3354" d="M14 18h-1v1h1zm1 0h-1v1h1zm1 0h-1v1h1zm1 0h-1v1h1zm1 0h-1v1h1z"/><path fill="#8C4868" d="M19 18h-1v1h1z"/><path fill="#9A4566" d="M20 18h-1v1h1zm1 0h-1v1h1z"/><path fill="#3D3354" d="M22 18h-1v1h1zm1 0h-1v1h1zm1 0h-1v1h1zm1 0h-1v1h1zm1 0h-1v1h1zm1 0h-1v1h1zm1 0h-1v1h1z"/><path fill="#8C4868" d="M29 18h-1v1h1zm1 0h-1v1h1z"/><path fill="#3D3354" d="M31 18h-1v1h1zm1 0h-1v1h1z"/><path fill="#8C4868" d="M1 19H0v1h1zm1 0H1v1h1z"/><path fill="#CE6176" d="M3 19H2v1h1zm1 0H3v1h1z"/><path fill="#9A4566" d="M5 19H4v1h1zm1 0H5v1h1zm1 0H6v1h1zm1 0H7v1h1z"/><path fill="#8C4868" d="M9 19H8v1h1zm1 0H9v1h1z"/><path fill="#CE6176" d="M11 19h-1v1h1z"/><path fill="#8C4868" d="M12 19h-1v1h1z"/><path fill="#9A4566" d="M13 19h-1v1h1zm1 0h-1v1h1z"/><path fill="#3D3354" d="M15 19h-1v1h1z"/><path fill="#9A4566" d="M16 19h-1v1h1z"/><path fill="#3D3354" d="M17 19h-1v1h1zm1 0h-1v1h1zm1 0h-1v1h1zm1 0h-1v1h1zm1 0h-1v1h1zm1 0h-1v1h1zm1 0h-1v1h1zm1 0h-1v1h1zm1 0h-1v1h1zm1 0h-1v1h1zm1 0h-1v1h1zm1 0h-1v1h1z"/><path fill="#8C4868" d="M29 19h-1v1h1zm1 0h-1v1h1z"/><path fill="#3D3354" d="M31 19h-1v1h1zm1 0h-1v1h1z"/><path fill="#8C4868" d="M1 20H0v1h1zm1 0H1v1h1z"/><path fill="#CE6176" d="M3 20H2v1h1zm1 0H3v1h1z"/><path fill="#9A4566" d="M5 20H4v1h1zm1 0H5v1h1zm1 0H6v1h1zm1 0H7v1h1z"/><path fill="#8C4868" d="M9 20H8v1h1zm1 0H9v1h1z"/><path fill="#CE6176" d="M11 20h-1v1h1z"/><path fill="#8C4868" d="M12 20h-1v1h1z"/><path fill="#9A4566" d="M13 20h-1v1h1zm1 0h-1v1h1z"/><path fill="#3D3354" d="M15 20h-1v1h1zm1 0h-1v1h1zm1 0h-1v1h1zm1 0h-1v1h1zm1 0h-1v1h1zm1 0h-1v1h1zm1 0h-1v1h1zm1 0h-1v1h1zm1 0h-1v1h1zm1 0h-1v1h1zm1 0h-1v1h1zm1 0h-1v1h1zm1 0h-1v1h1zm1 0h-1v1h1z"/><path fill="#8C4868" d="M29 20h-1v1h1zm1 0h-1v1h1z"/><path fill="#3D3354" d="M31 20h-1v1h1zm1 0h-1v1h1z"/><path fill="#8C4868" d="M1 21H0v1h1zm1 0H1v1h1z"/><path fill="#3D3354" d="M3 21H2v1h1zm1 0H3v1h1zm1 0H4v1h1zm1 0H5v1h1zm1 0H6v1h1z"/><path fill="#9A4566" d="M8 21H7v1h1z"/><path fill="#8C4868" d="M9 21H8v1h1zm1 0H9v1h1z"/><path fill="#CE6176" d="M11 21h-1v1h1z"/><path fill="#8C4868" d="M12 21h-1v1h1z"/><path fill="#9A4566" d="M13 21h-1v1h1zm1 0h-1v1h1z"/><path fill="#3D3354" d="M15 21h-1v1h1zm1 0h-1v1h1zm1 0h-1v1h1zm1 0h-1v1h1zm1 0h-1v1h1z"/><path fill="#272842" d="M20 21h-1v1h1zm1 0h-1v1h1zm1 0h-1v1h1zm1 0h-1v1h1z"/><path fill="#2C2B44" d="M24 21h-1v1h1z"/><path fill="#272842" d="M25 21h-1v1h1zm1 0h-1v1h1zm1 0h-1v1h1z"/><path fill="#3D3354" d="M28 21h-1v1h1z"/><path fill="#8C4868" d="M29 21h-1v1h1zm1 0h-1v1h1z"/><path fill="#3D3354" d="M31 21h-1v1h1zm1 0h-1v1h1zM1 22H0v1h1zm1 0H1v1h1zm1 0H2v1h1zm1 0H3v1h1zm1 0H4v1h1zm1 0H5v1h1zm1 0H6v1h1zm1 0H7v1h1z"/><path fill="#8C4868" d="M9 22H8v1h1z"/><path fill="#3D3354" d="M10 22H9v1h1z"/><path fill="#8C4868" d="M11 22h-1v1h1zm1 0h-1v1h1z"/><path fill="#3D3354" d="M13 22h-1v1h1z"/><path fill="#9A4566" d="M14 22h-1v1h1z"/><path fill="#3D3354" d="M15 22h-1v1h1zm1 0h-1v1h1zm1 0h-1v1h1zm1 0h-1v1h1zm1 0h-1v1h1z"/><path fill="#272842" d="M20 22h-1v1h1zm1 0h-1v1h1zm1 0h-1v1h1zm1 0h-1v1h1zm1 0h-1v1h1zm1 0h-1v1h1zm1 0h-1v1h1zm1 0h-1v1h1z"/><path fill="#3D3354" d="M28 22h-1v1h1z"/><path fill="#8C4868" d="M29 22h-1v1h1zm1 0h-1v1h1z"/><path fill="#3D3354" d="M31 22h-1v1h1zm1 0h-1v1h1z"/><path fill="#272842" d="M1 23H0v1h1zm1 0H1v1h1z"/><path fill="#2C2B44" d="M3 23H2v1h1z"/><path fill="#272842" d="M4 23H3v1h1zm1 0H4v1h1z"/><path fill="#3D3354" d="M6 23H5v1h1zm1 0H6v1h1z"/><path fill="#9A4566" d="M8 23H7v1h1z"/><path fill="#8C4868" d="M9 23H8v1h1z"/><path fill="#3D3354" d="M10 23H9v1h1z"/><path fill="#8C4868" d="M11 23h-1v1h1zm1 0h-1v1h1z"/><path fill="#9A4566" d="M13 23h-1v1h1zm1 0h-1v1h1z"/><path fill="#3D3354" d="M15 23h-1v1h1zm1 0h-1v1h1zm1 0h-1v1h1zm1 0h-1v1h1zm1 0h-1v1h1zm1 0h-1v1h1zm1 0h-1v1h1zm1 0h-1v1h1zm1 0h-1v1h1z"/><path fill="#272842" d="M24 23h-1v1h1z"/><path fill="#3E3E5D" d="M25 23h-1v1h1z"/><path fill="#3D3354" d="M26 23h-1v1h1zm1 0h-1v1h1zm1 0h-1v1h1zm1 0h-1v1h1zm1 0h-1v1h1zm1 0h-1v1h1zm1 0h-1v1h1z"/><path fill="#272842" d="M1 24H0v1h1zm1 0H1v1h1z"/><path fill="#3E3E5D" d="M3 24H2v1h1zm1 0H3v1h1zm1 0H4v1h1z"/><path fill="#3D3354" d="M6 24H5v1h1zm1 0H6v1h1zm1 0H7v1h1zm1 0H8v1h1zm1 0H9v1h1zm1 0h-1v1h1z"/><path fill="#FFE9BF" d="M12 24h-1v1h1z"/><path fill="#3D3354" d="M13 24h-1v1h1zm1 0h-1v1h1zm1 0h-1v1h1zm1 0h-1v1h1z"/><path fill="#272842" d="M17 24h-1v1h1z"/><path fill="#3D3354" d="M18 24h-1v1h1z"/><path fill="#272842" d="M19 24h-1v1h1zm1 0h-1v1h1zm1 0h-1v1h1zm1 0h-1v1h1zm1 0h-1v1h1zm1 0h-1v1h1z"/><path fill="#3E3E5D" d="M25 24h-1v1h1z"/><path fill="#272842" d="M26 24h-1v1h1zm1 0h-1v1h1zm1 0h-1v1h1z"/><path fill="#3D3354" d="M29 24h-1v1h1z"/><path fill="#272842" d="M30 24h-1v1h1z"/><path fill="#3D3354" d="M31 24h-1v1h1zm1 0h-1v1h1z"/><path fill="#272842" d="M1 25H0v1h1zm1 0H1v1h1z"/><path fill="#3E3E5D" d="M3 25H2v1h1zm1 0H3v1h1zm1 0H4v1h1z"/><path fill="#3D3354" d="M6 25H5v1h1zm1 0H6v1h1z"/><path fill="#272842" d="M8 25H7v1h1z"/><path fill="#3D3354" d="M9 25H8v1h1zm1 0H9v1h1z"/><path fill="#2C2B44" d="M11 25h-1v1h1z"/><path fill="#3D3354" d="M12 25h-1v1h1zm1 0h-1v1h1zm1 0h-1v1h1zm1 0h-1v1h1zm1 0h-1v1h1z"/><path fill="#272842" d="M17 25h-1v1h1zm1 0h-1v1h1zm1 0h-1v1h1zm1 0h-1v1h1zm1 0h-1v1h1zm1 0h-1v1h1zm1 0h-1v1h1zm1 0h-1v1h1zm1 0h-1v1h1z"/><path fill="#3E3E5D" d="M26 25h-1v1h1z"/><path fill="#272842" d="M27 25h-1v1h1zm1 0h-1v1h1zm1 0h-1v1h1zm1 0h-1v1h1zm1 0h-1v1h1z"/><path fill="#3D3354" d="M32 25h-1v1h1z"/><path fill="#272842" d="M1 26H0v1h1zm1 0H1v1h1z"/><path fill="#3E3E5D" d="M3 26H2v1h1zm1 0H3v1h1z"/><path fill="#272842" d="M5 26H4v1h1z"/><path fill="#3D3354" d="M6 26H5v1h1z"/><path fill="#272842" d="M7 26H6v1h1zm1 0H7v1h1zm1 0H8v1h1zm1 0H9v1h1zm1 0h-1v1h1z"/><path fill="#8C4868" d="M12 26h-1v1h1zm1 0h-1v1h1zm1 0h-1v1h1z"/><path fill="#3D3354" d="M15 26h-1v1h1zm1 0h-1v1h1z"/><path fill="#272842" d="M17 26h-1v1h1zm1 0h-1v1h1zm1 0h-1v1h1zm1 0h-1v1h1zm1 0h-1v1h1zm1 0h-1v1h1zm1 0h-1v1h1zm1 0h-1v1h1zm1 0h-1v1h1zm1 0h-1v1h1zm1 0h-1v1h1zm1 0h-1v1h1zm1 0h-1v1h1zm1 0h-1v1h1zm1 0h-1v1h1z"/><path fill="#3D3354" d="M32 26h-1v1h1z"/><path fill="#272842" d="M1 27H0v1h1zm1 0H1v1h1zm1 0H2v1h1zm1 0H3v1h1zm1 0H4v1h1z"/><path fill="#3D3354" d="M6 27H5v1h1z"/><path fill="#272842" d="M7 27H6v1h1z"/><path fill="#3E3E5D" d="M8 27H7v1h1z"/><path fill="#272842" d="M9 27H8v1h1zm1 0H9v1h1zm1 0h-1v1h1z"/><path fill="#3D3354" d="M12 27h-1v1h1zm1 0h-1v1h1zm1 0h-1v1h1zm1 0h-1v1h1zm1 0h-1v1h1z"/><path fill="#272842" d="M17 27h-1v1h1zm1 0h-1v1h1zm1 0h-1v1h1zm1 0h-1v1h1zm1 0h-1v1h1zm1 0h-1v1h1zm1 0h-1v1h1zm1 0h-1v1h1zm1 0h-1v1h1zm1 0h-1v1h1zm1 0h-1v1h1zm1 0h-1v1h1zm1 0h-1v1h1zm1 0h-1v1h1zm1 0h-1v1h1z"/><path fill="#3D3354" d="M32 27h-1v1h1z"/><path fill="#272842" d="M1 28H0v1h1zm1 0H1v1h1zm1 0H2v1h1zm1 0H3v1h1zm1 0H4v1h1z"/><path fill="#3D3354" d="M6 28H5v1h1z"/><path fill="#272842" d="M7 28H6v1h1zm1 0H7v1h1zm1 0H8v1h1zm1 0H9v1h1zm1 0h-1v1h1zm1 0h-1v1h1z"/><path fill="#3D3354" d="M13 28h-1v1h1zm1 0h-1v1h1zm1 0h-1v1h1zm1 0h-1v1h1z"/><path fill="#272842" d="M17 28h-1v1h1zm1 0h-1v1h1zm1 0h-1v1h1zm1 0h-1v1h1zm1 0h-1v1h1zm1 0h-1v1h1zm1 0h-1v1h1zm1 0h-1v1h1zm1 0h-1v1h1zm1 0h-1v1h1zm1 0h-1v1h1zm1 0h-1v1h1zm1 0h-1v1h1zm1 0h-1v1h1zm1 0h-1v1h1z"/><path fill="#3D3354" d="M32 28h-1v1h1z"/><path fill="#272842" d="M1 29H0v1h1zm1 0H1v1h1zm1 0H2v1h1zm1 0H3v1h1zm1 0H4v1h1z"/><path fill="#3D3354" d="M6 29H5v1h1z"/><path fill="#272842" d="M7 29H6v1h1zm1 0H7v1h1zm1 0H8v1h1zm1 0H9v1h1zm1 0h-1v1h1zm1 0h-1v1h1z"/><path fill="#3D3354" d="M13 29h-1v1h1zm1 0h-1v1h1zm1 0h-1v1h1z"/><path fill="#FFF2CE" d="M16 29h-1v1h1z"/><path fill="#272842" d="M17 29h-1v1h1z"/><path fill="#3D3354" d="M18 29h-1v1h1z"/><path fill="#3E3E5D" d="M19 29h-1v1h1z"/><path fill="#272842" d="M20 29h-1v1h1zm1 0h-1v1h1zm1 0h-1v1h1zm1 0h-1v1h1zm1 0h-1v1h1zm1 0h-1v1h1zm1 0h-1v1h1zm1 0h-1v1h1zm1 0h-1v1h1zm1 0h-1v1h1zm1 0h-1v1h1zm1 0h-1v1h1zm1 0h-1v1h1zM1 30H0v1h1zm1 0H1v1h1zm1 0H2v1h1zm1 0H3v1h1zm1 0H4v1h1z"/><path fill="#3D3354" d="M6 30H5v1h1z"/><path fill="#272842" d="M7 30H6v1h1zm1 0H7v1h1zm1 0H8v1h1zm1 0H9v1h1zm1 0h-1v1h1zm1 0h-1v1h1zm1 0h-1v1h1zm1 0h-1v1h1zm1 0h-1v1h1zm1 0h-1v1h1zm1 0h-1v1h1zm1 0h-1v1h1zm1 0h-1v1h1zm1 0h-1v1h1zm1 0h-1v1h1zm1 0h-1v1h1zm1 0h-1v1h1zm1 0h-1v1h1zm1 0h-1v1h1zm1 0h-1v1h1zm1 0h-1v1h1zm1 0h-1v1h1zm1 0h-1v1h1zm1 0h-1v1h1zm1 0h-1v1h1zm1 0h-1v1h1zM1 31H0v1h1zm1 0H1v1h1zm1 0H2v1h1zm1 0H3v1h1zm1 0H4v1h1zm1 0H5v1h1zm1 0H6v1h1zm1 0H7v1h1zm1 0H8v1h1zm1 0H9v1h1zm1 0h-1v1h1zm1 0h-1v1h1zm1 0h-1v1h1zm1 0h-1v1h1zm1 0h-1v1h1z"/><path fill="#3B3252" d="M16 31h-1v1h1z"/><path fill="#272842" d="M17 31h-1v1h1zm1 0h-1v1h1zm1 0h-1v1h1zm1 0h-1v1h1zm1 0h-1v1h1zm1 0h-1v1h1zm1 0h-1v1h1zm1 0h-1v1h1zm1 0h-1v1h1zm1 0h-1v1h1zm1 0h-1v1h1zm1 0h-1v1h1zm1 0h-1v1h1zm1 0h-1v1h1zm1 0h-1v1h1zm1 0h-1v1h1z"/></g><defs><clipPath id="a"><path fill="#fff" d="M0 0h32v32H0z"/></clipPath></defs></svg>