<svg xmlns="http://www.w3.org/2000/svg" fill="none" viewBox="0 0 1764 1764"><path fill="#A4A4A4" d="M0 0h1764v1764H0z"/><path fill="url(#a)" d="M404 882c0-263.992 214.008-478 478-478 263.99 0 478 214.008 478 478 0 263.99-214.01 478-478 478-263.992 0-478-214.01-478-478"/><path fill="url(#b)" d="M1118.41 819.005C855.086 820.152 641.392 1029 632 1289.47c72.747 44.69 158.382 70.53 250.056 70.53C1146.02 1360 1360 1146.28 1360 882.639c0-.354-.03-.702-.03-1.057-71.38-40.129-153.79-62.959-241.56-62.577"/><path fill="url(#c)" d="M614.75 821.005c-75.441.33-146.797 17.848-210.427 48.791-.112 4.25-.323 8.485-.323 12.763 0 172.321 90.962 323.311 227.32 407.441 6.096-169.74 98.522-317.516 234.68-400.412-73.504-43.898-159.46-68.984-251.25-68.583"/><path stroke="#414141" stroke-linecap="round" stroke-linejoin="round" stroke-miterlimit="10" stroke-width="62" d="M631.921 1289.37c-136.711-84.12-227.91-235.08-227.91-407.366 0-4.278.212-8.511.323-12.762 63.796-30.936 135.338-48.451 210.974-48.782 92.03-.401 178.209 24.682 251.905 68.571C730.7 971.912 638.034 1119.66 631.921 1289.37m0 0c9.395-260.82 223.11-469.936 486.459-471.085 87.78-.382 170.2 22.477 241.58 62.66.01.355.04.704.04 1.059C1360 1145.99 1145.99 1360 882.004 1360c-91.684 0-177.327-25.88-250.083-70.63M404 881.992C404 618.005 618.005 404 881.992 404s477.988 214.005 477.988 477.992-214 477.988-477.988 477.988S404 1145.98 404 881.992"/><defs><linearGradient id="a" x1="431" x2="1333" y1="882" y2="882" gradientUnits="userSpaceOnUse"><stop stop-color="#B3B3B3"/><stop offset="1" stop-color="#EAEAEA"/></linearGradient><linearGradient id="b" x1="655.3" x2="1598.5" y1="1318.5" y2="1318.5" gradientUnits="userSpaceOnUse"><stop stop-color="#B3B3B3"/><stop offset="1" stop-color="#EAEAEA"/></linearGradient><linearGradient id="c" x1="138.8" x2="1082" y1="1321" y2="1321" gradientUnits="userSpaceOnUse"><stop stop-color="#B3B3B3"/><stop offset="1" stop-color="#EAEAEA"/></linearGradient></defs></svg>