<svg xmlns="http://www.w3.org/2000/svg" viewBox="0 0 1764 1764"><path fill="#A4A4A4" d="M0 0h1764v1764H0z"/><path fill="url(#a)" d="M404 882c0-263.992 214.008-478 478-478 263.99 0 478 214.008 478 478 0 263.99-214.01 478-478 478-263.992 0-478-214.01-478-478"/><path fill="url(#b)" d="M1118.41 819.005C855.086 820.152 641.392 1029 632 1289.47c72.747 44.69 158.382 70.53 250.056 70.53C1146.02 1360 1360 1146.28 1360 882.639c0-.354-.03-.702-.03-1.057-71.38-40.129-153.79-62.959-241.56-62.577"/><path fill="url(#c)" d="M614.75 821.005c-75.441.33-146.797 17.848-210.427 48.791-.112 4.25-.323 8.485-.323 12.763 0 172.321 90.962 323.311 227.32 407.441 6.096-169.74 98.522-317.516 234.68-400.412-73.504-43.898-159.46-68.984-251.25-68.583"/><path fill="none" stroke="#414141" stroke-linecap="round" stroke-linejoin="round" stroke-miterlimit="10" stroke-width="64" d="M630.875 1291.07c-137.283-84.46-228.864-236.05-228.864-409.066 0-4.296.213-8.547.324-12.815 64.063-31.066 135.905-48.654 211.857-48.986 92.415-.403 178.955 24.785 252.959 68.857-137.084 83.228-230.138 231.59-236.276 402.01m0 0c9.434-261.9 224.043-471.898 488.495-473.052 88.15-.383 170.91 22.571 242.59 62.923.01.356.04.707.04 1.063C1362 1147.1 1147.1 1362 882.004 1362c-92.068 0-178.069-25.98-251.129-70.93M402 881.992C402 616.9 616.9 402 881.992 402c265.088 0 479.988 214.9 479.988 479.992 0 265.088-214.89 479.988-479.988 479.988C616.898 1361.98 402 1147.09 402 881.992"/><defs><linearGradient id="a" x1="432" x2="1332" y1="882" y2="882" gradientUnits="userSpaceOnUse"><stop stop-color="#B3B3B3"/><stop offset="1" stop-color="#EAEAEA"/></linearGradient><linearGradient id="b" x1="654.3" x2="1599.5" y1="1318.5" y2="1318.5" gradientUnits="userSpaceOnUse"><stop stop-color="#B3B3B3"/><stop offset="1" stop-color="#EAEAEA"/></linearGradient><linearGradient id="c" x1="137.8" x2="1083" y1="1321" y2="1321" gradientUnits="userSpaceOnUse"><stop stop-color="#B3B3B3"/><stop offset="1" stop-color="#EAEAEA"/></linearGradient></defs></svg>