<svg xmlns="http://www.w3.org/2000/svg" fill="none" viewBox="0 0 1837 1837"><g clip-path="url(#a)"><path fill="#fff" d="M0 0h1836.25v1836.25H0z"/><path fill="#A4A4A4" d="M0 0h3726v3726H0z"/><path fill="url(#b)" d="M410.27 918.27c0-280.561 227.439-508 508-508 280.56 0 508 227.439 508 508 0 280.56-227.44 508-508 508s-508-227.44-508-508"/><path fill="url(#c)" d="M1169.5 850.562c-279.885 1.221-507.017 223.468-517 500.658 77.322 47.56 168.342 75.06 265.781 75.06 280.559 0 507.999-227.44 507.999-507.999 0-.377-.03-.748-.03-1.125-75.87-42.705-163.46-67-256.75-66.594"/><path fill="url(#d)" d="M634.843 852.875c-80.385.351-156.418 18.965-224.219 51.844-.119 4.517-.344 9.016-.344 13.562 0 183.109 96.924 343.539 242.219 432.939 6.496-180.36 104.98-337.39 250.062-425.47-78.322-46.645-169.911-73.301-267.718-72.875"/><path stroke="#414141" stroke-miterlimit="10" stroke-width="40" d="M652.494 1351.21c-145.294-89.39-242.218-249.83-242.218-432.934 0-4.546.225-9.045.343-13.563 67.801-32.878 143.834-51.493 224.219-51.844 97.807-.426 189.396 26.231 267.719 72.875-145.083 88.086-243.567 245.106-250.063 425.466Zm0 0c9.984-277.18 237.116-499.432 516.996-500.653 93.29-.406 180.88 23.888 256.75 66.594.01.377.04.748.04 1.125 0 280.564-227.44 508.004-508.004 508.004-97.44 0-188.459-27.5-265.782-75.07Zm-242.23-432.946c0-280.56 227.44-508 508-508 280.556 0 507.996 227.44 507.996 508 0 280.556-227.44 507.996-507.996 507.996-280.561 0-508-227.44-508-507.996Z"/></g><defs><linearGradient id="b" x1="388" x2="1438" y1="913" y2="913" gradientUnits="userSpaceOnUse"><stop stop-color="#B3B3B3"/><stop offset="1" stop-color="#EAEAEA"/></linearGradient><linearGradient id="c" x1="653" x2="1703" y1="1348" y2="1348" gradientUnits="userSpaceOnUse"><stop stop-color="#B3B3B3"/><stop offset="1" stop-color="#EAEAEA"/></linearGradient><linearGradient id="d" x1="117.099" x2="1157.1" y1="1348" y2="1348" gradientUnits="userSpaceOnUse"><stop stop-color="#B3B3B3"/><stop offset="1" stop-color="#EAEAEA"/></linearGradient><clipPath id="a"><path fill="#fff" d="M0 0h1836.25v1836.25H0z"/></clipPath></defs></svg>