<svg xmlns="http://www.w3.org/2000/svg" fill="none" viewBox="0 0 1764 1764"><g clip-path="url(#a)"><path fill="#F3F3F3" d="M0 0h1764v1764H0z"/><g clip-path="url(#b)"><path fill="#B8B8B8" d="M881.551 1360.85c261.719 0 473.889-211.98 473.889-473.475 0-261.493-212.17-473.476-473.889-473.476-261.723 0-473.891 211.983-473.891 473.476 0 261.495 212.168 473.475 473.891 473.475"/><path fill="#ABABAB" fill-rule="evenodd" d="M1298.05 908.869c-14.08 217.331-194.97 389.251-416.058 389.251-35.391 0-69.752-4.41-102.564-12.7-31.597-8-62.14-19.7-90.995-34.85 13.912-136.28 91.993-253.747 203.862-321.606a48 48 0 0 0 2.113-1.359c63.609-38.066 137.962-60.084 217.492-60.431 66.72-.289 129.82 14.735 186.15 41.695m95.93-28.809C1393.18 598.225 1164.26 370 881.992 370 599.227 370 370 599.026 370 881.544c0 256.906 189.547 469.576 436.538 506.026a515 515 0 0 0 75.466 5.53c282.766 0 511.996-229.03 511.996-511.545 0-.554-.01-1.065-.02-1.495m-102.39-76.756c-56.21-20.357-116.88-31.367-180.1-31.093-88.33.385-171.424 22.634-244.191 61.592-73.122-38.32-156.422-59.864-244.653-59.479-51.734.226-101.724 7.979-148.911 22.212 39.284-189.303 207.142-331.572 408.257-331.572 203.508 0 372.958 145.67 409.598 338.34m-516.257 93.174c-47.321-17.786-98.633-27.425-152.273-27.191-55.771.243-108.917 11.14-157.6 30.707 5.002 114.746 56.479 217.466 136.191 289.846 23.721-116.56 86.294-219.07 173.682-293.362" clip-rule="evenodd"/><path fill="url(#c)" fill-rule="evenodd" d="M1394 882.446C1394 1164.97 1164.77 1394 882 1394s-512-229.03-512-511.554c0-282.522 229.23-511.551 512-511.551s512 229.029 512 511.551m-919.987-86.338C513.805 607.464 681.351 465.858 882 465.858c202.63 0 371.51 144.422 409.13 335.861 20.2 5.484 38.38 11.082 52.66 16.219 3.1 16.175 2.26 25.697 1.24 37.375v.001c-.59 6.722-1.24 14.16-1.24 23.992 0 5.198-1.61 16.666-3.07 27.139v.002c-1.08 7.668-2.07 14.803-2.31 18.55-11.55-5.496-25.22-11.247-40.23-16.911-13.26 218.134-194.52 390.944-416.18 390.944-70.76 0-137.403-17.61-195.778-48.68-3.057 14.94-5.365 29.73-6.87 44.2-35.536 0-55.867-21.64-75.402-42.43-5.604-5.96-11.142-11.85-16.955-17.15 3.101-15.1 7.067-30.77 11.813-46.76-78.701-72.8-129.243-175.56-133.473-290.134a441 441 0 0 0-10.6 4.075c-.073-1.727-3.445-.09-8.2 2.216-11.68 5.663-31.701 15.373-31.701-10.729 0-29.281.961-56.196 6.725-83.766 13.738-4.113 32.086-8.96 52.454-13.764" clip-rule="evenodd"/><path fill="url(#d)" d="M465.723 900.514c-1.767-17.761-.578-50.293 9.76-103.878 46.678-13.9 96.077-21.47 147.178-21.694 70.432-.304 137.722 13.362 199.2 38.38a510 510 0 0 1 44.731 21.599l-33.445 27.094v3.136l-19.726 6.271-38.557 27.324-9.482 7.045a521 521 0 0 1 9.967-8.692c-47.321-17.785-98.633-27.427-152.272-27.193-55.677.245-108.739 11.105-157.354 30.608"/><path fill="url(#e)" fill-rule="evenodd" d="m696.678 1255.67 36.874 24.6 10.918-4.46a416 416 0 0 1-47.792-20.14m414.812-482.563c63.22-.275 123.89 10.736 180.1 31.093-.25-1.318-.51-2.635-.77-3.95l12.57 49.098-5.59 58.186h-1.17l.03-.408c-56.34-26.96-119.43-41.985-186.15-41.695-79.53.347-153.887 22.365-217.496 60.43q-1.036.706-2.113 1.36c-111.869 67.859-189.95 185.329-203.862 321.599l.136.07-.038.42-88.348-58.93q.386-.75.699-1.62 1.079.99 2.163 1.98c23.721-116.56 86.294-219.074 173.682-293.367q-1.56-.585-3.125-1.16.575-.495 1.154-.987l23.405 17.73-4.035 12.542 95.047-62.264-20.634-28.617.154.081c72.767-38.958 155.861-61.206 244.191-61.591m-339.962 120.73-2.753-2.085-.456.392-.43.369q1.824.654 3.639 1.324" clip-rule="evenodd"/><path fill="url(#f)" fill-rule="evenodd" d="m657.954 1229.21 29.308 19.77-5.427 33.17c-17.631-2.61-31.034-16.66-30.887-33.48.063-7.28 2.655-14 7.006-19.46" clip-rule="evenodd"/><path fill="url(#g)" fill-rule="evenodd" d="m589.197 1223.41.038-.08 8.966-32.7.449-2.68v2.24l20.175 13.43.219.82c-4.511 11.3-15.177 19.19-27.546 19.08-.768 0-1.536-.04-2.301-.11" clip-rule="evenodd" opacity=".8"/><path fill="url(#h)" fill-rule="evenodd" d="m1299.08 831.115-8.2-30.193.9.896 35.43 10.361c-4.68 11.237-15.4 19.048-27.81 18.94z" clip-rule="evenodd" opacity=".6"/><path fill="url(#i)" fill-rule="evenodd" d="m471.292 819.796 4.521-25.593-1.344 1.792-35.666 8.804c5.082 9.108 15.979 15.352 28.547 15.242a37 37 0 0 0 3.942-.245" clip-rule="evenodd" opacity=".55"/><path fill="url(#j)" fill-rule="evenodd" d="m1330.66 921.916-31.71-13.939-.24.162-.66-.336.21-5.247 2.93-28.247c17.02 1.196 31.1 13.237 32.94 29.385.74 6.458-.58 12.717-3.47 18.222" clip-rule="evenodd" opacity=".8"/><path fill="url(#k)" fill-rule="evenodd" d="m464.6 884.242.896 13.887-10.76 4.031-.448-1.344-22.19 10.146a33.4 33.4 0 0 1-1.853-10.7c-.168-19.168 15.911-34.849 35.913-35.023l.11-.001z" clip-rule="evenodd" opacity=".7"/><path fill="url(#l)" fill-rule="evenodd" d="M799.889 914.789c9.706-4.133 16.188-11.496 16.262-19.945.062-7.064-4.368-13.446-11.45-17.864l-27.163 19.805h-2.69z" clip-rule="evenodd" opacity=".55"/><path fill="url(#m)" fill-rule="evenodd" d="m845.803 851.85 20.4-16.582.892-.457 10.056 13.758c-4.094 4.576-10.404 7.514-17.488 7.526-5.23.009-10.044-1.578-13.86-4.245" clip-rule="evenodd" opacity=".7"/></g></g><defs><radialGradient id="c" cx="0" cy="0" r="1" gradientTransform="matrix(0 511.551 -512 0 882 882.445)" gradientUnits="userSpaceOnUse"><stop stop-opacity="0"/><stop offset=".805" stop-color="#4B4B4B" stop-opacity=".22"/><stop offset=".88" stop-color="#4B4B4B" stop-opacity="0"/><stop offset=".95" stop-color="#4B4B4B" stop-opacity="0"/><stop offset="1" stop-color="#4B4B4B" stop-opacity=".16"/></radialGradient><radialGradient id="d" cx="0" cy="0" r="1" gradientTransform="scale(511.999 511.553)rotate(90 -.648 1.863)" gradientUnits="userSpaceOnUse"><stop stop-opacity="0"/><stop offset=".805" stop-color="#4B4B4B" stop-opacity=".22"/><stop offset=".88" stop-color="#4B4B4B" stop-opacity="0"/><stop offset=".95" stop-color="#4B4B4B" stop-opacity="0"/><stop offset="1" stop-color="#4B4B4B" stop-opacity=".16"/></radialGradient><radialGradient id="e" cx="0" cy="0" r="1" gradientTransform="matrix(0 521.858 -522.312 0 1108.868 1287.424)" gradientUnits="userSpaceOnUse"><stop stop-opacity="0"/><stop offset=".805" stop-color="#4B4B4B" stop-opacity=".22"/><stop offset=".88" stop-color="#4B4B4B" stop-opacity="0"/><stop offset=".95" stop-color="#4B4B4B" stop-opacity="0"/><stop offset="1" stop-color="#4B4B4B" stop-opacity=".16"/></radialGradient><radialGradient id="f" cx="0" cy="0" r="1" gradientTransform="rotate(90.5 -275.207 965.359)scale(33.5957 36.7638)" gradientUnits="userSpaceOnUse"><stop stop-color="#4B4B4B" stop-opacity=".22"/><stop offset="1" stop-opacity="0"/></radialGradient><radialGradient id="g" cx="0" cy="0" r="1" gradientTransform="matrix(-.2714 31.10012 -29.56897 -.25804 591.771 1192.42)" gradientUnits="userSpaceOnUse"><stop stop-color="#4B4B4B" stop-opacity=".22"/><stop offset="1" stop-opacity="0"/></radialGradient><radialGradient id="h" cx="0" cy="0" r="1" gradientTransform="rotate(90.5 253.522 1043.975)scale(31.5427 30.0434)" gradientUnits="userSpaceOnUse"><stop stop-color="#4B4B4B" stop-opacity=".22"/><stop offset="1" stop-opacity="0"/></radialGradient><radialGradient id="i" cx="0" cy="0" r="1" gradientTransform="matrix(.26787 31.99358 -29.20948 .24456 467.787 797.384)" gradientUnits="userSpaceOnUse"><stop stop-color="#4B4B4B" stop-opacity=".22"/><stop offset="1" stop-opacity="0"/></radialGradient><radialGradient id="j" cx="0" cy="0" r="1" gradientTransform="rotate(-96.505 1053.915 -125.103)scale(33.6002 36.7632)" gradientUnits="userSpaceOnUse"><stop stop-color="#4B4B4B" stop-opacity=".22"/><stop offset="1" stop-opacity="0"/></radialGradient><radialGradient id="k" cx="0" cy="0" r="1" gradientTransform="matrix(.30314 34.70908 -36.21712 .31631 466.462 899.948)" gradientUnits="userSpaceOnUse"><stop stop-color="#4B4B4B" stop-opacity=".22"/><stop offset="1" stop-opacity="0"/></radialGradient><radialGradient id="l" cx="0" cy="0" r="1" gradientTransform="matrix(-.20766 23.777 -34.62498 -.3024 781.526 894.543)" gradientUnits="userSpaceOnUse"><stop stop-color="#4B4B4B" stop-opacity=".22"/><stop offset="1" stop-opacity="0"/></radialGradient><radialGradient id="m" cx="0" cy="0" r="1" gradientTransform="matrix(.03476 19.91377 -22.38537 .03907 859.628 836.183)" gradientUnits="userSpaceOnUse"><stop stop-color="#4B4B4B" stop-opacity=".22"/><stop offset="1" stop-opacity="0"/></radialGradient><clipPath id="a"><path fill="#fff" d="M0 0h1764v1764H0z"/></clipPath><clipPath id="b"><path fill="#fff" d="M370 370h1024v1024H370z"/></clipPath></defs></svg>