<svg xmlns="http://www.w3.org/2000/svg" xml:space="preserve" stroke-miterlimit="10" style="fill-rule:nonzero;clip-rule:evenodd;stroke-linecap:round;stroke-linejoin:round" viewBox="0 0 1024 1024"><defs><radialGradient id="b" cx="407.599" cy="369.189" r="176.132" gradientTransform="translate(-469.819 -794.771)scale(3.07428)" gradientUnits="userSpaceOnUse"><stop offset="0" stop-color="#4f538e"/><stop offset="1" stop-color="#404569" stop-opacity="0"/></radialGradient><radialGradient id="c" cx="407.599" cy="369.189" r="176.132" gradientTransform="translate(-1166.59 -1199.89)scale(3.70722)" gradientUnits="userSpaceOnUse"><stop offset="0" stop-color="#4f838e"/><stop offset="1" stop-color="#404b69" stop-opacity="0"/></radialGradient><radialGradient id="d" cx="407.599" cy="369.189" r="176.132" gradientTransform="translate(-772.249 -114.691)scale(2.90431)" gradientUnits="userSpaceOnUse"><stop offset="0" stop-color="#4f8e62"/><stop offset="1" stop-color="#40694c" stop-opacity="0"/></radialGradient><radialGradient id="e" cx="407.599" cy="369.189" r="176.132" gradientTransform="translate(-1269.68 -544.326)scale(3.16966)" gradientUnits="userSpaceOnUse"><stop offset="0" stop-color="#8e4f77"/><stop offset="1" stop-color="#694062" stop-opacity="0"/></radialGradient><radialGradient id="f" cx="407.599" cy="369.189" r="176.132" gradientTransform="translate(-64.818 -359.681)scale(2.57094)" gradientUnits="userSpaceOnUse"><stop offset="0" stop-color="#8e734f"/><stop offset="1" stop-color="#696440" stop-opacity="0"/></radialGradient></defs><clipPath id="a"><path d="M0 0h1024v1024H0z"/></clipPath><g clip-path="url(#a)"><path fill="#1f2937" d="M-405.61-431.539H1461.6V1435.67H-405.61z"/><path fill="url(#b)" d="M241.774 340.217c0-299.05 242.428-541.478 541.478-541.478 299.048 0 541.478 242.428 541.478 541.478S1082.3 881.695 783.252 881.695c-299.05 0-541.478-242.428-541.478-541.478"/><path fill="url(#c)" d="M-308.489 168.777c0-360.62 292.34-652.959 652.959-652.959s652.959 292.339 652.959 652.959-292.34 652.959-652.959 652.959c-360.62 0-652.959-292.34-652.959-652.959"/><path fill="url(#d)" d="M-99.997 957.548c0-282.517 229.025-511.542 511.541-511.542 282.517 0 511.542 229.025 511.542 511.542 0 282.512-229.025 511.542-511.542 511.542s-511.54-229.03-511.54-511.542Z"/><path fill="url(#e)" d="M-536.007 625.875c0-308.328 249.949-558.277 558.277-558.277s558.277 249.949 558.277 558.277S330.598 1184.15 22.27 1184.15s-558.277-249.947-558.277-558.275"/><path fill="url(#f)" d="M530.27 589.481c0-250.088 202.736-452.824 452.824-452.824 250.086 0 452.826 202.736 452.826 452.824s-202.74 452.829-452.826 452.829c-250.088 0-452.824-202.741-452.824-452.829"/></g></svg>