<svg xmlns="http://www.w3.org/2000/svg" fill="none" viewBox="0 0 512 512"><g clip-path="url(#a)"><mask id="b" width="512" height="512" x="0" y="0" maskUnits="userSpaceOnUse" style="mask-type:luminance"><path fill="#fff" d="M0 0h512v512H0z"/></mask><g mask="url(#b)"><path fill="#093600" d="M541.208-31.418H-28.506v569.713h569.714z"/><path fill="#175e0a" d="M129.721 55.95C192.058 126.4 598.123-11.646 683.887-8.996 623.653 17.789 176.366 195.57 129.721 55.95m162.743 220.924C426.513 397.646 606.26 475.745 784.323 500.275c-190.726 61.925-410.6-42.145-491.859-223.401"/><mask id="c" width="385" height="299" x="15" y="-123" maskUnits="userSpaceOnUse" style="mask-type:luminance"><path fill="#fff" d="M60.115-123C-112.99 102.266 257.96 207.504 399.516 167.177 257.251 142.105 13.276 79.18 60.115-123"/></mask><g mask="url(#c)"><path fill="url(#d)" d="M60.115-123C-112.99 102.266 257.96 207.504 399.516 167.177 257.251 142.105 13.276 79.18 60.115-123"/></g><mask id="e" width="189" height="652" x="-100" y="-389" maskUnits="userSpaceOnUse" style="mask-type:luminance"><path fill="#fff" d="M-67.68 262.21C-55.555 37.502 41.28-170.994 88.775-388.414-51.495-209.218-153.857 34.582-67.68 262.21"/></mask><g mask="url(#e)"><path fill="url(#f)" d="M-67.68 262.21C-55.555 37.502 41.28-170.994 88.775-388.414-51.495-209.218-153.857 34.582-67.68 262.21"/></g><mask id="g" width="459" height="196" x="91" y="-44" maskUnits="userSpaceOnUse" style="mask-type:luminance"><path fill="#fff" d="M91.523 143.533c116.582 31.746 431.924-30.499 458.138-187.197C479.146 63.612 201.885 123.344 91.523 143.533"/></mask><g mask="url(#g)"><path fill="url(#h)" d="M91.523 143.533c116.582 31.746 431.924-30.499 458.138-187.197C479.146 63.612 201.885 123.344 91.523 143.533"/></g><mask id="i" width="410" height="354" x="-218" y="-8" maskUnits="userSpaceOnUse" style="mask-type:luminance"><path fill="#fff" d="M-217.949-7.388C-52.122 63.749 94.136 194.199 191.032 345.603 167.292 146.488-19.311-9.529-217.949-7.388"/></mask><g mask="url(#i)"><path fill="url(#j)" d="M-217.949-7.388C-52.122 63.749 94.136 194.199 191.032 345.603 167.292 146.488-19.311-9.529-217.949-7.388"/></g><mask id="k" width="177" height="489" x="287" y="-273" maskUnits="userSpaceOnUse" style="mask-type:luminance"><path fill="#fff" d="M463.034 215.807C385.176 63.405 332.961-104.694 303.417-273c-50.175 176.449 17.935 374.333 159.617 488.807"/></mask><g mask="url(#k)"><path fill="url(#l)" d="M463.034 215.807C385.176 63.405 332.961-104.694 303.417-273c-50.175 176.449 17.935 374.333 159.617 488.807"/></g><mask id="m" width="468" height="323" x="151" y="-126" maskUnits="userSpaceOnUse" style="mask-type:luminance"><path fill="#fff" d="M151-106.975c87.097-35.519 389.925 268.258 467.959 303.882C576.814 146.174 254.689-211.465 151-106.975"/></mask><g mask="url(#m)"><path fill="url(#n)" d="M151-106.975c87.097-35.519 389.925 268.258 467.959 303.882C576.814 146.174 254.689-211.465 151-106.975"/></g><mask id="o" width="354" height="345" x="10" y="205" maskUnits="userSpaceOnUse" style="mask-type:luminance"><path fill="#fff" d="M11.184 549.32c52.935-134.367 163.321-360.884 352.065-274.601C177.079 60.101-.083 402.592 11.184 549.32"/></mask><g mask="url(#o)"><path fill="url(#p)" d="M11.184 549.32c52.935-134.367 163.321-360.884 352.065-274.601C177.079 60.101-.083 402.592 11.184 549.32"/></g><mask id="q" width="594" height="139" x="-63" y="340" maskUnits="userSpaceOnUse" style="mask-type:luminance"><path fill="#fff" d="M-62.602 401.148c199.947-9.682 402.906 11.675 592.858 76.969-157.488-147.38-403.148-181.529-592.858-76.969"/></mask><g mask="url(#q)"><path fill="url(#r)" d="M-62.602 401.148c199.947-9.682 402.906 11.675 592.858 76.969-157.488-147.38-403.148-181.529-592.858-76.969"/></g><mask id="s" width="259" height="255" x="278" y="225" maskUnits="userSpaceOnUse" style="mask-type:luminance"><path fill="#fff" d="M278 479.493C386.746 425.873 477.084 336.155 536.337 225 435.382 303.761 352.153 384.243 278 479.493"/></mask><g mask="url(#s)"><path fill="url(#t)" d="M278 479.493C386.746 425.873 477.084 336.155 536.337 225 435.382 303.761 352.153 384.243 278 479.493"/></g><mask id="u" width="113" height="580" x="77" y="49" maskUnits="userSpaceOnUse" style="mask-type:luminance"><path fill="#fff" d="M128.86 628.747c98.651-181.885 74.263-415.897-51.008-578.774 45.406 187.949 59.907 385.905 51.008 578.774"/></mask><g mask="url(#u)"><path fill="url(#v)" d="M128.86 628.747c98.651-181.885 74.263-415.897-51.008-578.774 45.406 187.949 59.907 385.905 51.008 578.774"/></g><mask id="w" width="343" height="356" x="154" y="289" maskUnits="userSpaceOnUse" style="mask-type:luminance"><path fill="#fff" d="M496.624 643.577C362.565 589.792 136.726 478.09 224.102 289.828 8.397 474.72 349.814 653.914 496.624 643.577"/></mask><g mask="url(#w)"><path fill="url(#x)" d="M496.624 643.577C362.565 589.792 136.726 478.09 224.102 289.828 8.397 474.72 349.814 653.914 496.624 643.577"/></g><mask id="y" width="571" height="207" x="-73" y="315" maskUnits="userSpaceOnUse" style="mask-type:luminance"><path fill="#fff" d="M-72.594 340.9c198.496 25.857 394.454 82.783 569.866 180.639C368.369 348.63 132.601 271.552-72.591 340.9z"/></mask><g mask="url(#y)"><path fill="url(#z)" d="M-72.594 340.9c198.496 25.857 394.454 82.783 569.866 180.639C368.369 348.63 132.601 271.552-72.591 340.9"/></g><mask id="A" width="479" height="331" x="91" y="379" maskUnits="userSpaceOnUse" style="mask-type:luminance"><path fill="#fff" d="M91.969 379.027C265.57 464.214 427.1 579.551 569.755 709.661 492.912 517.516 297.308 386.752 91.969 379.027"/></mask><g mask="url(#A)"><path fill="url(#B)" d="M91.969 379.027C265.57 464.214 427.1 579.551 569.755 709.661 492.912 517.516 297.308 386.752 91.969 379.027"/></g><mask id="C" width="581" height="335" x="222" y="74" maskUnits="userSpaceOnUse" style="mask-type:luminance"><path fill="#fff" d="M222 75.462c212.227 74.675 385.175 226.111 580.546 332.697C669.935 223.232 464.632 56.597 222 75.462"/></mask><g mask="url(#C)"><path fill="url(#D)" d="M222 75.462c212.227 74.675 385.175 226.111 580.546 332.697C669.935 223.232 464.632 56.597 222 75.462"/></g><mask id="E" width="464" height="204" x="67" y="115" maskUnits="userSpaceOnUse" style="mask-type:luminance"><path fill="#fff" d="M530.91 318.199c-64.166-102.398-338.092-270.52-463.637-173.19 124.548-30.982 368.825 113.178 463.637 173.19"/></mask><g mask="url(#E)"><path fill="url(#F)" d="M530.91 318.199c-64.166-102.398-338.092-270.52-463.637-173.19 124.548-30.982 368.825 113.178 463.637 173.19"/></g><mask id="G" width="217" height="471" x="44" y="-95" maskUnits="userSpaceOnUse" style="mask-type:luminance"><path fill="#fff" d="M44.943-94.7C137.96 48.937 207.04 210.83 253.575 375.253 285.517 194.578 197.559 4.704 44.943-94.699"/></mask><g mask="url(#G)"><path fill="url(#H)" d="M44.943-94.7C137.96 48.937 207.04 210.83 253.575 375.253 285.517 194.578 197.559 4.704 44.943-94.699"/></g><mask id="I" width="548" height="155" x="-89" y="155" maskUnits="userSpaceOnUse" style="mask-type:luminance"><path fill="#fff" d="M458.977 309.855C401.101 278.22-30.205 64.607-88.041 199.973c67.865-65.157 461.32 105.547 547.018 109.882"/></mask><g mask="url(#I)"><path fill="url(#J)" d="M458.977 309.855C401.101 278.22-30.205 64.607-88.041 199.973c67.865-65.157 461.32 105.547 547.018 109.882"/></g><mask id="K" width="510" height="71" x="-287" y="-7" maskUnits="userSpaceOnUse" style="mask-type:luminance"><path fill="#fff" d="M222.9 41.974C55.77 2.537-115.969.93-286.514-6.18-128.782 71.814 53.431 79.51 222.9 41.974"/></mask><g mask="url(#K)"><path fill="url(#L)" d="M222.9 41.974C55.77 2.537-115.969.93-286.514-6.18-128.782 71.814 53.431 79.51 222.9 41.974"/></g><mask id="M" width="616" height="519" x="306" y="134" maskUnits="userSpaceOnUse" style="mask-type:luminance"><path fill="#fff" d="M921.588 652.209C689.667 541.916 470.866 328.72 306 134c68.663 264.824 338.058 507.018 615.588 518.209"/></mask><g mask="url(#M)"><path fill="url(#N)" d="M921.588 652.209C689.667 541.916 470.866 328.72 306 134c68.663 264.824 338.058 507.018 615.588 518.209"/></g><path fill="#175e0a" d="M495.693-5.2C438.342-51.819 141.255 107.235 74.431 116.173 117.695 87.689 441.64-107.454 495.693-5.2M-89.744 417.961c107.973-34.844 291.116-110.089 232.831-262.412C302.13 312.218 24.743 434.099-89.744 417.961"/><mask id="O" width="350" height="245" x="177" y="282" maskUnits="userSpaceOnUse" style="mask-type:luminance"><path fill="#fff" d="M526.789 282.109c-86.657 112.194-214.597 197.877-348.828 241.903 156.173 21.011 311.48-90.372 348.828-241.903"/></mask><g mask="url(#O)"><path fill="url(#P)" d="M526.789 282.109c-86.657 112.194-214.597 197.877-348.828 241.903 156.173 21.011 311.48-90.372 348.828-241.903"/></g><mask id="Q" width="253" height="317" x="-118" y="324" maskUnits="userSpaceOnUse" style="mask-type:luminance"><path fill="#fff" d="M134.089 640.322C34.814 549.645-49.869 440.278-117.934 324.578c11.635 143.656 116.255 270.516 252.023 315.744"/></mask><g mask="url(#Q)"><path fill="url(#R)" d="M134.089 640.322C34.814 549.645-49.869 440.278-117.934 324.578c11.635 143.656 116.255 270.516 252.023 315.744"/></g><mask id="S" width="323" height="203" x="271" y="-37" maskUnits="userSpaceOnUse" style="mask-type:luminance"><path fill="#fff" d="M571.57 165.648C676.886-31.162 375.842-65.197 271.279-15.794 384.772-14.592 581.966 2.918 571.57 165.648"/></mask><g mask="url(#S)"><path fill="url(#T)" d="M571.57 165.648C676.886-31.162 375.842-65.197 271.279-15.794 384.772-14.592 581.966 2.918 571.57 165.648"/></g><mask id="U" width="286" height="224" x="289" y="68" maskUnits="userSpaceOnUse" style="mask-type:luminance"><path fill="#fff" d="M289 291.44C398.26 224.697 490.115 154.218 574.638 68 460.505 108.906 360.553 187.775 289 291.44"/></mask><g mask="url(#U)"><path fill="url(#V)" d="M289 291.44C398.26 224.697 490.115 154.218 574.638 68 460.505 108.906 360.553 187.775 289 291.44"/></g><mask id="W" width="287" height="258" x="185" y="204" maskUnits="userSpaceOnUse" style="mask-type:luminance"><path fill="#fff" d="M471.962 459.129c-109.045-31.376-294.47-100.811-241.053-254.887C76.929 365.86 358.044 478.883 471.962 459.129"/></mask><g mask="url(#W)"><path fill="url(#X)" d="M471.962 459.129c-109.045-31.376-294.47-100.811-241.053-254.887C76.929 365.86 358.044 478.883 471.962 459.129"/></g><mask id="Y" width="465" height="113" x="-3" y="287" maskUnits="userSpaceOnUse" style="mask-type:luminance"><path fill="#fff" d="M461.927 354.542C304.71 359.779 145.535 340.6-2.903 287.043c121.975 117.673 314.572 147.406 464.83 67.499"/></mask><g mask="url(#Y)"><path fill="url(#Z)" d="M461.927 354.542C304.71 359.779 145.535 340.6-2.903 287.043c121.975 117.673 314.572 147.406 464.83 67.499"/></g><mask id="aa" width="451" height="108" x="185" y="212" maskUnits="userSpaceOnUse" style="mask-type:luminance"><path fill="#fff" d="M636 212.078c-144.721 46.22-299.041 68.776-450.705 72.681 148.127 67.06 330.157 34.697 450.705-72.681"/></mask><g mask="url(#aa)"><path fill="url(#ab)" d="M636 212.078c-144.721 46.22-299.041 68.776-450.705 72.681 148.127 67.06 330.157 34.697 450.705-72.681"/></g><mask id="ac" width="333" height="205" x="182" y="-79" maskUnits="userSpaceOnUse" style="mask-type:luminance"><path fill="#fff" d="M514.08-77.983c-94.442-9.668-330.915 79-331.154 203.83C223.843 33.649 431.116-48.19 514.08-77.983"/></mask><g mask="url(#ac)"><path fill="url(#ad)" d="M514.08-77.983c-94.442-9.668-330.915 79-331.154 203.83C223.843 33.649 431.116-48.19 514.08-77.983"/></g></g><mask id="ae" width="193" height="353" x="361" y="283" maskUnits="userSpaceOnUse" style="mask-type:luminance"><path fill="#fff" d="M361 283c47.828 126.151 122.351 238.683 192.731 352.842C535.126 498.84 460 376.849 361 283"/></mask><g mask="url(#ae)"><path fill="url(#af)" d="M361 283c47.828 126.151 122.351 238.683 192.731 352.842C535.126 498.84 460 376.849 361 283"/></g><mask id="ag" width="212" height="466" x="150" y="-11" maskUnits="userSpaceOnUse" style="mask-type:luminance"><path fill="#fff" d="M361.438-11C269.725 134.154 212.306 296.003 150 454.962 275.125 331.244 341.724 161.46 361.438-11"/></mask><g mask="url(#ag)"><path fill="url(#ah)" d="M361.438-11C269.725 134.154 212.306 296.003 150 454.962 275.125 331.244 341.724 161.46 361.438-11"/></g><mask id="ai" width="476" height="157" x="-188" y="352" maskUnits="userSpaceOnUse" style="mask-type:luminance"><path fill="#fff" d="M287.261 352C205.898 451.275-76.135 481.562-188 490.082-75.376 533.875 244.747 505.097 287.261 352"/></mask><g mask="url(#ai)"><path fill="url(#aj)" d="M287.261 352C205.898 451.275-76.135 481.562-188 490.082-75.376 533.875 244.747 505.097 287.261 352"/></g><mask id="ak" width="541" height="180" x="79" y="-64" maskUnits="userSpaceOnUse" style="mask-type:luminance"><path fill="#fff" d="M79.001-64c55.983 34.785 474.652 272.205 540.022 140.311C547.607 137.551 164.287-54.907 79-64z"/></mask><g mask="url(#ak)"><path fill="url(#al)" d="M79.001-64c55.983 34.785 474.652 272.205 540.022 140.311C547.607 137.551 164.287-54.907 79-64"/></g><mask id="am" width="497" height="156" x="-198" y="197" maskUnits="userSpaceOnUse" style="mask-type:luminance"><path fill="#fff" d="M-198 219.724c170.23 17.659 339.667 65.409 496.913 132.288C178.213 213.825-24.857 163.228-198 219.724"/></mask><g mask="url(#am)"><path fill="url(#an)" d="M-198 219.724c170.23 17.659 339.667 65.409 496.913 132.288C178.213 213.825-24.857 163.228-198 219.724"/></g><mask id="ao" width="50" height="361" x="79" y="275" maskUnits="userSpaceOnUse" style="mask-type:luminance"><path fill="#fff" d="M79.23 275c-1.966 128.024 8.546 243.288 36.274 360.834C141.91 517.466 128.657 390.867 79.23 275"/></mask><g mask="url(#ao)"><path fill="url(#ap)" d="M79.23 275c-1.966 128.024 8.546 243.288 36.274 360.834C141.91 517.466 128.657 390.867 79.23 275"/></g><mask id="aq" width="161" height="325" x="407" y="0" maskUnits="userSpaceOnUse" style="mask-type:luminance"><path fill="#fff" d="M407 324.964C492.216 238.751 548.237 124.403 567.891 0 498.267 107.439 445.92 210.69 407 324.964"/></mask><g mask="url(#aq)"><path fill="url(#ar)" d="M407 324.964C492.216 238.751 548.237 124.403 567.891 0 498.267 107.439 445.92 210.69 407 324.964"/></g><mask id="as" width="208" height="397" x="0" y="58" maskUnits="userSpaceOnUse" style="mask-type:luminance"><path fill="#fff" d="M207.083 58C172.136 96.224-71.669 385.32 20.793 454.823-16.204 390.841 187.755 122.554 207.084 58"/></mask><g mask="url(#as)"><path fill="url(#at)" d="M207.083 58C172.136 96.224-71.669 385.32 20.793 454.823-16.204 390.841 187.755 122.554 207.084 58"/></g></g><defs><linearGradient id="d" x1="128.869" x2="231.253" y1="142.622" y2="20.372" gradientUnits="userSpaceOnUse"><stop stop-color="#5dcf0f"/><stop offset="1" stop-color="#175e0a"/></linearGradient><linearGradient id="f" x1="131.228" x2="-109.622" y1="149.845" y2="-276.116" gradientUnits="userSpaceOnUse"><stop stop-color="#5dcf0f"/><stop offset="1" stop-color="#175e0a"/></linearGradient><linearGradient id="h" x1="424.693" x2="230.345" y1="136.021" y2="-24.478" gradientUnits="userSpaceOnUse"><stop stop-color="#5dcf0f"/><stop offset="1" stop-color="#175e0a"/></linearGradient><linearGradient id="j" x1="-141.034" x2="149.259" y1="-58.539" y2="374.082" gradientUnits="userSpaceOnUse"><stop stop-color="#5dcf0f"/><stop offset="1" stop-color="#175e0a"/></linearGradient><linearGradient id="l" x1="505.581" x2="239.713" y1="189.052" y2="-232.78" gradientUnits="userSpaceOnUse"><stop stop-color="#5dcf0f"/><stop offset="1" stop-color="#175e0a"/></linearGradient><linearGradient id="n" x1="424.157" x2="358.009" y1=".553" y2="75.625" gradientUnits="userSpaceOnUse"><stop stop-color="#5dcf0f"/><stop offset="1" stop-color="#175e0a"/></linearGradient><linearGradient id="p" x1="163.876" x2="200.725" y1="214.101" y2="527.128" gradientUnits="userSpaceOnUse"><stop stop-color="#5dcf0f"/><stop offset="1" stop-color="#175e0a"/></linearGradient><linearGradient id="r" x1="-49.032" x2="512.411" y1="476.919" y2="377.184" gradientUnits="userSpaceOnUse"><stop stop-color="#5dcf0f"/><stop offset="1" stop-color="#175e0a"/></linearGradient><linearGradient id="t" x1="253.503" x2="560.946" y1="399.405" y2="305.187" gradientUnits="userSpaceOnUse"><stop stop-color="#5dcf0f"/><stop offset="1" stop-color="#175e0a"/></linearGradient><linearGradient id="v" x1="-29.282" x2="235.47" y1="477.694" y2="200.879" gradientUnits="userSpaceOnUse"><stop stop-color="#5dcf0f"/><stop offset="1" stop-color="#175e0a"/></linearGradient><linearGradient id="x" x1="152.409" x2="533.319" y1="393.86" y2="558.868" gradientUnits="userSpaceOnUse"><stop stop-color="#92f24b"/><stop offset="1" stop-color="#175e0a"/></linearGradient><linearGradient id="z" x1="509.31" x2="-55.934" y1="486.593" y2="292.482" gradientUnits="userSpaceOnUse"><stop stop-color="#92f24b"/><stop offset="1" stop-color="#175e0a"/></linearGradient><linearGradient id="B" x1="180.918" x2="491.547" y1="317.908" y2="764.745" gradientUnits="userSpaceOnUse"><stop stop-color="#92f24b"/><stop offset="1" stop-color="#175e0a"/></linearGradient><linearGradient id="D" x1="501.793" x2="523.294" y1="386.29" y2="92.099" gradientUnits="userSpaceOnUse"><stop stop-color="#92f24b"/><stop offset="1" stop-color="#175e0a"/></linearGradient><linearGradient id="F" x1="472.48" x2="131.868" y1="382.636" y2="73.798" gradientUnits="userSpaceOnUse"><stop stop-color="#92f24b"/><stop offset="1" stop-color="#175e0a"/></linearGradient><linearGradient id="H" x1="80.327" x2="222.656" y1="214.585" y2="61.077" gradientUnits="userSpaceOnUse"><stop stop-color="#92f24b"/><stop offset="1" stop-color="#175e0a"/></linearGradient><linearGradient id="J" x1="122.755" x2="247.135" y1="345.06" y2="164.228" gradientUnits="userSpaceOnUse"><stop stop-color="#92f24b"/><stop offset="1" stop-color="#175e0a"/></linearGradient><linearGradient id="L" x1="-44.015" x2="-19.616" y1="-49.791" y2="86.192" gradientUnits="userSpaceOnUse"><stop stop-color="#92f24b"/><stop offset="1" stop-color="#175e0a"/></linearGradient><linearGradient id="N" x1="418.767" x2="807.032" y1="461.483" y2="325.339" gradientUnits="userSpaceOnUse"><stop stop-color="#92f24b"/><stop offset="1" stop-color="#175e0a"/></linearGradient><linearGradient id="P" x1="550.187" x2="193.084" y1="318.539" y2="547.496" gradientUnits="userSpaceOnUse"><stop stop-color="#5dcf0f"/><stop offset="1" stop-color="#175e0a"/></linearGradient><linearGradient id="R" x1="-38.812" x2="9.708" y1="519.093" y2="481.19" gradientUnits="userSpaceOnUse"><stop stop-color="#5dcf0f"/><stop offset="1" stop-color="#175e0a"/></linearGradient><linearGradient id="T" x1="484.139" x2="420.439" y1="-31.478" y2="76.412" gradientUnits="userSpaceOnUse"><stop stop-color="#5dcf0f"/><stop offset="1" stop-color="#175e0a"/></linearGradient><linearGradient id="V" x1="339.875" x2="523.713" y1="147.231" y2="212.129" gradientUnits="userSpaceOnUse"><stop stop-color="#92f24b"/><stop offset="1" stop-color="#175e0a"/></linearGradient><linearGradient id="X" x1="371.207" x2="286.52" y1="300.163" y2="424.031" gradientUnits="userSpaceOnUse"><stop stop-color="#5dcf0f"/><stop offset="1" stop-color="#175e0a"/></linearGradient><linearGradient id="Z" x1="219.657" x2="229.899" y1="394.98" y2="317.982" gradientUnits="userSpaceOnUse"><stop stop-color="#5dcf0f"/><stop offset="1" stop-color="#175e0a"/></linearGradient><linearGradient id="ab" x1="639.763" x2="186.239" y1="252.995" y2="295.61" gradientUnits="userSpaceOnUse"><stop stop-color="#5dcf0f"/><stop offset="1" stop-color="#175e0a"/></linearGradient><linearGradient id="ad" x1="256.632" x2="427.859" y1="-29.465" y2="70.043" gradientUnits="userSpaceOnUse"><stop stop-color="#5dcf0f"/><stop offset="1" stop-color="#175e0a"/></linearGradient><linearGradient id="af" x1="498.446" x2="425.953" y1="445.327" y2="470.397" gradientUnits="userSpaceOnUse"><stop stop-color="#5dcf0f"/><stop offset="1" stop-color="#175e0a"/></linearGradient><linearGradient id="ah" x1="187.942" x2="324.459" y1="211.453" y2="232.675" gradientUnits="userSpaceOnUse"><stop stop-color="#92f24b"/><stop offset="1" stop-color="#175e0a"/></linearGradient><linearGradient id="aj" x1="65.064" x2="45.607" y1="497.154" y2="400.984" gradientUnits="userSpaceOnUse"><stop stop-color="#92f24b"/><stop offset="1" stop-color="#175e0a"/></linearGradient><linearGradient id="al" x1="312.966" x2="390.676" y1="-127.222" y2="160.664" gradientUnits="userSpaceOnUse"><stop stop-color="#5dcf0f"/><stop offset="1" stop-color="#175e0a"/></linearGradient><linearGradient id="an" x1="-108.013" x2="209.901" y1="128.89" y2="442.56" gradientUnits="userSpaceOnUse"><stop stop-color="#92f24b"/><stop offset="1" stop-color="#175e0a"/></linearGradient><linearGradient id="ap" x1="153.383" x2="41.332" y1="428.338" y2="482.547" gradientUnits="userSpaceOnUse"><stop stop-color="#92f24b"/><stop offset="1" stop-color="#175e0a"/></linearGradient><linearGradient id="ar" x1="443.474" x2="531.64" y1="114.652" y2="210.475" gradientUnits="userSpaceOnUse"><stop stop-color="#92f24b"/><stop offset="1" stop-color="#175e0a"/></linearGradient><linearGradient id="at" x1="171.815" x2="51.263" y1="381.163" y2="133.995" gradientUnits="userSpaceOnUse"><stop stop-color="#5dcf0f"/><stop offset="1" stop-color="#175e0a"/></linearGradient><clipPath id="a"><path fill="#fff" d="M0 0h512v512H0z"/></clipPath></defs></svg>