<svg xmlns="http://www.w3.org/2000/svg" xml:space="preserve" stroke-miterlimit="10" style="fill-rule:nonzero;clip-rule:evenodd;stroke-linecap:round;stroke-linejoin:round" viewBox="0 0 512 512"><defs><linearGradient id="c" x1="0" x2="1" y1="0" y2="0" gradientTransform="rotate(-50.054 167.103 -102.858)scale(159.46)" gradientUnits="userSpaceOnUse"><stop offset="0" stop-color="#5dcf0f"/><stop offset="1" stop-color="#175e0a"/></linearGradient><linearGradient id="e" x1="0" x2="1" y1="0" y2="0" gradientTransform="rotate(123.849 148.454 -239.348)scale(357.208)" gradientUnits="userSpaceOnUse"><stop offset="0" stop-color="#5dcf0f"/><stop offset="1" stop-color="#175e0a"/></linearGradient><linearGradient id="g" x1="0" x2="1" y1="0" y2="0" gradientTransform="rotate(-46.252 -178.56 -559.936)scale(190.974)" gradientUnits="userSpaceOnUse"><stop offset="0" stop-color="#5dcf0f"/><stop offset="1" stop-color="#175e0a"/></linearGradient><linearGradient id="i" x1="0" x2="1" y1="0" y2="0" gradientTransform="rotate(106.965 423.812 12.486)scale(98.8606)" gradientUnits="userSpaceOnUse"><stop offset="0" stop-color="#5dcf0f"/><stop offset="1" stop-color="#175e0a"/></linearGradient><linearGradient id="k" x1="0" x2="1" y1="0" y2="0" gradientTransform="rotate(135.032 -32.986 51.608)scale(428.49)" gradientUnits="userSpaceOnUse"><stop offset="0" stop-color="#5dcf0f"/><stop offset="1" stop-color="#175e0a"/></linearGradient><linearGradient id="m" x1="0" x2="1" y1="0" y2="0" gradientTransform="rotate(4.02 4249.043 -114.886)scale(579.7554)" gradientUnits="userSpaceOnUse"><stop offset="0" stop-color="#5dcf0f"/><stop offset="1" stop-color="#175e0a"/></linearGradient><linearGradient id="o" x1="0" x2="1" y1="0" y2="0" gradientTransform="rotate(-119.485 109.321 36.646)scale(489.338)" gradientUnits="userSpaceOnUse"><stop offset="0" stop-color="#5dcf0f"/><stop offset="1" stop-color="#175e0a"/></linearGradient><linearGradient id="q" x1="0" x2="1" y1="0" y2="0" gradientTransform="rotate(-140.449 236.799 -8.337)scale(252.054)" gradientUnits="userSpaceOnUse"><stop offset="0" stop-color="#5dcf0f"/><stop offset="1" stop-color="#175e0a"/></linearGradient><linearGradient id="s" x1="0" x2="1" y1="0" y2="0" gradientTransform="rotate(56.138 -15.63 -161.507)scale(520.99)" gradientUnits="userSpaceOnUse"><stop offset="0" stop-color="#5dcf0f"/><stop offset="1" stop-color="#175e0a"/></linearGradient><linearGradient id="u" x1="0" x2="1" y1="0" y2="0" gradientTransform="rotate(-122.222 274.078 -29.766)scale(498.626)" gradientUnits="userSpaceOnUse"><stop offset="0" stop-color="#5dcf0f"/><stop offset="1" stop-color="#175e0a"/></linearGradient><linearGradient id="w" x1="0" x2="1" y1="0" y2="0" gradientTransform="rotate(131.384 241.45 98.957)scale(100.0568)" gradientUnits="userSpaceOnUse"><stop offset="0" stop-color="#5dcf0f"/><stop offset="1" stop-color="#175e0a"/></linearGradient><linearGradient id="y" x1="0" x2="1" y1="0" y2="0" gradientTransform="rotate(83.286 -38.453 199.2)scale(315.1885)" gradientUnits="userSpaceOnUse"><stop offset="0" stop-color="#5dcf0f"/><stop offset="1" stop-color="#175e0a"/></linearGradient><linearGradient id="A" x1="0" x2="1" y1="0" y2="0" gradientTransform="rotate(-19.877 1228.728 -1009.173)scale(507.372)" gradientUnits="userSpaceOnUse"><stop offset="0" stop-color="#5dcf0f"/><stop offset="1" stop-color="#175e0a"/></linearGradient><linearGradient id="C" x1="0" x2="1" y1="0" y2="0" gradientTransform="rotate(-10.073 2681.234 516.63)scale(570.2327)" gradientUnits="userSpaceOnUse"><stop offset="0" stop-color="#5dcf0f"/><stop offset="1" stop-color="#175e0a"/></linearGradient><linearGradient id="E" x1="0" x2="1" y1="0" y2="0" gradientTransform="rotate(-17.038 1603.944 -799.112)scale(321.5559)" gradientUnits="userSpaceOnUse"><stop offset="0" stop-color="#5dcf0f"/><stop offset="1" stop-color="#175e0a"/></linearGradient><linearGradient id="G" x1="0" x2="1" y1="0" y2="0" gradientTransform="rotate(-69.519 121.93 236.469)scale(738.965)" gradientUnits="userSpaceOnUse"><stop offset="0" stop-color="#5dcf0f"/><stop offset="1" stop-color="#175e0a"/></linearGradient><linearGradient id="I" x1="0" x2="1" y1="0" y2="0" gradientTransform="rotate(-46.276 544.3 273.108)scale(383.04)" gradientUnits="userSpaceOnUse"><stop offset="0" stop-color="#5dcf0f"/><stop offset="1" stop-color="#175e0a"/></linearGradient><linearGradient id="K" x1="0" x2="1" y1="0" y2="0" gradientTransform="rotate(152.328 107.21 304.653)scale(453.434)" gradientUnits="userSpaceOnUse"><stop offset="0" stop-color="#5dcf0f"/><stop offset="1" stop-color="#175e0a"/></linearGradient><linearGradient id="M" x1="0" x2="1" y1="0" y2="0" gradientTransform="rotate(74.894 -202.672 387.976)scale(298.1899)" gradientUnits="userSpaceOnUse"><stop offset="0" stop-color="#5dcf0f"/><stop offset="1" stop-color="#175e0a"/></linearGradient><linearGradient id="O" x1="0" x2="1" y1="0" y2="0" gradientTransform="rotate(-101.438 -44.14 -191.81)scale(98.1188)" gradientUnits="userSpaceOnUse"><stop offset="0" stop-color="#92f24b"/><stop offset="1" stop-color="#175e0a"/></linearGradient><linearGradient id="Q" x1="0" x2="1" y1="0" y2="0" gradientTransform="rotate(44.615 632.842 -526.103)scale(446.607)" gradientUnits="userSpaceOnUse"><stop offset="0" stop-color="#92f24b"/><stop offset="1" stop-color="#175e0a"/></linearGradient><linearGradient id="S" x1="0" x2="1" y1="0" y2="0" gradientTransform="rotate(23.422 -873.815 564.555)scale(415.114)" gradientUnits="userSpaceOnUse"><stop offset="0" stop-color="#92f24b"/><stop offset="1" stop-color="#175e0a"/></linearGradient><linearGradient id="U" x1="0" x2="1" y1="0" y2="0" gradientTransform="rotate(-161.047 295.267 200.79)scale(597.646)" gradientUnits="userSpaceOnUse"><stop offset="0" stop-color="#92f24b"/><stop offset="1" stop-color="#175e0a"/></linearGradient><linearGradient id="W" x1="0" x2="1" y1="0" y2="0" gradientTransform="rotate(154.183 -31.78 231.61)scale(124.475)" gradientUnits="userSpaceOnUse"><stop offset="0" stop-color="#92f24b"/><stop offset="1" stop-color="#175e0a"/></linearGradient><linearGradient id="Y" x1="0" x2="1" y1="0" y2="0" gradientTransform="rotate(19.444 678.84 2042.564)scale(194.957)" gradientUnits="userSpaceOnUse"><stop offset="0" stop-color="#92f24b"/><stop offset="1" stop-color="#175e0a"/></linearGradient><linearGradient id="aa" x1="0" x2="1" y1="0" y2="0" gradientTransform="rotate(55.194 -213.63 332.008)scale(544.2)" gradientUnits="userSpaceOnUse"><stop offset="0" stop-color="#92f24b"/><stop offset="1" stop-color="#175e0a"/></linearGradient><linearGradient id="ac" x1="0" x2="1" y1="0" y2="0" gradientTransform="rotate(-85.82 520.929 -158.107)scale(294.9766)" gradientUnits="userSpaceOnUse"><stop offset="0" stop-color="#92f24b"/><stop offset="1" stop-color="#175e0a"/></linearGradient><linearGradient id="ae" x1="0" x2="1" y1="0" y2="0" gradientTransform="rotate(-137.801 310.062 100.163)scale(459.78)" gradientUnits="userSpaceOnUse"><stop offset="0" stop-color="#92f24b"/><stop offset="1" stop-color="#175e0a"/></linearGradient><linearGradient id="ag" x1="0" x2="1" y1="0" y2="0" gradientTransform="rotate(111.272 391.703 206.64)scale(451.729)" gradientUnits="userSpaceOnUse"><stop offset="0" stop-color="#92f24b"/><stop offset="1" stop-color="#175e0a"/></linearGradient><linearGradient id="ai" x1="0" x2="1" y1="0" y2="0" gradientTransform="rotate(-47.164 285.956 15.282)scale(209.338)" gradientUnits="userSpaceOnUse"><stop offset="0" stop-color="#92f24b"/><stop offset="1" stop-color="#175e0a"/></linearGradient><linearGradient id="ak" x1="0" x2="1" y1="0" y2="0" gradientTransform="rotate(-55.479 389.449 55.817)scale(219.478)" gradientUnits="userSpaceOnUse"><stop offset="0" stop-color="#92f24b"/><stop offset="1" stop-color="#175e0a"/></linearGradient><linearGradient id="am" x1="0" x2="1" y1="0" y2="0" gradientTransform="rotate(-170.241 339.503 -75.164)scale(361.1379)" gradientUnits="userSpaceOnUse"><stop offset="0" stop-color="#92f24b"/><stop offset="1" stop-color="#175e0a"/></linearGradient><linearGradient id="ao" x1="0" x2="1" y1="0" y2="0" gradientTransform="rotate(79.828 7.753 -51.203)scale(138.1545)" gradientUnits="userSpaceOnUse"><stop offset="0" stop-color="#92f24b"/><stop offset="1" stop-color="#175e0a"/></linearGradient><linearGradient id="aq" x1="0" x2="1" y1="0" y2="0" gradientTransform="rotate(8.836 1318.29 -474.982)scale(138.1566)" gradientUnits="userSpaceOnUse"><stop offset="0" stop-color="#92f24b"/><stop offset="1" stop-color="#175e0a"/></linearGradient><linearGradient id="as" x1="0" x2="1" y1="0" y2="0" gradientTransform="rotate(47.383 237.376 52.085)scale(130.2118)" gradientUnits="userSpaceOnUse"><stop offset="0" stop-color="#92f24b"/><stop offset="1" stop-color="#175e0a"/></linearGradient><linearGradient id="au" x1="0" x2="1" y1="0" y2="0" gradientTransform="rotate(-19.323 1456.372 -1074.914)scale(411.442)" gradientUnits="userSpaceOnUse"><stop offset="0" stop-color="#92f24b"/><stop offset="1" stop-color="#175e0a"/></linearGradient><linearGradient id="aw" x1="0" x2="1" y1="0" y2="0" gradientTransform="rotate(133.561 -48.536 69.629)scale(528.677)" gradientUnits="userSpaceOnUse"><stop offset="0" stop-color="#92f24b"/><stop offset="1" stop-color="#175e0a"/></linearGradient><linearGradient id="ay" x1="0" x2="1" y1="0" y2="0" gradientTransform="scale(290.273 -290.273)rotate(44.854 1.217 4.262)" gradientUnits="userSpaceOnUse"><stop offset="0" stop-color="#92f24b"/><stop offset=".999" stop-color="#175e0a"/><stop offset="1" stop-color="#175e0a"/></linearGradient><linearGradient id="aA" x1="0" x2="1" y1="0" y2="0" gradientTransform="rotate(-116 556.243 59.113)scale(275)" gradientUnits="userSpaceOnUse"><stop offset="0" stop-color="#5dcf0f"/><stop offset="1" stop-color="#175e0a"/></linearGradient><linearGradient id="aC" x1="0" x2="1" y1="0" y2="0" gradientTransform="rotate(147.334 228.42 239.885)scale(424.198)" gradientUnits="userSpaceOnUse"><stop offset="0" stop-color="#5dcf0f"/><stop offset="1" stop-color="#175e0a"/></linearGradient><linearGradient id="aE" x1="0" x2="1" y1="0" y2="0" gradientTransform="rotate(-37.996 734.46 315.912)scale(61.5693)" gradientUnits="userSpaceOnUse"><stop offset="0" stop-color="#5dcf0f"/><stop offset="1" stop-color="#175e0a"/></linearGradient><linearGradient id="aG" x1="0" x2="1" y1="0" y2="0" gradientTransform="rotate(120.558 251.055 122.452)scale(125.291)" gradientUnits="userSpaceOnUse"><stop offset="0" stop-color="#5dcf0f"/><stop offset="1" stop-color="#175e0a"/></linearGradient><linearGradient id="aI" x1="0" x2="1" y1="0" y2="0" gradientTransform="rotate(160.923 270.774 246.845)scale(76.7049)" gradientUnits="userSpaceOnUse"><stop offset="0" stop-color="#5dcf0f"/><stop offset="1" stop-color="#175e0a"/></linearGradient><linearGradient id="aK" x1="0" x2="1" y1="0" y2="0" gradientTransform="rotate(32.174 127.368 1380.483)scale(267.018)" gradientUnits="userSpaceOnUse"><stop offset="0" stop-color="#5dcf0f"/><stop offset="1" stop-color="#175e0a"/></linearGradient><linearGradient id="aM" x1="0" x2="1" y1="0" y2="0" gradientTransform="rotate(-65.539 639.629 -293.572)scale(280.662)" gradientUnits="userSpaceOnUse"><stop offset="0" stop-color="#5dcf0f"/><stop offset="1" stop-color="#175e0a"/></linearGradient><linearGradient id="aO" x1="0" x2="1" y1="0" y2="0" gradientTransform="rotate(124.36 106.407 248.023)scale(150.0506)" gradientUnits="userSpaceOnUse"><stop offset="0" stop-color="#5dcf0f"/><stop offset="1" stop-color="#175e0a"/></linearGradient><linearGradient id="aQ" x1="0" x2="1" y1="0" y2="0" gradientTransform="rotate(-82.423 335.329 72.084)scale(77.6763)" gradientUnits="userSpaceOnUse"><stop offset="0" stop-color="#5dcf0f"/><stop offset="1" stop-color="#175e0a"/></linearGradient><linearGradient id="aS" x1="0" x2="1" y1="0" y2="0" gradientTransform="rotate(-144.194 485.508 -179.888)scale(309.875)" gradientUnits="userSpaceOnUse"><stop offset="0" stop-color="#5dcf0f"/><stop offset="1" stop-color="#175e0a"/></linearGradient><linearGradient id="aU" x1="0" x2="1" y1="0" y2="0" gradientTransform="rotate(-54.356 236.344 -622.843)scale(336.672)" gradientUnits="userSpaceOnUse"><stop offset="0" stop-color="#5dcf0f"/><stop offset="1" stop-color="#175e0a"/></linearGradient><linearGradient id="aW" x1="0" x2="1" y1="0" y2="0" gradientTransform="rotate(174.632 313.952 141.494)scale(455.522)" gradientUnits="userSpaceOnUse"><stop offset="0" stop-color="#5dcf0f"/><stop offset="1" stop-color="#175e0a"/></linearGradient><linearGradient id="aY" x1="0" x2="1" y1="0" y2="0" gradientTransform="rotate(51.127 322.579 465.22)scale(384.48)" gradientUnits="userSpaceOnUse"><stop offset="0" stop-color="#5dcf0f"/><stop offset="1" stop-color="#175e0a"/></linearGradient><linearGradient id="ba" x1="0" x2="1" y1="0" y2="0" gradientTransform="rotate(30.163 182.99 461.438)scale(198.0421)" gradientUnits="userSpaceOnUse"><stop offset="0" stop-color="#5dcf0f"/><stop offset="1" stop-color="#175e0a"/></linearGradient></defs><clipPath id="a"><path d="M0 0h512v512H0z"/></clipPath><g clip-path="url(#a)"><path fill="#093600" d="M541.208-31.418H-28.506v569.713h569.714z"/><path fill="#175e0a" d="M129.721 55.952C192.058 126.4 598.123-11.646 683.887-8.996 623.653 17.79 176.366 195.572 129.721 55.952m822.973-409.813c-142.816 21.336-388.405 77.798-346.84 281.17-167.181-229.746 206.433-325.204 346.84-281.17M183.884 755.621c112.081 62.505 385.59-12.674 492.795-45.784-88.721 82.028-397.13 172.597-492.795 45.784m108.58-478.746C426.513 397.647 606.26 475.746 784.323 500.276c-190.726 61.925-410.6-42.145-491.859-223.401"/><clipPath id="b" clip-rule="nonzero"><path d="M69.914-174.329C-103.19 50.937 267.759 156.175 409.315 115.848 267.05 90.776 23.075 27.851 69.914-174.329"/></clipPath><g clip-path="url(#b)"><path fill="url(#c)" d="M69.914-174.329C-103.19 50.937 267.759 156.175 409.315 115.848 267.05 90.776 23.075 27.851 69.914-174.329"/></g><clipPath id="d" clip-rule="nonzero"><path d="M-190.265-215.372C-91.69-297.011-10.796-379.857 60.543-477.235-46.59-420.488-134.28-328.163-190.263-215.372z"/></clipPath><g clip-path="url(#d)"><path fill="url(#e)" d="M-190.265-215.372C-91.69-297.011-10.796-379.857 60.543-477.235-46.59-420.488-134.28-328.163-190.263-215.372"/></g><clipPath id="f" clip-rule="nonzero"><path d="M255.919-522.169c130.413 62.037 348.833 187.718 249.77 370.1 226.901-170.975-102.624-371.258-249.77-370.1"/></clipPath><g clip-path="url(#f)"><path fill="url(#g)" d="M255.919-522.169c130.413 62.037 348.833 187.718 249.77 370.1 226.901-170.975-102.624-371.258-249.77-370.1"/></g><clipPath id="h" clip-rule="nonzero"><path d="M246.806-388.755c198.498 26.062 394.391 83.19 569.661 181.256-128.727-173.082-364.398-250.4-569.661-181.256"/></clipPath><g clip-path="url(#h)"><path fill="url(#i)" d="M246.806-388.755c198.498 26.062 394.391 83.19 569.661 181.256-128.727-173.082-364.398-250.4-569.661-181.256"/></g><clipPath id="j" clip-rule="nonzero"><path d="M-224.207 513.393c95.384-147.862 123.618-328.055 105.486-500.69-58.091 161.57-79.099 332.051-105.486 500.69"/></clipPath><g clip-path="url(#j)"><path fill="url(#k)" d="M-224.207 513.393c95.384-147.862 123.618-328.055 105.486-500.69-58.091 161.57-79.099 332.051-105.486 500.69"/></g><clipPath id="l" clip-rule="nonzero"><path d="M-1.35-246.01c191.316-27.991 389.778-24.278 581.029 2.307-172.077-114.96-407.367-112.11-581.029-2.307"/></clipPath><g clip-path="url(#l)"><path fill="url(#m)" d="M-1.35-246.01c191.316-27.991 389.778-24.278 581.029 2.307-172.077-114.96-407.367-112.11-581.029-2.307"/></g><clipPath id="n" clip-rule="nonzero"><path d="M-67.68 262.21C-55.555 37.502 41.28-170.994 88.775-388.414-51.495-209.218-153.857 34.582-67.68 262.21"/></clipPath><g clip-path="url(#n)"><path fill="url(#o)" d="M-67.68 262.21C-55.555 37.502 41.28-170.994 88.775-388.414-51.495-209.218-153.857 34.582-67.68 262.21"/></g><clipPath id="p" clip-rule="nonzero"><path d="M91.523 143.532c116.583 31.746 431.925-30.499 458.139-187.197-70.515 107.276-347.777 167.008-458.14 187.197Z"/></clipPath><g clip-path="url(#p)"><path fill="url(#q)" d="M91.523 143.532c116.583 31.746 431.925-30.499 458.139-187.197-70.515 107.276-347.777 167.008-458.14 187.197"/></g><clipPath id="r" clip-rule="nonzero"><path d="M-217.949-7.387C-52.122 63.75 94.136 194.2 191.032 345.604 167.292 146.489-19.311-9.528-217.949-7.387"/></clipPath><g clip-path="url(#r)"><path fill="url(#s)" d="M-217.949-7.387C-52.122 63.75 94.136 194.2 191.032 345.604 167.292 146.489-19.311-9.528-217.949-7.387"/></g><clipPath id="t" clip-rule="nonzero"><path d="M402.852 212.985C324.994 60.583 272.779-107.516 243.235-275.822 193.06-99.373 261.17 98.511 402.852 212.985"/></clipPath><g clip-path="url(#t)"><path fill="url(#u)" d="M402.852 212.985C324.994 60.583 272.779-107.516 243.235-275.822 193.06-99.373 261.17 98.511 402.852 212.985"/></g><clipPath id="v" clip-rule="nonzero"><path d="M202.163-124.309c87.097-35.519 389.925 268.258 467.959 303.882-42.145-50.733-364.27-408.372-467.959-303.882"/></clipPath><g clip-path="url(#v)"><path fill="url(#w)" d="M202.163-124.309c87.097-35.519 389.925 268.258 467.959 303.882-42.145-50.733-364.27-408.372-467.959-303.882"/></g><clipPath id="x" clip-rule="nonzero"><path d="M11.185 549.319C64.12 414.952 174.506 188.435 363.25 274.718 177.08 60.1-.082 402.591 11.185 549.319"/></clipPath><g clip-path="url(#x)"><path fill="url(#y)" d="M11.185 549.319C64.12 414.952 174.506 188.435 363.25 274.718 177.08 60.1-.082 402.591 11.185 549.319"/></g><clipPath id="z" clip-rule="nonzero"><path d="M879.303 145.563c-161.925 57.186-307.218 148.725-454.566 234.938 174.869-19.641 332.317-111.734 454.566-234.938"/></clipPath><g clip-path="url(#z)"><path fill="url(#A)" d="M879.303 145.563c-161.925 57.186-307.218 148.725-454.566 234.938 174.869-19.641 332.317-111.734 454.566-234.938"/></g><clipPath id="B" clip-rule="nonzero"><path d="M-62.6 401.147c199.947-9.682 402.906 11.675 592.858 76.969C372.77 330.736 127.11 296.587-62.6 401.147"/></clipPath><g clip-path="url(#B)"><path fill="url(#C)" d="M-62.6 401.147c199.947-9.682 402.906 11.675 592.858 76.969C372.77 330.736 127.11 296.587-62.6 401.147"/></g><clipPath id="D" clip-rule="nonzero"><path d="M329.038 514.981c108.746-53.62 199.084-143.338 258.337-254.493-100.955 78.761-184.184 159.243-258.337 254.493"/></clipPath><g clip-path="url(#D)"><path fill="url(#E)" d="M329.038 514.981c108.746-53.62 199.084-143.338 258.337-254.493-100.955 78.761-184.184 159.243-258.337 254.493"/></g><clipPath id="F" clip-rule="nonzero"><path d="M-283.555 214.407C-158.53-9.896 68.339-214.511 273.29-366.43 4.591-315.046-254.465-61.828-283.555 214.407"/></clipPath><g clip-path="url(#F)"><path fill="url(#G)" d="M-283.555 214.407C-158.53-9.896 68.339-214.511 273.29-366.43 4.591-315.046-254.465-61.828-283.555 214.407"/></g><clipPath id="H" clip-rule="nonzero"><path d="M128.86 628.746c98.651-181.885 74.263-415.897-51.008-578.774 45.406 187.949 59.907 385.905 51.008 578.774"/></clipPath><g clip-path="url(#H)"><path fill="url(#I)" d="M128.86 628.746c98.651-181.885 74.263-415.897-51.008-578.774 45.406 187.949 59.907 385.905 51.008 578.774"/></g><clipPath id="J" clip-rule="nonzero"><path d="M-98.39 658.385C2.046 578.446 284.115 608.2 395.27 623.446 294.417 556.913-24.601 517.658-98.39 658.385"/></clipPath><g clip-path="url(#J)"><path fill="url(#K)" d="M-98.39 658.385C2.046 578.446 284.115 608.2 395.27 623.446 294.417 556.913-24.601 517.658-98.39 658.385"/></g><clipPath id="L" clip-rule="nonzero"><path d="M-9.25 545.758c55.983 34.785 474.652 272.205 540.022 140.311-71.416 61.24-454.736-131.218-540.023-140.311Z"/></clipPath><g clip-path="url(#L)"><path fill="url(#M)" d="M-9.25 545.758c55.983 34.785 474.652 272.205 540.022 140.311-71.416 61.24-454.736-131.218-540.023-140.311"/></g><clipPath id="N" clip-rule="nonzero"><path d="M357.304-418.265C275.941-318.99-6.092-288.703-117.957-280.183-5.333-236.39 314.79-265.168 357.304-418.265"/></clipPath><g clip-path="url(#N)"><path fill="url(#O)" d="M357.304-418.265C275.941-318.99-6.092-288.703-117.957-280.183-5.333-236.39 314.79-265.168 357.304-418.265"/></g><clipPath id="P" clip-rule="nonzero"><path d="M-277.132-505.236c170.23 17.659 339.667 65.409 496.913 132.288-120.7-138.187-323.77-188.784-496.913-132.288"/></clipPath><g clip-path="url(#P)"><path fill="url(#Q)" d="M-277.132-505.236c170.23 17.659 339.667 65.409 496.913 132.288-120.7-138.187-323.77-188.784-496.913-132.288"/></g><clipPath id="R" clip-rule="nonzero"><path d="M496.625 643.577C362.566 589.792 136.727 478.09 224.103 289.828 8.398 474.72 349.815 653.914 496.625 643.577"/></clipPath><g clip-path="url(#R)"><path fill="url(#S)" d="M496.625 643.577C362.566 589.792 136.727 478.09 224.103 289.828 8.398 474.72 349.815 653.914 496.625 643.577"/></g><clipPath id="T" clip-rule="nonzero"><path d="M-72.593 340.902c198.496 25.857 394.454 82.783 569.866 180.639C368.37 348.632 132.602 271.554-72.59 340.902z"/></clipPath><g clip-path="url(#T)"><path fill="url(#U)" d="M-72.593 340.902c198.496 25.857 394.454 82.783 569.866 180.639C368.37 348.632 132.602 271.554-72.59 340.902"/></g><clipPath id="V" clip-rule="nonzero"><path d="M-33.675 300.605c-1.966 128.024 8.546 243.288 36.274 360.834 26.406-118.368 13.152-244.967-36.275-360.834Z"/></clipPath><g clip-path="url(#V)"><path fill="url(#W)" d="M-33.675 300.605c-1.966 128.024 8.546 243.288 36.274 360.834 26.406-118.368 13.152-244.967-36.275-360.834"/></g><clipPath id="X" clip-rule="nonzero"><path d="M667.781 34.726c109.26-66.743 201.115-137.222 285.638-223.44-114.133 40.906-214.085 119.775-285.638 223.44"/></clipPath><g clip-path="url(#X)"><path fill="url(#Y)" d="M667.781 34.726c109.26-66.743 201.115-137.222 285.638-223.44-114.133 40.906-214.085 119.775-285.638 223.44"/></g><clipPath id="Z" clip-rule="nonzero"><path d="M91.969 379.027c173.601 85.187 335.132 200.524 477.786 330.634-76.843-192.145-272.447-322.909-477.786-330.634"/></clipPath><g clip-path="url(#Z)"><path fill="url(#aa)" d="M91.969 379.027c173.601 85.187 335.132 200.524 477.786 330.634-76.843-192.145-272.447-322.909-477.786-330.634"/></g><clipPath id="ab" clip-rule="nonzero"><path d="M360.852 62.132c212.227 74.675 385.175 226.111 580.546 332.697C808.787 209.902 603.484 43.267 360.852 62.132"/></clipPath><g clip-path="url(#ab)"><path fill="url(#ac)" d="M360.852 62.132c212.227 74.675 385.175 226.111 580.546 332.697C808.787 209.902 603.484 43.267 360.852 62.132"/></g><clipPath id="ad" clip-rule="nonzero"><path d="M530.911 318.199c-64.166-102.398-338.092-270.52-463.637-173.19 124.548-30.982 368.825 113.178 463.637 173.19"/></clipPath><g clip-path="url(#ad)"><path fill="url(#ae)" d="M530.911 318.199c-64.166-102.398-338.092-270.52-463.637-173.19 124.548-30.982 368.825 113.178 463.637 173.19"/></g><clipPath id="af" clip-rule="nonzero"><path d="M702.788 392.354C613.715 235.421 576.139 43.065 590.532-136.12 489 36.817 543.27 273.923 702.788 392.354"/></clipPath><g clip-path="url(#af)"><path fill="url(#ag)" d="M702.788 392.354C613.715 235.421 576.139 43.065 590.532-136.12 489 36.817 543.27 273.923 702.788 392.354"/></g><clipPath id="ah" clip-rule="nonzero"><path d="M44.944-94.7C137.96 48.935 207.04 210.828 253.576 375.251 285.518 194.577 197.56 4.704 44.944-94.699Z"/></clipPath><g clip-path="url(#ah)"><path fill="url(#ai)" d="M44.944-94.7C137.96 48.935 207.04 210.828 253.576 375.251 285.518 194.577 197.56 4.704 44.944-94.699"/></g><clipPath id="aj" clip-rule="nonzero"><path d="M458.978 309.854C401.102 278.219-30.204 64.606-88.04 199.972c67.865-65.157 461.32 105.547 547.018 109.882"/></clipPath><g clip-path="url(#aj)"><path fill="url(#ak)" d="M458.978 309.854C401.102 278.219-30.204 64.606-88.04 199.972c67.865-65.157 461.32 105.547 547.018 109.882"/></g><clipPath id="al" clip-rule="nonzero"><path d="M659.132 69.174C530.016 4.392 314.267-125.789 417.112-306.074 186.697-139.875 511.95 67.212 659.132 69.174"/></clipPath><g clip-path="url(#al)"><path fill="url(#am)" d="M659.132 69.174C530.016 4.392 314.267-125.789 417.112-306.074 186.697-139.875 511.95 67.212 659.132 69.174"/></g><clipPath id="an" clip-rule="nonzero"><path d="M222.901 41.974C55.771 2.537-115.968.93-286.513-6.18c157.732 77.994 339.945 85.69 509.414 48.154"/></clipPath><g clip-path="url(#an)"><path fill="url(#ao)" d="M222.901 41.974C55.771 2.537-115.968.93-286.513-6.18c157.732 77.994 339.945 85.69 509.414 48.154"/></g><clipPath id="ap" clip-rule="nonzero"><path d="M116.181-430.588C24.468-285.434-32.951-123.585-95.257 35.374 29.868-88.344 96.467-258.128 116.181-430.588"/></clipPath><g clip-path="url(#ap)"><path fill="url(#aq)" d="M116.181-430.588C24.468-285.434-32.951-123.585-95.257 35.374 29.868-88.344 96.467-258.128 116.181-430.588"/></g><clipPath id="ar" clip-rule="nonzero"><path d="M78.505 52.446c85.216-86.213 141.237-200.561 160.891-324.964C169.772-165.079 117.425-61.828 78.505 52.446"/></clipPath><g clip-path="url(#ar)"><path fill="url(#as)" d="M78.505 52.446c85.216-86.213 141.237-200.561 160.891-324.964C169.772-165.079 117.425-61.828 78.505 52.446"/></g><clipPath id="at" clip-rule="nonzero"><path d="M940.543 612.078C708.622 501.785 489.821 288.589 324.955 93.869c68.663 264.824 338.058 507.018 615.588 518.209"/></clipPath><g clip-path="url(#at)"><path fill="url(#au)" d="M940.543 612.078C708.622 501.785 489.821 288.589 324.955 93.869c68.663 264.824 338.058 507.018 615.588 518.209"/></g><clipPath id="av" clip-rule="nonzero"><path d="M-180.273 11.162c18.379 224.295-49.39 443.951-67.084 665.804 114.794-196.512 183.248-451.921 67.084-665.804"/></clipPath><g clip-path="url(#av)"><path fill="url(#aw)" d="M-180.273 11.162c18.379 224.295-49.39 443.951-67.084 665.804 114.794-196.512 183.248-451.921 67.084-665.804"/></g><clipPath id="ax" clip-rule="nonzero"><path d="M1172.98-323.22v8.959c5.69 2.136 11.06 4.198 16.07 6.124a198 198 0 0 0-16.07-15.083"/></clipPath><g clip-path="url(#ax)"><path fill="url(#ay)" d="M1172.98-323.22v8.959c5.69 2.136 11.06 4.198 16.07 6.124a198 198 0 0 0-16.07-15.083"/></g><path fill="#175e0a" d="M495.694-5.199C438.343-51.818 141.256 107.236 74.432 116.174 117.696 87.69 441.642-107.453 495.695-5.199M-89.743 417.962C18.23 383.118 201.373 307.873 143.088 155.55 302.131 312.219 24.744 434.1-89.743 417.962"/><path fill="#175e0a" d="M-77.153 535.17c19.67-98.913-102.611-285.246-153.244-357.405 82.749 46.53 224.948 255.228 153.244 357.405m235.859-687.21C51.882-260.098-74.382-351.614-206.938-425.387c162.344 9.268 308.608 122.288 365.644 273.347"/><clipPath id="az" clip-rule="nonzero"><path d="M782.221 261.811c-34.947 38.224-278.752 327.32-186.289 396.823-36.999-63.982 166.96-332.269 186.289-396.823"/></clipPath><g clip-path="url(#az)"><path fill="url(#aA)" d="M782.221 261.811c-34.947 38.224-278.752 327.32-186.289 396.823-36.999-63.982 166.96-332.269 186.289-396.823"/></g><clipPath id="aB" clip-rule="nonzero"><path d="M526.789 282.11c-86.657 112.194-214.597 197.877-348.828 241.903 156.173 21.011 311.48-90.372 348.828-241.903"/></clipPath><g clip-path="url(#aB)"><path fill="url(#aC)" d="M526.789 282.11c-86.657 112.194-214.597 197.877-348.828 241.903 156.173 21.011 311.48-90.372 348.828-241.903"/></g><clipPath id="aD" clip-rule="nonzero"><path d="M134.09 640.324C34.815 549.647-49.868 440.28-117.933 324.58-106.298 468.236-1.678 595.096 134.09 640.324"/></clipPath><g clip-path="url(#aD)"><path fill="url(#aE)" d="M134.09 640.324C34.815 549.647-49.868 440.28-117.933 324.58-106.298 468.236-1.678 595.096 134.09 640.324"/></g><clipPath id="aF" clip-rule="nonzero"><path d="M571.571 165.647C676.887-31.163 375.843-65.198 271.28-15.795c113.493 1.202 310.687 18.712 300.291 181.442"/></clipPath><g clip-path="url(#aF)"><path fill="url(#aG)" d="M571.571 165.647C676.887-31.163 375.843-65.198 271.28-15.795c113.493 1.202 310.687 18.712 300.291 181.442"/></g><clipPath id="aH" clip-rule="nonzero"><path d="M469.91 229.307c47.828 126.151 122.351 238.683 192.731 352.842-18.605-137.002-93.731-258.993-192.731-352.842"/></clipPath><g clip-path="url(#aH)"><path fill="url(#aI)" d="M469.91 229.307c47.828 126.151 122.351 238.683 192.731 352.842-18.605-137.002-93.731-258.993-192.731-352.842"/></g><clipPath id="aJ" clip-rule="nonzero"><path d="M857.762-19.377c-92.904 141.736-86.302 336.5 20.176 469.292-34.404-153.491-45.157-313.481-20.176-469.292"/></clipPath><g clip-path="url(#aJ)"><path fill="url(#aK)" d="M857.762-19.377c-92.904 141.736-86.302 336.5 20.176 469.292-34.404-153.491-45.157-313.481-20.176-469.292"/></g><clipPath id="aL" clip-rule="nonzero"><path d="M778.518 164.12c-65.95 75.919-118.04 150.507-160.861 235.138 75.777-57.721 131.918-140.531 160.861-235.138"/></clipPath><g clip-path="url(#aL)"><path fill="url(#aM)" d="M778.518 164.12c-65.95 75.919-118.04 150.507-160.861 235.138 75.777-57.721 131.918-140.531 160.861-235.138"/></g><clipPath id="aN" clip-rule="nonzero"><path d="M471.962 459.131c-109.045-31.376-294.47-100.811-241.053-254.887C76.928 365.862 358.044 478.885 471.962 459.131"/></clipPath><g clip-path="url(#aN)"><path fill="url(#aO)" d="M471.962 459.131c-109.045-31.376-294.47-100.811-241.053-254.887C76.928 365.862 358.044 478.885 471.962 459.131"/></g><clipPath id="aP" clip-rule="nonzero"><path d="M461.928 354.542C304.711 359.779 145.536 340.6-2.901 287.043c121.974 117.673 314.571 147.406 464.829 67.499"/></clipPath><g clip-path="url(#aP)"><path fill="url(#aQ)" d="M461.928 354.542C304.711 359.779 145.536 340.6-2.901 287.043c121.974 117.673 314.571 147.406 464.829 67.499"/></g><clipPath id="aR" clip-rule="nonzero"><path d="M908.49 63.084c48.537-135.747 5.455-294.412-99.632-391.544 53.081 123.537 85.218 258.059 99.632 391.544"/></clipPath><g clip-path="url(#aR)"><path fill="url(#aS)" d="M908.49 63.084c48.537-135.747 5.455-294.412-99.632-391.544 53.081 123.537 85.218 258.059 99.632 391.544"/></g><clipPath id="aT" clip-rule="nonzero"><path d="M711.429-405.166c-54.992 126.849-53.785 270.151-17.602 401.652 24.323-132.693 18.76-267.54 17.602-401.652"/></clipPath><g clip-path="url(#aT)"><path fill="url(#aU)" d="M711.429-405.166c-54.992 126.849-53.785 270.151-17.602 401.652 24.323-132.693 18.76-267.54 17.602-401.652"/></g><clipPath id="aV" clip-rule="nonzero"><path d="M636.001 212.08C491.28 258.3 336.96 280.856 185.296 284.761c148.127 67.06 330.157 34.697 450.705-72.681"/></clipPath><g clip-path="url(#aV)"><path fill="url(#aW)" d="M636.001 212.08C491.28 258.3 336.96 280.856 185.296 284.761c148.127 67.06 330.157 34.697 450.705-72.681"/></g><clipPath id="aX" clip-rule="nonzero"><path d="M622.283-190.388c19.402 175.745-28.943 349.78-37.897 524.41 85.772-156.889 133.874-359 37.897-524.41"/></clipPath><g clip-path="url(#aX)"><path fill="url(#aY)" d="M622.283-190.388c19.402 175.745-28.943 349.78-37.897 524.41 85.772-156.889 133.874-359 37.897-524.41"/></g><clipPath id="aZ" clip-rule="nonzero"><path d="M514.08-77.984c-94.442-9.668-330.915 78.999-331.154 203.83 40.917-92.198 248.19-174.037 331.154-203.83"/></clipPath><g clip-path="url(#aZ)"><path fill="url(#ba)" d="M514.08-77.984c-94.442-9.668-330.915 78.999-331.154 203.83 40.917-92.198 248.19-174.037 331.154-203.83"/></g></g></svg>