<svg xmlns="http://www.w3.org/2000/svg" xml:space="preserve" stroke-miterlimit="10" style="fill-rule:nonzero;clip-rule:evenodd;stroke-linecap:round;stroke-linejoin:round" viewBox="0 0 1920 1920"><defs><linearGradient id="c" x1="-123" x2="2000.75" y1="1356.45" y2="1356.45" gradientTransform="translate(-1014.17 -896.44)scale(2.05643)" gradientUnits="userSpaceOnUse"><stop offset="0" stop-color="#f4f4f4"/><stop offset="1" stop-color="#f1f1f1"/></linearGradient><linearGradient id="e" x1="524.298" x2="1480.83" y1="47.459" y2="557.356" gradientTransform="translate(-1014.2 -896.45)scale(2.05643)" gradientUnits="userSpaceOnUse"><stop offset=".001" stop-color="#ebebeb"/><stop offset=".215" stop-color="#ebebeb"/><stop offset="1" stop-color="#fbfbfb"/></linearGradient><linearGradient id="g" x1="1463.22" x2="105.318" y1="976.681" y2="1981.18" gradientTransform="translate(-1014.17 -896.44)scale(2.05643)" gradientUnits="userSpaceOnUse"><stop offset="0" stop-color="#fdfdfd"/><stop offset="1" stop-color="#efefef"/></linearGradient></defs><clipPath id="a"><path d="M0 0h1920v1920H0z"/></clipPath><g clip-path="url(#a)"><path fill="#fdfdfd" d="M-1014.17-896.44h3948.34v3948.35h-3948.34z"/><clipPath id="b" clip-rule="nonzero"><path d="M-1014.17-896.44h3948.34v3948.35h-3948.34z"/></clipPath><g clip-path="url(#b)"><path fill="url(#c)" d="M3100.23 384.202c-351.46 15.429-837.83 110.704-1534.55 372.407-1681.298 631.521-1054.111-93.6-2832.79 444.961v2200.26h4367.34z"/></g><clipPath id="d" clip-rule="nonzero"><path d="M-1014.17-896.44h3948.34v3948.35h-3948.34z"/></clipPath><g clip-path="url(#d)"><path fill="url(#e)" d="M-1267.14-1156.46V736.549C285.33 1101.39-126.466 467.911 1465.22 797.662c1440.6 298.458 1220.52 73.392 1634.99-23.456V-1156.46z"/></g><clipPath id="f" clip-rule="nonzero"><path d="M-1014.17-896.44h3948.34v3948.35h-3948.34z"/></clipPath><g clip-path="url(#f)"><path fill="url(#g)" d="M1626.22 1077.86c-184.71 5.11-229.66 164.16-637.109 205.13-651.924 65.55-439.85-141.85-1159.697-142.86-552.553-.77-670.909 260.63-1096.524 215.67v2046.03h3484.04c280.29-47.9 575.19-101.61 883.3-161.12V1487.29c-239.31 13.02-522.68-6.54-882.15-193.63-319.92-166.52-481.04-218.87-591.86-215.8"/></g></g></svg>