<svg xmlns="http://www.w3.org/2000/svg" fill="none" viewBox="0 0 1024 1024"><g clip-path="url(#a)"><path fill="url(#b)" d="M0 0h1024v1024H0z"/><path fill="#8B5CF6" d="M692.009-335C947.791-118.137 1203.2 98.356 1458.99 315.219ZM512 512.132C571.88 229.878 631.759-52.746 692.009-335Zm946.99-196.913C1143.32 380.98 827.662 446.741 512 512.132ZM918.526 1276.65C782.967 1021.94 647.17 766.947 511.895 512Z"/><path stroke="#334155" stroke-miterlimit="10" stroke-opacity=".5" stroke-width="120" d="M511.895 512c135.275 254.947 271.072 509.94 406.631 764.65m540.464-961.431C1203.2 98.356 947.791-118.137 692.009-335 631.759-52.746 571.88 229.878 512 512.132c315.662-65.391 631.32-131.152 946.99-196.913Z"/><circle cx="512" cy="512" r="225" fill="#8B5CF6" fill-opacity=".95" stroke="#8B5CF6" stroke-opacity=".55" stroke-width="150"/></g><defs><radialGradient id="b" cx="0" cy="0" r="1" gradientTransform="translate(512 -51.2)scale(514.553)" gradientUnits="userSpaceOnUse"><stop stop-color="#141233"/><stop offset="1" stop-color="#0F172A"/></radialGradient><clipPath id="a"><path fill="#fff" d="M0 0h1024v1024H0z"/></clipPath></defs></svg>