<svg xmlns="http://www.w3.org/2000/svg" fill="none" viewBox="0 0 480 480"><g clip-path="url(#a)"><path fill="url(#b)" d="M0 0h480v480H0z"/><g clip-path="url(#c)"><path fill="#8B5CF6" d="M720.7 415.701c-45.8-88.2-91.6-176.4-137.3-264.7Zm-137.4-264.7c78.7-18.2 157.3-36.4 236-54.7Zm-205.8 150 205.8-150Zm-207.5-176c69.2 58.7 138.3 117.3 207.5 176Zm-48.7 229.3c16.2-76.4 32.4-152.9 48.7-229.3Zm256.2-53.3c-85.4 17.8-170.8 35.6-256.2 53.3Zm343.2 114.7c-114.4-38.3-228.8-76.5-343.2-114.7Z"/><path stroke="#334155" stroke-miterlimit="10" stroke-opacity=".5" stroke-width="11" d="M583.4 151.001c45.7 88.3 91.5 176.5 137.3 264.7-114.4-38.3-228.8-76.5-343.2-114.7m441.8-204.7c-78.7 18.3-157.3 36.5-236 54.7l-205.8 150m0 0c-69.2-58.7-138.3-117.3-207.5-176-16.3 76.4-32.5 152.9-48.7 229.3 85.4-17.7 170.8-35.5 256.2-53.3Z"/><path fill="#8B5CF6" d="M583.3 151c-137.8-8.7-275.6-17.3-413.3-26Zm236-54.7c-32.9 106.4-65.8 212.9-98.7 319.3ZM377.5 301c-18.9 99.7-37.9 199.3-56.8 299Zm-256.2 53.3 84 245.7Zm599.4 61.4c3.3 61.4 6.7 122.9 10 184.3ZM583.3 151 598-68ZM170 125C230 60.7 290-3.7 350-68Zm649.3-28.7C810.7 41.6 802-13.2 793.3-68Zm0 0L912 600Z"/><path stroke="#334155" stroke-miterlimit="10" stroke-opacity=".5" stroke-width="11" d="M819.3 96.3c-32.9 106.4-65.8 212.9-98.7 319.3m98.7-319.3C810.7 41.6 802-13.2 793.3-68m26 164.3L912 600M377.5 301c-18.9 99.7-37.9 199.3-56.8 299M121.3 354.3l84 245.7m515.4-184.3c3.3 61.4 6.7 122.9 10 184.3M598-68l-14.7 219c-137.8-8.7-275.6-17.3-413.3-26C230 60.7 290-3.7 350-68"/><path fill="#8B5CF6" fill-opacity=".95" stroke="#8B5CF6" stroke-opacity=".55" stroke-width="13" d="M377 318c9.941 0 18-8.059 18-18s-8.059-18-18-18-18 8.059-18 18 8.059 18 18 18ZM170 143c9.941 0 18-8.059 18-18s-8.059-18-18-18-18 8.059-18 18 8.059 18 18 18ZM122 372c9.941 0 18-8.059 18-18s-8.059-18-18-18-18 8.059-18 18 8.059 18 18 18Z"/></g></g><defs><clipPath id="a"><path fill="#fff" d="M0 0h480v480H0z"/></clipPath><clipPath id="c"><path fill="#fff" d="M-157-68H912v668H-157z"/></clipPath><radialGradient id="b" cx="0" cy="0" r="1" gradientTransform="translate(240 -24)scale(241.197)" gradientUnits="userSpaceOnUse"><stop stop-color="#141233"/><stop offset="1" stop-color="#0F172A"/></radialGradient></defs></svg>