<svg xmlns="http://www.w3.org/2000/svg" xml:space="preserve" stroke-miterlimit="10" style="fill-rule:nonzero;clip-rule:evenodd;stroke-linecap:round;stroke-linejoin:round" viewBox="0 0 1024 1024"><defs><radialGradient id="b" cx="0" cy="0" r="1" gradientTransform="translate(512 512)scale(748.614)" gradientUnits="userSpaceOnUse"><stop offset="0" stop-color="#2e3037"/><stop offset=".6" stop-color="#2e3037"/><stop offset="1" stop-color="#fff" stop-opacity="0"/></radialGradient><radialGradient id="c" cx="0" cy="0" r="1" gradientTransform="translate(512 512)scale(643.175)" gradientUnits="userSpaceOnUse"><stop offset="0" stop-color="#2e3037"/><stop offset=".6" stop-color="#2e3037"/><stop offset="1" stop-color="#fff" stop-opacity="0"/></radialGradient><radialGradient id="d" cx="0" cy="0" r="1" gradientTransform="translate(512 512)scale(537.737)" gradientUnits="userSpaceOnUse"><stop offset="0" stop-color="#2e3037"/><stop offset=".6" stop-color="#2e3037"/><stop offset="1" stop-color="#fff" stop-opacity="0"/></radialGradient><radialGradient id="e" cx="0" cy="0" r="1" gradientTransform="translate(512 512)scale(432.298)" gradientUnits="userSpaceOnUse"><stop offset="0" stop-color="#2e3037"/><stop offset=".6" stop-color="#2e3037"/><stop offset="1" stop-color="#fff" stop-opacity="0"/></radialGradient><radialGradient id="f" cx="0" cy="0" r="1" gradientTransform="translate(512 512)scale(326.859)" gradientUnits="userSpaceOnUse"><stop offset="0" stop-color="#2e3037"/><stop offset=".6" stop-color="#2e3037"/><stop offset="1" stop-color="#fff" stop-opacity="0"/></radialGradient><radialGradient id="g" cx="0" cy="0" r="1" gradientTransform="translate(512 512)scale(221.421)" gradientUnits="userSpaceOnUse"><stop offset="0" stop-color="#2e3037"/><stop offset=".6" stop-color="#2e3037"/><stop offset="1" stop-color="#fff" stop-opacity="0"/></radialGradient></defs><clipPath id="a"><path d="M0 0h1024v1024H0z"/></clipPath><g clip-path="url(#a)"><path fill="url(#b)" d="M-236.614 512c0-413.448 335.166-748.614 748.614-748.614S1260.61 98.552 1260.61 512 925.448 1260.61 512 1260.61-236.614 925.448-236.614 512"/><path fill="#32343b" d="M-226.07 512c0-407.625 330.445-738.07 738.07-738.07S1250.07 104.375 1250.07 512 919.625 1250.07 512 1250.07-226.07 919.625-226.07 512"/><path fill="url(#c)" d="M-131.175 512c0-355.216 287.959-643.175 643.175-643.175S1155.18 156.784 1155.18 512 867.216 1155.18 512 1155.18-131.175 867.216-131.175 512"/><path fill="#373942" d="M-120.631 512c0-349.393 283.238-632.631 632.631-632.631S1144.63 162.607 1144.63 512 861.393 1144.63 512 1144.63-120.631 861.393-120.631 512"/><path fill="url(#d)" d="M-25.737 512c0-296.984 240.753-537.737 537.737-537.737S1049.74 215.016 1049.74 512 808.984 1049.74 512 1049.74-25.737 808.984-25.737 512"/><path fill="#3c3f4a" d="M-15.193 512C-15.193 220.839 220.84-15.193 512-15.193S1039.19 220.84 1039.19 512 803.161 1039.19 512 1039.19-15.193 803.161-15.193 512"/><path fill="url(#e)" d="M79.702 512C79.702 273.248 273.248 79.702 512 79.702S944.298 273.248 944.298 512 750.752 944.298 512 944.298 79.702 750.752 79.702 512"/><path fill="#424551" d="M90.246 512C90.246 279.072 279.072 90.246 512 90.246S933.754 279.072 933.754 512 744.928 933.754 512 933.754 90.246 744.928 90.246 512"/><path fill="url(#f)" d="M185.141 512c0-180.52 146.339-326.859 326.859-326.859S838.859 331.48 838.859 512 692.52 838.859 512 838.859 185.141 692.52 185.141 512"/><path fill="#484b58" d="M195.684 512c0-174.696 141.62-316.316 316.316-316.316S828.316 337.304 828.316 512 686.696 828.316 512 828.316 195.684 686.696 195.684 512"/><path fill="url(#g)" d="M290.579 512c0-122.287 99.134-221.421 221.421-221.421S733.421 389.713 733.421 512 634.287 733.421 512 733.421 290.579 634.287 290.579 512"/><path fill="#4d505f" d="M301.123 512c0-116.464 94.413-210.877 210.877-210.877S722.877 395.536 722.877 512 628.464 722.877 512 722.877 301.123 628.464 301.123 512"/></g></svg>