<svg xmlns="http://www.w3.org/2000/svg" xml:space="preserve" stroke-miterlimit="10" style="fill-rule:nonzero;clip-rule:evenodd;stroke-linecap:round;stroke-linejoin:round" viewBox="0 0 1920 1920"><defs><linearGradient id="b" x1="382.126" x2="1593.61" y1="1551.72" y2="324.217" gradientTransform="translate(-2372.35 -3429.43) scale(4.57232)" gradientUnits="userSpaceOnUse"><stop offset="0" stop-color="#ffede5"/><stop offset="1" stop-color="#fffbe4"/></linearGradient><linearGradient id="c" x1="200.954" x2="810.903" y1="318.391" y2="318.391" gradientTransform="matrix(8.45531 0 0 1.42327 -2392.53 -1635.7)" gradientUnits="userSpaceOnUse"><stop offset=".001" stop-color="#ffaf65"/><stop offset="1" stop-color="#ffcb4c"/></linearGradient><linearGradient id="d" x1="200.954" x2="810.903" y1="318.391" y2="318.391" gradientTransform="matrix(10.0702 0 0 1.34241 -3077.73 -1229.88)" gradientUnits="userSpaceOnUse"><stop offset=".001" stop-color="#ffaf65"/><stop offset="1" stop-color="#ffcb4c"/></linearGradient><linearGradient id="e" x1="200.954" x2="810.903" y1="318.391" y2="318.391" gradientTransform="matrix(8.45531 0 0 1.42327 -2392.53 -848.662)" gradientUnits="userSpaceOnUse"><stop offset=".001" stop-color="#ffaf65"/><stop offset="1" stop-color="#ffcb4c"/></linearGradient><linearGradient id="f" x1="200.954" x2="810.903" y1="318.391" y2="318.391" gradientTransform="matrix(10.0702 0 0 1.34241 -3077.73 -442.846)" gradientUnits="userSpaceOnUse"><stop offset=".001" stop-color="#ffaf65"/><stop offset="1" stop-color="#ffcb4c"/></linearGradient><linearGradient id="g" x1="200.954" x2="810.903" y1="318.391" y2="318.391" gradientTransform="matrix(8.45531 0 0 1.42327 -2392.53 -73.662)" gradientUnits="userSpaceOnUse"><stop offset=".001" stop-color="#ffaf65"/><stop offset="1" stop-color="#ffcb4c"/></linearGradient><linearGradient id="h" x1="200.954" x2="810.903" y1="318.391" y2="318.391" gradientTransform="matrix(10.0702 0 0 1.34241 -3077.73 332.153)" gradientUnits="userSpaceOnUse"><stop offset=".001" stop-color="#ffaf65"/><stop offset="1" stop-color="#ffcb4c"/></linearGradient><linearGradient id="i" x1="200.954" x2="810.903" y1="318.391" y2="318.391" gradientTransform="matrix(8.45531 0 0 1.42327 -2392.53 713.375)" gradientUnits="userSpaceOnUse"><stop offset=".001" stop-color="#ffaf65"/><stop offset="1" stop-color="#ffcb4c"/></linearGradient><linearGradient id="j" x1="200.954" x2="810.903" y1="318.391" y2="318.391" gradientTransform="matrix(10.0702 0 0 1.34241 -3077.73 1119.19)" gradientUnits="userSpaceOnUse"><stop offset=".001" stop-color="#ffaf65"/><stop offset="1" stop-color="#ffcb4c"/></linearGradient><linearGradient id="k" x1="200.954" x2="810.903" y1="318.391" y2="318.391" gradientTransform="matrix(8.45531 0 0 1.42327 -2392.53 1489.65)" gradientUnits="userSpaceOnUse"><stop offset=".001" stop-color="#ffaf65"/><stop offset="1" stop-color="#ffcb4c"/></linearGradient><linearGradient id="l" x1="200.954" x2="810.903" y1="318.391" y2="318.391" gradientTransform="matrix(10.0702 0 0 1.34241 -3077.73 1895.47)" gradientUnits="userSpaceOnUse"><stop offset=".001" stop-color="#ffaf65"/><stop offset="1" stop-color="#ffcb4c"/></linearGradient><linearGradient id="m" x1="200.954" x2="810.903" y1="318.391" y2="318.391" gradientTransform="matrix(8.45531 0 0 1.42327 -2392.53 2276.69)" gradientUnits="userSpaceOnUse"><stop offset=".001" stop-color="#ffaf65"/><stop offset="1" stop-color="#ffcb4c"/></linearGradient><linearGradient id="n" x1="200.954" x2="810.903" y1="318.391" y2="318.391" gradientTransform="matrix(10.0702 0 0 1.34241 -3077.73 2682.51)" gradientUnits="userSpaceOnUse"><stop offset=".001" stop-color="#ffaf65"/><stop offset="1" stop-color="#ffcb4c"/></linearGradient></defs><clipPath id="a"><path d="M0 0h1920v1920H0z"/></clipPath><g clip-path="url(#a)"><path fill="url(#b)" d="M-2372.35-3429.43H6406.5v8778.86h-8778.85v-8778.86Z"/><g opacity=".204"><path fill="url(#c)" d="M-689.881-1298.54h22.901v5.23l-14.684 15.33h15.219v5.62h-24.847v-5.43l14.523-15.16h-13.112v-5.59Zm27.402 0h8.11v26.18h-8.11v-26.18Zm13.826 0h10.647l4.108 15.93 4.091-15.93h10.611v26.18h-6.61v-19.97l-5.127 19.97h-5.984l-5.109-19.97v19.97h-6.627v-26.18Zm33.601 13.11c0-4.28 1.191-7.61 3.572-9.99 2.382-2.38 5.699-3.57 9.95-3.57 4.359 0 7.717 1.17 10.075 3.51 2.358 2.34 3.537 5.62 3.537 9.83 0 3.06-.515 5.57-1.545 7.53a11.03 11.03 0 0 1-4.466 4.58c-1.947 1.09-4.373 1.63-7.279 1.63-2.954 0-5.398-.47-7.333-1.41-1.935-.94-3.504-2.43-4.707-4.47-1.203-2.03-1.804-4.58-1.804-7.64Zm8.092.03c0 2.65.491 4.55 1.474 5.7.982 1.16 2.319 1.73 4.01 1.73 1.739 0 3.084-.56 4.037-1.69.953-1.13 1.429-3.16 1.429-6.09 0-2.47-.497-4.27-1.492-5.41-.994-1.13-2.343-1.7-4.046-1.7-1.631 0-2.941.57-3.929 1.73-.989 1.15-1.483 3.07-1.483 5.73Zm83.742-13.14h22.901v5.23L-515-1277.98h15.219v5.62h-24.848v-5.43l14.523-15.16h-13.112v-5.59Zm27.403 0h8.109v26.18h-8.109v-26.18Zm13.826 0h10.646l4.109 15.93 4.09-15.93h10.611v26.18h-6.609v-19.97l-5.127 19.97h-5.984l-5.109-19.97v19.97h-6.627v-26.18Zm33.6 13.11c0-4.28 1.191-7.61 3.573-9.99 2.382-2.38 5.698-3.57 9.95-3.57 4.358 0 7.717 1.17 10.075 3.51 2.358 2.34 3.537 5.62 3.537 9.83 0 3.06-.516 5.57-1.546 7.53a11.027 11.027 0 0 1-4.465 4.58c-1.948 1.09-4.374 1.63-7.28 1.63-2.953 0-5.397-.47-7.333-1.41-1.935-.94-3.504-2.43-4.706-4.47-1.203-2.03-1.805-4.58-1.805-7.64Zm8.092.03c0 2.65.492 4.55 1.474 5.7.983 1.16 2.319 1.73 4.01 1.73 1.739 0 3.085-.56 4.037-1.69.953-1.13 1.43-3.16 1.43-6.09 0-2.47-.498-4.27-1.492-5.41-.994-1.13-2.343-1.7-4.046-1.7-1.632 0-2.942.57-3.93 1.73-.988 1.15-1.483 3.07-1.483 5.73Zm83.743-13.14h22.901v5.23l-14.684 15.33h15.219v5.62h-24.847v-5.43l14.523-15.16h-13.112v-5.59Zm27.402 0h8.11v26.18h-8.11v-26.18Zm13.826 0h10.647l4.108 15.93 4.091-15.93h10.611v26.18h-6.61v-19.97l-5.127 19.97h-5.984l-5.109-19.97v19.97h-6.627v-26.18Zm33.601 13.11c0-4.28 1.191-7.61 3.573-9.99 2.381-2.38 5.698-3.57 9.949-3.57 4.359 0 7.717 1.17 10.075 3.51 2.358 2.34 3.537 5.62 3.537 9.83 0 3.06-.515 5.57-1.545 7.53a11.03 11.03 0 0 1-4.466 4.58c-1.947 1.09-4.373 1.63-7.279 1.63-2.954 0-5.398-.47-7.333-1.41-1.935-.94-3.504-2.43-4.707-4.47-1.203-2.03-1.804-4.58-1.804-7.64Zm8.092.03c0 2.65.491 4.55 1.474 5.7.982 1.16 2.319 1.73 4.01 1.73 1.739 0 3.084-.56 4.037-1.69.953-1.13 1.429-3.16 1.429-6.09 0-2.47-.497-4.27-1.492-5.41-.994-1.13-2.343-1.7-4.046-1.7-1.631 0-2.941.57-3.929 1.73-.989 1.15-1.483 3.07-1.483 5.73Zm83.742-13.14h22.901v5.23l-14.683 15.33h15.219v5.62h-24.848v-5.43l14.523-15.16h-13.112v-5.59Zm27.403 0h8.11v26.18h-8.11v-26.18Zm13.826 0h10.646l4.109 15.93 4.09-15.93h10.611v26.18h-6.609v-19.97l-5.127 19.97h-5.984l-5.109-19.97v19.97h-6.627v-26.18Zm33.6 13.11c0-4.28 1.191-7.61 3.573-9.99 2.382-2.38 5.698-3.57 9.95-3.57 4.358 0 7.717 1.17 10.075 3.51 2.358 2.34 3.537 5.62 3.537 9.83 0 3.06-.515 5.57-1.546 7.53a11.029 11.029 0 0 1-4.465 4.58c-1.947 1.09-4.374 1.63-7.28 1.63-2.953 0-5.397-.47-7.332-1.41-1.936-.94-3.505-2.43-4.707-4.47-1.203-2.03-1.805-4.58-1.805-7.64Zm8.092.03c0 2.65.492 4.55 1.474 5.7.983 1.16 2.319 1.73 4.01 1.73 1.74 0 3.085-.56 4.038-1.69.952-1.13 1.428-3.16 1.428-6.09 0-2.47-.497-4.27-1.491-5.41-.994-1.13-2.343-1.7-4.046-1.7-1.632 0-2.942.57-3.93 1.73-.988 1.15-1.483 3.07-1.483 5.73Zm83.743-13.14h22.9v5.23l-14.683 15.33H.21v5.62h-24.848v-5.43l14.523-15.16h-13.112v-5.59Zm27.402 0h8.11v26.18h-8.11v-26.18Zm13.826 0h10.647l4.108 15.93 4.09-15.93h10.612v26.18h-6.61v-19.97l-5.127 19.97h-5.984l-5.108-19.97v19.97H18v-26.18Zm33.601 13.11c0-4.28 1.19-7.61 3.573-9.99 2.381-2.38 5.698-3.57 9.95-3.57 4.358 0 7.716 1.17 10.074 3.51 2.358 2.34 3.537 5.62 3.537 9.83 0 3.06-.515 5.57-1.545 7.53a11.029 11.029 0 0 1-4.466 4.58c-1.947 1.09-4.373 1.63-7.28 1.63-2.952 0-5.397-.47-7.332-1.41-1.935-.94-3.504-2.43-4.707-4.47-1.203-2.03-1.804-4.58-1.804-7.64Zm8.092.03c0 2.65.491 4.55 1.474 5.7.982 1.16 2.319 1.73 4.01 1.73 1.739 0 3.084-.56 4.037-1.69.953-1.13 1.429-3.16 1.429-6.09 0-2.47-.497-4.27-1.492-5.41-.994-1.13-2.343-1.7-4.046-1.7-1.631 0-2.941.57-3.93 1.73-.988 1.15-1.482 3.07-1.482 5.73Zm83.743-13.14h22.9v5.23l-14.683 15.33h15.219v5.62h-24.848v-5.43l14.523-15.16h-13.111v-5.59Zm27.402 0h8.11v26.18h-8.11v-26.18Zm13.826 0h10.646l4.109 15.93 4.09-15.93h10.611v26.18h-6.609v-19.97l-5.127 19.97h-5.984l-5.109-19.97v19.97h-6.627v-26.18Zm33.6 13.11c0-4.28 1.191-7.61 3.573-9.99 2.382-2.38 5.698-3.57 9.95-3.57 4.358 0 7.717 1.17 10.075 3.51 2.358 2.34 3.537 5.62 3.537 9.83 0 3.06-.515 5.57-1.546 7.53a11.027 11.027 0 0 1-4.465 4.58c-1.947 1.09-4.374 1.63-7.28 1.63-2.953 0-5.397-.47-7.332-1.41-1.936-.94-3.505-2.43-4.707-4.47-1.203-2.03-1.805-4.58-1.805-7.64Zm8.092.03c0 2.65.492 4.55 1.474 5.7.983 1.16 2.319 1.73 4.01 1.73 1.739 0 3.085-.56 4.038-1.69.952-1.13 1.429-3.16 1.429-6.09 0-2.47-.498-4.27-1.492-5.41-.994-1.13-2.343-1.7-4.046-1.7-1.632 0-2.941.57-3.93 1.73-.988 1.15-1.483 3.07-1.483 5.73Zm83.743-13.14h22.901v5.23l-14.684 15.33h15.22v5.62h-24.848v-5.43l14.523-15.16H310.1v-5.59Zm27.402 0h8.11v26.18h-8.11v-26.18Zm13.826 0h10.647l4.108 15.93 4.091-15.93h10.611v26.18h-6.61v-19.97l-5.126 19.97h-5.985l-5.108-19.97v19.97h-6.628v-26.18Zm33.601 13.11c0-4.28 1.191-7.61 3.573-9.99 2.381-2.38 5.698-3.57 9.949-3.57 4.359 0 7.717 1.17 10.075 3.51 2.358 2.34 3.537 5.62 3.537 9.83 0 3.06-.515 5.57-1.545 7.53a11.03 11.03 0 0 1-4.466 4.58c-1.947 1.09-4.373 1.63-7.279 1.63-2.953 0-5.398-.47-7.333-1.41-1.935-.94-3.504-2.43-4.707-4.47-1.203-2.03-1.804-4.58-1.804-7.64Zm8.092.03c0 2.65.491 4.55 1.474 5.7.982 1.16 2.319 1.73 4.01 1.73 1.739 0 3.084-.56 4.037-1.69.953-1.13 1.429-3.16 1.429-6.09 0-2.47-.497-4.27-1.491-5.41-.995-1.13-2.344-1.7-4.047-1.7-1.631 0-2.941.57-3.929 1.73-.989 1.15-1.483 3.07-1.483 5.73Z" opacity="1"/><path fill="url(#d)" d="M-1050.56-911.098h22.9v5.234l-14.68 15.327h15.22v5.627h-24.85v-5.431l14.52-15.166h-13.11v-5.591Zm27.4 0h8.11v26.188h-8.11v-26.188Zm13.83 0h10.647l4.108 15.934 4.091-15.934h10.611v26.188h-6.61v-19.972l-5.126 19.972h-5.985l-5.106-19.972v19.972h-6.63v-26.188Zm33.601 13.112c0-4.276 1.191-7.604 3.573-9.986 2.381-2.382 5.698-3.572 9.949-3.572 4.359 0 7.717 1.17 10.075 3.51 2.358 2.34 3.537 5.618 3.537 9.833 0 3.061-.515 5.571-1.545 7.53-1.03 1.959-2.519 3.483-4.466 4.573-1.947 1.089-4.373 1.634-7.279 1.634-2.953 0-5.398-.47-7.333-1.411-1.935-.941-3.504-2.429-4.707-4.466-1.203-2.036-1.804-4.585-1.804-7.645Zm8.092.035c0 2.644.491 4.544 1.474 5.699.982 1.155 2.319 1.732 4.01 1.732 1.739 0 3.084-.565 4.037-1.697.953-1.131 1.429-3.161 1.429-6.091 0-2.465-.497-4.266-1.491-5.403-.995-1.138-2.344-1.706-4.046-1.706-1.632 0-2.942.577-3.93 1.732-.989 1.155-1.483 3.067-1.483 5.734Zm83.743-13.147h22.9v5.234l-14.683 15.327h15.219v5.627h-24.848v-5.431l14.523-15.166h-13.111v-5.591Zm27.402 0h8.11v26.188h-8.11v-26.188Zm13.826 0h10.646l4.109 15.934 4.09-15.934h10.611v26.188h-6.609v-19.972l-5.127 19.972h-5.984l-5.109-19.972v19.972h-6.627v-26.188Zm33.6 13.112c0-4.276 1.191-7.604 3.573-9.986 2.382-2.382 5.698-3.572 9.95-3.572 4.359 0 7.717 1.17 10.075 3.51 2.358 2.34 3.537 5.618 3.537 9.833 0 3.061-.515 5.571-1.546 7.53-1.03 1.959-2.518 3.483-4.465 4.573-1.947 1.089-4.374 1.634-7.28 1.634-2.953 0-5.397-.47-7.332-1.411-1.936-.941-3.505-2.429-4.707-4.466-1.203-2.036-1.805-4.585-1.805-7.645Zm8.092.035c0 2.644.492 4.544 1.474 5.699.983 1.155 2.319 1.732 4.01 1.732 1.739 0 3.085-.565 4.038-1.697.952-1.131 1.429-3.161 1.429-6.091 0-2.465-.498-4.266-1.492-5.403-.994-1.138-2.343-1.706-4.046-1.706-1.631 0-2.941.577-3.93 1.732-.988 1.155-1.483 3.067-1.483 5.734Zm83.743-13.147h22.901v5.234l-14.684 15.327h15.22v5.627h-24.848v-5.431l14.523-15.166h-13.112v-5.591Zm27.402 0h8.11v26.188h-8.11v-26.188Zm13.826 0h10.647l4.108 15.934 4.091-15.934h10.611v26.188h-6.61v-19.972l-5.126 19.972h-5.985l-5.108-19.972v19.972h-6.628v-26.188Zm33.601 13.112c0-4.276 1.191-7.604 3.573-9.986 2.381-2.382 5.698-3.572 9.949-3.572 4.359 0 7.717 1.17 10.075 3.51 2.358 2.34 3.537 5.618 3.537 9.833 0 3.061-.515 5.571-1.545 7.53-1.03 1.959-2.519 3.483-4.466 4.573-1.947 1.089-4.373 1.634-7.279 1.634-2.953 0-5.398-.47-7.333-1.411-1.935-.941-3.504-2.429-4.707-4.466-1.203-2.036-1.804-4.585-1.804-7.645Zm8.092.035c0 2.644.491 4.544 1.474 5.699.982 1.155 2.319 1.732 4.01 1.732 1.739 0 3.084-.565 4.037-1.697.953-1.131 1.429-3.161 1.429-6.091 0-2.465-.497-4.266-1.491-5.403-.995-1.138-2.343-1.706-4.046-1.706-1.632 0-2.942.577-3.93 1.732-.989 1.155-1.483 3.067-1.483 5.734Zm83.743-13.147h22.9v5.234l-14.683 15.327h15.219v5.627h-24.848v-5.431l14.523-15.166h-13.111v-5.591Zm27.402 0h8.11v26.188h-8.11v-26.188Zm13.826 0h10.646l4.109 15.934 4.091-15.934h10.61v26.188h-6.609v-19.972l-5.127 19.972h-5.984l-5.109-19.972v19.972h-6.627v-26.188Zm33.6 13.112c0-4.276 1.191-7.604 3.573-9.986 2.382-2.382 5.698-3.572 9.95-3.572 4.359 0 7.717 1.17 10.075 3.51 2.358 2.34 3.537 5.618 3.537 9.833 0 3.061-.515 5.571-1.545 7.53-1.031 1.959-2.519 3.483-4.466 4.573-1.947 1.089-4.374 1.634-7.28 1.634-2.953 0-5.397-.47-7.332-1.411-1.936-.941-3.505-2.429-4.707-4.466-1.203-2.036-1.805-4.585-1.805-7.645Zm8.093.035c0 2.644.491 4.544 1.473 5.699.983 1.155 2.319 1.732 4.011 1.732 1.738 0 3.084-.565 4.037-1.697.952-1.131 1.429-3.161 1.429-6.091 0-2.465-.498-4.266-1.492-5.403-.994-1.138-2.343-1.706-4.046-1.706-1.631 0-2.941.577-3.93 1.732-.988 1.155-1.482 3.067-1.482 5.734Zm83.742-13.147h22.901v5.234l-14.684 15.327h15.22v5.627h-24.848v-5.431l14.523-15.166h-13.112v-5.591Zm27.402 0h8.11v26.188h-8.11v-26.188Zm13.826 0h10.647l4.108 15.934 4.091-15.934h10.611v26.188h-6.61v-19.972l-5.126 19.972h-5.985l-5.108-19.972v19.972h-6.628v-26.188Zm33.601 13.112c0-4.276 1.191-7.604 3.573-9.986 2.381-2.382 5.698-3.572 9.949-3.572 4.359 0 7.717 1.17 10.075 3.51 2.358 2.34 3.537 5.618 3.537 9.833 0 3.061-.515 5.571-1.545 7.53-1.03 1.959-2.519 3.483-4.466 4.573-1.947 1.089-4.373 1.634-7.279 1.634-2.953 0-5.398-.47-7.333-1.411-1.935-.941-3.504-2.429-4.707-4.466-1.203-2.036-1.804-4.585-1.804-7.645Zm8.092.035c0 2.644.491 4.544 1.474 5.699.982 1.155 2.319 1.732 4.01 1.732 1.739 0 3.084-.565 4.037-1.697.953-1.131 1.429-3.161 1.429-6.091 0-2.465-.497-4.266-1.491-5.403-.995-1.138-2.343-1.706-4.046-1.706-1.632 0-2.942.577-3.93 1.732-.989 1.155-1.483 3.067-1.483 5.734Zm83.743-13.147h22.9v5.234l-14.683 15.327h15.219v5.627h-24.848v-5.431l14.523-15.166h-13.111v-5.591Zm27.402 0h8.11v26.188h-8.11v-26.188Zm13.826 0h10.646l4.109 15.934 4.091-15.934h10.61v26.188h-6.609v-19.972l-5.127 19.972h-5.984l-5.109-19.972v19.972h-6.627v-26.188Zm33.601 13.112c0-4.276 1.19-7.604 3.572-9.986 2.382-2.382 5.699-3.572 9.95-3.572 4.359 0 7.717 1.17 10.075 3.51 2.358 2.34 3.537 5.618 3.537 9.833 0 3.061-.515 5.571-1.545 7.53-1.031 1.959-2.519 3.483-4.466 4.573-1.947 1.089-4.374 1.634-7.28 1.634-2.953 0-5.397-.47-7.332-1.411-1.936-.941-3.505-2.429-4.707-4.466-1.203-2.036-1.804-4.585-1.804-7.645Zm8.092.035c0 2.644.491 4.544 1.473 5.699.983 1.155 2.32 1.732 4.011 1.732 1.738 0 3.084-.565 4.037-1.697.952-1.131 1.429-3.161 1.429-6.091 0-2.465-.498-4.266-1.492-5.403-.994-1.138-2.343-1.706-4.046-1.706-1.631 0-2.941.577-3.93 1.732-.988 1.155-1.482 3.067-1.482 5.734Zm83.742-13.147h22.9v5.234l-14.683 15.327h15.22v5.627h-24.848v-5.431l14.523-15.166h-13.112v-5.591Zm27.402 0h8.11v26.188h-8.11v-26.188Zm13.826 0H1.298l4.108 15.934 4.091-15.934h10.61v26.188h-6.609v-19.972L8.372-884.91H2.388l-5.11-19.972v19.972h-6.627v-26.188Zm33.601 13.112c0-4.276 1.19-7.604 3.573-9.986 2.381-2.382 5.698-3.572 9.95-3.572 4.358 0 7.716 1.17 10.074 3.51 2.358 2.34 3.537 5.618 3.537 9.833 0 3.061-.515 5.571-1.545 7.53-1.03 1.959-2.519 3.483-4.466 4.573-1.947 1.089-4.373 1.634-7.279 1.634-2.953 0-5.398-.47-7.333-1.411-1.935-.941-3.504-2.429-4.707-4.466-1.203-2.036-1.804-4.585-1.804-7.645Zm8.092.035c0 2.644.491 4.544 1.474 5.699.982 1.155 2.319 1.732 4.01 1.732 1.739 0 3.084-.565 4.037-1.697.953-1.131 1.43-3.161 1.43-6.091 0-2.465-.498-4.266-1.492-5.403-.995-1.138-2.343-1.706-4.046-1.706-1.632 0-2.942.577-3.93 1.732-.989 1.155-1.483 3.067-1.483 5.734Zm83.743-13.147h22.9v5.234l-14.683 15.327h15.219v5.627h-24.848v-5.431l14.523-15.166h-13.111v-5.591Zm27.402 0h8.11v26.188h-8.11v-26.188Zm13.826 0h10.646l4.109 15.934 4.091-15.934h10.61v26.188h-6.609v-19.972l-5.127 19.972h-5.984l-5.109-19.972v19.972h-6.627v-26.188Zm33.601 13.112c0-4.276 1.19-7.604 3.572-9.986 2.382-2.382 5.699-3.572 9.95-3.572 4.359 0 7.717 1.17 10.075 3.51 2.358 2.34 3.537 5.618 3.537 9.833 0 3.061-.515 5.571-1.545 7.53-1.031 1.959-2.519 3.483-4.466 4.573-1.947 1.089-4.374 1.634-7.279 1.634-2.954 0-5.398-.47-7.333-1.411-1.935-.941-3.504-2.429-4.707-4.466-1.203-2.036-1.804-4.585-1.804-7.645Zm8.092.035c0 2.644.491 4.544 1.473 5.699.983 1.155 2.32 1.732 4.011 1.732 1.738 0 3.084-.565 4.037-1.697.952-1.131 1.429-3.161 1.429-6.091 0-2.465-.497-4.266-1.492-5.403-.994-1.138-2.343-1.706-4.046-1.706-1.631 0-2.941.577-3.93 1.732-.988 1.155-1.482 3.067-1.482 5.734Z" opacity="1"/><path fill="url(#e)" d="M-689.881-511.507h22.901v5.234l-14.684 15.327h15.219v5.627h-24.847v-5.431l14.523-15.166h-13.112v-5.591Zm27.402 0h8.11v26.188h-8.11v-26.188Zm13.826 0h10.647l4.108 15.934 4.091-15.934h10.611v26.188h-6.61v-19.971l-5.127 19.971h-5.984l-5.109-19.971v19.971h-6.627v-26.188Zm33.601 13.112c0-4.275 1.191-7.604 3.572-9.986 2.382-2.381 5.699-3.572 9.95-3.572 4.359 0 7.717 1.17 10.075 3.51 2.358 2.34 3.537 5.618 3.537 9.833 0 3.061-.515 5.571-1.545 7.53-1.03 1.959-2.519 3.483-4.466 4.573-1.947 1.089-4.373 1.634-7.279 1.634-2.954 0-5.398-.47-7.333-1.411-1.935-.941-3.504-2.429-4.707-4.466-1.203-2.036-1.804-4.585-1.804-7.645Zm8.092.036c0 2.643.491 4.543 1.474 5.698.982 1.155 2.319 1.733 4.01 1.733 1.739 0 3.084-.566 4.037-1.697.953-1.132 1.429-3.162 1.429-6.092 0-2.465-.497-4.266-1.492-5.403-.994-1.138-2.343-1.706-4.046-1.706-1.631 0-2.941.577-3.929 1.732-.989 1.156-1.483 3.067-1.483 5.735Zm83.742-13.148h22.901v5.234L-515-490.946h15.219v5.627h-24.848v-5.431l14.523-15.166h-13.112v-5.591Zm27.403 0h8.109v26.188h-8.109v-26.188Zm13.826 0h10.646l4.109 15.934 4.09-15.934h10.611v26.188h-6.609v-19.971l-5.127 19.971h-5.984l-5.109-19.971v19.971h-6.627v-26.188Zm33.6 13.112c0-4.275 1.191-7.604 3.573-9.986 2.382-2.381 5.698-3.572 9.95-3.572 4.358 0 7.717 1.17 10.075 3.51 2.358 2.34 3.537 5.618 3.537 9.833 0 3.061-.516 5.571-1.546 7.53-1.03 1.959-2.518 3.483-4.465 4.573-1.948 1.089-4.374 1.634-7.28 1.634-2.953 0-5.397-.47-7.333-1.411-1.935-.941-3.504-2.429-4.706-4.466-1.203-2.036-1.805-4.585-1.805-7.645Zm8.092.036c0 2.643.492 4.543 1.474 5.698.983 1.155 2.319 1.733 4.01 1.733 1.739 0 3.085-.566 4.037-1.697.953-1.132 1.43-3.162 1.43-6.092 0-2.465-.498-4.266-1.492-5.403-.994-1.138-2.343-1.706-4.046-1.706-1.632 0-2.942.577-3.93 1.732-.988 1.156-1.483 3.067-1.483 5.735Zm83.743-13.148h22.901v5.234l-14.684 15.327h15.219v5.627h-24.847v-5.431l14.523-15.166h-13.112v-5.591Zm27.402 0h8.11v26.188h-8.11v-26.188Zm13.826 0h10.647l4.108 15.934 4.091-15.934h10.611v26.188h-6.61v-19.971l-5.127 19.971h-5.984l-5.109-19.971v19.971h-6.627v-26.188Zm33.601 13.112c0-4.275 1.191-7.604 3.573-9.986 2.381-2.381 5.698-3.572 9.949-3.572 4.359 0 7.717 1.17 10.075 3.51 2.358 2.34 3.537 5.618 3.537 9.833 0 3.061-.515 5.571-1.545 7.53-1.03 1.959-2.519 3.483-4.466 4.573-1.947 1.089-4.373 1.634-7.279 1.634-2.954 0-5.398-.47-7.333-1.411-1.935-.941-3.504-2.429-4.707-4.466-1.203-2.036-1.804-4.585-1.804-7.645Zm8.092.036c0 2.643.491 4.543 1.474 5.698.982 1.155 2.319 1.733 4.01 1.733 1.739 0 3.084-.566 4.037-1.697.953-1.132 1.429-3.162 1.429-6.092 0-2.465-.497-4.266-1.492-5.403-.994-1.138-2.343-1.706-4.046-1.706-1.631 0-2.941.577-3.929 1.732-.989 1.156-1.483 3.067-1.483 5.735Zm83.742-13.148h22.901v5.234l-14.683 15.327h15.219v5.627h-24.848v-5.431l14.523-15.166h-13.112v-5.591Zm27.403 0h8.11v26.188h-8.11v-26.188Zm13.826 0h10.646l4.109 15.934 4.09-15.934h10.611v26.188h-6.609v-19.971l-5.127 19.971h-5.984l-5.109-19.971v19.971h-6.627v-26.188Zm33.6 13.112c0-4.275 1.191-7.604 3.573-9.986 2.382-2.381 5.698-3.572 9.95-3.572 4.358 0 7.717 1.17 10.075 3.51 2.358 2.34 3.537 5.618 3.537 9.833 0 3.061-.515 5.571-1.546 7.53-1.03 1.959-2.518 3.483-4.465 4.573-1.947 1.089-4.374 1.634-7.28 1.634-2.953 0-5.397-.47-7.332-1.411-1.936-.941-3.505-2.429-4.707-4.466-1.203-2.036-1.805-4.585-1.805-7.645Zm8.092.036c0 2.643.492 4.543 1.474 5.698.983 1.155 2.319 1.733 4.01 1.733 1.74 0 3.085-.566 4.038-1.697.952-1.132 1.428-3.162 1.428-6.092 0-2.465-.497-4.266-1.491-5.403-.994-1.138-2.343-1.706-4.046-1.706-1.632 0-2.942.577-3.93 1.732-.988 1.156-1.483 3.067-1.483 5.735Zm83.743-13.148h22.9v5.234l-14.683 15.327H.21v5.627h-24.848v-5.431l14.523-15.166h-13.112v-5.591Zm27.402 0h8.11v26.188h-8.11v-26.188Zm13.826 0h10.647l4.108 15.934 4.09-15.934h10.612v26.188h-6.61v-19.971l-5.127 19.971h-5.984L24.63-505.29v19.971H18v-26.188Zm33.601 13.112c0-4.275 1.19-7.604 3.573-9.986 2.381-2.381 5.698-3.572 9.95-3.572 4.358 0 7.716 1.17 10.074 3.51 2.358 2.34 3.537 5.618 3.537 9.833 0 3.061-.515 5.571-1.545 7.53-1.03 1.959-2.519 3.483-4.466 4.573-1.947 1.089-4.373 1.634-7.28 1.634-2.952 0-5.397-.47-7.332-1.411-1.935-.941-3.504-2.429-4.707-4.466-1.203-2.036-1.804-4.585-1.804-7.645Zm8.092.036c0 2.643.491 4.543 1.474 5.698.982 1.155 2.319 1.733 4.01 1.733 1.739 0 3.084-.566 4.037-1.697.953-1.132 1.429-3.162 1.429-6.092 0-2.465-.497-4.266-1.492-5.403-.994-1.138-2.343-1.706-4.046-1.706-1.631 0-2.941.577-3.93 1.732-.988 1.156-1.482 3.067-1.482 5.735Zm83.743-13.148h22.9v5.234l-14.683 15.327h15.219v5.627h-24.848v-5.431l14.523-15.166h-13.111v-5.591Zm27.402 0h8.11v26.188h-8.11v-26.188Zm13.826 0h10.646l4.109 15.934 4.09-15.934h10.611v26.188h-6.609v-19.971l-5.127 19.971h-5.984l-5.109-19.971v19.971h-6.627v-26.188Zm33.6 13.112c0-4.275 1.191-7.604 3.573-9.986 2.382-2.381 5.698-3.572 9.95-3.572 4.358 0 7.717 1.17 10.075 3.51 2.358 2.34 3.537 5.618 3.537 9.833 0 3.061-.515 5.571-1.546 7.53-1.03 1.959-2.518 3.483-4.465 4.573-1.947 1.089-4.374 1.634-7.28 1.634-2.953 0-5.397-.47-7.332-1.411-1.936-.941-3.505-2.429-4.707-4.466-1.203-2.036-1.805-4.585-1.805-7.645Zm8.092.036c0 2.643.492 4.543 1.474 5.698.983 1.155 2.319 1.733 4.01 1.733 1.739 0 3.085-.566 4.038-1.697.952-1.132 1.429-3.162 1.429-6.092 0-2.465-.498-4.266-1.492-5.403-.994-1.138-2.343-1.706-4.046-1.706-1.632 0-2.941.577-3.93 1.732-.988 1.156-1.483 3.067-1.483 5.735Zm83.743-13.148h22.901v5.234l-14.684 15.327h15.22v5.627h-24.848v-5.431l14.523-15.166H310.1v-5.591Zm27.402 0h8.11v26.188h-8.11v-26.188Zm13.826 0h10.647l4.108 15.934 4.091-15.934h10.611v26.188h-6.61v-19.971l-5.126 19.971h-5.985l-5.108-19.971v19.971h-6.628v-26.188Zm33.601 13.112c0-4.275 1.191-7.604 3.573-9.986 2.381-2.381 5.698-3.572 9.949-3.572 4.359 0 7.717 1.17 10.075 3.51 2.358 2.34 3.537 5.618 3.537 9.833 0 3.061-.515 5.571-1.545 7.53-1.03 1.959-2.519 3.483-4.466 4.573-1.947 1.089-4.373 1.634-7.279 1.634-2.953 0-5.398-.47-7.333-1.411-1.935-.941-3.504-2.429-4.707-4.466-1.203-2.036-1.804-4.585-1.804-7.645Zm8.092.036c0 2.643.491 4.543 1.474 5.698.982 1.155 2.319 1.733 4.01 1.733 1.739 0 3.084-.566 4.037-1.697.953-1.132 1.429-3.162 1.429-6.092 0-2.465-.497-4.266-1.491-5.403-.995-1.138-2.344-1.706-4.047-1.706-1.631 0-2.941.577-3.929 1.732-.989 1.156-1.483 3.067-1.483 5.735Z" opacity="1"/><path fill="url(#f)" d="M-1050.56-124.061h22.9v5.234l-14.68 15.326h15.22v5.627h-24.85v-5.43l14.52-15.166h-13.11v-5.591Zm27.4 0h8.11v26.187h-8.11v-26.187Zm13.83 0h10.647l4.108 15.934 4.091-15.934h10.611v26.187h-6.61v-19.971l-5.126 19.971h-5.985l-5.106-19.971v19.971h-6.63v-26.187Zm33.601 13.112c0-4.276 1.191-7.604 3.573-9.986 2.381-2.382 5.698-3.573 9.949-3.573 4.359 0 7.717 1.17 10.075 3.51 2.358 2.341 3.537 5.618 3.537 9.834 0 3.061-.515 5.57-1.545 7.529-1.03 1.959-2.519 3.484-4.466 4.574-1.947 1.09-4.373 1.634-7.279 1.634-2.953 0-5.398-.47-7.333-1.411-1.935-.941-3.504-2.43-4.707-4.466-1.203-2.036-1.804-4.585-1.804-7.645Zm8.092.035c0 2.644.491 4.543 1.474 5.699.982 1.155 2.319 1.732 4.01 1.732 1.739 0 3.084-.565 4.037-1.697.953-1.131 1.429-3.161 1.429-6.091 0-2.465-.497-4.266-1.491-5.404-.995-1.137-2.344-1.706-4.046-1.706-1.632 0-2.942.578-3.93 1.733-.989 1.155-1.483 3.067-1.483 5.734Zm83.743-13.147h22.9v5.234l-14.683 15.326h15.219v5.627h-24.848v-5.43l14.523-15.166h-13.111v-5.591Zm27.402 0h8.11v26.187h-8.11v-26.187Zm13.826 0h10.646l4.109 15.934 4.09-15.934h10.611v26.187h-6.609v-19.971l-5.127 19.971h-5.984l-5.109-19.971v19.971h-6.627v-26.187Zm33.6 13.112c0-4.276 1.191-7.604 3.573-9.986 2.382-2.382 5.698-3.573 9.95-3.573 4.359 0 7.717 1.17 10.075 3.51 2.358 2.341 3.537 5.618 3.537 9.834 0 3.061-.515 5.57-1.546 7.529-1.03 1.959-2.518 3.484-4.465 4.574-1.947 1.09-4.374 1.634-7.28 1.634-2.953 0-5.397-.47-7.332-1.411-1.936-.941-3.505-2.43-4.707-4.466-1.203-2.036-1.805-4.585-1.805-7.645Zm8.092.035c0 2.644.492 4.543 1.474 5.699.983 1.155 2.319 1.732 4.01 1.732 1.739 0 3.085-.565 4.038-1.697.952-1.131 1.429-3.161 1.429-6.091 0-2.465-.498-4.266-1.492-5.404-.994-1.137-2.343-1.706-4.046-1.706-1.631 0-2.941.578-3.93 1.733-.988 1.155-1.483 3.067-1.483 5.734Zm83.743-13.147h22.901v5.234l-14.684 15.326h15.22v5.627h-24.848v-5.43l14.523-15.166h-13.112v-5.591Zm27.402 0h8.11v26.187h-8.11v-26.187Zm13.826 0h10.647l4.108 15.934 4.091-15.934h10.611v26.187h-6.61v-19.971l-5.126 19.971h-5.985l-5.108-19.971v19.971h-6.628v-26.187Zm33.601 13.112c0-4.276 1.191-7.604 3.573-9.986 2.381-2.382 5.698-3.573 9.949-3.573 4.359 0 7.717 1.17 10.075 3.51 2.358 2.341 3.537 5.618 3.537 9.834 0 3.061-.515 5.57-1.545 7.529-1.03 1.959-2.519 3.484-4.466 4.574-1.947 1.09-4.373 1.634-7.279 1.634-2.953 0-5.398-.47-7.333-1.411-1.935-.941-3.504-2.43-4.707-4.466-1.203-2.036-1.804-4.585-1.804-7.645Zm8.092.035c0 2.644.491 4.543 1.474 5.699.982 1.155 2.319 1.732 4.01 1.732 1.739 0 3.084-.565 4.037-1.697.953-1.131 1.429-3.161 1.429-6.091 0-2.465-.497-4.266-1.491-5.404-.995-1.137-2.343-1.706-4.046-1.706-1.632 0-2.942.578-3.93 1.733-.989 1.155-1.483 3.067-1.483 5.734Zm83.743-13.147h22.9v5.234l-14.683 15.326h15.219v5.627h-24.848v-5.43l14.523-15.166h-13.111v-5.591Zm27.402 0h8.11v26.187h-8.11v-26.187Zm13.826 0h10.646l4.109 15.934 4.091-15.934h10.61v26.187h-6.609v-19.971l-5.127 19.971h-5.984l-5.109-19.971v19.971h-6.627v-26.187Zm33.6 13.112c0-4.276 1.191-7.604 3.573-9.986 2.382-2.382 5.698-3.573 9.95-3.573 4.359 0 7.717 1.17 10.075 3.51 2.358 2.341 3.537 5.618 3.537 9.834 0 3.061-.515 5.57-1.545 7.529-1.031 1.959-2.519 3.484-4.466 4.574-1.947 1.09-4.374 1.634-7.28 1.634-2.953 0-5.397-.47-7.332-1.411-1.936-.941-3.505-2.43-4.707-4.466-1.203-2.036-1.805-4.585-1.805-7.645Zm8.093.035c0 2.644.491 4.543 1.473 5.699.983 1.155 2.319 1.732 4.011 1.732 1.738 0 3.084-.565 4.037-1.697.952-1.131 1.429-3.161 1.429-6.091 0-2.465-.498-4.266-1.492-5.404-.994-1.137-2.343-1.706-4.046-1.706-1.631 0-2.941.578-3.93 1.733-.988 1.155-1.482 3.067-1.482 5.734Zm83.742-13.147h22.901v5.234l-14.684 15.326h15.22v5.627h-24.848v-5.43l14.523-15.166h-13.112v-5.591Zm27.402 0h8.11v26.187h-8.11v-26.187Zm13.826 0h10.647l4.108 15.934 4.091-15.934h10.611v26.187h-6.61v-19.971l-5.126 19.971h-5.985l-5.108-19.971v19.971h-6.628v-26.187Zm33.601 13.112c0-4.276 1.191-7.604 3.573-9.986 2.381-2.382 5.698-3.573 9.949-3.573 4.359 0 7.717 1.17 10.075 3.51 2.358 2.341 3.537 5.618 3.537 9.834 0 3.061-.515 5.57-1.545 7.529-1.03 1.959-2.519 3.484-4.466 4.574-1.947 1.09-4.373 1.634-7.279 1.634-2.953 0-5.398-.47-7.333-1.411-1.935-.941-3.504-2.43-4.707-4.466-1.203-2.036-1.804-4.585-1.804-7.645Zm8.092.035c0 2.644.491 4.543 1.474 5.699.982 1.155 2.319 1.732 4.01 1.732 1.739 0 3.084-.565 4.037-1.697.953-1.131 1.429-3.161 1.429-6.091 0-2.465-.497-4.266-1.491-5.404-.995-1.137-2.343-1.706-4.046-1.706-1.632 0-2.942.578-3.93 1.733-.989 1.155-1.483 3.067-1.483 5.734Zm83.743-13.147h22.9v5.234l-14.683 15.326h15.219v5.627h-24.848v-5.43l14.523-15.166h-13.111v-5.591Zm27.402 0h8.11v26.187h-8.11v-26.187Zm13.826 0h10.646l4.109 15.934 4.091-15.934h10.61v26.187h-6.609v-19.971l-5.127 19.971h-5.984l-5.109-19.971v19.971h-6.627v-26.187Zm33.601 13.112c0-4.276 1.19-7.604 3.572-9.986 2.382-2.382 5.699-3.573 9.95-3.573 4.359 0 7.717 1.17 10.075 3.51 2.358 2.341 3.537 5.618 3.537 9.834 0 3.061-.515 5.57-1.545 7.529-1.031 1.959-2.519 3.484-4.466 4.574-1.947 1.09-4.374 1.634-7.28 1.634-2.953 0-5.397-.47-7.332-1.411-1.936-.941-3.505-2.43-4.707-4.466-1.203-2.036-1.804-4.585-1.804-7.645Zm8.092.035c0 2.644.491 4.543 1.473 5.699.983 1.155 2.32 1.732 4.011 1.732 1.738 0 3.084-.565 4.037-1.697.952-1.131 1.429-3.161 1.429-6.091 0-2.465-.498-4.266-1.492-5.404-.994-1.137-2.343-1.706-4.046-1.706-1.631 0-2.941.578-3.93 1.733-.988 1.155-1.482 3.067-1.482 5.734Zm83.742-13.147h22.9v5.234l-14.683 15.326h15.22v5.627h-24.848v-5.43l14.523-15.166h-13.112v-5.591Zm27.402 0h8.11v26.187h-8.11v-26.187Zm13.826 0H1.298l4.108 15.934 4.091-15.934h10.61v26.187h-6.609v-19.971L8.372-97.874H2.388l-5.11-19.971v19.971h-6.627v-26.187Zm33.601 13.112c0-4.276 1.19-7.604 3.573-9.986 2.381-2.382 5.698-3.573 9.95-3.573 4.358 0 7.716 1.17 10.074 3.51 2.358 2.341 3.537 5.618 3.537 9.834 0 3.061-.515 5.57-1.545 7.529-1.03 1.959-2.519 3.484-4.466 4.574-1.947 1.09-4.373 1.634-7.279 1.634-2.953 0-5.398-.47-7.333-1.411-1.935-.941-3.504-2.43-4.707-4.466-1.203-2.036-1.804-4.585-1.804-7.645Zm8.092.035c0 2.644.491 4.543 1.474 5.699.982 1.155 2.319 1.732 4.01 1.732 1.739 0 3.084-.565 4.037-1.697.953-1.131 1.43-3.161 1.43-6.091 0-2.465-.498-4.266-1.492-5.404-.995-1.137-2.343-1.706-4.046-1.706-1.632 0-2.942.578-3.93 1.733-.989 1.155-1.483 3.067-1.483 5.734Zm83.743-13.147h22.9v5.234l-14.683 15.326h15.219v5.627h-24.848v-5.43l14.523-15.166h-13.111v-5.591Zm27.402 0h8.11v26.187h-8.11v-26.187Zm13.826 0h10.646l4.109 15.934 4.091-15.934h10.61v26.187h-6.609v-19.971l-5.127 19.971h-5.984l-5.109-19.971v19.971h-6.627v-26.187Zm33.601 13.112c0-4.276 1.19-7.604 3.572-9.986 2.382-2.382 5.699-3.573 9.95-3.573 4.359 0 7.717 1.17 10.075 3.51 2.358 2.341 3.537 5.618 3.537 9.834 0 3.061-.515 5.57-1.545 7.529-1.031 1.959-2.519 3.484-4.466 4.574-1.947 1.09-4.374 1.634-7.279 1.634-2.954 0-5.398-.47-7.333-1.411-1.935-.941-3.504-2.43-4.707-4.466-1.203-2.036-1.804-4.585-1.804-7.645Zm8.092.035c0 2.644.491 4.543 1.473 5.699.983 1.155 2.32 1.732 4.011 1.732 1.738 0 3.084-.565 4.037-1.697.952-1.131 1.429-3.161 1.429-6.091 0-2.465-.497-4.266-1.492-5.404-.994-1.137-2.343-1.706-4.046-1.706-1.631 0-2.941.578-3.93 1.733-.988 1.155-1.482 3.067-1.482 5.734Z" opacity="1"/><path fill="url(#g)" d="M-689.881 263.493h22.901v5.234l-14.684 15.326h15.219v5.627h-24.847v-5.43l14.523-15.166h-13.112v-5.591Zm27.402 0h8.11v26.187h-8.11v-26.187Zm13.826 0h10.647l4.108 15.934 4.091-15.934h10.611v26.187h-6.61v-19.971l-5.127 19.971h-5.984l-5.109-19.971v19.971h-6.627v-26.187Zm33.601 13.111c0-4.275 1.191-7.603 3.572-9.985 2.382-2.382 5.699-3.573 9.95-3.573 4.359 0 7.717 1.17 10.075 3.51 2.358 2.34 3.537 5.618 3.537 9.834 0 3.061-.515 5.57-1.545 7.529-1.03 1.959-2.519 3.484-4.466 4.573-1.947 1.09-4.373 1.635-7.279 1.635-2.954 0-5.398-.471-7.333-1.411-1.935-.941-3.504-2.43-4.707-4.466-1.203-2.037-1.804-4.585-1.804-7.646Zm8.092.036c0 2.644.491 4.543 1.474 5.699.982 1.155 2.319 1.732 4.01 1.732 1.739 0 3.084-.565 4.037-1.697.953-1.131 1.429-3.162 1.429-6.091 0-2.465-.497-4.266-1.492-5.404-.994-1.137-2.343-1.706-4.046-1.706-1.631 0-2.941.578-3.929 1.733-.989 1.155-1.483 3.067-1.483 5.734Zm83.742-13.147h22.901v5.234L-515 284.053h15.219v5.627h-24.848v-5.43l14.523-15.166h-13.112v-5.591Zm27.403 0h8.109v26.187h-8.109v-26.187Zm13.826 0h10.646l4.109 15.934 4.09-15.934h10.611v26.187h-6.609v-19.971l-5.127 19.971h-5.984l-5.109-19.971v19.971h-6.627v-26.187Zm33.6 13.111c0-4.275 1.191-7.603 3.573-9.985 2.382-2.382 5.698-3.573 9.95-3.573 4.358 0 7.717 1.17 10.075 3.51 2.358 2.34 3.537 5.618 3.537 9.834 0 3.061-.516 5.57-1.546 7.529-1.03 1.959-2.518 3.484-4.465 4.573-1.948 1.09-4.374 1.635-7.28 1.635-2.953 0-5.397-.471-7.333-1.411-1.935-.941-3.504-2.43-4.706-4.466-1.203-2.037-1.805-4.585-1.805-7.646Zm8.092.036c0 2.644.492 4.543 1.474 5.699.983 1.155 2.319 1.732 4.01 1.732 1.739 0 3.085-.565 4.037-1.697.953-1.131 1.43-3.162 1.43-6.091 0-2.465-.498-4.266-1.492-5.404-.994-1.137-2.343-1.706-4.046-1.706-1.632 0-2.942.578-3.93 1.733-.988 1.155-1.483 3.067-1.483 5.734Zm83.743-13.147h22.901v5.234l-14.684 15.326h15.219v5.627h-24.847v-5.43l14.523-15.166h-13.112v-5.591Zm27.402 0h8.11v26.187h-8.11v-26.187Zm13.826 0h10.647l4.108 15.934 4.091-15.934h10.611v26.187h-6.61v-19.971l-5.127 19.971h-5.984l-5.109-19.971v19.971h-6.627v-26.187Zm33.601 13.111c0-4.275 1.191-7.603 3.573-9.985 2.381-2.382 5.698-3.573 9.949-3.573 4.359 0 7.717 1.17 10.075 3.51 2.358 2.34 3.537 5.618 3.537 9.834 0 3.061-.515 5.57-1.545 7.529-1.03 1.959-2.519 3.484-4.466 4.573-1.947 1.09-4.373 1.635-7.279 1.635-2.954 0-5.398-.471-7.333-1.411-1.935-.941-3.504-2.43-4.707-4.466-1.203-2.037-1.804-4.585-1.804-7.646Zm8.092.036c0 2.644.491 4.543 1.474 5.699.982 1.155 2.319 1.732 4.01 1.732 1.739 0 3.084-.565 4.037-1.697.953-1.131 1.429-3.162 1.429-6.091 0-2.465-.497-4.266-1.492-5.404-.994-1.137-2.343-1.706-4.046-1.706-1.631 0-2.941.578-3.929 1.733-.989 1.155-1.483 3.067-1.483 5.734Zm83.742-13.147h22.901v5.234l-14.683 15.326h15.219v5.627h-24.848v-5.43l14.523-15.166h-13.112v-5.591Zm27.403 0h8.11v26.187h-8.11v-26.187Zm13.826 0h10.646l4.109 15.934 4.09-15.934h10.611v26.187h-6.609v-19.971l-5.127 19.971h-5.984l-5.109-19.971v19.971h-6.627v-26.187Zm33.6 13.111c0-4.275 1.191-7.603 3.573-9.985 2.382-2.382 5.698-3.573 9.95-3.573 4.358 0 7.717 1.17 10.075 3.51 2.358 2.34 3.537 5.618 3.537 9.834 0 3.061-.515 5.57-1.546 7.529-1.03 1.959-2.518 3.484-4.465 4.573-1.947 1.09-4.374 1.635-7.28 1.635-2.953 0-5.397-.471-7.332-1.411-1.936-.941-3.505-2.43-4.707-4.466-1.203-2.037-1.805-4.585-1.805-7.646Zm8.092.036c0 2.644.492 4.543 1.474 5.699.983 1.155 2.319 1.732 4.01 1.732 1.74 0 3.085-.565 4.038-1.697.952-1.131 1.428-3.162 1.428-6.091 0-2.465-.497-4.266-1.491-5.404-.994-1.137-2.343-1.706-4.046-1.706-1.632 0-2.942.578-3.93 1.733-.988 1.155-1.483 3.067-1.483 5.734Zm83.743-13.147h22.9v5.234l-14.683 15.326H.21v5.627h-24.848v-5.43l14.523-15.166h-13.112v-5.591Zm27.402 0h8.11v26.187h-8.11v-26.187Zm13.826 0h10.647l4.108 15.934 4.09-15.934h10.612v26.187h-6.61v-19.971l-5.127 19.971h-5.984l-5.108-19.971v19.971H18v-26.187Zm33.601 13.111c0-4.275 1.19-7.603 3.573-9.985 2.381-2.382 5.698-3.573 9.95-3.573 4.358 0 7.716 1.17 10.074 3.51 2.358 2.34 3.537 5.618 3.537 9.834 0 3.061-.515 5.57-1.545 7.529-1.03 1.959-2.519 3.484-4.466 4.573-1.947 1.09-4.373 1.635-7.28 1.635-2.952 0-5.397-.471-7.332-1.411-1.935-.941-3.504-2.43-4.707-4.466-1.203-2.037-1.804-4.585-1.804-7.646Zm8.092.036c0 2.644.491 4.543 1.474 5.699.982 1.155 2.319 1.732 4.01 1.732 1.739 0 3.084-.565 4.037-1.697.953-1.131 1.429-3.162 1.429-6.091 0-2.465-.497-4.266-1.492-5.404-.994-1.137-2.343-1.706-4.046-1.706-1.631 0-2.941.578-3.93 1.733-.988 1.155-1.482 3.067-1.482 5.734Zm83.743-13.147h22.9v5.234l-14.683 15.326h15.219v5.627h-24.848v-5.43l14.523-15.166h-13.111v-5.591Zm27.402 0h8.11v26.187h-8.11v-26.187Zm13.826 0h10.646l4.109 15.934 4.09-15.934h10.611v26.187h-6.609v-19.971l-5.127 19.971h-5.984l-5.109-19.971v19.971h-6.627v-26.187Zm33.6 13.111c0-4.275 1.191-7.603 3.573-9.985 2.382-2.382 5.698-3.573 9.95-3.573 4.358 0 7.717 1.17 10.075 3.51 2.358 2.34 3.537 5.618 3.537 9.834 0 3.061-.515 5.57-1.546 7.529-1.03 1.959-2.518 3.484-4.465 4.573-1.947 1.09-4.374 1.635-7.28 1.635-2.953 0-5.397-.471-7.332-1.411-1.936-.941-3.505-2.43-4.707-4.466-1.203-2.037-1.805-4.585-1.805-7.646Zm8.092.036c0 2.644.492 4.543 1.474 5.699.983 1.155 2.319 1.732 4.01 1.732 1.739 0 3.085-.565 4.038-1.697.952-1.131 1.429-3.162 1.429-6.091 0-2.465-.498-4.266-1.492-5.404-.994-1.137-2.343-1.706-4.046-1.706-1.632 0-2.941.578-3.93 1.733-.988 1.155-1.483 3.067-1.483 5.734Zm83.743-13.147h22.901v5.234l-14.684 15.326h15.22v5.627h-24.848v-5.43l14.523-15.166H310.1v-5.591Zm27.402 0h8.11v26.187h-8.11v-26.187Zm13.826 0h10.647l4.108 15.934 4.091-15.934h10.611v26.187h-6.61v-19.971l-5.126 19.971h-5.985l-5.108-19.971v19.971h-6.628v-26.187Zm33.601 13.111c0-4.275 1.191-7.603 3.573-9.985 2.381-2.382 5.698-3.573 9.949-3.573 4.359 0 7.717 1.17 10.075 3.51 2.358 2.34 3.537 5.618 3.537 9.834 0 3.061-.515 5.57-1.545 7.529-1.03 1.959-2.519 3.484-4.466 4.573-1.947 1.09-4.373 1.635-7.279 1.635-2.953 0-5.398-.471-7.333-1.411-1.935-.941-3.504-2.43-4.707-4.466-1.203-2.037-1.804-4.585-1.804-7.646Zm8.092.036c0 2.644.491 4.543 1.474 5.699.982 1.155 2.319 1.732 4.01 1.732 1.739 0 3.084-.565 4.037-1.697.953-1.131 1.429-3.162 1.429-6.091 0-2.465-.497-4.266-1.491-5.404-.995-1.137-2.344-1.706-4.047-1.706-1.631 0-2.941.578-3.929 1.733-.989 1.155-1.483 3.067-1.483 5.734Z" opacity="1"/><path fill="url(#h)" d="M-1050.56 650.939h22.9v5.233l-14.68 15.327h15.22v5.627h-24.85v-5.43l14.52-15.166h-13.11v-5.591Zm27.4 0h8.11v26.187h-8.11v-26.187Zm13.83 0h10.647l4.108 15.934 4.091-15.934h10.611v26.187h-6.61v-19.971l-5.126 19.971h-5.985l-5.106-19.971v19.971h-6.63v-26.187Zm33.601 13.111c0-4.275 1.191-7.604 3.573-9.985 2.381-2.382 5.698-3.573 9.949-3.573 4.359 0 7.717 1.17 10.075 3.51 2.358 2.34 3.537 5.618 3.537 9.834 0 3.06-.515 5.57-1.545 7.529-1.03 1.959-2.519 3.483-4.466 4.573-1.947 1.09-4.373 1.635-7.279 1.635-2.953 0-5.398-.471-7.333-1.412-1.935-.94-3.504-2.429-4.707-4.465-1.203-2.037-1.804-4.585-1.804-7.646Zm8.092.036c0 2.644.491 4.543 1.474 5.698.982 1.155 2.319 1.733 4.01 1.733 1.739 0 3.084-.566 4.037-1.697.953-1.131 1.429-3.162 1.429-6.091 0-2.465-.497-4.267-1.491-5.404-.995-1.137-2.344-1.706-4.046-1.706-1.632 0-2.942.578-3.93 1.733-.989 1.155-1.483 3.066-1.483 5.734Zm83.743-13.147h22.9v5.233l-14.683 15.327h15.219v5.627h-24.848v-5.43l14.523-15.166h-13.111v-5.591Zm27.402 0h8.11v26.187h-8.11v-26.187Zm13.826 0h10.646l4.109 15.934 4.09-15.934h10.611v26.187h-6.609v-19.971l-5.127 19.971h-5.984l-5.109-19.971v19.971h-6.627v-26.187Zm33.6 13.111c0-4.275 1.191-7.604 3.573-9.985 2.382-2.382 5.698-3.573 9.95-3.573 4.359 0 7.717 1.17 10.075 3.51 2.358 2.34 3.537 5.618 3.537 9.834 0 3.06-.515 5.57-1.546 7.529-1.03 1.959-2.518 3.483-4.465 4.573-1.947 1.09-4.374 1.635-7.28 1.635-2.953 0-5.397-.471-7.332-1.412-1.936-.94-3.505-2.429-4.707-4.465-1.203-2.037-1.805-4.585-1.805-7.646Zm8.092.036c0 2.644.492 4.543 1.474 5.698.983 1.155 2.319 1.733 4.01 1.733 1.739 0 3.085-.566 4.038-1.697.952-1.131 1.429-3.162 1.429-6.091 0-2.465-.498-4.267-1.492-5.404-.994-1.137-2.343-1.706-4.046-1.706-1.631 0-2.941.578-3.93 1.733-.988 1.155-1.483 3.066-1.483 5.734Zm83.743-13.147h22.901v5.233l-14.684 15.327h15.22v5.627h-24.848v-5.43l14.523-15.166h-13.112v-5.591Zm27.402 0h8.11v26.187h-8.11v-26.187Zm13.826 0h10.647l4.108 15.934 4.091-15.934h10.611v26.187h-6.61v-19.971l-5.126 19.971h-5.985l-5.108-19.971v19.971h-6.628v-26.187Zm33.601 13.111c0-4.275 1.191-7.604 3.573-9.985 2.381-2.382 5.698-3.573 9.949-3.573 4.359 0 7.717 1.17 10.075 3.51 2.358 2.34 3.537 5.618 3.537 9.834 0 3.06-.515 5.57-1.545 7.529-1.03 1.959-2.519 3.483-4.466 4.573-1.947 1.09-4.373 1.635-7.279 1.635-2.953 0-5.398-.471-7.333-1.412-1.935-.94-3.504-2.429-4.707-4.465-1.203-2.037-1.804-4.585-1.804-7.646Zm8.092.036c0 2.644.491 4.543 1.474 5.698.982 1.155 2.319 1.733 4.01 1.733 1.739 0 3.084-.566 4.037-1.697.953-1.131 1.429-3.162 1.429-6.091 0-2.465-.497-4.267-1.491-5.404-.995-1.137-2.343-1.706-4.046-1.706-1.632 0-2.942.578-3.93 1.733-.989 1.155-1.483 3.066-1.483 5.734Zm83.743-13.147h22.9v5.233l-14.683 15.327h15.219v5.627h-24.848v-5.43l14.523-15.166h-13.111v-5.591Zm27.402 0h8.11v26.187h-8.11v-26.187Zm13.826 0h10.646l4.109 15.934 4.091-15.934h10.61v26.187h-6.609v-19.971l-5.127 19.971h-5.984l-5.109-19.971v19.971h-6.627v-26.187Zm33.6 13.111c0-4.275 1.191-7.604 3.573-9.985 2.382-2.382 5.698-3.573 9.95-3.573 4.359 0 7.717 1.17 10.075 3.51 2.358 2.34 3.537 5.618 3.537 9.834 0 3.06-.515 5.57-1.545 7.529-1.031 1.959-2.519 3.483-4.466 4.573-1.947 1.09-4.374 1.635-7.28 1.635-2.953 0-5.397-.471-7.332-1.412-1.936-.94-3.505-2.429-4.707-4.465-1.203-2.037-1.805-4.585-1.805-7.646Zm8.093.036c0 2.644.491 4.543 1.473 5.698.983 1.155 2.319 1.733 4.011 1.733 1.738 0 3.084-.566 4.037-1.697.952-1.131 1.429-3.162 1.429-6.091 0-2.465-.498-4.267-1.492-5.404-.994-1.137-2.343-1.706-4.046-1.706-1.631 0-2.941.578-3.93 1.733-.988 1.155-1.482 3.066-1.482 5.734Zm83.742-13.147h22.901v5.233l-14.684 15.327h15.22v5.627h-24.848v-5.43l14.523-15.166h-13.112v-5.591Zm27.402 0h8.11v26.187h-8.11v-26.187Zm13.826 0h10.647l4.108 15.934 4.091-15.934h10.611v26.187h-6.61v-19.971l-5.126 19.971h-5.985l-5.108-19.971v19.971h-6.628v-26.187Zm33.601 13.111c0-4.275 1.191-7.604 3.573-9.985 2.381-2.382 5.698-3.573 9.949-3.573 4.359 0 7.717 1.17 10.075 3.51 2.358 2.34 3.537 5.618 3.537 9.834 0 3.06-.515 5.57-1.545 7.529-1.03 1.959-2.519 3.483-4.466 4.573-1.947 1.09-4.373 1.635-7.279 1.635-2.953 0-5.398-.471-7.333-1.412-1.935-.94-3.504-2.429-4.707-4.465-1.203-2.037-1.804-4.585-1.804-7.646Zm8.092.036c0 2.644.491 4.543 1.474 5.698.982 1.155 2.319 1.733 4.01 1.733 1.739 0 3.084-.566 4.037-1.697.953-1.131 1.429-3.162 1.429-6.091 0-2.465-.497-4.267-1.491-5.404-.995-1.137-2.343-1.706-4.046-1.706-1.632 0-2.942.578-3.93 1.733-.989 1.155-1.483 3.066-1.483 5.734Zm83.743-13.147h22.9v5.233l-14.683 15.327h15.219v5.627h-24.848v-5.43l14.523-15.166h-13.111v-5.591Zm27.402 0h8.11v26.187h-8.11v-26.187Zm13.826 0h10.646l4.109 15.934 4.091-15.934h10.61v26.187h-6.609v-19.971l-5.127 19.971h-5.984l-5.109-19.971v19.971h-6.627v-26.187Zm33.601 13.111c0-4.275 1.19-7.604 3.572-9.985 2.382-2.382 5.699-3.573 9.95-3.573 4.359 0 7.717 1.17 10.075 3.51 2.358 2.34 3.537 5.618 3.537 9.834 0 3.06-.515 5.57-1.545 7.529-1.031 1.959-2.519 3.483-4.466 4.573-1.947 1.09-4.374 1.635-7.28 1.635-2.953 0-5.397-.471-7.332-1.412-1.936-.94-3.505-2.429-4.707-4.465-1.203-2.037-1.804-4.585-1.804-7.646Zm8.092.036c0 2.644.491 4.543 1.473 5.698.983 1.155 2.32 1.733 4.011 1.733 1.738 0 3.084-.566 4.037-1.697.952-1.131 1.429-3.162 1.429-6.091 0-2.465-.498-4.267-1.492-5.404-.994-1.137-2.343-1.706-4.046-1.706-1.631 0-2.941.578-3.93 1.733-.988 1.155-1.482 3.066-1.482 5.734Zm83.742-13.147h22.9v5.233l-14.683 15.327h15.22v5.627h-24.848v-5.43l14.523-15.166h-13.112v-5.591Zm27.402 0h8.11v26.187h-8.11v-26.187Zm13.826 0H1.298l4.108 15.934 4.091-15.934h10.61v26.187h-6.609v-19.971l-5.126 19.971H2.388l-5.11-19.971v19.971h-6.627v-26.187Zm33.601 13.111c0-4.275 1.19-7.604 3.573-9.985 2.381-2.382 5.698-3.573 9.95-3.573 4.358 0 7.716 1.17 10.074 3.51 2.358 2.34 3.537 5.618 3.537 9.834 0 3.06-.515 5.57-1.545 7.529-1.03 1.959-2.519 3.483-4.466 4.573-1.947 1.09-4.373 1.635-7.279 1.635-2.953 0-5.398-.471-7.333-1.412-1.935-.94-3.504-2.429-4.707-4.465-1.203-2.037-1.804-4.585-1.804-7.646Zm8.092.036c0 2.644.491 4.543 1.474 5.698.982 1.155 2.319 1.733 4.01 1.733 1.739 0 3.084-.566 4.037-1.697.953-1.131 1.43-3.162 1.43-6.091 0-2.465-.498-4.267-1.492-5.404-.995-1.137-2.343-1.706-4.046-1.706-1.632 0-2.942.578-3.93 1.733-.989 1.155-1.483 3.066-1.483 5.734Zm83.743-13.147h22.9v5.233l-14.683 15.327h15.219v5.627h-24.848v-5.43l14.523-15.166h-13.111v-5.591Zm27.402 0h8.11v26.187h-8.11v-26.187Zm13.826 0h10.646l4.109 15.934 4.091-15.934h10.61v26.187h-6.609v-19.971l-5.127 19.971h-5.984l-5.109-19.971v19.971h-6.627v-26.187Zm33.601 13.111c0-4.275 1.19-7.604 3.572-9.985 2.382-2.382 5.699-3.573 9.95-3.573 4.359 0 7.717 1.17 10.075 3.51 2.358 2.34 3.537 5.618 3.537 9.834 0 3.06-.515 5.57-1.545 7.529-1.031 1.959-2.519 3.483-4.466 4.573-1.947 1.09-4.374 1.635-7.279 1.635-2.954 0-5.398-.471-7.333-1.412-1.935-.94-3.504-2.429-4.707-4.465-1.203-2.037-1.804-4.585-1.804-7.646Zm8.092.036c0 2.644.491 4.543 1.473 5.698.983 1.155 2.32 1.733 4.011 1.733 1.738 0 3.084-.566 4.037-1.697.952-1.131 1.429-3.162 1.429-6.091 0-2.465-.497-4.267-1.492-5.404-.994-1.137-2.343-1.706-4.046-1.706-1.631 0-2.941.578-3.93 1.733-.988 1.155-1.482 3.066-1.482 5.734Z" opacity="1"/><path fill="url(#i)" d="M-689.881 1050.53h22.901v5.23l-14.684 15.33h15.219v5.63h-24.847v-5.43l14.523-15.17h-13.112v-5.59Zm27.402 0h8.11v26.19h-8.11v-26.19Zm13.826 0h10.647l4.108 15.93 4.091-15.93h10.611v26.19h-6.61v-19.97l-5.127 19.97h-5.984l-5.109-19.97v19.97h-6.627v-26.19Zm33.601 13.11c0-4.27 1.191-7.6 3.572-9.98 2.382-2.39 5.699-3.58 9.95-3.58 4.359 0 7.717 1.17 10.075 3.51 2.358 2.34 3.537 5.62 3.537 9.84 0 3.06-.515 5.57-1.545 7.53-1.03 1.96-2.519 3.48-4.466 4.57-1.947 1.09-4.373 1.63-7.279 1.63-2.954 0-5.398-.47-7.333-1.41-1.935-.94-3.504-2.43-4.707-4.46-1.203-2.04-1.804-4.59-1.804-7.65Zm8.092.04c0 2.64.491 4.54 1.474 5.7.982 1.15 2.319 1.73 4.01 1.73 1.739 0 3.084-.57 4.037-1.7.953-1.13 1.429-3.16 1.429-6.09 0-2.47-.497-4.27-1.492-5.4-.994-1.14-2.343-1.71-4.046-1.71-1.631 0-2.941.58-3.929 1.73-.989 1.16-1.483 3.07-1.483 5.74Zm83.742-13.15h22.901v5.23L-515 1071.09h15.219v5.63h-24.848v-5.43l14.523-15.17h-13.112v-5.59Zm27.403 0h8.109v26.19h-8.109v-26.19Zm13.826 0h10.646l4.109 15.93 4.09-15.93h10.611v26.19h-6.609v-19.97l-5.127 19.97h-5.984l-5.109-19.97v19.97h-6.627v-26.19Zm33.6 13.11c0-4.27 1.191-7.6 3.573-9.98 2.382-2.39 5.698-3.58 9.95-3.58 4.358 0 7.717 1.17 10.075 3.51 2.358 2.34 3.537 5.62 3.537 9.84 0 3.06-.516 5.57-1.546 7.53s-2.518 3.48-4.465 4.57c-1.948 1.09-4.374 1.63-7.28 1.63-2.953 0-5.397-.47-7.333-1.41-1.935-.94-3.504-2.43-4.706-4.46-1.203-2.04-1.805-4.59-1.805-7.65Zm8.092.04c0 2.64.492 4.54 1.474 5.7.983 1.15 2.319 1.73 4.01 1.73 1.739 0 3.085-.57 4.037-1.7.953-1.13 1.43-3.16 1.43-6.09 0-2.47-.498-4.27-1.492-5.4-.994-1.14-2.343-1.71-4.046-1.71-1.632 0-2.942.58-3.93 1.73-.988 1.16-1.483 3.07-1.483 5.74Zm83.743-13.15h22.901v5.23l-14.684 15.33h15.219v5.63h-24.847v-5.43l14.523-15.17h-13.112v-5.59Zm27.402 0h8.11v26.19h-8.11v-26.19Zm13.826 0h10.647l4.108 15.93 4.091-15.93h10.611v26.19h-6.61v-19.97l-5.127 19.97h-5.984l-5.109-19.97v19.97h-6.627v-26.19Zm33.601 13.11c0-4.27 1.191-7.6 3.573-9.98 2.381-2.39 5.698-3.58 9.949-3.58 4.359 0 7.717 1.17 10.075 3.51 2.358 2.34 3.537 5.62 3.537 9.84 0 3.06-.515 5.57-1.545 7.53-1.03 1.96-2.519 3.48-4.466 4.57-1.947 1.09-4.373 1.63-7.279 1.63-2.954 0-5.398-.47-7.333-1.41-1.935-.94-3.504-2.43-4.707-4.46-1.203-2.04-1.804-4.59-1.804-7.65Zm8.092.04c0 2.64.491 4.54 1.474 5.7.982 1.15 2.319 1.73 4.01 1.73 1.739 0 3.084-.57 4.037-1.7.953-1.13 1.429-3.16 1.429-6.09 0-2.47-.497-4.27-1.492-5.4-.994-1.14-2.343-1.71-4.046-1.71-1.631 0-2.941.58-3.929 1.73-.989 1.16-1.483 3.07-1.483 5.74Zm83.742-13.15h22.901v5.23l-14.683 15.33h15.219v5.63h-24.848v-5.43l14.523-15.17h-13.112v-5.59Zm27.403 0h8.11v26.19h-8.11v-26.19Zm13.826 0h10.646l4.109 15.93 4.09-15.93h10.611v26.19h-6.609v-19.97l-5.127 19.97h-5.984l-5.109-19.97v19.97h-6.627v-26.19Zm33.6 13.11c0-4.27 1.191-7.6 3.573-9.98 2.382-2.39 5.698-3.58 9.95-3.58 4.358 0 7.717 1.17 10.075 3.51 2.358 2.34 3.537 5.62 3.537 9.84 0 3.06-.515 5.57-1.546 7.53-1.03 1.96-2.518 3.48-4.465 4.57-1.947 1.09-4.374 1.63-7.28 1.63-2.953 0-5.397-.47-7.332-1.41-1.936-.94-3.505-2.43-4.707-4.46-1.203-2.04-1.805-4.59-1.805-7.65Zm8.092.04c0 2.64.492 4.54 1.474 5.7.983 1.15 2.319 1.73 4.01 1.73 1.74 0 3.085-.57 4.038-1.7.952-1.13 1.428-3.16 1.428-6.09 0-2.47-.497-4.27-1.491-5.4-.994-1.14-2.343-1.71-4.046-1.71-1.632 0-2.942.58-3.93 1.73-.988 1.16-1.483 3.07-1.483 5.74Zm83.743-13.15h22.9v5.23l-14.683 15.33H.21v5.63h-24.848v-5.43l14.523-15.17h-13.112v-5.59Zm27.402 0h8.11v26.19h-8.11v-26.19Zm13.826 0h10.647l4.108 15.93 4.09-15.93h10.612v26.19h-6.61v-19.97l-5.127 19.97h-5.984l-5.108-19.97v19.97H18v-26.19Zm33.601 13.11c0-4.27 1.19-7.6 3.573-9.98 2.381-2.39 5.698-3.58 9.95-3.58 4.358 0 7.716 1.17 10.074 3.51 2.358 2.34 3.537 5.62 3.537 9.84 0 3.06-.515 5.57-1.545 7.53-1.03 1.96-2.519 3.48-4.466 4.57-1.947 1.09-4.373 1.63-7.28 1.63-2.952 0-5.397-.47-7.332-1.41-1.935-.94-3.504-2.43-4.707-4.46-1.203-2.04-1.804-4.59-1.804-7.65Zm8.092.04c0 2.64.491 4.54 1.474 5.7.982 1.15 2.319 1.73 4.01 1.73 1.739 0 3.084-.57 4.037-1.7.953-1.13 1.429-3.16 1.429-6.09 0-2.47-.497-4.27-1.492-5.4-.994-1.14-2.343-1.71-4.046-1.71-1.631 0-2.941.58-3.93 1.73-.988 1.16-1.482 3.07-1.482 5.74Zm83.743-13.15h22.9v5.23l-14.683 15.33h15.219v5.63h-24.848v-5.43l14.523-15.17h-13.111v-5.59Zm27.402 0h8.11v26.19h-8.11v-26.19Zm13.826 0h10.646l4.109 15.93 4.09-15.93h10.611v26.19h-6.609v-19.97l-5.127 19.97h-5.984l-5.109-19.97v19.97h-6.627v-26.19Zm33.6 13.11c0-4.27 1.191-7.6 3.573-9.98 2.382-2.39 5.698-3.58 9.95-3.58 4.358 0 7.717 1.17 10.075 3.51 2.358 2.34 3.537 5.62 3.537 9.84 0 3.06-.515 5.57-1.546 7.53-1.03 1.96-2.518 3.48-4.465 4.57-1.947 1.09-4.374 1.63-7.28 1.63-2.953 0-5.397-.47-7.332-1.41-1.936-.94-3.505-2.43-4.707-4.46-1.203-2.04-1.805-4.59-1.805-7.65Zm8.092.04c0 2.64.492 4.54 1.474 5.7.983 1.15 2.319 1.73 4.01 1.73 1.739 0 3.085-.57 4.038-1.7.952-1.13 1.429-3.16 1.429-6.09 0-2.47-.498-4.27-1.492-5.4-.994-1.14-2.343-1.71-4.046-1.71-1.632 0-2.941.58-3.93 1.73-.988 1.16-1.483 3.07-1.483 5.74Zm83.743-13.15h22.901v5.23l-14.684 15.33h15.22v5.63h-24.848v-5.43l14.523-15.17H310.1v-5.59Zm27.402 0h8.11v26.19h-8.11v-26.19Zm13.826 0h10.647l4.108 15.93 4.091-15.93h10.611v26.19h-6.61v-19.97l-5.126 19.97h-5.985l-5.108-19.97v19.97h-6.628v-26.19Zm33.601 13.11c0-4.27 1.191-7.6 3.573-9.98 2.381-2.39 5.698-3.58 9.949-3.58 4.359 0 7.717 1.17 10.075 3.51 2.358 2.34 3.537 5.62 3.537 9.84 0 3.06-.515 5.57-1.545 7.53-1.03 1.96-2.519 3.48-4.466 4.57-1.947 1.09-4.373 1.63-7.279 1.63-2.953 0-5.398-.47-7.333-1.41-1.935-.94-3.504-2.43-4.707-4.46-1.203-2.04-1.804-4.59-1.804-7.65Zm8.092.04c0 2.64.491 4.54 1.474 5.7.982 1.15 2.319 1.73 4.01 1.73 1.739 0 3.084-.57 4.037-1.7.953-1.13 1.429-3.16 1.429-6.09 0-2.47-.497-4.27-1.491-5.4-.995-1.14-2.344-1.71-4.047-1.71-1.631 0-2.941.58-3.929 1.73-.989 1.16-1.483 3.07-1.483 5.74Z" opacity="1"/><path fill="url(#j)" d="M-1050.56 1437.98h22.9v5.23l-14.68 15.33h15.22v5.62h-24.85v-5.43l14.52-15.16h-13.11v-5.59Zm27.4 0h8.11v26.18h-8.11v-26.18Zm13.83 0h10.647l4.108 15.93 4.091-15.93h10.611v26.18h-6.61v-19.97l-5.126 19.97h-5.985l-5.106-19.97v19.97h-6.63v-26.18Zm33.601 13.11c0-4.28 1.191-7.61 3.573-9.99 2.381-2.38 5.698-3.57 9.949-3.57 4.359 0 7.717 1.17 10.075 3.51 2.358 2.34 3.537 5.62 3.537 9.83 0 3.06-.515 5.57-1.545 7.53a10.947 10.947 0 0 1-4.466 4.57c-1.947 1.09-4.373 1.64-7.279 1.64-2.953 0-5.398-.47-7.333-1.41-1.935-.94-3.504-2.43-4.707-4.47-1.203-2.03-1.804-4.58-1.804-7.64Zm8.092.03c0 2.65.491 4.55 1.474 5.7.982 1.16 2.319 1.73 4.01 1.73 1.739 0 3.084-.56 4.037-1.69.953-1.13 1.429-3.16 1.429-6.09 0-2.47-.497-4.27-1.491-5.41-.995-1.14-2.344-1.7-4.046-1.7-1.632 0-2.942.57-3.93 1.73-.989 1.15-1.483 3.07-1.483 5.73Zm83.743-13.14h22.9v5.23l-14.683 15.33h15.219v5.62h-24.848v-5.43l14.523-15.16h-13.111v-5.59Zm27.402 0h8.11v26.18h-8.11v-26.18Zm13.826 0h10.646l4.109 15.93 4.09-15.93h10.611v26.18h-6.609v-19.97l-5.127 19.97h-5.984l-5.109-19.97v19.97h-6.627v-26.18Zm33.6 13.11c0-4.28 1.191-7.61 3.573-9.99 2.382-2.38 5.698-3.57 9.95-3.57 4.359 0 7.717 1.17 10.075 3.51 2.358 2.34 3.537 5.62 3.537 9.83 0 3.06-.515 5.57-1.546 7.53a10.945 10.945 0 0 1-4.465 4.57c-1.947 1.09-4.374 1.64-7.28 1.64-2.953 0-5.397-.47-7.332-1.41-1.936-.94-3.505-2.43-4.707-4.47-1.203-2.03-1.805-4.58-1.805-7.64Zm8.092.03c0 2.65.492 4.55 1.474 5.7.983 1.16 2.319 1.73 4.01 1.73 1.739 0 3.085-.56 4.038-1.69.952-1.13 1.429-3.16 1.429-6.09 0-2.47-.498-4.27-1.492-5.41-.994-1.14-2.343-1.7-4.046-1.7-1.631 0-2.941.57-3.93 1.73-.988 1.15-1.483 3.07-1.483 5.73Zm83.743-13.14h22.901v5.23l-14.684 15.33h15.22v5.62h-24.848v-5.43l14.523-15.16h-13.112v-5.59Zm27.402 0h8.11v26.18h-8.11v-26.18Zm13.826 0h10.647l4.108 15.93 4.091-15.93h10.611v26.18h-6.61v-19.97l-5.126 19.97h-5.985l-5.108-19.97v19.97h-6.628v-26.18Zm33.601 13.11c0-4.28 1.191-7.61 3.573-9.99 2.381-2.38 5.698-3.57 9.949-3.57 4.359 0 7.717 1.17 10.075 3.51 2.358 2.34 3.537 5.62 3.537 9.83 0 3.06-.515 5.57-1.545 7.53a10.947 10.947 0 0 1-4.466 4.57c-1.947 1.09-4.373 1.64-7.279 1.64-2.953 0-5.398-.47-7.333-1.41-1.935-.94-3.504-2.43-4.707-4.47-1.203-2.03-1.804-4.58-1.804-7.64Zm8.092.03c0 2.65.491 4.55 1.474 5.7.982 1.16 2.319 1.73 4.01 1.73 1.739 0 3.084-.56 4.037-1.69.953-1.13 1.429-3.16 1.429-6.09 0-2.47-.497-4.27-1.491-5.41-.995-1.14-2.343-1.7-4.046-1.7-1.632 0-2.942.57-3.93 1.73-.989 1.15-1.483 3.07-1.483 5.73Zm83.743-13.14h22.9v5.23l-14.683 15.33h15.219v5.62h-24.848v-5.43l14.523-15.16h-13.111v-5.59Zm27.402 0h8.11v26.18h-8.11v-26.18Zm13.826 0h10.646l4.109 15.93 4.091-15.93h10.61v26.18h-6.609v-19.97l-5.127 19.97h-5.984l-5.109-19.97v19.97h-6.627v-26.18Zm33.6 13.11c0-4.28 1.191-7.61 3.573-9.99 2.382-2.38 5.698-3.57 9.95-3.57 4.359 0 7.717 1.17 10.075 3.51 2.358 2.34 3.537 5.62 3.537 9.83 0 3.06-.515 5.57-1.545 7.53a10.953 10.953 0 0 1-4.466 4.57c-1.947 1.09-4.374 1.64-7.28 1.64-2.953 0-5.397-.47-7.332-1.41-1.936-.94-3.505-2.43-4.707-4.47-1.203-2.03-1.805-4.58-1.805-7.64Zm8.093.03c0 2.65.491 4.55 1.473 5.7.983 1.16 2.319 1.73 4.011 1.73 1.738 0 3.084-.56 4.037-1.69.952-1.13 1.429-3.16 1.429-6.09 0-2.47-.498-4.27-1.492-5.41-.994-1.14-2.343-1.7-4.046-1.7-1.631 0-2.941.57-3.93 1.73-.988 1.15-1.482 3.07-1.482 5.73Zm83.742-13.14h22.901v5.23l-14.684 15.33h15.22v5.62h-24.848v-5.43l14.523-15.16h-13.112v-5.59Zm27.402 0h8.11v26.18h-8.11v-26.18Zm13.826 0h10.647l4.108 15.93 4.091-15.93h10.611v26.18h-6.61v-19.97l-5.126 19.97h-5.985l-5.108-19.97v19.97h-6.628v-26.18Zm33.601 13.11c0-4.28 1.191-7.61 3.573-9.99 2.381-2.38 5.698-3.57 9.949-3.57 4.359 0 7.717 1.17 10.075 3.51 2.358 2.34 3.537 5.62 3.537 9.83 0 3.06-.515 5.57-1.545 7.53a10.947 10.947 0 0 1-4.466 4.57c-1.947 1.09-4.373 1.64-7.279 1.64-2.953 0-5.398-.47-7.333-1.41-1.935-.94-3.504-2.43-4.707-4.47-1.203-2.03-1.804-4.58-1.804-7.64Zm8.092.03c0 2.65.491 4.55 1.474 5.7.982 1.16 2.319 1.73 4.01 1.73 1.739 0 3.084-.56 4.037-1.69.953-1.13 1.429-3.16 1.429-6.09 0-2.47-.497-4.27-1.491-5.41-.995-1.14-2.343-1.7-4.046-1.7-1.632 0-2.942.57-3.93 1.73-.989 1.15-1.483 3.07-1.483 5.73Zm83.743-13.14h22.9v5.23l-14.683 15.33h15.219v5.62h-24.848v-5.43l14.523-15.16h-13.111v-5.59Zm27.402 0h8.11v26.18h-8.11v-26.18Zm13.826 0h10.646l4.109 15.93 4.091-15.93h10.61v26.18h-6.609v-19.97l-5.127 19.97h-5.984l-5.109-19.97v19.97h-6.627v-26.18Zm33.601 13.11c0-4.28 1.19-7.61 3.572-9.99s5.699-3.57 9.95-3.57c4.359 0 7.717 1.17 10.075 3.51 2.358 2.34 3.537 5.62 3.537 9.83 0 3.06-.515 5.57-1.545 7.53a10.953 10.953 0 0 1-4.466 4.57c-1.947 1.09-4.374 1.64-7.28 1.64-2.953 0-5.397-.47-7.332-1.41-1.936-.94-3.505-2.43-4.707-4.47-1.203-2.03-1.804-4.58-1.804-7.64Zm8.092.03c0 2.65.491 4.55 1.473 5.7.983 1.16 2.32 1.73 4.011 1.73 1.738 0 3.084-.56 4.037-1.69.952-1.13 1.429-3.16 1.429-6.09 0-2.47-.498-4.27-1.492-5.41-.994-1.14-2.343-1.7-4.046-1.7-1.631 0-2.941.57-3.93 1.73-.988 1.15-1.482 3.07-1.482 5.73Zm83.742-13.14h22.9v5.23l-14.683 15.33h15.22v5.62h-24.848v-5.43l14.523-15.16h-13.112v-5.59Zm27.402 0h8.11v26.18h-8.11v-26.18Zm13.826 0H1.298l4.108 15.93 4.091-15.93h10.61v26.18h-6.609v-19.97l-5.126 19.97H2.388l-5.11-19.97v19.97h-6.627v-26.18Zm33.601 13.11c0-4.28 1.19-7.61 3.573-9.99 2.381-2.38 5.698-3.57 9.95-3.57 4.358 0 7.716 1.17 10.074 3.51 2.358 2.34 3.537 5.62 3.537 9.83 0 3.06-.515 5.57-1.545 7.53a10.948 10.948 0 0 1-4.466 4.57c-1.947 1.09-4.373 1.64-7.279 1.64-2.953 0-5.398-.47-7.333-1.41-1.935-.94-3.504-2.43-4.707-4.47-1.203-2.03-1.804-4.58-1.804-7.64Zm8.092.03c0 2.65.491 4.55 1.474 5.7.982 1.16 2.319 1.73 4.01 1.73 1.739 0 3.084-.56 4.037-1.69.953-1.13 1.43-3.16 1.43-6.09 0-2.47-.498-4.27-1.492-5.41-.995-1.14-2.343-1.7-4.046-1.7-1.632 0-2.942.57-3.93 1.73-.989 1.15-1.483 3.07-1.483 5.73Zm83.743-13.14h22.9v5.23l-14.683 15.33h15.219v5.62h-24.848v-5.43l14.523-15.16h-13.111v-5.59Zm27.402 0h8.11v26.18h-8.11v-26.18Zm13.826 0h10.646l4.109 15.93 4.091-15.93h10.61v26.18h-6.609v-19.97l-5.127 19.97h-5.984l-5.109-19.97v19.97h-6.627v-26.18Zm33.601 13.11c0-4.28 1.19-7.61 3.572-9.99s5.699-3.57 9.95-3.57c4.359 0 7.717 1.17 10.075 3.51 2.358 2.34 3.537 5.62 3.537 9.83 0 3.06-.515 5.57-1.545 7.53a10.953 10.953 0 0 1-4.466 4.57c-1.947 1.09-4.374 1.64-7.279 1.64-2.954 0-5.398-.47-7.333-1.41-1.935-.94-3.504-2.43-4.707-4.47-1.203-2.03-1.804-4.58-1.804-7.64Zm8.092.03c0 2.65.491 4.55 1.473 5.7.983 1.16 2.32 1.73 4.011 1.73 1.738 0 3.084-.56 4.037-1.69.952-1.13 1.429-3.16 1.429-6.09 0-2.47-.497-4.27-1.492-5.41-.994-1.14-2.343-1.7-4.046-1.7-1.631 0-2.941.57-3.93 1.73-.988 1.15-1.482 3.07-1.482 5.73Z" opacity="1"/><path fill="url(#k)" d="M-689.881 1826.81h22.901v5.23l-14.684 15.33h15.219v5.63h-24.847v-5.43l14.523-15.17h-13.112v-5.59Zm27.402 0h8.11V1853h-8.11v-26.19Zm13.826 0h10.647l4.108 15.93 4.091-15.93h10.611V1853h-6.61v-19.97l-5.127 19.97h-5.984l-5.109-19.97V1853h-6.627v-26.19Zm33.601 13.11c0-4.27 1.191-7.6 3.572-9.98 2.382-2.39 5.699-3.58 9.95-3.58 4.359 0 7.717 1.17 10.075 3.51 2.358 2.34 3.537 5.62 3.537 9.84 0 3.06-.515 5.57-1.545 7.53-1.03 1.96-2.519 3.48-4.466 4.57-1.947 1.09-4.373 1.63-7.279 1.63-2.954 0-5.398-.47-7.333-1.41-1.935-.94-3.504-2.43-4.707-4.46-1.203-2.04-1.804-4.59-1.804-7.65Zm8.092.04c0 2.64.491 4.54 1.474 5.7.982 1.15 2.319 1.73 4.01 1.73 1.739 0 3.084-.57 4.037-1.7.953-1.13 1.429-3.16 1.429-6.09 0-2.47-.497-4.27-1.492-5.4-.994-1.14-2.343-1.71-4.046-1.71-1.631 0-2.941.58-3.929 1.73-.989 1.16-1.483 3.07-1.483 5.74Zm83.742-13.15h22.901v5.23L-515 1847.37h15.219v5.63h-24.848v-5.43l14.523-15.17h-13.112v-5.59Zm27.403 0h8.109V1853h-8.109v-26.19Zm13.826 0h10.646l4.109 15.93 4.09-15.93h10.611V1853h-6.609v-19.97l-5.127 19.97h-5.984l-5.109-19.97V1853h-6.627v-26.19Zm33.6 13.11c0-4.27 1.191-7.6 3.573-9.98 2.382-2.39 5.698-3.58 9.95-3.58 4.358 0 7.717 1.17 10.075 3.51 2.358 2.34 3.537 5.62 3.537 9.84 0 3.06-.516 5.57-1.546 7.53s-2.518 3.48-4.465 4.57c-1.948 1.09-4.374 1.63-7.28 1.63-2.953 0-5.397-.47-7.333-1.41-1.935-.94-3.504-2.43-4.706-4.46-1.203-2.04-1.805-4.59-1.805-7.65Zm8.092.04c0 2.64.492 4.54 1.474 5.7.983 1.15 2.319 1.73 4.01 1.73 1.739 0 3.085-.57 4.037-1.7.953-1.13 1.43-3.16 1.43-6.09 0-2.47-.498-4.27-1.492-5.4-.994-1.14-2.343-1.71-4.046-1.71-1.632 0-2.942.58-3.93 1.73-.988 1.16-1.483 3.07-1.483 5.74Zm83.743-13.15h22.901v5.23l-14.684 15.33h15.219v5.63h-24.847v-5.43l14.523-15.17h-13.112v-5.59Zm27.402 0h8.11V1853h-8.11v-26.19Zm13.826 0h10.647l4.108 15.93 4.091-15.93h10.611V1853h-6.61v-19.97l-5.127 19.97h-5.984l-5.109-19.97V1853h-6.627v-26.19Zm33.601 13.11c0-4.27 1.191-7.6 3.573-9.98 2.381-2.39 5.698-3.58 9.949-3.58 4.359 0 7.717 1.17 10.075 3.51 2.358 2.34 3.537 5.62 3.537 9.84 0 3.06-.515 5.57-1.545 7.53-1.03 1.96-2.519 3.48-4.466 4.57-1.947 1.09-4.373 1.63-7.279 1.63-2.954 0-5.398-.47-7.333-1.41-1.935-.94-3.504-2.43-4.707-4.46-1.203-2.04-1.804-4.59-1.804-7.65Zm8.092.04c0 2.64.491 4.54 1.474 5.7.982 1.15 2.319 1.73 4.01 1.73 1.739 0 3.084-.57 4.037-1.7.953-1.13 1.429-3.16 1.429-6.09 0-2.47-.497-4.27-1.492-5.4-.994-1.14-2.343-1.71-4.046-1.71-1.631 0-2.941.58-3.929 1.73-.989 1.16-1.483 3.07-1.483 5.74Zm83.742-13.15h22.901v5.23l-14.683 15.33h15.219v5.63h-24.848v-5.43l14.523-15.17h-13.112v-5.59Zm27.403 0h8.11V1853h-8.11v-26.19Zm13.826 0h10.646l4.109 15.93 4.09-15.93h10.611V1853h-6.609v-19.97l-5.127 19.97h-5.984l-5.109-19.97V1853h-6.627v-26.19Zm33.6 13.11c0-4.27 1.191-7.6 3.573-9.98 2.382-2.39 5.698-3.58 9.95-3.58 4.358 0 7.717 1.17 10.075 3.51 2.358 2.34 3.537 5.62 3.537 9.84 0 3.06-.515 5.57-1.546 7.53-1.03 1.96-2.518 3.48-4.465 4.57-1.947 1.09-4.374 1.63-7.28 1.63-2.953 0-5.397-.47-7.332-1.41-1.936-.94-3.505-2.43-4.707-4.46-1.203-2.04-1.805-4.59-1.805-7.65Zm8.092.04c0 2.64.492 4.54 1.474 5.7.983 1.15 2.319 1.73 4.01 1.73 1.74 0 3.085-.57 4.038-1.7.952-1.13 1.428-3.16 1.428-6.09 0-2.47-.497-4.27-1.491-5.4-.994-1.14-2.343-1.71-4.046-1.71-1.632 0-2.942.58-3.93 1.73-.988 1.16-1.483 3.07-1.483 5.74Zm83.743-13.15h22.9v5.23l-14.683 15.33H.21v5.63h-24.848v-5.43l14.523-15.17h-13.112v-5.59Zm27.402 0h8.11V1853h-8.11v-26.19Zm13.826 0h10.647l4.108 15.93 4.09-15.93h10.612V1853h-6.61v-19.97L35.721 1853h-5.984l-5.108-19.97V1853H18v-26.19Zm33.601 13.11c0-4.27 1.19-7.6 3.573-9.98 2.381-2.39 5.698-3.58 9.95-3.58 4.358 0 7.716 1.17 10.074 3.51 2.358 2.34 3.537 5.62 3.537 9.84 0 3.06-.515 5.57-1.545 7.53-1.03 1.96-2.519 3.48-4.466 4.57-1.947 1.09-4.373 1.63-7.28 1.63-2.952 0-5.397-.47-7.332-1.41-1.935-.94-3.504-2.43-4.707-4.46-1.203-2.04-1.804-4.59-1.804-7.65Zm8.092.04c0 2.64.491 4.54 1.474 5.7.982 1.15 2.319 1.73 4.01 1.73 1.739 0 3.084-.57 4.037-1.7.953-1.13 1.429-3.16 1.429-6.09 0-2.47-.497-4.27-1.492-5.4-.994-1.14-2.343-1.71-4.046-1.71-1.631 0-2.941.58-3.93 1.73-.988 1.16-1.482 3.07-1.482 5.74Zm83.743-13.15h22.9v5.23l-14.683 15.33h15.219v5.63h-24.848v-5.43l14.523-15.17h-13.111v-5.59Zm27.402 0h8.11V1853h-8.11v-26.19Zm13.826 0h10.646l4.109 15.93 4.09-15.93h10.611V1853h-6.609v-19.97l-5.127 19.97h-5.984l-5.109-19.97V1853h-6.627v-26.19Zm33.6 13.11c0-4.27 1.191-7.6 3.573-9.98 2.382-2.39 5.698-3.58 9.95-3.58 4.358 0 7.717 1.17 10.075 3.51 2.358 2.34 3.537 5.62 3.537 9.84 0 3.06-.515 5.57-1.546 7.53-1.03 1.96-2.518 3.48-4.465 4.57-1.947 1.09-4.374 1.63-7.28 1.63-2.953 0-5.397-.47-7.332-1.41-1.936-.94-3.505-2.43-4.707-4.46-1.203-2.04-1.805-4.59-1.805-7.65Zm8.092.04c0 2.64.492 4.54 1.474 5.7.983 1.15 2.319 1.73 4.01 1.73 1.739 0 3.085-.57 4.038-1.7.952-1.13 1.429-3.16 1.429-6.09 0-2.47-.498-4.27-1.492-5.4-.994-1.14-2.343-1.71-4.046-1.71-1.632 0-2.941.58-3.93 1.73-.988 1.16-1.483 3.07-1.483 5.74Zm83.743-13.15h22.901v5.23l-14.684 15.33h15.22v5.63h-24.848v-5.43l14.523-15.17H310.1v-5.59Zm27.402 0h8.11V1853h-8.11v-26.19Zm13.826 0h10.647l4.108 15.93 4.091-15.93h10.611V1853h-6.61v-19.97l-5.126 19.97h-5.985l-5.108-19.97V1853h-6.628v-26.19Zm33.601 13.11c0-4.27 1.191-7.6 3.573-9.98 2.381-2.39 5.698-3.58 9.949-3.58 4.359 0 7.717 1.17 10.075 3.51 2.358 2.34 3.537 5.62 3.537 9.84 0 3.06-.515 5.57-1.545 7.53-1.03 1.96-2.519 3.48-4.466 4.57-1.947 1.09-4.373 1.63-7.279 1.63-2.953 0-5.398-.47-7.333-1.41-1.935-.94-3.504-2.43-4.707-4.46-1.203-2.04-1.804-4.59-1.804-7.65Zm8.092.04c0 2.64.491 4.54 1.474 5.7.982 1.15 2.319 1.73 4.01 1.73 1.739 0 3.084-.57 4.037-1.7.953-1.13 1.429-3.16 1.429-6.09 0-2.47-.497-4.27-1.491-5.4-.995-1.14-2.344-1.71-4.047-1.71-1.631 0-2.941.58-3.929 1.73-.989 1.16-1.483 3.07-1.483 5.74Z" opacity="1"/><path fill="url(#l)" d="M-1050.56 2214.26h22.9v5.23l-14.68 15.33h15.22v5.62h-24.85v-5.43l14.52-15.16h-13.11v-5.59Zm27.4 0h8.11v26.18h-8.11v-26.18Zm13.83 0h10.647l4.108 15.93 4.091-15.93h10.611v26.18h-6.61v-19.97l-5.126 19.97h-5.985l-5.106-19.97v19.97h-6.63v-26.18Zm33.601 13.11c0-4.28 1.191-7.61 3.573-9.99 2.381-2.38 5.698-3.57 9.949-3.57 4.359 0 7.717 1.17 10.075 3.51 2.358 2.34 3.537 5.62 3.537 9.83 0 3.06-.515 5.57-1.545 7.53a10.947 10.947 0 0 1-4.466 4.57c-1.947 1.09-4.373 1.64-7.279 1.64-2.953 0-5.398-.47-7.333-1.41-1.935-.94-3.504-2.43-4.707-4.47-1.203-2.03-1.804-4.58-1.804-7.64Zm8.092.03c0 2.65.491 4.55 1.474 5.7.982 1.16 2.319 1.73 4.01 1.73 1.739 0 3.084-.56 4.037-1.69.953-1.13 1.429-3.16 1.429-6.09 0-2.47-.497-4.27-1.491-5.41-.995-1.14-2.344-1.7-4.046-1.7-1.632 0-2.942.57-3.93 1.73-.989 1.15-1.483 3.07-1.483 5.73Zm83.743-13.14h22.9v5.23l-14.683 15.33h15.219v5.62h-24.848v-5.43l14.523-15.16h-13.111v-5.59Zm27.402 0h8.11v26.18h-8.11v-26.18Zm13.826 0h10.646l4.109 15.93 4.09-15.93h10.611v26.18h-6.609v-19.97l-5.127 19.97h-5.984l-5.109-19.97v19.97h-6.627v-26.18Zm33.6 13.11c0-4.28 1.191-7.61 3.573-9.99 2.382-2.38 5.698-3.57 9.95-3.57 4.359 0 7.717 1.17 10.075 3.51 2.358 2.34 3.537 5.62 3.537 9.83 0 3.06-.515 5.57-1.546 7.53a10.945 10.945 0 0 1-4.465 4.57c-1.947 1.09-4.374 1.64-7.28 1.64-2.953 0-5.397-.47-7.332-1.41-1.936-.94-3.505-2.43-4.707-4.47-1.203-2.03-1.805-4.58-1.805-7.64Zm8.092.03c0 2.65.492 4.55 1.474 5.7.983 1.16 2.319 1.73 4.01 1.73 1.739 0 3.085-.56 4.038-1.69.952-1.13 1.429-3.16 1.429-6.09 0-2.47-.498-4.27-1.492-5.41-.994-1.14-2.343-1.7-4.046-1.7-1.631 0-2.941.57-3.93 1.73-.988 1.15-1.483 3.07-1.483 5.73Zm83.743-13.14h22.901v5.23l-14.684 15.33h15.22v5.62h-24.848v-5.43l14.523-15.16h-13.112v-5.59Zm27.402 0h8.11v26.18h-8.11v-26.18Zm13.826 0h10.647l4.108 15.93 4.091-15.93h10.611v26.18h-6.61v-19.97l-5.126 19.97h-5.985l-5.108-19.97v19.97h-6.628v-26.18Zm33.601 13.11c0-4.28 1.191-7.61 3.573-9.99 2.381-2.38 5.698-3.57 9.949-3.57 4.359 0 7.717 1.17 10.075 3.51 2.358 2.34 3.537 5.62 3.537 9.83 0 3.06-.515 5.57-1.545 7.53a10.947 10.947 0 0 1-4.466 4.57c-1.947 1.09-4.373 1.64-7.279 1.64-2.953 0-5.398-.47-7.333-1.41-1.935-.94-3.504-2.43-4.707-4.47-1.203-2.03-1.804-4.58-1.804-7.64Zm8.092.03c0 2.65.491 4.55 1.474 5.7.982 1.16 2.319 1.73 4.01 1.73 1.739 0 3.084-.56 4.037-1.69.953-1.13 1.429-3.16 1.429-6.09 0-2.47-.497-4.27-1.491-5.41-.995-1.14-2.343-1.7-4.046-1.7-1.632 0-2.942.57-3.93 1.73-.989 1.15-1.483 3.07-1.483 5.73Zm83.743-13.14h22.9v5.23l-14.683 15.33h15.219v5.62h-24.848v-5.43l14.523-15.16h-13.111v-5.59Zm27.402 0h8.11v26.18h-8.11v-26.18Zm13.826 0h10.646l4.109 15.93 4.091-15.93h10.61v26.18h-6.609v-19.97l-5.127 19.97h-5.984l-5.109-19.97v19.97h-6.627v-26.18Zm33.6 13.11c0-4.28 1.191-7.61 3.573-9.99 2.382-2.38 5.698-3.57 9.95-3.57 4.359 0 7.717 1.17 10.075 3.51 2.358 2.34 3.537 5.62 3.537 9.83 0 3.06-.515 5.57-1.545 7.53a10.953 10.953 0 0 1-4.466 4.57c-1.947 1.09-4.374 1.64-7.28 1.64-2.953 0-5.397-.47-7.332-1.41-1.936-.94-3.505-2.43-4.707-4.47-1.203-2.03-1.805-4.58-1.805-7.64Zm8.093.03c0 2.65.491 4.55 1.473 5.7.983 1.16 2.319 1.73 4.011 1.73 1.738 0 3.084-.56 4.037-1.69.952-1.13 1.429-3.16 1.429-6.09 0-2.47-.498-4.27-1.492-5.41-.994-1.14-2.343-1.7-4.046-1.7-1.631 0-2.941.57-3.93 1.73-.988 1.15-1.482 3.07-1.482 5.73Zm83.742-13.14h22.901v5.23l-14.684 15.33h15.22v5.62h-24.848v-5.43l14.523-15.16h-13.112v-5.59Zm27.402 0h8.11v26.18h-8.11v-26.18Zm13.826 0h10.647l4.108 15.93 4.091-15.93h10.611v26.18h-6.61v-19.97l-5.126 19.97h-5.985l-5.108-19.97v19.97h-6.628v-26.18Zm33.601 13.11c0-4.28 1.191-7.61 3.573-9.99 2.381-2.38 5.698-3.57 9.949-3.57 4.359 0 7.717 1.17 10.075 3.51 2.358 2.34 3.537 5.62 3.537 9.83 0 3.06-.515 5.57-1.545 7.53a10.947 10.947 0 0 1-4.466 4.57c-1.947 1.09-4.373 1.64-7.279 1.64-2.953 0-5.398-.47-7.333-1.41-1.935-.94-3.504-2.43-4.707-4.47-1.203-2.03-1.804-4.58-1.804-7.64Zm8.092.03c0 2.65.491 4.55 1.474 5.7.982 1.16 2.319 1.73 4.01 1.73 1.739 0 3.084-.56 4.037-1.69.953-1.13 1.429-3.16 1.429-6.09 0-2.47-.497-4.27-1.491-5.41-.995-1.14-2.343-1.7-4.046-1.7-1.632 0-2.942.57-3.93 1.73-.989 1.15-1.483 3.07-1.483 5.73Zm83.743-13.14h22.9v5.23l-14.683 15.33h15.219v5.62h-24.848v-5.43l14.523-15.16h-13.111v-5.59Zm27.402 0h8.11v26.18h-8.11v-26.18Zm13.826 0h10.646l4.109 15.93 4.091-15.93h10.61v26.18h-6.609v-19.97l-5.127 19.97h-5.984l-5.109-19.97v19.97h-6.627v-26.18Zm33.601 13.11c0-4.28 1.19-7.61 3.572-9.99s5.699-3.57 9.95-3.57c4.359 0 7.717 1.17 10.075 3.51 2.358 2.34 3.537 5.62 3.537 9.83 0 3.06-.515 5.57-1.545 7.53a10.953 10.953 0 0 1-4.466 4.57c-1.947 1.09-4.374 1.64-7.28 1.64-2.953 0-5.397-.47-7.332-1.41-1.936-.94-3.505-2.43-4.707-4.47-1.203-2.03-1.804-4.58-1.804-7.64Zm8.092.03c0 2.65.491 4.55 1.473 5.7.983 1.16 2.32 1.73 4.011 1.73 1.738 0 3.084-.56 4.037-1.69.952-1.13 1.429-3.16 1.429-6.09 0-2.47-.498-4.27-1.492-5.41-.994-1.14-2.343-1.7-4.046-1.7-1.631 0-2.941.57-3.93 1.73-.988 1.15-1.482 3.07-1.482 5.73Zm83.742-13.14h22.9v5.23l-14.683 15.33h15.22v5.62h-24.848v-5.43l14.523-15.16h-13.112v-5.59Zm27.402 0h8.11v26.18h-8.11v-26.18Zm13.826 0H1.298l4.108 15.93 4.091-15.93h10.61v26.18h-6.609v-19.97l-5.126 19.97H2.388l-5.11-19.97v19.97h-6.627v-26.18Zm33.601 13.11c0-4.28 1.19-7.61 3.573-9.99 2.381-2.38 5.698-3.57 9.95-3.57 4.358 0 7.716 1.17 10.074 3.51 2.358 2.34 3.537 5.62 3.537 9.83 0 3.06-.515 5.57-1.545 7.53a10.948 10.948 0 0 1-4.466 4.57c-1.947 1.09-4.373 1.64-7.279 1.64-2.953 0-5.398-.47-7.333-1.41-1.935-.94-3.504-2.43-4.707-4.47-1.203-2.03-1.804-4.58-1.804-7.64Zm8.092.03c0 2.65.491 4.55 1.474 5.7.982 1.16 2.319 1.73 4.01 1.73 1.739 0 3.084-.56 4.037-1.69.953-1.13 1.43-3.16 1.43-6.09 0-2.47-.498-4.27-1.492-5.41-.995-1.14-2.343-1.7-4.046-1.7-1.632 0-2.942.57-3.93 1.73-.989 1.15-1.483 3.07-1.483 5.73Zm83.743-13.14h22.9v5.23l-14.683 15.33h15.219v5.62h-24.848v-5.43l14.523-15.16h-13.111v-5.59Zm27.402 0h8.11v26.18h-8.11v-26.18Zm13.826 0h10.646l4.109 15.93 4.091-15.93h10.61v26.18h-6.609v-19.97l-5.127 19.97h-5.984l-5.109-19.97v19.97h-6.627v-26.18Zm33.601 13.11c0-4.28 1.19-7.61 3.572-9.99s5.699-3.57 9.95-3.57c4.359 0 7.717 1.17 10.075 3.51 2.358 2.34 3.537 5.62 3.537 9.83 0 3.06-.515 5.57-1.545 7.53a10.953 10.953 0 0 1-4.466 4.57c-1.947 1.09-4.374 1.64-7.279 1.64-2.954 0-5.398-.47-7.333-1.41-1.935-.94-3.504-2.43-4.707-4.47-1.203-2.03-1.804-4.58-1.804-7.64Zm8.092.03c0 2.65.491 4.55 1.473 5.7.983 1.16 2.32 1.73 4.011 1.73 1.738 0 3.084-.56 4.037-1.69.952-1.13 1.429-3.16 1.429-6.09 0-2.47-.497-4.27-1.492-5.41-.994-1.14-2.343-1.7-4.046-1.7-1.631 0-2.941.57-3.93 1.73-.988 1.15-1.482 3.07-1.482 5.73Z" opacity="1"/><path fill="url(#m)" d="M-689.881 2613.85h22.901v5.23l-14.684 15.33h15.219v5.62h-24.847v-5.43l14.523-15.16h-13.112v-5.59Zm27.402 0h8.11v26.18h-8.11v-26.18Zm13.826 0h10.647l4.108 15.93 4.091-15.93h10.611v26.18h-6.61v-19.97l-5.127 19.97h-5.984l-5.109-19.97v19.97h-6.627v-26.18Zm33.601 13.11c0-4.28 1.191-7.61 3.572-9.99 2.382-2.38 5.699-3.57 9.95-3.57 4.359 0 7.717 1.17 10.075 3.51 2.358 2.34 3.537 5.62 3.537 9.83 0 3.06-.515 5.57-1.545 7.53a11.03 11.03 0 0 1-4.466 4.58c-1.947 1.09-4.373 1.63-7.279 1.63-2.954 0-5.398-.47-7.333-1.41-1.935-.94-3.504-2.43-4.707-4.47-1.203-2.03-1.804-4.58-1.804-7.64Zm8.092.03c0 2.65.491 4.55 1.474 5.7.982 1.16 2.319 1.73 4.01 1.73 1.739 0 3.084-.56 4.037-1.69.953-1.13 1.429-3.16 1.429-6.09 0-2.47-.497-4.27-1.492-5.41-.994-1.13-2.343-1.7-4.046-1.7-1.631 0-2.941.57-3.929 1.73-.989 1.15-1.483 3.07-1.483 5.73Zm83.742-13.14h22.901v5.23L-515 2634.41h15.219v5.62h-24.848v-5.43l14.523-15.16h-13.112v-5.59Zm27.403 0h8.109v26.18h-8.109v-26.18Zm13.826 0h10.646l4.109 15.93 4.09-15.93h10.611v26.18h-6.609v-19.97l-5.127 19.97h-5.984l-5.109-19.97v19.97h-6.627v-26.18Zm33.6 13.11c0-4.28 1.191-7.61 3.573-9.99 2.382-2.38 5.698-3.57 9.95-3.57 4.358 0 7.717 1.17 10.075 3.51 2.358 2.34 3.537 5.62 3.537 9.83 0 3.06-.516 5.57-1.546 7.53a11.027 11.027 0 0 1-4.465 4.58c-1.948 1.09-4.374 1.63-7.28 1.63-2.953 0-5.397-.47-7.333-1.41-1.935-.94-3.504-2.43-4.706-4.47-1.203-2.03-1.805-4.58-1.805-7.64Zm8.092.03c0 2.65.492 4.55 1.474 5.7.983 1.16 2.319 1.73 4.01 1.73 1.739 0 3.085-.56 4.037-1.69.953-1.13 1.43-3.16 1.43-6.09 0-2.47-.498-4.27-1.492-5.41-.994-1.13-2.343-1.7-4.046-1.7-1.632 0-2.942.57-3.93 1.73-.988 1.15-1.483 3.07-1.483 5.73Zm83.743-13.14h22.901v5.23l-14.684 15.33h15.219v5.62h-24.847v-5.43l14.523-15.16h-13.112v-5.59Zm27.402 0h8.11v26.18h-8.11v-26.18Zm13.826 0h10.647l4.108 15.93 4.091-15.93h10.611v26.18h-6.61v-19.97l-5.127 19.97h-5.984l-5.109-19.97v19.97h-6.627v-26.18Zm33.601 13.11c0-4.28 1.191-7.61 3.573-9.99 2.381-2.38 5.698-3.57 9.949-3.57 4.359 0 7.717 1.17 10.075 3.51 2.358 2.34 3.537 5.62 3.537 9.83 0 3.06-.515 5.57-1.545 7.53a11.03 11.03 0 0 1-4.466 4.58c-1.947 1.09-4.373 1.63-7.279 1.63-2.954 0-5.398-.47-7.333-1.41-1.935-.94-3.504-2.43-4.707-4.47-1.203-2.03-1.804-4.58-1.804-7.64Zm8.092.03c0 2.65.491 4.55 1.474 5.7.982 1.16 2.319 1.73 4.01 1.73 1.739 0 3.084-.56 4.037-1.69.953-1.13 1.429-3.16 1.429-6.09 0-2.47-.497-4.27-1.492-5.41-.994-1.13-2.343-1.7-4.046-1.7-1.631 0-2.941.57-3.929 1.73-.989 1.15-1.483 3.07-1.483 5.73Zm83.742-13.14h22.901v5.23l-14.683 15.33h15.219v5.62h-24.848v-5.43l14.523-15.16h-13.112v-5.59Zm27.403 0h8.11v26.18h-8.11v-26.18Zm13.826 0h10.646l4.109 15.93 4.09-15.93h10.611v26.18h-6.609v-19.97l-5.127 19.97h-5.984l-5.109-19.97v19.97h-6.627v-26.18Zm33.6 13.11c0-4.28 1.191-7.61 3.573-9.99 2.382-2.38 5.698-3.57 9.95-3.57 4.358 0 7.717 1.17 10.075 3.51 2.358 2.34 3.537 5.62 3.537 9.83 0 3.06-.515 5.57-1.546 7.53a11.029 11.029 0 0 1-4.465 4.58c-1.947 1.09-4.374 1.63-7.28 1.63-2.953 0-5.397-.47-7.332-1.41-1.936-.94-3.505-2.43-4.707-4.47-1.203-2.03-1.805-4.58-1.805-7.64Zm8.092.03c0 2.65.492 4.55 1.474 5.7.983 1.16 2.319 1.73 4.01 1.73 1.74 0 3.085-.56 4.038-1.69.952-1.13 1.428-3.16 1.428-6.09 0-2.47-.497-4.27-1.491-5.41-.994-1.13-2.343-1.7-4.046-1.7-1.632 0-2.942.57-3.93 1.73-.988 1.15-1.483 3.07-1.483 5.73Zm83.743-13.14h22.9v5.23l-14.683 15.33H.21v5.62h-24.848v-5.43l14.523-15.16h-13.112v-5.59Zm27.402 0h8.11v26.18h-8.11v-26.18Zm13.826 0h10.647l4.108 15.93 4.09-15.93h10.612v26.18h-6.61v-19.97l-5.127 19.97h-5.984l-5.108-19.97v19.97H18v-26.18Zm33.601 13.11c0-4.28 1.19-7.61 3.573-9.99 2.381-2.38 5.698-3.57 9.95-3.57 4.358 0 7.716 1.17 10.074 3.51 2.358 2.34 3.537 5.62 3.537 9.83 0 3.06-.515 5.57-1.545 7.53a11.029 11.029 0 0 1-4.466 4.58c-1.947 1.09-4.373 1.63-7.28 1.63-2.952 0-5.397-.47-7.332-1.41-1.935-.94-3.504-2.43-4.707-4.47-1.203-2.03-1.804-4.58-1.804-7.64Zm8.092.03c0 2.65.491 4.55 1.474 5.7.982 1.16 2.319 1.73 4.01 1.73 1.739 0 3.084-.56 4.037-1.69.953-1.13 1.429-3.16 1.429-6.09 0-2.47-.497-4.27-1.492-5.41-.994-1.13-2.343-1.7-4.046-1.7-1.631 0-2.941.57-3.93 1.73-.988 1.15-1.482 3.07-1.482 5.73Zm83.743-13.14h22.9v5.23l-14.683 15.33h15.219v5.62h-24.848v-5.43l14.523-15.16h-13.111v-5.59Zm27.402 0h8.11v26.18h-8.11v-26.18Zm13.826 0h10.646l4.109 15.93 4.09-15.93h10.611v26.18h-6.609v-19.97l-5.127 19.97h-5.984l-5.109-19.97v19.97h-6.627v-26.18Zm33.6 13.11c0-4.28 1.191-7.61 3.573-9.99 2.382-2.38 5.698-3.57 9.95-3.57 4.358 0 7.717 1.17 10.075 3.51 2.358 2.34 3.537 5.62 3.537 9.83 0 3.06-.515 5.57-1.546 7.53a11.027 11.027 0 0 1-4.465 4.58c-1.947 1.09-4.374 1.63-7.28 1.63-2.953 0-5.397-.47-7.332-1.41-1.936-.94-3.505-2.43-4.707-4.47-1.203-2.03-1.805-4.58-1.805-7.64Zm8.092.03c0 2.65.492 4.55 1.474 5.7.983 1.16 2.319 1.73 4.01 1.73 1.739 0 3.085-.56 4.038-1.69.952-1.13 1.429-3.16 1.429-6.09 0-2.47-.498-4.27-1.492-5.41-.994-1.13-2.343-1.7-4.046-1.7-1.632 0-2.941.57-3.93 1.73-.988 1.15-1.483 3.07-1.483 5.73Zm83.743-13.14h22.901v5.23l-14.684 15.33h15.22v5.62h-24.848v-5.43l14.523-15.16H310.1v-5.59Zm27.402 0h8.11v26.18h-8.11v-26.18Zm13.826 0h10.647l4.108 15.93 4.091-15.93h10.611v26.18h-6.61v-19.97l-5.126 19.97h-5.985l-5.108-19.97v19.97h-6.628v-26.18Zm33.601 13.11c0-4.28 1.191-7.61 3.573-9.99 2.381-2.38 5.698-3.57 9.949-3.57 4.359 0 7.717 1.17 10.075 3.51 2.358 2.34 3.537 5.62 3.537 9.83 0 3.06-.515 5.57-1.545 7.53a11.03 11.03 0 0 1-4.466 4.58c-1.947 1.09-4.373 1.63-7.279 1.63-2.953 0-5.398-.47-7.333-1.41-1.935-.94-3.504-2.43-4.707-4.47-1.203-2.03-1.804-4.58-1.804-7.64Zm8.092.03c0 2.65.491 4.55 1.474 5.7.982 1.16 2.319 1.73 4.01 1.73 1.739 0 3.084-.56 4.037-1.69.953-1.13 1.429-3.16 1.429-6.09 0-2.47-.497-4.27-1.491-5.41-.995-1.13-2.344-1.7-4.047-1.7-1.631 0-2.941.57-3.929 1.73-.989 1.15-1.483 3.07-1.483 5.73Z" opacity="1"/><path fill="url(#n)" d="M-1050.56 3001.29h22.9v5.24l-14.68 15.32h15.22v5.63h-24.85v-5.43l14.52-15.17h-13.11v-5.59Zm27.4 0h8.11v26.19h-8.11v-26.19Zm13.83 0h10.647l4.108 15.94 4.091-15.94h10.611v26.19h-6.61v-19.97l-5.126 19.97h-5.985l-5.106-19.97v19.97h-6.63v-26.19Zm33.601 13.11c0-4.27 1.191-7.6 3.573-9.98 2.381-2.38 5.698-3.57 9.949-3.57 4.359 0 7.717 1.17 10.075 3.51 2.358 2.34 3.537 5.61 3.537 9.83 0 3.06-.515 5.57-1.545 7.53-1.03 1.96-2.519 3.48-4.466 4.57-1.947 1.09-4.373 1.64-7.279 1.64-2.953 0-5.398-.47-7.333-1.41-1.935-.95-3.504-2.43-4.707-4.47-1.203-2.04-1.804-4.59-1.804-7.65Zm8.092.04c0 2.64.491 4.54 1.474 5.7.982 1.15 2.319 1.73 4.01 1.73 1.739 0 3.084-.56 4.037-1.7.953-1.13 1.429-3.16 1.429-6.09 0-2.46-.497-4.26-1.491-5.4-.995-1.14-2.344-1.71-4.046-1.71-1.632 0-2.942.58-3.93 1.74-.989 1.15-1.483 3.06-1.483 5.73Zm83.743-13.15h22.9v5.24l-14.683 15.32h15.219v5.63h-24.848v-5.43l14.523-15.17h-13.111v-5.59Zm27.402 0h8.11v26.19h-8.11v-26.19Zm13.826 0h10.646l4.109 15.94 4.09-15.94h10.611v26.19h-6.609v-19.97l-5.127 19.97h-5.984l-5.109-19.97v19.97h-6.627v-26.19Zm33.6 13.11c0-4.27 1.191-7.6 3.573-9.98 2.382-2.38 5.698-3.57 9.95-3.57 4.359 0 7.717 1.17 10.075 3.51 2.358 2.34 3.537 5.61 3.537 9.83 0 3.06-.515 5.57-1.546 7.53-1.03 1.96-2.518 3.48-4.465 4.57-1.947 1.09-4.374 1.64-7.28 1.64-2.953 0-5.397-.47-7.332-1.41-1.936-.95-3.505-2.43-4.707-4.47-1.203-2.04-1.805-4.59-1.805-7.65Zm8.092.04c0 2.64.492 4.54 1.474 5.7.983 1.15 2.319 1.73 4.01 1.73 1.739 0 3.085-.56 4.038-1.7.952-1.13 1.429-3.16 1.429-6.09 0-2.46-.498-4.26-1.492-5.4-.994-1.14-2.343-1.71-4.046-1.71-1.631 0-2.941.58-3.93 1.74-.988 1.15-1.483 3.06-1.483 5.73Zm83.743-13.15h22.901v5.24l-14.684 15.32h15.22v5.63h-24.848v-5.43l14.523-15.17h-13.112v-5.59Zm27.402 0h8.11v26.19h-8.11v-26.19Zm13.826 0h10.647l4.108 15.94 4.091-15.94h10.611v26.19h-6.61v-19.97l-5.126 19.97h-5.985l-5.108-19.97v19.97h-6.628v-26.19Zm33.601 13.11c0-4.27 1.191-7.6 3.573-9.98 2.381-2.38 5.698-3.57 9.949-3.57 4.359 0 7.717 1.17 10.075 3.51 2.358 2.34 3.537 5.61 3.537 9.83 0 3.06-.515 5.57-1.545 7.53-1.03 1.96-2.519 3.48-4.466 4.57-1.947 1.09-4.373 1.64-7.279 1.64-2.953 0-5.398-.47-7.333-1.41-1.935-.95-3.504-2.43-4.707-4.47-1.203-2.04-1.804-4.59-1.804-7.65Zm8.092.04c0 2.64.491 4.54 1.474 5.7.982 1.15 2.319 1.73 4.01 1.73 1.739 0 3.084-.56 4.037-1.7.953-1.13 1.429-3.16 1.429-6.09 0-2.46-.497-4.26-1.491-5.4-.995-1.14-2.343-1.71-4.046-1.71-1.632 0-2.942.58-3.93 1.74-.989 1.15-1.483 3.06-1.483 5.73Zm83.743-13.15h22.9v5.24l-14.683 15.32h15.219v5.63h-24.848v-5.43l14.523-15.17h-13.111v-5.59Zm27.402 0h8.11v26.19h-8.11v-26.19Zm13.826 0h10.646l4.109 15.94 4.091-15.94h10.61v26.19h-6.609v-19.97l-5.127 19.97h-5.984l-5.109-19.97v19.97h-6.627v-26.19Zm33.6 13.11c0-4.27 1.191-7.6 3.573-9.98 2.382-2.38 5.698-3.57 9.95-3.57 4.359 0 7.717 1.17 10.075 3.51 2.358 2.34 3.537 5.61 3.537 9.83 0 3.06-.515 5.57-1.545 7.53-1.031 1.96-2.519 3.48-4.466 4.57-1.947 1.09-4.374 1.64-7.28 1.64-2.953 0-5.397-.47-7.332-1.41-1.936-.95-3.505-2.43-4.707-4.47-1.203-2.04-1.805-4.59-1.805-7.65Zm8.093.04c0 2.64.491 4.54 1.473 5.7.983 1.15 2.319 1.73 4.011 1.73 1.738 0 3.084-.56 4.037-1.7.952-1.13 1.429-3.16 1.429-6.09 0-2.46-.498-4.26-1.492-5.4-.994-1.14-2.343-1.71-4.046-1.71-1.631 0-2.941.58-3.93 1.74-.988 1.15-1.482 3.06-1.482 5.73Zm83.742-13.15h22.901v5.24l-14.684 15.32h15.22v5.63h-24.848v-5.43l14.523-15.17h-13.112v-5.59Zm27.402 0h8.11v26.19h-8.11v-26.19Zm13.826 0h10.647l4.108 15.94 4.091-15.94h10.611v26.19h-6.61v-19.97l-5.126 19.97h-5.985l-5.108-19.97v19.97h-6.628v-26.19Zm33.601 13.11c0-4.27 1.191-7.6 3.573-9.98 2.381-2.38 5.698-3.57 9.949-3.57 4.359 0 7.717 1.17 10.075 3.51 2.358 2.34 3.537 5.61 3.537 9.83 0 3.06-.515 5.57-1.545 7.53-1.03 1.96-2.519 3.48-4.466 4.57-1.947 1.09-4.373 1.64-7.279 1.64-2.953 0-5.398-.47-7.333-1.41-1.935-.95-3.504-2.43-4.707-4.47-1.203-2.04-1.804-4.59-1.804-7.65Zm8.092.04c0 2.64.491 4.54 1.474 5.7.982 1.15 2.319 1.73 4.01 1.73 1.739 0 3.084-.56 4.037-1.7.953-1.13 1.429-3.16 1.429-6.09 0-2.46-.497-4.26-1.491-5.4-.995-1.14-2.343-1.71-4.046-1.71-1.632 0-2.942.58-3.93 1.74-.989 1.15-1.483 3.06-1.483 5.73Zm83.743-13.15h22.9v5.24l-14.683 15.32h15.219v5.63h-24.848v-5.43l14.523-15.17h-13.111v-5.59Zm27.402 0h8.11v26.19h-8.11v-26.19Zm13.826 0h10.646l4.109 15.94 4.091-15.94h10.61v26.19h-6.609v-19.97l-5.127 19.97h-5.984l-5.109-19.97v19.97h-6.627v-26.19Zm33.601 13.11c0-4.27 1.19-7.6 3.572-9.98 2.382-2.38 5.699-3.57 9.95-3.57 4.359 0 7.717 1.17 10.075 3.51 2.358 2.34 3.537 5.61 3.537 9.83 0 3.06-.515 5.57-1.545 7.53-1.031 1.96-2.519 3.48-4.466 4.57-1.947 1.09-4.374 1.64-7.28 1.64-2.953 0-5.397-.47-7.332-1.41-1.936-.95-3.505-2.43-4.707-4.47-1.203-2.04-1.804-4.59-1.804-7.65Zm8.092.04c0 2.64.491 4.54 1.473 5.7.983 1.15 2.32 1.73 4.011 1.73 1.738 0 3.084-.56 4.037-1.7.952-1.13 1.429-3.16 1.429-6.09 0-2.46-.498-4.26-1.492-5.4-.994-1.14-2.343-1.71-4.046-1.71-1.631 0-2.941.58-3.93 1.74-.988 1.15-1.482 3.06-1.482 5.73Zm83.742-13.15h22.9v5.24l-14.683 15.32h15.22v5.63h-24.848v-5.43l14.523-15.17h-13.112v-5.59Zm27.402 0h8.11v26.19h-8.11v-26.19Zm13.826 0H1.298l4.108 15.94 4.091-15.94h10.61v26.19h-6.609v-19.97l-5.126 19.97H2.388l-5.11-19.97v19.97h-6.627v-26.19Zm33.601 13.11c0-4.27 1.19-7.6 3.573-9.98 2.381-2.38 5.698-3.57 9.95-3.57 4.358 0 7.716 1.17 10.074 3.51 2.358 2.34 3.537 5.61 3.537 9.83 0 3.06-.515 5.57-1.545 7.53-1.03 1.96-2.519 3.48-4.466 4.57-1.947 1.09-4.373 1.64-7.279 1.64-2.953 0-5.398-.47-7.333-1.41-1.935-.95-3.504-2.43-4.707-4.47-1.203-2.04-1.804-4.59-1.804-7.65Zm8.092.04c0 2.64.491 4.54 1.474 5.7.982 1.15 2.319 1.73 4.01 1.73 1.739 0 3.084-.56 4.037-1.7.953-1.13 1.43-3.16 1.43-6.09 0-2.46-.498-4.26-1.492-5.4-.995-1.14-2.343-1.71-4.046-1.71-1.632 0-2.942.58-3.93 1.74-.989 1.15-1.483 3.06-1.483 5.73Zm83.743-13.15h22.9v5.24l-14.683 15.32h15.219v5.63h-24.848v-5.43l14.523-15.17h-13.111v-5.59Zm27.402 0h8.11v26.19h-8.11v-26.19Zm13.826 0h10.646l4.109 15.94 4.091-15.94h10.61v26.19h-6.609v-19.97l-5.127 19.97h-5.984l-5.109-19.97v19.97h-6.627v-26.19Zm33.601 13.11c0-4.27 1.19-7.6 3.572-9.98 2.382-2.38 5.699-3.57 9.95-3.57 4.359 0 7.717 1.17 10.075 3.51 2.358 2.34 3.537 5.61 3.537 9.83 0 3.06-.515 5.57-1.545 7.53-1.031 1.96-2.519 3.48-4.466 4.57-1.947 1.09-4.374 1.64-7.279 1.64-2.954 0-5.398-.47-7.333-1.41-1.935-.95-3.504-2.43-4.707-4.47-1.203-2.04-1.804-4.59-1.804-7.65Zm8.092.04c0 2.64.491 4.54 1.473 5.7.983 1.15 2.32 1.73 4.011 1.73 1.738 0 3.084-.56 4.037-1.7.952-1.13 1.429-3.16 1.429-6.09 0-2.46-.497-4.26-1.492-5.4-.994-1.14-2.343-1.71-4.046-1.71-1.631 0-2.941.58-3.93 1.74-.988 1.15-1.482 3.06-1.482 5.73Z" opacity="1"/></g><g opacity=".202"><path fill="#ff7900" d="M452.232 903.235c-85.847 0-155.439 69.593-155.439 155.435v1015.54c0 85.85 69.592 155.44 155.439 155.44H1467.77c85.84 0 155.44-69.59 155.44-155.44V1058.67c0-85.842-69.6-155.435-155.44-155.435H452.232ZM960 1255.56c171.69 0 310.88 139.19 310.88 310.88 0 171.7-139.19 310.88-310.88 310.88-171.693 0-310.878-139.18-310.878-310.88 0-171.69 139.185-310.88 310.878-310.88Z" opacity="1"/></g><g opacity=".202"><path fill="#ff8100" d="M672.579 660.229c-85.847 0-155.439 69.593-155.439 155.439V1831.2c0 85.85 69.592 155.44 155.439 155.44H1688.12c85.84 0 155.43-69.59 155.43-155.44V815.668c0-85.846-69.59-155.439-155.43-155.439H672.579Zm507.771 352.331c171.69 0 310.88 139.18 310.88 310.88 0 171.69-139.19 310.87-310.88 310.87-171.7 0-310.881-139.18-310.881-310.87 0-171.7 139.181-310.88 310.881-310.88Z" opacity="1"/></g><g opacity=".202"><path fill="#ff8200" d="M833.501 451.98c-85.846 0-155.439 69.593-155.439 155.439V1622.96c0 85.84 69.593 155.43 155.439 155.43H1849.04c85.84 0 155.44-69.59 155.44-155.43V607.419c0-85.846-69.6-155.439-155.44-155.439H833.501Zm507.769 352.329c171.69 0 310.88 139.185 310.88 310.881 0 171.69-139.19 310.88-310.88 310.88s-310.88-139.19-310.88-310.88c0-171.696 139.19-310.881 310.88-310.881Z" opacity="1"/></g><g opacity=".202"><path fill="#ff6700" d="M993.688 296.793c-85.847 0-155.439 69.592-155.439 155.439V1467.77c0 85.84 69.592 155.44 155.439 155.44H2009.22c85.85 0 155.44-69.6 155.44-155.44V452.232c0-85.847-69.59-155.439-155.44-155.439H993.688Zm507.772 352.329c171.69 0 310.87 139.185 310.87 310.878 0 171.69-139.18 310.88-310.87 310.88-171.7 0-310.88-139.19-310.88-310.88 0-171.693 139.18-310.878 310.88-310.878Z" opacity="1"/></g><g opacity=".202"><path fill="#ffa600" d="M282.59 1137.09c-85.847 0-155.439 69.59-155.439 155.44v1015.53c0 85.85 69.592 155.44 155.439 155.44h1015.54c85.84 0 155.44-69.59 155.44-155.44V1292.53c0-85.85-69.6-155.44-155.44-155.44H282.59Zm507.768 352.33c171.694 0 310.882 139.18 310.882 310.88 0 171.69-139.188 310.88-310.882 310.88-171.693 0-310.878-139.19-310.878-310.88 0-171.7 139.185-310.88 310.878-310.88Z" opacity="1"/></g></g></svg>