<svg xmlns="http://www.w3.org/2000/svg" fill="none" viewBox="0 0 1920 1920"><g clip-path="url(#a)"><path fill="url(#b)" d="M0 0h1920v1920H0z"/><path fill="#FF7900" d="M601.977 875.572c-73.143 0-132.437 59.281-132.437 132.398v865.06c0 73.13 59.294 132.41 132.437 132.41h865.263c73.13 0 132.43-59.28 132.43-132.41v-865.06c0-73.117-59.3-132.398-132.43-132.398zm432.633 300.118c146.28 0 264.87 118.56 264.87 264.81 0 146.26-118.59 264.82-264.87 264.82-146.29 0-264.879-118.56-264.879-264.82 0-146.25 118.589-264.81 264.879-264.81" opacity=".202"/><path fill="#FF8100" d="M789.714 668.586c-73.143 0-132.437 59.281-132.437 132.406v865.048c0 73.13 59.294 132.41 132.437 132.41h865.266c73.13 0 132.43-59.28 132.43-132.41V800.992c0-73.125-59.3-132.406-132.43-132.406zm432.636 300.122c146.28 0 264.87 118.552 264.87 264.812 0 146.25-118.59 264.81-264.87 264.81-146.3 0-264.881-118.56-264.881-264.81 0-146.26 118.581-264.812 264.881-264.812" opacity=".202"/><path fill="#FF8200" d="M926.823 491.191c-73.143 0-132.437 59.281-132.437 132.406v865.053c0 73.12 59.294 132.4 132.437 132.4h865.257c73.14 0 132.44-59.28 132.44-132.4V623.597c0-73.125-59.3-132.406-132.44-132.406zm432.627 300.121c146.29 0 264.88 118.56 264.88 264.818 0 146.24-118.59 264.81-264.88 264.81-146.28 0-264.87-118.57-264.87-264.81 0-146.258 118.59-264.818 264.87-264.818" opacity=".202"/><path fill="#FF6700" d="M1063.31 359c-73.145 0-132.439 59.28-132.439 132.406v865.054c0 73.12 59.294 132.41 132.439 132.41h865.25c73.15 0 132.44-59.29 132.44-132.41V491.406C2061 418.28 2001.71 359 1928.56 359zm432.63 300.12c146.28 0 264.87 118.561 264.87 264.812 0 146.248-118.59 264.818-264.87 264.818-146.29 0-264.88-118.57-264.88-264.818 0-146.251 118.59-264.812 264.88-264.812" opacity=".202"/><path fill="#FFA600" d="M457.437 1074.78c-73.143 0-132.437 59.28-132.437 132.41v865.04c0 73.13 59.294 132.41 132.437 132.41H1322.7c73.13 0 132.44-59.28 132.44-132.41v-865.04c0-73.13-59.31-132.41-132.44-132.41zm432.629 300.12c146.284 0 264.874 118.56 264.874 264.81s-118.59 264.82-264.874 264.82c-146.286 0-264.875-118.57-264.875-264.82S743.78 1374.9 890.066 1374.9" opacity=".202"/></g><defs><linearGradient id="b" x1="382.126" x2="1593.61" y1="1551.72" y2="324.215" gradientUnits="userSpaceOnUse"><stop stop-color="#FFEDE5"/><stop offset="1" stop-color="#FFFBE4"/></linearGradient><clipPath id="a"><path fill="#fff" d="M0 0h1920v1920H0z"/></clipPath></defs></svg>