<svg xmlns="http://www.w3.org/2000/svg" xml:space="preserve" stroke-miterlimit="10" style="fill-rule:nonzero;clip-rule:evenodd;stroke-linecap:round;stroke-linejoin:round" viewBox="0 0 1920 1920"><defs><linearGradient id="b" x1="382.126" x2="1593.61" y1="1551.72" y2="324.217" gradientTransform="translate(-2372.35 -3429.43) scale(4.57232)" gradientUnits="userSpaceOnUse"><stop offset="0" stop-color="#ffede5"/><stop offset="1" stop-color="#fffbe4"/></linearGradient><linearGradient id="c" x1="200.954" x2="810.903" y1="318.391" y2="318.391" gradientTransform="matrix(8.45531 0 0 1.42327 -2392.53 -1635.7)" gradientUnits="userSpaceOnUse"><stop offset=".001" stop-color="#ffaf65"/><stop offset="1" stop-color="#ffcb4c"/></linearGradient><linearGradient id="d" x1="200.954" x2="810.903" y1="318.391" y2="318.391" gradientTransform="matrix(10.0702 0 0 1.34241 -3077.73 -1229.88)" gradientUnits="userSpaceOnUse"><stop offset=".001" stop-color="#ffaf65"/><stop offset="1" stop-color="#ffcb4c"/></linearGradient><linearGradient id="e" x1="200.954" x2="810.903" y1="318.391" y2="318.391" gradientTransform="matrix(8.45531 0 0 1.42327 -2392.53 -848.662)" gradientUnits="userSpaceOnUse"><stop offset=".001" stop-color="#ffaf65"/><stop offset="1" stop-color="#ffcb4c"/></linearGradient><linearGradient id="f" x1="200.954" x2="810.903" y1="318.391" y2="318.391" gradientTransform="matrix(10.0702 0 0 1.34241 -3077.73 -442.846)" gradientUnits="userSpaceOnUse"><stop offset=".001" stop-color="#ffaf65"/><stop offset="1" stop-color="#ffcb4c"/></linearGradient><linearGradient id="g" x1="200.954" x2="810.903" y1="318.391" y2="318.391" gradientTransform="matrix(8.45531 0 0 1.42327 -2392.53 -73.662)" gradientUnits="userSpaceOnUse"><stop offset=".001" stop-color="#ffaf65"/><stop offset="1" stop-color="#ffcb4c"/></linearGradient><linearGradient id="h" x1="200.954" x2="810.903" y1="318.391" y2="318.391" gradientTransform="matrix(10.0702 0 0 1.34241 -3077.73 332.153)" gradientUnits="userSpaceOnUse"><stop offset=".001" stop-color="#ffaf65"/><stop offset="1" stop-color="#ffcb4c"/></linearGradient><linearGradient id="i" x1="200.954" x2="810.903" y1="318.391" y2="318.391" gradientTransform="matrix(8.45531 0 0 1.42327 -2392.53 713.375)" gradientUnits="userSpaceOnUse"><stop offset=".001" stop-color="#ffaf65"/><stop offset="1" stop-color="#ffcb4c"/></linearGradient><linearGradient id="j" x1="200.954" x2="810.903" y1="318.391" y2="318.391" gradientTransform="matrix(10.0702 0 0 1.34241 -3077.73 1119.19)" gradientUnits="userSpaceOnUse"><stop offset=".001" stop-color="#ffaf65"/><stop offset="1" stop-color="#ffcb4c"/></linearGradient><linearGradient id="k" x1="200.954" x2="810.903" y1="318.391" y2="318.391" gradientTransform="matrix(8.45531 0 0 1.42327 -2392.53 1489.65)" gradientUnits="userSpaceOnUse"><stop offset=".001" stop-color="#ffaf65"/><stop offset="1" stop-color="#ffcb4c"/></linearGradient><linearGradient id="l" x1="200.954" x2="810.903" y1="318.391" y2="318.391" gradientTransform="matrix(10.0702 0 0 1.34241 -3077.73 1895.47)" gradientUnits="userSpaceOnUse"><stop offset=".001" stop-color="#ffaf65"/><stop offset="1" stop-color="#ffcb4c"/></linearGradient><linearGradient id="m" x1="200.954" x2="810.903" y1="318.391" y2="318.391" gradientTransform="matrix(8.45531 0 0 1.42327 -2392.53 2276.69)" gradientUnits="userSpaceOnUse"><stop offset=".001" stop-color="#ffaf65"/><stop offset="1" stop-color="#ffcb4c"/></linearGradient><linearGradient id="n" x1="200.954" x2="810.903" y1="318.391" y2="318.391" gradientTransform="matrix(10.0702 0 0 1.34241 -3077.73 2682.51)" gradientUnits="userSpaceOnUse"><stop offset=".001" stop-color="#ffaf65"/><stop offset="1" stop-color="#ffcb4c"/></linearGradient></defs><clipPath id="a"><path d="M0 0h1920v1920H0z"/></clipPath><g clip-path="url(#a)"><path fill="url(#b)" d="M-2372.35-3429.43H6406.5v8778.86h-8778.85v-8778.86Z"/><g opacity=".204"><g fill="url(#c)" opacity="1"><path d="M-689.881-1298.54h22.901v5.23l-14.684 15.33h15.219v5.62h-24.847v-5.43l14.523-15.16h-13.112v-5.59ZM-662.479-1298.54h8.11v26.18h-8.11v-26.18ZM-648.653-1298.54h10.647l4.108 15.93 4.091-15.93h10.611v26.18h-6.61v-19.97l-5.127 19.97h-5.984l-5.109-19.97v19.97h-6.627v-26.18ZM-615.052-1285.43c0-4.28 1.191-7.61 3.572-9.99 2.382-2.38 5.699-3.57 9.95-3.57 4.359 0 7.717 1.17 10.075 3.51 2.358 2.34 3.537 5.62 3.537 9.83 0 3.06-.515 5.57-1.545 7.53a11.03 11.03 0 0 1-4.466 4.58c-1.947 1.09-4.373 1.63-7.279 1.63-2.954 0-5.398-.47-7.333-1.41-1.935-.94-3.504-2.43-4.707-4.47-1.203-2.03-1.804-4.58-1.804-7.64Zm8.092.03c0 2.65.491 4.55 1.474 5.7.982 1.16 2.319 1.73 4.01 1.73 1.739 0 3.084-.56 4.037-1.69.953-1.13 1.429-3.16 1.429-6.09 0-2.47-.497-4.27-1.492-5.41-.994-1.13-2.343-1.7-4.046-1.7-1.631 0-2.941.57-3.929 1.73-.989 1.15-1.483 3.07-1.483 5.73ZM-523.218-1298.54h22.901v5.23L-515-1277.98h15.219v5.62h-24.848v-5.43l14.523-15.16h-13.112v-5.59ZM-495.815-1298.54h8.109v26.18h-8.109v-26.18ZM-481.989-1298.54h10.646l4.109 15.93 4.09-15.93h10.611v26.18h-6.609v-19.97l-5.127 19.97h-5.984l-5.109-19.97v19.97h-6.627v-26.18ZM-448.389-1285.43c0-4.28 1.191-7.61 3.573-9.99 2.382-2.38 5.698-3.57 9.95-3.57 4.358 0 7.717 1.17 10.075 3.51 2.358 2.34 3.537 5.62 3.537 9.83 0 3.06-.516 5.57-1.546 7.53a11.027 11.027 0 0 1-4.465 4.58c-1.948 1.09-4.374 1.63-7.28 1.63-2.953 0-5.397-.47-7.333-1.41-1.935-.94-3.504-2.43-4.706-4.47-1.203-2.03-1.805-4.58-1.805-7.64Zm8.092.03c0 2.65.492 4.55 1.474 5.7.983 1.16 2.319 1.73 4.01 1.73 1.739 0 3.085-.56 4.037-1.69.953-1.13 1.43-3.16 1.43-6.09 0-2.47-.498-4.27-1.492-5.41-.994-1.13-2.343-1.7-4.046-1.7-1.632 0-2.942.57-3.93 1.73-.988 1.15-1.483 3.07-1.483 5.73ZM-356.554-1298.54h22.901v5.23l-14.684 15.33h15.219v5.62h-24.847v-5.43l14.523-15.16h-13.112v-5.59ZM-329.152-1298.54h8.11v26.18h-8.11v-26.18ZM-315.326-1298.54h10.647l4.108 15.93 4.091-15.93h10.611v26.18h-6.61v-19.97l-5.127 19.97h-5.984l-5.109-19.97v19.97h-6.627v-26.18ZM-281.725-1285.43c0-4.28 1.191-7.61 3.573-9.99 2.381-2.38 5.698-3.57 9.949-3.57 4.359 0 7.717 1.17 10.075 3.51 2.358 2.34 3.537 5.62 3.537 9.83 0 3.06-.515 5.57-1.545 7.53a11.03 11.03 0 0 1-4.466 4.58c-1.947 1.09-4.373 1.63-7.279 1.63-2.954 0-5.398-.47-7.333-1.41-1.935-.94-3.504-2.43-4.707-4.47-1.203-2.03-1.804-4.58-1.804-7.64Zm8.092.03c0 2.65.491 4.55 1.474 5.7.982 1.16 2.319 1.73 4.01 1.73 1.739 0 3.084-.56 4.037-1.69.953-1.13 1.429-3.16 1.429-6.09 0-2.47-.497-4.27-1.492-5.41-.994-1.13-2.343-1.7-4.046-1.7-1.631 0-2.941.57-3.929 1.73-.989 1.15-1.483 3.07-1.483 5.73ZM-189.891-1298.54h22.901v5.23l-14.683 15.33h15.219v5.62h-24.848v-5.43l14.523-15.16h-13.112v-5.59ZM-162.488-1298.54h8.11v26.18h-8.11v-26.18ZM-148.662-1298.54h10.646l4.109 15.93 4.09-15.93h10.611v26.18h-6.609v-19.97l-5.127 19.97h-5.984l-5.109-19.97v19.97h-6.627v-26.18ZM-115.062-1285.43c0-4.28 1.191-7.61 3.573-9.99 2.382-2.38 5.698-3.57 9.95-3.57 4.358 0 7.717 1.17 10.075 3.51 2.358 2.34 3.537 5.62 3.537 9.83 0 3.06-.515 5.57-1.546 7.53a11.029 11.029 0 0 1-4.465 4.58c-1.947 1.09-4.374 1.63-7.28 1.63-2.953 0-5.397-.47-7.332-1.41-1.936-.94-3.505-2.43-4.707-4.47-1.203-2.03-1.805-4.58-1.805-7.64Zm8.092.03c0 2.65.492 4.55 1.474 5.7.983 1.16 2.319 1.73 4.01 1.73 1.74 0 3.085-.56 4.038-1.69.952-1.13 1.428-3.16 1.428-6.09 0-2.47-.497-4.27-1.491-5.41-.994-1.13-2.343-1.7-4.046-1.7-1.632 0-2.942.57-3.93 1.73-.988 1.15-1.483 3.07-1.483 5.73ZM-23.227-1298.54h22.9v5.23l-14.683 15.33H.21v5.62h-24.848v-5.43l14.523-15.16h-13.112v-5.59ZM4.175-1298.54h8.11v26.18h-8.11v-26.18ZM18.001-1298.54h10.647l4.108 15.93 4.09-15.93h10.612v26.18h-6.61v-19.97l-5.127 19.97h-5.984l-5.108-19.97v19.97H18v-26.18ZM51.602-1285.43c0-4.28 1.19-7.61 3.573-9.99 2.381-2.38 5.698-3.57 9.95-3.57 4.358 0 7.716 1.17 10.074 3.51 2.358 2.34 3.537 5.62 3.537 9.83 0 3.06-.515 5.57-1.545 7.53a11.029 11.029 0 0 1-4.466 4.58c-1.947 1.09-4.373 1.63-7.28 1.63-2.952 0-5.397-.47-7.332-1.41-1.935-.94-3.504-2.43-4.707-4.47-1.203-2.03-1.804-4.58-1.804-7.64Zm8.092.03c0 2.65.491 4.55 1.474 5.7.982 1.16 2.319 1.73 4.01 1.73 1.739 0 3.084-.56 4.037-1.69.953-1.13 1.429-3.16 1.429-6.09 0-2.47-.497-4.27-1.492-5.41-.994-1.13-2.343-1.7-4.046-1.7-1.631 0-2.941.57-3.93 1.73-.988 1.15-1.482 3.07-1.482 5.73ZM143.437-1298.54h22.9v5.23l-14.683 15.33h15.219v5.62h-24.848v-5.43l14.523-15.16h-13.111v-5.59ZM170.839-1298.54h8.11v26.18h-8.11v-26.18ZM184.665-1298.54h10.646l4.109 15.93 4.09-15.93h10.611v26.18h-6.609v-19.97l-5.127 19.97h-5.984l-5.109-19.97v19.97h-6.627v-26.18ZM218.265-1285.43c0-4.28 1.191-7.61 3.573-9.99 2.382-2.38 5.698-3.57 9.95-3.57 4.358 0 7.717 1.17 10.075 3.51 2.358 2.34 3.537 5.62 3.537 9.83 0 3.06-.515 5.57-1.546 7.53a11.027 11.027 0 0 1-4.465 4.58c-1.947 1.09-4.374 1.63-7.28 1.63-2.953 0-5.397-.47-7.332-1.41-1.936-.94-3.505-2.43-4.707-4.47-1.203-2.03-1.805-4.58-1.805-7.64Zm8.092.03c0 2.65.492 4.55 1.474 5.7.983 1.16 2.319 1.73 4.01 1.73 1.739 0 3.085-.56 4.038-1.69.952-1.13 1.429-3.16 1.429-6.09 0-2.47-.498-4.27-1.492-5.41-.994-1.13-2.343-1.7-4.046-1.7-1.632 0-2.941.57-3.93 1.73-.988 1.15-1.483 3.07-1.483 5.73ZM310.1-1298.54h22.901v5.23l-14.684 15.33h15.22v5.62h-24.848v-5.43l14.523-15.16H310.1v-5.59ZM337.502-1298.54h8.11v26.18h-8.11v-26.18ZM351.328-1298.54h10.647l4.108 15.93 4.091-15.93h10.611v26.18h-6.61v-19.97l-5.126 19.97h-5.985l-5.108-19.97v19.97h-6.628v-26.18ZM384.929-1285.43c0-4.28 1.191-7.61 3.573-9.99 2.381-2.38 5.698-3.57 9.949-3.57 4.359 0 7.717 1.17 10.075 3.51 2.358 2.34 3.537 5.62 3.537 9.83 0 3.06-.515 5.57-1.545 7.53a11.03 11.03 0 0 1-4.466 4.58c-1.947 1.09-4.373 1.63-7.279 1.63-2.953 0-5.398-.47-7.333-1.41-1.935-.94-3.504-2.43-4.707-4.47-1.203-2.03-1.804-4.58-1.804-7.64Zm8.092.03c0 2.65.491 4.55 1.474 5.7.982 1.16 2.319 1.73 4.01 1.73 1.739 0 3.084-.56 4.037-1.69.953-1.13 1.429-3.16 1.429-6.09 0-2.47-.497-4.27-1.491-5.41-.995-1.13-2.344-1.7-4.047-1.7-1.631 0-2.941.57-3.929 1.73-.989 1.15-1.483 3.07-1.483 5.73Z"/></g><g fill="url(#d)" opacity="1"><path d="M-1050.56-911.098h22.9v5.234l-14.68 15.327h15.22v5.627h-24.85v-5.431l14.52-15.166h-13.11v-5.591ZM-1023.16-911.098h8.11v26.188h-8.11v-26.188ZM-1009.33-911.098h10.647l4.108 15.934 4.091-15.934h10.611v26.188h-6.61v-19.972l-5.126 19.972h-5.985l-5.106-19.972v19.972h-6.63v-26.188ZM-975.729-897.986c0-4.276 1.191-7.604 3.573-9.986 2.381-2.382 5.698-3.572 9.949-3.572 4.359 0 7.717 1.17 10.075 3.51 2.358 2.34 3.537 5.618 3.537 9.833 0 3.061-.515 5.571-1.545 7.53-1.03 1.959-2.519 3.483-4.466 4.573-1.947 1.089-4.373 1.634-7.279 1.634-2.953 0-5.398-.47-7.333-1.411-1.935-.941-3.504-2.429-4.707-4.466-1.203-2.036-1.804-4.585-1.804-7.645Zm8.092.035c0 2.644.491 4.544 1.474 5.699.982 1.155 2.319 1.732 4.01 1.732 1.739 0 3.084-.565 4.037-1.697.953-1.131 1.429-3.161 1.429-6.091 0-2.465-.497-4.266-1.491-5.403-.995-1.138-2.344-1.706-4.046-1.706-1.632 0-2.942.577-3.93 1.732-.989 1.155-1.483 3.067-1.483 5.734ZM-883.894-911.098h22.9v5.234l-14.683 15.327h15.219v5.627h-24.848v-5.431l14.523-15.166h-13.111v-5.591ZM-856.492-911.098h8.11v26.188h-8.11v-26.188ZM-842.666-911.098h10.646l4.109 15.934 4.09-15.934h10.611v26.188h-6.609v-19.972l-5.127 19.972h-5.984l-5.109-19.972v19.972h-6.627v-26.188ZM-809.066-897.986c0-4.276 1.191-7.604 3.573-9.986 2.382-2.382 5.698-3.572 9.95-3.572 4.359 0 7.717 1.17 10.075 3.51 2.358 2.34 3.537 5.618 3.537 9.833 0 3.061-.515 5.571-1.546 7.53-1.03 1.959-2.518 3.483-4.465 4.573-1.947 1.089-4.374 1.634-7.28 1.634-2.953 0-5.397-.47-7.332-1.411-1.936-.941-3.505-2.429-4.707-4.466-1.203-2.036-1.805-4.585-1.805-7.645Zm8.092.035c0 2.644.492 4.544 1.474 5.699.983 1.155 2.319 1.732 4.01 1.732 1.739 0 3.085-.565 4.038-1.697.952-1.131 1.429-3.161 1.429-6.091 0-2.465-.498-4.266-1.492-5.403-.994-1.138-2.343-1.706-4.046-1.706-1.631 0-2.941.577-3.93 1.732-.988 1.155-1.483 3.067-1.483 5.734ZM-717.231-911.098h22.901v5.234l-14.684 15.327h15.22v5.627h-24.848v-5.431l14.523-15.166h-13.112v-5.591ZM-689.829-911.098h8.11v26.188h-8.11v-26.188ZM-676.003-911.098h10.647l4.108 15.934 4.091-15.934h10.611v26.188h-6.61v-19.972l-5.126 19.972h-5.985l-5.108-19.972v19.972h-6.628v-26.188ZM-642.402-897.986c0-4.276 1.191-7.604 3.573-9.986 2.381-2.382 5.698-3.572 9.949-3.572 4.359 0 7.717 1.17 10.075 3.51 2.358 2.34 3.537 5.618 3.537 9.833 0 3.061-.515 5.571-1.545 7.53-1.03 1.959-2.519 3.483-4.466 4.573-1.947 1.089-4.373 1.634-7.279 1.634-2.953 0-5.398-.47-7.333-1.411-1.935-.941-3.504-2.429-4.707-4.466-1.203-2.036-1.804-4.585-1.804-7.645Zm8.092.035c0 2.644.491 4.544 1.474 5.699.982 1.155 2.319 1.732 4.01 1.732 1.739 0 3.084-.565 4.037-1.697.953-1.131 1.429-3.161 1.429-6.091 0-2.465-.497-4.266-1.491-5.403-.995-1.138-2.343-1.706-4.046-1.706-1.632 0-2.942.577-3.93 1.732-.989 1.155-1.483 3.067-1.483 5.734ZM-550.567-911.098h22.9v5.234l-14.683 15.327h15.219v5.627h-24.848v-5.431l14.523-15.166h-13.111v-5.591ZM-523.165-911.098h8.11v26.188h-8.11v-26.188ZM-509.339-911.098h10.646l4.109 15.934 4.091-15.934h10.61v26.188h-6.609v-19.972l-5.127 19.972h-5.984l-5.109-19.972v19.972h-6.627v-26.188ZM-475.739-897.986c0-4.276 1.191-7.604 3.573-9.986 2.382-2.382 5.698-3.572 9.95-3.572 4.359 0 7.717 1.17 10.075 3.51 2.358 2.34 3.537 5.618 3.537 9.833 0 3.061-.515 5.571-1.545 7.53-1.031 1.959-2.519 3.483-4.466 4.573-1.947 1.089-4.374 1.634-7.28 1.634-2.953 0-5.397-.47-7.332-1.411-1.936-.941-3.505-2.429-4.707-4.466-1.203-2.036-1.805-4.585-1.805-7.645Zm8.093.035c0 2.644.491 4.544 1.473 5.699.983 1.155 2.319 1.732 4.011 1.732 1.738 0 3.084-.565 4.037-1.697.952-1.131 1.429-3.161 1.429-6.091 0-2.465-.498-4.266-1.492-5.403-.994-1.138-2.343-1.706-4.046-1.706-1.631 0-2.941.577-3.93 1.732-.988 1.155-1.482 3.067-1.482 5.734ZM-383.904-911.098h22.901v5.234l-14.684 15.327h15.22v5.627h-24.848v-5.431l14.523-15.166h-13.112v-5.591ZM-356.502-911.098h8.11v26.188h-8.11v-26.188ZM-342.676-911.098h10.647l4.108 15.934 4.091-15.934h10.611v26.188h-6.61v-19.972l-5.126 19.972h-5.985l-5.108-19.972v19.972h-6.628v-26.188ZM-309.075-897.986c0-4.276 1.191-7.604 3.573-9.986 2.381-2.382 5.698-3.572 9.949-3.572 4.359 0 7.717 1.17 10.075 3.51 2.358 2.34 3.537 5.618 3.537 9.833 0 3.061-.515 5.571-1.545 7.53-1.03 1.959-2.519 3.483-4.466 4.573-1.947 1.089-4.373 1.634-7.279 1.634-2.953 0-5.398-.47-7.333-1.411-1.935-.941-3.504-2.429-4.707-4.466-1.203-2.036-1.804-4.585-1.804-7.645Zm8.092.035c0 2.644.491 4.544 1.474 5.699.982 1.155 2.319 1.732 4.01 1.732 1.739 0 3.084-.565 4.037-1.697.953-1.131 1.429-3.161 1.429-6.091 0-2.465-.497-4.266-1.491-5.403-.995-1.138-2.343-1.706-4.046-1.706-1.632 0-2.942.577-3.93 1.732-.989 1.155-1.483 3.067-1.483 5.734ZM-217.24-911.098h22.9v5.234l-14.683 15.327h15.219v5.627h-24.848v-5.431l14.523-15.166h-13.111v-5.591ZM-189.838-911.098h8.11v26.188h-8.11v-26.188ZM-176.012-911.098h10.646l4.109 15.934 4.091-15.934h10.61v26.188h-6.609v-19.972l-5.127 19.972h-5.984l-5.109-19.972v19.972h-6.627v-26.188ZM-142.411-897.986c0-4.276 1.19-7.604 3.572-9.986 2.382-2.382 5.699-3.572 9.95-3.572 4.359 0 7.717 1.17 10.075 3.51 2.358 2.34 3.537 5.618 3.537 9.833 0 3.061-.515 5.571-1.545 7.53-1.031 1.959-2.519 3.483-4.466 4.573-1.947 1.089-4.374 1.634-7.28 1.634-2.953 0-5.397-.47-7.332-1.411-1.936-.941-3.505-2.429-4.707-4.466-1.203-2.036-1.804-4.585-1.804-7.645Zm8.092.035c0 2.644.491 4.544 1.473 5.699.983 1.155 2.32 1.732 4.011 1.732 1.738 0 3.084-.565 4.037-1.697.952-1.131 1.429-3.161 1.429-6.091 0-2.465-.498-4.266-1.492-5.403-.994-1.138-2.343-1.706-4.046-1.706-1.631 0-2.941.577-3.93 1.732-.988 1.155-1.482 3.067-1.482 5.734ZM-50.577-911.098h22.9v5.234l-14.683 15.327h15.22v5.627h-24.848v-5.431l14.523-15.166h-13.112v-5.591ZM-23.175-911.098h8.11v26.188h-8.11v-26.188ZM-9.349-911.098H1.298l4.108 15.934 4.091-15.934h10.61v26.188h-6.609v-19.972L8.372-884.91H2.388l-5.11-19.972v19.972h-6.627v-26.188ZM24.252-897.986c0-4.276 1.19-7.604 3.573-9.986 2.381-2.382 5.698-3.572 9.95-3.572 4.358 0 7.716 1.17 10.074 3.51 2.358 2.34 3.537 5.618 3.537 9.833 0 3.061-.515 5.571-1.545 7.53-1.03 1.959-2.519 3.483-4.466 4.573-1.947 1.089-4.373 1.634-7.279 1.634-2.953 0-5.398-.47-7.333-1.411-1.935-.941-3.504-2.429-4.707-4.466-1.203-2.036-1.804-4.585-1.804-7.645Zm8.092.035c0 2.644.491 4.544 1.474 5.699.982 1.155 2.319 1.732 4.01 1.732 1.739 0 3.084-.565 4.037-1.697.953-1.131 1.43-3.161 1.43-6.091 0-2.465-.498-4.266-1.492-5.403-.995-1.138-2.343-1.706-4.046-1.706-1.632 0-2.942.577-3.93 1.732-.989 1.155-1.483 3.067-1.483 5.734ZM116.087-911.098h22.9v5.234l-14.683 15.327h15.219v5.627h-24.848v-5.431l14.523-15.166h-13.111v-5.591ZM143.489-911.098h8.11v26.188h-8.11v-26.188ZM157.315-911.098h10.646l4.109 15.934 4.091-15.934h10.61v26.188h-6.609v-19.972l-5.127 19.972h-5.984l-5.109-19.972v19.972h-6.627v-26.188ZM190.916-897.986c0-4.276 1.19-7.604 3.572-9.986 2.382-2.382 5.699-3.572 9.95-3.572 4.359 0 7.717 1.17 10.075 3.51 2.358 2.34 3.537 5.618 3.537 9.833 0 3.061-.515 5.571-1.545 7.53-1.031 1.959-2.519 3.483-4.466 4.573-1.947 1.089-4.374 1.634-7.279 1.634-2.954 0-5.398-.47-7.333-1.411-1.935-.941-3.504-2.429-4.707-4.466-1.203-2.036-1.804-4.585-1.804-7.645Zm8.092.035c0 2.644.491 4.544 1.473 5.699.983 1.155 2.32 1.732 4.011 1.732 1.738 0 3.084-.565 4.037-1.697.952-1.131 1.429-3.161 1.429-6.091 0-2.465-.497-4.266-1.492-5.403-.994-1.138-2.343-1.706-4.046-1.706-1.631 0-2.941.577-3.93 1.732-.988 1.155-1.482 3.067-1.482 5.734Z"/></g><g fill="url(#e)" opacity="1"><path d="M-689.881-511.507h22.901v5.234l-14.684 15.327h15.219v5.627h-24.847v-5.431l14.523-15.166h-13.112v-5.591ZM-662.479-511.507h8.11v26.188h-8.11v-26.188ZM-648.653-511.507h10.647l4.108 15.934 4.091-15.934h10.611v26.188h-6.61v-19.971l-5.127 19.971h-5.984l-5.109-19.971v19.971h-6.627v-26.188ZM-615.052-498.395c0-4.275 1.191-7.604 3.572-9.986 2.382-2.381 5.699-3.572 9.95-3.572 4.359 0 7.717 1.17 10.075 3.51 2.358 2.34 3.537 5.618 3.537 9.833 0 3.061-.515 5.571-1.545 7.53-1.03 1.959-2.519 3.483-4.466 4.573-1.947 1.089-4.373 1.634-7.279 1.634-2.954 0-5.398-.47-7.333-1.411-1.935-.941-3.504-2.429-4.707-4.466-1.203-2.036-1.804-4.585-1.804-7.645Zm8.092.036c0 2.643.491 4.543 1.474 5.698.982 1.155 2.319 1.733 4.01 1.733 1.739 0 3.084-.566 4.037-1.697.953-1.132 1.429-3.162 1.429-6.092 0-2.465-.497-4.266-1.492-5.403-.994-1.138-2.343-1.706-4.046-1.706-1.631 0-2.941.577-3.929 1.732-.989 1.156-1.483 3.067-1.483 5.735ZM-523.218-511.507h22.901v5.234L-515-490.946h15.219v5.627h-24.848v-5.431l14.523-15.166h-13.112v-5.591ZM-495.815-511.507h8.109v26.188h-8.109v-26.188ZM-481.989-511.507h10.646l4.109 15.934 4.09-15.934h10.611v26.188h-6.609v-19.971l-5.127 19.971h-5.984l-5.109-19.971v19.971h-6.627v-26.188ZM-448.389-498.395c0-4.275 1.191-7.604 3.573-9.986 2.382-2.381 5.698-3.572 9.95-3.572 4.358 0 7.717 1.17 10.075 3.51 2.358 2.34 3.537 5.618 3.537 9.833 0 3.061-.516 5.571-1.546 7.53-1.03 1.959-2.518 3.483-4.465 4.573-1.948 1.089-4.374 1.634-7.28 1.634-2.953 0-5.397-.47-7.333-1.411-1.935-.941-3.504-2.429-4.706-4.466-1.203-2.036-1.805-4.585-1.805-7.645Zm8.092.036c0 2.643.492 4.543 1.474 5.698.983 1.155 2.319 1.733 4.01 1.733 1.739 0 3.085-.566 4.037-1.697.953-1.132 1.43-3.162 1.43-6.092 0-2.465-.498-4.266-1.492-5.403-.994-1.138-2.343-1.706-4.046-1.706-1.632 0-2.942.577-3.93 1.732-.988 1.156-1.483 3.067-1.483 5.735ZM-356.554-511.507h22.901v5.234l-14.684 15.327h15.219v5.627h-24.847v-5.431l14.523-15.166h-13.112v-5.591ZM-329.152-511.507h8.11v26.188h-8.11v-26.188ZM-315.326-511.507h10.647l4.108 15.934 4.091-15.934h10.611v26.188h-6.61v-19.971l-5.127 19.971h-5.984l-5.109-19.971v19.971h-6.627v-26.188ZM-281.725-498.395c0-4.275 1.191-7.604 3.573-9.986 2.381-2.381 5.698-3.572 9.949-3.572 4.359 0 7.717 1.17 10.075 3.51 2.358 2.34 3.537 5.618 3.537 9.833 0 3.061-.515 5.571-1.545 7.53-1.03 1.959-2.519 3.483-4.466 4.573-1.947 1.089-4.373 1.634-7.279 1.634-2.954 0-5.398-.47-7.333-1.411-1.935-.941-3.504-2.429-4.707-4.466-1.203-2.036-1.804-4.585-1.804-7.645Zm8.092.036c0 2.643.491 4.543 1.474 5.698.982 1.155 2.319 1.733 4.01 1.733 1.739 0 3.084-.566 4.037-1.697.953-1.132 1.429-3.162 1.429-6.092 0-2.465-.497-4.266-1.492-5.403-.994-1.138-2.343-1.706-4.046-1.706-1.631 0-2.941.577-3.929 1.732-.989 1.156-1.483 3.067-1.483 5.735ZM-189.891-511.507h22.901v5.234l-14.683 15.327h15.219v5.627h-24.848v-5.431l14.523-15.166h-13.112v-5.591ZM-162.488-511.507h8.11v26.188h-8.11v-26.188ZM-148.662-511.507h10.646l4.109 15.934 4.09-15.934h10.611v26.188h-6.609v-19.971l-5.127 19.971h-5.984l-5.109-19.971v19.971h-6.627v-26.188ZM-115.062-498.395c0-4.275 1.191-7.604 3.573-9.986 2.382-2.381 5.698-3.572 9.95-3.572 4.358 0 7.717 1.17 10.075 3.51 2.358 2.34 3.537 5.618 3.537 9.833 0 3.061-.515 5.571-1.546 7.53-1.03 1.959-2.518 3.483-4.465 4.573-1.947 1.089-4.374 1.634-7.28 1.634-2.953 0-5.397-.47-7.332-1.411-1.936-.941-3.505-2.429-4.707-4.466-1.203-2.036-1.805-4.585-1.805-7.645Zm8.092.036c0 2.643.492 4.543 1.474 5.698.983 1.155 2.319 1.733 4.01 1.733 1.74 0 3.085-.566 4.038-1.697.952-1.132 1.428-3.162 1.428-6.092 0-2.465-.497-4.266-1.491-5.403-.994-1.138-2.343-1.706-4.046-1.706-1.632 0-2.942.577-3.93 1.732-.988 1.156-1.483 3.067-1.483 5.735ZM-23.227-511.507h22.9v5.234l-14.683 15.327H.21v5.627h-24.848v-5.431l14.523-15.166h-13.112v-5.591ZM4.175-511.507h8.11v26.188h-8.11v-26.188ZM18.001-511.507h10.647l4.108 15.934 4.09-15.934h10.612v26.188h-6.61v-19.971l-5.127 19.971h-5.984L24.63-505.29v19.971H18v-26.188ZM51.602-498.395c0-4.275 1.19-7.604 3.573-9.986 2.381-2.381 5.698-3.572 9.95-3.572 4.358 0 7.716 1.17 10.074 3.51 2.358 2.34 3.537 5.618 3.537 9.833 0 3.061-.515 5.571-1.545 7.53-1.03 1.959-2.519 3.483-4.466 4.573-1.947 1.089-4.373 1.634-7.28 1.634-2.952 0-5.397-.47-7.332-1.411-1.935-.941-3.504-2.429-4.707-4.466-1.203-2.036-1.804-4.585-1.804-7.645Zm8.092.036c0 2.643.491 4.543 1.474 5.698.982 1.155 2.319 1.733 4.01 1.733 1.739 0 3.084-.566 4.037-1.697.953-1.132 1.429-3.162 1.429-6.092 0-2.465-.497-4.266-1.492-5.403-.994-1.138-2.343-1.706-4.046-1.706-1.631 0-2.941.577-3.93 1.732-.988 1.156-1.482 3.067-1.482 5.735ZM143.437-511.507h22.9v5.234l-14.683 15.327h15.219v5.627h-24.848v-5.431l14.523-15.166h-13.111v-5.591ZM170.839-511.507h8.11v26.188h-8.11v-26.188ZM184.665-511.507h10.646l4.109 15.934 4.09-15.934h10.611v26.188h-6.609v-19.971l-5.127 19.971h-5.984l-5.109-19.971v19.971h-6.627v-26.188ZM218.265-498.395c0-4.275 1.191-7.604 3.573-9.986 2.382-2.381 5.698-3.572 9.95-3.572 4.358 0 7.717 1.17 10.075 3.51 2.358 2.34 3.537 5.618 3.537 9.833 0 3.061-.515 5.571-1.546 7.53-1.03 1.959-2.518 3.483-4.465 4.573-1.947 1.089-4.374 1.634-7.28 1.634-2.953 0-5.397-.47-7.332-1.411-1.936-.941-3.505-2.429-4.707-4.466-1.203-2.036-1.805-4.585-1.805-7.645Zm8.092.036c0 2.643.492 4.543 1.474 5.698.983 1.155 2.319 1.733 4.01 1.733 1.739 0 3.085-.566 4.038-1.697.952-1.132 1.429-3.162 1.429-6.092 0-2.465-.498-4.266-1.492-5.403-.994-1.138-2.343-1.706-4.046-1.706-1.632 0-2.941.577-3.93 1.732-.988 1.156-1.483 3.067-1.483 5.735ZM310.1-511.507h22.901v5.234l-14.684 15.327h15.22v5.627h-24.848v-5.431l14.523-15.166H310.1v-5.591ZM337.502-511.507h8.11v26.188h-8.11v-26.188ZM351.328-511.507h10.647l4.108 15.934 4.091-15.934h10.611v26.188h-6.61v-19.971l-5.126 19.971h-5.985l-5.108-19.971v19.971h-6.628v-26.188ZM384.929-498.395c0-4.275 1.191-7.604 3.573-9.986 2.381-2.381 5.698-3.572 9.949-3.572 4.359 0 7.717 1.17 10.075 3.51 2.358 2.34 3.537 5.618 3.537 9.833 0 3.061-.515 5.571-1.545 7.53-1.03 1.959-2.519 3.483-4.466 4.573-1.947 1.089-4.373 1.634-7.279 1.634-2.953 0-5.398-.47-7.333-1.411-1.935-.941-3.504-2.429-4.707-4.466-1.203-2.036-1.804-4.585-1.804-7.645Zm8.092.036c0 2.643.491 4.543 1.474 5.698.982 1.155 2.319 1.733 4.01 1.733 1.739 0 3.084-.566 4.037-1.697.953-1.132 1.429-3.162 1.429-6.092 0-2.465-.497-4.266-1.491-5.403-.995-1.138-2.344-1.706-4.047-1.706-1.631 0-2.941.577-3.929 1.732-.989 1.156-1.483 3.067-1.483 5.735Z"/></g><g fill="url(#f)" opacity="1"><path d="M-1050.56-124.061h22.9v5.234l-14.68 15.326h15.22v5.627h-24.85v-5.43l14.52-15.166h-13.11v-5.591ZM-1023.16-124.061h8.11v26.187h-8.11v-26.187ZM-1009.33-124.061h10.647l4.108 15.934 4.091-15.934h10.611v26.187h-6.61v-19.971l-5.126 19.971h-5.985l-5.106-19.971v19.971h-6.63v-26.187ZM-975.729-110.949c0-4.276 1.191-7.604 3.573-9.986 2.381-2.382 5.698-3.573 9.949-3.573 4.359 0 7.717 1.17 10.075 3.51 2.358 2.341 3.537 5.618 3.537 9.834 0 3.061-.515 5.57-1.545 7.529-1.03 1.959-2.519 3.484-4.466 4.574-1.947 1.09-4.373 1.634-7.279 1.634-2.953 0-5.398-.47-7.333-1.411-1.935-.941-3.504-2.43-4.707-4.466-1.203-2.036-1.804-4.585-1.804-7.645Zm8.092.035c0 2.644.491 4.543 1.474 5.699.982 1.155 2.319 1.732 4.01 1.732 1.739 0 3.084-.565 4.037-1.697.953-1.131 1.429-3.161 1.429-6.091 0-2.465-.497-4.266-1.491-5.404-.995-1.137-2.344-1.706-4.046-1.706-1.632 0-2.942.578-3.93 1.733-.989 1.155-1.483 3.067-1.483 5.734ZM-883.894-124.061h22.9v5.234l-14.683 15.326h15.219v5.627h-24.848v-5.43l14.523-15.166h-13.111v-5.591ZM-856.492-124.061h8.11v26.187h-8.11v-26.187ZM-842.666-124.061h10.646l4.109 15.934 4.09-15.934h10.611v26.187h-6.609v-19.971l-5.127 19.971h-5.984l-5.109-19.971v19.971h-6.627v-26.187ZM-809.066-110.949c0-4.276 1.191-7.604 3.573-9.986 2.382-2.382 5.698-3.573 9.95-3.573 4.359 0 7.717 1.17 10.075 3.51 2.358 2.341 3.537 5.618 3.537 9.834 0 3.061-.515 5.57-1.546 7.529-1.03 1.959-2.518 3.484-4.465 4.574-1.947 1.09-4.374 1.634-7.28 1.634-2.953 0-5.397-.47-7.332-1.411-1.936-.941-3.505-2.43-4.707-4.466-1.203-2.036-1.805-4.585-1.805-7.645Zm8.092.035c0 2.644.492 4.543 1.474 5.699.983 1.155 2.319 1.732 4.01 1.732 1.739 0 3.085-.565 4.038-1.697.952-1.131 1.429-3.161 1.429-6.091 0-2.465-.498-4.266-1.492-5.404-.994-1.137-2.343-1.706-4.046-1.706-1.631 0-2.941.578-3.93 1.733-.988 1.155-1.483 3.067-1.483 5.734ZM-717.231-124.061h22.901v5.234l-14.684 15.326h15.22v5.627h-24.848v-5.43l14.523-15.166h-13.112v-5.591ZM-689.829-124.061h8.11v26.187h-8.11v-26.187ZM-676.003-124.061h10.647l4.108 15.934 4.091-15.934h10.611v26.187h-6.61v-19.971l-5.126 19.971h-5.985l-5.108-19.971v19.971h-6.628v-26.187ZM-642.402-110.949c0-4.276 1.191-7.604 3.573-9.986 2.381-2.382 5.698-3.573 9.949-3.573 4.359 0 7.717 1.17 10.075 3.51 2.358 2.341 3.537 5.618 3.537 9.834 0 3.061-.515 5.57-1.545 7.529-1.03 1.959-2.519 3.484-4.466 4.574-1.947 1.09-4.373 1.634-7.279 1.634-2.953 0-5.398-.47-7.333-1.411-1.935-.941-3.504-2.43-4.707-4.466-1.203-2.036-1.804-4.585-1.804-7.645Zm8.092.035c0 2.644.491 4.543 1.474 5.699.982 1.155 2.319 1.732 4.01 1.732 1.739 0 3.084-.565 4.037-1.697.953-1.131 1.429-3.161 1.429-6.091 0-2.465-.497-4.266-1.491-5.404-.995-1.137-2.343-1.706-4.046-1.706-1.632 0-2.942.578-3.93 1.733-.989 1.155-1.483 3.067-1.483 5.734ZM-550.567-124.061h22.9v5.234l-14.683 15.326h15.219v5.627h-24.848v-5.43l14.523-15.166h-13.111v-5.591ZM-523.165-124.061h8.11v26.187h-8.11v-26.187ZM-509.339-124.061h10.646l4.109 15.934 4.091-15.934h10.61v26.187h-6.609v-19.971l-5.127 19.971h-5.984l-5.109-19.971v19.971h-6.627v-26.187ZM-475.739-110.949c0-4.276 1.191-7.604 3.573-9.986 2.382-2.382 5.698-3.573 9.95-3.573 4.359 0 7.717 1.17 10.075 3.51 2.358 2.341 3.537 5.618 3.537 9.834 0 3.061-.515 5.57-1.545 7.529-1.031 1.959-2.519 3.484-4.466 4.574-1.947 1.09-4.374 1.634-7.28 1.634-2.953 0-5.397-.47-7.332-1.411-1.936-.941-3.505-2.43-4.707-4.466-1.203-2.036-1.805-4.585-1.805-7.645Zm8.093.035c0 2.644.491 4.543 1.473 5.699.983 1.155 2.319 1.732 4.011 1.732 1.738 0 3.084-.565 4.037-1.697.952-1.131 1.429-3.161 1.429-6.091 0-2.465-.498-4.266-1.492-5.404-.994-1.137-2.343-1.706-4.046-1.706-1.631 0-2.941.578-3.93 1.733-.988 1.155-1.482 3.067-1.482 5.734ZM-383.904-124.061h22.901v5.234l-14.684 15.326h15.22v5.627h-24.848v-5.43l14.523-15.166h-13.112v-5.591ZM-356.502-124.061h8.11v26.187h-8.11v-26.187ZM-342.676-124.061h10.647l4.108 15.934 4.091-15.934h10.611v26.187h-6.61v-19.971l-5.126 19.971h-5.985l-5.108-19.971v19.971h-6.628v-26.187ZM-309.075-110.949c0-4.276 1.191-7.604 3.573-9.986 2.381-2.382 5.698-3.573 9.949-3.573 4.359 0 7.717 1.17 10.075 3.51 2.358 2.341 3.537 5.618 3.537 9.834 0 3.061-.515 5.57-1.545 7.529-1.03 1.959-2.519 3.484-4.466 4.574-1.947 1.09-4.373 1.634-7.279 1.634-2.953 0-5.398-.47-7.333-1.411-1.935-.941-3.504-2.43-4.707-4.466-1.203-2.036-1.804-4.585-1.804-7.645Zm8.092.035c0 2.644.491 4.543 1.474 5.699.982 1.155 2.319 1.732 4.01 1.732 1.739 0 3.084-.565 4.037-1.697.953-1.131 1.429-3.161 1.429-6.091 0-2.465-.497-4.266-1.491-5.404-.995-1.137-2.343-1.706-4.046-1.706-1.632 0-2.942.578-3.93 1.733-.989 1.155-1.483 3.067-1.483 5.734ZM-217.24-124.061h22.9v5.234l-14.683 15.326h15.219v5.627h-24.848v-5.43l14.523-15.166h-13.111v-5.591ZM-189.838-124.061h8.11v26.187h-8.11v-26.187ZM-176.012-124.061h10.646l4.109 15.934 4.091-15.934h10.61v26.187h-6.609v-19.971l-5.127 19.971h-5.984l-5.109-19.971v19.971h-6.627v-26.187ZM-142.411-110.949c0-4.276 1.19-7.604 3.572-9.986 2.382-2.382 5.699-3.573 9.95-3.573 4.359 0 7.717 1.17 10.075 3.51 2.358 2.341 3.537 5.618 3.537 9.834 0 3.061-.515 5.57-1.545 7.529-1.031 1.959-2.519 3.484-4.466 4.574-1.947 1.09-4.374 1.634-7.28 1.634-2.953 0-5.397-.47-7.332-1.411-1.936-.941-3.505-2.43-4.707-4.466-1.203-2.036-1.804-4.585-1.804-7.645Zm8.092.035c0 2.644.491 4.543 1.473 5.699.983 1.155 2.32 1.732 4.011 1.732 1.738 0 3.084-.565 4.037-1.697.952-1.131 1.429-3.161 1.429-6.091 0-2.465-.498-4.266-1.492-5.404-.994-1.137-2.343-1.706-4.046-1.706-1.631 0-2.941.578-3.93 1.733-.988 1.155-1.482 3.067-1.482 5.734ZM-50.577-124.061h22.9v5.234l-14.683 15.326h15.22v5.627h-24.848v-5.43l14.523-15.166h-13.112v-5.591ZM-23.175-124.061h8.11v26.187h-8.11v-26.187ZM-9.349-124.061H1.298l4.108 15.934 4.091-15.934h10.61v26.187h-6.609v-19.971L8.372-97.874H2.388l-5.11-19.971v19.971h-6.627v-26.187ZM24.252-110.949c0-4.276 1.19-7.604 3.573-9.986 2.381-2.382 5.698-3.573 9.95-3.573 4.358 0 7.716 1.17 10.074 3.51 2.358 2.341 3.537 5.618 3.537 9.834 0 3.061-.515 5.57-1.545 7.529-1.03 1.959-2.519 3.484-4.466 4.574-1.947 1.09-4.373 1.634-7.279 1.634-2.953 0-5.398-.47-7.333-1.411-1.935-.941-3.504-2.43-4.707-4.466-1.203-2.036-1.804-4.585-1.804-7.645Zm8.092.035c0 2.644.491 4.543 1.474 5.699.982 1.155 2.319 1.732 4.01 1.732 1.739 0 3.084-.565 4.037-1.697.953-1.131 1.43-3.161 1.43-6.091 0-2.465-.498-4.266-1.492-5.404-.995-1.137-2.343-1.706-4.046-1.706-1.632 0-2.942.578-3.93 1.733-.989 1.155-1.483 3.067-1.483 5.734ZM116.087-124.061h22.9v5.234l-14.683 15.326h15.219v5.627h-24.848v-5.43l14.523-15.166h-13.111v-5.591ZM143.489-124.061h8.11v26.187h-8.11v-26.187ZM157.315-124.061h10.646l4.109 15.934 4.091-15.934h10.61v26.187h-6.609v-19.971l-5.127 19.971h-5.984l-5.109-19.971v19.971h-6.627v-26.187ZM190.916-110.949c0-4.276 1.19-7.604 3.572-9.986 2.382-2.382 5.699-3.573 9.95-3.573 4.359 0 7.717 1.17 10.075 3.51 2.358 2.341 3.537 5.618 3.537 9.834 0 3.061-.515 5.57-1.545 7.529-1.031 1.959-2.519 3.484-4.466 4.574-1.947 1.09-4.374 1.634-7.279 1.634-2.954 0-5.398-.47-7.333-1.411-1.935-.941-3.504-2.43-4.707-4.466-1.203-2.036-1.804-4.585-1.804-7.645Zm8.092.035c0 2.644.491 4.543 1.473 5.699.983 1.155 2.32 1.732 4.011 1.732 1.738 0 3.084-.565 4.037-1.697.952-1.131 1.429-3.161 1.429-6.091 0-2.465-.497-4.266-1.492-5.404-.994-1.137-2.343-1.706-4.046-1.706-1.631 0-2.941.578-3.93 1.733-.988 1.155-1.482 3.067-1.482 5.734Z"/></g><g fill="url(#g)" opacity="1"><path d="M-689.881 263.493h22.901v5.234l-14.684 15.326h15.219v5.627h-24.847v-5.43l14.523-15.166h-13.112v-5.591ZM-662.479 263.493h8.11v26.187h-8.11v-26.187ZM-648.653 263.493h10.647l4.108 15.934 4.091-15.934h10.611v26.187h-6.61v-19.971l-5.127 19.971h-5.984l-5.109-19.971v19.971h-6.627v-26.187ZM-615.052 276.604c0-4.275 1.191-7.603 3.572-9.985 2.382-2.382 5.699-3.573 9.95-3.573 4.359 0 7.717 1.17 10.075 3.51 2.358 2.34 3.537 5.618 3.537 9.834 0 3.061-.515 5.57-1.545 7.529-1.03 1.959-2.519 3.484-4.466 4.573-1.947 1.09-4.373 1.635-7.279 1.635-2.954 0-5.398-.471-7.333-1.411-1.935-.941-3.504-2.43-4.707-4.466-1.203-2.037-1.804-4.585-1.804-7.646Zm8.092.036c0 2.644.491 4.543 1.474 5.699.982 1.155 2.319 1.732 4.01 1.732 1.739 0 3.084-.565 4.037-1.697.953-1.131 1.429-3.162 1.429-6.091 0-2.465-.497-4.266-1.492-5.404-.994-1.137-2.343-1.706-4.046-1.706-1.631 0-2.941.578-3.929 1.733-.989 1.155-1.483 3.067-1.483 5.734ZM-523.218 263.493h22.901v5.234L-515 284.053h15.219v5.627h-24.848v-5.43l14.523-15.166h-13.112v-5.591ZM-495.815 263.493h8.109v26.187h-8.109v-26.187ZM-481.989 263.493h10.646l4.109 15.934 4.09-15.934h10.611v26.187h-6.609v-19.971l-5.127 19.971h-5.984l-5.109-19.971v19.971h-6.627v-26.187ZM-448.389 276.604c0-4.275 1.191-7.603 3.573-9.985 2.382-2.382 5.698-3.573 9.95-3.573 4.358 0 7.717 1.17 10.075 3.51 2.358 2.34 3.537 5.618 3.537 9.834 0 3.061-.516 5.57-1.546 7.529-1.03 1.959-2.518 3.484-4.465 4.573-1.948 1.09-4.374 1.635-7.28 1.635-2.953 0-5.397-.471-7.333-1.411-1.935-.941-3.504-2.43-4.706-4.466-1.203-2.037-1.805-4.585-1.805-7.646Zm8.092.036c0 2.644.492 4.543 1.474 5.699.983 1.155 2.319 1.732 4.01 1.732 1.739 0 3.085-.565 4.037-1.697.953-1.131 1.43-3.162 1.43-6.091 0-2.465-.498-4.266-1.492-5.404-.994-1.137-2.343-1.706-4.046-1.706-1.632 0-2.942.578-3.93 1.733-.988 1.155-1.483 3.067-1.483 5.734ZM-356.554 263.493h22.901v5.234l-14.684 15.326h15.219v5.627h-24.847v-5.43l14.523-15.166h-13.112v-5.591ZM-329.152 263.493h8.11v26.187h-8.11v-26.187ZM-315.326 263.493h10.647l4.108 15.934 4.091-15.934h10.611v26.187h-6.61v-19.971l-5.127 19.971h-5.984l-5.109-19.971v19.971h-6.627v-26.187ZM-281.725 276.604c0-4.275 1.191-7.603 3.573-9.985 2.381-2.382 5.698-3.573 9.949-3.573 4.359 0 7.717 1.17 10.075 3.51 2.358 2.34 3.537 5.618 3.537 9.834 0 3.061-.515 5.57-1.545 7.529-1.03 1.959-2.519 3.484-4.466 4.573-1.947 1.09-4.373 1.635-7.279 1.635-2.954 0-5.398-.471-7.333-1.411-1.935-.941-3.504-2.43-4.707-4.466-1.203-2.037-1.804-4.585-1.804-7.646Zm8.092.036c0 2.644.491 4.543 1.474 5.699.982 1.155 2.319 1.732 4.01 1.732 1.739 0 3.084-.565 4.037-1.697.953-1.131 1.429-3.162 1.429-6.091 0-2.465-.497-4.266-1.492-5.404-.994-1.137-2.343-1.706-4.046-1.706-1.631 0-2.941.578-3.929 1.733-.989 1.155-1.483 3.067-1.483 5.734ZM-189.891 263.493h22.901v5.234l-14.683 15.326h15.219v5.627h-24.848v-5.43l14.523-15.166h-13.112v-5.591ZM-162.488 263.493h8.11v26.187h-8.11v-26.187ZM-148.662 263.493h10.646l4.109 15.934 4.09-15.934h10.611v26.187h-6.609v-19.971l-5.127 19.971h-5.984l-5.109-19.971v19.971h-6.627v-26.187ZM-115.062 276.604c0-4.275 1.191-7.603 3.573-9.985 2.382-2.382 5.698-3.573 9.95-3.573 4.358 0 7.717 1.17 10.075 3.51 2.358 2.34 3.537 5.618 3.537 9.834 0 3.061-.515 5.57-1.546 7.529-1.03 1.959-2.518 3.484-4.465 4.573-1.947 1.09-4.374 1.635-7.28 1.635-2.953 0-5.397-.471-7.332-1.411-1.936-.941-3.505-2.43-4.707-4.466-1.203-2.037-1.805-4.585-1.805-7.646Zm8.092.036c0 2.644.492 4.543 1.474 5.699.983 1.155 2.319 1.732 4.01 1.732 1.74 0 3.085-.565 4.038-1.697.952-1.131 1.428-3.162 1.428-6.091 0-2.465-.497-4.266-1.491-5.404-.994-1.137-2.343-1.706-4.046-1.706-1.632 0-2.942.578-3.93 1.733-.988 1.155-1.483 3.067-1.483 5.734ZM-23.227 263.493h22.9v5.234l-14.683 15.326H.21v5.627h-24.848v-5.43l14.523-15.166h-13.112v-5.591ZM4.175 263.493h8.11v26.187h-8.11v-26.187ZM18.001 263.493h10.647l4.108 15.934 4.09-15.934h10.612v26.187h-6.61v-19.971l-5.127 19.971h-5.984l-5.108-19.971v19.971H18v-26.187ZM51.602 276.604c0-4.275 1.19-7.603 3.573-9.985 2.381-2.382 5.698-3.573 9.95-3.573 4.358 0 7.716 1.17 10.074 3.51 2.358 2.34 3.537 5.618 3.537 9.834 0 3.061-.515 5.57-1.545 7.529-1.03 1.959-2.519 3.484-4.466 4.573-1.947 1.09-4.373 1.635-7.28 1.635-2.952 0-5.397-.471-7.332-1.411-1.935-.941-3.504-2.43-4.707-4.466-1.203-2.037-1.804-4.585-1.804-7.646Zm8.092.036c0 2.644.491 4.543 1.474 5.699.982 1.155 2.319 1.732 4.01 1.732 1.739 0 3.084-.565 4.037-1.697.953-1.131 1.429-3.162 1.429-6.091 0-2.465-.497-4.266-1.492-5.404-.994-1.137-2.343-1.706-4.046-1.706-1.631 0-2.941.578-3.93 1.733-.988 1.155-1.482 3.067-1.482 5.734ZM143.437 263.493h22.9v5.234l-14.683 15.326h15.219v5.627h-24.848v-5.43l14.523-15.166h-13.111v-5.591ZM170.839 263.493h8.11v26.187h-8.11v-26.187ZM184.665 263.493h10.646l4.109 15.934 4.09-15.934h10.611v26.187h-6.609v-19.971l-5.127 19.971h-5.984l-5.109-19.971v19.971h-6.627v-26.187ZM218.265 276.604c0-4.275 1.191-7.603 3.573-9.985 2.382-2.382 5.698-3.573 9.95-3.573 4.358 0 7.717 1.17 10.075 3.51 2.358 2.34 3.537 5.618 3.537 9.834 0 3.061-.515 5.57-1.546 7.529-1.03 1.959-2.518 3.484-4.465 4.573-1.947 1.09-4.374 1.635-7.28 1.635-2.953 0-5.397-.471-7.332-1.411-1.936-.941-3.505-2.43-4.707-4.466-1.203-2.037-1.805-4.585-1.805-7.646Zm8.092.036c0 2.644.492 4.543 1.474 5.699.983 1.155 2.319 1.732 4.01 1.732 1.739 0 3.085-.565 4.038-1.697.952-1.131 1.429-3.162 1.429-6.091 0-2.465-.498-4.266-1.492-5.404-.994-1.137-2.343-1.706-4.046-1.706-1.632 0-2.941.578-3.93 1.733-.988 1.155-1.483 3.067-1.483 5.734ZM310.1 263.493h22.901v5.234l-14.684 15.326h15.22v5.627h-24.848v-5.43l14.523-15.166H310.1v-5.591ZM337.502 263.493h8.11v26.187h-8.11v-26.187ZM351.328 263.493h10.647l4.108 15.934 4.091-15.934h10.611v26.187h-6.61v-19.971l-5.126 19.971h-5.985l-5.108-19.971v19.971h-6.628v-26.187ZM384.929 276.604c0-4.275 1.191-7.603 3.573-9.985 2.381-2.382 5.698-3.573 9.949-3.573 4.359 0 7.717 1.17 10.075 3.51 2.358 2.34 3.537 5.618 3.537 9.834 0 3.061-.515 5.57-1.545 7.529-1.03 1.959-2.519 3.484-4.466 4.573-1.947 1.09-4.373 1.635-7.279 1.635-2.953 0-5.398-.471-7.333-1.411-1.935-.941-3.504-2.43-4.707-4.466-1.203-2.037-1.804-4.585-1.804-7.646Zm8.092.036c0 2.644.491 4.543 1.474 5.699.982 1.155 2.319 1.732 4.01 1.732 1.739 0 3.084-.565 4.037-1.697.953-1.131 1.429-3.162 1.429-6.091 0-2.465-.497-4.266-1.491-5.404-.995-1.137-2.344-1.706-4.047-1.706-1.631 0-2.941.578-3.929 1.733-.989 1.155-1.483 3.067-1.483 5.734Z"/></g><g fill="url(#h)" opacity="1"><path d="M-1050.56 650.939h22.9v5.233l-14.68 15.327h15.22v5.627h-24.85v-5.43l14.52-15.166h-13.11v-5.591ZM-1023.16 650.939h8.11v26.187h-8.11v-26.187ZM-1009.33 650.939h10.647l4.108 15.934 4.091-15.934h10.611v26.187h-6.61v-19.971l-5.126 19.971h-5.985l-5.106-19.971v19.971h-6.63v-26.187ZM-975.729 664.05c0-4.275 1.191-7.604 3.573-9.985 2.381-2.382 5.698-3.573 9.949-3.573 4.359 0 7.717 1.17 10.075 3.51 2.358 2.34 3.537 5.618 3.537 9.834 0 3.06-.515 5.57-1.545 7.529-1.03 1.959-2.519 3.483-4.466 4.573-1.947 1.09-4.373 1.635-7.279 1.635-2.953 0-5.398-.471-7.333-1.412-1.935-.94-3.504-2.429-4.707-4.465-1.203-2.037-1.804-4.585-1.804-7.646Zm8.092.036c0 2.644.491 4.543 1.474 5.698.982 1.155 2.319 1.733 4.01 1.733 1.739 0 3.084-.566 4.037-1.697.953-1.131 1.429-3.162 1.429-6.091 0-2.465-.497-4.267-1.491-5.404-.995-1.137-2.344-1.706-4.046-1.706-1.632 0-2.942.578-3.93 1.733-.989 1.155-1.483 3.066-1.483 5.734ZM-883.894 650.939h22.9v5.233l-14.683 15.327h15.219v5.627h-24.848v-5.43l14.523-15.166h-13.111v-5.591ZM-856.492 650.939h8.11v26.187h-8.11v-26.187ZM-842.666 650.939h10.646l4.109 15.934 4.09-15.934h10.611v26.187h-6.609v-19.971l-5.127 19.971h-5.984l-5.109-19.971v19.971h-6.627v-26.187ZM-809.066 664.05c0-4.275 1.191-7.604 3.573-9.985 2.382-2.382 5.698-3.573 9.95-3.573 4.359 0 7.717 1.17 10.075 3.51 2.358 2.34 3.537 5.618 3.537 9.834 0 3.06-.515 5.57-1.546 7.529-1.03 1.959-2.518 3.483-4.465 4.573-1.947 1.09-4.374 1.635-7.28 1.635-2.953 0-5.397-.471-7.332-1.412-1.936-.94-3.505-2.429-4.707-4.465-1.203-2.037-1.805-4.585-1.805-7.646Zm8.092.036c0 2.644.492 4.543 1.474 5.698.983 1.155 2.319 1.733 4.01 1.733 1.739 0 3.085-.566 4.038-1.697.952-1.131 1.429-3.162 1.429-6.091 0-2.465-.498-4.267-1.492-5.404-.994-1.137-2.343-1.706-4.046-1.706-1.631 0-2.941.578-3.93 1.733-.988 1.155-1.483 3.066-1.483 5.734ZM-717.231 650.939h22.901v5.233l-14.684 15.327h15.22v5.627h-24.848v-5.43l14.523-15.166h-13.112v-5.591ZM-689.829 650.939h8.11v26.187h-8.11v-26.187ZM-676.003 650.939h10.647l4.108 15.934 4.091-15.934h10.611v26.187h-6.61v-19.971l-5.126 19.971h-5.985l-5.108-19.971v19.971h-6.628v-26.187ZM-642.402 664.05c0-4.275 1.191-7.604 3.573-9.985 2.381-2.382 5.698-3.573 9.949-3.573 4.359 0 7.717 1.17 10.075 3.51 2.358 2.34 3.537 5.618 3.537 9.834 0 3.06-.515 5.57-1.545 7.529-1.03 1.959-2.519 3.483-4.466 4.573-1.947 1.09-4.373 1.635-7.279 1.635-2.953 0-5.398-.471-7.333-1.412-1.935-.94-3.504-2.429-4.707-4.465-1.203-2.037-1.804-4.585-1.804-7.646Zm8.092.036c0 2.644.491 4.543 1.474 5.698.982 1.155 2.319 1.733 4.01 1.733 1.739 0 3.084-.566 4.037-1.697.953-1.131 1.429-3.162 1.429-6.091 0-2.465-.497-4.267-1.491-5.404-.995-1.137-2.343-1.706-4.046-1.706-1.632 0-2.942.578-3.93 1.733-.989 1.155-1.483 3.066-1.483 5.734ZM-550.567 650.939h22.9v5.233l-14.683 15.327h15.219v5.627h-24.848v-5.43l14.523-15.166h-13.111v-5.591ZM-523.165 650.939h8.11v26.187h-8.11v-26.187ZM-509.339 650.939h10.646l4.109 15.934 4.091-15.934h10.61v26.187h-6.609v-19.971l-5.127 19.971h-5.984l-5.109-19.971v19.971h-6.627v-26.187ZM-475.739 664.05c0-4.275 1.191-7.604 3.573-9.985 2.382-2.382 5.698-3.573 9.95-3.573 4.359 0 7.717 1.17 10.075 3.51 2.358 2.34 3.537 5.618 3.537 9.834 0 3.06-.515 5.57-1.545 7.529-1.031 1.959-2.519 3.483-4.466 4.573-1.947 1.09-4.374 1.635-7.28 1.635-2.953 0-5.397-.471-7.332-1.412-1.936-.94-3.505-2.429-4.707-4.465-1.203-2.037-1.805-4.585-1.805-7.646Zm8.093.036c0 2.644.491 4.543 1.473 5.698.983 1.155 2.319 1.733 4.011 1.733 1.738 0 3.084-.566 4.037-1.697.952-1.131 1.429-3.162 1.429-6.091 0-2.465-.498-4.267-1.492-5.404-.994-1.137-2.343-1.706-4.046-1.706-1.631 0-2.941.578-3.93 1.733-.988 1.155-1.482 3.066-1.482 5.734ZM-383.904 650.939h22.901v5.233l-14.684 15.327h15.22v5.627h-24.848v-5.43l14.523-15.166h-13.112v-5.591ZM-356.502 650.939h8.11v26.187h-8.11v-26.187ZM-342.676 650.939h10.647l4.108 15.934 4.091-15.934h10.611v26.187h-6.61v-19.971l-5.126 19.971h-5.985l-5.108-19.971v19.971h-6.628v-26.187ZM-309.075 664.05c0-4.275 1.191-7.604 3.573-9.985 2.381-2.382 5.698-3.573 9.949-3.573 4.359 0 7.717 1.17 10.075 3.51 2.358 2.34 3.537 5.618 3.537 9.834 0 3.06-.515 5.57-1.545 7.529-1.03 1.959-2.519 3.483-4.466 4.573-1.947 1.09-4.373 1.635-7.279 1.635-2.953 0-5.398-.471-7.333-1.412-1.935-.94-3.504-2.429-4.707-4.465-1.203-2.037-1.804-4.585-1.804-7.646Zm8.092.036c0 2.644.491 4.543 1.474 5.698.982 1.155 2.319 1.733 4.01 1.733 1.739 0 3.084-.566 4.037-1.697.953-1.131 1.429-3.162 1.429-6.091 0-2.465-.497-4.267-1.491-5.404-.995-1.137-2.343-1.706-4.046-1.706-1.632 0-2.942.578-3.93 1.733-.989 1.155-1.483 3.066-1.483 5.734ZM-217.24 650.939h22.9v5.233l-14.683 15.327h15.219v5.627h-24.848v-5.43l14.523-15.166h-13.111v-5.591ZM-189.838 650.939h8.11v26.187h-8.11v-26.187ZM-176.012 650.939h10.646l4.109 15.934 4.091-15.934h10.61v26.187h-6.609v-19.971l-5.127 19.971h-5.984l-5.109-19.971v19.971h-6.627v-26.187ZM-142.411 664.05c0-4.275 1.19-7.604 3.572-9.985 2.382-2.382 5.699-3.573 9.95-3.573 4.359 0 7.717 1.17 10.075 3.51 2.358 2.34 3.537 5.618 3.537 9.834 0 3.06-.515 5.57-1.545 7.529-1.031 1.959-2.519 3.483-4.466 4.573-1.947 1.09-4.374 1.635-7.28 1.635-2.953 0-5.397-.471-7.332-1.412-1.936-.94-3.505-2.429-4.707-4.465-1.203-2.037-1.804-4.585-1.804-7.646Zm8.092.036c0 2.644.491 4.543 1.473 5.698.983 1.155 2.32 1.733 4.011 1.733 1.738 0 3.084-.566 4.037-1.697.952-1.131 1.429-3.162 1.429-6.091 0-2.465-.498-4.267-1.492-5.404-.994-1.137-2.343-1.706-4.046-1.706-1.631 0-2.941.578-3.93 1.733-.988 1.155-1.482 3.066-1.482 5.734ZM-50.577 650.939h22.9v5.233l-14.683 15.327h15.22v5.627h-24.848v-5.43l14.523-15.166h-13.112v-5.591ZM-23.175 650.939h8.11v26.187h-8.11v-26.187ZM-9.349 650.939H1.298l4.108 15.934 4.091-15.934h10.61v26.187h-6.609v-19.971l-5.126 19.971H2.388l-5.11-19.971v19.971h-6.627v-26.187ZM24.252 664.05c0-4.275 1.19-7.604 3.573-9.985 2.381-2.382 5.698-3.573 9.95-3.573 4.358 0 7.716 1.17 10.074 3.51 2.358 2.34 3.537 5.618 3.537 9.834 0 3.06-.515 5.57-1.545 7.529-1.03 1.959-2.519 3.483-4.466 4.573-1.947 1.09-4.373 1.635-7.279 1.635-2.953 0-5.398-.471-7.333-1.412-1.935-.94-3.504-2.429-4.707-4.465-1.203-2.037-1.804-4.585-1.804-7.646Zm8.092.036c0 2.644.491 4.543 1.474 5.698.982 1.155 2.319 1.733 4.01 1.733 1.739 0 3.084-.566 4.037-1.697.953-1.131 1.43-3.162 1.43-6.091 0-2.465-.498-4.267-1.492-5.404-.995-1.137-2.343-1.706-4.046-1.706-1.632 0-2.942.578-3.93 1.733-.989 1.155-1.483 3.066-1.483 5.734ZM116.087 650.939h22.9v5.233l-14.683 15.327h15.219v5.627h-24.848v-5.43l14.523-15.166h-13.111v-5.591ZM143.489 650.939h8.11v26.187h-8.11v-26.187ZM157.315 650.939h10.646l4.109 15.934 4.091-15.934h10.61v26.187h-6.609v-19.971l-5.127 19.971h-5.984l-5.109-19.971v19.971h-6.627v-26.187ZM190.916 664.05c0-4.275 1.19-7.604 3.572-9.985 2.382-2.382 5.699-3.573 9.95-3.573 4.359 0 7.717 1.17 10.075 3.51 2.358 2.34 3.537 5.618 3.537 9.834 0 3.06-.515 5.57-1.545 7.529-1.031 1.959-2.519 3.483-4.466 4.573-1.947 1.09-4.374 1.635-7.279 1.635-2.954 0-5.398-.471-7.333-1.412-1.935-.94-3.504-2.429-4.707-4.465-1.203-2.037-1.804-4.585-1.804-7.646Zm8.092.036c0 2.644.491 4.543 1.473 5.698.983 1.155 2.32 1.733 4.011 1.733 1.738 0 3.084-.566 4.037-1.697.952-1.131 1.429-3.162 1.429-6.091 0-2.465-.497-4.267-1.492-5.404-.994-1.137-2.343-1.706-4.046-1.706-1.631 0-2.941.578-3.93 1.733-.988 1.155-1.482 3.066-1.482 5.734Z"/></g><g fill="url(#i)" opacity="1"><path d="M-689.881 1050.53h22.901v5.23l-14.684 15.33h15.219v5.63h-24.847v-5.43l14.523-15.17h-13.112v-5.59ZM-662.479 1050.53h8.11v26.19h-8.11v-26.19ZM-648.653 1050.53h10.647l4.108 15.93 4.091-15.93h10.611v26.19h-6.61v-19.97l-5.127 19.97h-5.984l-5.109-19.97v19.97h-6.627v-26.19ZM-615.052 1063.64c0-4.27 1.191-7.6 3.572-9.98 2.382-2.39 5.699-3.58 9.95-3.58 4.359 0 7.717 1.17 10.075 3.51 2.358 2.34 3.537 5.62 3.537 9.84 0 3.06-.515 5.57-1.545 7.53-1.03 1.96-2.519 3.48-4.466 4.57-1.947 1.09-4.373 1.63-7.279 1.63-2.954 0-5.398-.47-7.333-1.41-1.935-.94-3.504-2.43-4.707-4.46-1.203-2.04-1.804-4.59-1.804-7.65Zm8.092.04c0 2.64.491 4.54 1.474 5.7.982 1.15 2.319 1.73 4.01 1.73 1.739 0 3.084-.57 4.037-1.7.953-1.13 1.429-3.16 1.429-6.09 0-2.47-.497-4.27-1.492-5.4-.994-1.14-2.343-1.71-4.046-1.71-1.631 0-2.941.58-3.929 1.73-.989 1.16-1.483 3.07-1.483 5.74ZM-523.218 1050.53h22.901v5.23L-515 1071.09h15.219v5.63h-24.848v-5.43l14.523-15.17h-13.112v-5.59ZM-495.815 1050.53h8.109v26.19h-8.109v-26.19ZM-481.989 1050.53h10.646l4.109 15.93 4.09-15.93h10.611v26.19h-6.609v-19.97l-5.127 19.97h-5.984l-5.109-19.97v19.97h-6.627v-26.19ZM-448.389 1063.64c0-4.27 1.191-7.6 3.573-9.98 2.382-2.39 5.698-3.58 9.95-3.58 4.358 0 7.717 1.17 10.075 3.51 2.358 2.34 3.537 5.62 3.537 9.84 0 3.06-.516 5.57-1.546 7.53s-2.518 3.48-4.465 4.57c-1.948 1.09-4.374 1.63-7.28 1.63-2.953 0-5.397-.47-7.333-1.41-1.935-.94-3.504-2.43-4.706-4.46-1.203-2.04-1.805-4.59-1.805-7.65Zm8.092.04c0 2.64.492 4.54 1.474 5.7.983 1.15 2.319 1.73 4.01 1.73 1.739 0 3.085-.57 4.037-1.7.953-1.13 1.43-3.16 1.43-6.09 0-2.47-.498-4.27-1.492-5.4-.994-1.14-2.343-1.71-4.046-1.71-1.632 0-2.942.58-3.93 1.73-.988 1.16-1.483 3.07-1.483 5.74ZM-356.554 1050.53h22.901v5.23l-14.684 15.33h15.219v5.63h-24.847v-5.43l14.523-15.17h-13.112v-5.59ZM-329.152 1050.53h8.11v26.19h-8.11v-26.19ZM-315.326 1050.53h10.647l4.108 15.93 4.091-15.93h10.611v26.19h-6.61v-19.97l-5.127 19.97h-5.984l-5.109-19.97v19.97h-6.627v-26.19ZM-281.725 1063.64c0-4.27 1.191-7.6 3.573-9.98 2.381-2.39 5.698-3.58 9.949-3.58 4.359 0 7.717 1.17 10.075 3.51 2.358 2.34 3.537 5.62 3.537 9.84 0 3.06-.515 5.57-1.545 7.53-1.03 1.96-2.519 3.48-4.466 4.57-1.947 1.09-4.373 1.63-7.279 1.63-2.954 0-5.398-.47-7.333-1.41-1.935-.94-3.504-2.43-4.707-4.46-1.203-2.04-1.804-4.59-1.804-7.65Zm8.092.04c0 2.64.491 4.54 1.474 5.7.982 1.15 2.319 1.73 4.01 1.73 1.739 0 3.084-.57 4.037-1.7.953-1.13 1.429-3.16 1.429-6.09 0-2.47-.497-4.27-1.492-5.4-.994-1.14-2.343-1.71-4.046-1.71-1.631 0-2.941.58-3.929 1.73-.989 1.16-1.483 3.07-1.483 5.74ZM-189.891 1050.53h22.901v5.23l-14.683 15.33h15.219v5.63h-24.848v-5.43l14.523-15.17h-13.112v-5.59ZM-162.488 1050.53h8.11v26.19h-8.11v-26.19ZM-148.662 1050.53h10.646l4.109 15.93 4.09-15.93h10.611v26.19h-6.609v-19.97l-5.127 19.97h-5.984l-5.109-19.97v19.97h-6.627v-26.19ZM-115.062 1063.64c0-4.27 1.191-7.6 3.573-9.98 2.382-2.39 5.698-3.58 9.95-3.58 4.358 0 7.717 1.17 10.075 3.51 2.358 2.34 3.537 5.62 3.537 9.84 0 3.06-.515 5.57-1.546 7.53-1.03 1.96-2.518 3.48-4.465 4.57-1.947 1.09-4.374 1.63-7.28 1.63-2.953 0-5.397-.47-7.332-1.41-1.936-.94-3.505-2.43-4.707-4.46-1.203-2.04-1.805-4.59-1.805-7.65Zm8.092.04c0 2.64.492 4.54 1.474 5.7.983 1.15 2.319 1.73 4.01 1.73 1.74 0 3.085-.57 4.038-1.7.952-1.13 1.428-3.16 1.428-6.09 0-2.47-.497-4.27-1.491-5.4-.994-1.14-2.343-1.71-4.046-1.71-1.632 0-2.942.58-3.93 1.73-.988 1.16-1.483 3.07-1.483 5.74ZM-23.227 1050.53h22.9v5.23l-14.683 15.33H.21v5.63h-24.848v-5.43l14.523-15.17h-13.112v-5.59ZM4.175 1050.53h8.11v26.19h-8.11v-26.19ZM18.001 1050.53h10.647l4.108 15.93 4.09-15.93h10.612v26.19h-6.61v-19.97l-5.127 19.97h-5.984l-5.108-19.97v19.97H18v-26.19ZM51.602 1063.64c0-4.27 1.19-7.6 3.573-9.98 2.381-2.39 5.698-3.58 9.95-3.58 4.358 0 7.716 1.17 10.074 3.51 2.358 2.34 3.537 5.62 3.537 9.84 0 3.06-.515 5.57-1.545 7.53-1.03 1.96-2.519 3.48-4.466 4.57-1.947 1.09-4.373 1.63-7.28 1.63-2.952 0-5.397-.47-7.332-1.41-1.935-.94-3.504-2.43-4.707-4.46-1.203-2.04-1.804-4.59-1.804-7.65Zm8.092.04c0 2.64.491 4.54 1.474 5.7.982 1.15 2.319 1.73 4.01 1.73 1.739 0 3.084-.57 4.037-1.7.953-1.13 1.429-3.16 1.429-6.09 0-2.47-.497-4.27-1.492-5.4-.994-1.14-2.343-1.71-4.046-1.71-1.631 0-2.941.58-3.93 1.73-.988 1.16-1.482 3.07-1.482 5.74ZM143.437 1050.53h22.9v5.23l-14.683 15.33h15.219v5.63h-24.848v-5.43l14.523-15.17h-13.111v-5.59ZM170.839 1050.53h8.11v26.19h-8.11v-26.19ZM184.665 1050.53h10.646l4.109 15.93 4.09-15.93h10.611v26.19h-6.609v-19.97l-5.127 19.97h-5.984l-5.109-19.97v19.97h-6.627v-26.19ZM218.265 1063.64c0-4.27 1.191-7.6 3.573-9.98 2.382-2.39 5.698-3.58 9.95-3.58 4.358 0 7.717 1.17 10.075 3.51 2.358 2.34 3.537 5.62 3.537 9.84 0 3.06-.515 5.57-1.546 7.53-1.03 1.96-2.518 3.48-4.465 4.57-1.947 1.09-4.374 1.63-7.28 1.63-2.953 0-5.397-.47-7.332-1.41-1.936-.94-3.505-2.43-4.707-4.46-1.203-2.04-1.805-4.59-1.805-7.65Zm8.092.04c0 2.64.492 4.54 1.474 5.7.983 1.15 2.319 1.73 4.01 1.73 1.739 0 3.085-.57 4.038-1.7.952-1.13 1.429-3.16 1.429-6.09 0-2.47-.498-4.27-1.492-5.4-.994-1.14-2.343-1.71-4.046-1.71-1.632 0-2.941.58-3.93 1.73-.988 1.16-1.483 3.07-1.483 5.74ZM310.1 1050.53h22.901v5.23l-14.684 15.33h15.22v5.63h-24.848v-5.43l14.523-15.17H310.1v-5.59ZM337.502 1050.53h8.11v26.19h-8.11v-26.19ZM351.328 1050.53h10.647l4.108 15.93 4.091-15.93h10.611v26.19h-6.61v-19.97l-5.126 19.97h-5.985l-5.108-19.97v19.97h-6.628v-26.19ZM384.929 1063.64c0-4.27 1.191-7.6 3.573-9.98 2.381-2.39 5.698-3.58 9.949-3.58 4.359 0 7.717 1.17 10.075 3.51 2.358 2.34 3.537 5.62 3.537 9.84 0 3.06-.515 5.57-1.545 7.53-1.03 1.96-2.519 3.48-4.466 4.57-1.947 1.09-4.373 1.63-7.279 1.63-2.953 0-5.398-.47-7.333-1.41-1.935-.94-3.504-2.43-4.707-4.46-1.203-2.04-1.804-4.59-1.804-7.65Zm8.092.04c0 2.64.491 4.54 1.474 5.7.982 1.15 2.319 1.73 4.01 1.73 1.739 0 3.084-.57 4.037-1.7.953-1.13 1.429-3.16 1.429-6.09 0-2.47-.497-4.27-1.491-5.4-.995-1.14-2.344-1.71-4.047-1.71-1.631 0-2.941.58-3.929 1.73-.989 1.16-1.483 3.07-1.483 5.74Z"/></g><g fill="url(#j)" opacity="1"><path d="M-1050.56 1437.98h22.9v5.23l-14.68 15.33h15.22v5.62h-24.85v-5.43l14.52-15.16h-13.11v-5.59ZM-1023.16 1437.98h8.11v26.18h-8.11v-26.18ZM-1009.33 1437.98h10.647l4.108 15.93 4.091-15.93h10.611v26.18h-6.61v-19.97l-5.126 19.97h-5.985l-5.106-19.97v19.97h-6.63v-26.18ZM-975.729 1451.09c0-4.28 1.191-7.61 3.573-9.99 2.381-2.38 5.698-3.57 9.949-3.57 4.359 0 7.717 1.17 10.075 3.51 2.358 2.34 3.537 5.62 3.537 9.83 0 3.06-.515 5.57-1.545 7.53a10.947 10.947 0 0 1-4.466 4.57c-1.947 1.09-4.373 1.64-7.279 1.64-2.953 0-5.398-.47-7.333-1.41-1.935-.94-3.504-2.43-4.707-4.47-1.203-2.03-1.804-4.58-1.804-7.64Zm8.092.03c0 2.65.491 4.55 1.474 5.7.982 1.16 2.319 1.73 4.01 1.73 1.739 0 3.084-.56 4.037-1.69.953-1.13 1.429-3.16 1.429-6.09 0-2.47-.497-4.27-1.491-5.41-.995-1.14-2.344-1.7-4.046-1.7-1.632 0-2.942.57-3.93 1.73-.989 1.15-1.483 3.07-1.483 5.73ZM-883.894 1437.98h22.9v5.23l-14.683 15.33h15.219v5.62h-24.848v-5.43l14.523-15.16h-13.111v-5.59ZM-856.492 1437.98h8.11v26.18h-8.11v-26.18ZM-842.666 1437.98h10.646l4.109 15.93 4.09-15.93h10.611v26.18h-6.609v-19.97l-5.127 19.97h-5.984l-5.109-19.97v19.97h-6.627v-26.18ZM-809.066 1451.09c0-4.28 1.191-7.61 3.573-9.99 2.382-2.38 5.698-3.57 9.95-3.57 4.359 0 7.717 1.17 10.075 3.51 2.358 2.34 3.537 5.62 3.537 9.83 0 3.06-.515 5.57-1.546 7.53a10.945 10.945 0 0 1-4.465 4.57c-1.947 1.09-4.374 1.64-7.28 1.64-2.953 0-5.397-.47-7.332-1.41-1.936-.94-3.505-2.43-4.707-4.47-1.203-2.03-1.805-4.58-1.805-7.64Zm8.092.03c0 2.65.492 4.55 1.474 5.7.983 1.16 2.319 1.73 4.01 1.73 1.739 0 3.085-.56 4.038-1.69.952-1.13 1.429-3.16 1.429-6.09 0-2.47-.498-4.27-1.492-5.41-.994-1.14-2.343-1.7-4.046-1.7-1.631 0-2.941.57-3.93 1.73-.988 1.15-1.483 3.07-1.483 5.73ZM-717.231 1437.98h22.901v5.23l-14.684 15.33h15.22v5.62h-24.848v-5.43l14.523-15.16h-13.112v-5.59ZM-689.829 1437.98h8.11v26.18h-8.11v-26.18ZM-676.003 1437.98h10.647l4.108 15.93 4.091-15.93h10.611v26.18h-6.61v-19.97l-5.126 19.97h-5.985l-5.108-19.97v19.97h-6.628v-26.18ZM-642.402 1451.09c0-4.28 1.191-7.61 3.573-9.99 2.381-2.38 5.698-3.57 9.949-3.57 4.359 0 7.717 1.17 10.075 3.51 2.358 2.34 3.537 5.62 3.537 9.83 0 3.06-.515 5.57-1.545 7.53a10.947 10.947 0 0 1-4.466 4.57c-1.947 1.09-4.373 1.64-7.279 1.64-2.953 0-5.398-.47-7.333-1.41-1.935-.94-3.504-2.43-4.707-4.47-1.203-2.03-1.804-4.58-1.804-7.64Zm8.092.03c0 2.65.491 4.55 1.474 5.7.982 1.16 2.319 1.73 4.01 1.73 1.739 0 3.084-.56 4.037-1.69.953-1.13 1.429-3.16 1.429-6.09 0-2.47-.497-4.27-1.491-5.41-.995-1.14-2.343-1.7-4.046-1.7-1.632 0-2.942.57-3.93 1.73-.989 1.15-1.483 3.07-1.483 5.73ZM-550.567 1437.98h22.9v5.23l-14.683 15.33h15.219v5.62h-24.848v-5.43l14.523-15.16h-13.111v-5.59ZM-523.165 1437.98h8.11v26.18h-8.11v-26.18ZM-509.339 1437.98h10.646l4.109 15.93 4.091-15.93h10.61v26.18h-6.609v-19.97l-5.127 19.97h-5.984l-5.109-19.97v19.97h-6.627v-26.18ZM-475.739 1451.09c0-4.28 1.191-7.61 3.573-9.99 2.382-2.38 5.698-3.57 9.95-3.57 4.359 0 7.717 1.17 10.075 3.51 2.358 2.34 3.537 5.62 3.537 9.83 0 3.06-.515 5.57-1.545 7.53a10.953 10.953 0 0 1-4.466 4.57c-1.947 1.09-4.374 1.64-7.28 1.64-2.953 0-5.397-.47-7.332-1.41-1.936-.94-3.505-2.43-4.707-4.47-1.203-2.03-1.805-4.58-1.805-7.64Zm8.093.03c0 2.65.491 4.55 1.473 5.7.983 1.16 2.319 1.73 4.011 1.73 1.738 0 3.084-.56 4.037-1.69.952-1.13 1.429-3.16 1.429-6.09 0-2.47-.498-4.27-1.492-5.41-.994-1.14-2.343-1.7-4.046-1.7-1.631 0-2.941.57-3.93 1.73-.988 1.15-1.482 3.07-1.482 5.73ZM-383.904 1437.98h22.901v5.23l-14.684 15.33h15.22v5.62h-24.848v-5.43l14.523-15.16h-13.112v-5.59ZM-356.502 1437.98h8.11v26.18h-8.11v-26.18ZM-342.676 1437.98h10.647l4.108 15.93 4.091-15.93h10.611v26.18h-6.61v-19.97l-5.126 19.97h-5.985l-5.108-19.97v19.97h-6.628v-26.18ZM-309.075 1451.09c0-4.28 1.191-7.61 3.573-9.99 2.381-2.38 5.698-3.57 9.949-3.57 4.359 0 7.717 1.17 10.075 3.51 2.358 2.34 3.537 5.62 3.537 9.83 0 3.06-.515 5.57-1.545 7.53a10.947 10.947 0 0 1-4.466 4.57c-1.947 1.09-4.373 1.64-7.279 1.64-2.953 0-5.398-.47-7.333-1.41-1.935-.94-3.504-2.43-4.707-4.47-1.203-2.03-1.804-4.58-1.804-7.64Zm8.092.03c0 2.65.491 4.55 1.474 5.7.982 1.16 2.319 1.73 4.01 1.73 1.739 0 3.084-.56 4.037-1.69.953-1.13 1.429-3.16 1.429-6.09 0-2.47-.497-4.27-1.491-5.41-.995-1.14-2.343-1.7-4.046-1.7-1.632 0-2.942.57-3.93 1.73-.989 1.15-1.483 3.07-1.483 5.73ZM-217.24 1437.98h22.9v5.23l-14.683 15.33h15.219v5.62h-24.848v-5.43l14.523-15.16h-13.111v-5.59ZM-189.838 1437.98h8.11v26.18h-8.11v-26.18ZM-176.012 1437.98h10.646l4.109 15.93 4.091-15.93h10.61v26.18h-6.609v-19.97l-5.127 19.97h-5.984l-5.109-19.97v19.97h-6.627v-26.18ZM-142.411 1451.09c0-4.28 1.19-7.61 3.572-9.99s5.699-3.57 9.95-3.57c4.359 0 7.717 1.17 10.075 3.51 2.358 2.34 3.537 5.62 3.537 9.83 0 3.06-.515 5.57-1.545 7.53a10.953 10.953 0 0 1-4.466 4.57c-1.947 1.09-4.374 1.64-7.28 1.64-2.953 0-5.397-.47-7.332-1.41-1.936-.94-3.505-2.43-4.707-4.47-1.203-2.03-1.804-4.58-1.804-7.64Zm8.092.03c0 2.65.491 4.55 1.473 5.7.983 1.16 2.32 1.73 4.011 1.73 1.738 0 3.084-.56 4.037-1.69.952-1.13 1.429-3.16 1.429-6.09 0-2.47-.498-4.27-1.492-5.41-.994-1.14-2.343-1.7-4.046-1.7-1.631 0-2.941.57-3.93 1.73-.988 1.15-1.482 3.07-1.482 5.73ZM-50.577 1437.98h22.9v5.23l-14.683 15.33h15.22v5.62h-24.848v-5.43l14.523-15.16h-13.112v-5.59ZM-23.175 1437.98h8.11v26.18h-8.11v-26.18ZM-9.349 1437.98H1.298l4.108 15.93 4.091-15.93h10.61v26.18h-6.609v-19.97l-5.126 19.97H2.388l-5.11-19.97v19.97h-6.627v-26.18ZM24.252 1451.09c0-4.28 1.19-7.61 3.573-9.99 2.381-2.38 5.698-3.57 9.95-3.57 4.358 0 7.716 1.17 10.074 3.51 2.358 2.34 3.537 5.62 3.537 9.83 0 3.06-.515 5.57-1.545 7.53a10.948 10.948 0 0 1-4.466 4.57c-1.947 1.09-4.373 1.64-7.279 1.64-2.953 0-5.398-.47-7.333-1.41-1.935-.94-3.504-2.43-4.707-4.47-1.203-2.03-1.804-4.58-1.804-7.64Zm8.092.03c0 2.65.491 4.55 1.474 5.7.982 1.16 2.319 1.73 4.01 1.73 1.739 0 3.084-.56 4.037-1.69.953-1.13 1.43-3.16 1.43-6.09 0-2.47-.498-4.27-1.492-5.41-.995-1.14-2.343-1.7-4.046-1.7-1.632 0-2.942.57-3.93 1.73-.989 1.15-1.483 3.07-1.483 5.73ZM116.087 1437.98h22.9v5.23l-14.683 15.33h15.219v5.62h-24.848v-5.43l14.523-15.16h-13.111v-5.59ZM143.489 1437.98h8.11v26.18h-8.11v-26.18ZM157.315 1437.98h10.646l4.109 15.93 4.091-15.93h10.61v26.18h-6.609v-19.97l-5.127 19.97h-5.984l-5.109-19.97v19.97h-6.627v-26.18ZM190.916 1451.09c0-4.28 1.19-7.61 3.572-9.99s5.699-3.57 9.95-3.57c4.359 0 7.717 1.17 10.075 3.51 2.358 2.34 3.537 5.62 3.537 9.83 0 3.06-.515 5.57-1.545 7.53a10.953 10.953 0 0 1-4.466 4.57c-1.947 1.09-4.374 1.64-7.279 1.64-2.954 0-5.398-.47-7.333-1.41-1.935-.94-3.504-2.43-4.707-4.47-1.203-2.03-1.804-4.58-1.804-7.64Zm8.092.03c0 2.65.491 4.55 1.473 5.7.983 1.16 2.32 1.73 4.011 1.73 1.738 0 3.084-.56 4.037-1.69.952-1.13 1.429-3.16 1.429-6.09 0-2.47-.497-4.27-1.492-5.41-.994-1.14-2.343-1.7-4.046-1.7-1.631 0-2.941.57-3.93 1.73-.988 1.15-1.482 3.07-1.482 5.73Z"/></g><g fill="url(#k)" opacity="1"><path d="M-689.881 1826.81h22.901v5.23l-14.684 15.33h15.219v5.63h-24.847v-5.43l14.523-15.17h-13.112v-5.59ZM-662.479 1826.81h8.11V1853h-8.11v-26.19ZM-648.653 1826.81h10.647l4.108 15.93 4.091-15.93h10.611V1853h-6.61v-19.97l-5.127 19.97h-5.984l-5.109-19.97V1853h-6.627v-26.19ZM-615.052 1839.92c0-4.27 1.191-7.6 3.572-9.98 2.382-2.39 5.699-3.58 9.95-3.58 4.359 0 7.717 1.17 10.075 3.51 2.358 2.34 3.537 5.62 3.537 9.84 0 3.06-.515 5.57-1.545 7.53-1.03 1.96-2.519 3.48-4.466 4.57-1.947 1.09-4.373 1.63-7.279 1.63-2.954 0-5.398-.47-7.333-1.41-1.935-.94-3.504-2.43-4.707-4.46-1.203-2.04-1.804-4.59-1.804-7.65Zm8.092.04c0 2.64.491 4.54 1.474 5.7.982 1.15 2.319 1.73 4.01 1.73 1.739 0 3.084-.57 4.037-1.7.953-1.13 1.429-3.16 1.429-6.09 0-2.47-.497-4.27-1.492-5.4-.994-1.14-2.343-1.71-4.046-1.71-1.631 0-2.941.58-3.929 1.73-.989 1.16-1.483 3.07-1.483 5.74ZM-523.218 1826.81h22.901v5.23L-515 1847.37h15.219v5.63h-24.848v-5.43l14.523-15.17h-13.112v-5.59ZM-495.815 1826.81h8.109V1853h-8.109v-26.19ZM-481.989 1826.81h10.646l4.109 15.93 4.09-15.93h10.611V1853h-6.609v-19.97l-5.127 19.97h-5.984l-5.109-19.97V1853h-6.627v-26.19ZM-448.389 1839.92c0-4.27 1.191-7.6 3.573-9.98 2.382-2.39 5.698-3.58 9.95-3.58 4.358 0 7.717 1.17 10.075 3.51 2.358 2.34 3.537 5.62 3.537 9.84 0 3.06-.516 5.57-1.546 7.53s-2.518 3.48-4.465 4.57c-1.948 1.09-4.374 1.63-7.28 1.63-2.953 0-5.397-.47-7.333-1.41-1.935-.94-3.504-2.43-4.706-4.46-1.203-2.04-1.805-4.59-1.805-7.65Zm8.092.04c0 2.64.492 4.54 1.474 5.7.983 1.15 2.319 1.73 4.01 1.73 1.739 0 3.085-.57 4.037-1.7.953-1.13 1.43-3.16 1.43-6.09 0-2.47-.498-4.27-1.492-5.4-.994-1.14-2.343-1.71-4.046-1.71-1.632 0-2.942.58-3.93 1.73-.988 1.16-1.483 3.07-1.483 5.74ZM-356.554 1826.81h22.901v5.23l-14.684 15.33h15.219v5.63h-24.847v-5.43l14.523-15.17h-13.112v-5.59ZM-329.152 1826.81h8.11V1853h-8.11v-26.19ZM-315.326 1826.81h10.647l4.108 15.93 4.091-15.93h10.611V1853h-6.61v-19.97l-5.127 19.97h-5.984l-5.109-19.97V1853h-6.627v-26.19ZM-281.725 1839.92c0-4.27 1.191-7.6 3.573-9.98 2.381-2.39 5.698-3.58 9.949-3.58 4.359 0 7.717 1.17 10.075 3.51 2.358 2.34 3.537 5.62 3.537 9.84 0 3.06-.515 5.57-1.545 7.53-1.03 1.96-2.519 3.48-4.466 4.57-1.947 1.09-4.373 1.63-7.279 1.63-2.954 0-5.398-.47-7.333-1.41-1.935-.94-3.504-2.43-4.707-4.46-1.203-2.04-1.804-4.59-1.804-7.65Zm8.092.04c0 2.64.491 4.54 1.474 5.7.982 1.15 2.319 1.73 4.01 1.73 1.739 0 3.084-.57 4.037-1.7.953-1.13 1.429-3.16 1.429-6.09 0-2.47-.497-4.27-1.492-5.4-.994-1.14-2.343-1.71-4.046-1.71-1.631 0-2.941.58-3.929 1.73-.989 1.16-1.483 3.07-1.483 5.74ZM-189.891 1826.81h22.901v5.23l-14.683 15.33h15.219v5.63h-24.848v-5.43l14.523-15.17h-13.112v-5.59ZM-162.488 1826.81h8.11V1853h-8.11v-26.19ZM-148.662 1826.81h10.646l4.109 15.93 4.09-15.93h10.611V1853h-6.609v-19.97l-5.127 19.97h-5.984l-5.109-19.97V1853h-6.627v-26.19ZM-115.062 1839.92c0-4.27 1.191-7.6 3.573-9.98 2.382-2.39 5.698-3.58 9.95-3.58 4.358 0 7.717 1.17 10.075 3.51 2.358 2.34 3.537 5.62 3.537 9.84 0 3.06-.515 5.57-1.546 7.53-1.03 1.96-2.518 3.48-4.465 4.57-1.947 1.09-4.374 1.63-7.28 1.63-2.953 0-5.397-.47-7.332-1.41-1.936-.94-3.505-2.43-4.707-4.46-1.203-2.04-1.805-4.59-1.805-7.65Zm8.092.04c0 2.64.492 4.54 1.474 5.7.983 1.15 2.319 1.73 4.01 1.73 1.74 0 3.085-.57 4.038-1.7.952-1.13 1.428-3.16 1.428-6.09 0-2.47-.497-4.27-1.491-5.4-.994-1.14-2.343-1.71-4.046-1.71-1.632 0-2.942.58-3.93 1.73-.988 1.16-1.483 3.07-1.483 5.74ZM-23.227 1826.81h22.9v5.23l-14.683 15.33H.21v5.63h-24.848v-5.43l14.523-15.17h-13.112v-5.59ZM4.175 1826.81h8.11V1853h-8.11v-26.19ZM18.001 1826.81h10.647l4.108 15.93 4.09-15.93h10.612V1853h-6.61v-19.97L35.721 1853h-5.984l-5.108-19.97V1853H18v-26.19ZM51.602 1839.92c0-4.27 1.19-7.6 3.573-9.98 2.381-2.39 5.698-3.58 9.95-3.58 4.358 0 7.716 1.17 10.074 3.51 2.358 2.34 3.537 5.62 3.537 9.84 0 3.06-.515 5.57-1.545 7.53-1.03 1.96-2.519 3.48-4.466 4.57-1.947 1.09-4.373 1.63-7.28 1.63-2.952 0-5.397-.47-7.332-1.41-1.935-.94-3.504-2.43-4.707-4.46-1.203-2.04-1.804-4.59-1.804-7.65Zm8.092.04c0 2.64.491 4.54 1.474 5.7.982 1.15 2.319 1.73 4.01 1.73 1.739 0 3.084-.57 4.037-1.7.953-1.13 1.429-3.16 1.429-6.09 0-2.47-.497-4.27-1.492-5.4-.994-1.14-2.343-1.71-4.046-1.71-1.631 0-2.941.58-3.93 1.73-.988 1.16-1.482 3.07-1.482 5.74ZM143.437 1826.81h22.9v5.23l-14.683 15.33h15.219v5.63h-24.848v-5.43l14.523-15.17h-13.111v-5.59ZM170.839 1826.81h8.11V1853h-8.11v-26.19ZM184.665 1826.81h10.646l4.109 15.93 4.09-15.93h10.611V1853h-6.609v-19.97l-5.127 19.97h-5.984l-5.109-19.97V1853h-6.627v-26.19ZM218.265 1839.92c0-4.27 1.191-7.6 3.573-9.98 2.382-2.39 5.698-3.58 9.95-3.58 4.358 0 7.717 1.17 10.075 3.51 2.358 2.34 3.537 5.62 3.537 9.84 0 3.06-.515 5.57-1.546 7.53-1.03 1.96-2.518 3.48-4.465 4.57-1.947 1.09-4.374 1.63-7.28 1.63-2.953 0-5.397-.47-7.332-1.41-1.936-.94-3.505-2.43-4.707-4.46-1.203-2.04-1.805-4.59-1.805-7.65Zm8.092.04c0 2.64.492 4.54 1.474 5.7.983 1.15 2.319 1.73 4.01 1.73 1.739 0 3.085-.57 4.038-1.7.952-1.13 1.429-3.16 1.429-6.09 0-2.47-.498-4.27-1.492-5.4-.994-1.14-2.343-1.71-4.046-1.71-1.632 0-2.941.58-3.93 1.73-.988 1.16-1.483 3.07-1.483 5.74ZM310.1 1826.81h22.901v5.23l-14.684 15.33h15.22v5.63h-24.848v-5.43l14.523-15.17H310.1v-5.59ZM337.502 1826.81h8.11V1853h-8.11v-26.19ZM351.328 1826.81h10.647l4.108 15.93 4.091-15.93h10.611V1853h-6.61v-19.97l-5.126 19.97h-5.985l-5.108-19.97V1853h-6.628v-26.19ZM384.929 1839.92c0-4.27 1.191-7.6 3.573-9.98 2.381-2.39 5.698-3.58 9.949-3.58 4.359 0 7.717 1.17 10.075 3.51 2.358 2.34 3.537 5.62 3.537 9.84 0 3.06-.515 5.57-1.545 7.53-1.03 1.96-2.519 3.48-4.466 4.57-1.947 1.09-4.373 1.63-7.279 1.63-2.953 0-5.398-.47-7.333-1.41-1.935-.94-3.504-2.43-4.707-4.46-1.203-2.04-1.804-4.59-1.804-7.65Zm8.092.04c0 2.64.491 4.54 1.474 5.7.982 1.15 2.319 1.73 4.01 1.73 1.739 0 3.084-.57 4.037-1.7.953-1.13 1.429-3.16 1.429-6.09 0-2.47-.497-4.27-1.491-5.4-.995-1.14-2.344-1.71-4.047-1.71-1.631 0-2.941.58-3.929 1.73-.989 1.16-1.483 3.07-1.483 5.74Z"/></g><g fill="url(#l)" opacity="1"><path d="M-1050.56 2214.26h22.9v5.23l-14.68 15.33h15.22v5.62h-24.85v-5.43l14.52-15.16h-13.11v-5.59ZM-1023.16 2214.26h8.11v26.18h-8.11v-26.18ZM-1009.33 2214.26h10.647l4.108 15.93 4.091-15.93h10.611v26.18h-6.61v-19.97l-5.126 19.97h-5.985l-5.106-19.97v19.97h-6.63v-26.18ZM-975.729 2227.37c0-4.28 1.191-7.61 3.573-9.99 2.381-2.38 5.698-3.57 9.949-3.57 4.359 0 7.717 1.17 10.075 3.51 2.358 2.34 3.537 5.62 3.537 9.83 0 3.06-.515 5.57-1.545 7.53a10.947 10.947 0 0 1-4.466 4.57c-1.947 1.09-4.373 1.64-7.279 1.64-2.953 0-5.398-.47-7.333-1.41-1.935-.94-3.504-2.43-4.707-4.47-1.203-2.03-1.804-4.58-1.804-7.64Zm8.092.03c0 2.65.491 4.55 1.474 5.7.982 1.16 2.319 1.73 4.01 1.73 1.739 0 3.084-.56 4.037-1.69.953-1.13 1.429-3.16 1.429-6.09 0-2.47-.497-4.27-1.491-5.41-.995-1.14-2.344-1.7-4.046-1.7-1.632 0-2.942.57-3.93 1.73-.989 1.15-1.483 3.07-1.483 5.73ZM-883.894 2214.26h22.9v5.23l-14.683 15.33h15.219v5.62h-24.848v-5.43l14.523-15.16h-13.111v-5.59ZM-856.492 2214.26h8.11v26.18h-8.11v-26.18ZM-842.666 2214.26h10.646l4.109 15.93 4.09-15.93h10.611v26.18h-6.609v-19.97l-5.127 19.97h-5.984l-5.109-19.97v19.97h-6.627v-26.18ZM-809.066 2227.37c0-4.28 1.191-7.61 3.573-9.99 2.382-2.38 5.698-3.57 9.95-3.57 4.359 0 7.717 1.17 10.075 3.51 2.358 2.34 3.537 5.62 3.537 9.83 0 3.06-.515 5.57-1.546 7.53a10.945 10.945 0 0 1-4.465 4.57c-1.947 1.09-4.374 1.64-7.28 1.64-2.953 0-5.397-.47-7.332-1.41-1.936-.94-3.505-2.43-4.707-4.47-1.203-2.03-1.805-4.58-1.805-7.64Zm8.092.03c0 2.65.492 4.55 1.474 5.7.983 1.16 2.319 1.73 4.01 1.73 1.739 0 3.085-.56 4.038-1.69.952-1.13 1.429-3.16 1.429-6.09 0-2.47-.498-4.27-1.492-5.41-.994-1.14-2.343-1.7-4.046-1.7-1.631 0-2.941.57-3.93 1.73-.988 1.15-1.483 3.07-1.483 5.73ZM-717.231 2214.26h22.901v5.23l-14.684 15.33h15.22v5.62h-24.848v-5.43l14.523-15.16h-13.112v-5.59ZM-689.829 2214.26h8.11v26.18h-8.11v-26.18ZM-676.003 2214.26h10.647l4.108 15.93 4.091-15.93h10.611v26.18h-6.61v-19.97l-5.126 19.97h-5.985l-5.108-19.97v19.97h-6.628v-26.18ZM-642.402 2227.37c0-4.28 1.191-7.61 3.573-9.99 2.381-2.38 5.698-3.57 9.949-3.57 4.359 0 7.717 1.17 10.075 3.51 2.358 2.34 3.537 5.62 3.537 9.83 0 3.06-.515 5.57-1.545 7.53a10.947 10.947 0 0 1-4.466 4.57c-1.947 1.09-4.373 1.64-7.279 1.64-2.953 0-5.398-.47-7.333-1.41-1.935-.94-3.504-2.43-4.707-4.47-1.203-2.03-1.804-4.58-1.804-7.64Zm8.092.03c0 2.65.491 4.55 1.474 5.7.982 1.16 2.319 1.73 4.01 1.73 1.739 0 3.084-.56 4.037-1.69.953-1.13 1.429-3.16 1.429-6.09 0-2.47-.497-4.27-1.491-5.41-.995-1.14-2.343-1.7-4.046-1.7-1.632 0-2.942.57-3.93 1.73-.989 1.15-1.483 3.07-1.483 5.73ZM-550.567 2214.26h22.9v5.23l-14.683 15.33h15.219v5.62h-24.848v-5.43l14.523-15.16h-13.111v-5.59ZM-523.165 2214.26h8.11v26.18h-8.11v-26.18ZM-509.339 2214.26h10.646l4.109 15.93 4.091-15.93h10.61v26.18h-6.609v-19.97l-5.127 19.97h-5.984l-5.109-19.97v19.97h-6.627v-26.18ZM-475.739 2227.37c0-4.28 1.191-7.61 3.573-9.99 2.382-2.38 5.698-3.57 9.95-3.57 4.359 0 7.717 1.17 10.075 3.51 2.358 2.34 3.537 5.62 3.537 9.83 0 3.06-.515 5.57-1.545 7.53a10.953 10.953 0 0 1-4.466 4.57c-1.947 1.09-4.374 1.64-7.28 1.64-2.953 0-5.397-.47-7.332-1.41-1.936-.94-3.505-2.43-4.707-4.47-1.203-2.03-1.805-4.58-1.805-7.64Zm8.093.03c0 2.65.491 4.55 1.473 5.7.983 1.16 2.319 1.73 4.011 1.73 1.738 0 3.084-.56 4.037-1.69.952-1.13 1.429-3.16 1.429-6.09 0-2.47-.498-4.27-1.492-5.41-.994-1.14-2.343-1.7-4.046-1.7-1.631 0-2.941.57-3.93 1.73-.988 1.15-1.482 3.07-1.482 5.73ZM-383.904 2214.26h22.901v5.23l-14.684 15.33h15.22v5.62h-24.848v-5.43l14.523-15.16h-13.112v-5.59ZM-356.502 2214.26h8.11v26.18h-8.11v-26.18ZM-342.676 2214.26h10.647l4.108 15.93 4.091-15.93h10.611v26.18h-6.61v-19.97l-5.126 19.97h-5.985l-5.108-19.97v19.97h-6.628v-26.18ZM-309.075 2227.37c0-4.28 1.191-7.61 3.573-9.99 2.381-2.38 5.698-3.57 9.949-3.57 4.359 0 7.717 1.17 10.075 3.51 2.358 2.34 3.537 5.62 3.537 9.83 0 3.06-.515 5.57-1.545 7.53a10.947 10.947 0 0 1-4.466 4.57c-1.947 1.09-4.373 1.64-7.279 1.64-2.953 0-5.398-.47-7.333-1.41-1.935-.94-3.504-2.43-4.707-4.47-1.203-2.03-1.804-4.58-1.804-7.64Zm8.092.03c0 2.65.491 4.55 1.474 5.7.982 1.16 2.319 1.73 4.01 1.73 1.739 0 3.084-.56 4.037-1.69.953-1.13 1.429-3.16 1.429-6.09 0-2.47-.497-4.27-1.491-5.41-.995-1.14-2.343-1.7-4.046-1.7-1.632 0-2.942.57-3.93 1.73-.989 1.15-1.483 3.07-1.483 5.73ZM-217.24 2214.26h22.9v5.23l-14.683 15.33h15.219v5.62h-24.848v-5.43l14.523-15.16h-13.111v-5.59ZM-189.838 2214.26h8.11v26.18h-8.11v-26.18ZM-176.012 2214.26h10.646l4.109 15.93 4.091-15.93h10.61v26.18h-6.609v-19.97l-5.127 19.97h-5.984l-5.109-19.97v19.97h-6.627v-26.18ZM-142.411 2227.37c0-4.28 1.19-7.61 3.572-9.99s5.699-3.57 9.95-3.57c4.359 0 7.717 1.17 10.075 3.51 2.358 2.34 3.537 5.62 3.537 9.83 0 3.06-.515 5.57-1.545 7.53a10.953 10.953 0 0 1-4.466 4.57c-1.947 1.09-4.374 1.64-7.28 1.64-2.953 0-5.397-.47-7.332-1.41-1.936-.94-3.505-2.43-4.707-4.47-1.203-2.03-1.804-4.58-1.804-7.64Zm8.092.03c0 2.65.491 4.55 1.473 5.7.983 1.16 2.32 1.73 4.011 1.73 1.738 0 3.084-.56 4.037-1.69.952-1.13 1.429-3.16 1.429-6.09 0-2.47-.498-4.27-1.492-5.41-.994-1.14-2.343-1.7-4.046-1.7-1.631 0-2.941.57-3.93 1.73-.988 1.15-1.482 3.07-1.482 5.73ZM-50.577 2214.26h22.9v5.23l-14.683 15.33h15.22v5.62h-24.848v-5.43l14.523-15.16h-13.112v-5.59ZM-23.175 2214.26h8.11v26.18h-8.11v-26.18ZM-9.349 2214.26H1.298l4.108 15.93 4.091-15.93h10.61v26.18h-6.609v-19.97l-5.126 19.97H2.388l-5.11-19.97v19.97h-6.627v-26.18ZM24.252 2227.37c0-4.28 1.19-7.61 3.573-9.99 2.381-2.38 5.698-3.57 9.95-3.57 4.358 0 7.716 1.17 10.074 3.51 2.358 2.34 3.537 5.62 3.537 9.83 0 3.06-.515 5.57-1.545 7.53a10.948 10.948 0 0 1-4.466 4.57c-1.947 1.09-4.373 1.64-7.279 1.64-2.953 0-5.398-.47-7.333-1.41-1.935-.94-3.504-2.43-4.707-4.47-1.203-2.03-1.804-4.58-1.804-7.64Zm8.092.03c0 2.65.491 4.55 1.474 5.7.982 1.16 2.319 1.73 4.01 1.73 1.739 0 3.084-.56 4.037-1.69.953-1.13 1.43-3.16 1.43-6.09 0-2.47-.498-4.27-1.492-5.41-.995-1.14-2.343-1.7-4.046-1.7-1.632 0-2.942.57-3.93 1.73-.989 1.15-1.483 3.07-1.483 5.73ZM116.087 2214.26h22.9v5.23l-14.683 15.33h15.219v5.62h-24.848v-5.43l14.523-15.16h-13.111v-5.59ZM143.489 2214.26h8.11v26.18h-8.11v-26.18ZM157.315 2214.26h10.646l4.109 15.93 4.091-15.93h10.61v26.18h-6.609v-19.97l-5.127 19.97h-5.984l-5.109-19.97v19.97h-6.627v-26.18ZM190.916 2227.37c0-4.28 1.19-7.61 3.572-9.99s5.699-3.57 9.95-3.57c4.359 0 7.717 1.17 10.075 3.51 2.358 2.34 3.537 5.62 3.537 9.83 0 3.06-.515 5.57-1.545 7.53a10.953 10.953 0 0 1-4.466 4.57c-1.947 1.09-4.374 1.64-7.279 1.64-2.954 0-5.398-.47-7.333-1.41-1.935-.94-3.504-2.43-4.707-4.47-1.203-2.03-1.804-4.58-1.804-7.64Zm8.092.03c0 2.65.491 4.55 1.473 5.7.983 1.16 2.32 1.73 4.011 1.73 1.738 0 3.084-.56 4.037-1.69.952-1.13 1.429-3.16 1.429-6.09 0-2.47-.497-4.27-1.492-5.41-.994-1.14-2.343-1.7-4.046-1.7-1.631 0-2.941.57-3.93 1.73-.988 1.15-1.482 3.07-1.482 5.73Z"/></g><g fill="url(#m)" opacity="1"><path d="M-689.881 2613.85h22.901v5.23l-14.684 15.33h15.219v5.62h-24.847v-5.43l14.523-15.16h-13.112v-5.59ZM-662.479 2613.85h8.11v26.18h-8.11v-26.18ZM-648.653 2613.85h10.647l4.108 15.93 4.091-15.93h10.611v26.18h-6.61v-19.97l-5.127 19.97h-5.984l-5.109-19.97v19.97h-6.627v-26.18ZM-615.052 2626.96c0-4.28 1.191-7.61 3.572-9.99 2.382-2.38 5.699-3.57 9.95-3.57 4.359 0 7.717 1.17 10.075 3.51 2.358 2.34 3.537 5.62 3.537 9.83 0 3.06-.515 5.57-1.545 7.53a11.03 11.03 0 0 1-4.466 4.58c-1.947 1.09-4.373 1.63-7.279 1.63-2.954 0-5.398-.47-7.333-1.41-1.935-.94-3.504-2.43-4.707-4.47-1.203-2.03-1.804-4.58-1.804-7.64Zm8.092.03c0 2.65.491 4.55 1.474 5.7.982 1.16 2.319 1.73 4.01 1.73 1.739 0 3.084-.56 4.037-1.69.953-1.13 1.429-3.16 1.429-6.09 0-2.47-.497-4.27-1.492-5.41-.994-1.13-2.343-1.7-4.046-1.7-1.631 0-2.941.57-3.929 1.73-.989 1.15-1.483 3.07-1.483 5.73ZM-523.218 2613.85h22.901v5.23L-515 2634.41h15.219v5.62h-24.848v-5.43l14.523-15.16h-13.112v-5.59ZM-495.815 2613.85h8.109v26.18h-8.109v-26.18ZM-481.989 2613.85h10.646l4.109 15.93 4.09-15.93h10.611v26.18h-6.609v-19.97l-5.127 19.97h-5.984l-5.109-19.97v19.97h-6.627v-26.18ZM-448.389 2626.96c0-4.28 1.191-7.61 3.573-9.99 2.382-2.38 5.698-3.57 9.95-3.57 4.358 0 7.717 1.17 10.075 3.51 2.358 2.34 3.537 5.62 3.537 9.83 0 3.06-.516 5.57-1.546 7.53a11.027 11.027 0 0 1-4.465 4.58c-1.948 1.09-4.374 1.63-7.28 1.63-2.953 0-5.397-.47-7.333-1.41-1.935-.94-3.504-2.43-4.706-4.47-1.203-2.03-1.805-4.58-1.805-7.64Zm8.092.03c0 2.65.492 4.55 1.474 5.7.983 1.16 2.319 1.73 4.01 1.73 1.739 0 3.085-.56 4.037-1.69.953-1.13 1.43-3.16 1.43-6.09 0-2.47-.498-4.27-1.492-5.41-.994-1.13-2.343-1.7-4.046-1.7-1.632 0-2.942.57-3.93 1.73-.988 1.15-1.483 3.07-1.483 5.73ZM-356.554 2613.85h22.901v5.23l-14.684 15.33h15.219v5.62h-24.847v-5.43l14.523-15.16h-13.112v-5.59ZM-329.152 2613.85h8.11v26.18h-8.11v-26.18ZM-315.326 2613.85h10.647l4.108 15.93 4.091-15.93h10.611v26.18h-6.61v-19.97l-5.127 19.97h-5.984l-5.109-19.97v19.97h-6.627v-26.18ZM-281.725 2626.96c0-4.28 1.191-7.61 3.573-9.99 2.381-2.38 5.698-3.57 9.949-3.57 4.359 0 7.717 1.17 10.075 3.51 2.358 2.34 3.537 5.62 3.537 9.83 0 3.06-.515 5.57-1.545 7.53a11.03 11.03 0 0 1-4.466 4.58c-1.947 1.09-4.373 1.63-7.279 1.63-2.954 0-5.398-.47-7.333-1.41-1.935-.94-3.504-2.43-4.707-4.47-1.203-2.03-1.804-4.58-1.804-7.64Zm8.092.03c0 2.65.491 4.55 1.474 5.7.982 1.16 2.319 1.73 4.01 1.73 1.739 0 3.084-.56 4.037-1.69.953-1.13 1.429-3.16 1.429-6.09 0-2.47-.497-4.27-1.492-5.41-.994-1.13-2.343-1.7-4.046-1.7-1.631 0-2.941.57-3.929 1.73-.989 1.15-1.483 3.07-1.483 5.73ZM-189.891 2613.85h22.901v5.23l-14.683 15.33h15.219v5.62h-24.848v-5.43l14.523-15.16h-13.112v-5.59ZM-162.488 2613.85h8.11v26.18h-8.11v-26.18ZM-148.662 2613.85h10.646l4.109 15.93 4.09-15.93h10.611v26.18h-6.609v-19.97l-5.127 19.97h-5.984l-5.109-19.97v19.97h-6.627v-26.18ZM-115.062 2626.96c0-4.28 1.191-7.61 3.573-9.99 2.382-2.38 5.698-3.57 9.95-3.57 4.358 0 7.717 1.17 10.075 3.51 2.358 2.34 3.537 5.62 3.537 9.83 0 3.06-.515 5.57-1.546 7.53a11.029 11.029 0 0 1-4.465 4.58c-1.947 1.09-4.374 1.63-7.28 1.63-2.953 0-5.397-.47-7.332-1.41-1.936-.94-3.505-2.43-4.707-4.47-1.203-2.03-1.805-4.58-1.805-7.64Zm8.092.03c0 2.65.492 4.55 1.474 5.7.983 1.16 2.319 1.73 4.01 1.73 1.74 0 3.085-.56 4.038-1.69.952-1.13 1.428-3.16 1.428-6.09 0-2.47-.497-4.27-1.491-5.41-.994-1.13-2.343-1.7-4.046-1.7-1.632 0-2.942.57-3.93 1.73-.988 1.15-1.483 3.07-1.483 5.73ZM-23.227 2613.85h22.9v5.23l-14.683 15.33H.21v5.62h-24.848v-5.43l14.523-15.16h-13.112v-5.59ZM4.175 2613.85h8.11v26.18h-8.11v-26.18ZM18.001 2613.85h10.647l4.108 15.93 4.09-15.93h10.612v26.18h-6.61v-19.97l-5.127 19.97h-5.984l-5.108-19.97v19.97H18v-26.18ZM51.602 2626.96c0-4.28 1.19-7.61 3.573-9.99 2.381-2.38 5.698-3.57 9.95-3.57 4.358 0 7.716 1.17 10.074 3.51 2.358 2.34 3.537 5.62 3.537 9.83 0 3.06-.515 5.57-1.545 7.53a11.029 11.029 0 0 1-4.466 4.58c-1.947 1.09-4.373 1.63-7.28 1.63-2.952 0-5.397-.47-7.332-1.41-1.935-.94-3.504-2.43-4.707-4.47-1.203-2.03-1.804-4.58-1.804-7.64Zm8.092.03c0 2.65.491 4.55 1.474 5.7.982 1.16 2.319 1.73 4.01 1.73 1.739 0 3.084-.56 4.037-1.69.953-1.13 1.429-3.16 1.429-6.09 0-2.47-.497-4.27-1.492-5.41-.994-1.13-2.343-1.7-4.046-1.7-1.631 0-2.941.57-3.93 1.73-.988 1.15-1.482 3.07-1.482 5.73ZM143.437 2613.85h22.9v5.23l-14.683 15.33h15.219v5.62h-24.848v-5.43l14.523-15.16h-13.111v-5.59ZM170.839 2613.85h8.11v26.18h-8.11v-26.18ZM184.665 2613.85h10.646l4.109 15.93 4.09-15.93h10.611v26.18h-6.609v-19.97l-5.127 19.97h-5.984l-5.109-19.97v19.97h-6.627v-26.18ZM218.265 2626.96c0-4.28 1.191-7.61 3.573-9.99 2.382-2.38 5.698-3.57 9.95-3.57 4.358 0 7.717 1.17 10.075 3.51 2.358 2.34 3.537 5.62 3.537 9.83 0 3.06-.515 5.57-1.546 7.53a11.027 11.027 0 0 1-4.465 4.58c-1.947 1.09-4.374 1.63-7.28 1.63-2.953 0-5.397-.47-7.332-1.41-1.936-.94-3.505-2.43-4.707-4.47-1.203-2.03-1.805-4.58-1.805-7.64Zm8.092.03c0 2.65.492 4.55 1.474 5.7.983 1.16 2.319 1.73 4.01 1.73 1.739 0 3.085-.56 4.038-1.69.952-1.13 1.429-3.16 1.429-6.09 0-2.47-.498-4.27-1.492-5.41-.994-1.13-2.343-1.7-4.046-1.7-1.632 0-2.941.57-3.93 1.73-.988 1.15-1.483 3.07-1.483 5.73ZM310.1 2613.85h22.901v5.23l-14.684 15.33h15.22v5.62h-24.848v-5.43l14.523-15.16H310.1v-5.59ZM337.502 2613.85h8.11v26.18h-8.11v-26.18ZM351.328 2613.85h10.647l4.108 15.93 4.091-15.93h10.611v26.18h-6.61v-19.97l-5.126 19.97h-5.985l-5.108-19.97v19.97h-6.628v-26.18ZM384.929 2626.96c0-4.28 1.191-7.61 3.573-9.99 2.381-2.38 5.698-3.57 9.949-3.57 4.359 0 7.717 1.17 10.075 3.51 2.358 2.34 3.537 5.62 3.537 9.83 0 3.06-.515 5.57-1.545 7.53a11.03 11.03 0 0 1-4.466 4.58c-1.947 1.09-4.373 1.63-7.279 1.63-2.953 0-5.398-.47-7.333-1.41-1.935-.94-3.504-2.43-4.707-4.47-1.203-2.03-1.804-4.58-1.804-7.64Zm8.092.03c0 2.65.491 4.55 1.474 5.7.982 1.16 2.319 1.73 4.01 1.73 1.739 0 3.084-.56 4.037-1.69.953-1.13 1.429-3.16 1.429-6.09 0-2.47-.497-4.27-1.491-5.41-.995-1.13-2.344-1.7-4.047-1.7-1.631 0-2.941.57-3.929 1.73-.989 1.15-1.483 3.07-1.483 5.73Z"/></g><g fill="url(#n)" opacity="1"><path d="M-1050.56 3001.29h22.9v5.24l-14.68 15.32h15.22v5.63h-24.85v-5.43l14.52-15.17h-13.11v-5.59ZM-1023.16 3001.29h8.11v26.19h-8.11v-26.19ZM-1009.33 3001.29h10.647l4.108 15.94 4.091-15.94h10.611v26.19h-6.61v-19.97l-5.126 19.97h-5.985l-5.106-19.97v19.97h-6.63v-26.19ZM-975.729 3014.4c0-4.27 1.191-7.6 3.573-9.98 2.381-2.38 5.698-3.57 9.949-3.57 4.359 0 7.717 1.17 10.075 3.51 2.358 2.34 3.537 5.61 3.537 9.83 0 3.06-.515 5.57-1.545 7.53-1.03 1.96-2.519 3.48-4.466 4.57-1.947 1.09-4.373 1.64-7.279 1.64-2.953 0-5.398-.47-7.333-1.41-1.935-.95-3.504-2.43-4.707-4.47-1.203-2.04-1.804-4.59-1.804-7.65Zm8.092.04c0 2.64.491 4.54 1.474 5.7.982 1.15 2.319 1.73 4.01 1.73 1.739 0 3.084-.56 4.037-1.7.953-1.13 1.429-3.16 1.429-6.09 0-2.46-.497-4.26-1.491-5.4-.995-1.14-2.344-1.71-4.046-1.71-1.632 0-2.942.58-3.93 1.74-.989 1.15-1.483 3.06-1.483 5.73ZM-883.894 3001.29h22.9v5.24l-14.683 15.32h15.219v5.63h-24.848v-5.43l14.523-15.17h-13.111v-5.59ZM-856.492 3001.29h8.11v26.19h-8.11v-26.19ZM-842.666 3001.29h10.646l4.109 15.94 4.09-15.94h10.611v26.19h-6.609v-19.97l-5.127 19.97h-5.984l-5.109-19.97v19.97h-6.627v-26.19ZM-809.066 3014.4c0-4.27 1.191-7.6 3.573-9.98 2.382-2.38 5.698-3.57 9.95-3.57 4.359 0 7.717 1.17 10.075 3.51 2.358 2.34 3.537 5.61 3.537 9.83 0 3.06-.515 5.57-1.546 7.53-1.03 1.96-2.518 3.48-4.465 4.57-1.947 1.09-4.374 1.64-7.28 1.64-2.953 0-5.397-.47-7.332-1.41-1.936-.95-3.505-2.43-4.707-4.47-1.203-2.04-1.805-4.59-1.805-7.65Zm8.092.04c0 2.64.492 4.54 1.474 5.7.983 1.15 2.319 1.73 4.01 1.73 1.739 0 3.085-.56 4.038-1.7.952-1.13 1.429-3.16 1.429-6.09 0-2.46-.498-4.26-1.492-5.4-.994-1.14-2.343-1.71-4.046-1.71-1.631 0-2.941.58-3.93 1.74-.988 1.15-1.483 3.06-1.483 5.73ZM-717.231 3001.29h22.901v5.24l-14.684 15.32h15.22v5.63h-24.848v-5.43l14.523-15.17h-13.112v-5.59ZM-689.829 3001.29h8.11v26.19h-8.11v-26.19ZM-676.003 3001.29h10.647l4.108 15.94 4.091-15.94h10.611v26.19h-6.61v-19.97l-5.126 19.97h-5.985l-5.108-19.97v19.97h-6.628v-26.19ZM-642.402 3014.4c0-4.27 1.191-7.6 3.573-9.98 2.381-2.38 5.698-3.57 9.949-3.57 4.359 0 7.717 1.17 10.075 3.51 2.358 2.34 3.537 5.61 3.537 9.83 0 3.06-.515 5.57-1.545 7.53-1.03 1.96-2.519 3.48-4.466 4.57-1.947 1.09-4.373 1.64-7.279 1.64-2.953 0-5.398-.47-7.333-1.41-1.935-.95-3.504-2.43-4.707-4.47-1.203-2.04-1.804-4.59-1.804-7.65Zm8.092.04c0 2.64.491 4.54 1.474 5.7.982 1.15 2.319 1.73 4.01 1.73 1.739 0 3.084-.56 4.037-1.7.953-1.13 1.429-3.16 1.429-6.09 0-2.46-.497-4.26-1.491-5.4-.995-1.14-2.343-1.71-4.046-1.71-1.632 0-2.942.58-3.93 1.74-.989 1.15-1.483 3.06-1.483 5.73ZM-550.567 3001.29h22.9v5.24l-14.683 15.32h15.219v5.63h-24.848v-5.43l14.523-15.17h-13.111v-5.59ZM-523.165 3001.29h8.11v26.19h-8.11v-26.19ZM-509.339 3001.29h10.646l4.109 15.94 4.091-15.94h10.61v26.19h-6.609v-19.97l-5.127 19.97h-5.984l-5.109-19.97v19.97h-6.627v-26.19ZM-475.739 3014.4c0-4.27 1.191-7.6 3.573-9.98 2.382-2.38 5.698-3.57 9.95-3.57 4.359 0 7.717 1.17 10.075 3.51 2.358 2.34 3.537 5.61 3.537 9.83 0 3.06-.515 5.57-1.545 7.53-1.031 1.96-2.519 3.48-4.466 4.57-1.947 1.09-4.374 1.64-7.28 1.64-2.953 0-5.397-.47-7.332-1.41-1.936-.95-3.505-2.43-4.707-4.47-1.203-2.04-1.805-4.59-1.805-7.65Zm8.093.04c0 2.64.491 4.54 1.473 5.7.983 1.15 2.319 1.73 4.011 1.73 1.738 0 3.084-.56 4.037-1.7.952-1.13 1.429-3.16 1.429-6.09 0-2.46-.498-4.26-1.492-5.4-.994-1.14-2.343-1.71-4.046-1.71-1.631 0-2.941.58-3.93 1.74-.988 1.15-1.482 3.06-1.482 5.73ZM-383.904 3001.29h22.901v5.24l-14.684 15.32h15.22v5.63h-24.848v-5.43l14.523-15.17h-13.112v-5.59ZM-356.502 3001.29h8.11v26.19h-8.11v-26.19ZM-342.676 3001.29h10.647l4.108 15.94 4.091-15.94h10.611v26.19h-6.61v-19.97l-5.126 19.97h-5.985l-5.108-19.97v19.97h-6.628v-26.19ZM-309.075 3014.4c0-4.27 1.191-7.6 3.573-9.98 2.381-2.38 5.698-3.57 9.949-3.57 4.359 0 7.717 1.17 10.075 3.51 2.358 2.34 3.537 5.61 3.537 9.83 0 3.06-.515 5.57-1.545 7.53-1.03 1.96-2.519 3.48-4.466 4.57-1.947 1.09-4.373 1.64-7.279 1.64-2.953 0-5.398-.47-7.333-1.41-1.935-.95-3.504-2.43-4.707-4.47-1.203-2.04-1.804-4.59-1.804-7.65Zm8.092.04c0 2.64.491 4.54 1.474 5.7.982 1.15 2.319 1.73 4.01 1.73 1.739 0 3.084-.56 4.037-1.7.953-1.13 1.429-3.16 1.429-6.09 0-2.46-.497-4.26-1.491-5.4-.995-1.14-2.343-1.71-4.046-1.71-1.632 0-2.942.58-3.93 1.74-.989 1.15-1.483 3.06-1.483 5.73ZM-217.24 3001.29h22.9v5.24l-14.683 15.32h15.219v5.63h-24.848v-5.43l14.523-15.17h-13.111v-5.59ZM-189.838 3001.29h8.11v26.19h-8.11v-26.19ZM-176.012 3001.29h10.646l4.109 15.94 4.091-15.94h10.61v26.19h-6.609v-19.97l-5.127 19.97h-5.984l-5.109-19.97v19.97h-6.627v-26.19ZM-142.411 3014.4c0-4.27 1.19-7.6 3.572-9.98 2.382-2.38 5.699-3.57 9.95-3.57 4.359 0 7.717 1.17 10.075 3.51 2.358 2.34 3.537 5.61 3.537 9.83 0 3.06-.515 5.57-1.545 7.53-1.031 1.96-2.519 3.48-4.466 4.57-1.947 1.09-4.374 1.64-7.28 1.64-2.953 0-5.397-.47-7.332-1.41-1.936-.95-3.505-2.43-4.707-4.47-1.203-2.04-1.804-4.59-1.804-7.65Zm8.092.04c0 2.64.491 4.54 1.473 5.7.983 1.15 2.32 1.73 4.011 1.73 1.738 0 3.084-.56 4.037-1.7.952-1.13 1.429-3.16 1.429-6.09 0-2.46-.498-4.26-1.492-5.4-.994-1.14-2.343-1.71-4.046-1.71-1.631 0-2.941.58-3.93 1.74-.988 1.15-1.482 3.06-1.482 5.73ZM-50.577 3001.29h22.9v5.24l-14.683 15.32h15.22v5.63h-24.848v-5.43l14.523-15.17h-13.112v-5.59ZM-23.175 3001.29h8.11v26.19h-8.11v-26.19ZM-9.349 3001.29H1.298l4.108 15.94 4.091-15.94h10.61v26.19h-6.609v-19.97l-5.126 19.97H2.388l-5.11-19.97v19.97h-6.627v-26.19ZM24.252 3014.4c0-4.27 1.19-7.6 3.573-9.98 2.381-2.38 5.698-3.57 9.95-3.57 4.358 0 7.716 1.17 10.074 3.51 2.358 2.34 3.537 5.61 3.537 9.83 0 3.06-.515 5.57-1.545 7.53-1.03 1.96-2.519 3.48-4.466 4.57-1.947 1.09-4.373 1.64-7.279 1.64-2.953 0-5.398-.47-7.333-1.41-1.935-.95-3.504-2.43-4.707-4.47-1.203-2.04-1.804-4.59-1.804-7.65Zm8.092.04c0 2.64.491 4.54 1.474 5.7.982 1.15 2.319 1.73 4.01 1.73 1.739 0 3.084-.56 4.037-1.7.953-1.13 1.43-3.16 1.43-6.09 0-2.46-.498-4.26-1.492-5.4-.995-1.14-2.343-1.71-4.046-1.71-1.632 0-2.942.58-3.93 1.74-.989 1.15-1.483 3.06-1.483 5.73ZM116.087 3001.29h22.9v5.24l-14.683 15.32h15.219v5.63h-24.848v-5.43l14.523-15.17h-13.111v-5.59ZM143.489 3001.29h8.11v26.19h-8.11v-26.19ZM157.315 3001.29h10.646l4.109 15.94 4.091-15.94h10.61v26.19h-6.609v-19.97l-5.127 19.97h-5.984l-5.109-19.97v19.97h-6.627v-26.19ZM190.916 3014.4c0-4.27 1.19-7.6 3.572-9.98 2.382-2.38 5.699-3.57 9.95-3.57 4.359 0 7.717 1.17 10.075 3.51 2.358 2.34 3.537 5.61 3.537 9.83 0 3.06-.515 5.57-1.545 7.53-1.031 1.96-2.519 3.48-4.466 4.57-1.947 1.09-4.374 1.64-7.279 1.64-2.954 0-5.398-.47-7.333-1.41-1.935-.95-3.504-2.43-4.707-4.47-1.203-2.04-1.804-4.59-1.804-7.65Zm8.092.04c0 2.64.491 4.54 1.473 5.7.983 1.15 2.32 1.73 4.011 1.73 1.738 0 3.084-.56 4.037-1.7.952-1.13 1.429-3.16 1.429-6.09 0-2.46-.497-4.26-1.492-5.4-.994-1.14-2.343-1.71-4.046-1.71-1.631 0-2.941.58-3.93 1.74-.988 1.15-1.482 3.06-1.482 5.73Z"/></g></g><g opacity=".202"><path fill="#ff7900" d="M452.232 903.235c-85.847 0-155.439 69.593-155.439 155.435v1015.54c0 85.85 69.592 155.44 155.439 155.44H1467.77c85.84 0 155.44-69.59 155.44-155.44V1058.67c0-85.842-69.6-155.435-155.44-155.435H452.232ZM960 1255.56c171.69 0 310.88 139.19 310.88 310.88 0 171.7-139.19 310.88-310.88 310.88-171.693 0-310.878-139.18-310.878-310.88 0-171.69 139.185-310.88 310.878-310.88Z" opacity="1"/></g><g opacity=".202"><path fill="#ff8100" d="M672.579 660.229c-85.847 0-155.439 69.593-155.439 155.439V1831.2c0 85.85 69.592 155.44 155.439 155.44H1688.12c85.84 0 155.43-69.59 155.43-155.44V815.668c0-85.846-69.59-155.439-155.43-155.439H672.579Zm507.771 352.331c171.69 0 310.88 139.18 310.88 310.88 0 171.69-139.19 310.87-310.88 310.87-171.7 0-310.881-139.18-310.881-310.87 0-171.7 139.181-310.88 310.881-310.88Z" opacity="1"/></g><g opacity=".202"><path fill="#ff8200" d="M833.501 451.98c-85.846 0-155.439 69.593-155.439 155.439V1622.96c0 85.84 69.593 155.43 155.439 155.43H1849.04c85.84 0 155.44-69.59 155.44-155.43V607.419c0-85.846-69.6-155.439-155.44-155.439H833.501Zm507.769 352.329c171.69 0 310.88 139.185 310.88 310.881 0 171.69-139.19 310.88-310.88 310.88s-310.88-139.19-310.88-310.88c0-171.696 139.19-310.881 310.88-310.881Z" opacity="1"/></g><g opacity=".202"><path fill="#ff6700" d="M993.688 296.793c-85.847 0-155.439 69.592-155.439 155.439V1467.77c0 85.84 69.592 155.44 155.439 155.44H2009.22c85.85 0 155.44-69.6 155.44-155.44V452.232c0-85.847-69.59-155.439-155.44-155.439H993.688Zm507.772 352.329c171.69 0 310.87 139.185 310.87 310.878 0 171.69-139.18 310.88-310.87 310.88-171.7 0-310.88-139.19-310.88-310.88 0-171.693 139.18-310.878 310.88-310.878Z" opacity="1"/></g><g opacity=".202"><path fill="#ffa600" d="M282.59 1137.09c-85.847 0-155.439 69.59-155.439 155.44v1015.53c0 85.85 69.592 155.44 155.439 155.44h1015.54c85.84 0 155.44-69.59 155.44-155.44V1292.53c0-85.85-69.6-155.44-155.44-155.44H282.59Zm507.768 352.33c171.694 0 310.882 139.18 310.882 310.88 0 171.69-139.188 310.88-310.882 310.88-171.693 0-310.878-139.19-310.878-310.88 0-171.7 139.185-310.88 310.878-310.88Z" opacity="1"/></g></g></svg>