<svg xmlns="http://www.w3.org/2000/svg" fill="none" viewBox="0 0 32 32"><g clip-path="url(#a)"><path fill="#65AFFE" d="M32 0H0v32h32z"/><path fill="#65AFFE" d="M1 0H0v1h1zm1 0H1v1h1zm1 0H2v1h1z"/><path fill="#9ACBFB" d="M4 0H3v1h1zm1 0H4v1h1zm1 0H5v1h1z"/><path fill="#65AFFE" d="M7 0H6v1h1zm1 0H7v1h1zm1 0H8v1h1zm1 0H9v1h1zm1 0h-1v1h1zm1 0h-1v1h1zm1 0h-1v1h1zm1 0h-1v1h1z"/><path fill="#6BB2FF" d="M15 0h-1v1h1zm1 0h-1v1h1z"/><path fill="#9ACBFB" d="M17 0h-1v1h1zm1 0h-1v1h1z"/><path fill="#6BB2FF" d="M19 0h-1v1h1z"/><path fill="#65AFFE" d="M20 0h-1v1h1zm1 0h-1v1h1zm1 0h-1v1h1zm1 0h-1v1h1zm1 0h-1v1h1zm1 0h-1v1h1zm1 0h-1v1h1zm1 0h-1v1h1zm1 0h-1v1h1zm1 0h-1v1h1zm1 0h-1v1h1zm1 0h-1v1h1zm1 0h-1v1h1z"/><path fill="#66AFFF" d="M1 1H0v1h1z"/><path fill="#65AFFE" d="M2 1H1v1h1zm1 0H2v1h1zm1 0H3v1h1zm1 0H4v1h1zm1 0H5v1h1zm1 0H6v1h1z"/><path fill="#66AFFF" d="M8 1H7v1h1z"/><path fill="#65AFFE" d="M9 1H8v1h1z"/><path fill="#66AFFF" d="M10 1H9v1h1z"/><path fill="#65AFFE" d="M11 1h-1v1h1z"/><path fill="#66AFFF" d="M12 1h-1v1h1z"/><path fill="#65AFFE" d="M13 1h-1v1h1zm1 0h-1v1h1zm1 0h-1v1h1zm1 0h-1v1h1zm1 0h-1v1h1zm1 0h-1v1h1z"/><path fill="#66AFFF" d="M19 1h-1v1h1z"/><path fill="#65AFFE" d="M20 1h-1v1h1zm1 0h-1v1h1z"/><path fill="#66AFFF" d="M22 1h-1v1h1z"/><path fill="#65AFFE" d="M23 1h-1v1h1zm1 0h-1v1h1zm1 0h-1v1h1zm1 0h-1v1h1zm1 0h-1v1h1zm1 0h-1v1h1z"/><path fill="#CDE9FF" d="M29 1h-1v1h1z"/><path fill="#fff" d="M30 1h-1v1h1zm1 0h-1v1h1zm1 0h-1v1h1z"/><path fill="#65AFFE" d="M1 2H0v1h1zm1 0H1v1h1zm1 0H2v1h1zm1 0H3v1h1zm1 0H4v1h1zm1 0H5v1h1zm1 0H6v1h1zm1 0H7v1h1zm1 0H8v1h1zm1 0H9v1h1zm1 0h-1v1h1zm1 0h-1v1h1zm1 0h-1v1h1zm1 0h-1v1h1zm1 0h-1v1h1zm1 0h-1v1h1zm1 0h-1v1h1zm1 0h-1v1h1zm1 0h-1v1h1zm1 0h-1v1h1zm1 0h-1v1h1z"/><path fill="#FFE151" d="M22 2h-1v1h1z"/><path fill="#65AFFE" d="M23 2h-1v1h1zm1 0h-1v1h1z"/><path fill="#FFDD48" d="M25 2h-1v1h1z"/><path fill="#65AFFE" d="M26 2h-1v1h1zm1 0h-1v1h1z"/><path fill="#FFE151" d="M28 2h-1v1h1z"/><path fill="#9ACBFB" d="M29 2h-1v1h1z"/><path fill="#CDE9FF" d="M30 2h-1v1h1zm1 0h-1v1h1zm1 0h-1v1h1z"/><path fill="#fff" d="M1 3H0v1h1zm1 0H1v1h1zm1 0H2v1h1z"/><path fill="#CDE9FF" d="M4 3H3v1h1z"/><path fill="#fff" d="M5 3H4v1h1zm1 0H5v1h1z"/><path fill="#65AFFE" d="M7 3H6v1h1zm1 0H7v1h1zm1 0H8v1h1z"/><path fill="#66AFFF" d="M10 3H9v1h1z"/><path fill="#65AFFE" d="M11 3h-1v1h1z"/><path fill="#CDE9FF" d="M12 3h-1v1h1zm1 0h-1v1h1zm1 0h-1v1h1z"/><path fill="#65AFFE" d="M15 3h-1v1h1zm1 0h-1v1h1zm1 0h-1v1h1zm1 0h-1v1h1z"/><path fill="#66AFFF" d="M19 3h-1v1h1z"/><path fill="#65AFFE" d="M20 3h-1v1h1zm1 0h-1v1h1z"/><path fill="#fff" d="M22 3h-1v1h1zm1 0h-1v1h1z"/><path fill="#FFE14E" d="M24 3h-1v1h1z"/><path fill="#FFB712" d="M25 3h-1v1h1z"/><path fill="#FFE151" d="M26 3h-1v1h1z"/><path fill="#65AFFE" d="M27 3h-1v1h1z"/><path fill="#FFAF2C" d="M28 3h-1v1h1z"/><path fill="#FFDD48" d="M29 3h-1v1h1z"/><path fill="#65AFFE" d="M30 3h-1v1h1zm1 0h-1v1h1zm1 0h-1v1h1z"/><path fill="#CDE9FF" d="M1 4H0v1h1zm1 0H1v1h1z"/><path fill="#fff" d="M3 4H2v1h1z"/><path fill="#CDE9FF" d="M4 4H3v1h1z"/><path fill="#fff" d="M5 4H4v1h1zm1 0H5v1h1z"/><path fill="#9ACBFB" d="M7 4H6v1h1z"/><path fill="#67AFFF" d="M8 4H7v1h1zm1 0H8v1h1zm1 0H9v1h1z"/><path fill="#66AFFF" d="M11 4h-1v1h1z"/><path fill="#67AFFF" d="M12 4h-1v1h1z"/><path fill="#66AFFF" d="M13 4h-1v1h1zm1 0h-1v1h1zm1 0h-1v1h1zm1 0h-1v1h1zm1 0h-1v1h1zm1 0h-1v1h1z"/><path fill="#CDE9FF" d="M19 4h-1v1h1z"/><path fill="#fff" d="M20 4h-1v1h1zm1 0h-1v1h1zm1 0h-1v1h1zm1 0h-1v1h1zm1 0h-1v1h1z"/><path fill="#FFA713" d="M25 4h-1v1h1zm1 0h-1v1h1zm1 0h-1v1h1z"/><path fill="#FFA81C" d="M28 4h-1v1h1z"/><path fill="#FFD942" d="M29 4h-1v1h1z"/><path fill="#66AFFF" d="M30 4h-1v1h1zm1 0h-1v1h1zm1 0h-1v1h1z"/><path fill="#9ACBFB" d="M1 5H0v1h1zm1 0H1v1h1zm1 0H2v1h1zm1 0H3v1h1zm1 0H4v1h1zm1 0H5v1h1z"/><path fill="#67AFFF" d="M7 5H6v1h1zm1 0H7v1h1zm1 0H8v1h1zm1 0H9v1h1zm1 0h-1v1h1zm1 0h-1v1h1z"/><path fill="#66AFFF" d="M13 5h-1v1h1zm1 0h-1v1h1zm1 0h-1v1h1zm1 0h-1v1h1zm1 0h-1v1h1z"/><path fill="#FFE151" d="M18 5h-1v1h1z"/><path fill="#9ACBFB" d="M19 5h-1v1h1z"/><path fill="#CDE9FF" d="M20 5h-1v1h1zm1 0h-1v1h1zm1 0h-1v1h1z"/><path fill="#fff" d="M23 5h-1v1h1z"/><path fill="#CDE9FF" d="M24 5h-1v1h1z"/><path fill="#FFB712" d="M25 5h-1v1h1zm1 0h-1v1h1z"/><path fill="#FFAD0D" d="M27 5h-1v1h1z"/><path fill="#FFA11B" d="M28 5h-1v1h1z"/><path fill="#FFD942" d="M29 5h-1v1h1z"/><path fill="#FFE25A" d="M30 5h-1v1h1z"/><path fill="#FFCB23" d="M31 5h-1v1h1z"/><path fill="#66AFFF" d="M32 5h-1v1h1z"/><path fill="#67AFFF" d="M1 6H0v1h1zm1 0H1v1h1zm1 0H2v1h1zm1 0H3v1h1zm1 0H4v1h1zm1 0H5v1h1zm1 0H6v1h1z"/><path fill="#68B0FF" d="M8 6H7v1h1zm1 0H8v1h1zm1 0H9v1h1zm1 0h-1v1h1zm1 0h-1v1h1z"/><path fill="#67AFFF" d="M13 6h-1v1h1zm1 0h-1v1h1zm1 0h-1v1h1z"/><path fill="#66AFFF" d="M16 6h-1v1h1z"/><path fill="#67AFFF" d="M17 6h-1v1h1z"/><path fill="#68B0FF" d="M18 6h-1v1h1z"/><path fill="#9ACBFB" d="M19 6h-1v1h1zm1 0h-1v1h1zm1 0h-1v1h1z"/><path fill="#FFAD0D" d="M22 6h-1v1h1z"/><path fill="#FFC829" d="M23 6h-1v1h1zm1 0h-1v1h1z"/><path fill="#FFCB23" d="M25 6h-1v1h1z"/><path fill="#FFCD29" d="M26 6h-1v1h1z"/><path fill="#FFC829" d="M27 6h-1v1h1z"/><path fill="#FFAD0D" d="M28 6h-1v1h1z"/><path fill="#9ACBFB" d="M29 6h-1v1h1z"/><path fill="#fff" d="M30 6h-1v1h1zm1 0h-1v1h1zm1 0h-1v1h1z"/><path fill="#67AFFF" d="M1 7H0v1h1zm1 0H1v1h1zm1 0H2v1h1zm1 0H3v1h1zm1 0H4v1h1zm1 0H5v1h1z"/><path fill="#68B0FF" d="M7 7H6v1h1zm1 0H7v1h1z"/><path fill="#67AFFF" d="M9 7H8v1h1z"/><path fill="#68B0FF" d="M10 7H9v1h1zm1 0h-1v1h1zm1 0h-1v1h1z"/><path fill="#67AFFF" d="M13 7h-1v1h1zm1 0h-1v1h1zm1 0h-1v1h1zm1 0h-1v1h1z"/><path fill="#FFE14E" d="M17 7h-1v1h1z"/><path fill="#FFE25A" d="M18 7h-1v1h1z"/><path fill="#FFE14E" d="M19 7h-1v1h1z"/><path fill="#FFDF4C" d="M20 7h-1v1h1z"/><path fill="#FFAC0A" d="M21 7h-1v1h1z"/><path fill="#FFC829" d="M22 7h-1v1h1z"/><path fill="#FFDC51" d="M23 7h-1v1h1z"/><path fill="#FFDD54" d="M24 7h-1v1h1zm1 0h-1v1h1zm1 0h-1v1h1z"/><path fill="#FFDC51" d="M27 7h-1v1h1z"/><path fill="#C6E5FF" d="M28 7h-1v1h1z"/><path fill="#F8FCFF" d="M29 7h-1v1h1z"/><path fill="#fff" d="M30 7h-1v1h1zm1 0h-1v1h1zm1 0h-1v1h1z"/><path fill="#67AFFF" d="M1 8H0v1h1zm1 0H1v1h1zm1 0H2v1h1zm1 0H3v1h1zm1 0H4v1h1z"/><path fill="#65AFFE" d="M6 8H5v1h1z"/><path fill="#67AFFF" d="M7 8H6v1h1zm1 0H7v1h1zm1 0H8v1h1zm1 0H9v1h1zm1 0h-1v1h1zm1 0h-1v1h1z"/><path fill="#65AFFE" d="M13 8h-1v1h1zm1 0h-1v1h1z"/><path fill="#fff" d="M15 8h-1v1h1z"/><path fill="#65AFFE" d="M16 8h-1v1h1zm1 0h-1v1h1z"/><path fill="#FFE14E" d="M18 8h-1v1h1z"/><path fill="#FFCD29" d="M19 8h-1v1h1z"/><path fill="#FFAD0D" d="M20 8h-1v1h1z"/><path fill="#FEB919" d="M21 8h-1v1h1z"/><path fill="#FFCE2F" d="M22 8h-1v1h1z"/><path fill="#FFDD54" d="M23 8h-1v1h1z"/><path fill="#FFD942" d="M24 8h-1v1h1z"/><path fill="#FFCE2F" d="M25 8h-1v1h1z"/><path fill="#CDE9FF" d="M26 8h-1v1h1z"/><path fill="#fff" d="M27 8h-1v1h1z"/><path fill="#CDE9FF" d="M28 8h-1v1h1z"/><path fill="#fff" d="M29 8h-1v1h1z"/><path fill="#CDE9FF" d="M30 8h-1v1h1z"/><path fill="#fff" d="M31 8h-1v1h1zm1 0h-1v1h1z"/><path fill="#67AFFF" d="M1 9H0v1h1z"/><path fill="#CDE9FF" d="M2 9H1v1h1z"/><path fill="#fff" d="M3 9H2v1h1zm1 0H3v1h1zm1 0H4v1h1z"/><path fill="#67AFFF" d="M6 9H5v1h1zm1 0H6v1h1zm1 0H7v1h1zm1 0H8v1h1zm1 0H9v1h1zm1 0h-1v1h1zm1 0h-1v1h1zm1 0h-1v1h1z"/><path fill="#65AFFE" d="M14 9h-1v1h1z"/><path fill="#9ACBFB" d="M15 9h-1v1h1z"/><path fill="#65AFFE" d="M16 9h-1v1h1zm1 0h-1v1h1z"/><path fill="#67AFFF" d="M18 9h-1v1h1z"/><path fill="#FFDF4C" d="M19 9h-1v1h1z"/><path fill="#FFAD0D" d="M20 9h-1v1h1z"/><path fill="#FFBE27" d="M21 9h-1v1h1z"/><path fill="#FFDC51" d="M22 9h-1v1h1z"/><path fill="#FFE25A" d="M23 9h-1v1h1z"/><path fill="#FFCE2F" d="M24 9h-1v1h1zm1 0h-1v1h1z"/><path fill="#CDE9FF" d="M26 9h-1v1h1z"/><path fill="#fff" d="M27 9h-1v1h1zm1 0h-1v1h1z"/><path fill="#CDE9FF" d="M29 9h-1v1h1zm1 0h-1v1h1zm1 0h-1v1h1zm1 0h-1v1h1z"/><path fill="#67AFFF" d="M1 10H0v1h1z"/><path fill="#9ACBFB" d="M2 10H1v1h1z"/><path fill="#CDE9FF" d="M3 10H2v1h1z"/><path fill="#fff" d="M4 10H3v1h1zm1 0H4v1h1z"/><path fill="#CDE9FF" d="M6 10H5v1h1zm1 0H6v1h1z"/><path fill="#fff" d="M8 10H7v1h1zm1 0H8v1h1z"/><path fill="#67AFFF" d="M10 10H9v1h1zm1 0h-1v1h1zm1 0h-1v1h1zm1 0h-1v1h1z"/><path fill="#65AFFE" d="M14 10h-1v1h1zm1 0h-1v1h1zm1 0h-1v1h1z"/><path fill="#FFDF4C" d="M17 10h-1v1h1z"/><path fill="#FFE14E" d="M18 10h-1v1h1z"/><path fill="#FFCE2F" d="M19 10h-1v1h1z"/><path fill="#FFAC0A" d="M20 10h-1v1h1z"/><path fill="#FFBE27" d="M21 10h-1v1h1z"/><path fill="#FFD949" d="M22 10h-1v1h1z"/><path fill="#FFE25A" d="M23 10h-1v1h1z"/><path fill="#9ACBFB" d="M24 10h-1v1h1z"/><path fill="#CDE9FF" d="M25 10h-1v1h1z"/><path fill="#9ACBFB" d="M26 10h-1v1h1z"/><path fill="#CDE9FF" d="M27 10h-1v1h1zm1 0h-1v1h1z"/><path fill="#9ACBFB" d="M29 10h-1v1h1zm1 0h-1v1h1zm1 0h-1v1h1z"/><path fill="#CDE9FF" d="M32 10h-1v1h1zM1 11H0v1h1z"/><path fill="#9ACBFB" d="M2 11H1v1h1zm1 0H2v1h1z"/><path fill="#CDE9FF" d="M4 11H3v1h1z"/><path fill="#fff" d="M5 11H4v1h1zm1 0H5v1h1z"/><path fill="#CDE9FF" d="M7 11H6v1h1z"/><path fill="#fff" d="M8 11H7v1h1zm1 0H8v1h1z"/><path fill="#68B0FF" d="M10 11H9v1h1z"/><path fill="#67AFFF" d="M11 11h-1v1h1z"/><path fill="#68B0FF" d="M12 11h-1v1h1z"/><path fill="#67AFFF" d="M13 11h-1v1h1zm1 0h-1v1h1zm1 0h-1v1h1zm1 0h-1v1h1zm1 0h-1v1h1z"/><path fill="#FFCB23" d="M18 11h-1v1h1z"/><path fill="#FFC016" d="M19 11h-1v1h1zm1 0h-1v1h1z"/><path fill="#FFAC0A" d="M21 11h-1v1h1z"/><path fill="#FFC61E" d="M22 11h-1v1h1z"/><path fill="#FFDD54" d="M23 11h-1v1h1z"/><path fill="#9ACBFB" d="M24 11h-1v1h1zm1 0h-1v1h1z"/><path fill="#FFDC51" d="M26 11h-1v1h1z"/><path fill="#FFDD54" d="M27 11h-1v1h1z"/><path fill="#9ACBFB" d="M28 11h-1v1h1z"/><path fill="#FFBE27" d="M29 11h-1v1h1z"/><path fill="#FFA11B" d="M30 11h-1v1h1z"/><path fill="#9ACBFB" d="M31 11h-1v1h1zm1 0h-1v1h1z"/><path fill="#CDE9FF" d="M1 12H0v1h1z"/><path fill="#9ACBFB" d="M2 12H1v1h1zm1 0H2v1h1z"/><path fill="#CDE9FF" d="M4 12H3v1h1zm1 0H4v1h1zm1 0H5v1h1z"/><path fill="#9ACBFB" d="M7 12H6v1h1z"/><path fill="#CDE9FF" d="M8 12H7v1h1zm1 0H8v1h1z"/><path fill="#68B0FF" d="M10 12H9v1h1zm1 0h-1v1h1zm1 0h-1v1h1zm1 0h-1v1h1zm1 0h-1v1h1zm1 0h-1v1h1z"/><path fill="#CDE9FF" d="M16 12h-1v1h1zm1 0h-1v1h1z"/><path fill="#fff" d="M18 12h-1v1h1zm1 0h-1v1h1z"/><path fill="#FFE151" d="M20 12h-1v1h1z"/><path fill="#FFAD0D" d="M21 12h-1v1h1z"/><path fill="#FFB825" d="M22 12h-1v1h1z"/><path fill="#FFCB23" d="M23 12h-1v1h1z"/><path fill="#FFDD54" d="M24 12h-1v1h1zm1 0h-1v1h1zm1 0h-1v1h1z"/><path fill="#FFCB23" d="M27 12h-1v1h1z"/><path fill="#FFBE27" d="M28 12h-1v1h1z"/><path fill="#FFA713" d="M29 12h-1v1h1z"/><path fill="#FF9E1A" d="M30 12h-1v1h1z"/><path fill="#FFCE2F" d="M31 12h-1v1h1z"/><path fill="#FFE14E" d="M32 12h-1v1h1z"/><path fill="#69B1FF" d="M1 13H0v1h1z"/><path fill="#68B0FF" d="M2 13H1v1h1zm1 0H2v1h1zm1 0H3v1h1z"/><path fill="#3A7459" d="M5 13H4v1h1z"/><path fill="#68B0FF" d="M6 13H5v1h1zm1 0H6v1h1zm1 0H7v1h1zm1 0H8v1h1zm1 0H9v1h1zm1 0h-1v1h1zm1 0h-1v1h1zm1 0h-1v1h1zm1 0h-1v1h1z"/><path fill="#CDE9FF" d="M15 13h-1v1h1zm1 0h-1v1h1z"/><path fill="#4A8A60" d="M17 13h-1v1h1z"/><path fill="#fff" d="M18 13h-1v1h1zm1 0h-1v1h1z"/><path fill="#CDE9FF" d="M20 13h-1v1h1zm1 0h-1v1h1z"/><path fill="#fff" d="M22 13h-1v1h1zm1 0h-1v1h1z"/><path fill="#FFBE27" d="M24 13h-1v1h1zm1 0h-1v1h1zm1 0h-1v1h1z"/><path fill="#FFB21D" d="M27 13h-1v1h1z"/><path fill="#FFA713" d="M28 13h-1v1h1z"/><path fill="#FFC016" d="M29 13h-1v1h1z"/><path fill="#FF9E1A" d="M30 13h-1v1h1z"/><path fill="#68B0FF" d="M31 13h-1v1h1zm1 0h-1v1h1z"/><path fill="#69B1FF" d="M1 14H0v1h1zm1 0H1v1h1z"/><path fill="#68B0FF" d="M3 14H2v1h1z"/><path fill="#3A7459" d="M4 14H3v1h1z"/><path fill="#2F594E" d="M5 14H4v1h1z"/><path fill="#1D3434" d="M6 14H5v1h1z"/><path fill="#68B0FF" d="M7 14H6v1h1z"/><path fill="#69B1FF" d="M8 14H7v1h1z"/><path fill="#68B0FF" d="M9 14H8v1h1zm1 0H9v1h1zm1 0h-1v1h1z"/><path fill="#9ACBFB" d="M12 14h-1v1h1zm1 0h-1v1h1z"/><path fill="#CDE9FF" d="M14 14h-1v1h1z"/><path fill="#9ACBFB" d="M15 14h-1v1h1z"/><path fill="#3A7459" d="M16 14h-1v1h1z"/><path fill="#2F594E" d="M17 14h-1v1h1z"/><path fill="#CDE9FF" d="M18 14h-1v1h1zm1 0h-1v1h1z"/><path fill="#9ACBFB" d="M20 14h-1v1h1zm1 0h-1v1h1z"/><path fill="#CDE9FF" d="M22 14h-1v1h1zm1 0h-1v1h1z"/><path fill="#9ACBFB" d="M24 14h-1v1h1z"/><path fill="#FFA713" d="M25 14h-1v1h1zm1 0h-1v1h1zm1 0h-1v1h1z"/><path fill="#1D3434" d="M28 14h-1v1h1z"/><path fill="#569A66" d="M29 14h-1v1h1z"/><path fill="#68B0FF" d="M30 14h-1v1h1zm1 0h-1v1h1zm1 0h-1v1h1z"/><path fill="#69B1FF" d="M1 15H0v1h1zm1 0H1v1h1z"/><path fill="#68B0FF" d="M3 15H2v1h1z"/><path fill="#5FA5B7" d="M4 15H3v1h1z"/><path fill="#569A66" d="M5 15H4v1h1z"/><path fill="#68B0FF" d="M6 15H5v1h1z"/><path fill="#69B1FF" d="M7 15H6v1h1z"/><path fill="#68B0FF" d="M8 15H7v1h1zm1 0H8v1h1zm1 0H9v1h1zm1 0h-1v1h1zm1 0h-1v1h1z"/><path fill="#9ACBFB" d="M13 15h-1v1h1zm1 0h-1v1h1zm1 0h-1v1h1z"/><path fill="#569A66" d="M16 15h-1v1h1zm1 0h-1v1h1zm1 0h-1v1h1z"/><path fill="#9ACBFB" d="M19 15h-1v1h1zm1 0h-1v1h1zm1 0h-1v1h1zm1 0h-1v1h1zm1 0h-1v1h1z"/><path fill="#FFDF4C" d="M24 15h-1v1h1z"/><path fill="#FFA713" d="M25 15h-1v1h1z"/><path fill="#FFAD0D" d="M26 15h-1v1h1z"/><path fill="#FFC61E" d="M27 15h-1v1h1z"/><path fill="#3A684F" d="M28 15h-1v1h1z"/><path fill="#5FA5B7" d="M29 15h-1v1h1z"/><path fill="#CDE9FF" d="M30 15h-1v1h1z"/><path fill="#fff" d="M31 15h-1v1h1zm1 0h-1v1h1z"/><path fill="#69B1FF" d="M1 16H0v1h1zm1 0H1v1h1zm1 0H2v1h1zm1 0H3v1h1z"/><path fill="#2F594E" d="M5 16H4v1h1zm1 0H5v1h1z"/><path fill="#69B1FF" d="M7 16H6v1h1zm1 0H7v1h1zm1 0H8v1h1zm1 0H9v1h1zm1 0h-1v1h1zm1 0h-1v1h1z"/><path fill="#68B0FF" d="M13 16h-1v1h1zm1 0h-1v1h1z"/><path fill="#569A66" d="M15 16h-1v1h1zm1 0h-1v1h1zm1 0h-1v1h1z"/><path fill="#1D3434" d="M18 16h-1v1h1z"/><path fill="#69B1FF" d="M19 16h-1v1h1zm1 0h-1v1h1zm1 0h-1v1h1zm1 0h-1v1h1z"/><path fill="#68B0FF" d="M23 16h-1v1h1zm1 0h-1v1h1z"/><path fill="#FFB21D" d="M25 16h-1v1h1z"/><path fill="#CDE9FF" d="M26 16h-1v1h1z"/><path fill="#1D3434" d="M27 16h-1v1h1z"/><path fill="#3A7459" d="M28 16h-1v1h1z"/><path fill="#2F594E" d="M29 16h-1v1h1z"/><path fill="#CDE9FF" d="M30 16h-1v1h1z"/><path fill="#fff" d="M31 16h-1v1h1zm1 0h-1v1h1z"/><path fill="#3A7459" d="M1 17H0v1h1z"/><path fill="#69B1FF" d="M2 17H1v1h1zm1 0H2v1h1z"/><path fill="#569A66" d="M4 17H3v1h1z"/><path fill="#1D3434" d="M5 17H4v1h1z"/><path fill="#569A66" d="M6 17H5v1h1z"/><path fill="#fff" d="M7 17H6v1h1z"/><path fill="#CDE9FF" d="M8 17H7v1h1z"/><path fill="#68B0FF" d="M9 17H8v1h1zm1 0H9v1h1zm1 0h-1v1h1zm1 0h-1v1h1zm1 0h-1v1h1zm1 0h-1v1h1z"/><path fill="#1D3434" d="M15 17h-1v1h1zm1 0h-1v1h1z"/><path fill="#2F594E" d="M17 17h-1v1h1z"/><path fill="#1D3434" d="M18 17h-1v1h1z"/><path fill="#3A7459" d="M19 17h-1v1h1z"/><path fill="#68B0FF" d="M20 17h-1v1h1zm1 0h-1v1h1zm1 0h-1v1h1zm1 0h-1v1h1zm1 0h-1v1h1z"/><path fill="#9ACBFB" d="M25 17h-1v1h1zm1 0h-1v1h1z"/><path fill="#569A66" d="M27 17h-1v1h1z"/><path fill="#1D3434" d="M28 17h-1v1h1zm1 0h-1v1h1z"/><path fill="#9ACBFB" d="M30 17h-1v1h1zm1 0h-1v1h1z"/><path fill="#CDE9FF" d="M32 17h-1v1h1z"/><path fill="#69B1FF" d="M1 18H0v1h1zm1 0H1v1h1z"/><path fill="#569A66" d="M3 18H2v1h1z"/><path fill="#2F594E" d="M4 18H3v1h1zm1 0H4v1h1z"/><path fill="#569A66" d="M6 18H5v1h1z"/><path fill="#9ACBFB" d="M7 18H6v1h1z"/><path fill="#CDE9FF" d="M8 18H7v1h1z"/><path fill="#68B0FF" d="M9 18H8v1h1zm1 0H9v1h1zm1 0h-1v1h1zm1 0h-1v1h1zm1 0h-1v1h1z"/><path fill="#396382" d="M14 18h-1v1h1z"/><path fill="#294F44" d="M15 18h-1v1h1z"/><path fill="#3A7459" d="M16 18h-1v1h1z"/><path fill="#294F44" d="M17 18h-1v1h1z"/><path fill="#2F594E" d="M18 18h-1v1h1zm1 0h-1v1h1z"/><path fill="#68B0FF" d="M20 18h-1v1h1zm1 0h-1v1h1zm1 0h-1v1h1zm1 0h-1v1h1zm1 0h-1v1h1zm1 0h-1v1h1z"/><path fill="#3A7459" d="M26 18h-1v1h1zm1 0h-1v1h1z"/><path fill="#1D3434" d="M28 18h-1v1h1z"/><path fill="#569A66" d="M29 18h-1v1h1z"/><path fill="#65AFFE" d="M30 18h-1v1h1z"/><path fill="#68B0FF" d="M31 18h-1v1h1z"/><path fill="#65AFFE" d="M32 18h-1v1h1z"/><path fill="#69B1FF" d="M1 19H0v1h1zm1 0H1v1h1z"/><path fill="#45749E" d="M3 19H2v1h1z"/><path fill="#4A8A60" d="M4 19H3v1h1z"/><path fill="#3A7459" d="M5 19H4v1h1z"/><path fill="#294F44" d="M6 19H5v1h1z"/><path fill="#69B1FF" d="M7 19H6v1h1zm1 0H7v1h1zm1 0H8v1h1zm1 0H9v1h1z"/><path fill="#68B0FF" d="M11 19h-1v1h1zm1 0h-1v1h1zm1 0h-1v1h1zm1 0h-1v1h1z"/><path fill="#569A66" d="M15 19h-1v1h1z"/><path fill="#1D3434" d="M16 19h-1v1h1zm1 0h-1v1h1z"/><path fill="#569A66" d="M18 19h-1v1h1zm1 0h-1v1h1z"/><path fill="#68B0FF" d="M20 19h-1v1h1zm1 0h-1v1h1zm1 0h-1v1h1zm1 0h-1v1h1zm1 0h-1v1h1zm1 0h-1v1h1z"/><path fill="#44749E" d="M26 19h-1v1h1z"/><path fill="#5FA5B7" d="M27 19h-1v1h1z"/><path fill="#3A7459" d="M28 19h-1v1h1z"/><path fill="#2F594E" d="M29 19h-1v1h1z"/><path fill="#44749E" d="M30 19h-1v1h1z"/><path fill="#68B0FF" d="M31 19h-1v1h1zm1 0h-1v1h1z"/><path fill="#569A66" d="M1 20H0v1h1z"/><path fill="#69B1FF" d="M2 20H1v1h1z"/><path fill="#1D3434" d="M3 20H2v1h1z"/><path fill="#3A7459" d="M4 20H3v1h1z"/><path fill="#1D3434" d="M5 20H4v1h1z"/><path fill="#569A66" d="M6 20H5v1h1z"/><path fill="#1D3434" d="M7 20H6v1h1z"/><path fill="#69B1FF" d="M8 20H7v1h1zm1 0H8v1h1zm1 0H9v1h1z"/><path fill="#68B0FF" d="M11 20h-1v1h1zm1 0h-1v1h1zm1 0h-1v1h1z"/><path fill="#9ACBFB" d="M14 20h-1v1h1z"/><path fill="#3A7459" d="M15 20h-1v1h1zm1 0h-1v1h1z"/><path fill="#2F594E" d="M17 20h-1v1h1z"/><path fill="#569A66" d="M18 20h-1v1h1z"/><path fill="#1D3434" d="M19 20h-1v1h1z"/><path fill="#569A66" d="M20 20h-1v1h1z"/><path fill="#68B0FF" d="M21 20h-1v1h1zm1 0h-1v1h1zm1 0h-1v1h1zm1 0h-1v1h1zm1 0h-1v1h1zm1 0h-1v1h1z"/><path fill="#3A7459" d="M27 20h-1v1h1z"/><path fill="#569A66" d="M28 20h-1v1h1z"/><path fill="#3A7459" d="M29 20h-1v1h1z"/><path fill="#569A66" d="M30 20h-1v1h1z"/><path fill="#68B0FF" d="M31 20h-1v1h1zm1 0h-1v1h1z"/><path fill="#1D3434" d="M1 21H0v1h1z"/><path fill="#6BB2FF" d="M2 21H1v1h1z"/><path fill="#1D3434" d="M3 21H2v1h1z"/><path fill="#2F594E" d="M4 21H3v1h1z"/><path fill="#1D3434" d="M5 21H4v1h1zm1 0H5v1h1zm1 0H6v1h1z"/><path fill="#569A66" d="M8 21H7v1h1z"/><path fill="#69B1FF" d="M9 21H8v1h1zm1 0H9v1h1zm1 0h-1v1h1zm1 0h-1v1h1zm1 0h-1v1h1z"/><path fill="#1D3434" d="M14 21h-1v1h1z"/><path fill="#2F594E" d="M15 21h-1v1h1z"/><path fill="#3A7459" d="M16 21h-1v1h1z"/><path fill="#2F594E" d="M17 21h-1v1h1z"/><path fill="#1D3434" d="M18 21h-1v1h1zm1 0h-1v1h1z"/><path fill="#569A66" d="M20 21h-1v1h1z"/><path fill="#69B1FF" d="M21 21h-1v1h1zm1 0h-1v1h1zm1 0h-1v1h1z"/><path fill="#68B0FF" d="M24 21h-1v1h1z"/><path fill="#69B1FF" d="M25 21h-1v1h1z"/><path fill="#1D3434" d="M26 21h-1v1h1z"/><path fill="#2F594E" d="M27 21h-1v1h1zm1 0h-1v1h1zm1 0h-1v1h1zm1 0h-1v1h1z"/><path fill="#66AFFF" d="M31 21h-1v1h1z"/><path fill="#569A66" d="M32 21h-1v1h1z"/><path fill="#6BB2FF" d="M1 22H0v1h1zm1 0H1v1h1z"/><path fill="#3A7459" d="M3 22H2v1h1z"/><path fill="#1D3434" d="M4 22H3v1h1zm1 0H4v1h1z"/><path fill="#2F594E" d="M6 22H5v1h1zm1 0H6v1h1z"/><path fill="#569A66" d="M8 22H7v1h1z"/><path fill="#69B1FF" d="M9 22H8v1h1zm1 0H9v1h1zm1 0h-1v1h1zm1 0h-1v1h1zm1 0h-1v1h1z"/><path fill="#2F594E" d="M14 22h-1v1h1z"/><path fill="#1D3434" d="M15 22h-1v1h1z"/><path fill="#3A7459" d="M16 22h-1v1h1zm1 0h-1v1h1zm1 0h-1v1h1z"/><path fill="#1D3434" d="M19 22h-1v1h1zm1 0h-1v1h1z"/><path fill="#69B1FF" d="M21 22h-1v1h1zm1 0h-1v1h1zm1 0h-1v1h1z"/><path fill="#68B0FF" d="M24 22h-1v1h1zm1 0h-1v1h1z"/><path fill="#569A66" d="M26 22h-1v1h1z"/><path fill="#1D3434" d="M27 22h-1v1h1z"/><path fill="#2F594E" d="M28 22h-1v1h1z"/><path fill="#3A7459" d="M29 22h-1v1h1zm1 0h-1v1h1z"/><path fill="#569A66" d="M31 22h-1v1h1z"/><path fill="#1D3434" d="M32 22h-1v1h1zM1 23H0v1h1z"/><path fill="#3A7459" d="M2 23H1v1h1zm1 0H2v1h1z"/><path fill="#2F594E" d="M4 23H3v1h1zm1 0H4v1h1z"/><path fill="#1D3434" d="M6 23H5v1h1z"/><path fill="#569A66" d="M7 23H6v1h1z"/><path fill="#1D3434" d="M8 23H7v1h1z"/><path fill="#6BB2FF" d="M9 23H8v1h1zm1 0H9v1h1z"/><path fill="#69B1FF" d="M11 23h-1v1h1z"/><path fill="#3A7459" d="M12 23h-1v1h1z"/><path fill="#69B1FF" d="M13 23h-1v1h1z"/><path fill="#3A7459" d="M14 23h-1v1h1z"/><path fill="#569A66" d="M15 23h-1v1h1z"/><path fill="#3A7459" d="M16 23h-1v1h1z"/><path fill="#1D3434" d="M17 23h-1v1h1z"/><path fill="#3A7459" d="M18 23h-1v1h1z"/><path fill="#2F594E" d="M19 23h-1v1h1z"/><path fill="#3A7459" d="M20 23h-1v1h1z"/><path fill="#1D3434" d="M21 23h-1v1h1z"/><path fill="#69B1FF" d="M22 23h-1v1h1zm1 0h-1v1h1z"/><path fill="#569A66" d="M24 23h-1v1h1z"/><path fill="#1D3434" d="M25 23h-1v1h1z"/><path fill="#2F594E" d="M26 23h-1v1h1zm1 0h-1v1h1z"/><path fill="#1D3434" d="M28 23h-1v1h1zm1 0h-1v1h1z"/><path fill="#3A7459" d="M30 23h-1v1h1z"/><path fill="#1D3434" d="M31 23h-1v1h1z"/><path fill="#3A7459" d="M32 23h-1v1h1z"/><path fill="#569A66" d="M1 24H0v1h1zm1 0H1v1h1z"/><path fill="#2F594E" d="M3 24H2v1h1z"/><path fill="#3A7459" d="M4 24H3v1h1z"/><path fill="#1D3434" d="M5 24H4v1h1zm1 0H5v1h1zm1 0H6v1h1z"/><path fill="#569A66" d="M8 24H7v1h1z"/><path fill="#6BB2FF" d="M9 24H8v1h1zm1 0H9v1h1z"/><path fill="#69B1FF" d="M11 24h-1v1h1zm1 0h-1v1h1z"/><path fill="#1D3434" d="M13 24h-1v1h1z"/><path fill="#569A66" d="M14 24h-1v1h1z"/><path fill="#3A7459" d="M15 24h-1v1h1z"/><path fill="#569A66" d="M16 24h-1v1h1z"/><path fill="#1D3434" d="M17 24h-1v1h1zm1 0h-1v1h1z"/><path fill="#3A7459" d="M19 24h-1v1h1z"/><path fill="#569A66" d="M20 24h-1v1h1z"/><path fill="#69B1FF" d="M21 24h-1v1h1zm1 0h-1v1h1zm1 0h-1v1h1zm1 0h-1v1h1z"/><path fill="#569A66" d="M25 24h-1v1h1zm1 0h-1v1h1z"/><path fill="#3A7459" d="M27 24h-1v1h1zm1 0h-1v1h1z"/><path fill="#1D3434" d="M29 24h-1v1h1z"/><path fill="#2F594E" d="M30 24h-1v1h1z"/><path fill="#3A7459" d="M31 24h-1v1h1z"/><path fill="#1D3434" d="M32 24h-1v1h1z"/><path fill="#2F594E" d="M1 25H0v1h1z"/><path fill="#3A7459" d="M2 25H1v1h1z"/><path fill="#569A66" d="M3 25H2v1h1zm1 0H3v1h1zm1 0H4v1h1z"/><path fill="#2F594E" d="M6 25H5v1h1z"/><path fill="#1D3434" d="M7 25H6v1h1zm1 0H7v1h1z"/><path fill="#3A7459" d="M9 25H8v1h1z"/><path fill="#69B1FF" d="M10 25H9v1h1z"/><path fill="#1D3434" d="M11 25h-1v1h1z"/><path fill="#69B1FF" d="M12 25h-1v1h1z"/><path fill="#3A7459" d="M13 25h-1v1h1zm1 0h-1v1h1z"/><path fill="#1D3434" d="M15 25h-1v1h1z"/><path fill="#2F594E" d="M16 25h-1v1h1zm1 0h-1v1h1z"/><path fill="#3A7459" d="M18 25h-1v1h1z"/><path fill="#1D3434" d="M19 25h-1v1h1zm1 0h-1v1h1z"/><path fill="#569A66" d="M21 25h-1v1h1zm1 0h-1v1h1z"/><path fill="#68B0FF" d="M23 25h-1v1h1zm1 0h-1v1h1z"/><path fill="#1D3434" d="M25 25h-1v1h1z"/><path fill="#569A66" d="M26 25h-1v1h1z"/><path fill="#1D3434" d="M27 25h-1v1h1z"/><path fill="#3A7459" d="M28 25h-1v1h1z"/><path fill="#1D3434" d="M29 25h-1v1h1zm1 0h-1v1h1z"/><path fill="#2F594E" d="M31 25h-1v1h1z"/><path fill="#1D3434" d="M32 25h-1v1h1zM1 26H0v1h1zm1 0H1v1h1z"/><path fill="#2F594E" d="M3 26H2v1h1z"/><path fill="#1D3434" d="M4 26H3v1h1zm1 0H4v1h1zm1 0H5v1h1z"/><path fill="#2F594E" d="M7 26H6v1h1z"/><path fill="#1D3434" d="M8 26H7v1h1z"/><path fill="#2F594E" d="M9 26H8v1h1z"/><path fill="#69B1FF" d="M10 26H9v1h1zm1 0h-1v1h1z"/><path fill="#1D3434" d="M12 26h-1v1h1zm1 0h-1v1h1z"/><path fill="#2F594E" d="M14 26h-1v1h1zm1 0h-1v1h1z"/><path fill="#1D3434" d="M16 26h-1v1h1z"/><path fill="#2F594E" d="M17 26h-1v1h1z"/><path fill="#3A7459" d="M18 26h-1v1h1zm1 0h-1v1h1z"/><path fill="#2F594E" d="M20 26h-1v1h1z"/><path fill="#1D3434" d="M21 26h-1v1h1z"/><path fill="#68B0FF" d="M22 26h-1v1h1zm1 0h-1v1h1z"/><path fill="#1D3434" d="M24 26h-1v1h1zm1 0h-1v1h1z"/><path fill="#2F594E" d="M26 26h-1v1h1z"/><path fill="#569A66" d="M27 26h-1v1h1z"/><path fill="#1D3434" d="M28 26h-1v1h1z"/><path fill="#569A66" d="M29 26h-1v1h1z"/><path fill="#1D3434" d="M30 26h-1v1h1zm1 0h-1v1h1zm1 0h-1v1h1z"/><path fill="#3A7459" d="M1 27H0v1h1z"/><path fill="#2F594E" d="M2 27H1v1h1z"/><path fill="#569A66" d="M3 27H2v1h1z"/><path fill="#1D3434" d="M4 27H3v1h1z"/><path fill="#2F594E" d="M5 27H4v1h1zm1 0H5v1h1z"/><path fill="#1D3434" d="M7 27H6v1h1z"/><path fill="#3A7459" d="M8 27H7v1h1z"/><path fill="#569A66" d="M9 27H8v1h1z"/><path fill="#69B1FF" d="M10 27H9v1h1z"/><path fill="#1D3434" d="M11 27h-1v1h1zm1 0h-1v1h1z"/><path fill="#569A66" d="M13 27h-1v1h1z"/><path fill="#3A7459" d="M14 27h-1v1h1z"/><path fill="#1D3434" d="M15 27h-1v1h1zm1 0h-1v1h1zm1 0h-1v1h1zm1 0h-1v1h1z"/><path fill="#2F594E" d="M19 27h-1v1h1z"/><path fill="#569A66" d="M20 27h-1v1h1z"/><path fill="#2F594E" d="M21 27h-1v1h1z"/><path fill="#569A66" d="M22 27h-1v1h1z"/><path fill="#1D3434" d="M23 27h-1v1h1z"/><path fill="#569A66" d="M24 27h-1v1h1z"/><path fill="#2F594E" d="M25 27h-1v1h1zm1 0h-1v1h1zm1 0h-1v1h1z"/><path fill="#1D3434" d="M28 27h-1v1h1z"/><path fill="#2F594E" d="M29 27h-1v1h1z"/><path fill="#1D3434" d="M30 27h-1v1h1z"/><path fill="#3A7459" d="M31 27h-1v1h1z"/><path fill="#569A66" d="M32 27h-1v1h1z"/><path fill="#2F594E" d="M1 28H0v1h1z"/><path fill="#1D3434" d="M2 28H1v1h1z"/><path fill="#569A66" d="M3 28H2v1h1z"/><path fill="#2F594E" d="M4 28H3v1h1z"/><path fill="#3A7459" d="M5 28H4v1h1z"/><path fill="#1D3434" d="M6 28H5v1h1z"/><path fill="#2F594E" d="M7 28H6v1h1z"/><path fill="#3A7459" d="M8 28H7v1h1z"/><path fill="#2F594E" d="M9 28H8v1h1z"/><path fill="#1D3434" d="M10 28H9v1h1z"/><path fill="#569A66" d="M11 28h-1v1h1zm1 0h-1v1h1z"/><path fill="#1D3434" d="M13 28h-1v1h1z"/><path fill="#2F594E" d="M14 28h-1v1h1zm1 0h-1v1h1z"/><path fill="#3A7459" d="M16 28h-1v1h1z"/><path fill="#2F594E" d="M17 28h-1v1h1z"/><path fill="#1D3434" d="M18 28h-1v1h1z"/><path fill="#3A7459" d="M19 28h-1v1h1z"/><path fill="#2F594E" d="M20 28h-1v1h1z"/><path fill="#569A66" d="M21 28h-1v1h1zm1 0h-1v1h1zm1 0h-1v1h1z"/><path fill="#3A7459" d="M24 28h-1v1h1zm1 0h-1v1h1z"/><path fill="#1D3434" d="M26 28h-1v1h1z"/><path fill="#2F594E" d="M27 28h-1v1h1z"/><path fill="#569A66" d="M28 28h-1v1h1z"/><path fill="#2F594E" d="M29 28h-1v1h1z"/><path fill="#569A66" d="M30 28h-1v1h1z"/><path fill="#3A7459" d="M31 28h-1v1h1z"/><path fill="#1D3434" d="M32 28h-1v1h1z"/><path fill="#3A7459" d="M1 29H0v1h1zm1 0H1v1h1z"/><path fill="#1D3434" d="M3 29H2v1h1zm1 0H3v1h1zm1 0H4v1h1z"/><path fill="#569A66" d="M6 29H5v1h1z"/><path fill="#1D3434" d="M7 29H6v1h1zm1 0H7v1h1z"/><path fill="#3A7459" d="M9 29H8v1h1z"/><path fill="#569A66" d="M10 29H9v1h1zm1 0h-1v1h1z"/><path fill="#2F594E" d="M12 29h-1v1h1z"/><path fill="#3A7459" d="M13 29h-1v1h1z"/><path fill="#1D3434" d="M14 29h-1v1h1z"/><path fill="#2F594E" d="M15 29h-1v1h1zm1 0h-1v1h1zm1 0h-1v1h1z"/><path fill="#1D3434" d="M18 29h-1v1h1zm1 0h-1v1h1z"/><path fill="#3A7459" d="M20 29h-1v1h1z"/><path fill="#569A66" d="M21 29h-1v1h1z"/><path fill="#1D3434" d="M22 29h-1v1h1zm1 0h-1v1h1z"/><path fill="#569A66" d="M24 29h-1v1h1z"/><path fill="#3A7459" d="M25 29h-1v1h1z"/><path fill="#569A66" d="M26 29h-1v1h1zm1 0h-1v1h1z"/><path fill="#3A7459" d="M28 29h-1v1h1z"/><path fill="#569A66" d="M29 29h-1v1h1z"/><path fill="#1D3434" d="M30 29h-1v1h1z"/><path fill="#2F594E" d="M31 29h-1v1h1z"/><path fill="#3A7459" d="M32 29h-1v1h1z"/><path fill="#2F594E" d="M1 30H0v1h1z"/><path fill="#1D3434" d="M2 30H1v1h1z"/><path fill="#569A66" d="M3 30H2v1h1z"/><path fill="#3A7459" d="M4 30H3v1h1z"/><path fill="#1D3434" d="M5 30H4v1h1zm1 0H5v1h1z"/><path fill="#569A66" d="M7 30H6v1h1z"/><path fill="#2F594E" d="M8 30H7v1h1zm1 0H8v1h1z"/><path fill="#569A66" d="M10 30H9v1h1zm1 0h-1v1h1zm1 0h-1v1h1zm1 0h-1v1h1z"/><path fill="#2F594E" d="M14 30h-1v1h1z"/><path fill="#3A7459" d="M15 30h-1v1h1zm1 0h-1v1h1z"/><path fill="#1D3434" d="M17 30h-1v1h1zm1 0h-1v1h1z"/><path fill="#2F594E" d="M19 30h-1v1h1z"/><path fill="#1D3434" d="M20 30h-1v1h1z"/><path fill="#3A7459" d="M21 30h-1v1h1z"/><path fill="#569A66" d="M22 30h-1v1h1z"/><path fill="#1D3434" d="M23 30h-1v1h1z"/><path fill="#569A66" d="M24 30h-1v1h1zm1 0h-1v1h1z"/><path fill="#1D3434" d="M26 30h-1v1h1z"/><path fill="#569A66" d="M27 30h-1v1h1z"/><path fill="#1D3434" d="M28 30h-1v1h1zm1 0h-1v1h1z"/><path fill="#569A66" d="M30 30h-1v1h1zm1 0h-1v1h1zm1 0h-1v1h1z"/><path fill="#1D3434" d="M1 31H0v1h1z"/><path fill="#2F594E" d="M2 31H1v1h1z"/><path fill="#3A7459" d="M3 31H2v1h1z"/><path fill="#569A66" d="M4 31H3v1h1z"/><path fill="#2F594E" d="M5 31H4v1h1z"/><path fill="#1D3434" d="M6 31H5v1h1zm1 0H6v1h1zm1 0H7v1h1z"/><path fill="#2F594E" d="M9 31H8v1h1z"/><path fill="#569A66" d="M10 31H9v1h1zm1 0h-1v1h1zm1 0h-1v1h1z"/><path fill="#3A7459" d="M13 31h-1v1h1z"/><path fill="#569A66" d="M14 31h-1v1h1z"/><path fill="#3A7459" d="M15 31h-1v1h1z"/><path fill="#569A66" d="M16 31h-1v1h1z"/><path fill="#2F594E" d="M17 31h-1v1h1zm1 0h-1v1h1z"/><path fill="#1D3434" d="M19 31h-1v1h1z"/><path fill="#3A7459" d="M20 31h-1v1h1z"/><path fill="#1D3434" d="M21 31h-1v1h1z"/><path fill="#3A7459" d="M22 31h-1v1h1z"/><path fill="#569A66" d="M23 31h-1v1h1z"/><path fill="#2F594E" d="M24 31h-1v1h1zm1 0h-1v1h1z"/><path fill="#569A66" d="M26 31h-1v1h1z"/><path fill="#1D3434" d="M27 31h-1v1h1z"/><path fill="#2F594E" d="M28 31h-1v1h1z"/><path fill="#569A66" d="M29 31h-1v1h1zm1 0h-1v1h1z"/><path fill="#1D3434" d="M31 31h-1v1h1z"/><path fill="#3A7459" d="M32 31h-1v1h1z"/></g><defs><clipPath id="a"><path fill="#fff" d="M0 0h32v32H0z"/></clipPath></defs></svg>