<svg xmlns="http://www.w3.org/2000/svg" xmlns:xlink="http://www.w3.org/1999/xlink" xml:space="preserve" stroke-miterlimit="10" style="fill-rule:nonzero;clip-rule:evenodd;stroke-linecap:round;stroke-linejoin:round" viewBox="0 0 1920 1920"><defs><linearGradient id="b" x1="517.664" x2="1349.06" y1="1445.43" y2="535.877" gradientTransform="translate(-593.731 -798.801)scale(1.78585)" gradientUnits="userSpaceOnUse"><stop offset="0" stop-color="#eafaff"/><stop offset="1" stop-color="#ebffee"/></linearGradient><linearGradient id="e" x1="0" x2="1024" y1="512" y2="512" gradientTransform="translate(-339.1 -533.249)scale(1.83563)" gradientUnits="userSpaceOnUse"><stop offset="0" stop-color="#4aff75"/><stop offset="1" stop-color="#55e6ff"/></linearGradient><linearGradient id="g" x1="517.664" x2="1349.06" y1="1445.43" y2="535.877" gradientTransform="translate(-339.1 -533.249)scale(.979)" gradientUnits="userSpaceOnUse"><stop offset="0" stop-color="#eafaff"/><stop offset="1" stop-color="#ebffee"/></linearGradient><linearGradient id="h" x1="110.66" x2="1004.79" y1="886.748" y2="126.875" gradientTransform="translate(-339.1 -533.249)scale(1.83563)" gradientUnits="userSpaceOnUse"><stop offset="0" stop-color="#4aff75"/><stop offset="1" stop-color="#55e6ff"/></linearGradient><linearGradient id="j" x1="346.052" x2="695.167" y1="731.6" y2="331.603" gradientTransform="translate(-339.1 -533.249)scale(1.83563)" gradientUnits="userSpaceOnUse"><stop offset="0" stop-color="#4aff75"/><stop offset="1" stop-color="#55e6ff"/></linearGradient><linearGradient id="m" x1="0" x2="1024" y1="512" y2="512" gradientTransform="rotate(22.5 -52.769 3129.969)scale(1.83563)" gradientUnits="userSpaceOnUse"><stop offset="0" stop-color="#4aff75"/><stop offset="1" stop-color="#55e6ff"/></linearGradient><linearGradient id="o" x1="517.664" x2="1349.06" y1="1445.43" y2="535.877" gradientTransform="rotate(22.5 -52.79 3129.964)scale(.979)" gradientUnits="userSpaceOnUse"><stop offset="0" stop-color="#eafaff"/><stop offset="1" stop-color="#ebffee"/></linearGradient><linearGradient id="q" x1="110.66" x2="1004.79" y1="886.748" y2="126.875" gradientTransform="rotate(22.5 -52.769 3129.969)scale(1.83563)" gradientUnits="userSpaceOnUse"><stop offset="0" stop-color="#84edff"/><stop offset="1" stop-color="#81ff9f"/></linearGradient><linearGradient id="r" x1="346.052" x2="695.167" y1="731.6" y2="331.603" gradientTransform="rotate(22.5 -52.769 3129.969)scale(1.83563)" gradientUnits="userSpaceOnUse"><stop offset="0" stop-color="#84edff"/><stop offset="1" stop-color="#81ff9f"/></linearGradient><filter id="i" width="1918.69" height="1918.69" x="-358.601" y="-552.75" color-interpolation-filters="sRGB" filterUnits="userSpaceOnUse"><feDropShadow dx="0" dy="0" flood-color="#486855" flood-opacity="1" in="SourceGraphic" result="Shadow" stdDeviation="7.8"/></filter><filter id="k" width="918.395" height="918.395" x="141.545" y="-52.604" color-interpolation-filters="sRGB" filterUnits="userSpaceOnUse"><feDropShadow dx="0" dy="0" flood-color="#486855" flood-opacity="1" in="SourceGraphic" result="Shadow" stdDeviation="7.8"/></filter><filter id="p" width="1775.64" height="1775.64" x="814.587" y="598.595" color-interpolation-filters="sRGB" filterUnits="userSpaceOnUse"><feComponentTransfer in="SourceGraphic" result="Alpha"><feFuncA slope=".3" type="linear"/></feComponentTransfer><feDropShadow dx="0" dy="0" flood-color="#54d796" flood-opacity="1" in="Alpha" result="Shadow" stdDeviation="7.8"/></filter><path id="c" d="M600.742-533.249 479.878-87.936c38.746-9.436 79.214-14.571 120.864-14.571s82.119 5.135 120.865 14.57zM-63.813-257.962l229.396 400.168C208 72.544 266.693 13.851 336.354-28.565zm1329.113 0L865.13-28.565c69.662 42.416 128.355 101.11 170.77 170.771zM600.742-33.097c-242.838 0-439.69 196.853-439.69 439.69 0 242.838 196.852 439.691 439.69 439.691s439.688-196.853 439.688-439.691-196.85-439.69-439.688-439.69m-494.53 318.826L-339.1 406.593l445.312 120.865c-9.435-38.746-14.57-79.214-14.57-120.865s5.135-82.118 14.57-120.864m989.058 0c9.44 38.746 14.57 79.214 14.57 120.864s-5.13 82.119-14.57 120.865l445.31-120.865zM165.583 670.981-63.813 1071.15l400.167-229.398C266.693 799.336 208 740.643 165.583 670.981m870.317 0c-42.415 69.662-101.108 128.355-170.77 170.771l400.17 229.398zM479.878 901.123l120.864 445.317 120.865-445.317c-38.746 9.436-79.214 14.571-120.865 14.571s-82.118-5.135-120.864-14.571"/><path id="l" d="m2062.07 618.112-282.08 365.162c39.41 6.11 78.76 16.856 117.24 32.796 38.48 15.93 73.9 36.16 106.09 59.71zm-719.32.018 58.8 457.49c65.84-48.12 142.53-79.889 223.12-92.418zm1227.94 508.63-457.49 58.8c48.12 65.84 79.89 142.53 92.42 223.12zm-700.02-46.57c-224.36-92.928-481.56 13.61-574.49 237.96s13.61 481.55 237.96 574.48c224.36 92.93 481.56-13.6 574.49-237.95 92.93-224.36-13.61-481.56-237.96-574.49m-578.9 105.31-457.666-58.75 365.166 282.08c6.11-39.41 16.85-78.76 32.79-117.24s36.17-73.9 59.71-106.09m913.77 378.5c-6.11 39.4-16.85 78.76-32.79 117.24s-36.17 73.9-59.71 106.09l457.67 58.75zm-1006.35.15-365.068 281.92 457.488-58.8c-48.12-65.85-79.89-142.53-92.42-223.12m804.07 333.05c-65.84 48.13-142.53 79.89-223.12 92.42l281.92 365.08zm-601.77-.15-58.75 457.66 282.08-365.16c-39.41-6.11-78.76-16.85-117.24-32.79s-73.9-36.17-106.09-59.71"/></defs><clipPath id="a"><path d="M0 0h1920v1920H0z"/></clipPath><g clip-path="url(#a)"><path fill="url(#b)" d="M-593.731-798.801H2835.11V2630.04H-593.731z"/><use xlink:href="#c" fill="url(#e)"/><clipPath id="f" clip-rule="nonzero"><use xlink:href="#c"/></clipPath><g clip-path="url(#f)"><path fill="url(#g)" d="M-339.1-533.249h1879.68V1346.44H-339.1z"/></g><g opacity=".4"><path fill="url(#h)" d="M600.742-533.249 479.891-87.953c38.747-9.435 79.201-14.57 120.851-14.57s82.105 5.135 120.851 14.57zM-63.839-257.988 165.6 142.211c42.416-69.66 101.099-128.344 170.76-170.76zm1329.159 0L865.124-28.549c69.662 42.416 128.344 101.1 170.756 170.76zM106.196 285.743-339.1 406.593l445.296 120.851c-9.436-38.746-14.57-79.2-14.57-120.851s5.134-82.104 14.57-120.85m989.094 0c9.43 38.746 14.57 79.2 14.57 120.85 0 41.651-5.14 82.105-14.57 120.851l445.29-120.851zM165.6 670.976-63.84 1071.17l400.2-229.434c-69.661-42.416-128.344-101.099-170.76-170.76m870.28 0c-42.412 69.661-101.094 128.344-170.756 170.76l400.196 229.434zM479.891 901.14l120.851 445.3 120.851-445.3c-38.746 9.435-79.2 14.57-120.851 14.57s-82.104-5.135-120.851-14.57" filter="url(#i)"/><path fill="url(#j)" d="M161.046 406.593c0-242.837 196.858-439.696 439.696-439.696s439.698 196.859 439.698 439.696S843.58 846.29 600.742 846.29 161.046 649.431 161.046 406.593" filter="url(#k)"/></g><use xlink:href="#l" fill="url(#m)"/><clipPath id="n" clip-rule="nonzero"><use xlink:href="#l"/></clipPath><g clip-path="url(#n)"><path fill="url(#o)" d="m1193.77 258.45 1736.6 719.324-719.33 1736.606-1736.598-719.33z"/></g><g filter="url(#p)"><path fill="url(#q)" d="m2062.07 618.112-282.06 365.152c39.41 6.11 78.75 16.846 117.23 32.786s73.89 36.16 106.07 59.71zm-719.33-.016 58.82 457.534c65.85-48.12 142.52-79.881 223.11-92.411zm1227.98 508.644-457.54 58.83c48.13 65.84 79.89 142.52 92.42 223.11zm-1278.97 58.77-457.646-58.76 365.156 282.06c6.11-39.41 16.84-78.75 32.78-117.23s36.17-73.89 59.71-106.07m913.8 378.51c-6.11 39.4-16.84 78.74-32.78 117.22s-36.17 73.89-59.71 106.08l457.65 58.76zm-1006.34.13-365.122 281.93 457.542-58.82c-48.13-65.85-79.89-142.52-92.42-223.11m804.04 333.04c-65.85 48.13-142.52 79.89-223.11 92.42l281.93 365.12zm-601.75-.12-58.76 457.64 282.06-365.15c-39.41-6.11-78.75-16.85-117.23-32.78-38.48-15.94-73.89-36.17-106.07-59.71"/><path fill="url(#r)" d="M1296.18 1318.15c92.93-224.35 350.14-330.894 574.49-237.96 224.35 92.93 330.89 350.13 237.96 574.49-92.93 224.35-350.14 330.89-574.49 237.96s-330.89-350.14-237.96-574.49"/></g></g></svg>