<svg xmlns="http://www.w3.org/2000/svg" xml:space="preserve" stroke-miterlimit="10" style="fill-rule:nonzero;clip-rule:evenodd;stroke-linecap:round;stroke-linejoin:round" viewBox="0 0 512 512"><clipPath id="a"><path d="M0 0h512v512H0z"/></clipPath><g clip-path="url(#a)"><path fill="#a8a8a8" d="M0 0h512v512H0z"/><path fill="#fff" d="M81.075 74.873h349.85v349.851H81.075z"/><path fill="#a8a8a8" d="M256-2.73C106.005-2.73-15.73 119.005-15.73 269S106.006 540.73 256 540.73 527.73 418.995 527.73 269 405.995-2.73 256-2.73m.543 103.801c67.933 0 102.714 45.651 102.714 99.997s-27.716 58.693-51.628 74.997c-11.956 6.521-20.108 21.738-19.565 33.694 0 8.696-2.717 14.674-9.782 14.13h-44.02c-7.609 0-13.043-10.869-13.043-16.847 0-36.412 2.717-44.564 21.738-63.041 19.565-17.934 48.911-24.999 49.455-44.02-.544-15.761-9.783-35.325-39.129-36.412-17.391-1.63-27.173 4.348-45.651 29.89-5.978 6.522-14.673 11.413-21.195 6.522l-29.347-21.739c-4.891-5.434-8.151-14.13-3.26-21.738 27.173-40.759 48.368-55.433 102.713-55.433M256 336.932c22.282 0 40.759 18.478 40.759 40.76.544 22.825-19.021 41.303-40.759 40.759-23.369 0-40.216-19.564-40.759-40.759 0-22.282 18.477-40.76 40.759-40.76"/></g></svg>