<svg xmlns="http://www.w3.org/2000/svg" xml:space="preserve" stroke-miterlimit="10" style="fill-rule:nonzero;clip-rule:evenodd;stroke-linecap:round;stroke-linejoin:round" viewBox="0 0 1024 1024"><defs><linearGradient id="b" x1="0" x2="1" y1="0" y2="0" gradientTransform="matrix(-2.27442 -853.568 561.504 -2.27442 521.034 962.576)" gradientUnits="userSpaceOnUse"><stop offset="0" stop-color="#e0f6ff"/><stop offset="1" stop-color="#a3e3ff"/></linearGradient></defs><clipPath id="a"><path d="M0 0h1024v1024H0z"/></clipPath><g clip-path="url(#a)"><path fill="url(#b)" d="M0 0h1024v1024H0z"/><path fill="#bee9fb" d="M105.97 674.65V328.656c-15.566-2.597-31.936-1.141-47.577 5.143C32.326 344.276 13.92 365.771 6.2 390.977c-29.221-27.651-69.343-38.363-104.86-24.091-31.181 12.531-51.584 41.428-57.436 75.486-41.081-16.022-87.708-17.161-131.375.389-52.317 21.021-89.155 64.347-104.433 115.137-20.613-8.106-44.067-8.712-66.048.12-23.972 9.636-41.446 28.601-50.104 51.196-42.237-29.777-98.838-38.094-151.099-17.099-60.004 24.116-97.414 80.081-99.958 139.75-16.465-9.732-36.465-12.136-54.821-4.757-17.926 7.202-30.498 22.234-35.873 40.086-21.728-10.015-47.16-11.477-70.87-1.947-35.417 14.231-56.668 48.804-56.203 85.389-17.994-17.203-43.94-23.669-67.27-14.293-14.63 5.879-25.69 16.991-32.19 30.578-25.68-35.023-66.99-53.073-106.35-42.311-34.25 9.359-58.66 38.268-67.26 74.091-33.31-9.891-70.29-8.997-105.33 5.081-52.41 21.063-87.58 66.442-97.34 117.358-24.51-18.19-57.25-23.692-87.23-11.64a87 87 0 0 0-21.39 12.37H105.97z"/><path fill="#ebf6fa" d="M-1329.76 932.899c35.03-14.078 72.02-14.973 105.33-5.081 8.59-35.821 33-64.73 67.25-74.089 39.37-10.762 80.67 7.288 106.35 42.311 6.51-13.587 17.56-24.699 32.2-30.58 23.322-9.371 49.269-2.907 67.263 14.295-.465-36.588 20.786-71.158 56.2-85.389 23.714-9.529 49.146-8.067 70.873 1.948 5.375-17.853 17.947-32.887 35.871-40.09 18.358-7.375 38.359-4.972 54.82 4.761 2.548-59.669 39.954-115.634 99.962-139.751 52.261-20.995 108.861-12.681 151.098 17.097 8.659-22.593 26.129-41.558 50.105-51.193 21.977-8.832 45.435-8.223 66.047-.124 15.279-50.79 52.117-94.115 104.434-115.134 43.664-17.55 90.293-16.411 131.371-.388 5.852-34.058 26.259-62.959 57.44-75.486 35.517-14.272 75.638-3.56 104.86 24.09 7.72-25.208 26.123-46.703 52.19-57.177 7.25-2.913 14.657-4.746 22.066-5.661v-28.6c-15.567-2.601-31.937-1.145-47.577 5.14C32.326 344.277 13.92 365.77 6.2 390.978c-29.222-27.653-69.343-38.363-104.86-24.093-31.181 12.533-51.585 41.428-57.437 75.486-41.081-16.02-87.707-17.162-131.374.388-52.317 21.024-89.155 64.347-104.431 115.14-20.615-8.106-44.07-8.712-66.051.121-23.972 9.632-41.445 28.6-50.101 51.193-42.24-29.778-98.841-38.095-151.099-17.097-60.007 24.113-97.416 80.081-99.961 139.751-16.464-9.736-36.465-12.137-54.821-4.761-17.926 7.206-30.498 22.234-35.873 40.09-21.725-10.018-47.156-11.481-70.87-1.948-35.417 14.231-56.668 48.801-56.203 85.389-17.991-17.205-43.939-23.669-67.259-14.293-14.64 5.879-25.69 16.991-32.2 30.575-25.68-35.02-66.99-53.073-106.35-42.311-34.25 9.362-58.66 38.268-67.26 74.095-33.31-9.895-70.29-9-105.32 5.081-52.42 21.062-87.59 66.442-97.36 117.356-24.5-18.19-57.24-23.694-87.22-11.65a87.7 87.7 0 0 0-21.4 12.38h142.45c15.51-38.943 46.62-71.924 89.04-88.971"/><path fill="#caeaf7" d="M9.352 575.925c-24.027-8.723-51.292-8.803-76.755 1.857-27.778 11.621-47.925 33.734-57.793 59.757-49.334-32.908-115.188-40.931-175.738-15.587-69.529 29.091-112.514 93.977-114.968 162.187-19.218-10.692-42.484-12.916-63.755-4.016-20.766 8.691-35.249 26.185-41.34 46.709-25.331-10.868-54.907-11.88-82.381-.379-41.034 17.17-65.435 57.203-64.58 98.973-21.055-19.18-51.266-25.885-78.294-14.573-16.957 7.094-29.703 20.068-37.154 35.753-30.148-39.324-78.294-58.869-123.954-45.55-39.728 11.58-67.836 45.223-77.53 86.357-38.79-10.433-81.76-8.447-122.35 8.541a190 190 0 0 0-42.75 24.866H-38.826l1.052 1.05h146.457l-2.697-525.468c-30.594-.01-81.408 28.171-96.634 79.523"/><path fill="#ebf6fa" d="M-978.71 1020.82h8.229c10.083-40.263 37.833-73.058 76.857-84.459 45.559-13.316 93.604 6.225 123.687 45.55 7.435-15.685 20.154-28.659 37.077-35.753 26.967-11.312 57.112-4.604 78.122 14.572-.853-41.769 23.496-81.802 64.441-98.97 27.415-11.503 56.924-10.491 82.203.377 6.078-20.524 20.53-38.015 41.252-46.709 21.224-8.9 44.44-6.676 63.617 4.016 2.448-68.21 45.341-133.096 114.719-162.188 60.42-25.343 126.132-17.32 175.36 15.591 9.847-26.026 29.95-48.139 57.668-59.761 25.408-10.659 52.614-10.579 76.587-1.856 13.68-46.23 57.88-95.633 84.861-86.078l.001-28.76c-41.597-2.248-83.927 28.181-99.12 79.532-23.975-8.723-51.178-8.802-76.59 1.857-27.717 11.621-47.821 33.734-57.665 59.76-49.23-32.91-114.94-40.933-175.362-15.59-69.375 29.092-112.272 93.977-114.719 162.187-19.177-10.691-42.391-12.915-63.618-4.016-20.721 8.694-35.17 26.185-41.251 46.71-25.276-10.869-54.786-11.881-82.203-.377-40.946 17.167-65.295 57.201-64.439 98.97-21.012-19.177-51.157-25.885-78.125-14.572-16.92 7.093-29.639 20.068-37.073 35.752-30.084-39.324-78.128-58.866-123.687-45.55-39.642 11.584-67.693 45.224-77.363 86.361-38.706-10.433-81.586-8.45-122.086 8.538a189.5 189.5 0 0 0-42.66 24.866h89.84c27.52-6.08 55.31-5.85 81.44 0"/><path fill="#ebf6fa" d="M63.318 626.999c-31.478 13.204-51.77 42.863-57.189 77.548-41.97-15.649-89.343-16.093-133.428 2.395-52.817 22.151-89.576 66.718-104.319 118.541-21.06-7.92-44.891-8.176-67.08 1.13-24.202 10.147-41.664 29.68-50.113 52.758-43.347-29.601-100.968-37.183-153.729-15.061-60.578 25.408-97.717 82.824-99.397 143.47-16.87-9.639-37.224-11.772-55.756-4-9.624 4.04-17.588 10.35-23.764 18.09H105.97V620.517c-14.366-1.262-28.88.703-42.652 6.482"/><path fill="#bee9fb" d="M92.803 674.651V328.657c15.567-2.598 31.937-1.141 47.577 5.143 26.067 10.477 44.473 31.972 52.193 57.177 29.222-27.65 69.343-38.362 104.861-24.09 31.18 12.531 51.584 41.428 57.436 75.486 41.081-16.023 87.707-17.161 131.374.389 52.317 21.021 89.155 64.347 104.434 115.137 20.612-8.106 44.067-8.712 66.048.12 23.972 9.636 41.445 28.601 50.104 51.196 42.237-29.777 98.837-38.094 151.098-17.1 60.005 24.117 97.414 80.082 99.959 139.751 16.464-9.732 36.465-12.136 54.823-4.757 17.92 7.202 30.5 22.233 35.87 40.086 21.73-10.015 47.16-11.477 70.87-1.947 35.42 14.231 56.67 48.804 56.2 85.389 18-17.203 43.94-23.67 67.27-14.293 14.63 5.878 25.69 16.991 32.19 30.577 25.69-35.023 66.99-53.073 106.35-42.31 34.26 9.359 58.67 38.268 67.26 74.091 33.31-9.891 70.29-8.997 105.33 5.081 52.42 21.063 87.58 66.442 97.35 117.357 24.5-18.19 57.24-23.691 87.22-11.64a87.3 87.3 0 0 1 21.4 12.37H92.803z"/><path fill="#ebf6fa" d="M1528.54 932.9c-35.04-14.078-72.02-14.973-105.33-5.081-8.6-35.821-33.01-64.73-67.26-74.089-39.36-10.762-80.67 7.288-106.35 42.311-6.5-13.587-17.56-24.699-32.19-30.581-23.33-9.37-49.28-2.906-67.27 14.296.47-36.588-20.79-71.158-56.2-85.389-23.71-9.53-49.15-8.067-70.87 1.948-5.38-17.853-17.95-32.887-35.873-40.09-18.359-7.376-38.359-4.972-54.821 4.761-2.547-59.67-39.954-115.635-99.961-139.751-52.261-20.995-108.862-12.681-151.099 17.097-8.658-22.593-26.129-41.558-50.104-51.193-21.978-8.833-45.435-8.224-66.048-.124-15.278-50.79-52.116-94.116-104.433-115.134-43.664-17.55-90.294-16.411-131.372-.388-5.852-34.058-26.258-62.959-57.439-75.486-35.517-14.273-75.639-3.56-104.86 24.09-7.72-25.208-26.123-46.704-52.19-57.178-7.25-2.912-14.659-2.425-22.067-3.34v-30.921c15.567-2.6 31.937-1.144 47.578 5.14 26.067 10.48 44.473 31.972 52.193 57.181 29.221-27.654 69.343-38.363 104.86-24.094 31.181 12.534 51.584 41.428 57.436 75.486 41.081-16.019 87.708-17.161 131.375.389 52.317 21.024 89.155 64.347 104.43 115.14 20.616-8.106 44.071-8.712 66.051.12 23.973 9.633 41.446 28.601 50.101 51.193 42.241-29.777 98.841-38.094 151.099-17.096 60.008 24.113 97.417 80.081 99.962 139.75 16.464-9.735 36.464-12.136 54.822-4.76 17.92 7.205 30.5 22.234 35.87 40.089 21.73-10.017 47.16-11.48 70.87-1.947 35.42 14.231 56.67 48.801 56.2 85.389 18-17.206 43.95-23.669 67.27-14.293 14.63 5.878 25.69 16.991 32.19 30.575 25.69-35.02 66.99-53.073 106.35-42.311 34.26 9.362 58.67 38.268 67.26 74.094 33.31-9.894 70.29-9 105.33 5.081 52.41 21.063 87.58 66.442 97.35 117.356 24.5-18.19 57.24-23.693 87.22-11.65a87.3 87.3 0 0 1 21.4 12.38h-142.45c-15.5-38.942-46.61-71.924-89.03-88.97"/><path fill="#caeaf7" d="M189.422 575.926c24.027-8.724 51.292-8.803 76.755 1.856 27.777 11.622 47.924 33.735 57.793 59.758 49.334-32.908 115.188-40.931 175.738-15.588 69.528 29.092 112.514 93.978 114.967 162.188 19.218-10.692 42.485-12.916 63.755-4.016 20.766 8.691 35.249 26.185 41.341 46.709 25.33-10.868 54.906-11.88 82.38-.38 41.034 17.171 65.436 57.204 64.581 98.973 21.055-19.179 51.265-25.884 78.294-14.572 16.956 7.094 29.703 20.068 37.154 35.753 30.15-39.325 78.29-58.869 123.95-45.55 39.73 11.58 67.84 45.223 77.53 86.357 38.79-10.433 81.76-8.447 122.35 8.541a190.2 190.2 0 0 1 42.76 24.865H237.6l-1.053 1.05H90.09l2.714-525.478c29.459-1.67 81.392 28.182 96.618 79.534"/><path fill="#ebf6fa" d="M1177.48 1024h-8.23c-10.08-40.266-37.83-73.062-76.85-84.462-45.56-13.316-93.606 6.225-123.69 45.549-7.434-15.684-20.153-28.659-37.076-35.752-26.968-11.313-57.113-4.605-78.122 14.572.853-41.769-23.496-81.803-64.442-98.97-27.414-11.504-56.924-10.491-82.203.377-6.078-20.525-20.53-38.015-41.251-46.709-21.224-8.9-44.441-6.676-63.618 4.016-2.447-68.211-45.341-133.096-114.719-162.188-60.419-25.343-126.131-17.32-175.359 15.59-9.847-26.026-29.951-48.139-57.669-59.76-25.408-10.659-52.614-10.58-76.586-1.856-13.681-46.23-60.594-98.919-87.575-89.364l2.714-28.641c41.597-2.248 83.925 31.347 99.119 82.699 23.975-8.723 51.178-8.803 76.589 1.857 27.718 11.621 47.821 33.734 57.666 59.76 49.23-32.911 114.939-40.934 175.362-15.59 69.375 29.091 112.271 93.977 114.719 162.187 19.177-10.692 42.39-12.916 63.617-4.016 20.722 8.694 35.171 26.185 41.252 46.709 25.276-10.868 54.785-11.88 82.203-.376 40.945 17.167 65.294 57.2 64.438 98.97 21.013-19.177 51.158-25.885 78.125-14.573 16.92 7.094 29.639 20.069 37.074 35.753 30.082-39.324 78.132-58.866 123.682-45.55 39.65 11.583 67.7 45.223 77.37 86.36 38.7-10.433 81.58-8.45 122.08 8.538 15.66 6.56 29.9 15 42.66 24.87h-89.84c-27.52-6.08-55.3-5.85-81.44 0"/><path fill="#ebf6fa" d="M132.742 627c31.478 13.204 51.77 42.864 57.189 77.549 41.97-15.649 89.344-16.094 133.429 2.395 52.816 22.151 89.575 66.718 104.318 118.541 21.06-7.921 44.891-8.177 67.081 1.129 24.202 10.148 41.663 29.68 50.113 52.758 43.346-29.6 100.968-37.182 153.729-15.06 60.578 25.408 97.716 82.823 99.396 143.468 16.87-9.637 37.224-11.77 55.756-4 9.624 4.04 17.588 10.35 23.764 18.09H90.09V620.519c14.367-1.262 28.88.703 42.652 6.481"/><path fill="#caeaf7" d="M386.271 918.176c34.091-21.451 76.922-20.257 114.758-.927 12.651-52.226 43.911-98.938 91.647-128.983 57.195-36.003 125.746-40.345 186.722-17.976 6.284-26.256 21.98-49.781 46.006-64.897 26.208-16.5 57.153-19.727 85.571-11.616-.185-63.482 30.893-125.296 88.023-161.255 47.142-29.671 102.452-35.626 152.472-21.304v509.602H335.858c-.947-42.304 16.438-81.258 50.413-102.644"/><path fill="#ebf6fa" d="M1018.88 568.012c-57.135 35.955-88.212 97.769-88.024 161.257-28.421-8.117-59.366-4.886-85.572 11.61-24.028 15.12-39.724 38.645-46.009 64.897-60.975-22.366-129.527-18.023-186.721 17.977-47.736 30.045-78.996 76.757-91.648 128.985-37.835-19.332-80.667-20.527-114.757.927-24.155 15.202-39.872 39.301-46.63 67.155h-23.66c-.948-42.306 16.437-81.26 50.413-102.643 34.09-21.451 76.922-20.256 114.757-.93 12.652-52.225 43.912-98.937 91.648-128.985 57.194-35.997 125.746-40.343 186.721-17.971 6.285-26.258 21.981-49.783 46.006-64.9 26.209-16.496 57.154-19.727 85.572-11.612-.185-63.483 30.892-125.3 88.022-161.258 47.142-29.668 100.652-34.761 152.472-37.176v32.397c-48.25.297-91.62 14.476-132.59 40.27M555.699 1004.65c25.514-16.524 55.615-21.378 85.14-16.103-1.074-33.24 12.377-61.976 38.318-74.165 29.809-14.007 67.736-2.248 96.707 26.512 2.251-12.961 8.788-24.191 19.445-31.09 16.99-11.006 39.71-8.014 58.345 5.531-8.668-32.943.915-66.439 26.709-83.147 17.264-11.186 38.432-12.651 58.495-5.996.362-16.685 7.252-31.616 20.306-40.072 13.369-8.655 30.301-8.685 45.986-1.7-11.422-54.085 6.55-108.647 50.25-136.953 28.66-18.571 31.1-31.874 96.07-34.836l-.06 408.189H536.199c5.775-6.03 12.26-11.48 19.5-16.17"/></g></svg>