<svg xmlns="http://www.w3.org/2000/svg" xml:space="preserve" stroke-miterlimit="10" style="fill-rule:nonzero;clip-rule:evenodd;stroke-linecap:round;stroke-linejoin:round" viewBox="0 0 512 512"><defs><linearGradient id="b" x1="291.687" x2="197.797" y1="244.596" y2="528.795" gradientTransform="translate(-160.496 -321.734)scale(1.68817)" gradientUnits="userSpaceOnUse"><stop offset="0" stop-color="#278aa5"/><stop offset="1" stop-color="#114654"/></linearGradient></defs><clipPath id="a"><path d="M0 0h512v512H0z"/></clipPath><g clip-path="url(#a)"><path fill="url(#b)" d="M0 0h512v512H0z"/><path fill="#161420" d="M-161.605 385.545c8.437-1.39 13.781-5.416 16.403-17.083 3.82-16.938 16.145-26.97 21.786-30.794l-3.045-4.21 4.084-2.948 47.514 65.661c47.26 40.066 89.215 58.936 121.259 63.542-8.646 8.65-21.004 13.175-21.004 13.175l70.758 65.36 11.196-5.234-60.135-96.632 16.378-6.972-29.607-52.103L14.808 388.2l-4.8-8.46 19.164-10.896L12.897 340.2l2.971-9.405 8.865 2.678 16.277 28.651 19.164-10.893 4.81 8.457-19.167 10.889 30.386 53.465 27.457-11.678 11.096 18.52 7.407-1.656-20.722-85.945s-12.542 4.198-21.31 2.755C90.305 327.944 99.8 272.615 106.268 221.8l-6.043-29.132c-11.42-3.767-27.145 0-34.454 5.338-8.108 5.926-14.713 7.48-26.422 1.658-8.226-4.089-18.533-3.469-29.922 4.89 10.625-14.764 18.74-18.128 29.844-15.183 8.27 2.189 14.798.704 21.97-8.872 10.419-13.881 25.77-17.991 32.487-19.167l-1.057-5.081 4.928-1.027 13.908 67.07c23.415 43.964 49.691 87.64 77.656 102.185-6.339 3.43-16.552 5.819-25.154 6.432l7.519 93.106 11.107 8.029-2.403-38.635 9.75-8.648 11.015 7.784.279 38.43 13.369-9.116.794-124.611s-18.421 4.094-30.111 1.342c27.641-30.268 62.819-100.22 81.512-191.571V55.672c-10.41-6.012-26.585-5.511-34.818-1.77-9.147 4.155-15.93 4.332-26.211-3.746-7.217-5.67-17.438-7.16-30.287-1.287 13.401-12.298 22.031-13.944 32.308-8.808 7.649 3.824 14.335 3.694 23.311-4.22 13.018-11.48 28.883-12.388 35.697-12.173V18.48h5.032v88.87c19.264 93.243 41.372 164.63 72.29 199.494-17.395-.245-31.744-4.158-31.744-4.158l-15.181 129.861 20.618 7.121 40.058-101.196c-8.314-2.377-13.062-6.19-19.938-9.627 25.016-12.183 59.003-46.519 87.454-88.474l14.831-39.696c-7.652-9.275-22.969-14.464-32-13.842-10.02.694-16.433-1.516-23.239-12.675-4.773-7.845-13.83-12.814-27.928-11.806 16.861-6.835 25.521-5.358 33.35 3.056 5.831 6.257 12.142 8.478 23.322 4.202 16.207-6.196 31.39-1.499 37.696 1.09l1.817-4.865 4.714 1.758-27.843 74.524c-5.61 51.13-.882 95.643 16.464 124.55-10.692 0-14.442.682-25.443-6.19l-54.315 113.452 10.916 5.279 12.628-6.046 12.628 6.591-45.166 77.981 10.437 4.788 19.579-22.932 17.212 7.425-5.266 29.634 8.482 3.913 25.658-87.625-22.828-8.045c28.391-14.505 66.258-45.439 102.878-91.229l16.312-37.451c-7.147-9.665-22.171-15.663-31.218-15.525-10.039.163-16.333-2.385-22.53-13.893-4.354-8.085-13.126-13.53-27.26-13.278 17.198-5.927 25.768-3.991 33.138 4.829 5.489 6.558 11.676 9.108 23.065 5.433 16.512-5.318 31.421.182 37.582 3.101l2.077-4.762 4.613 2.01-31.981 73.427c-7.317 53.188-4.11 99.785 9.247 132.071l-25.692-10.807-29.607 66.58-40.315 20.101 34.426 12.135 28.583-12.135 27.26 13.171c-42.495 34.851-49.164 73.102-67.311 126.204-92.583-20.547-140.019-31.2-203.9-31.2-54.4 0-142.798 0-208.998 34.911C17.08 686.143-1.055 641.563-46.54 593.895l23.336-10.637 22.242 9.471 79.023-36.979-53.284-3.632-57.45-47.104c-4.12 5.347-10.707 10.707-22.24 16.058 7.928-19.246-4.835-67.934-25.697-124.252l-24.043-33.224c-11.961 1.236-24.768 11.123-29.244 18.978-4.978 8.735-10.366 12.851-23.421 12.335-9.179-.363-18.337 4.422-25.298 16.717 3.642-17.826 9.666-24.216 21.011-26.081"/><path fill="#de682f" d="m278.385 419.485 2.734-84.457c0-12.344-10.002-22.35-22.353-22.35s-22.353 10.006-22.353 22.35v84.457z"/><path fill="#e29940" d="m172.595 611.304-14.364-29.003c-3.238-6.544-11.17-9.223-17.713-5.982-6.546 3.237-9.217 11.166-5.975 17.712l14.364 29.003z"/><path fill="#de682f" d="m348.808 623.936 13.066-29.612c2.949-6.676-.073-14.475-6.758-17.423-6.674-2.948-14.478.077-17.423 6.758l-13.07 29.604zM155.765 413.55l-8.085-57.583a13.204 13.204 0 0 0-15.373-10.621c-7.181 1.308-11.939 8.192-10.633 15.376l12.843 56.963zm202.786 37.514 30.535-64.077c3.683-8.059.156-17.568-7.915-21.258-8.059-3.687-17.568-.145-21.258 7.917l-26.819 65.602zm99.882 120.5 15.814-36.836c3.232-8.251-.822-17.554-9.082-20.791-8.253-3.234-17.551.83-20.788 9.086l-12.02 38.164zm-54.679 135.694 23.261-50.473c4.734-11.412-.673-24.485-12.079-29.215-11.408-4.736-24.488.683-29.215 12.081l-20.734 51.522z"/><path fill="#e29940" d="m102.307 708.025-24.868-49.708c-5.093-11.249-.104-24.494 11.14-29.582 11.253-5.1 24.5-.11 29.589 11.142l22.38 50.832zM52.159 519.838l-32.612-30.859c-6.516-5.992-16.652-5.592-22.664.936a16.02 16.02 0 0 0 .93 22.66l31.207 25.038zm260.072-34.522c2.896-6.695 10.678-9.78 17.38-6.891 6.702 2.9 9.787 10.677 6.891 17.375l-18.622 43.119c-7.901-3.801-16.186-6.916-24.756-9.365zM175.524 495.8c-2.899-6.698.184-14.475 6.888-17.375 6.702-2.889 14.478.194 17.379 6.891l17.977 41.634a154 154 0 0 0-25.445 7.749zm67.302 27.927v-48.11c0-7.299 5.918-13.216 13.218-13.215 7.299-.001 13.216 5.916 13.214 13.215v49.123c-6.235-.76-12.573-1.202-19.015-1.202-2.482 0-4.951.079-7.417.189"/><path fill="#de682f" d="M206.635 713.196c-4.807-15.592-7.578-33.839-7.578-53.367 0-57.515 23.993-90.293 53.596-90.293 29.611 0 53.608 32.778 53.608 90.293 0 19.717-2.823 38.15-7.722 53.845a392 392 0 0 0-48.037-2.962c-14.831 0-29.462.864-43.867 2.484"/><path d="M256.055 360.366h-19.642v-3.921h19.642v-43.589a22 22 0 0 1 2.711-.178c.408 0 .805.033 1.213.06v43.707h20.446l-.126 3.921h-20.32v26.963h19.449l-.13 3.924h-19.319v28.232h-3.924v-28.232h-19.642v-3.924h19.642zm138.056 310.193-17.851-7.398 1.466-3.639 17.892 7.421 16.741-40.244c.864.241 1.728.515 2.577.871.375.152.731.342 1.09.517l-16.789 40.358 18.808 7.796-1.637 3.568-18.676-7.751-11.599 27.891-3.623-1.507zM87.5 629.288c.36-.186.71-.39 1.08-.553a22 22 0 0 1 2.547-.96l17.933 39.736 17.739-8.037 1.58 3.59-17.71 8.022 12.425 27.531-3.572 1.609-12.428-27.531-18.307 8.297-1.758-3.508 18.455-8.359zM341.283 419.22l1.484-3.63 11.438 5.199 11.164-24.548-12.391-5.631 1.483-3.633 12.528 5.696 12.51-27.515c.559.181 1.127.319 1.672.571.675.307 1.269.712 1.877 1.097l-12.488 27.468 12.362 5.622-1.684 3.542-12.302-5.592-11.163 24.544 11.864 5.393-1.688 3.542-11.797-5.363-8.998 19.791-3.56-1.648 8.986-19.768zm110.308 124.212-12.165-4.688 1.179-3.742L453 539.771l10.162-26.395c.668.17 1.342.305 2.003.561.594.233 1.109.566 1.658.857l-10.162 26.379 12.717 4.9-1.551 3.605-12.575-4.84-8.497 22.078-3.647-1.449zM-4.371 491.58c.401-.564.772-1.146 1.254-1.665.426-.472.917-.831 1.39-1.236l20.915 19.031 9.327-10.245 2.848 2.689-9.275 10.2 19.416 17.669-3.164 2.429-18.893-17.197-8.772 9.642-3.07-2.463 8.942-9.82zm140.082-116.32-10.322 1.921-.864-3.824 10.471-1.947-4.741-25.475c.664-.238 1.332-.461 2.052-.589.603-.116 1.204-.123 1.798-.149l4.743 25.494 10.623-1.977.549 3.884-10.452 1.947 3.668 19.705 9.565-1.784.545 3.886-9.398 1.751 3.19 17.123-3.847.75-3.192-17.153-9.436 1.749-.864-3.819 9.58-1.784z"/><path fill="#de682f" d="M272.629 711.368c-1.731-.1-3.464-.167-5.203-.237.685.026 1.383.018 2.073.047 1.05.056 2.091.126 3.13.19m-37.581-.309c-1.443.063-2.889.112-4.328.19 1.078-.055 2.161-.115 3.237-.164.363-.01.731-.007 1.091-.026m19.787-.277c-1.448-.016-2.885-.07-4.333-.07 1.154 0 2.3.04 3.453.044zm-4.333-.07c-1.034 0-2.061.04-3.097.044l.512-.011c.861-.008 1.718-.033 2.585-.033"/><path d="M230.72 711.249c-.939.045-1.87.082-2.808.136v-.002c.935-.056 1.869-.089 2.808-.134m44.821.292c-.968-.065-1.94-.114-2.912-.173.972.059 1.944.096 2.912.159z"/><path d="M213.555 664.826c2.341.359 4.73.608 7.17.608 2.455 0 4.839-.238 7.187-.601v13.693h-14.357zm0 17.264h14.357v6.316h-14.357zm20.402-18.563c5.078-1.509 9.773-3.894 13.96-6.916v21.915h-13.96zm0 18.563h13.96v6.316h-13.96zm19.998-25.65a46.5 46.5 0 0 0 15.544 7.41v14.676h-15.544zm0 25.65h15.544v6.316h-15.544zm21.586-17.068c1.924.245 3.871.408 5.859.408a47 47 0 0 0 8.668-.834v13.93h-14.527zm0 17.068h14.527v6.316h-14.527zm-68.024-3.564h-7.566c.108 1.198.219 2.384.349 3.564h7.217v6.316h-6.405c.178 1.202.383 2.385.583 3.565h5.822v21.128c2.003-.222 4.017-.433 6.038-.622v-20.506h14.357v19.412c.935-.056 1.869-.089 2.808-.134 1.078-.055 2.161-.115 3.237-.164v-19.114h13.96v18.774c.861-.008 1.718-.033 2.585-.033 1.154 0 2.3.04 3.453.044v-18.785h15.544v19.207c1.05.056 2.091.126 3.13.19.972.059 1.944.096 2.912.159v-19.556h14.527v20.735c2.021.211 4.031.453 6.042.694v-21.429h7.514c.196-1.18.411-2.363.59-3.565h-8.104v-6.316h8.908c.134-1.173.237-2.374.346-3.564h-9.254v-15.507a46.4 46.4 0 0 0 10.125-4.81q-.015-2.52-.097-4.963a42.8 42.8 0 0 1-10.028 5.374v-18.962h5.226l-7.948-27.557-7.829 27.557h4.509v20.746c-2.85.604-5.755.909-8.668.91-1.995 0-3.938-.183-5.859-.449v-21.207h5.221l-7.943-27.557-7.833 27.557h4.513v19.957c-5.801-1.691-11.059-4.614-15.544-8.427v-11.53h5.223l-7.941-27.557-7.833 27.557h4.513v11.753a42.5 42.5 0 0 1-13.96 7.759v-19.512h5.226l-7.944-27.557-7.833 27.557h4.506v21.01c-2.333.4-4.728.646-7.187.646-2.449 0-4.837-.26-7.17-.668v-20.988h5.219l-7.945-27.557L203 639.658h4.517v19.512a42 42 0 0 1-8.404-3.838 182 182 0 0 0-.056 4.497v.198c2.683 1.416 5.501 2.607 8.46 3.479z"/></g></svg>