<svg xmlns="http://www.w3.org/2000/svg" xml:space="preserve" stroke-miterlimit="10" style="fill-rule:nonzero;clip-rule:evenodd;stroke-linecap:round;stroke-linejoin:round" viewBox="0 0 1024 1024"><defs><filter id="c" width="205.556" height="205.556" x="381.109" y="225.946" color-interpolation-filters="sRGB" filterUnits="userSpaceOnUse"><feDropShadow dx="0" dy="0" flood-color="#afe4ff" flood-opacity="1" in="SourceGraphic" result="Shadow" stdDeviation="10"/></filter><filter id="d" width="55.054" height="80.181" x="381.225" y="363.768" color-interpolation-filters="sRGB" filterUnits="userSpaceOnUse"><feDropShadow dx="0" dy="0" flood-color="#afe4ff" flood-opacity="1" in="SourceGraphic" result="Shadow" stdDeviation="10"/></filter><filter id="e" width="80.181" height="55.054" x="368.662" y="376.332" color-interpolation-filters="sRGB" filterUnits="userSpaceOnUse"><feDropShadow dx="0" dy="0" flood-color="#afe4ff" flood-opacity="1" in="SourceGraphic" result="Shadow" stdDeviation="10"/></filter><filter id="g" width="262.141" height="262.141" x="122.1" y="260.367" color-interpolation-filters="sRGB" filterUnits="userSpaceOnUse"><feDropShadow dx="0" dy="0" flood-color="#afe4ff" flood-opacity="1" in="SourceGraphic" result="Shadow" stdDeviation="10"/></filter><filter id="h" width="56.893" height="91.16" x="122.258" y="448.323" color-interpolation-filters="sRGB" filterUnits="userSpaceOnUse"><feDropShadow dx="0" dy="0" flood-color="#afe4ff" flood-opacity="1" in="SourceGraphic" result="Shadow" stdDeviation="10"/></filter><filter id="i" width="91.16" height="56.893" x="105.125" y="465.456" color-interpolation-filters="sRGB" filterUnits="userSpaceOnUse"><feDropShadow dx="0" dy="0" flood-color="#afe4ff" flood-opacity="1" in="SourceGraphic" result="Shadow" stdDeviation="10"/></filter><filter id="k" width="294.012" height="294.012" x="624.864" y="387.7" color-interpolation-filters="sRGB" filterUnits="userSpaceOnUse"><feDropShadow dx="0" dy="0" flood-color="#afe4ff" flood-opacity="1" in="SourceGraphic" result="Shadow" stdDeviation="10"/></filter><filter id="l" width="57.928" height="97.343" x="625.046" y="603.893" color-interpolation-filters="sRGB" filterUnits="userSpaceOnUse"><feDropShadow dx="0" dy="0" flood-color="#afe4ff" flood-opacity="1" in="SourceGraphic" result="Shadow" stdDeviation="10"/></filter><filter id="m" width="97.343" height="57.928" x="605.338" y="623.601" color-interpolation-filters="sRGB" filterUnits="userSpaceOnUse"><feDropShadow dx="0" dy="0" flood-color="#afe4ff" flood-opacity="1" in="SourceGraphic" result="Shadow" stdDeviation="10"/></filter><filter id="o" width="253.421" height="253.421" x="621.616" y="42.483" color-interpolation-filters="sRGB" filterUnits="userSpaceOnUse"><feDropShadow dx="0" dy="0" flood-color="#afe4ff" flood-opacity="1" in="SourceGraphic" result="Shadow" stdDeviation="10"/></filter><filter id="p" width="56.609" height="89.468" x="621.768" y="222.713" color-interpolation-filters="sRGB" filterUnits="userSpaceOnUse"><feDropShadow dx="0" dy="0" flood-color="#afe4ff" flood-opacity="1" in="SourceGraphic" result="Shadow" stdDeviation="10"/></filter><filter id="q" width="89.468" height="56.609" x="605.338" y="239.142" color-interpolation-filters="sRGB" filterUnits="userSpaceOnUse"><feDropShadow dx="0" dy="0" flood-color="#afe4ff" flood-opacity="1" in="SourceGraphic" result="Shadow" stdDeviation="10"/></filter><filter id="s" width="268.607" height="268.607" x="154.825" y="562.576" color-interpolation-filters="sRGB" filterUnits="userSpaceOnUse"><feDropShadow dx="0" dy="0" flood-color="#afe4ff" flood-opacity="1" in="SourceGraphic" result="Shadow" stdDeviation="10"/></filter><filter id="t" width="57.103" height="92.414" x="154.989" y="756.261" color-interpolation-filters="sRGB" filterUnits="userSpaceOnUse"><feDropShadow dx="0" dy="0" flood-color="#afe4ff" flood-opacity="1" in="SourceGraphic" result="Shadow" stdDeviation="10"/></filter><filter id="u" width="92.414" height="57.103" x="137.333" y="773.917" color-interpolation-filters="sRGB" filterUnits="userSpaceOnUse"><feDropShadow dx="0" dy="0" flood-color="#afe4ff" flood-opacity="1" in="SourceGraphic" result="Shadow" stdDeviation="10"/></filter><filter id="w" width="185.261" height="185.261" x="533.173" y="357.714" color-interpolation-filters="sRGB" filterUnits="userSpaceOnUse"><feDropShadow dx="0" dy="0" flood-color="#afe4ff" flood-opacity="1" in="SourceGraphic" result="Shadow" stdDeviation="10"/></filter><filter id="x" width="54.395" height="76.243" x="533.274" y="477.555" color-interpolation-filters="sRGB" filterUnits="userSpaceOnUse"><feDropShadow dx="0" dy="0" flood-color="#afe4ff" flood-opacity="1" in="SourceGraphic" result="Shadow" stdDeviation="10"/></filter><filter id="y" width="76.243" height="54.395" x="522.349" y="488.479" color-interpolation-filters="sRGB" filterUnits="userSpaceOnUse"><feDropShadow dx="0" dy="0" flood-color="#afe4ff" flood-opacity="1" in="SourceGraphic" result="Shadow" stdDeviation="10"/></filter><filter id="A" width="239.827" height="239.827" x="368.181" y="726.501" color-interpolation-filters="sRGB" filterUnits="userSpaceOnUse"><feDropShadow dx="0" dy="0" flood-color="#afe4ff" flood-opacity="1" in="SourceGraphic" result="Shadow" stdDeviation="10"/></filter><filter id="B" width="56.168" height="86.83" x="368.323" y="894.687" color-interpolation-filters="sRGB" filterUnits="userSpaceOnUse"><feDropShadow dx="0" dy="0" flood-color="#afe4ff" flood-opacity="1" in="SourceGraphic" result="Shadow" stdDeviation="10"/></filter><filter id="C" width="86.83" height="56.168" x="352.992" y="910.018" color-interpolation-filters="sRGB" filterUnits="userSpaceOnUse"><feDropShadow dx="0" dy="0" flood-color="#afe4ff" flood-opacity="1" in="SourceGraphic" result="Shadow" stdDeviation="10"/></filter><filter id="E" width="231.422" height="231.422" x="250.788" y="66.242" color-interpolation-filters="sRGB" filterUnits="userSpaceOnUse"><feDropShadow dx="0" dy="0" flood-color="#afe4ff" flood-opacity="1" in="SourceGraphic" result="Shadow" stdDeviation="10"/></filter><filter id="F" width="55.895" height="85.2" x="250.924" y="226.981" color-interpolation-filters="sRGB" filterUnits="userSpaceOnUse"><feDropShadow dx="0" dy="0" flood-color="#afe4ff" flood-opacity="1" in="SourceGraphic" result="Shadow" stdDeviation="10"/></filter><filter id="G" width="85.2" height="55.895" x="236.271" y="241.634" color-interpolation-filters="sRGB" filterUnits="userSpaceOnUse"><feDropShadow dx="0" dy="0" flood-color="#afe4ff" flood-opacity="1" in="SourceGraphic" result="Shadow" stdDeviation="10"/></filter><filter id="I" width="206.963" height="206.963" x="196.029" y="434.707" color-interpolation-filters="sRGB" filterUnits="userSpaceOnUse"><feDropShadow dx="0" dy="0" flood-color="#afe4ff" flood-opacity="1" in="SourceGraphic" result="Shadow" stdDeviation="10"/></filter><filter id="J" width="55.1" height="80.454" x="196.146" y="573.776" color-interpolation-filters="sRGB" filterUnits="userSpaceOnUse"><feDropShadow dx="0" dy="0" flood-color="#afe4ff" flood-opacity="1" in="SourceGraphic" result="Shadow" stdDeviation="10"/></filter><filter id="K" width="80.454" height="55.1" x="183.469" y="586.453" color-interpolation-filters="sRGB" filterUnits="userSpaceOnUse"><feDropShadow dx="0" dy="0" flood-color="#afe4ff" flood-opacity="1" in="SourceGraphic" result="Shadow" stdDeviation="10"/></filter><filter id="M" width="205.556" height="205.556" x="617.786" y="661.006" color-interpolation-filters="sRGB" filterUnits="userSpaceOnUse"><feDropShadow dx="0" dy="0" flood-color="#afe4ff" flood-opacity="1" in="SourceGraphic" result="Shadow" stdDeviation="10"/></filter><filter id="N" width="55.054" height="80.181" x="617.902" y="798.828" color-interpolation-filters="sRGB" filterUnits="userSpaceOnUse"><feDropShadow dx="0" dy="0" flood-color="#afe4ff" flood-opacity="1" in="SourceGraphic" result="Shadow" stdDeviation="10"/></filter><filter id="O" width="80.181" height="55.054" x="605.338" y="811.392" color-interpolation-filters="sRGB" filterUnits="userSpaceOnUse"><feDropShadow dx="0" dy="0" flood-color="#afe4ff" flood-opacity="1" in="SourceGraphic" result="Shadow" stdDeviation="10"/></filter><linearGradient id="b" x1="377.558" x2="536.217" y1="819.169" y2="659.964" gradientTransform="matrix(.66083 0 0 .66083 181.482 -160.351)" gradientUnits="userSpaceOnUse"><stop offset="0" stop-color="#aff2ff"/><stop offset="1" stop-color="#aff2ff" stop-opacity=".372"/></linearGradient><linearGradient id="f" x1="377.558" x2="536.217" y1="819.169" y2="659.964" gradientTransform="matrix(.90122 0 0 .90122 -159.237 -275.541)" gradientUnits="userSpaceOnUse"><stop offset="0" stop-color="#aff2ff"/><stop offset="1" stop-color="#aff2ff" stop-opacity=".372"/></linearGradient><linearGradient id="j" x1="377.558" x2="536.217" y1="819.169" y2="659.964" gradientTransform="translate(297.505 -232.476) scale(1.03661)" gradientUnits="userSpaceOnUse"><stop offset="0" stop-color="#aff2ff"/><stop offset="1" stop-color="#aff2ff" stop-opacity=".372"/></linearGradient><linearGradient id="n" x1="377.558" x2="536.217" y1="819.169" y2="659.964" gradientTransform="translate(352.871 -470.37) scale(.86417)" gradientUnits="userSpaceOnUse"><stop offset="0" stop-color="#aff2ff"/><stop offset="1" stop-color="#aff2ff" stop-opacity=".372"/></linearGradient><linearGradient id="r" x1="377.558" x2="536.217" y1="819.169" y2="659.964" gradientTransform="matrix(.92869 0 0 .92869 -135.848 9.57)" gradientUnits="userSpaceOnUse"><stop offset="0" stop-color="#aff2ff"/><stop offset="1" stop-color="#aff2ff" stop-opacity=".372"/></linearGradient><linearGradient id="v" x1="377.558" x2="536.217" y1="819.169" y2="659.964" gradientTransform="matrix(.57461 0 0 .57461 362.852 25.079)" gradientUnits="userSpaceOnUse"><stop offset="0" stop-color="#aff2ff"/><stop offset="1" stop-color="#aff2ff" stop-opacity=".372"/></linearGradient><linearGradient id="z" x1="377.558" x2="536.217" y1="819.169" y2="659.964" gradientTransform="translate(119.066 249.592) scale(.80642)" gradientUnits="userSpaceOnUse"><stop offset="0" stop-color="#aff2ff"/><stop offset="1" stop-color="#aff2ff" stop-opacity=".372"/></linearGradient><linearGradient id="D" x1="377.558" x2="536.217" y1="819.169" y2="659.964" gradientTransform="matrix(.77072 0 0 .77072 13.81 -388.444)" gradientUnits="userSpaceOnUse"><stop offset="0" stop-color="#aff2ff"/><stop offset="1" stop-color="#aff2ff" stop-opacity=".372"/></linearGradient><linearGradient id="H" x1="377.558" x2="536.217" y1="819.169" y2="659.964" gradientTransform="matrix(.6668 0 0 .6668 -5.63 44.691)" gradientUnits="userSpaceOnUse"><stop offset="0" stop-color="#aff2ff"/><stop offset="1" stop-color="#aff2ff" stop-opacity=".372"/></linearGradient><linearGradient id="L" x1="377.558" x2="536.217" y1="819.169" y2="659.964" gradientTransform="matrix(.66083 0 0 .66083 418.159 274.709)" gradientUnits="userSpaceOnUse"><stop offset="0" stop-color="#aff2ff"/><stop offset="1" stop-color="#aff2ff" stop-opacity=".372"/></linearGradient><radialGradient id="a" cx="499.208" cy="761.952" r="476.279" gradientTransform="translate(-276.16 -468.38) scale(1.5946)" gradientUnits="userSpaceOnUse"><stop offset="0" stop-color="#0f2540"/><stop offset="1" stop-color="#1a1c2b"/></radialGradient></defs><path fill="url(#a)" d="M0 0h1024v1024H0V0Z"/><path fill="url(#b)" d="M406.127 406.484c-.915-.914 33.159-36.47 76.104-79.416 42.946-42.945 78.502-77.019 79.416-76.104.914.914-33.159 36.469-76.105 79.415-42.945 42.946-78.501 77.019-79.415 76.105Z" filter="url(#c)"/><g fill="#9ae2ec"><path d="M408.752 388.768c1.396 0 2.527 6.756 2.527 15.091 0 8.334-1.131 15.09-2.527 15.09-1.396 0-2.527-6.756-2.527-15.09 0-8.335 1.131-15.091 2.527-15.091Z" filter="url(#d)"/><path d="M393.662 403.859c0-1.396 6.756-2.527 15.09-2.527s15.091 1.131 15.091 2.527c0 1.395-6.757 2.527-15.091 2.527s-15.09-1.132-15.09-2.527Z" filter="url(#e)"/></g><path fill="url(#f)" d="M147.124 497.483c-1.247-1.247 45.221-49.736 103.788-108.304 58.568-58.567 107.057-105.035 108.304-103.788 1.247 1.247-45.221 49.736-103.788 108.304-58.568 58.567-107.057 105.035-108.304 103.788Z" filter="url(#g)"/><g fill="#9ae2ec"><path d="M150.704 473.323c1.904 0 3.447 9.214 3.447 20.58 0 11.366-1.543 20.579-3.447 20.579-1.903 0-3.446-9.213-3.446-20.579 0-11.366 1.543-20.58 3.446-20.58Z" filter="url(#h)"/><path d="M130.125 493.903c0-1.904 9.214-3.447 20.579-3.447 11.366 0 20.58 1.543 20.58 3.447 0 1.903-9.214 3.446-20.58 3.446-11.365 0-20.579-1.543-20.579-3.446Z" filter="url(#i)"/></g><path fill="url(#j)" d="M649.892 656.683c-1.434-1.434 52.014-57.208 119.381-124.574 67.366-67.367 123.14-120.815 124.574-119.381 1.434 1.434-52.014 57.208-119.381 124.574-67.366 67.367-123.14 120.815-124.574 119.381Z" filter="url(#k)"/><g fill="#9ae2ec"><path d="M654.01 628.893c2.189 0 3.964 10.599 3.964 23.672 0 13.074-1.775 23.672-3.964 23.672s-3.964-10.598-3.964-23.672c0-13.073 1.775-23.672 3.964-23.672Z" filter="url(#l)"/><path d="M630.338 652.565c0-2.189 10.599-3.964 23.672-3.964 13.074 0 23.672 1.775 23.672 3.964s-10.598 3.964-23.672 3.964c-13.073 0-23.672-1.775-23.672-3.964Z" filter="url(#m)"/></g><path fill="url(#n)" d="M646.639 270.88c-1.195-1.196 43.362-47.692 99.522-103.852 56.16-56.16 102.656-100.717 103.852-99.522 1.196 1.196-43.362 47.692-99.522 103.852-56.16 56.16-102.656 100.718-103.852 99.522Z" filter="url(#o)"/><g fill="#9ae2ec"><path d="M650.072 247.713c1.825 0 3.305 8.835 3.305 19.734 0 10.899-1.48 19.734-3.305 19.734-1.825 0-3.304-8.835-3.304-19.734 0-10.899 1.479-19.734 3.304-19.734Z" filter="url(#p)"/><path d="M630.338 267.447c0-1.825 8.836-3.305 19.734-3.305 10.899 0 19.734 1.48 19.734 3.305 0 1.825-8.835 3.304-19.734 3.304-10.898 0-19.734-1.479-19.734-3.304Z" filter="url(#q)"/></g><path fill="url(#r)" d="M179.851 806.157c-1.285-1.284 46.599-51.252 106.952-111.604 60.352-60.353 110.319-108.237 111.604-106.952 1.285 1.285-46.599 51.252-106.952 111.605-60.352 60.352-110.319 108.236-111.604 106.951Z" filter="url(#s)"/><g fill="#9ae2ec"><path d="M183.54 781.261c1.962 0 3.552 9.495 3.552 21.207 0 11.712-1.59 21.207-3.552 21.207-1.961 0-3.551-9.495-3.551-21.207 0-11.712 1.59-21.207 3.551-21.207Z" filter="url(#t)"/><path d="M162.333 802.468c0-1.961 9.495-3.551 21.207-3.551 11.713 0 21.207 1.59 21.207 3.551s-9.494 3.551-21.207 3.551c-11.712 0-21.207-1.59-21.207-3.551Z" filter="url(#u)"/></g><path fill="url(#v)" d="M558.188 517.959c-.795-.795 28.833-31.711 66.176-69.054 37.342-37.343 68.259-66.97 69.054-66.175.795.795-28.833 31.711-66.175 69.054-37.343 37.343-68.26 66.97-69.055 66.175Z" filter="url(#w)"/><g fill="#9ae2ec"><path d="M560.471 502.555c1.214 0 2.197 5.875 2.197 13.122 0 7.246-.983 13.121-2.197 13.121s-2.197-5.875-2.197-13.121c0-7.247.983-13.122 2.197-13.122Z" filter="url(#x)"/><path d="M547.349 515.677c0-1.214 5.875-2.198 13.122-2.198s13.122.984 13.122 2.198c0 1.213-5.875 2.197-13.122 2.197s-13.122-.984-13.122-2.197Z" filter="url(#y)"/></g><path fill="url(#z)" d="M393.203 941.306c-1.116-1.116 40.464-44.505 92.871-96.912 52.407-52.407 95.796-93.987 96.912-92.871 1.116 1.116-40.464 44.505-92.871 96.912-52.407 52.407-95.796 93.987-96.912 92.871Z" filter="url(#A)"/><g fill="#9ae2ec"><path d="M396.407 919.687c1.703 0 3.083 8.245 3.083 18.415 0 10.171-1.38 18.415-3.083 18.415-1.703 0-3.084-8.244-3.084-18.415 0-10.17 1.381-18.415 3.084-18.415Z" filter="url(#B)"/><path d="M377.992 938.102c0-1.703 8.244-3.084 18.415-3.084 10.17 0 18.415 1.381 18.415 3.084s-8.245 3.084-18.415 3.084c-10.171 0-18.415-1.381-18.415-3.084Z" filter="url(#C)"/></g><path fill="url(#D)" d="M275.809 272.643c-1.066-1.066 38.672-42.534 88.759-92.621 50.087-50.087 91.555-89.825 92.621-88.76 1.066 1.067-38.673 42.535-88.759 92.622-50.087 50.086-91.555 89.825-92.621 88.759Z" filter="url(#E)"/><g fill="#9ae2ec"><path d="M278.871 251.981c1.627 0 2.947 7.88 2.947 17.6 0 9.72-1.32 17.6-2.947 17.6-1.628 0-2.947-7.88-2.947-17.6 0-9.72 1.319-17.6 2.947-17.6Z" filter="url(#F)"/><path d="M261.271 269.581c0-1.628 7.88-2.947 17.6-2.947 9.72 0 17.6 1.319 17.6 2.947 0 1.628-7.88 2.947-17.6 2.947-9.72 0-17.6-1.319-17.6-2.947Z" filter="url(#G)"/></g><path fill="url(#H)" d="M221.047 616.652c-.923-.923 33.459-36.8 76.793-80.134s79.211-77.716 80.133-76.793c.923.923-33.458 36.8-76.792 80.134-43.335 43.334-79.212 77.715-80.134 76.793Z" filter="url(#I)"/><g fill="#9ae2ec"><path d="M223.696 598.776c1.408 0 2.55 6.817 2.55 15.227 0 8.409-1.142 15.227-2.55 15.227s-2.55-6.818-2.55-15.227c0-8.41 1.142-15.227 2.55-15.227Z" filter="url(#J)"/><path d="M208.469 614.003c0-1.409 6.817-2.55 15.227-2.55s15.227 1.141 15.227 2.55c0 1.408-6.817 2.549-15.227 2.549s-15.227-1.141-15.227-2.549Z" filter="url(#K)"/></g><path fill="url(#L)" d="M642.804 841.544c-.915-.914 33.159-36.47 76.104-79.416 42.946-42.945 78.502-77.019 79.416-76.104.914.914-33.159 36.469-76.105 79.415-42.945 42.946-78.501 77.019-79.415 76.105Z" filter="url(#M)"/><g fill="#9ae2ec"><path d="M645.429 823.828c1.396 0 2.527 6.756 2.527 15.091 0 8.334-1.131 15.09-2.527 15.09-1.396 0-2.527-6.756-2.527-15.09 0-8.335 1.131-15.091 2.527-15.091Z" filter="url(#N)"/><path d="M630.338 838.919c0-1.396 6.757-2.527 15.091-2.527s15.091 1.131 15.091 2.527c0 1.395-6.757 2.527-15.091 2.527s-15.091-1.132-15.091-2.527Z" filter="url(#O)"/></g></svg>