<svg xmlns="http://www.w3.org/2000/svg" xml:space="preserve" stroke-miterlimit="10" style="fill-rule:nonzero;clip-rule:evenodd;stroke-linecap:round;stroke-linejoin:round" viewBox="0 0 1024 1024"><defs><filter id="c" width="624.259" height="624.259" x="242.167" y="157.574" color-interpolation-filters="sRGB" filterUnits="userSpaceOnUse"><feDropShadow dx="0" dy="0" flood-color="#afe4ff" flood-opacity="1" in="SourceGraphic" result="Shadow" stdDeviation="10"/></filter><filter id="d" width="68.658" height="161.418" x="242.596" y="666.366" color-interpolation-filters="sRGB" filterUnits="userSpaceOnUse"><feDropShadow dx="0" dy="0" flood-color="#afe4ff" flood-opacity="1" in="SourceGraphic" result="Shadow" stdDeviation="10"/></filter><filter id="e" width="161.418" height="68.658" x="196.216" y="712.746" color-interpolation-filters="sRGB" filterUnits="userSpaceOnUse"><feDropShadow dx="0" dy="0" flood-color="#afe4ff" flood-opacity="1" in="SourceGraphic" result="Shadow" stdDeviation="10"/></filter><radialGradient id="a" cx="499.208" cy="761.952" r="476.279" gradientTransform="translate(-276.16 -468.38)scale(1.5946)" gradientUnits="userSpaceOnUse"><stop offset="0" stop-color="#0f2540"/><stop offset="1" stop-color="#1a1c2b"/></radialGradient><linearGradient id="b" x1="377.558" x2="536.217" y1="819.169" y2="659.964" gradientTransform="translate(-562.076 -1335.79)scale(2.43956)" gradientUnits="userSpaceOnUse"><stop offset="0" stop-color="#aff2ff"/><stop offset="1" stop-color="#aff2ff" stop-opacity=".372"/></linearGradient></defs><path fill="url(#a)" d="M0 0h1024v1024H0z"/><path fill="url(#b)" d="M267.233 756.767c-3.375-3.376 122.411-134.634 280.952-293.175 158.54-158.54 289.799-284.327 293.174-280.951S718.948 317.275 560.408 475.815C401.867 634.356 270.609 760.142 267.233 756.767" filter="url(#c)"/><g fill="#9ae2ec"><path d="M276.925 691.366c5.153 0 9.329 24.942 9.329 55.709s-4.176 55.709-9.329 55.709c-5.152 0-9.329-24.942-9.329-55.709s4.177-55.709 9.329-55.709" filter="url(#d)"/><path d="M221.216 747.075c0-5.153 24.942-9.329 55.709-9.329s55.709 4.176 55.709 9.329c0 5.152-24.942 9.329-55.709 9.329s-55.709-4.177-55.709-9.329" filter="url(#e)"/></g></svg>