<svg xmlns="http://www.w3.org/2000/svg" fill="none" viewBox="0 0 1024 1024"><mask id="a" width="1024" height="1024" x="0" y="0" maskUnits="userSpaceOnUse" style="mask-type:luminance"><path fill="#fff" d="M0 0h1024v1024H0z"/></mask><g mask="url(#a)"><path fill="url(#b)" d="M0 0h1024v1024H0z"/><path fill="#918a77" d="M105.97 674.652V328.658c-43.67-7.286-86.794 19.952-99.77 62.32-57.864-54.754-148.592-28.362-162.296 51.396-96.321-37.567-206.017 16.488-235.808 115.526-45.813-18.016-98.535 5.339-116.152 51.315-99.804-70.361-245.814-.318-251.057 122.651-52.685-31.14-218.61 52.44-217.767 118.771-84.64-80.922-448.72 29.546-475.74 170.503-31.95-23.708-77.33-23.898-108.62.73H105.97z"/><path fill="#aba491" d="M-1329.76 932.901c35.03-14.078 72.02-14.973 105.33-5.081 8.59-35.821 33-64.73 67.25-74.089 39.37-10.762 80.67 7.288 106.35 42.311 6.51-13.587 17.56-24.699 32.2-30.58 23.322-9.371 49.269-2.907 67.263 14.295-.465-36.588 20.786-71.158 56.2-85.389 23.714-9.529 49.146-8.067 70.873 1.948 5.375-17.853 17.947-32.887 35.871-40.09 18.358-7.375 38.359-4.972 54.82 4.761 2.548-59.669 39.954-115.634 99.962-139.751 52.261-20.995 108.861-12.681 151.098 17.097 8.659-22.593 26.129-41.558 50.105-51.193 21.977-8.832 45.435-8.223 66.047-.124 15.279-50.79 52.117-94.115 104.434-115.134 43.664-17.55 90.293-16.411 131.371-.388 5.852-34.058 26.259-62.959 57.44-75.486 35.517-14.272 75.638-3.56 104.86 24.09 7.72-25.208 26.123-46.703 52.19-57.177 7.25-2.913 14.657-4.746 22.066-5.661v-28.6c-15.567-2.601-31.937-1.145-47.577 5.14C32.326 344.279 13.92 365.772 6.2 390.98c-29.222-27.653-69.343-38.363-104.86-24.093-31.181 12.533-51.585 41.428-57.437 75.486-41.081-16.02-87.707-17.162-131.374.388-52.317 21.024-89.155 64.347-104.431 115.14-20.615-8.106-44.07-8.712-66.051.121-23.972 9.632-41.445 28.6-50.101 51.193-42.24-29.778-98.841-38.095-151.099-17.097-60.007 24.113-97.416 80.081-99.961 139.751-16.464-9.736-36.465-12.137-54.821-4.761-17.926 7.206-30.498 22.234-35.873 40.09-21.725-10.018-47.156-11.481-70.87-1.948-35.417 14.231-56.668 48.801-56.203 85.389-17.991-17.205-43.939-23.669-67.259-14.293-14.64 5.879-25.69 16.991-32.2 30.575-25.68-35.02-66.99-53.073-106.35-42.311-34.25 9.362-58.66 38.268-67.26 74.095-33.31-9.895-70.29-9-105.32 5.081-52.42 21.062-87.59 66.442-97.36 117.354-24.5-18.19-57.24-23.692-87.22-11.65a88 88 0 0 0-21.4 12.38h142.45c15.51-38.941 46.62-71.922 89.04-88.969"/><path fill="#918a77" d="M9.352 575.925c-24.027-8.723-51.292-8.803-76.755 1.857-27.778 11.621-47.925 33.734-57.793 59.757-49.334-32.908-115.188-40.931-175.738-15.587-69.529 29.091-112.514 93.977-114.968 162.187-19.218-10.692-42.484-12.916-63.755-4.016-20.766 8.691-35.249 26.185-41.34 46.709-25.331-10.868-54.907-11.88-82.381-.379-41.034 17.17-65.435 57.203-64.58 98.973-21.055-19.18-51.266-25.885-78.294-14.573-16.957 7.094-29.703 20.068-37.154 35.753-30.148-39.324-78.294-58.869-123.954-45.55-39.728 11.58-67.836 45.223-77.53 86.357-38.79-10.433-81.76-8.447-122.35 8.541a190.2 190.2 0 0 0-42.75 24.866H-38.826l1.052 1.05h146.457l-2.697-525.468c-30.594-.01-81.408 28.171-96.634 79.523"/><path fill="#aba491" d="M-978.71 1020.82h8.229c10.083-40.261 37.833-73.056 76.857-84.457 45.559-13.316 93.604 6.225 123.687 45.55 7.435-15.685 20.154-28.659 37.077-35.753 26.967-11.312 57.112-4.604 78.122 14.572-.853-41.769 23.496-81.802 64.441-98.97 27.415-11.503 56.924-10.491 82.203.377 6.078-20.524 20.53-38.015 41.252-46.709 21.224-8.9 44.44-6.676 63.617 4.016 2.448-68.21 45.341-133.096 114.719-162.188 60.42-25.343 126.132-17.32 175.36 15.591 9.847-26.026 29.95-48.139 57.668-59.761 25.408-10.659 52.614-10.579 76.587-1.856 13.68-46.23 57.88-95.633 84.861-86.078l.001-28.76c-41.597-2.248-83.927 28.181-99.12 79.532-23.975-8.723-51.178-8.802-76.59 1.857-27.717 11.621-47.821 33.734-57.665 59.76-49.23-32.91-114.94-40.933-175.362-15.59-69.375 29.092-112.272 93.977-114.719 162.187-19.177-10.691-42.391-12.915-63.618-4.016-20.721 8.694-35.17 26.185-41.251 46.71-25.276-10.869-54.786-11.881-82.203-.377-40.946 17.167-65.295 57.201-64.439 98.97-21.012-19.177-51.157-25.885-78.125-14.572-16.92 7.093-29.639 20.068-37.073 35.752-30.084-39.324-78.128-58.866-123.687-45.55-39.642 11.584-67.693 45.224-77.363 86.361-38.706-10.433-81.586-8.45-122.086 8.538a189.7 189.7 0 0 0-42.66 24.864h89.84c27.52-6.08 55.31-5.85 81.44 0"/><path fill="#736d5d" d="M63.318 627c-31.478 13.204-51.77 42.863-57.189 77.548-98.405-36.691-209.001 19.891-237.747 120.936-46.802-17.601-100 6.926-117.193 53.888-102.447-69.959-249.664 3.443-253.126 128.408-26.39-15.077-60.455-9.802-79.52 14.09H105.97V620.518c-14.366-1.262-28.88.703-42.652 6.482"/><path fill="#918a77" d="M92.803 674.652V328.658c15.567-2.598 31.937-1.141 47.577 5.143 26.067 10.477 44.473 31.972 52.193 57.177 29.222-27.65 69.343-38.362 104.861-24.09 31.18 12.531 51.584 41.428 57.436 75.486 41.081-16.023 87.707-17.161 131.374.389 52.317 21.021 89.155 64.347 104.434 115.137 20.612-8.106 44.067-8.712 66.048.12 23.972 9.636 41.445 28.601 50.104 51.196 42.237-29.777 98.837-38.094 151.098-17.1 60.005 24.117 97.414 80.082 99.959 139.751 16.464-9.732 36.465-12.136 54.823-4.757 17.92 7.202 30.5 22.233 35.87 40.086 21.73-10.015 47.16-11.477 70.87-1.947 35.42 14.231 56.67 48.804 56.2 85.389 18-17.203 43.94-23.67 67.27-14.293 14.63 5.878 25.69 16.991 32.19 30.577 25.69-35.023 66.99-53.073 106.35-42.31 34.26 9.359 58.67 38.268 67.26 74.091 33.31-9.891 70.29-8.997 105.33 5.081 52.42 21.063 87.58 66.442 97.35 117.356 24.5-18.19 57.24-23.69 87.22-11.64a87.4 87.4 0 0 1 21.4 12.37H92.803z"/><path fill="#aba491" d="M1528.54 932.901c-35.04-14.078-72.02-14.973-105.33-5.081-8.6-35.821-33.01-64.73-67.26-74.089-39.36-10.762-80.67 7.288-106.35 42.311-6.5-13.587-17.56-24.699-32.19-30.581-23.33-9.37-49.28-2.906-67.27 14.296.47-36.588-20.79-71.158-56.2-85.389-23.71-9.53-49.15-8.067-70.87 1.948-5.38-17.853-17.95-32.887-35.873-40.09-18.359-7.376-38.359-4.972-54.821 4.761-2.547-59.67-39.954-115.635-99.961-139.751-52.261-20.995-108.862-12.681-151.099 17.097-8.658-22.593-26.129-41.558-50.104-51.193-21.978-8.833-45.435-8.224-66.048-.124-15.278-50.79-52.116-94.116-104.433-115.134-43.664-17.55-90.294-16.411-131.372-.388-5.852-34.058-26.258-62.959-57.439-75.486-35.517-14.273-75.639-3.56-104.86 24.09-7.72-25.208-26.123-46.704-52.19-57.178-7.25-2.912-14.659-2.425-22.067-3.34v-30.921c15.567-2.6 31.937-1.144 47.578 5.14 26.067 10.48 44.473 31.972 52.193 57.181 29.221-27.654 69.343-38.363 104.86-24.094 31.181 12.534 51.584 41.428 57.436 75.486 41.081-16.019 87.708-17.161 131.375.389 52.317 21.024 89.155 64.347 104.43 115.14 20.616-8.106 44.071-8.712 66.051.12 23.973 9.633 41.446 28.601 50.101 51.193 42.241-29.777 98.841-38.094 151.099-17.096 60.008 24.113 97.417 80.081 99.962 139.75 16.464-9.735 36.464-12.136 54.822-4.76 17.92 7.205 30.5 22.234 35.87 40.089 21.73-10.017 47.16-11.48 70.87-1.947 35.42 14.231 56.67 48.801 56.2 85.389 18-17.206 43.95-23.669 67.27-14.293 14.63 5.878 25.69 16.991 32.19 30.575 25.69-35.02 66.99-53.073 106.35-42.311 34.26 9.362 58.67 38.268 67.26 74.094 33.31-9.894 70.29-9 105.33 5.081 52.41 21.063 87.58 66.442 97.35 117.355 24.5-18.19 57.24-23.692 87.22-11.65a87.4 87.4 0 0 1 21.4 12.38h-142.45c-15.5-38.941-46.61-71.923-89.03-88.969"/><path fill="#918a77" d="M189.422 575.925c24.027-8.724 51.292-8.803 76.755 1.856 27.777 11.622 47.924 33.735 57.793 59.758 49.334-32.908 115.188-40.931 175.738-15.588 69.528 29.092 112.514 93.978 114.967 162.188 19.218-10.692 42.485-12.916 63.755-4.016 20.766 8.691 35.249 26.185 41.341 46.709 25.33-10.868 54.906-11.88 82.38-.38 41.034 17.171 65.436 57.204 64.581 98.973 21.055-19.179 51.265-25.884 78.294-14.572 16.956 7.094 29.703 20.068 37.154 35.753 30.15-39.325 78.29-58.869 123.95-45.55 39.73 11.58 67.84 45.223 77.53 86.357 38.79-10.433 81.76-8.447 122.35 8.541a190.3 190.3 0 0 1 42.76 24.866H237.6l-1.053 1.05H90.09l2.714-525.479c29.459-1.67 81.392 28.182 96.618 79.534"/><path fill="#aba491" d="M1177.48 1024h-8.23c-10.08-40.265-37.83-73.061-76.85-84.461-45.56-13.316-93.606 6.225-123.69 45.549-7.434-15.684-20.153-28.659-37.076-35.752-26.968-11.313-57.113-4.605-78.122 14.572.853-41.769-23.496-81.803-64.442-98.97-27.414-11.504-56.924-10.491-82.203.377-6.078-20.525-20.53-38.015-41.251-46.709-21.224-8.9-44.441-6.676-63.618 4.016-2.447-68.211-45.341-133.096-114.719-162.188-60.419-25.343-126.131-17.32-175.359 15.59-9.847-26.026-29.951-48.139-57.669-59.76-25.408-10.659-52.614-10.58-76.586-1.856-13.681-46.23-60.594-98.919-87.575-89.364l2.714-28.641c41.597-2.248 83.925 31.347 99.119 82.699 23.975-8.723 51.178-8.803 76.589 1.857 27.718 11.621 47.821 33.734 57.666 59.76 49.23-32.911 114.939-40.934 175.362-15.59 69.375 29.091 112.271 93.977 114.719 162.187 19.177-10.692 42.39-12.916 63.617-4.016 20.722 8.694 35.171 26.185 41.252 46.709 25.276-10.868 54.785-11.88 82.203-.376 40.945 17.167 65.294 57.2 64.438 98.97 21.013-19.177 51.158-25.885 78.125-14.573 16.92 7.094 29.639 20.069 37.074 35.753 30.082-39.324 78.132-58.866 123.682-45.55 39.65 11.583 67.7 45.223 77.37 86.36 38.7-10.433 81.58-8.45 122.08 8.538a189 189 0 0 1 42.66 24.869h-89.84c-27.52-6.08-55.3-5.85-81.44 0"/><path fill="#736d5d" d="M132.742 626.999c31.478 13.204 51.77 42.864 57.189 77.549 41.97-15.649 89.344-16.094 133.429 2.395 52.816 22.151 89.575 66.718 104.318 118.541 21.06-7.921 44.891-8.177 67.081 1.129 24.202 10.148 41.663 29.68 50.113 52.758 43.346-29.6 100.968-37.182 153.729-15.06 60.578 25.408 97.716 82.823 99.396 143.469 16.87-9.638 37.224-11.771 55.756-4 9.624 4.04 17.588 10.35 23.764 18.09H90.09V620.518c14.367-1.262 28.88.703 42.652 6.481"/><path fill="#918a77" d="M386.27 918.177c34.091-21.451 76.922-20.257 114.758-.927 12.651-52.226 43.911-98.938 91.647-128.983 57.195-36.003 125.746-40.345 186.722-17.976 6.284-26.256 21.98-49.781 46.006-64.897 26.208-16.5 57.153-19.727 85.571-11.616-.185-63.482 30.893-125.296 88.023-161.255 47.143-29.671 102.453-35.626 152.473-21.304v509.601H335.857c-.947-42.303 16.438-81.257 50.413-102.643"/><path fill="#aba491" d="M1018.88 568.011c-57.135 35.955-88.212 97.769-88.024 161.257-28.421-8.117-59.366-4.886-85.572 11.61-24.028 15.12-39.724 38.645-46.009 64.897-60.975-22.366-129.527-18.023-186.721 17.977-47.736 30.045-78.996 76.757-91.648 128.985-37.835-19.332-80.667-20.527-114.757.927-24.155 15.202-39.872 39.301-46.63 67.156h-23.66c-.948-42.307 16.437-81.261 50.413-102.644 34.09-21.451 76.922-20.256 114.757-.93 12.652-52.225 43.912-98.937 91.648-128.985 57.194-35.997 125.746-40.343 186.721-17.971 6.285-26.258 21.981-49.783 46.006-64.9 26.209-16.496 57.154-19.727 85.572-11.612-.185-63.483 30.892-125.3 88.022-161.258 47.142-29.668 100.652-34.761 152.472-37.176v32.397c-48.25.297-91.62 14.476-132.59 40.27"/><path fill="#736d5d" d="M555.699 1004.65c25.514-16.522 55.615-21.376 85.14-16.101-1.074-33.24 12.377-61.976 38.318-74.165 29.809-14.007 67.736-2.248 96.707 26.512 2.251-12.961 8.788-24.191 19.445-31.09 16.99-11.006 39.71-8.014 58.345 5.531-8.668-32.943.915-66.439 26.709-83.147 17.264-11.186 38.432-12.651 58.495-5.996.362-16.685 7.252-31.616 20.306-40.072 13.369-8.655 30.301-8.685 45.986-1.7-11.422-54.085 6.55-108.647 50.25-136.953 28.66-18.571 31.1-31.874 96.07-34.836l-.06 408.187H536.199c5.775-6.03 12.26-11.48 19.5-16.17"/><path fill="#918a77" d="M1556.63 155.483c-11.37-1.426-22.31 1.636-30.2 7.583-21.43-28.449-74.17-26.82-90.81 5.965-16.58-15.827-44.49-17.132-63.2-4.394 7.77-49.595-33.73-95.474-93.77-103.018-52.77-6.634-102.48 18.524-120.8 58.148-18.04-11.304-43.67-10.059-59.99 3.828-6.29-28.446-37.96-42.138-64.78-39.436-5.66-28.848-33.174-52.662-69.965-57.29-62.523-7.86-131.458 60.25-75.797 113.614-6.778 7.457-11.551 16.314-13.6 26.107-35.743 1.218-66.6 23.214-72.173 53.575-13.126 71.526 91.659 91.008 133.501 50.356 20.187 68.022 135.824 68.957 158.714 2.532 25.31 25.132 71.34 25.076 96.69.048 30.76 38.978 103.14 36.833 127.97-7.709 13.39 12.477 31.92 21.299 53.42 24.001 35.6 4.473 101.89-15.964 101.89-62.141 19.15 2.953 40.77-3.416 52.74-19.316 19.2 14.472 56.01 8.734 60.9-17.897 3.04-16.567-10.72-32.041-30.74-34.556"/><path fill="#aba491" d="M1025.43 137.868s-21.34-5.451-15.55-23.462c-6.77 7.457-11.546 16.314-13.591 26.107-27.32.935-51.739 14.021-64.242 33.685 18.389-18.82 57.53-25.663 65.552-17.802 0 0 5.651-18.767 27.831-18.528"/><path fill="#aba491" d="M1372.42 164.637c7.77-49.591-33.73-95.47-93.77-103.018-52.77-6.63-102.48 18.524-120.8 58.152-5.84-3.659-12.83-6.199-20.59-7.174-15.08-1.892-29.52 2.597-39.4 10.998-4.38-19.816-23.44-36.088-48.86-39.28-5.41-.678-10.74-.674-15.92-.153-5.66-28.847-33.173-52.666-69.964-57.29-45.649-5.738-88.274 20.234-95.204 58.009-3.82 20.799 4.002 40.837 19.407 55.602-10.698-31.362-1.732-63.82 36.256-78.198 0 0-16.618 16.453-13.604 30.692 0 0 24.158-37.635 75.458-14.105 0 0-2.597-13.787-24.393-19.176 33.255-1.035 56.854 25.698 51.144 50.626 0 0 30.68-17.829 65.65 2.989 14.61 9.871 8.56 22.239 8.56 22.239s-23.58-3.559-36.27 7.226c0 0 30.19-6.3 70.46 3.693 0 0-.92-6.234-20.1-15.409 0 0 26.92-16.07 65.41 1.475 0 0 30.35-50.808 96.8-46.758 0 0-30.55 2.58-38.74 15.922 0 0 43.93-14.504 80.15 7.688 0 0-5.22-12.865-16.57-18.677 0 0 36.87-1.17 66.9 42.095 8.33 11.994 10.13 36.308 7.17 42.094 0 0 34.33-22.5 74.01-5.864-6.83-6.53-16.38-11.181-27.51-12.577-13.28-1.671-26.06 1.631-35.68 8.179"/><path fill="#918a77" d="M374.881 166.921c14.252-1.792 27.956 2.053 37.849 9.501 9.592-12.742 25.571-22.091 44.918-24.519 29.743-3.741 57.747 10.045 68.897 31.997 8.561-8.187 20.529-14.003 34.481-15.761 16.645-2.088 32.663 2.045 44.718 10.25-9.732-62.15 42.273-119.65 117.526-129.107 66.126-8.314 128.428 23.214 151.394 72.873 7.317-4.585 16.083-7.765 25.798-8.983 18.898-2.38 37 3.254 49.39 13.782 5.481-24.837 29.369-45.227 61.228-49.23 6.78-.852 13.46-.848 19.95-.195 7.09-36.152 41.57-66.004 87.69-71.8 57.2-7.19 110.62 25.36 119.31 72.7 4.79 26.072-5.01 51.179-24.32 69.694 8.5 9.34 14.48 20.442 17.04 32.715 44.8 1.531 83.47 29.095 90.46 67.153 7.93 43.186-27.96 83.514-80.15 90.074-33.95 4.268-66.42-6.817-87.17-26.968-9.64 32.498-42.06 58.596-84.52 63.934-51.79 6.512-100.394-20.143-114.389-60.758-11.933 11.842-28.878 20.299-48.751 22.796-28.299 3.559-55.298-5.825-72.43-22.739-13.812 17.497-36.217 30.244-63.15 33.628-41.403 5.208-80.521-13.329-97.227-43.295-16.784 15.64-40.011 26.699-66.948 30.083-61.223 7.696-118.392-27.138-127.689-77.802l-.013-.074c-.605.087-1.192.226-1.805.3-26.211 3.297-51.109-7.004-64.29-24.519-6.474 4.881-14.687 8.296-23.997 9.462-25.089 3.154-48.52-11.119-52.331-31.888-3.811-20.76 13.438-40.15 38.531-43.304"/><path fill="#736d5d" d="M387.393 237.657c-13.582 1.58-26.62-2.71-35.338-10.519 30.409 10.867 53.958-20.307 53.958-20.307 43.991 40.458 88.448 7.125 88.448 7.125.848 37.792 35.247 69.12 85.842 71.943s94.447-30.435 91.236-60.275c16.379 30.866 113.754 35.93 112.41-8.457-59.413-11.011-78.207-45.183-78.207-45.183 76.545 49.986 171.915-.531 171.915-.531-2.593 28.465-53.932 43.139-53.932 43.139 16.253 44.704 81.074 73.004 94.899 56.041 20.908 21.122 48.786-.552 48.786-.552 33.14 45.81 109.12 19.568 100.15-25.981-47.64-7.26-66.18-36.338-66.18-36.338 92.53 34.811 181.63-5.243 181.63-5.243-10.23 30.884-79.93 43.082-79.93 43.082 57.6 73.405 176.27 44.505 209.04-9.349a63 63 0 0 1 3.63 12.421c3.62 19.685-2.25 39.353-16.51 55.385-14.27 16.031-35.22 26.507-59 29.495l-1.02.122c-30.67 3.567-61-5.982-81.13-25.541l-6.99-6.778-2.56 8.653c-9.45 31.836-40.85 55.589-80 60.51l-1.1.134c-47.85 5.565-93.922-19.215-107.161-57.634l-2.858-8.296-6.673 6.626c-11.546 11.454-27.647 18.989-45.349 21.208l-.822.104c-25.219 2.933-50.099-5.016-66.552-21.264l-4.777-4.716-4.068 5.155c-13.451 17.036-35.086 28.56-59.357 31.61l-.979.122c-37.409 4.346-74.591-12.438-90.414-40.816l-3.537-6.334-5.594 5.216c-16.48 15.353-39.084 25.511-63.651 28.6l-1.205.143c-57.551 6.696-111.475-26.559-120.201-74.122l-.009-.021v-.009l-.796-4.698-5.651.852q-.503.078-.992.17c-.218.039-.431.083-.653.109l-.661.082c-23.014 2.676-45.823-6.156-58.117-22.496l-3.498-4.65-4.898 3.685c-5.904 4.45-13.208 7.33-21.113 8.322z"/><path fill="#aba491" d="M605.745 178.391c-9.737-62.15 42.272-119.65 117.521-129.106 66.126-8.314 128.433 23.214 151.394 72.872 7.322-4.581 16.088-7.765 25.798-8.983 18.898-2.38 37.004 3.254 49.39 13.786 5.486-24.841 29.374-45.23 61.232-49.232 6.78-.853 13.46-.85 19.95-.197 7.1-36.152 41.57-66 87.69-71.799 57.2-7.187 110.62 25.364 119.31 72.7 4.79 26.076-5.01 51.178-24.32 69.693 13.41-39.31 2.17-79.99-45.44-98.005 0 0 20.82 20.617 17.05 38.462 0 0-30.28-47.163-94.57-17.676 0 0 3.25-17.276 30.57-24.032-41.68-1.3-71.26 32.21-64.1 63.446 0 0-38.44-22.34-82.27 3.746-18.315 12.372-10.737 27.873-10.737 27.873s29.561-4.459 45.467 9.049c0 0-37.845-7.888-88.31 4.637 0 0 1.149-7.813 25.185-19.316 0 0-33.738-20.142-81.975 1.854 0 0-38.035-63.677-121.319-58.605 0 0 38.292 3.228 48.554 19.956 0 0-55.058-18.175-100.455 9.631 0 0 6.548-16.117 20.778-23.41 0 0-46.21-1.46-83.854 52.763-10.437 15.034-12.69 45.509-8.984 52.757 0 0-43.025-28.195-92.759-7.348 8.566-8.187 20.53-14.008 34.481-15.762 16.645-2.092 32.668 2.041 44.723 10.246"/><path stroke="#aba491" stroke-miterlimit="10" d="M434.871 158.646a72.7 72.7 0 0 1 22.775-6.743c29.743-3.737 57.747 10.049 68.897 32.001 0 0-40.194-35.943-91.672-25.258Z"/></g><defs><linearGradient id="b" x1="521.034" x2="517.577" y1="962.576" y2="109.013" gradientUnits="userSpaceOnUse"><stop stop-color="#827d6f"/><stop offset="1" stop-color="#635e51"/></linearGradient></defs></svg>