<svg xmlns="http://www.w3.org/2000/svg" fill="none" viewBox="0 0 1024 1024"><g clip-path="url(#a)"><path fill="url(#b)" d="M0 0h1024v1024H0z"/><path fill="url(#c)" d="M1659.15 839.404C336.506-307.585-390.575 947.432-447.779 950.204L499.757 2096.64C1327.1 2059.89 2717.26 1757 1659.15 839.404"/><path fill="url(#d)" d="M697.863 486.336C345.819 776.253-69.467 65.826-314 462.829v666.021L1252.28 1249 1598 447.158c-182.7-83.58-618.501-192.755-900.137 39.178"/><path fill="url(#e)" d="M929 456.503C718.276 444.35 701.826 611.317 567.855 624.239 353.5 644.913 295.689 500.823 59 500.504c-181.682-.243-93.056 160.878-233 146.698V1292.5H971.567c92.163-15.1 189.123-32.04 290.433-50.81l128-249.708c-78.69 4.106 151.2-178.971 33-237.978-105.19-52.519-295-286.024-494-297.501"/><path fill="url(#f)" d="M745.019 701.373C977.497 380.845 1564.6 857.871 1589.4 850.242c146.36 47.555 456.83 215.098 527.85 504.828 527.85 504.84-241.43 811.73-1861.156 387.4C-1363.63 1318.15-230.659 733.366 41.358 531.563S512.541 1021.9 745.02 701.373"/></g><defs><linearGradient id="c" x1="538" x2="658.004" y1="225" y2="740.47" gradientUnits="userSpaceOnUse"><stop stop-color="#553b7c"/><stop offset="1" stop-color="#362450"/></linearGradient><linearGradient id="d" x1="576" x2="597.849" y1="774" y2="446.788" gradientUnits="userSpaceOnUse"><stop stop-color="#553b7c"/><stop offset="1" stop-color="#362450"/></linearGradient><linearGradient id="e" x1="872.543" x2="53.613" y1="512.811" y2="887.153" gradientUnits="userSpaceOnUse"><stop stop-color="#553b7c"/><stop offset="1" stop-color="#362450"/></linearGradient><linearGradient id="f" x1="136" x2="713.856" y1="787" y2="981.106" gradientUnits="userSpaceOnUse"><stop stop-color="#553b7c"/><stop offset="1" stop-color="#362450"/></linearGradient><radialGradient id="b" cx="0" cy="0" r="1" gradientTransform="translate(512 1024)scale(1024)" gradientUnits="userSpaceOnUse"><stop offset=".15" stop-color="#553a7c"/><stop offset=".9" stop-color="#372551"/></radialGradient><clipPath id="a"><path fill="#fff" d="M0 0h1024v1024H0z"/></clipPath></defs></svg>