<svg xmlns="http://www.w3.org/2000/svg" xml:space="preserve" stroke-miterlimit="10" style="fill-rule:nonzero;clip-rule:evenodd;stroke-linecap:round;stroke-linejoin:round" viewBox="0 0 1024 1024"><clipPath id="a"><path d="M0 0h1024v1024H0z"/></clipPath><g clip-path="url(#a)"><path fill="#66A2A3" d="M0 0h1024v1024H0z"/><path fill="#407A8C" d="M816.645 207.355c-336.502 0-609.29 272.788-609.29 609.29 336.502 0 609.29-272.788 609.29-609.29"/><path fill="#66A2A3" d="M359.677 512c0-84.125 68.198-152.323 152.323-152.323S664.323 427.875 664.323 512 596.125 664.323 512 664.323 359.677 596.125 359.677 512"/><path fill="#407A8C" d="M435.839 512c0-42.063 34.098-76.161 76.161-76.161s76.161 34.098 76.161 76.161-34.098 76.161-76.161 76.161-76.161-34.098-76.161-76.161"/></g></svg>