<svg xmlns="http://www.w3.org/2000/svg" xml:space="preserve" stroke-miterlimit="10" style="fill-rule:nonzero;clip-rule:evenodd;stroke-linecap:round;stroke-linejoin:round" viewBox="0 0 1024 1024"><defs><radialGradient id="b" cx="0" cy="0" r="1" gradientTransform="translate(582451 -248218)scale(1576960)" gradientUnits="userSpaceOnUse"><stop offset="0" stop-color="#4f35e6"/><stop offset="1" stop-color="#2660ff"/></radialGradient><radialGradient id="c" cx="0" cy="0" r="1" gradientTransform="matrix(971.201 0 0 854.134 1090.07 65.325)" gradientUnits="userSpaceOnUse"><stop offset="0" stop-color="#00c9ff"/><stop offset="1" stop-color="#073aff" stop-opacity="0"/></radialGradient><radialGradient id="d" cx="0" cy="0" r="1" gradientTransform="translate(307.389 806.55)scale(716.611)" gradientUnits="userSpaceOnUse"><stop offset="0" stop-color="#7b00ff"/><stop offset="1" stop-color="#073aff" stop-opacity="0"/></radialGradient><radialGradient id="e" cx="0" cy="0" r="1" gradientTransform="translate(2972.89 3870.05)scale(3585.19)" gradientUnits="userSpaceOnUse"><stop offset="0" stop-color="#079fff" stop-opacity="0"/><stop offset=".957" stop-color="#28a3ff" stop-opacity="0"/><stop offset="1" stop-color="#229bff" stop-opacity=".576"/></radialGradient><radialGradient id="f" cx="0" cy="0" r="1" gradientTransform="translate(2972.89 3870.05)scale(3689.91)" gradientUnits="userSpaceOnUse"><stop offset="0" stop-color="#079fff" stop-opacity="0"/><stop offset=".957" stop-color="#28a3ff" stop-opacity="0"/><stop offset="1" stop-color="#229bff" stop-opacity=".576"/></radialGradient><radialGradient id="g" cx="0" cy="0" r="1" gradientTransform="translate(2972.89 3870.05)scale(3789.32)" gradientUnits="userSpaceOnUse"><stop offset="0" stop-color="#079fff" stop-opacity="0"/><stop offset=".957" stop-color="#28a3ff" stop-opacity="0"/><stop offset="1" stop-color="#229bff" stop-opacity=".576"/></radialGradient><radialGradient id="h" cx="0" cy="0" r="1" gradientTransform="translate(2972.89 3870.05)scale(3896.49)" gradientUnits="userSpaceOnUse"><stop offset="0" stop-color="#079fff" stop-opacity="0"/><stop offset=".957" stop-color="#28a3ff" stop-opacity="0"/><stop offset="1" stop-color="#229bff" stop-opacity=".576"/></radialGradient><radialGradient id="i" cx="0" cy="0" r="1" gradientTransform="translate(2972.89 3870.05)scale(4010.3)" gradientUnits="userSpaceOnUse"><stop offset="0" stop-color="#079fff" stop-opacity="0"/><stop offset=".957" stop-color="#28a3ff" stop-opacity="0"/><stop offset="1" stop-color="#229bff" stop-opacity=".576"/></radialGradient><radialGradient id="j" cx="0" cy="0" r="1" gradientTransform="translate(2972.89 3870.05)scale(4118.35)" gradientUnits="userSpaceOnUse"><stop offset="0" stop-color="#079fff" stop-opacity="0"/><stop offset=".957" stop-color="#28a3ff" stop-opacity="0"/><stop offset="1" stop-color="#229bff" stop-opacity=".576"/></radialGradient><radialGradient id="k" cx="0" cy="0" r="1" gradientTransform="translate(2972.89 3870.05)scale(4216.57)" gradientUnits="userSpaceOnUse"><stop offset="0" stop-color="#079fff" stop-opacity="0"/><stop offset=".957" stop-color="#28a3ff" stop-opacity="0"/><stop offset="1" stop-color="#229bff" stop-opacity=".576"/></radialGradient><radialGradient id="l" cx="0" cy="0" r="1" gradientTransform="translate(2972.89 3870.05)scale(4339.73)" gradientUnits="userSpaceOnUse"><stop offset="0" stop-color="#079fff" stop-opacity="0"/><stop offset=".957" stop-color="#28a3ff" stop-opacity="0"/><stop offset="1" stop-color="#229bff" stop-opacity=".576"/></radialGradient><radialGradient id="m" cx="0" cy="0" r="1" gradientTransform="translate(2972.89 3870.05)scale(4456.65)" gradientUnits="userSpaceOnUse"><stop offset="0" stop-color="#079fff" stop-opacity="0"/><stop offset=".957" stop-color="#28a3ff" stop-opacity="0"/><stop offset="1" stop-color="#229bff" stop-opacity=".576"/></radialGradient><radialGradient id="n" cx="0" cy="0" r="1" gradientTransform="translate(2972.89 3870.05)scale(4582.69)" gradientUnits="userSpaceOnUse"><stop offset="0" stop-color="#079fff" stop-opacity="0"/><stop offset=".957" stop-color="#28a3ff" stop-opacity="0"/><stop offset="1" stop-color="#229bff" stop-opacity=".576"/></radialGradient><radialGradient id="o" cx="0" cy="0" r="1" gradientTransform="translate(2972.89 3870.05)scale(4716.55)" gradientUnits="userSpaceOnUse"><stop offset="0" stop-color="#079fff" stop-opacity="0"/><stop offset=".957" stop-color="#28a3ff" stop-opacity="0"/><stop offset="1" stop-color="#229bff" stop-opacity=".576"/></radialGradient><radialGradient id="p" cx="0" cy="0" r="1" gradientTransform="translate(2972.89 3870.05)scale(4843.62)" gradientUnits="userSpaceOnUse"><stop offset="0" stop-color="#079fff" stop-opacity="0"/><stop offset=".957" stop-color="#28a3ff" stop-opacity="0"/><stop offset="1" stop-color="#229bff" stop-opacity=".576"/></radialGradient></defs><clipPath id="a"><path d="M0 0h1024v1024H0z"/></clipPath><g clip-path="url(#a)"><path fill="url(#b)" d="M0 0h1024v1024H0z"/><path fill="url(#c)" d="M118.869-788.81H2061.27V919.459H118.869z"/><path fill="url(#d)" d="M-409.221 89.94H1024v1433.22H-409.221z"/><g opacity=".329"><g opacity="1"><g opacity="1"><path fill="url(#e)" d="M-612.298 3870.05c0-1980.05 1605.144-3585.191 3585.188-3585.191 1980.05 0 3585.19 1605.141 3585.19 3585.191 0 1980.04-1605.14 3585.19-3585.19 3585.19-1980.044 0-3585.188-1605.15-3585.188-3585.19" opacity="1"/><path fill="url(#f)" d="M-717.02 3870.05c0-2037.88 1652.03-3689.913 3689.91-3689.913S6662.8 1832.17 6662.8 3870.05 5010.77 7559.96 2972.89 7559.96-717.02 5907.93-717.02 3870.05" opacity="1"/><path fill="url(#g)" d="M-816.431 3870.05c0-2092.79 1696.537-3789.324 3789.321-3789.324 2092.79 0 3789.32 1696.534 3789.32 3789.324 0 2092.78-1696.53 3789.32-3789.32 3789.32-2092.784 0-3789.321-1696.54-3789.321-3789.32" opacity="1"/></g><g opacity="1"><path fill="url(#h)" d="M-923.598 3870.05c0-2151.97 1744.518-3896.491 3896.488-3896.491S6869.38 1718.08 6869.38 3870.05 5124.86 7766.54 2972.89 7766.54-923.598 6022.02-923.598 3870.05" opacity="1"/><path fill="url(#i)" d="M-1037.41 3870.05c0-2214.83 1795.472-4010.306 4010.3-4010.306 2214.83 0 4010.31 1795.476 4010.31 4010.306s-1795.48 4010.3-4010.31 4010.3c-2214.828 0-4010.3-1795.47-4010.3-4010.3" opacity="1"/><path fill="url(#j)" d="M-1145.46 3870.05c0-2274.5 1843.851-4118.349 4118.35-4118.349S7091.24 1595.55 7091.24 3870.05 5247.39 7988.39 2972.89 7988.39c-2274.499 0-4118.35-1843.84-4118.35-4118.34" opacity="1"/></g></g><g opacity="1"><g opacity="1"><path fill="url(#k)" d="M-1243.67 3870.05c0-2328.75 1887.816-4216.568 4216.56-4216.568 2328.75 0 4216.57 1887.818 4216.57 4216.568 0 2328.74-1887.82 4216.56-4216.57 4216.56-2328.744 0-4216.56-1887.82-4216.56-4216.56" opacity="1"/><path fill="url(#l)" d="M-1366.84 3870.05c0-2396.77 1942.965-4339.731 4339.73-4339.731 2396.77 0 4339.73 1942.961 4339.73 4339.731 0 2396.76-1942.96 4339.73-4339.73 4339.73-2396.765 0-4339.73-1942.97-4339.73-4339.73" opacity="1"/><path fill="url(#m)" d="M-1483.76 3870.05c0-2461.34 1995.313-4456.65 4456.65-4456.65 2461.34 0 4456.65 1995.31 4456.65 4456.65S5434.23 8326.7 2972.89 8326.7c-2461.337 0-4456.65-1995.31-4456.65-4456.65" opacity="1"/></g><g opacity="1"><path fill="url(#n)" d="M-1609.8 3870.05c0-2530.95 2051.743-4582.69 4582.69-4582.69 2530.95 0 4582.69 2051.74 4582.69 4582.69S5503.84 8452.74 2972.89 8452.74C441.943 8452.74-1609.8 6401-1609.8 3870.05" opacity="1"/><path fill="url(#o)" d="M-1743.65 3870.05c0-2604.88 2111.665-4716.548 4716.54-4716.548 2604.88 0 4716.55 2111.668 4716.55 4716.548 0 2604.87-2111.67 4716.54-4716.55 4716.54-2604.875 0-4716.54-2111.67-4716.54-4716.54" opacity="1"/><path fill="url(#p)" d="M-1870.72 3870.05c0-2675.06 2168.556-4843.618 4843.61-4843.618 2675.06 0 4843.62 2168.558 4843.62 4843.618 0 2675.05-2168.56 4843.61-4843.62 4843.61-2675.054 0-4843.61-2168.56-4843.61-4843.61" opacity="1"/></g></g></g></g></svg>