<svg xmlns="http://www.w3.org/2000/svg" width="1024" height="1024" fill="none" viewBox="0 0 1024 1024"><g clip-path="url(#a)"><path fill="url(#b)" d="M0 0h1024v1024H0z"/><path fill="url(#c)" d="M959.407 377.209c-402.449 211.043-924.335 87.934-1134.971 0L-332 1462.28 1187.57 1509c91.63-465.2 174.29-1342.834-228.163-1131.791"/><path fill="url(#d)" d="M429.803 421.301C190.37 658.744-6.259 515.935-74.645 414.85l109.591 659.6 675.948-76.827 250.669-497.319c-77.489-125.269-292.328-316.447-531.76-79.003"/><path fill="url(#e)" d="M511.5 556C83.9 860-133 586-188 411l-224 926.5L1261.5 1597l82.5-890c-99.33-177-404.9-455-832.5-151"/><path fill="url(#f)" d="M-108.5 559.235c-165.644-94.259-103.239-5.924-213.943 53.769L-371 1075.24l1810.82-51.88c62.14-157.207 129.82-485.738-96.66-542.244-283.1-70.631-68.01 324.394-323.16 18.117-128.941-154.776-304.5 346.002-520.178 129.075C210.441 337.249 98.555 677.059-108.5 559.235"/><path fill="url(#g)" d="M417.431 710.009c343.181 137.945 709.829-51.742 850.259-163.829l90.45 565.07-1234.075 490.1-581.288-647.271c148.559-138.834 531.473-382.016 874.654-244.07"/></g><defs><linearGradient id="c" x1="-93.5" x2="922.754" y1="1594" y2="355.391" gradientUnits="userSpaceOnUse"><stop stop-color="#e4e6f2"/><stop offset="1" stop-color="#eeeff8"/></linearGradient><linearGradient id="d" x1="351.5" x2="674.798" y1="671.5" y2="340.292" gradientUnits="userSpaceOnUse"><stop stop-color="#dee0ef"/><stop offset="1" stop-color="#eeeff8"/></linearGradient><linearGradient id="e" x1="719" x2="-188.164" y1="592.5" y2="1599.37" gradientUnits="userSpaceOnUse"><stop stop-color="#e2e5f5"/><stop offset="1" stop-color="#eeeff8"/></linearGradient><linearGradient id="f" x1="-41" x2="796.73" y1="1439" y2="586.218" gradientUnits="userSpaceOnUse"><stop stop-color="#d0d4f1"/><stop offset="1" stop-color="#eeeff8"/></linearGradient><linearGradient id="g" x1="204.5" x2="512.033" y1="1121.5" y2="981.316" gradientUnits="userSpaceOnUse"><stop stop-color="#e4e6f2"/><stop offset="1" stop-color="#f1f2fa"/></linearGradient><radialGradient id="b" cx="0" cy="0" r="1" gradientTransform="translate(512 1024)scale(1024)" gradientUnits="userSpaceOnUse"><stop offset=".4" stop-color="#f6f9ff"/><stop offset=".98" stop-color="#e9ecfa"/></radialGradient><clipPath id="a"><path fill="#fff" d="M0 0h1024v1024H0z"/></clipPath></defs></svg>