<svg xmlns="http://www.w3.org/2000/svg" xmlns:xlink="http://www.w3.org/1999/xlink" xml:space="preserve" stroke-miterlimit="10" style="fill-rule:nonzero;clip-rule:evenodd;stroke-linecap:round;stroke-linejoin:round" viewBox="0 0 1450 1450"><defs><linearGradient id="d" x1="0" x2="1" y1="0" y2="0" gradientTransform="rotate(90 256 469)scale(1024)" gradientUnits="userSpaceOnUse"><stop offset="0" stop-color="#020887"/><stop offset=".2" stop-color="#020887"/><stop offset=".2" stop-color="#334195"/><stop offset=".4" stop-color="#334195"/><stop offset=".4" stop-color="#647aa3"/><stop offset=".6" stop-color="#647aa3"/><stop offset=".6" stop-color="#95b2b0"/><stop offset=".8" stop-color="#95b2b0"/><stop offset=".8" stop-color="#c6ebbe"/><stop offset="1" stop-color="#c6ebbe"/></linearGradient><path id="b" d="M217 725c0-280.561 227.439-508 508-508 280.56 0 508 227.439 508 508 0 280.56-227.44 508-508 508s-508-227.44-508-508"/></defs><clipPath id="a" clip-rule="nonzero"><path d="M0 200C0 89.543 89.543 0 200 0h1050c110.46 0 200 89.543 200 200v1050c0 110.46-89.54 200-200 200H200c-110.457 0-200-89.54-200-200z"/></clipPath><g clip-path="url(#a)"><path fill="#3e4885" d="M0 0h1450v1450H0z"/></g><use xlink:href="#b" fill="none" stroke="#f9fff7" stroke-linecap="butt" stroke-linejoin="miter" stroke-width="40"/><clipPath id="c" clip-rule="nonzero"><use xlink:href="#b"/></clipPath><g clip-path="url(#c)"><path fill="url(#d)" d="M213 213h1024v1024H213z"/><g fill="none" stroke="#f9fff7" stroke-linecap="butt" stroke-linejoin="miter" stroke-width="40"><path d="M976.23 657.293c-97.777.426-189.09 27.863-267 75.156-78.321-46.615-169.876-73.27-267.656-72.844-287.031 1.251-518.72 234.968-517.469 522.005 1.251 287.02 234.97 518.68 522 517.43 97.786-.42 189.116-27.85 267.031-75.15 78.314 46.6 169.858 73.24 267.625 72.81 287.039-1.25 518.719-234.93 517.469-521.97-1.25-287.031-234.97-518.687-522-517.437Z"/><path d="M458.791 1179.26c-1.25-287.028 230.421-520.726 517.452-521.978 287.027-1.25 520.737 230.421 521.987 517.448 1.25 287.04-230.42 520.73-517.456 521.98-287.033 1.26-520.731-230.42-521.983-517.45Z"/></g></g><path fill="none" stroke="#f9fff7" stroke-linecap="butt" stroke-linejoin="miter" stroke-width="40" d="M217 725c0-280.561 227.439-508 508-508 280.56 0 508 227.439 508 508 0 280.56-227.44 508-508 508s-508-227.44-508-508Z"/></svg>