<svg xmlns="http://www.w3.org/2000/svg" xml:space="preserve" stroke-miterlimit="10" style="fill-rule:nonzero;clip-rule:evenodd;stroke-linecap:round;stroke-linejoin:round" viewBox="0 0 1450 1450"><defs><linearGradient id="b" x1="0" x2="1" y1="0" y2="0" gradientTransform="translate(217 725)scale(1016)" gradientUnits="userSpaceOnUse"><stop offset="0" stop-color="#111827"/><stop offset="1" stop-color="#374151"/></linearGradient><linearGradient id="d" x1="0" x2="1" y1="0" y2="0" gradientTransform="rotate(-46.529 1398.985 31.702)scale(1022.65)" gradientUnits="userSpaceOnUse"><stop offset="0" stop-color="#111827"/><stop offset="1" stop-color="#374151"/></linearGradient><linearGradient id="e" x1="0" x2="1" y1="0" y2="0" gradientTransform="rotate(-45.256 1508.158 51.739)scale(1032.875)" gradientUnits="userSpaceOnUse"><stop offset="0" stop-color="#111827"/><stop offset="1" stop-color="#374151"/></linearGradient><linearGradient id="f" x1="0" x2="1" y1="0" y2="0" gradientTransform="translate(205.278 885.567)scale(1039.44)" gradientUnits="userSpaceOnUse"><stop offset="0" stop-color="#111827"/><stop offset="1" stop-color="#374151"/></linearGradient><linearGradient id="h" x1="0" x2="1" y1="0" y2="0" gradientTransform="translate(204.145 658.384)scale(1039.44)" gradientUnits="userSpaceOnUse"><stop offset="0" stop-color="#111827"/><stop offset="1" stop-color="#374151"/></linearGradient><linearGradient id="i" x1="0" x2="1" y1="0" y2="0" gradientTransform="translate(-75.892 1179.33)scale(1039.44)" gradientUnits="userSpaceOnUse"><stop offset="0" stop-color="#111827"/><stop offset="1" stop-color="#374151"/></linearGradient><linearGradient id="j" x1="0" x2="1" y1="0" y2="0" gradientTransform="rotate(-46.011 1974.6 -190.72)scale(822.065)" gradientUnits="userSpaceOnUse"><stop offset="0" stop-color="#111827"/><stop offset="1" stop-color="#374151"/></linearGradient></defs><clipPath id="a" clip-rule="nonzero"><path d="M0 200C0 89.543 89.543 0 200 0h1050c110.46 0 200 89.543 200 200v1050c0 110.46-89.54 200-200 200H200c-110.457 0-200-89.54-200-200z"/></clipPath><g clip-path="url(#a)"><path fill="#1f2937" d="M0 0h1450v1450H0z"/></g><path fill="url(#b)" stroke="#f3f4f6" stroke-linecap="butt" stroke-linejoin="miter" stroke-width="40" d="M217 725c0-280.561 227.439-508 508-508 280.56 0 508 227.439 508 508 0 280.56-227.44 508-508 508s-508-227.44-508-508Z"/><clipPath id="c" clip-rule="nonzero"><path d="M217 725c0-280.561 227.439-508 508-508 280.56 0 508 227.439 508 508 0 280.56-227.44 508-508 508s-508-227.44-508-508"/></clipPath><g clip-path="url(#c)"><path fill="url(#d)" stroke="#f3f4f6" stroke-linecap="butt" stroke-linejoin="miter" stroke-width="40" d="M721.62 138.699c-219.954.959-407.267 138.433-482.3 331.777-19.167 73.108-30.761 149.294-33.456 227.768.468 6.099.886 12.215 1.559 18.255-.64.327-1.247.709-1.886 1.04-.09 5.673-.259 11.324-.259 17.02 0 378.411 202.39 709.271 504.649 891.061 1.04-.62 2.15-1.13 3.184-1.75 5.094 3.03 10.387 5.71 15.592 8.57 308.567-180.26 516.017-514.73 516.017-897.881 0-1.24-.06-2.465-.07-3.702-1.93-1.155-3.76-2.445-5.71-3.575 2.25-17.002 3.43-34.321 4.03-51.777-3.53-62.833-12.57-124.171-26.77-183.525-69.66-206.189-264.982-354.282-494.58-353.281Z" opacity=".332"/><path fill="url(#e)" stroke="#f3f4f6" stroke-linecap="butt" stroke-linejoin="miter" stroke-width="40" d="M721.62 138.699c-219.954.959-407.267 138.433-482.3 331.777-19.167 73.108-30.761 149.294-33.456 227.768.468 6.099.886 12.215 1.559 18.255-.64.327-1.247.709-1.886 1.04-.09 5.673-.259 11.324-.259 17.02 0 378.411 202.39 709.271 504.649 891.061 1.04-.62 2.15-1.13 3.184-1.75 5.094 3.03 10.387 5.71 15.592 8.57 308.567-180.26 516.017-514.73 516.017-897.881 0-1.24-.06-2.465-.07-3.702-1.93-1.155-3.76-2.445-5.71-3.575 2.25-17.002 3.43-34.321 4.03-51.777-3.53-62.833-12.57-124.171-26.77-183.525-69.66-206.189-264.982-354.282-494.58-353.281Z"/><path fill="url(#f)" stroke="#f3f4f6" stroke-linecap="butt" stroke-linejoin="miter" stroke-width="40" d="M721.62 138.699c-219.954.959-407.267 138.433-482.3 331.777-19.167 73.108-30.761 149.294-33.456 227.768.468 6.099.886 12.215 1.559 18.255-.64.327-1.247.709-1.886 1.04-.09 5.673-.259 11.324-.259 17.02 0 378.411 202.39 709.271 504.649 891.061 1.04-.62 2.15-1.13 3.184-1.75 5.094 3.03 10.387 5.71 15.592 8.57 308.567-180.26 516.017-514.73 516.017-897.881 0-1.24-.06-2.465-.07-3.702-1.93-1.155-3.76-2.445-5.71-3.575 2.25-17.002 3.43-34.321 4.03-51.777-3.53-62.833-12.57-124.171-26.77-183.525-69.66-206.189-264.982-354.282-494.58-353.281Z"/><clipPath id="g" clip-rule="nonzero"><path d="M721.62 138.699c-219.954.959-407.267 138.433-482.3 331.777-19.167 73.108-30.761 149.294-33.456 227.768.468 6.099.886 12.215 1.559 18.255-.64.327-1.247.709-1.886 1.04-.09 5.673-.259 11.324-.259 17.02 0 378.411 202.39 709.271 504.649 891.061 1.04-.62 2.15-1.13 3.184-1.75 5.094 3.03 10.387 5.71 15.592 8.57 308.567-180.26 516.017-514.73 516.017-897.881 0-1.24-.06-2.465-.07-3.702-1.93-1.155-3.76-2.445-5.71-3.575 2.25-17.002 3.43-34.321 4.03-51.777-3.53-62.833-12.57-124.171-26.77-183.525-69.66-206.189-264.982-354.282-494.58-353.281"/></clipPath><g stroke="#f3f4f6" stroke-linecap="butt" stroke-linejoin="miter" stroke-width="40" clip-path="url(#g)"><path fill="url(#h)" d="M204.15 660.647c-1.25-287.031 230.42-520.73 517.452-521.98 287.028-1.251 520.728 230.42 521.978 517.451S1013.16 1176.85 726.132 1178.1c-287.032 1.25-520.73-230.421-521.982-517.453Z"/><path fill="url(#i)" d="M-75.887 1181.59c-1.251-287.028 230.42-520.726 517.451-521.977s520.731 230.42 521.981 517.447c1.252 287.04-230.421 520.74-517.452 521.99-287.03 1.25-520.729-230.43-521.98-517.46Z"/><path fill="url(#j)" d="M458.791 1179.26c-1.25-287.028 230.421-520.726 517.452-521.978 287.027-1.25 520.737 230.421 521.987 517.448 1.25 287.04-230.42 520.73-517.456 521.98-287.033 1.26-520.731-230.42-521.983-517.45Z"/></g></g><path fill="none" stroke="#f3f4f6" stroke-linecap="butt" stroke-linejoin="miter" stroke-width="40" d="M217 725c0-280.561 227.439-508 508-508 280.56 0 508 227.439 508 508 0 280.56-227.44 508-508 508s-508-227.44-508-508Z"/></svg>