<svg xmlns="http://www.w3.org/2000/svg" fill="none" viewBox="0 0 1280 1280"><g clip-path="url(#a)"><mask id="b" width="1280" height="1280" x="0" y="0" maskUnits="userSpaceOnUse" style="mask-type:luminance"><rect width="1280" height="1280" fill="#fff" rx="220"/></mask><g mask="url(#b)"><path fill="#1F2937" d="M0 0h1280v1280H0z"/></g><g clip-path="url(#c)"><path fill="url(#d)" d="M162 640c0-263.992 214.008-478 478-478s478 214.008 478 478-214.008 478-478 478-478-214.008-478-478"/><path fill="url(#e)" d="M876.412 577.005C613.086 578.152 399.392 786.997 390 1047.47c72.747 44.69 158.382 70.53 250.056 70.53C904.018 1118 1118 904.279 1118 640.639c0-.354-.03-.702-.03-1.057-71.38-40.129-153.789-62.959-241.558-62.577"/><path fill="url(#f)" d="M372.75 579.005c-75.441.33-146.797 17.848-210.427 48.791-.112 4.25-.323 8.485-.323 12.763 0 172.323 90.962 323.312 227.32 407.441 6.096-169.739 98.522-317.516 234.68-400.412-73.504-43.898-159.46-68.984-251.25-68.583"/><path stroke="#F3F4F6" stroke-linecap="round" stroke-linejoin="round" stroke-miterlimit="10" stroke-width="64" d="M388.875 1049.07c-137.283-84.463-228.864-236.055-228.864-409.066 0-4.296.213-8.547.324-12.815 64.063-31.066 135.905-48.654 211.857-48.986 92.415-.403 178.955 24.785 252.959 68.857-137.084 83.228-230.138 231.594-236.276 402.01m0 0c9.434-261.903 224.043-471.898 488.496-473.052 88.145-.383 170.909 22.571 242.589 62.923.01.356.04.707.04 1.063C1120 905.096 905.096 1120 640.004 1120c-92.068 0-178.069-25.98-251.129-70.93M160 639.992C160 374.9 374.9 160 639.992 160s479.988 214.9 479.988 479.992-214.894 479.988-479.988 479.988S160 905.086 160 639.992"/></g></g><defs><linearGradient id="d" x1="190" x2="1090" y1="640" y2="640" gradientUnits="userSpaceOnUse"><stop stop-color="#111827"/><stop offset="1" stop-color="#374151"/></linearGradient><linearGradient id="e" x1="412.3" x2="1357.5" y1="1076.5" y2="1076.5" gradientUnits="userSpaceOnUse"><stop stop-color="#111827"/><stop offset="1" stop-color="#374151"/></linearGradient><linearGradient id="f" x1="-104.2" x2="841" y1="1079" y2="1079" gradientUnits="userSpaceOnUse"><stop stop-color="#111827"/><stop offset="1" stop-color="#374151"/></linearGradient><clipPath id="a"><path fill="#fff" d="M0 0h1280v1280H0z"/></clipPath><clipPath id="c"><path fill="#fff" d="M128 128h1024v1024H128z"/></clipPath></defs></svg>