<svg xmlns="http://www.w3.org/2000/svg" fill="none" viewBox="0 0 1320 1320"><g clip-path="url(#a)"><mask id="b" width="1320" height="1320" x="0" y="0" maskUnits="userSpaceOnUse" style="mask-type:luminance"><rect width="1320" height="1320" fill="#fff" rx="220"/></mask><g mask="url(#b)"><path fill="#1F2937" d="M0 0h1320v1320H0z"/></g><path fill="url(#c)" d="M182 660c0-263.992 214.008-478 478-478s478 214.008 478 478-214.008 478-478 478-478-214.008-478-478"/><path fill="url(#d)" d="M896.412 597.005C633.086 598.152 419.392 806.997 410 1067.47c72.747 44.69 158.382 70.53 250.056 70.53C924.018 1138 1138 924.279 1138 660.639c0-.354-.03-.702-.03-1.057-71.38-40.129-153.789-62.959-241.558-62.577"/><path fill="url(#e)" d="M392.75 599.005c-75.441.33-146.797 17.848-210.427 48.791-.112 4.25-.323 8.485-.323 12.763 0 172.323 90.962 323.312 227.32 407.441 6.096-169.739 98.522-317.516 234.68-400.412-73.504-43.898-159.46-68.984-251.25-68.583"/><path stroke="#F3F4F6" stroke-linecap="round" stroke-linejoin="round" stroke-miterlimit="10" stroke-width="62" d="M409.921 1067.37c-136.711-84.116-227.91-235.076-227.91-407.366 0-4.278.212-8.511.323-12.762 63.796-30.936 135.338-48.451 210.974-48.782 92.03-.401 178.209 24.682 251.905 68.571C508.7 749.912 416.034 897.66 409.921 1067.37m0 0c9.395-260.816 223.11-469.936 486.461-471.085 87.778-.382 170.198 22.477 241.578 62.66.01.355.04.704.04 1.059C1138 923.991 923.991 1138 660.004 1138c-91.684 0-177.327-25.88-250.083-70.63M182 659.992C182 396.005 396.005 182 659.992 182s477.988 214.005 477.988 477.992-213.999 477.988-477.988 477.988S182 923.981 182 659.992"/></g><defs><linearGradient id="c" x1="209" x2="1111" y1="660" y2="660" gradientUnits="userSpaceOnUse"><stop stop-color="#111827"/><stop offset="1" stop-color="#374151"/></linearGradient><linearGradient id="d" x1="433.3" x2="1376.5" y1="1096.5" y2="1096.5" gradientUnits="userSpaceOnUse"><stop stop-color="#111827"/><stop offset="1" stop-color="#374151"/></linearGradient><linearGradient id="e" x1="-83.2" x2="860" y1="1099" y2="1099" gradientUnits="userSpaceOnUse"><stop stop-color="#111827"/><stop offset="1" stop-color="#374151"/></linearGradient><clipPath id="a"><path fill="#fff" d="M0 0h1320v1320H0z"/></clipPath></defs></svg>