<svg xmlns="http://www.w3.org/2000/svg" fill="none" viewBox="0 0 1280 1280"><g clip-path="url(#a)"><mask id="b" width="1280" height="1280" x="0" y="0" maskUnits="userSpaceOnUse" style="mask-type:luminance"><rect width="1280" height="1280" fill="#fff" rx="220"/></mask><g mask="url(#b)"><path fill="url(#c)" d="M-9.143-95.567H1420.4V1333.98H-9.143z"/><path fill="url(#d)" d="M156.804-1196.78H2868.48v2384.82H156.804z"/><path fill="url(#e)" d="M-580.434 29.992H1420.4V2030.83H-580.434z"/><g opacity=".329"><path fill="url(#f)" d="M-863.938 5307.19c0-2764.23 2240.858-5005.082 5005.078-5005.082 2764.24 0 5005.12 2240.852 5005.12 5005.082S6905.38 10312.3 4141.14 10312.3c-2764.22 0-5005.078-2240.88-5005.078-5005.11"/><path fill="url(#g)" d="M-1010.13 5307.19c0-2844.97 2306.3-5151.278 5151.27-5151.278 2844.98 0 5151.31 2306.308 5151.31 5151.278S6986.12 10458.5 4141.14 10458.5c-2844.97 0-5151.27-2306.34-5151.27-5151.31"/><path fill="url(#h)" d="M-1148.92 5307.19c0-2921.62 2368.44-5290.061 5290.07-5290.061 2921.62 0 5290.07 2368.441 5290.07 5290.061S7062.77 10597.3 4141.15 10597.3c-2921.63 0-5290.07-2368.49-5290.07-5290.11"/><path fill="url(#i)" d="M-1298.53 5307.19c0-3004.25 2435.43-5439.669 5439.68-5439.669 3004.24 0 5439.7 2435.419 5439.7 5439.669s-2435.46 5439.71-5439.7 5439.71c-3004.25 0-5439.68-2435.46-5439.68-5439.71"/><path fill="url(#j)" d="M-1457.42 5307.19c0-3092 2506.56-5598.56 5598.57-5598.56 3092 0 5598.59 2506.56 5598.59 5598.56S7233.15 10905.8 4141.15 10905.8c-3092.01 0-5598.57-2506.61-5598.57-5598.61"/><path fill="url(#k)" d="M-1608.25 5307.19c0-3175.3 2574.095-5749.393 5749.4-5749.393 3175.3 0 5749.37 2574.093 5749.37 5749.393S7316.45 11056.6 4141.15 11056.6c-3175.305 0-5749.4-2574.11-5749.4-5749.41"/><path fill="url(#l)" d="M-1745.36 5307.19c0-3251.03 2635.472-5886.509 5886.5-5886.509 3251.04 0 5886.56 2635.479 5886.56 5886.509S7392.18 11193.7 4141.14 11193.7c-3251.028 0-5886.5-2635.48-5886.5-5886.51"/><path fill="url(#m)" d="M-1917.31 5307.19c0-3345.99 2712.465-6058.452 6058.46-6058.452 3345.99 0 6058.45 2712.462 6058.45 6058.452S7487.14 11365.6 4141.15 11365.6c-3345.995 0-6058.46-2712.42-6058.46-6058.41"/><path fill="url(#n)" d="M-2080.53 5307.19c0-3436.14 2785.538-6221.672 6221.68-6221.672 3436.13 0 6221.65 2785.532 6221.65 6221.672S7577.28 11528.8 4141.15 11528.8c-3436.142 0-6221.68-2785.47-6221.68-6221.61"/><path fill="url(#o)" d="M-2256.49 5307.19c0-3533.31 2864.32-6397.63 6397.63-6397.63 3533.33 0 6397.66 2864.32 6397.66 6397.63 0 3533.29-2864.33 6397.71-6397.66 6397.71-3533.31 0-6397.63-2864.42-6397.63-6397.71"/><path fill="url(#p)" d="M-2443.36 5307.19c0-3636.52 2947.983-6584.5 6584.5-6584.5 3636.53 0 6584.56 2947.98 6584.56 6584.5 0 3636.48-2948.03 6584.51-6584.56 6584.51-3636.517 0-6584.5-2948.03-6584.5-6584.51"/><path fill="url(#q)" d="M-2620.76 5307.19c0-3734.49 3027.41-6761.9 6761.9-6761.9 3734.5 0 6761.86 3027.41 6761.86 6761.9 0 3734.47-3027.36 6761.91-6761.86 6761.91-3734.49 0-6761.9-3027.44-6761.9-6761.91"/></g></g><g clip-path="url(#r)"><path fill="url(#s)" d="M162 640c0-263.992 214.008-478 478-478s478 214.008 478 478-214.008 478-478 478-478-214.008-478-478"/><path fill="url(#t)" d="M876.412 577.005C613.086 578.152 399.392 786.997 390 1047.47c72.747 44.69 158.382 70.53 250.056 70.53C904.018 1118 1118 904.279 1118 640.639c0-.354-.03-.702-.03-1.057-71.38-40.129-153.789-62.959-241.558-62.577"/><path fill="url(#u)" d="M372.75 579.005c-75.441.33-146.797 17.848-210.427 48.791-.112 4.25-.323 8.485-.323 12.763 0 172.323 90.962 323.312 227.32 407.441 6.096-169.739 98.522-317.516 234.68-400.412-73.504-43.898-159.46-68.984-251.25-68.583"/><path stroke="#F3F2FF" stroke-linecap="round" stroke-linejoin="round" stroke-miterlimit="10" stroke-width="64" d="M388.875 1049.07c-137.283-84.463-228.864-236.055-228.864-409.066 0-4.296.213-8.547.324-12.815 64.063-31.066 135.905-48.654 211.857-48.986 92.415-.403 178.955 24.785 252.959 68.857-137.084 83.228-230.138 231.594-236.276 402.01m0 0c9.434-261.903 224.043-471.898 488.496-473.052 88.145-.383 170.909 22.571 242.589 62.923.01.356.04.707.04 1.063C1120 905.096 905.096 1120 640.004 1120c-92.068 0-178.069-25.98-251.129-70.93M160 639.992C160 374.9 374.9 160 639.992 160s479.988 214.9 479.988 479.992-214.894 479.988-479.988 479.988S160 905.086 160 639.992"/></g></g><defs><radialGradient id="c" cx="0" cy="0" r="1" gradientTransform="translate(813119 -346619)scale(2201500)" gradientUnits="userSpaceOnUse"><stop stop-color="#4F35E6"/><stop offset="1" stop-color="#2660FF"/></radialGradient><radialGradient id="d" cx="0" cy="0" r="1" gradientTransform="matrix(1355.84 0 0 1192.41 1512.64 -4.371)" gradientUnits="userSpaceOnUse"><stop stop-color="#00C9FF"/><stop offset="1" stop-color="#073AFF" stop-opacity="0"/></radialGradient><radialGradient id="e" cx="0" cy="0" r="1" gradientTransform="translate(419.987 1030.41)scale(1000.42)" gradientUnits="userSpaceOnUse"><stop stop-color="#7B00FF"/><stop offset="1" stop-color="#073AFF" stop-opacity="0"/></radialGradient><radialGradient id="f" cx="0" cy="0" r="1" gradientTransform="translate(4141.14 5307.19)scale(5005.08)" gradientUnits="userSpaceOnUse"><stop stop-color="#079FFF" stop-opacity="0"/><stop offset=".957" stop-color="#28A3FF" stop-opacity="0"/><stop offset="1" stop-color="#229BFF" stop-opacity=".576"/></radialGradient><radialGradient id="g" cx="0" cy="0" r="1" gradientTransform="translate(4141.14 5307.19)scale(5151.28)" gradientUnits="userSpaceOnUse"><stop stop-color="#079FFF" stop-opacity="0"/><stop offset=".957" stop-color="#28A3FF" stop-opacity="0"/><stop offset="1" stop-color="#229BFF" stop-opacity=".576"/></radialGradient><radialGradient id="h" cx="0" cy="0" r="1" gradientTransform="translate(4141.14 5307.19)scale(5290.06)" gradientUnits="userSpaceOnUse"><stop stop-color="#079FFF" stop-opacity="0"/><stop offset=".957" stop-color="#28A3FF" stop-opacity="0"/><stop offset="1" stop-color="#229BFF" stop-opacity=".576"/></radialGradient><radialGradient id="i" cx="0" cy="0" r="1" gradientTransform="translate(4141.15 5307.19)scale(5439.67)" gradientUnits="userSpaceOnUse"><stop stop-color="#079FFF" stop-opacity="0"/><stop offset=".957" stop-color="#28A3FF" stop-opacity="0"/><stop offset="1" stop-color="#229BFF" stop-opacity=".576"/></radialGradient><radialGradient id="j" cx="0" cy="0" r="1" gradientTransform="translate(4141.15 5307.19)scale(5598.56)" gradientUnits="userSpaceOnUse"><stop stop-color="#079FFF" stop-opacity="0"/><stop offset=".957" stop-color="#28A3FF" stop-opacity="0"/><stop offset="1" stop-color="#229BFF" stop-opacity=".576"/></radialGradient><radialGradient id="k" cx="0" cy="0" r="1" gradientTransform="translate(4141.14 5307.19)scale(5749.4)" gradientUnits="userSpaceOnUse"><stop stop-color="#079FFF" stop-opacity="0"/><stop offset=".957" stop-color="#28A3FF" stop-opacity="0"/><stop offset="1" stop-color="#229BFF" stop-opacity=".576"/></radialGradient><radialGradient id="l" cx="0" cy="0" r="1" gradientTransform="translate(4141.14 5307.19)scale(5886.51)" gradientUnits="userSpaceOnUse"><stop stop-color="#079FFF" stop-opacity="0"/><stop offset=".957" stop-color="#28A3FF" stop-opacity="0"/><stop offset="1" stop-color="#229BFF" stop-opacity=".576"/></radialGradient><radialGradient id="m" cx="0" cy="0" r="1" gradientTransform="translate(4141.15 5307.19)scale(6058.45)" gradientUnits="userSpaceOnUse"><stop stop-color="#079FFF" stop-opacity="0"/><stop offset=".957" stop-color="#28A3FF" stop-opacity="0"/><stop offset="1" stop-color="#229BFF" stop-opacity=".576"/></radialGradient><radialGradient id="n" cx="0" cy="0" r="1" gradientTransform="translate(4141.14 5307.19)scale(6221.67)" gradientUnits="userSpaceOnUse"><stop stop-color="#079FFF" stop-opacity="0"/><stop offset=".957" stop-color="#28A3FF" stop-opacity="0"/><stop offset="1" stop-color="#229BFF" stop-opacity=".576"/></radialGradient><radialGradient id="o" cx="0" cy="0" r="1" gradientTransform="translate(4141.14 5307.19)scale(6397.63)" gradientUnits="userSpaceOnUse"><stop stop-color="#079FFF" stop-opacity="0"/><stop offset=".957" stop-color="#28A3FF" stop-opacity="0"/><stop offset="1" stop-color="#229BFF" stop-opacity=".576"/></radialGradient><radialGradient id="p" cx="0" cy="0" r="1" gradientTransform="translate(4141.14 5307.19)scale(6584.51)" gradientUnits="userSpaceOnUse"><stop stop-color="#079FFF" stop-opacity="0"/><stop offset=".957" stop-color="#28A3FF" stop-opacity="0"/><stop offset="1" stop-color="#229BFF" stop-opacity=".576"/></radialGradient><radialGradient id="q" cx="0" cy="0" r="1" gradientTransform="translate(4141.14 5307.19)scale(6761.9)" gradientUnits="userSpaceOnUse"><stop stop-color="#079FFF" stop-opacity="0"/><stop offset=".957" stop-color="#28A3FF" stop-opacity="0"/><stop offset="1" stop-color="#229BFF" stop-opacity=".576"/></radialGradient><linearGradient id="s" x1="190" x2="1090" y1="640" y2="640" gradientUnits="userSpaceOnUse"><stop stop-color="#883DFF"/><stop offset="1" stop-color="#3068FF"/></linearGradient><linearGradient id="t" x1="412.3" x2="1357.5" y1="1076.5" y2="1076.5" gradientUnits="userSpaceOnUse"><stop stop-color="#883DFF"/><stop offset="1" stop-color="#3068FF"/></linearGradient><linearGradient id="u" x1="-104.2" x2="841" y1="1079" y2="1079" gradientUnits="userSpaceOnUse"><stop stop-color="#883DFF"/><stop offset="1" stop-color="#3068FF"/></linearGradient><clipPath id="a"><path fill="#fff" d="M0 0h1280v1280H0z"/></clipPath><clipPath id="r"><path fill="#fff" d="M128 128h1024v1024H128z"/></clipPath></defs></svg>