<svg xmlns="http://www.w3.org/2000/svg" fill="none" viewBox="0 0 1320 1320"><g clip-path="url(#a)"><mask id="b" width="1320" height="1320" x="0" y="0" maskUnits="userSpaceOnUse" style="mask-type:luminance"><rect width="1320" height="1320" fill="#fff" rx="220"/></mask><g mask="url(#b)"><path fill="url(#c)" d="M-9.429-98.554H1464.79V1375.67H-9.429z"/><path fill="url(#d)" d="M161.704-1234.18H2958.12v2459.34H161.704z"/><path fill="url(#e)" d="M-598.573 30.93H1464.79v2063.36H-598.573z"/><g opacity=".329"><path fill="url(#f)" d="M-890.936 5473.04c0-2850.61 2310.886-5161.49 5161.496-5161.49s5161.52 2310.88 5161.52 5161.49c0 2850.62-2310.91 5161.56-5161.52 5161.56S-890.936 8323.66-890.936 5473.04"/><path fill="url(#g)" d="M-1041.7 5473.04c0-2933.88 2378.38-5312.255 5312.26-5312.255 2933.87 0 5312.28 2378.375 5312.28 5312.255S7204.43 10785.3 4270.56 10785.3c-2933.88 0-5312.26-2378.38-5312.26-5312.26"/><path fill="url(#h)" d="M-1184.82 5473.04c0-3012.92 2442.45-5455.375 5455.38-5455.375 3012.92 0 5455.38 2442.455 5455.38 5455.375S7283.48 10928.4 4270.56 10928.4c-3012.93 0-5455.38-2442.44-5455.38-5455.36"/><path fill="url(#i)" d="M-1339.11 5473.04c0-3098.13 2511.54-5609.659 5609.67-5609.659S9880.25 2374.91 9880.25 5473.04 7368.69 11082.7 4270.56 11082.7s-5609.67-2511.53-5609.67-5609.66"/><path fill="url(#j)" d="M-1502.96 5473.04c0-3188.63 2584.89-5773.516 5773.52-5773.516 3188.62 0 5773.54 2584.886 5773.54 5773.516S7459.18 11246.6 4270.56 11246.6c-3188.63 0-5773.52-2584.93-5773.52-5773.56"/><path fill="url(#k)" d="M-1658.51 5473.04c0-3274.53 2654.538-5929.061 5929.07-5929.061 3274.52 0 5929.04 2654.531 5929.04 5929.061S7545.08 11402.1 4270.56 11402.1c-3274.532 0-5929.07-2654.53-5929.07-5929.06"/><path fill="url(#l)" d="M-1799.91 5473.04c0-3352.63 2717.838-6070.464 6070.47-6070.464 3352.62 0 6070.54 2717.834 6070.54 6070.464S7623.18 11543.5 4270.56 11543.5c-3352.632 0-6070.47-2717.83-6070.47-6070.46"/><path fill="url(#m)" d="M-1977.22 5473.04c0-3450.55 2797.223-6247.779 6247.78-6247.779 3450.55 0 6247.74 2797.229 6247.74 6247.779S7721.11 11720.8 4270.56 11720.8c-3450.557 0-6247.78-2797.21-6247.78-6247.76"/><path fill="url(#n)" d="M-2145.55 5473.04c0-3543.52 2872.589-6416.101 6416.11-6416.101 3543.51 0 6416.04 2872.581 6416.04 6416.101S7814.07 11889.1 4270.56 11889.1c-3543.521 0-6416.11-2872.54-6416.11-6416.06"/><path fill="url(#o)" d="M-2327 5473.04c0-3643.73 2953.824-6597.56 6597.56-6597.56 3643.73 0 6597.64 2953.83 6597.64 6597.56 0 3643.7-2953.91 6597.56-6597.64 6597.56C626.824 12070.6-2327 9116.74-2327 5473.04"/><path fill="url(#p)" d="M-2519.72 5473.04c0-3750.16 3040.112-6790.27 6790.28-6790.27 3750.16 0 6790.34 3040.11 6790.34 6790.27 0 3750.12-3040.18 6790.26-6790.34 6790.26-3750.168 0-6790.28-3040.14-6790.28-6790.26"/><path fill="url(#q)" d="M-2702.66 5473.04c0-3851.2 3122.018-6973.21 6973.22-6973.21 3851.19 0 6973.24 3122.01 6973.24 6973.21 0 3851.17-3122.05 6973.16-6973.24 6973.16-3851.202 0-6973.22-3121.99-6973.22-6973.16"/></g></g><path fill="url(#r)" d="M182 660c0-263.992 214.008-478 478-478s478 214.008 478 478-214.008 478-478 478-478-214.008-478-478"/><path fill="url(#s)" d="M896.412 597.005C633.086 598.152 419.392 806.997 410 1067.47c72.747 44.69 158.382 70.53 250.056 70.53C924.018 1138 1138 924.279 1138 660.639c0-.354-.03-.702-.03-1.057-71.38-40.129-153.789-62.959-241.558-62.577"/><path fill="url(#t)" d="M392.75 599.005c-75.441.33-146.797 17.848-210.427 48.791-.112 4.25-.323 8.485-.323 12.763 0 172.323 90.962 323.312 227.32 407.441 6.096-169.739 98.522-317.516 234.68-400.412-73.504-43.898-159.46-68.984-251.25-68.583"/><path stroke="#F3F2FF" stroke-linecap="round" stroke-linejoin="round" stroke-miterlimit="10" stroke-width="62" d="M409.921 1067.37c-136.711-84.116-227.91-235.076-227.91-407.366 0-4.278.212-8.511.323-12.762 63.796-30.936 135.338-48.451 210.974-48.782 92.03-.401 178.209 24.682 251.905 68.571C508.7 749.912 416.034 897.66 409.921 1067.37m0 0c9.395-260.816 223.11-469.936 486.461-471.085 87.778-.382 170.198 22.477 241.578 62.66.01.355.04.704.04 1.059C1138 923.991 923.991 1138 660.004 1138c-91.684 0-177.327-25.88-250.083-70.63M182 659.992C182 396.005 396.005 182 659.992 182s477.988 214.005 477.988 477.992-213.999 477.988-477.988 477.988S182 923.981 182 659.992"/></g><defs><radialGradient id="c" cx="0" cy="0" r="1" gradientTransform="translate(838529 -357451)scale(2270300)" gradientUnits="userSpaceOnUse"><stop stop-color="#4F35E6"/><stop offset="1" stop-color="#2660FF"/></radialGradient><radialGradient id="d" cx="0" cy="0" r="1" gradientTransform="matrix(1398.21 0 0 1229.68 1559.91 -4.508)" gradientUnits="userSpaceOnUse"><stop stop-color="#00C9FF"/><stop offset="1" stop-color="#073AFF" stop-opacity="0"/></radialGradient><radialGradient id="e" cx="0" cy="0" r="1" gradientTransform="translate(433.111 1062.61)scale(1031.68)" gradientUnits="userSpaceOnUse"><stop stop-color="#7B00FF"/><stop offset="1" stop-color="#073AFF" stop-opacity="0"/></radialGradient><radialGradient id="f" cx="0" cy="0" r="1" gradientTransform="translate(4270.56 5473.04)scale(5161.49)" gradientUnits="userSpaceOnUse"><stop stop-color="#079FFF" stop-opacity="0"/><stop offset=".957" stop-color="#28A3FF" stop-opacity="0"/><stop offset="1" stop-color="#229BFF" stop-opacity=".576"/></radialGradient><radialGradient id="g" cx="0" cy="0" r="1" gradientTransform="translate(4270.55 5473.04)scale(5312.25)" gradientUnits="userSpaceOnUse"><stop stop-color="#079FFF" stop-opacity="0"/><stop offset=".957" stop-color="#28A3FF" stop-opacity="0"/><stop offset="1" stop-color="#229BFF" stop-opacity=".576"/></radialGradient><radialGradient id="h" cx="0" cy="0" r="1" gradientTransform="translate(4270.56 5473.04)scale(5455.38)" gradientUnits="userSpaceOnUse"><stop stop-color="#079FFF" stop-opacity="0"/><stop offset=".957" stop-color="#28A3FF" stop-opacity="0"/><stop offset="1" stop-color="#229BFF" stop-opacity=".576"/></radialGradient><radialGradient id="i" cx="0" cy="0" r="1" gradientTransform="translate(4270.56 5473.04)scale(5609.66)" gradientUnits="userSpaceOnUse"><stop stop-color="#079FFF" stop-opacity="0"/><stop offset=".957" stop-color="#28A3FF" stop-opacity="0"/><stop offset="1" stop-color="#229BFF" stop-opacity=".576"/></radialGradient><radialGradient id="j" cx="0" cy="0" r="1" gradientTransform="translate(4270.56 5473.04)scale(5773.52)" gradientUnits="userSpaceOnUse"><stop stop-color="#079FFF" stop-opacity="0"/><stop offset=".957" stop-color="#28A3FF" stop-opacity="0"/><stop offset="1" stop-color="#229BFF" stop-opacity=".576"/></radialGradient><radialGradient id="k" cx="0" cy="0" r="1" gradientTransform="translate(4270.56 5473.04)scale(5929.07)" gradientUnits="userSpaceOnUse"><stop stop-color="#079FFF" stop-opacity="0"/><stop offset=".957" stop-color="#28A3FF" stop-opacity="0"/><stop offset="1" stop-color="#229BFF" stop-opacity=".576"/></radialGradient><radialGradient id="l" cx="0" cy="0" r="1" gradientTransform="translate(4270.56 5473.04)scale(6070.46)" gradientUnits="userSpaceOnUse"><stop stop-color="#079FFF" stop-opacity="0"/><stop offset=".957" stop-color="#28A3FF" stop-opacity="0"/><stop offset="1" stop-color="#229BFF" stop-opacity=".576"/></radialGradient><radialGradient id="m" cx="0" cy="0" r="1" gradientTransform="translate(4270.56 5473.04)scale(6247.78)" gradientUnits="userSpaceOnUse"><stop stop-color="#079FFF" stop-opacity="0"/><stop offset=".957" stop-color="#28A3FF" stop-opacity="0"/><stop offset="1" stop-color="#229BFF" stop-opacity=".576"/></radialGradient><radialGradient id="n" cx="0" cy="0" r="1" gradientTransform="translate(4270.56 5473.04)scale(6416.1)" gradientUnits="userSpaceOnUse"><stop stop-color="#079FFF" stop-opacity="0"/><stop offset=".957" stop-color="#28A3FF" stop-opacity="0"/><stop offset="1" stop-color="#229BFF" stop-opacity=".576"/></radialGradient><radialGradient id="o" cx="0" cy="0" r="1" gradientTransform="translate(4270.56 5473.04)scale(6597.56)" gradientUnits="userSpaceOnUse"><stop stop-color="#079FFF" stop-opacity="0"/><stop offset=".957" stop-color="#28A3FF" stop-opacity="0"/><stop offset="1" stop-color="#229BFF" stop-opacity=".576"/></radialGradient><radialGradient id="p" cx="0" cy="0" r="1" gradientTransform="translate(4270.55 5473.04)scale(6790.27)" gradientUnits="userSpaceOnUse"><stop stop-color="#079FFF" stop-opacity="0"/><stop offset=".957" stop-color="#28A3FF" stop-opacity="0"/><stop offset="1" stop-color="#229BFF" stop-opacity=".576"/></radialGradient><radialGradient id="q" cx="0" cy="0" r="1" gradientTransform="translate(4270.55 5473.04)scale(6973.21)" gradientUnits="userSpaceOnUse"><stop stop-color="#079FFF" stop-opacity="0"/><stop offset=".957" stop-color="#28A3FF" stop-opacity="0"/><stop offset="1" stop-color="#229BFF" stop-opacity=".576"/></radialGradient><linearGradient id="r" x1="209" x2="1111" y1="660" y2="660" gradientUnits="userSpaceOnUse"><stop stop-color="#883DFF"/><stop offset="1" stop-color="#3068FF"/></linearGradient><linearGradient id="s" x1="433.3" x2="1376.5" y1="1096.5" y2="1096.5" gradientUnits="userSpaceOnUse"><stop stop-color="#883DFF"/><stop offset="1" stop-color="#3068FF"/></linearGradient><linearGradient id="t" x1="-83.2" x2="860" y1="1099" y2="1099" gradientUnits="userSpaceOnUse"><stop stop-color="#883DFF"/><stop offset="1" stop-color="#3068FF"/></linearGradient><clipPath id="a"><path fill="#fff" d="M0 0h1320v1320H0z"/></clipPath></defs></svg>