<svg xmlns="http://www.w3.org/2000/svg" xmlns:xlink="http://www.w3.org/1999/xlink" xml:space="preserve" stroke-miterlimit="10" style="fill-rule:nonzero;clip-rule:evenodd;stroke-linecap:round;stroke-linejoin:round" viewBox="0 0 1450 1450"><defs><radialGradient id="b" cx="0" cy="0" r="1" gradientTransform="translate(921111 -392654)scale(2493890)" gradientUnits="userSpaceOnUse"><stop offset="0" stop-color="#4f35e6"/><stop offset="1" stop-color="#2660ff"/></radialGradient><radialGradient id="c" cx="0" cy="0" r="1" gradientTransform="matrix(1535.91 0 0 1350.78 1713.54 -4.953)" gradientUnits="userSpaceOnUse"><stop offset="0" stop-color="#00c9ff"/><stop offset="1" stop-color="#073aff" stop-opacity="0"/></radialGradient><radialGradient id="d" cx="0" cy="0" r="1" gradientTransform="translate(475.766 1167.26)scale(1133.29)" gradientUnits="userSpaceOnUse"><stop offset="0" stop-color="#7b00ff"/><stop offset="1" stop-color="#073aff" stop-opacity="0"/></radialGradient><radialGradient id="e" cx="0" cy="0" r="1" gradientTransform="translate(4691.14 6012.05)scale(5669.82)" gradientUnits="userSpaceOnUse"><stop offset="0" stop-color="#079fff" stop-opacity="0"/><stop offset=".957" stop-color="#28a3ff" stop-opacity="0"/><stop offset="1" stop-color="#229bff" stop-opacity=".576"/></radialGradient><radialGradient id="f" cx="0" cy="0" r="1" gradientTransform="translate(4691.14 6012.05)scale(5835.43)" gradientUnits="userSpaceOnUse"><stop offset="0" stop-color="#079fff" stop-opacity="0"/><stop offset=".957" stop-color="#28a3ff" stop-opacity="0"/><stop offset="1" stop-color="#229bff" stop-opacity=".576"/></radialGradient><radialGradient id="g" cx="0" cy="0" r="1" gradientTransform="translate(4691.14 6012.05)scale(5992.65)" gradientUnits="userSpaceOnUse"><stop offset="0" stop-color="#079fff" stop-opacity="0"/><stop offset=".957" stop-color="#28a3ff" stop-opacity="0"/><stop offset="1" stop-color="#229bff" stop-opacity=".576"/></radialGradient><radialGradient id="h" cx="0" cy="0" r="1" gradientTransform="translate(4691.14 6012.05)scale(6162.13)" gradientUnits="userSpaceOnUse"><stop offset="0" stop-color="#079fff" stop-opacity="0"/><stop offset=".957" stop-color="#28a3ff" stop-opacity="0"/><stop offset="1" stop-color="#229bff" stop-opacity=".576"/></radialGradient><radialGradient id="i" cx="0" cy="0" r="1" gradientTransform="translate(4691.14 6012.05)scale(6342.12)" gradientUnits="userSpaceOnUse"><stop offset="0" stop-color="#079fff" stop-opacity="0"/><stop offset=".957" stop-color="#28a3ff" stop-opacity="0"/><stop offset="1" stop-color="#229bff" stop-opacity=".576"/></radialGradient><radialGradient id="j" cx="0" cy="0" r="1" gradientTransform="translate(4691.14 6012.05)scale(6512.99)" gradientUnits="userSpaceOnUse"><stop offset="0" stop-color="#079fff" stop-opacity="0"/><stop offset=".957" stop-color="#28a3ff" stop-opacity="0"/><stop offset="1" stop-color="#229bff" stop-opacity=".576"/></radialGradient><radialGradient id="k" cx="0" cy="0" r="1" gradientTransform="translate(4691.14 6012.05)scale(6668.31)" gradientUnits="userSpaceOnUse"><stop offset="0" stop-color="#079fff" stop-opacity="0"/><stop offset=".957" stop-color="#28a3ff" stop-opacity="0"/><stop offset="1" stop-color="#229bff" stop-opacity=".576"/></radialGradient><radialGradient id="l" cx="0" cy="0" r="1" gradientTransform="translate(4691.14 6012.05)scale(6863.09)" gradientUnits="userSpaceOnUse"><stop offset="0" stop-color="#079fff" stop-opacity="0"/><stop offset=".957" stop-color="#28a3ff" stop-opacity="0"/><stop offset="1" stop-color="#229bff" stop-opacity=".576"/></radialGradient><radialGradient id="m" cx="0" cy="0" r="1" gradientTransform="translate(4691.14 6012.05)scale(7047.99)" gradientUnits="userSpaceOnUse"><stop offset="0" stop-color="#079fff" stop-opacity="0"/><stop offset=".957" stop-color="#28a3ff" stop-opacity="0"/><stop offset="1" stop-color="#229bff" stop-opacity=".576"/></radialGradient><radialGradient id="n" cx="0" cy="0" r="1" gradientTransform="translate(4691.14 6012.05)scale(7247.32)" gradientUnits="userSpaceOnUse"><stop offset="0" stop-color="#079fff" stop-opacity="0"/><stop offset=".957" stop-color="#28a3ff" stop-opacity="0"/><stop offset="1" stop-color="#229bff" stop-opacity=".576"/></radialGradient><radialGradient id="o" cx="0" cy="0" r="1" gradientTransform="translate(4691.14 6012.05)scale(7459.01)" gradientUnits="userSpaceOnUse"><stop offset="0" stop-color="#079fff" stop-opacity="0"/><stop offset=".957" stop-color="#28a3ff" stop-opacity="0"/><stop offset="1" stop-color="#229bff" stop-opacity=".576"/></radialGradient><radialGradient id="p" cx="0" cy="0" r="1" gradientTransform="translate(4691.14 6012.05)scale(7659.97)" gradientUnits="userSpaceOnUse"><stop offset="0" stop-color="#079fff" stop-opacity="0"/><stop offset=".957" stop-color="#28a3ff" stop-opacity="0"/><stop offset="1" stop-color="#229bff" stop-opacity=".576"/></radialGradient><linearGradient id="r" x1="0" x2="1" y1="0" y2="0" gradientTransform="translate(217 725)scale(1016)" gradientUnits="userSpaceOnUse"><stop offset="0" stop-color="#883dff"/><stop offset="1" stop-color="#3068ff"/></linearGradient><linearGradient id="t" x1="0" x2="1" y1="0" y2="0" gradientTransform="translate(205.278 885.568)scale(1039.44)" gradientUnits="userSpaceOnUse"><stop offset="0" stop-color="#883dff"/><stop offset="1" stop-color="#3068ff"/></linearGradient><linearGradient id="v" x1="0" x2="1" y1="0" y2="0" gradientTransform="translate(205.278 885.568)scale(1039.44)" gradientUnits="userSpaceOnUse"><stop offset="0" stop-color="#883dff"/><stop offset="1" stop-color="#3068ff"/></linearGradient><linearGradient id="x" x1="0" x2="1" y1="0" y2="0" gradientTransform="translate(204.145 658.383)scale(1039.44)" gradientUnits="userSpaceOnUse"><stop offset="0" stop-color="#883dff"/><stop offset="1" stop-color="#3068ff"/></linearGradient><linearGradient id="y" x1="0" x2="1" y1="0" y2="0" gradientTransform="translate(-75.892 1179.33)scale(1039.44)" gradientUnits="userSpaceOnUse"><stop offset="0" stop-color="#883dff"/><stop offset="1" stop-color="#3068ff"/></linearGradient><linearGradient id="z" x1="0" x2="1" y1="0" y2="0" gradientTransform="translate(458.786 1177)scale(1039.45)" gradientUnits="userSpaceOnUse"><stop offset="0" stop-color="#883dff"/><stop offset="1" stop-color="#3068ff"/></linearGradient><path id="q" d="M217 725c0-280.561 227.439-508 508-508 280.56 0 508 227.439 508 508 0 280.56-227.44 508-508 508s-508-227.44-508-508"/><path id="u" d="M721.62 138.699c-219.954.959-407.267 138.433-482.301 331.777-19.165 73.108-30.76 149.295-33.455 227.768.468 6.099.886 12.216 1.559 18.256-.64.326-1.247.708-1.886 1.039-.09 5.673-.259 11.325-.259 17.02 0 378.411 202.39 709.271 504.649 891.061 1.04-.62 2.15-1.13 3.184-1.75 5.095 3.03 10.387 5.71 15.592 8.57 308.567-180.26 516.017-514.73 516.017-897.881 0-1.24-.06-2.465-.07-3.702-1.93-1.155-3.76-2.444-5.71-3.574 2.25-17.003 3.43-34.322 4.03-51.777-3.53-62.834-12.57-124.172-26.77-183.526-69.66-206.189-264.981-354.281-494.58-353.281"/></defs><clipPath id="a" clip-rule="nonzero"><path d="M0 200C0 89.543 89.543 0 200 0h1050c110.46 0 200 89.543 200 200v1050c0 110.46-89.54 200-200 200H200c-110.457 0-200-89.54-200-200z"/></clipPath><g clip-path="url(#a)"><path fill="url(#b)" d="M-10.357-108.261H1609.05V1511.15H-10.357z"/><path fill="url(#c)" d="M177.63-1355.73h3071.82v2701.55H177.63z"/><path fill="url(#d)" d="M-657.523 33.975H1609.05V2300.55H-657.523z"/><g opacity=".329"><g opacity="1"><g opacity="1"><path fill="url(#e)" d="M-978.68 6012.05c0-3131.35 2538.47-5669.819 5669.82-5669.819C7822.5 342.231 10361 2880.7 10361 6012.05c0 3131.36-2538.5 5669.85-5669.86 5669.85-3131.35 0-5669.82-2538.49-5669.82-5669.85" opacity="1"/><path fill="url(#f)" d="M-1144.29 6012.05c0-3222.82 2612.61-5835.432 5835.43-5835.432S10526.6 2789.23 10526.6 6012.05 7913.96 11847.5 4691.14 11847.5s-5835.43-2612.63-5835.43-5835.45" opacity="1"/><path fill="url(#g)" d="M-1301.51 6012.05c0-3309.65 2683-5992.647 5992.65-5992.647S10683.8 2702.4 10683.8 6012.05 8000.79 12004.7 4691.14 12004.7s-5992.65-2683-5992.65-5992.65" opacity="1"/></g><g opacity="1"><path fill="url(#h)" d="M-1470.99 6012.05c0-3403.25 2758.88-6162.127 6162.13-6162.127S10853.3 2608.8 10853.3 6012.05 8094.39 12174.2 4691.14 12174.2s-6162.13-2758.9-6162.13-6162.15" opacity="1"/><path fill="url(#i)" d="M-1650.98 6012.05c0-3502.66 2839.46-6342.12 6342.12-6342.12s6342.16 2839.46 6342.16 6342.12-2839.5 6342.15-6342.16 6342.15-6342.12-2839.49-6342.12-6342.15" opacity="1"/><path fill="url(#j)" d="M-1821.85 6012.05c0-3597.02 2915.97-6512.985 6512.99-6512.985S11204.1 2415.03 11204.1 6012.05 8288.16 12525 4691.14 12525s-6512.99-2915.93-6512.99-6512.95" opacity="1"/></g></g><g opacity="1"><g opacity="1"><path fill="url(#k)" d="M-1977.17 6012.05c0-3682.81 2985.5-6668.313 6668.31-6668.313S11359.5 2329.24 11359.5 6012.05 8373.95 12680.4 4691.14 12680.4s-6668.31-2985.54-6668.31-6668.35" opacity="1"/><path fill="url(#l)" d="M-2171.95 6012.05c0-3790.38 3072.71-6863.092 6863.09-6863.092S11554.2 2221.67 11554.2 6012.05 8481.52 12875.1 4691.14 12875.1s-6863.09-3072.67-6863.09-6863.05" opacity="1"/><path fill="url(#m)" d="M-2356.85 6012.05c0-3892.5 3155.491-7047.99 7047.99-7047.99 3892.5 0 7047.96 3155.49 7047.96 7047.99S8583.64 13060 4691.14 13060c-3892.499 0-7047.99-3155.45-7047.99-7047.95" opacity="1"/></g><g opacity="1"><path fill="url(#n)" d="M-2556.18 6012.05c0-4002.58 3244.736-7247.32 7247.32-7247.32 4002.59 0 7247.36 3244.74 7247.36 7247.32 0 4002.55-3244.77 7247.35-7247.36 7247.35-4002.584 0-7247.32-3244.8-7247.32-7247.35" opacity="1"/><path fill="url(#o)" d="M-2767.87 6012.05c0-4119.5 3339.513-7459.01 7459.01-7459.01 4119.5 0 7459.06 3339.51 7459.06 7459.01 0 4119.45-3339.56 7459.05-7459.06 7459.05-4119.497 0-7459.01-3339.6-7459.01-7459.05" opacity="1"/><path fill="url(#p)" d="M-2968.83 6012.05c0-4230.48 3429.488-7659.97 7659.97-7659.97 4230.48 0 7659.96 3429.49 7659.96 7659.97 0 4230.45-3429.48 7659.95-7659.96 7659.95-4230.482 0-7659.97-3429.5-7659.97-7659.95" opacity="1"/></g></g></g></g><use xlink:href="#q" fill="url(#r)" stroke="#f3f2ff" stroke-linecap="butt" stroke-linejoin="miter" stroke-width="40"/><clipPath id="s" clip-rule="nonzero"><use xlink:href="#q"/></clipPath><g clip-path="url(#s)"><path fill="url(#t)" stroke="#f3f2ff" stroke-linecap="butt" stroke-linejoin="miter" stroke-width="40" d="M721.62 138.699c-219.954.959-407.267 138.433-482.301 331.777-19.165 73.108-30.76 149.295-33.455 227.768.468 6.099.886 12.216 1.559 18.256-.64.326-1.247.708-1.886 1.039-.09 5.673-.259 11.325-.259 17.02 0 378.411 202.39 709.271 504.649 891.061 1.04-.62 2.15-1.13 3.184-1.75 5.095 3.03 10.387 5.71 15.592 8.57 308.567-180.26 516.017-514.73 516.017-897.881 0-1.24-.06-2.465-.07-3.702-1.93-1.155-3.76-2.444-5.71-3.574 2.25-17.003 3.43-34.322 4.03-51.777-3.53-62.834-12.57-124.172-26.77-183.526-69.66-206.189-264.981-354.281-494.58-353.281Z" opacity=".332"/><use xlink:href="#u" fill="url(#v)" stroke="#f3f2ff" stroke-linecap="butt" stroke-linejoin="miter" stroke-width="40"/><clipPath id="w" clip-rule="nonzero"><use xlink:href="#u"/></clipPath><g stroke="#f3f2ff" stroke-linecap="butt" stroke-linejoin="miter" stroke-width="40" clip-path="url(#w)"><path fill="url(#x)" d="M204.15 660.647c-1.25-287.031 230.421-520.729 517.452-521.98 287.028-1.251 520.728 230.42 521.978 517.451S1013.16 1176.85 726.132 1178.1c-287.032 1.25-520.73-230.421-521.982-517.453Z"/><path fill="url(#y)" d="M-75.887 1181.59c-1.25-287.028 230.42-520.726 517.451-521.977s520.731 230.42 521.981 517.447c1.252 287.04-230.42 520.74-517.452 521.99-287.031 1.25-520.73-230.43-521.98-517.46Z"/><path fill="url(#z)" d="M458.791 1179.26c-1.25-287.028 230.421-520.726 517.452-521.977 287.027-1.251 520.737 230.42 521.987 517.447 1.25 287.04-230.42 520.73-517.456 521.98-287.033 1.26-520.731-230.42-521.983-517.45Z"/></g></g><path fill="none" stroke="#f3f2ff" stroke-linecap="butt" stroke-linejoin="miter" stroke-width="40" d="M217 725c0-280.561 227.439-508 508-508 280.56 0 508 227.439 508 508 0 280.56-227.44 508-508 508s-508-227.44-508-508Z"/></svg>