<svg xmlns="http://www.w3.org/2000/svg" xml:space="preserve" stroke-miterlimit="10" style="fill-rule:nonzero;clip-rule:evenodd;stroke-linecap:round;stroke-linejoin:round" viewBox="0 0 1450 1450"><defs><linearGradient id="c" x1="490.961" x2="1488.95" y1="875.063" y2="284.185" gradientTransform="scale(.75521)" gradientUnits="userSpaceOnUse"><stop offset="0" stop-color="#ffede5"/><stop offset="1" stop-color="#fffbe4"/></linearGradient><linearGradient id="g" x1="179" x2="845" y1="512" y2="512" gradientTransform="translate(-74.088 86.48)scale(1.56072)" gradientUnits="userSpaceOnUse"><stop offset="0" stop-color="#ffbd59"/><stop offset="1" stop-color="#ff6b11"/></linearGradient><linearGradient id="i" x1="178.274" x2="844.274" y1="366.436" y2="366.436" gradientTransform="translate(-74.088 86.48)scale(1.56072)" gradientUnits="userSpaceOnUse"><stop offset="0" stop-color="#ffbd59"/><stop offset="1" stop-color="#ff6b11"/></linearGradient><linearGradient id="j" x1="-1.154" x2="664.846" y1="700.221" y2="700.221" gradientTransform="translate(-74.088 86.48)scale(1.56072)" gradientUnits="userSpaceOnUse"><stop offset="0" stop-color="#ff1148"/><stop offset="1" stop-color="#ee3cff"/></linearGradient><linearGradient id="k" x1="341.43" x2="1007.43" y1="698.728" y2="698.728" gradientTransform="translate(-74.088 86.48)scale(1.56072)" gradientUnits="userSpaceOnUse"><stop offset="0" stop-color="#00d2ff"/><stop offset="1" stop-color="#2aff75"/></linearGradient><radialGradient id="d" cx="697.299" cy="1115.08" r="396.353" gradientTransform="translate(-1454.66 -1337.19)scale(2.20842)" gradientUnits="userSpaceOnUse"><stop offset="0" stop-color="#f1c5ff"/><stop offset="1" stop-color="#ffebf1" stop-opacity="0"/></radialGradient><radialGradient id="e" cx="1042.87" cy="838.569" r="440.015" gradientTransform="translate(-1197.58 -483.479)scale(2.30569)" gradientUnits="userSpaceOnUse"><stop offset="0" stop-color="#abedff"/><stop offset="1" stop-color="#ebffee" stop-opacity="0"/></radialGradient></defs><clipPath id="a"><path d="M0 0h1450v1450H0z"/></clipPath><g clip-path="url(#a)"><clipPath id="b" clip-rule="nonzero"><path d="M0 200C0 89.543 89.543 0 200 0h1050c110.46 0 200 89.543 200 200v1050c0 110.46-89.54 200-200 200H200c-110.457 0-200-89.54-200-200z"/></clipPath><g clip-path="url(#b)"><path fill="url(#c)" d="M0 0h1450v1450H0z"/><path fill="url(#d)" d="M-790.046 1125.37c0-483.425 391.892-875.316 875.315-875.316s875.314 391.891 875.314 875.316c0 483.42-391.891 875.31-875.314 875.31s-875.315-391.89-875.315-875.31"/><path fill="url(#e)" d="M192.426 1450c0-560.312 454.224-1014.538 1014.544-1014.538 560.31 0 1014.53 454.226 1014.53 1014.538 0 560.31-454.22 1014.54-1014.53 1014.54-560.32 0-1014.544-454.23-1014.544-1014.54"/></g><clipPath id="f" clip-rule="nonzero"><path d="M217.002 725.003c0-280.561 227.439-508 508-508 280.558 0 507.998 227.439 507.998 508C1233 1005.56 1005.56 1233 725.002 1233c-280.561 0-508-227.44-508-507.997"/></clipPath><g clip-path="url(#f)"><path fill="url(#g)" stroke="#310024" stroke-width="40" d="M721.623 138.702c-219.955.959-407.268 138.433-482.302 331.777-19.165 73.108-30.76 149.295-33.455 227.768.468 6.099.886 12.216 1.559 18.256-.64.326-1.247.708-1.886 1.039-.09 5.673-.259 11.325-.259 17.02 0 378.418 202.39 709.268 504.649 891.058 1.04-.62 2.15-1.13 3.184-1.75 5.095 3.03 10.387 5.71 15.592 8.57 308.565-180.26 516.025-514.74 516.025-897.878 0-1.24-.06-2.466-.07-3.703-1.93-1.154-3.76-2.444-5.71-3.573 2.25-17.003 3.43-34.322 4.03-51.777-3.53-62.834-12.57-124.172-26.77-183.526-69.67-206.189-264.983-354.281-494.587-353.281" opacity=".332"/><path fill="none" stroke="#310024" stroke-width="40" d="M721.623 138.702c-219.955.959-407.268 138.433-482.302 331.777-19.165 73.108-30.76 149.295-33.455 227.768.468 6.099.886 12.216 1.559 18.256-.64.326-1.247.708-1.886 1.039-.09 5.673-.259 11.325-.259 17.02 0 378.418 202.39 709.268 504.649 891.058 1.04-.62 2.15-1.13 3.184-1.75 5.095 3.03 10.387 5.71 15.592 8.57 308.565-180.26 516.025-514.74 516.025-897.878 0-1.24-.06-2.466-.07-3.703-1.93-1.154-3.76-2.444-5.71-3.573 2.25-17.003 3.43-34.322 4.03-51.777-3.53-62.834-12.57-124.172-26.77-183.526-69.67-206.189-264.983-354.281-494.587-353.281"/><clipPath id="h" clip-rule="nonzero"><path d="M721.623 138.702c-219.955.959-407.268 138.433-482.302 331.777-19.165 73.108-30.76 149.295-33.455 227.768.468 6.099.886 12.216 1.559 18.256-.64.326-1.247.708-1.886 1.039-.09 5.673-.259 11.325-.259 17.02 0 378.418 202.39 709.268 504.649 891.058 1.04-.62 2.15-1.13 3.184-1.75 5.095 3.03 10.387 5.71 15.592 8.57 308.565-180.26 516.025-514.74 516.025-897.878 0-1.24-.06-2.466-.07-3.703-1.93-1.154-3.76-2.444-5.71-3.573 2.25-17.003 3.43-34.322 4.03-51.777-3.53-62.834-12.57-124.172-26.77-183.526-69.67-206.189-264.983-354.281-494.587-353.281"/></clipPath><g stroke="#310024" stroke-width="40" clip-path="url(#h)"><path fill="url(#i)" d="M204.152 660.65c-1.25-287.031 230.421-520.729 517.453-521.98 287.035-1.251 520.725 230.42 521.975 517.451 1.25 287.036-230.42 520.729-517.446 521.979-287.032 1.25-520.73-230.422-521.982-517.45"/><path fill="url(#j)" d="M-75.885 1181.59c-1.25-287.027 230.42-520.723 517.451-521.974 287.031-1.25 520.742 230.417 521.991 517.444 1.25 287.04-230.43 520.74-517.462 521.99s-520.729-230.43-521.98-517.46"/><path fill="url(#k)" d="M458.793 1179.26c-1.25-287.027 230.421-520.723 517.444-521.974 287.033-1.251 520.743 230.417 522.003 517.454 1.24 287.03-230.43 520.73-517.473 521.98-287.023 1.26-520.722-230.43-521.974-517.46"/></g></g><path fill="none" stroke="#310024" stroke-width="40" d="M217.002 725.003c0-280.561 227.439-508 508-508 280.558 0 507.998 227.439 507.998 508C1233 1005.56 1005.56 1233 725.002 1233c-280.561 0-508-227.44-508-507.997"/></g></svg>