<svg xmlns="http://www.w3.org/2000/svg" fill="none" viewBox="0 0 1320 1320"><g clip-path="url(#a)"><mask id="b" width="1320" height="1320" x="0" y="0" maskUnits="userSpaceOnUse" style="mask-type:luminance"><rect width="1320" height="1320" fill="#fff" rx="220"/></mask><g mask="url(#b)"><path fill="url(#c)" d="M0 0h1320v1320H0z"/><path fill="url(#d)" d="M-719.214 1024.48c0-440.088 356.756-796.844 796.838-796.844s796.838 356.756 796.838 796.844c0 440.07-356.756 796.83-796.838 796.83s-796.838-356.76-796.838-796.83"/><path fill="url(#e)" d="M175.174 1320c0-510.077 413.5-923.579 923.586-923.579 510.07 0 923.57 413.502 923.57 923.579 0 510.08-413.5 923.58-923.57 923.58-510.086 0-923.586-413.5-923.586-923.58"/></g><path fill="url(#f)" d="M182 660c0-263.992 214.008-478 478-478s478 214.008 478 478-214.008 478-478 478-478-214.008-478-478"/><path fill="url(#g)" d="M896.412 597.005C633.086 598.152 419.392 806.997 410 1067.47c72.747 44.69 158.382 70.53 250.056 70.53C924.018 1138 1138 924.279 1138 660.639c0-.354-.03-.702-.03-1.057-71.38-40.129-153.789-62.959-241.558-62.577"/><path fill="url(#h)" d="M392.75 599.005c-75.441.33-146.797 17.848-210.427 48.791-.112 4.25-.323 8.485-.323 12.763 0 172.323 90.962 323.312 227.32 407.441 6.096-169.739 98.522-317.516 234.68-400.412-73.504-43.898-159.46-68.984-251.25-68.583"/><path stroke="#06396A" stroke-linecap="round" stroke-linejoin="round" stroke-miterlimit="10" stroke-width="62" d="M409.921 1067.37c-136.711-84.116-227.91-235.076-227.91-407.366 0-4.278.212-8.511.323-12.762 63.796-30.936 135.338-48.451 210.974-48.782 92.03-.401 178.209 24.682 251.905 68.571C508.7 749.912 416.034 897.66 409.921 1067.37m0 0c9.395-260.816 223.11-469.936 486.461-471.085 87.778-.382 170.198 22.477 241.578 62.66.01.355.04.704.04 1.059C1138 923.991 923.991 1138 660.004 1138c-91.684 0-177.327-25.88-250.083-70.63M182 659.992C182 396.005 396.005 182 659.992 182s477.988 214.005 477.988 477.992-213.999 477.988-477.988 477.988S182 923.981 182 659.992"/></g><defs><linearGradient id="c" x1="337.536" x2="1023.66" y1="601.607" y2="195.378" gradientUnits="userSpaceOnUse"><stop stop-color="#FFEDE5"/><stop offset="1" stop-color="#FFFBE4"/></linearGradient><linearGradient id="f" x1="209" x2="1111" y1="660" y2="660" gradientUnits="userSpaceOnUse"><stop stop-color="#FFBD59"/><stop offset="1" stop-color="#FF6B11"/></linearGradient><linearGradient id="g" x1="433.3" x2="1376.5" y1="1096.5" y2="1096.5" gradientUnits="userSpaceOnUse"><stop stop-color="#00D2FF"/><stop offset="1" stop-color="#2AFF75"/></linearGradient><linearGradient id="h" x1="-83.2" x2="860" y1="1099" y2="1099" gradientUnits="userSpaceOnUse"><stop stop-color="#FF1148"/><stop offset="1" stop-color="#EE3CFF"/></linearGradient><radialGradient id="d" cx="0" cy="0" r="1" gradientTransform="translate(77.624 1024.48)scale(796.837)" gradientUnits="userSpaceOnUse"><stop stop-color="#F1C5FF"/><stop offset="1" stop-color="#FFEBF1" stop-opacity="0"/></radialGradient><radialGradient id="e" cx="0" cy="0" r="1" gradientTransform="translate(1098.74 1320)scale(923.58)" gradientUnits="userSpaceOnUse"><stop stop-color="#ABEDFF"/><stop offset="1" stop-color="#EBFFEE" stop-opacity="0"/></radialGradient><clipPath id="a"><path fill="#fff" d="M0 0h1320v1320H0z"/></clipPath></defs></svg>