<svg xmlns="http://www.w3.org/2000/svg" xml:space="preserve" stroke-miterlimit="10" style="fill-rule:nonzero;clip-rule:evenodd;stroke-linecap:round;stroke-linejoin:round" viewBox="0 0 1250 1250"><defs><linearGradient id="c" x1="490.961" x2="1488.95" y1="875.063" y2="284.185" gradientTransform="scale(.65104)" gradientUnits="userSpaceOnUse"><stop offset="0" stop-color="#ffede5"/><stop offset="1" stop-color="#fffbe4"/></linearGradient><linearGradient id="g" x1="179" x2="845" y1="512" y2="512" gradientTransform="translate(-174.089 -13.52) scale(1.56072)" gradientUnits="userSpaceOnUse"><stop offset="0" stop-color="#ffbd59"/><stop offset="1" stop-color="#ff6b11"/></linearGradient><linearGradient id="i" x1="178.274" x2="844.274" y1="366.436" y2="366.436" gradientTransform="translate(-174.089 -13.52) scale(1.56072)" gradientUnits="userSpaceOnUse"><stop offset="0" stop-color="#ffbd59"/><stop offset="1" stop-color="#ff6b11"/></linearGradient><linearGradient id="j" x1="-1.154" x2="664.846" y1="700.221" y2="700.221" gradientTransform="translate(-174.089 -13.52) scale(1.56072)" gradientUnits="userSpaceOnUse"><stop offset="0" stop-color="#ff1148"/><stop offset="1" stop-color="#ee3cff"/></linearGradient><linearGradient id="k" x1="341.43" x2="1007.43" y1="698.728" y2="698.728" gradientTransform="translate(-174.089 -13.52) scale(1.56072)" gradientUnits="userSpaceOnUse"><stop offset="0" stop-color="#00d2ff"/><stop offset="1" stop-color="#2aff75"/></linearGradient><radialGradient id="d" cx="697.299" cy="1115.08" r="396.353" gradientTransform="translate(-1254.02 -1152.75) scale(1.90381)" gradientUnits="userSpaceOnUse"><stop offset="0" stop-color="#f1c5ff"/><stop offset="1" stop-color="#ffebf1" stop-opacity="0"/></radialGradient><radialGradient id="e" cx="1042.87" cy="838.569" r="440.015" gradientTransform="translate(-1032.4 -416.792) scale(1.98766)" gradientUnits="userSpaceOnUse"><stop offset="0" stop-color="#abedff"/><stop offset="1" stop-color="#ebffee" stop-opacity="0"/></radialGradient></defs><clipPath id="a"><path d="M0 0h1250v1250H0z"/></clipPath><g clip-path="url(#a)"><clipPath id="b" clip-rule="nonzero"><path d="M0 204.786C0 91.686 91.686 0 204.786 0h840.424C1158.31 0 1250 91.686 1250 204.786v840.424c0 113.1-91.69 204.79-204.79 204.79H204.786C91.686 1250 0 1158.31 0 1045.21V204.786Z"/></clipPath><g clip-path="url(#b)"><path fill="url(#c)" d="M0 0h1250v1250H0V0Z"/><path fill="url(#d)" d="M-681.074 970.145c0-416.744 337.838-754.582 754.582-754.582 416.744 0 754.581 337.838 754.581 754.582 0 416.745-337.837 754.575-754.581 754.575s-754.582-337.83-754.582-754.575Z"/><path fill="url(#e)" d="M165.884 1250c0-483.027 391.573-874.602 874.606-874.602 483.02 0 874.6 391.575 874.6 874.602 0 483.02-391.58 874.61-874.6 874.61-483.033 0-874.606-391.59-874.606-874.61Z"/></g><clipPath id="f" clip-rule="nonzero"><path d="M117.003 625.003c0-280.561 227.439-508 508-508 280.555 0 507.997 227.439 507.997 508C1133 905.558 905.557 1133 625.002 1133c-280.561 0-508-227.442-507.999-507.997Z"/></clipPath><g clip-path="url(#f)"><path fill="url(#g)" stroke="#310024" stroke-width="40" d="M621.623 38.702c-219.954.959-407.267 138.433-482.301 331.777-19.165 73.108-30.76 149.295-33.455 227.768.468 6.099.886 12.216 1.559 18.256-.64.326-1.247.708-1.886 1.039-.09 5.673-.259 11.325-.259 17.02 0 378.418 202.39 709.268 504.649 891.058 1.04-.62 2.15-1.13 3.184-1.75 5.095 3.03 10.387 5.71 15.592 8.57 308.561-180.26 516.024-514.74 516.024-897.878 0-1.24-.06-2.465-.07-3.702-1.93-1.155-3.76-2.444-5.71-3.574 2.25-17.003 3.43-34.322 4.03-51.777-3.53-62.834-12.57-124.172-26.77-183.526-69.67-206.189-264.983-354.281-494.587-353.281Z" opacity=".332"/><path fill="none" stroke="#310024" stroke-width="40" d="M621.623 38.702c-219.954.959-407.267 138.433-482.301 331.777-19.165 73.108-30.76 149.295-33.455 227.768.468 6.099.886 12.216 1.559 18.256-.64.326-1.247.708-1.886 1.039-.09 5.673-.259 11.325-.259 17.02 0 378.418 202.39 709.268 504.649 891.058 1.04-.62 2.15-1.13 3.184-1.75 5.095 3.03 10.387 5.71 15.592 8.57 308.561-180.26 516.024-514.74 516.024-897.878 0-1.24-.06-2.465-.07-3.702-1.93-1.155-3.76-2.444-5.71-3.574 2.25-17.003 3.43-34.322 4.03-51.777-3.53-62.834-12.57-124.172-26.77-183.526-69.67-206.189-264.983-354.281-494.587-353.281Z"/><clipPath id="h" clip-rule="nonzero"><path d="M621.623 38.702c-219.954.959-407.267 138.433-482.301 331.777-19.165 73.108-30.76 149.295-33.455 227.768.468 6.099.886 12.216 1.559 18.256-.64.326-1.247.708-1.886 1.039-.09 5.673-.259 11.325-.259 17.02 0 378.418 202.39 709.268 504.649 891.058 1.04-.62 2.15-1.13 3.184-1.75 5.095 3.03 10.387 5.71 15.592 8.57 308.561-180.26 516.024-514.74 516.024-897.878 0-1.24-.06-2.465-.07-3.702-1.93-1.155-3.76-2.444-5.71-3.574 2.25-17.003 3.43-34.322 4.03-51.777-3.53-62.834-12.57-124.172-26.77-183.526-69.67-206.189-264.983-354.281-494.587-353.281Z"/></clipPath><g stroke="#310024" stroke-width="40" clip-path="url(#h)"><path fill="url(#i)" d="M104.153 560.65c-1.25-287.031 230.421-520.73 517.452-521.98 287.033-1.252 520.725 230.42 521.975 517.451 1.25 287.037-230.422 520.729-517.445 521.979-287.032 1.25-520.73-230.422-521.982-517.45Z"/><path fill="url(#j)" d="M-175.884 1081.59c-1.251-287.027 230.42-520.723 517.451-521.974 287.031-1.25 520.741 230.417 521.991 517.444 1.25 287.04-230.43 520.74-517.462 521.99-287.031 1.25-520.729-230.43-521.98-517.46Z"/><path fill="url(#k)" d="M358.794 1079.26c-1.25-287.027 230.421-520.723 517.444-521.974 287.032-1.251 520.742 230.417 522.002 517.454 1.24 287.03-230.43 520.73-517.472 521.98-287.024 1.26-520.722-230.43-521.974-517.46Z"/></g></g><path fill="none" stroke="#310024" stroke-width="40" d="M117.003 625.003c0-280.561 227.439-508 508-508 280.555 0 507.997 227.439 507.997 508C1133 905.558 905.557 1133 625.002 1133c-280.561 0-508-227.442-507.999-507.997Z"/></g></svg>