<svg xmlns="http://www.w3.org/2000/svg" xml:space="preserve" stroke-miterlimit="10" style="fill-rule:nonzero;clip-rule:evenodd;stroke-linecap:round;stroke-linejoin:round" viewBox="0 0 1024 1024"><clipPath id="a"><path d="M0 0h1024v1024H0z"/></clipPath><g clip-path="url(#a)"><path fill="#face52" d="M326.833 640.182h39.016v23.712h-39.016v-23.712Zm-74.31-12.854h69.937v93.286h-69.937v-93.286Z"/><path fill="#face52" d="M213.27 678.275h104.572v31.664H213.27v-31.664Z"/><clipPath id="b" clip-rule="nonzero"><path d="M-62.692-110.618V1134.62H1252.98V-110.618H-62.692Zm768.603 304.792c49.782 0 90.176 40.341 90.176 90.123 0 49.783-40.394 90.124-90.176 90.124-49.783 0-90.124-40.341-90.124-90.124 0-49.782 40.341-90.123 90.124-90.123Zm0 410.556c55.567 0 100.657 48.322 100.657 107.946 0 59.625-45.09 107.999-100.657 107.999-55.567 0-100.604-48.374-100.604-107.999 0-59.624 45.037-107.946 100.604-107.946Z"/></clipPath><g clip-path="url(#b)"><g fill="#519acb"><path d="M480.95 325.195h77.052v77.246H480.95v-77.246Zm24.497-100.614h438.08v100.26h-438.08v-100.26Zm55.308 153.537h104.55v101.923h-104.55V378.118Z"/><path d="M463.428 398.946c-15.704-33.776-17.064-66.443-3.038-72.964 14.026-6.522 38.127 15.572 53.831 49.348 15.703 33.775 17.064 66.442 3.037 72.964-14.026 6.521-38.126-15.573-53.83-49.348Z"/></g><path fill="#519acb" d="m438.202 327.499 12.762 39.992c8.576-5.696 26.714-24.016 41.626-16.89 11.259 5.381 20.769 14.072 29.708 22.779 3.633 3.539 4.902 8.88 7.352 13.319l8.183-7.701c10.466 8.389 27.307.331 39.948 4.814 6.646 2.356 10.733 9.86 13.352 16.406 4.581 11.454-9.464 12.128-14.615 13.714.967 9.908 15.966 12.07 24.847 16.566l-4.813-13.476 5.776-.963c2.87 8.42 3.25 18.16 8.61 25.26 5.325 7.054 17.855 8.593 20.268 17.095l-4.858 1.783c17.718 11.051-6.615 16.879-14.394 18.432-1.123-2.888-.463-7.589-3.369-8.663-7.231-2.674-15.4-.749-23.1-1.123l-3.509-23.534-11.43-.296.067 4.964 10.326 3.18-14.228 4.776.574 11.39-12.962.312c3.896 13.695 6.167 8.743-2.051 16.214l5.294 8.663c-48.243 34.103-94.448 67.604-119.364 123.696-20.511 46.177-30.149 101.59-17.808 151.612 37.049 150.179 196.27 239.67 346.06 212.738 26.716-4.803 52.518-13.931 78.197-22.731 42.818-14.674 87.985-51.488 114.161-87.416 22.383-30.722 45.428-65.376 48.358-103.274 2.33-30.166 3.95-60.717.42-90.765-2.45-20.813-8.786-41.446-18.158-60.19-11.411-22.823-25.272-45.117-43.45-63.025-23.352-23.005-52.94-38.671-79.41-58.007 2.961-2.949 4.913-7.543 8.883-8.847 3.11-1.022 6.427 4.209 9.401 2.84 9.061-4.171 16.559-11.278 23.812-18.127 43.962-41.511 68.417-84.993 76.3-145.517.485-3.725-2.567-7.06-3.851-10.589l-1.24 6.799c-17.415-.589-33.598-9.453-50.741-12.575-9.634-1.754-19.774 1.034-29.36-.963-9.346-1.946-17.181-8.962-26.57-10.686-25.041-4.597-50.63-5.421-75.945-8.132-6.232-80.737-92.283-132.099-155.947-68.298-8.709 8.727-14.414 20.162-19.734 31.285-5.341 11.168-.908 29.703-12.032 35.135-26.556 12.968-58.769 7.126-87.62 13.528-28.388 6.3-55.817 16.33-83.726 24.496Z"/><path fill="#f9cf9d" d="M438.683 327.98c42.869-10.846 84.754-24.768 124.659-30.323 9.561-1.331 41.601 1.616 47.422-7.399 5.771-8.937 4.419-21.011 8.958-30.632 15.325-32.485 47.71-65.816 87.578-63.9 41.768 2.008 76.026 32.766 88.032 72.09 2.405 7.876-2.808 17.593 1.412 24.664 2.937 4.922 10.705 4.502 16.397 5.177 16.452 1.953 33.16.886 49.633 2.659 39.249 4.226 78.932 24.527 117.895 24.15-.818-22.935.46-46.041-2.455-68.805-2.949-23.036-22.704-63.92-32.597-81.899-39.763-72.267-124.921-118.747-205.635-123.978-66.403-4.304-139.115 5.782-196.375 42.247-5.793 3.69-7.801 11.495-12.994 15.991-6.272 5.431-15.195 7.452-20.966 13.412-4.377 4.521-4.296 12.135-8.394 16.911-12.583 14.665-30.014 25.039-41.149 40.831-30.283 42.949-34.809 99.975-21.421 148.804Z"/><path fill="#8ad2d1" d="M175.889 345.307c-1.283.642-3.835.49-3.85 1.925-1.128 104.767.297 209.546.445 314.32 17.447 1.259 35.336 7.881 52.339 3.777 8.254-1.992 7.929-16.446 15.561-20.167 10.216-4.981 22.527-4.667 33.868-3.932 23.837 1.546 23.026 28.495 23.889 43.88 9.953-7.741-4.254-27.304 9.859-28.747 12.214-1.25 24.671 1.102 36.828-.613 1.924-.271 1.086-4.62 2.99-5.001 8.296-1.66 25.208 5.734 25.233-2.726.157-53.936-5.049-107.767-6.083-161.693-1.018-53.129 10.324-108.671-5.775-159.313-14.147 1.23-40.539-4.444-53.414-8.239-22.152-6.528-42.865-17.383-64.988-24.008-5.03-1.507-10.62.944-15.751-.171-16.812-3.655-36.1-15.089-52.595-20.526-28.707-9.462-54.313 15.828-82.665-6.86l5.175-3.247-6.739-1.925 24.066-2.888c-10.722-4.334-21.999-7.489-32.165-13.001-14.83-8.04-6.975-25.37-6.34-38.499-12.79-4.63-21.23-24.218-35.8-13.561-4.281 3.131-10.858 5.95-11.263 11.238-3.812 49.723-2.251 99.748-1.068 149.603.212 8.926 7.875 17.51 15.794 21.634 45.424 23.66 87.902-49.763 132.449-31.26Z"/><path fill="#face52" d="M228.833 656.713c-.271 1.278-.194 7.745-3.85 7.701-17.665-.213-35.296-1.604-52.944-2.407 0 78.935.783 157.873 0 236.804-.276 27.799-5.065 47.636 14.117 71.797 22.907 28.853 62.913 21.823 94.177 21.095 17.99-.418 36.18.21 53.906-2.888 5.647-.986 10.237-5.366 14.601-9.083 8.704-7.415 22.591-12.834 24.385-24.127 7.401-46.588 1.926-94.332 1.926-141.504 0-55.194-1.284-110.38-1.926-165.57-21.888 6.254-44.825 1.658-67.193 6.629-8.465 1.881-1.399 17.528-4.521 25.618-2.673 6.925-8.668 12.375-14.646 16.774-3.91 2.877-25.433 2.156-27.228 1.997-45.937-4.056-20.837-12.48-30.804-42.836Z"/><path fill="#f9cf9d" d="M51.712 191.77c7.835 7.01 15.56 15.704 25.78 18.174.41 6.266-1.149 12.986 1.231 18.796 7.947 19.4 61.527 34.14 80.282 33.387-1.736 2.88-6.43 7.704.033 10.858 4.195 2.048 9.574.177 13.856 2.038 1.753.762.828 4.391 2.598 5.112 12.425 5.062 7.111-3.81 16.28 2.121 14.818 9.583 31.374 13.525 48.909 13.056l.845 4.582c15.349 2.343 23.332 7.232 36.271 7.089l-2.758 3.188c15.151 1.73 81.561 16.631 84.71 22.141 6.093-22.849 1.773-47.266 2.109-70.911.041-2.905 4.868-4.166 5.11-7.061 2.629-31.463-4.815-68.278-5.294-98.187-.295-18.459 2.221-36.891 1.925-55.35-.218-13.665-8.299-32.574-21.424-39.991-37.859-21.396-84.388-13.202-125.528-6.684-3.884.615-9.089 1.1-10.859 4.61-2.702 5.36.832 12.156-.539 18-5.417 23.093-17.305 40.001-33.21 57.756-31.293 34.931-77.09 45.732-120.327 57.276Z"/><path fill="#519acb" d="M537.833 377.073c-15.999 11.555-2.975 27.54-16.737 41.934-15.752 16.474-16.169 8.815-36.454-1.403-1.017-.512-2.374-.147-3.397.353-9.655 4.717 13.477 25.958 17.714 29.244 17.518 13.584 34.974 26.264 53.313 39.129 8.557-6.061 5.307-1.677 6.738-14.92l6.329-.294c2.223-8.238 7.243-24.495 19.662-14.146-7.995 19.949 10.893 13.687 23.584 13.958 2.555 13.153 5.32 6.047 15.402 8.664 4.32-6.912 9.962-2.308 16.846-5.295-3.644-3.053-8.592 1.095-11.071-2.406-3.382-4.777 6.155-10.359.963-19.252-5.316-9.106-12.607-4.606-18.315-11.241-2.733-3.176-.875-8.433-2.381-12.344-2.792-7.251-8.727-3.675-5.295-12.514-5.884-2.295-2.689-2.005-9.626 0l6.257 11.552c-9.384-2.142-15.34-8.632-24.375-11.678 7.619-.65 3.002.417 12.824-6.131-1.508-3.477-1.521-14.953-.773-19.315-4.19-2.387-6.995-6.832-11.26-9.082-12.529-6.607-27.656 6.114-39.948-4.813Z"/><path fill="#fba399" d="M793.143 850.849c.355 7.528-3.767 11.562-3.21 19.278 2.171 30.088 30.327 35.577 53.438 23.329 10.309-5.463 18.324-19.839 29.418-20.912.107-14.398 6.465-16.694 5.328-35.341-.319-5.245-5.859-8.888-9.842-12.316-17.185-14.788-44.747-.239-58.756 11.768-5.484 4.702-9.577 11.753-16.376 14.194Z"/><path fill="#face52" d="m752.496 145.564-4.332-1.925c4.185-1.675 9.898-3.893 12.033 1.444 11.935-14.516 17.066-36.885-2.888-49.093-8.533-5.221-71.379 10.623-82.653 19.258-7.094 5.433-9.733 44.175 6.606 44.755 22.051.784 51.76-2.859 71.234-14.439Z"/><path fill="#fba399" d="m893.038 252.896 1.526 4.288c51.87-28.306-26.761-88.736-60.008-68.837-6.591 3.945-6.435 9.391-9.86 16.518-14.19 29.53 47.942 49.627 68.342 48.031Z"/><path fill="#face52" d="M503.178 763.082c-37.322 10.664 23.406 82.911 48.613 80.86 16.059-1.307 23.854-24.832 14.92-36.58-19.139-25.166-32.531-53.138-63.533-44.28Zm115.033-204.074 1.925 2.406c17.009-24.273-5.968-39.956-28.196-36.625-6.72 1.007-34.051 30.94-39.668 37.588-15.048 17.81 6.245 40.79 25.509 36.579 15.773-3.448 30.531-26.413 40.43-39.948Z"/><path fill="#fba399" d="m496.44 240.382 1.925-2.888c23.837 30.3 43.523-3.437 63.2-24.117 8.552-8.987 16.297-23.713 4.685-34.263-24.071-21.869-53.635 21.263-65.959 33.352-6.024 5.908-9.327 21.071-3.851 27.916Z"/><path fill="#face52" d="M318.356 546.012c9.372-1.805 7.801-11.609 9.606-21.54 5.504-30.293-43.689-38.429-63.128-35.583-26.099 3.822-11.607 40.538 5.422 48.274a236.334 236.334 0 0 0 18.259 7.405c11.289 4.032 18.907 3.55 29.841 1.444Z"/><path fill="#71c6f3" d="m238.459 645.162 2.888 1.925c-25.983 37.386 1.384 52.546 38.797 53.081 1.68.024 3.421-.051 5.002-.619 18.86-6.769 18.982-40.492 5.035-52.216-12.745-10.714-37.636-7.506-51.722-2.171Z"/><path fill="#fba399" d="m510.879 361.19-3.369.963c-5.306-22.919-54.043-18.406-45.535 21.022 3.52 16.308 23.508 24.262 37.914 32.677 13.483 7.875 25.279-3.146 30.364-14.479 9.404-20.956-16.266-25.959-19.374-40.183Z"/><path fill="#519acb" d="M773.192 430.017c2.826 8.191-1.748 16.643.481 24.547 1.556 5.515 10.407.613 12.996 5.294 2.416 4.369-.241 7.849.45 12.564.931 6.359 8.063 3.432 11.582 5.726 6.844 4.46-.282 8.439 10.589 4.332l-2.406-2.407c5.416-4.288 11.292-9.11 18.14-10.02-2.236-5.14 3.608-13.609 6.888-18.377-16.244-7.92 8.535-31.566-30.969-29.021l-1.571 6.201-26.18 1.161Z"/><path fill="#8ad2d1" d="M937.799 692.811c-11.813 3.456-36.304 20.596-39.467 32.248-3.564 13.131 5.382 35.419 22.399 27.5 16.955-7.89 53.326-33.867 34.354-54.739-4.763-5.24-10.922-6.871-17.286-5.009Z"/><path fill="#fba399" d="M826.136 559.489c-7.418.74-40.474 31.664-41.392 38.505-1.832 13.636-1.176 30.37 17.808 25.99 15.405-3.554 69.58-69.083 23.584-64.495Z"/><path fill="#face52" d="M748.164 462.265c-1.463-4.495-7.578-4.485-11.551-7.22l4.332-1.925c-13.865-10.246-41.321-3.826-33.499 17.373 4.774 12.941 19.989 17.851 30.611 24.019 7.049 4.094 7.193 6.408 15.534 6.408 27.722 0 16.765-45.515-5.427-38.655Z"/><path fill="#71c6f3" d="m263.487 793.886 1.925-1.925c31.711 27.852 66.226.578 22.473-33.284-28.411-21.988-48.518 15.784-24.398 35.209Z"/><path fill="#eb8423" d="M238.708 935.915c3.053 13.389 54.311 9.749 56.834-14.664.778-7.525-14.173-2.85-20.021-6.868-17.15-11.782-22.907-15.445-32.505-30.078-25.688 14.561 6.262 49.522-4.308 51.61Z"/><path fill="#386f8a" d="M489.702 647.087c-12.665 16.043-18.279 43.748 1.444 57.276 5.246 3.598 30.558 23.21 38.986 11.551 3.533-4.888 5.418-10.8 8.663-15.883-4.171-3.338-6.794.555-10.84-1.897-20.993-12.722-28.089-31.661-38.253-51.047Zm150.649 215.626c-8.673 13.608-15.983 26.409-10.038 42.54 5.003 13.58 36.775 26.816 49.254 15.045 5.916-5.58 6.983-12.656 10.359-21.006-11.901-7.647-34.768-7.145-44.522-18.67-4.444-5.252-2.156-12.032-5.053-17.909Z"/><path fill="#71c6f3" d="M269.263 186.475c-1.473 7.282.875 15.008 8.04 19.777 30.463 20.274 78.245-68.05 25.726-50.929-5.71 1.861-9.851 9.938-14.49 13.868-6.585 5.578-17.566 8.825-19.276 17.284Z"/><path fill="#386b68" d="M250.973 495.956c-2.706 6.465 2.704 21.468-6.998 22.463-2.2 8.986.2 26.172 1.223 30.962 5.942 27.836 42.285 12.514 59.682 12.514l-.963-2.887c6.743-1.686 9.75-8.101 14.921-13.477-18.932-4.906-52.258 1.611-64.328-21.673-4.24-8.178-1.108-18.786-3.537-27.902Z"/><path fill="#8ad2d1" d="M846.136 354.416c9.206-2.75 29.839 24.956 38.238 28.914 4.393 2.07 10.399-.768 14.439 1.925 14.121-24.535-9.586-32.374-25.509-45.724l1.925-1.925c-15.662-13.759-38.454-5.725-29.093 16.81Z"/><path fill="#fba399" d="M495.478 640.349c-11.424 3.709-1.929 22.804 4.105 29.62 8.358 9.441 16.789 18.836 25.706 27.751 1.011 1.011 2.502 1.449 3.88 1.829 11.485 3.173 21.06-13.252 13.958-22.14-6.333-7.924-13.005-15.574-19.692-23.202-11.214-12.791-13.465-18.564-27.957-13.858Z"/><path fill="#386f8a" d="M702.44 462.746c-1.583 12.057-4.961 27.833-4.16 39.31 1.18 16.91 45.836 21.636 54.796 13.035 4.561-4.379 10.847-13.865 13.489-20.388-19.393 11.868-30.353-3.211-49.205-13.186-2.835-1.5-9.84 1.974-13.644 1.821.141-7.714 1.238-13.682-1.276-20.592Z"/><path fill="#fba399" d="M252.898 872.82c-29.58 11.519 23.129 48.793 40.43 45.725 25.84-4.584-8.42-32.314-10.72-34.318-9.033-7.871-18.774-15.665-29.71-11.407Z"/><path fill="#0c486f" d="M492.59 773.671c-6.11 4.523-3.797 7.335-4.367 15.506-1.92 27.501 16.938 53.018 41.082 66.357 11.362 6.277 32.149-4.147 29.705-17.368-22.403 16.774-53.969-26.607-63.53-42.384-5.195-8.572.27-13.856-2.89-22.111Z"/><path fill="#f2ba37" d="M675.005 866.563c-1.42-1.065-43.427-20.582-32.828 11.234 2.126 6.384 13.276 8.144 17.427 9.944 7.732 3.352 19.103 11.588 28.834 9.917 12.047-2.068 13.601-18.343 4.292-24.769-6.744-4.655-12.142-2.141-17.725-6.326Z"/><path fill="#0c486f" d="M790.038 855.012c-13.215 22.018-6.034 57.433 20.696 61.126 1.566.216 12.945 4.084 16.577 1.451 7.662-5.556 15.427-15.312 22.89-21.185 7.783-6.124 19.518-11.49 20.697-24.546-15.056 7.965-62.201 51.925-77.491 11.07-3.886-10.383-.847-18.459-3.369-27.916Z"/><path fill="#bd7329" d="M255.305 757.788c-7.62 6.735-5.59 19.748-6.023 29.909-.533 12.511 6.934 17.546 14.205 26.404-10.353 3.033-10.848 7.454 1.444 14.92 16.26 9.877 31.699-19.822 38.023-27.434-13.695-.574-26.733.219-37.542-10.589l-1.925 1.925c-7.884-11.703-3.379-23.127-8.182-35.135Z"/><path fill="#fba399" d="M908.44 609.545c-9.311 2.497-14.888 12.503-21.981 19.038-8.429 7.766-12.224 36.081 7.541 29.574 15.292-5.034 51.585-58.574 14.44-48.612Z"/><path fill="#b2533c" d="M670.192 119.574c-7.568 10.646-4.652 18.271-3.85 29.359 2.28 31.528 8.214 23.114 44.28 21.178 12.227-.656 4.115 1.986 11.552-.963l-5.485-1.423c1.699-5.475 31.752-4.947 41.428-17.528 8.157-10.607-7.305-10.355-13.322-5.595l1.925 1.925c-6.674 2.601-12.524 2.108-19.14 4.169-.319 7.315-45.721 13.836-53.528 1.814-6.993-10.77 1.443-23.325-3.86-32.936Z"/><path fill="#519acb" d="M724.58 584.998c18.524 9.907 35.146 17.653 52.944 29.36 2.033-3.802 1.076-7.19 3.85-10.589 2.086 5.402-.663 10.245 1.926 15.402 1.892-14.838 1.235-7.299 1.925-22.621-5.173-1.478-7.143-8.115-9.972-12.692-10.095-16.333-20.047-12.598-37.196-9.93-10.65 1.657-11.315-.54-13.477 11.07Z"/><path fill="#386f8a" d="M285.146 423.76c-3.298-2.305-8.165.147-12.033-.963-9.851-2.824-22.705-14.651-23.364-25.472l-2.626.444c-1.887-4.252-.098-7.684-2.888-11.551-12.552 9.866-6.21 36.664-4.332 50.537.816 6.025 15.143 4.316 15.402 4.332 14.714.916 24.623-1.062 29.841-17.327Z"/><path fill="#8ad2d1" d="M77.702 210.059c-5.715 6.658-5.031 17.11-4.799 25.881.405 15.29 30.79 10.393 30.79 21.288 5.938 1.26 2.851.25 9.145 3.369l-6.257 1.925c10.048 4.236 48.347 13.507 54.881.908-16.541-1.574-74.177-19.601-81.507-35.326-2.927-6.278 1.076-11.847-2.253-18.045Z"/><path fill="#a53a2c" d="M823.248 209.097c-7.102 4.112-1.45 15.26-.481 21.177 4.787 29.227 65.327 47.569 72.531 23.688-24.024-6.677-69.499-8.413-72.05-44.865Z"/><path fill="#386f8a" d="M892.075 392.956c.341-.442 6.385-6.835 5.776-9.626-.806-3.692-13.947-.11-18.705-4.593-2.594-2.445-31.919-22.013-32.114-23.036-1.04-5.455-.367-11.206-1.858-16.555-9.409 2.523-7.751 24.659-2.945 31.499 8.885 12.644 31.529 25.878 49.846 22.311Z"/><path fill="#519acb" d="M463.23 358.302c-7.114 9.668-2.504 7.285-12.951 8.641 9.073 17.409 15.884 29.291 27.936 44.871.637.823 1.417 1.761 1.379 2.801-.422 11.683-3.678 2.889 0 10.589.009-.065-.41-8.673 3.768-6.959 20.336 8.339 32.976 23.848 44.99-11.587-21.044 20.398-36.898 2.817-56.455-12.98-2.493-2.014-6.132-5.063-7.833-8.035-5.131-8.969 2.258-19.089-.834-27.341Z"/><path fill="#2f526b" d="M619.174 557.082c-8.066 9.523-49.844 65.136-67.383 31.285-4.068-7.85-.227-16.629-3.851-24.546-3.213 6.049-3.013 14.179-2.865 20.973 1.236 56.886 33.263 20.444 57.256-4.089 8.624-8.819 17.23-12.359 16.843-23.623Z"/><path fill="#8ad2d1" d="M88.772 263.003c13.969 17.642 47.599 22.285 68.827 9.626l-1.443-4.813c-17.292 2.518-55.38-18.531-67.384-4.813Z"/><path fill="#a53a2c" d="M494.515 221.611c-21.323 14.584 1.601 65.28 27.378 28.213-17.436-2.296-24.471-11.738-27.378-28.213Z"/><path fill="#2f526b" d="M921.916 629.76c-17.343 19.634-30.221 43.519-46.687 10.589-2.723 7.422-.662 7.065 0 14.92 3.24 38.438 50.002-17.39 46.687-25.509Z"/><path fill="#0c486f" d="M950.313 726.021c-20.025 20.539-46.455 45.656-52.943 1.926-7.404 4.162-5.439 23.357-.482 28.878 4.52 5.034 13.53-.191 20.292-.388 1.743-.051 3.818 1.428 5.218.388 9.745-7.243 18.327-15.95 27.065-24.381 3.361-3.243 2.347-3.459.85-6.423Z"/><path fill="#534956" d="M269.744 185.994c-18.057 26.134 1.25 43.173 27.435 21.178-4.835-2.02-8.797 3-12.996 1.444-12.728-4.719-7.991-13.043-14.439-22.622Z"/><path fill="#386f8a" d="M239.422 645.162c-11.728 11.93-17.585 28.959-8.351 45.731 9.337-2.011.895-19.674 2.094-28.404.787-5.732 6.288-10.458 8.429-15.935l-2.172-1.392Z"/><path fill="#519acb" d="M874.748 505.101c1.268-7.441 4.432-9.855 10.589-14.439-11.916-9.069-29.016 7.34-10.589 14.439Z"/><path fill="#386f8a" d="M705.328 456.97c-4.448 9.356-3.806 19.022-1.444 28.879 5.899-3.142 8.685.004 11.871-6.757-11.054-10.885-4.956-9.752-10.427-22.122Z"/><path fill="#1b5d8b" d="M897.37 757.306c.891.892 2.373 4 3.369 4.332 7.859 2.62 16.391.725 21.659-5.294-1.915-1.277-24.164.098-25.028.962Z"/><path fill="#534956" d="M236.053 684.629c-2.621 3.971-1.181 1.489-3.851 7.701 5.417 4.936 9.729 8.28 17.274 6.353.081-2.575-11.009-11.216-13.423-14.054Z"/><path fill="#386f8a" d="M848.757 351.083c-6.086 6.086 13.824 20.831 18.29 16.364-5.82-5.82-12.696-10.771-18.29-16.364Z"/><path fill="#4b462c" d="M247.924 500.84c-2.005 6.151-4.059 10.386-3.406 16.935 9.178 1.063 10.383-14.676 3.406-16.935Z"/><path fill="#a53a2c" d="M686.84 164.926c8.331.068 11.05 5.552 18.855 2.723l-1.793-4.283-17.062 1.56Z"/></g><path fill="#8ad2d1" d="m55.55 194.161 267.848 161.708-29.249 48.446L26.302 242.607l29.248-48.446Z"/><path fill="#f9cf9d" d="M57.065 192.471v10.056c76.336 53.545 169.166 97.204 274.892 129.865h28.569v-69.96h-151.73v-69.961H57.065Z"/><path fill="#face52" d="M296.038 408.439c5.504-30.292-21.409-31.885-40.848-29.039-26.099 3.821-12.297 38.336 4.732 46.072a236.334 236.334 0 0 0 18.259 7.405c11.289 4.033 16.053-14.507 17.857-24.438Z"/></g></svg>