<svg xmlns="http://www.w3.org/2000/svg" xml:space="preserve" stroke-miterlimit="10" style="fill-rule:nonzero;clip-rule:evenodd;stroke-linecap:round;stroke-linejoin:round" viewBox="0 0 1024 1024"><defs><filter id="b" width="1120.53" height="1120.53" x="-48.267" y="-33.267" color-interpolation-filters="sRGB" filterUnits="userSpaceOnUse"><feDropShadow dx="0" dy="15" flood-color="#000" flood-opacity=".333" in="SourceGraphic" result="Shadow" stdDeviation="40"/></filter></defs><clipPath id="a"><path d="M0 0h1024v1024H0z"/></clipPath><g clip-path="url(#a)" filter="url(#b)"><clipPath id="c" clip-rule="nonzero"><path d="M51.733 51.733h920.534v920.534H51.733z"/></clipPath><g clip-path="url(#c)"><path fill="#face52" d="M345.542 627.23h35.074v21.316h-35.074zm-66.801-11.555h62.87v83.86h-62.87z"/><path fill="#face52" d="M243.454 661.474h94.006v28.465h-94.006z"/><clipPath id="d" clip-rule="nonzero"><path d="M-4.625-47.708V1071.71H1178.11V-47.708zm690.943 273.995c44.752 0 81.065 36.265 81.065 81.017 0 44.753-36.313 81.018-81.065 81.018-44.753 0-81.018-36.265-81.018-81.018s36.265-81.017 81.018-81.017m0 369.073c49.952 0 90.487 43.44 90.487 97.039 0 53.601-40.535 97.087-90.487 97.087S595.879 746 595.879 692.399c0-53.599 40.487-97.039 90.439-97.039"/></clipPath><g clip-path="url(#d)"><g fill="#519acb"><path d="M484.087 344.07h69.267v69.441h-69.267zm22.022-90.448h393.816v90.13H506.109zm49.72 138.024h93.986v91.624h-93.986z"/><path d="M468.336 410.369c-14.117-30.363-15.34-59.729-2.731-65.592s34.274 13.999 48.392 44.362c14.116 30.363 15.339 59.729 2.73 65.592s-34.274-14-48.391-44.362"/></g><path fill="#519acb" d="m445.659 346.141 11.472 35.951c7.71-5.12 24.015-21.589 37.42-15.183 10.122 4.837 18.671 12.65 26.706 20.477 3.266 3.182 4.407 7.983 6.61 11.974l7.356-6.923c9.408 7.541 24.548.297 35.911 4.327 5.975 2.118 9.649 8.864 12.003 14.749 4.118 10.296-8.507 10.902-13.138 12.328.869 8.907 14.353 10.85 22.336 14.892l-4.326-12.114 5.192-.866c2.58 7.569 2.922 16.325 7.74 22.708 4.787 6.341 16.051 7.724 18.22 15.367l-4.367 1.603c15.928 9.935-5.946 15.174-12.939 16.57-1.01-2.596-.417-6.822-3.029-7.788-6.5-2.404-13.844-.673-20.766-1.009l-3.154-21.156-10.276-.267.061 4.463 9.282 2.859-12.79 4.293.516 10.239-11.652.281c3.502 12.311 5.544 7.859-1.844 14.575l4.759 7.788c-43.369 30.657-84.905 60.773-107.303 111.198-18.439 41.511-27.103 91.325-16.009 136.293 33.305 135.004 176.439 215.453 311.094 191.242 24.016-4.317 47.211-12.523 70.296-20.434 38.491-13.191 79.094-46.286 102.626-78.583 20.121-27.618 40.838-58.771 43.471-92.839 2.095-27.118 3.551-54.582.378-81.594-2.202-18.71-7.898-37.259-16.323-54.109-10.258-20.517-22.719-40.558-39.06-56.657-20.993-20.68-47.591-34.763-71.386-52.146 2.661-2.651 4.416-6.78 7.985-7.953 2.796-.918 5.778 3.784 8.451 2.553 8.146-3.749 14.886-10.138 21.406-16.295 39.52-37.317 61.504-76.405 68.591-130.814.436-3.348-2.308-6.346-3.462-9.519l-1.115 6.112c-15.655-.529-30.203-8.498-45.614-11.304-8.66-1.577-17.776.929-26.393-.866-8.402-1.749-15.445-8.056-23.886-9.606-22.51-4.133-45.514-4.874-68.271-7.311-5.602-72.579-82.959-118.751-140.19-61.397-7.829 7.846-12.958 18.125-17.74 28.124-4.801 10.04-.816 26.702-10.816 31.585-23.873 11.658-52.831 6.406-78.767 12.161-25.52 5.664-50.177 14.68-75.266 22.021"/><path fill="#f9cf9d" d="M446.091 346.574c38.537-9.751 76.19-22.266 112.063-27.26 8.595-1.196 37.398 1.453 42.631-6.651 5.188-8.034 3.972-18.888 8.053-27.537 13.776-29.203 42.889-59.166 78.729-57.443 37.547 1.805 68.344 29.455 79.137 64.806 2.162 7.08-2.524 15.815 1.269 22.172 2.64 4.424 9.624 4.047 14.74 4.653 14.79 1.756 29.81.797 44.618 2.391 35.284 3.799 70.957 22.049 105.983 21.71-.735-20.618.414-41.389-2.207-61.853-2.651-20.709-20.41-57.462-29.303-73.624-35.745-64.965-112.299-106.749-184.858-111.451-59.693-3.87-125.058 5.198-176.533 37.978-5.207 3.317-7.012 10.334-11.681 14.375-5.638 4.883-13.659 6.699-18.847 12.057-3.935 4.064-3.862 10.909-7.546 15.203-11.312 13.183-26.981 22.509-36.991 36.705-27.224 38.609-31.292 89.873-19.257 133.769"/><path fill="#8ad2d1" d="M209.85 362.15c-1.153.577-3.447.44-3.461 1.73-1.014 94.182.267 188.374.4 282.561 15.684 1.132 31.766 7.085 47.051 3.395 7.42-1.79 7.128-14.784 13.988-18.129 9.184-4.478 20.251-4.195 30.446-3.535 21.429 1.39 20.7 25.616 21.476 39.447 8.947-6.959-3.825-24.545 8.862-25.843 10.98-1.123 22.179.991 33.107-.551 1.73-.243.977-4.153 2.688-4.495 7.458-1.493 22.661 5.154 22.684-2.451.141-48.486-4.539-96.878-5.469-145.355-.915-47.761 9.281-97.691-5.191-143.216-12.718 1.106-36.443-3.995-48.017-7.407-19.914-5.868-38.534-15.626-58.422-21.582-4.522-1.355-9.547.849-14.159-.154-15.114-3.285-32.453-13.564-47.281-18.452-25.806-8.506-48.825 14.229-74.313-6.166l4.653-2.919-6.058-1.731 21.634-2.596c-9.639-3.896-19.776-6.732-28.915-11.687-13.332-7.228-6.27-22.807-5.7-34.609-11.497-4.163-19.084-21.771-32.182-12.191-3.849 2.814-9.761 5.349-10.125 10.102-3.427 44.699-2.024 89.67-.96 134.487.19 8.024 7.079 15.741 14.198 19.448 40.834 21.27 79.02-44.735 119.066-28.101"/><path fill="#face52" d="M257.445 642.091c-.244 1.149-.175 6.962-3.461 6.923-15.881-.192-31.73-1.442-47.595-2.164 0 70.959.704 141.921 0 212.877-.248 24.99-4.553 42.823 12.691 64.543 20.592 25.937 56.556 19.618 84.661 18.963 16.172-.375 32.524.189 48.459-2.596 5.077-.886 9.203-4.824 13.126-8.165 7.824-6.666 20.308-11.537 21.921-21.689 6.653-41.881 1.731-84.801 1.731-127.207 0-49.617-1.154-99.227-1.731-148.84-19.676 5.622-40.296 1.49-60.404 5.959-7.609 1.691-1.257 15.757-4.064 23.029-2.403 6.226-7.792 11.125-13.166 15.08-3.515 2.586-22.863 1.938-24.477 1.795-41.295-3.646-18.732-11.219-27.691-38.508"/><path fill="#f9cf9d" d="M98.22 224.126c7.043 6.302 13.988 14.118 23.175 16.338.369 5.633-1.033 11.674 1.107 16.897 7.144 17.44 55.31 30.69 72.17 30.013-1.561 2.589-5.78 6.926.03 9.761 3.771 1.841 8.606.159 12.456 1.832 1.576.685.744 3.948 2.335 4.596 11.17 4.55 6.393-3.425 14.635 1.907 13.321 8.614 28.204 12.158 43.967 11.736l.76 4.119c13.798 2.107 20.974 6.502 32.606 6.373l-2.479 2.866c13.62 1.555 73.32 14.951 76.151 19.904 5.477-20.54 1.593-42.49 1.896-63.746.036-2.612 4.376-3.745 4.593-6.348 2.364-28.284-4.328-61.379-4.759-88.266-.265-16.594 1.997-33.163 1.731-49.757-.196-12.284-7.461-29.283-19.26-35.95-34.033-19.235-75.861-11.868-112.844-6.009-3.492.553-8.171.989-9.762 4.144-2.429 4.819.748 10.928-.485 16.181-4.869 20.76-15.556 35.96-29.854 51.921-28.131 31.401-69.301 41.111-108.169 51.488"/><path fill="#519acb" d="M535.223 390.706c-14.383 10.388-2.675 24.757-15.046 37.697-14.16 14.81-14.535 7.924-32.771-1.261-.914-.46-2.134-.132-3.053.317-8.68 4.241 12.115 23.335 15.924 26.289 15.748 12.212 31.44 23.611 47.926 35.176 7.692-5.449 4.771-1.508 6.057-13.413l5.69-.264c1.998-7.406 6.511-22.02 17.675-12.717-7.187 17.934 9.792 12.304 21.201 12.548 2.297 11.824 4.782 5.436 13.846 7.789 3.883-6.214 8.955-2.075 15.144-4.76-3.276-2.745-7.724.984-9.953-2.163-3.04-4.295 5.533-9.313.866-17.307-4.779-8.186-11.333-4.141-16.465-10.105-2.456-2.855-.786-7.581-2.14-11.097-2.51-6.518-7.845-3.304-4.76-11.25-5.289-2.063-2.417-1.802-8.653 0l5.624 10.385c-8.435-1.925-13.79-7.76-21.912-10.498 6.85-.584 2.699.375 11.529-5.511-1.356-3.126-1.368-13.443-.695-17.364-3.767-2.146-6.289-6.141-10.123-8.164-11.263-5.94-24.861 5.496-35.911-4.327"/><path fill="#fba399" d="M764.736 816.611c.319 6.768-3.386 10.394-2.886 17.33 1.952 27.048 27.263 31.983 48.039 20.972 9.267-4.911 16.472-17.834 26.445-18.799.097-12.943 5.812-15.007 4.79-31.77-.287-4.715-5.267-7.99-8.847-11.071-15.449-13.294-40.226-.215-52.82 10.579-4.93 4.226-8.609 10.565-14.721 12.759"/><path fill="#face52" d="m728.196 182.589-3.894-1.73c3.762-1.506 8.898-3.5 10.817 1.298 10.729-13.05 15.342-33.158-2.596-44.133-7.671-4.693-64.167 9.55-74.302 17.312-6.377 4.884-8.75 39.712 5.939 40.233 19.823.705 46.53-2.57 64.036-12.98"/><path fill="#fba399" d="m854.538 279.076 1.371 3.855c46.629-25.446-24.057-79.77-53.944-61.882-5.925 3.547-5.785 8.442-8.864 14.849-12.756 26.547 43.098 44.613 61.437 43.178"/><path fill="#face52" d="M504.069 737.712c-33.551 9.587 21.041 74.534 43.701 72.69 14.437-1.175 21.444-22.323 13.413-32.884-17.205-22.623-29.244-47.769-57.114-39.806m103.41-183.454 1.731 2.163c15.29-21.82-5.365-35.919-25.347-32.924-6.041.905-30.611 27.814-35.66 33.79-13.528 16.01 5.614 36.668 22.931 32.883 14.18-3.1 27.447-23.744 36.345-35.912"/><path fill="#fba399" d="m498.012 267.827 1.731-2.597c21.428 27.239 39.125-3.089 56.814-21.68 7.688-8.079 14.65-21.317 4.212-30.801-21.639-19.659-48.216 19.115-59.295 29.982-5.415 5.311-8.384 18.942-3.462 25.096"/><path fill="#face52" d="M337.922 542.575c8.425-1.622 7.013-10.436 8.635-19.363 4.948-27.232-39.274-34.546-56.749-31.988-23.462 3.436-10.434 36.442 4.874 43.397a212 212 0 0 0 16.414 6.656c10.149 3.625 16.997 3.192 26.826 1.298"/><path fill="#71c6f3" d="m266.098 631.707 2.596 1.731c-23.358 33.608 1.244 47.236 34.877 47.717 1.51.022 3.075-.046 4.497-.556 16.954-6.085 17.064-36.401 4.526-46.94-11.457-9.632-33.833-6.748-46.496-1.952"/><path fill="#fba399" d="m510.992 376.428-3.028.866c-4.77-20.604-48.583-16.547-40.934 18.898 3.164 14.66 21.132 21.81 34.083 29.375 12.12 7.079 22.724-2.828 27.296-13.016 8.454-18.839-14.623-23.336-17.417-36.123"/><path fill="#519acb" d="M746.801 438.301c2.54 7.363-1.572 14.961.432 22.066 1.399 4.958 9.356.551 11.683 4.759 2.172 3.928-.217 7.056.405 11.295.837 5.716 7.248 3.085 10.411 5.147 6.153 4.01-.253 7.587 9.519 3.895l-2.162-2.164c4.868-3.855 10.151-8.19 16.307-9.008-2.01-4.62 3.243-12.234 6.192-16.52-14.603-7.12 7.672-28.376-27.84-26.088l-1.412 5.574z"/><path fill="#8ad2d1" d="M894.776 674.542c-10.62 3.106-32.636 18.515-35.479 28.989-3.204 11.805 4.838 31.841 20.135 24.722 15.242-7.093 47.938-30.445 30.883-49.208-4.282-4.711-9.818-6.177-15.539-4.503"/><path fill="#fba399" d="M794.395 554.691c-6.668.665-36.384 28.464-37.209 34.614-1.647 12.258-1.058 27.301 16.008 23.364 13.849-3.195 62.55-62.103 21.201-57.978"/><path fill="#face52" d="M724.302 467.29c-1.315-4.041-6.813-4.032-10.384-6.49l3.894-1.731c-12.464-9.21-37.146-3.439-30.114 15.618 4.292 11.633 17.969 16.047 27.518 21.592 6.337 3.68 6.466 5.761 13.964 5.761 24.921 0 15.071-40.917-4.878-34.75"/><path fill="#71c6f3" d="m288.597 765.404 1.731-1.731c28.506 25.038 59.534.52 20.202-29.921-25.54-19.766-43.616 14.19-21.933 31.652"/><path fill="#eb8423" d="M266.322 893.082c2.744 12.036 48.823 8.764 51.091-13.182.7-6.765-12.741-2.562-17.998-6.174-15.417-10.592-20.592-13.885-29.221-27.039-23.092 13.09 5.63 44.518-3.872 46.395"/><path fill="#386f8a" d="M491.955 633.438c-11.385 14.422-16.432 39.327 1.298 51.488 4.716 3.235 27.47 20.865 35.047 10.384 3.176-4.394 4.87-9.708 7.788-14.278-3.75-3.001-6.108.499-9.745-1.705-18.872-11.437-25.251-28.462-34.388-45.889m135.427 193.839c-7.796 12.233-14.368 23.74-9.023 38.241 4.497 12.208 33.059 24.107 44.277 13.525 5.318-5.016 6.277-11.377 9.312-18.883-10.698-6.875-31.255-6.423-40.023-16.784-3.995-4.721-1.938-10.816-4.543-16.099"/><path fill="#71c6f3" d="M293.789 219.366c-1.324 6.547.787 13.492 7.228 17.779 27.385 18.226 70.339-61.174 23.127-45.783-5.133 1.673-8.856 8.934-13.026 12.467-5.92 5.014-15.791 7.933-17.329 15.537"/><path fill="#386b68" d="M277.347 497.577c-2.432 5.812 2.431 19.299-6.29 20.193-1.978 8.078.179 23.528 1.099 27.834 5.342 25.023 38.012 11.25 53.652 11.25l-.866-2.596c6.062-1.515 8.765-7.282 13.413-12.115-17.019-4.41-46.977 1.448-57.828-19.483-3.812-7.352-.996-16.888-3.18-25.083"/><path fill="#8ad2d1" d="M812.375 370.338c8.275-2.472 26.824 22.435 34.374 25.993 3.949 1.861 9.348-.69 12.98 1.73 12.694-22.056-8.617-29.102-22.932-41.104l1.731-1.73c-14.08-12.369-34.569-5.147-26.153 15.111"/><path fill="#fba399" d="M497.147 627.38c-10.269 3.335-1.734 20.5 3.691 26.628 7.513 8.487 15.092 16.932 23.108 24.947.909.908 2.249 1.302 3.488 1.644 10.325 2.852 18.932-11.913 12.548-19.903-5.693-7.123-11.691-14-17.702-20.858-10.081-11.498-12.105-16.688-25.133-12.458"/><path fill="#386f8a" d="M683.198 467.723c-1.423 10.838-4.46 25.02-3.74 35.338 1.061 15.201 41.205 19.45 49.259 11.718 4.101-3.937 9.751-12.464 12.126-18.328-17.433 10.669-27.286-2.887-44.233-11.854-2.548-1.348-8.846 1.775-12.265 1.637.127-6.935 1.113-12.3-1.147-18.511"/><path fill="#fba399" d="M279.078 836.362c-26.591 10.355 20.792 43.863 36.345 41.105 23.229-4.121-7.569-29.049-9.637-30.85-8.12-7.076-16.877-14.082-26.708-10.255"/><path fill="#0c486f" d="M494.551 747.231c-5.492 4.066-3.413 6.594-3.926 13.94-1.726 24.722 15.227 47.661 36.931 59.652 10.214 5.643 28.901-3.728 26.704-15.613-20.139 15.079-48.516-23.919-57.111-38.102-4.67-7.706.243-12.456-2.598-19.877"/><path fill="#f2ba37" d="M658.535 830.738c-1.277-.958-39.039-18.503-29.511 10.098 1.911 5.739 11.934 7.322 15.666 8.94 6.951 3.013 17.173 10.417 25.921 8.915 10.829-1.859 12.226-16.49 3.858-22.267-6.063-4.184-10.915-1.924-15.934-5.686"/><path fill="#0c486f" d="M761.945 820.354c-11.88 19.793-5.425 51.63 18.605 54.949 1.407.195 11.637 3.672 14.902 1.305 6.887-4.995 13.868-13.765 20.577-19.045 6.996-5.505 17.546-10.329 18.606-22.065-13.535 7.16-55.917 46.678-69.662 9.951-3.493-9.334-.761-16.594-3.028-25.095"/><path fill="#bd7329" d="M281.242 732.953c-6.85 6.055-5.025 17.753-5.415 26.887-.479 11.247 6.234 15.773 12.77 23.736-9.307 2.727-9.752 6.701 1.298 13.413 14.617 8.879 28.496-17.819 34.181-24.662-12.311-.516-24.032.197-33.748-9.519l-1.731 1.73c-7.087-10.52-3.038-20.79-7.355-31.585"/><path fill="#fba399" d="M868.383 599.689c-8.37 2.245-13.383 11.24-19.76 17.114-7.577 6.982-10.989 32.436 6.779 26.586 13.747-4.525 46.373-52.655 12.981-43.7"/><path fill="#b2533c" d="M654.208 159.225c-6.803 9.57-4.182 16.425-3.461 26.393 2.05 28.342 7.384 20.778 39.806 19.038 10.992-.59 3.699 1.785 10.385-.866l-4.931-1.279c1.527-4.922 28.544-4.447 37.242-15.757 7.333-9.535-6.567-9.309-11.976-5.03l1.731 1.731c-6 2.338-11.259 1.895-17.206 3.748-.287 6.575-41.102 12.438-48.12 1.63-6.286-9.682 1.297-20.968-3.47-29.608"/><path fill="#519acb" d="M703.101 577.622c16.652 8.906 31.594 15.87 47.594 26.394 1.828-3.418.967-6.464 3.461-9.519 1.875 4.856-.596 9.209 1.732 13.845 1.7-13.338 1.11-6.561 1.73-20.335-4.65-1.329-6.421-7.295-8.964-11.41-9.075-14.682-18.022-11.325-33.438-8.926-9.574 1.489-10.172-.486-12.115 9.951"/><path fill="#386f8a" d="M308.068 432.676c-2.965-2.072-7.34.132-10.818-.866-8.855-2.538-20.41-13.17-21.003-22.898l-2.361.399c-1.696-3.822-.088-6.908-2.596-10.384-11.283 8.869-5.582 32.96-3.894 45.431.734 5.416 13.613 3.88 13.846 3.894 13.227.824 22.135-.955 26.826-15.576"/><path fill="#8ad2d1" d="M121.584 240.567c-5.138 5.986-4.523 15.382-4.314 23.266.364 13.745 27.679 9.343 27.679 19.137 5.338 1.133 2.563.225 8.221 3.029l-5.625 1.731c9.033 3.808 43.462 12.142 49.336.816-14.87-1.415-66.682-17.621-73.272-31.757-2.631-5.644.968-10.65-2.025-16.222"/><path fill="#a53a2c" d="M791.799 239.703c-6.384 3.696-1.303 13.718-.432 19.037 4.303 26.274 58.726 42.762 65.202 21.294-21.596-6.002-62.477-7.563-64.77-40.331"/><path fill="#386f8a" d="M853.672 404.984c.306-.397 5.74-6.144 5.192-8.653-.724-3.319-12.538-.099-16.815-4.129-2.332-2.198-28.694-19.789-28.869-20.708-.935-4.904-.33-10.074-1.67-14.883-8.459 2.268-6.968 22.168-2.648 28.317 7.988 11.366 28.344 23.263 44.81 20.056"/><path fill="#519acb" d="M468.158 373.832c-6.395 8.691-2.251 6.549-11.643 7.768 8.157 15.65 14.279 26.331 25.114 40.337.572.74 1.273 1.583 1.239 2.518-.379 10.502-3.306 2.597 0 9.519.008-.058-.368-7.797 3.388-6.256 18.281 7.497 29.644 21.438 40.444-10.416-18.918 18.337-33.17 2.532-50.751-11.669-2.241-1.81-5.512-4.551-7.041-7.223-4.613-8.063 2.029-17.16-.75-24.578"/><path fill="#2f526b" d="M608.345 552.527c-7.251 8.561-44.808 58.554-60.575 28.124-3.656-7.057-.204-14.949-3.461-22.066-2.889 5.438-2.709 12.746-2.576 18.854 1.111 51.138 29.902 18.378 51.471-3.676 7.752-7.928 15.489-11.11 15.141-21.236"/><path fill="#8ad2d1" d="M131.535 288.162c12.558 15.859 42.79 20.033 61.873 8.653l-1.297-4.326c-15.545 2.263-49.784-16.659-60.576-4.327"/><path fill="#a53a2c" d="M496.282 250.952c-19.169 13.111 1.439 58.684 24.611 25.363-15.674-2.064-21.998-10.552-24.611-25.363"/><path fill="#2f526b" d="M880.498 617.861c-15.591 17.651-27.168 39.122-41.97 9.519-2.448 6.673-.595 6.352 0 13.413 2.913 34.554 44.95-15.633 41.97-22.932"/><path fill="#0c486f" d="M906.025 704.396c-18.001 18.464-41.761 41.043-47.593 1.731-6.656 3.742-4.89 20.997-.434 25.961 4.064 4.525 12.163-.172 18.242-.349 1.567-.046 3.432 1.284 4.691.349 8.76-6.512 16.475-14.339 24.33-21.918 3.022-2.915 2.11-3.109.764-5.774"/><path fill="#534956" d="M294.222 218.934c-16.233 23.493 1.124 38.811 24.663 19.038-4.347-1.816-7.908 2.697-11.683 1.298-11.442-4.242-7.184-11.725-12.98-20.336"/><path fill="#386f8a" d="M266.964 631.707c-10.543 10.725-15.809 26.033-7.508 41.11 8.394-1.807.805-17.686 1.883-25.534.707-5.152 5.652-9.401 7.577-14.324z"/><path fill="#519acb" d="M838.096 505.798c1.139-6.689 3.984-8.859 9.519-12.98-10.712-8.153-26.085 6.598-9.519 12.98"/><path fill="#386f8a" d="M685.794 462.53c-3.999 8.411-3.422 17.1-1.298 25.961 5.303-2.824 7.807.004 10.671-6.074-9.937-9.785-4.455-8.767-9.373-19.887"/><path fill="#1b5d8b" d="M858.432 732.52c.801.802 2.133 3.596 3.028 3.894 7.065 2.356 14.735.652 19.471-4.759-1.722-1.148-21.723.088-22.499.865"/><path fill="#534956" d="M263.935 667.186c-2.356 3.57-1.062 1.339-3.462 6.923 4.87 4.438 8.746 7.444 15.529 5.711.073-2.314-9.897-10.082-12.067-12.634"/><path fill="#386f8a" d="M814.731 367.342c-5.471 5.471 12.427 18.726 16.442 14.711-5.232-5.232-11.414-9.683-16.442-14.711"/><path fill="#4b462c" d="M274.607 501.968c-1.803 5.529-3.649 9.336-3.062 15.223 8.25.956 9.334-13.193 3.062-15.223"/><path fill="#a53a2c" d="M669.174 199.995c7.489.061 9.933 4.991 16.95 2.448l-1.612-3.851z"/></g><path fill="#8ad2d1" d="m101.67 226.276 240.785 145.369-26.294 43.551L75.377 269.827z"/><path fill="#f9cf9d" d="M103.032 224.757v9.039c68.623 48.135 152.073 87.383 247.117 116.744h25.682v-62.891H239.432v-62.892z"/><path fill="#face52" d="M317.859 418.903c4.948-27.231-19.246-28.663-36.721-26.105-23.462 3.435-11.054 34.463 4.254 41.417a213 213 0 0 0 16.414 6.657c10.149 3.625 14.431-13.042 16.053-21.969"/></g></g></svg>