<svg xmlns="http://www.w3.org/2000/svg" xml:space="preserve" stroke-miterlimit="10" style="fill-rule:evenodd;clip-rule:evenodd" viewBox="0 0 1024 1024"><path fill="#ff9ab1" d="M524.547 558.306c19.883 0 35.959 19.202 35.959 42.904 0 21.881-13.714 46.935-31.458 49.614l3.455 5.993c2.174 3.772.952 4.806-2.773 4.806h-2.268c7.097 17.944 7.708 21.952.763 39.896 0 .634-.54 1.175-1.175 1.175h-3.49a1.195 1.195 0 0 1-1.175-1.175c7.039-17.944 6.252-21.952-.764-39.896h-3.901c-2.821.047-2.633-2.679-1.457-4.583l3.854-6.216c-17.827-2.597-31.623-27.686-31.623-49.614 0-23.702 16.111-42.904 35.959-42.904zm6.475 14.29a2.056 2.056 0 0 1 1.951-3.62c3.443 1.857 6.886 4.607 9.894 7.721 3.103 3.208 5.747 6.816 7.427 10.223a2.053 2.053 0 0 1-3.678 1.822c-1.504-3.032-3.89-6.275-6.71-9.201-2.714-2.821-5.817-5.3-8.884-6.945"/><path fill="#f0ff9a" d="M405.543 547.306c18.226 0 32.962 17.602 32.962 39.329 0 20.057-12.571 43.023-28.836 45.479l3.166 5.494c1.993 3.458.873 4.405-2.542 4.405h-2.079c6.507 16.449 7.067 20.123.7 36.571 0 .582-.495 1.078-1.077 1.078h-3.199a1.095 1.095 0 0 1-1.077-1.078c6.452-16.448 5.73-20.122-.7-36.571h-3.577c-2.585.044-2.413-2.456-1.335-4.201l3.533-5.698c-16.341-2.381-28.988-25.379-28.988-45.479 0-21.727 14.769-39.329 32.963-39.329zm5.935 13.099a1.886 1.886 0 0 1 1.788-3.318c3.157 1.702 6.313 4.223 9.07 7.077 2.844 2.941 5.268 6.248 6.808 9.372a1.881 1.881 0 0 1-3.371 1.67c-1.379-2.78-3.566-5.753-6.151-8.435-2.488-2.585-5.332-4.858-8.144-6.366"/><path fill="#ff9aaf" d="M855.544 54.306c18.779 0 33.961 18.135 33.961 40.52 0 20.666-12.951 44.328-29.71 46.858l3.263 5.66c2.053 3.563.899 4.539-2.619 4.539h-2.142c6.703 16.948 7.28 20.732.721 37.68 0 .599-.51 1.109-1.11 1.109h-3.296c-.599 0-1.11-.51-1.11-1.109 6.648-16.948 5.905-20.732-.721-37.68h-3.685c-2.663.045-2.486-2.53-1.376-4.328l3.64-5.871c-16.836-2.453-29.866-26.148-29.866-46.858 0-22.385 15.216-40.52 33.962-40.52zm6.116 13.496a1.941 1.941 0 1 1 1.842-3.419c3.252 1.754 6.504 4.351 9.345 7.292 2.93 3.03 5.427 6.437 7.014 9.656a1.94 1.94 0 0 1-3.474 1.72c-1.42-2.863-3.673-5.927-6.337-8.69-2.564-2.664-5.494-5.005-8.39-6.56Z"/><path fill="#f4ff9a" d="M575.051 396.306c21.264 0 38.456 20.535 38.456 45.883 0 23.401-14.666 50.194-33.643 53.06l3.695 6.409c2.325 4.034 1.018 5.14-2.966 5.14h-2.425c7.59 19.19 8.244 23.476.816 42.666 0 .679-.578 1.257-1.256 1.257h-3.733a1.277 1.277 0 0 1-1.256-1.257c7.527-19.19 6.685-23.476-.817-42.666h-4.173c-3.016.05-2.815-2.865-1.558-4.901l4.122-6.648c-19.065-2.778-33.819-29.609-33.819-53.06 0-25.348 17.23-45.883 38.456-45.883zm6.925 15.282a2.198 2.198 0 1 1 2.086-3.871c3.682 1.986 7.364 4.927 10.581 8.257 3.318 3.431 6.146 7.289 7.943 10.934a2.196 2.196 0 0 1-3.934 1.947c-1.608-3.242-4.159-6.71-7.176-9.84-2.903-3.016-6.22-5.668-9.5-7.427"/><path fill="#ffd19a" d="M892.554 219.301c20.436 0 36.958 19.735 36.958 44.095 0 22.489-14.095 48.239-32.332 50.992l3.551 6.16c2.234 3.877.978 4.94-2.85 4.94h-2.331c7.294 18.442 7.923 22.561.785 41.004 0 .652-.556 1.207-1.208 1.207h-3.587a1.227 1.227 0 0 1-1.208-1.207c7.235-18.443 6.425-22.562-.785-41.004h-4.01c-2.899.048-2.705-2.754-1.498-4.711l3.962-6.389c-18.322-2.669-32.501-28.455-32.501-50.992 0-24.36 16.558-44.095 36.958-44.095zm6.655 14.686a2.112 2.112 0 1 1 2.005-3.72c3.539 1.909 7.077 4.735 10.169 7.935 3.189 3.298 5.906 7.005 7.633 10.508a2.11 2.11 0 0 1-3.78 1.872c-1.546-3.116-3.998-6.45-6.896-9.457-2.79-2.899-5.979-5.447-9.131-7.138"/><path fill="#e7ff9a" d="M876.543 354.247c20.712 0 37.457 20.001 37.457 44.691 0 22.793-14.285 48.891-32.768 51.681l3.598 6.243c2.265 3.93.992 5.007-2.888 5.007h-2.363c7.394 18.692 8.03 22.866.796 41.558 0 .661-.563 1.224-1.224 1.224h-3.636a1.244 1.244 0 0 1-1.224-1.224c7.332-18.692 6.512-22.866-.796-41.558h-4.064c-2.937.049-2.742-2.791-1.518-4.774l4.016-6.476c-18.57-2.705-32.941-28.839-32.941-51.681 0-24.69 16.783-44.691 37.457-44.691zm6.745 14.885a2.142 2.142 0 0 1 2.032-3.77c3.587 1.934 7.173 4.798 10.307 8.042 3.231 3.342 5.986 7.1 7.736 10.649a2.139 2.139 0 0 1-3.831 1.898c-1.567-3.158-4.052-6.537-6.99-9.585-2.827-2.938-6.059-5.52-9.254-7.234"/><path fill="#bbff9a" d="M368.041 51.306c17.397 0 31.464 16.802 31.464 37.541 0 19.146-12 41.068-27.526 43.412l3.023 5.244c1.902 3.301.833 4.206-2.427 4.206h-1.984c6.21 15.701 6.745 19.207.668 34.908 0 .555-.473 1.028-1.028 1.028h-3.054a1.045 1.045 0 0 1-1.028-1.028c6.159-15.701 5.47-19.207-.669-34.908h-3.413c-2.468.041-2.304-2.345-1.275-4.011l3.372-5.439c-15.598-2.272-27.67-24.225-27.67-43.412 0-20.74 14.097-37.54 31.464-37.54zm5.665 12.504a1.8 1.8 0 0 1 1.707-3.168c3.013 1.625 6.026 4.031 8.658 6.756 2.714 2.807 5.028 5.964 6.498 8.946a1.796 1.796 0 0 1-3.218 1.593c-1.316-2.652-3.404-5.49-5.871-8.05-2.376-2.468-5.09-4.638-7.774-6.078Z"/><path fill="#b7ff9a" d="M190.549 55.306c20.435 0 36.957 19.735 36.957 44.096 0 22.488-14.094 48.238-32.332 50.992l3.551 6.159c2.235 3.877.979 4.94-2.85 4.94h-2.331c7.295 18.443 7.923 22.561.785 41.004 0 .652-.556 1.208-1.208 1.208h-3.587a1.23 1.23 0 0 1-1.208-1.208c7.235-18.443 6.426-22.561-.785-41.004h-4.009c-2.899.048-2.706-2.754-1.498-4.71l3.961-6.389c-18.321-2.669-32.501-28.455-32.501-50.992 0-24.36 16.559-44.096 36.958-44.096zm6.655 14.687a2.112 2.112 0 1 1 2.004-3.72c3.539 1.908 7.078 4.734 10.17 7.935 3.188 3.297 5.906 7.005 7.633 10.507a2.11 2.11 0 0 1-3.78 1.872c-1.546-3.116-3.998-6.45-6.897-9.457-2.79-2.898-5.978-5.447-9.13-7.137"/><path fill="#ffd99a" d="M859.546 788.306c19.331 0 34.96 18.668 34.96 41.712 0 21.273-13.333 45.631-30.585 48.236l3.359 5.827c2.114 3.667.926 4.672-2.696 4.672h-2.205c6.901 17.446 7.495 21.342.743 38.788a1.16 1.16 0 0 1-1.143 1.142h-3.393a1.16 1.16 0 0 1-1.142-1.142c6.843-17.446 6.078-21.342-.743-38.788h-3.793c-2.742.046-2.559-2.605-1.417-4.455l3.748-6.044c-17.332-2.525-30.745-26.917-30.745-48.236 0-23.044 15.664-41.712 34.96-41.712zm6.295 13.893a1.998 1.998 0 0 1 1.896-3.519c3.348 1.805 6.695 4.478 9.62 7.506 3.016 3.119 5.587 6.626 7.221 9.94a1.996 1.996 0 0 1-3.576 1.77c-1.463-2.947-3.782-6.1-6.524-8.945-2.639-2.742-5.655-5.153-8.637-6.752"/><path fill="#ffa19a" d="M467.541 376.306c17.674 0 31.964 17.068 31.964 38.137 0 19.45-12.19 41.719-27.963 44.101l3.071 5.327c1.932 3.353.846 4.273-2.465 4.273h-2.016c6.309 15.95 6.852 19.512.679 35.462 0 .564-.481 1.045-1.045 1.045h-3.102a1.06 1.06 0 0 1-1.045-1.045c6.257-15.95 5.557-19.512-.679-35.462h-3.468c-2.506.041-2.339-2.382-1.295-4.074l3.426-5.526c-15.846-2.308-28.109-24.61-28.109-44.101 0-21.069 14.321-38.137 31.964-38.137zm5.756 12.702a1.827 1.827 0 1 1 1.734-3.217c3.06 1.65 6.121 4.094 8.795 6.862 2.758 2.852 5.108 6.059 6.602 9.088a1.825 1.825 0 0 1-3.27 1.619c-1.337-2.695-3.457-5.578-5.964-8.179-2.413-2.507-5.171-4.711-7.897-6.173"/><path fill="#ffb69a" d="M146.041 508.306c17.397 0 31.464 16.801 31.464 37.541 0 19.146-12 41.068-27.526 43.412l3.023 5.244c1.902 3.301.833 4.206-2.427 4.206h-1.984c6.21 15.701 6.745 19.207.668 34.908 0 .555-.473 1.028-1.028 1.028h-3.054a1.045 1.045 0 0 1-1.028-1.028c6.159-15.701 5.47-19.207-.669-34.908h-3.413c-2.468.041-2.304-2.345-1.275-4.011l3.372-5.439c-15.598-2.272-27.67-24.225-27.67-43.412 0-20.74 14.097-37.541 31.464-37.541zm5.665 12.503a1.799 1.799 0 0 1 1.707-3.167c3.013 1.625 6.026 4.031 8.658 6.756 2.714 2.807 5.028 5.964 6.498 8.946a1.795 1.795 0 0 1-3.218 1.593c-1.316-2.652-3.404-5.49-5.871-8.051-2.376-2.467-5.09-4.637-7.774-6.077"/><path fill="#ff9ac3" d="M496.049 118.306c20.712 0 37.458 20.002 37.458 44.692 0 22.792-14.286 48.89-32.769 51.681l3.599 6.243c2.264 3.929.991 5.006-2.889 5.006h-2.363c7.394 18.692 8.03 22.866.796 41.558 0 .661-.563 1.224-1.224 1.224h-3.636a1.244 1.244 0 0 1-1.224-1.224c7.332-18.692 6.512-22.866-.796-41.558h-4.064c-2.937.049-2.741-2.791-1.517-4.774l4.015-6.475c-18.57-2.706-32.941-28.84-32.941-51.681 0-24.69 16.783-44.692 37.458-44.692zm6.745 14.885a2.142 2.142 0 0 1 2.032-3.77c3.587 1.934 7.173 4.798 10.307 8.042 3.232 3.342 5.986 7.1 7.736 10.65a2.138 2.138 0 0 1-3.831 1.897c-1.567-3.158-4.052-6.537-6.99-9.585-2.827-2.937-6.059-5.52-9.254-7.234"/><path fill="#fff99a" d="M957.544 694.306c18.779 0 33.961 18.135 33.961 40.52 0 20.666-12.951 44.328-29.71 46.858l3.263 5.66c2.053 3.563.899 4.539-2.619 4.539h-2.142c6.703 16.948 7.28 20.732.721 37.68 0 .599-.51 1.109-1.11 1.109h-3.296c-.599 0-1.11-.51-1.11-1.109 6.648-16.948 5.905-20.732-.721-37.68h-3.685c-2.663.045-2.486-2.53-1.376-4.328l3.64-5.871c-16.836-2.453-29.866-26.148-29.866-46.858 0-22.385 15.216-40.52 33.962-40.52zm6.116 13.496a1.942 1.942 0 0 1 1.842-3.419c3.252 1.754 6.504 4.351 9.345 7.292 2.93 3.03 5.427 6.437 7.014 9.656a1.939 1.939 0 0 1-3.474 1.72c-1.42-2.863-3.673-5.927-6.337-8.69-2.564-2.664-5.494-5.005-8.39-6.559"/><path fill="#dbff9a" d="M209.055 341.158c18.502 0 33.461 17.868 33.461 39.924 0 20.362-12.761 43.676-29.273 46.169l3.215 5.577c2.023 3.51.886 4.472-2.581 4.472h-2.11c6.604 16.698 7.173 20.427.71 37.125 0 .591-.503 1.094-1.093 1.094h-3.248c-.59 0-1.093-.503-1.093-1.094 6.55-16.698 5.817-20.427-.711-37.125h-3.631c-2.624.044-2.449-2.493-1.356-4.264l3.587-5.785c-16.589-2.417-29.427-25.763-29.427-46.169 0-22.056 14.993-39.924 33.462-39.924zm6.025 13.297a1.91 1.91 0 0 1-.776-2.591 1.91 1.91 0 0 1 2.591-.777c3.204 1.728 6.408 4.287 9.208 7.185 2.887 2.985 5.347 6.342 6.911 9.513a1.911 1.911 0 0 1-3.423 1.695c-1.4-2.821-3.62-5.839-6.244-8.562-2.526-2.625-5.413-4.932-8.267-6.463"/><path fill="#f8ff9a" d="M621.547 562.306c19.883 0 35.959 19.202 35.959 42.904 0 21.881-13.714 46.935-31.458 49.614l3.455 5.993c2.174 3.772.952 4.806-2.773 4.806h-2.268c7.097 17.944 7.708 21.952.763 39.896 0 .634-.54 1.175-1.175 1.175h-3.49a1.195 1.195 0 0 1-1.175-1.175c7.039-17.944 6.252-21.952-.764-39.896h-3.901c-2.821.047-2.633-2.679-1.457-4.583l3.854-6.216c-17.827-2.597-31.623-27.686-31.623-49.614 0-23.702 16.111-42.904 35.959-42.904zm6.475 14.29a2.056 2.056 0 0 1 1.951-3.62c3.443 1.857 6.886 4.607 9.894 7.721 3.103 3.208 5.747 6.816 7.427 10.223a2.053 2.053 0 0 1-3.678 1.822c-1.504-3.032-3.89-6.275-6.71-9.201-2.714-2.821-5.817-5.3-8.884-6.945"/><path fill="#ff9ab9" d="M216.047 528.306c19.606 0 35.459 18.935 35.459 42.308 0 21.577-13.523 46.283-31.021 48.925l3.407 5.91c2.143 3.72.938 4.739-2.735 4.739h-2.237c7 17.695 7.602 21.647.754 39.342 0 .625-.533 1.159-1.159 1.159h-3.442a1.18 1.18 0 0 1-1.159-1.159c6.942-17.695 6.165-21.647-.753-39.342h-3.847c-2.781.047-2.596-2.642-1.437-4.519l3.801-6.13c-17.579-2.561-31.184-27.302-31.184-48.925 0-23.373 15.888-42.308 35.46-42.308zm6.385 14.091a2.027 2.027 0 1 1 1.923-3.569c3.395 1.831 6.791 4.543 9.757 7.613 3.06 3.164 5.667 6.721 7.324 10.082a2.025 2.025 0 0 1-3.627 1.796c-1.483-2.99-3.836-6.188-6.617-9.073-2.677-2.781-5.736-5.226-8.76-6.849"/><path fill="#ff9f9a" d="M691.543 24.306c18.226 0 32.962 17.601 32.962 39.329 0 20.057-12.571 43.023-28.836 45.479l3.166 5.494c1.993 3.458.873 4.405-2.542 4.405h-2.079c6.507 16.449 7.067 20.123.7 36.571 0 .582-.495 1.078-1.077 1.078h-3.199a1.095 1.095 0 0 1-1.077-1.078c6.452-16.448 5.73-20.122-.7-36.571h-3.577c-2.585.044-2.413-2.456-1.335-4.201l3.533-5.698c-16.341-2.381-28.988-25.379-28.988-45.48 0-21.727 14.769-39.328 32.963-39.328zm5.935 13.099a1.885 1.885 0 0 1 1.788-3.318c3.157 1.702 6.313 4.223 9.07 7.077 2.844 2.941 5.268 6.248 6.808 9.372a1.882 1.882 0 0 1-3.371 1.67c-1.379-2.78-3.566-5.753-6.151-8.435-2.488-2.585-5.332-4.858-8.144-6.366"/><path fill="#ff9aa1" d="M53.552 132.306c21.54 0 38.955 20.802 38.955 46.479 0 23.705-14.856 50.846-34.08 53.749l3.743 6.492c2.355 4.087 1.031 5.207-3.004 5.207h-2.457c7.69 19.44 8.351 23.781.827 43.22 0 .688-.585 1.273-1.273 1.273h-3.78a1.293 1.293 0 0 1-1.274-1.273c7.626-19.439 6.773-23.78-.827-43.22h-4.227c-3.055.051-2.851-2.903-1.578-4.965l4.175-6.734c-19.312-2.814-34.258-29.994-34.258-53.749 0-25.677 17.454-46.479 38.956-46.479zm7.014 15.48a2.227 2.227 0 1 1 2.113-3.921c3.73 2.012 7.46 4.991 10.72 8.364 3.36 3.476 6.225 7.384 8.045 11.076a2.225 2.225 0 0 1-3.984 1.973c-1.63-3.284-4.214-6.798-7.27-9.968-2.94-3.055-6.301-5.741-9.624-7.524"/><path fill="#f0ff9a" d="M390.045 254.306c19.055 0 34.461 18.402 34.461 41.116 0 20.969-13.143 44.979-30.148 47.547l3.311 5.743c2.084 3.615.912 4.606-2.658 4.606h-2.173c6.802 17.197 7.388 21.037.732 38.234 0 .608-.518 1.126-1.126 1.126h-3.345a1.144 1.144 0 0 1-1.126-1.126c6.746-17.197 5.991-21.037-.732-38.234h-3.739c-2.703.045-2.523-2.567-1.396-4.392l3.693-5.957c-17.083-2.489-30.305-26.532-30.305-47.547 0-22.714 15.44-41.116 34.461-41.116zM396.25 268a1.969 1.969 0 1 1 1.87-3.468c3.299 1.779 6.599 4.414 9.482 7.399 2.973 3.074 5.507 6.531 7.117 9.797a1.967 1.967 0 0 1-3.525 1.746c-1.441-2.906-3.727-6.014-6.43-8.818-2.601-2.703-5.575-5.079-8.514-6.656"/><path fill="#fff19a" d="M409.541 772.306c17.674 0 31.964 17.068 31.964 38.137 0 19.45-12.19 41.719-27.963 44.101l3.071 5.327c1.932 3.353.846 4.273-2.465 4.273h-2.016c6.309 15.95 6.852 19.512.679 35.462 0 .564-.481 1.045-1.045 1.045h-3.102a1.06 1.06 0 0 1-1.045-1.045c6.257-15.95 5.557-19.512-.679-35.462h-3.468c-2.506.041-2.339-2.382-1.295-4.074l3.426-5.526c-15.846-2.308-28.109-24.61-28.109-44.101 0-21.069 14.321-38.137 31.964-38.137zm5.756 12.702a1.827 1.827 0 1 1 1.734-3.217c3.06 1.65 6.121 4.094 8.795 6.862 2.758 2.852 5.108 6.059 6.602 9.088a1.825 1.825 0 0 1-3.27 1.619c-1.337-2.695-3.457-5.578-5.964-8.179-2.413-2.507-5.171-4.711-7.897-6.173"/><path fill="#cfff9a" d="M140.545 847.306c19.331 0 34.96 18.668 34.96 41.712 0 21.273-13.332 45.631-30.584 48.236l3.359 5.827c2.114 3.667.925 4.672-2.696 4.672h-2.205c6.9 17.446 7.495 21.342.742 38.788a1.16 1.16 0 0 1-1.142 1.142h-3.393a1.16 1.16 0 0 1-1.143-1.142c6.844-17.446 6.078-21.342-.742-38.788h-3.793c-2.742.046-2.56-2.605-1.417-4.455l3.747-6.044c-17.331-2.525-30.744-26.917-30.744-48.236 0-23.044 15.664-41.712 34.96-41.712zm6.296 13.893a2 2 0 0 1 1.896-3.519c3.348 1.805 6.695 4.478 9.62 7.506 3.016 3.119 5.587 6.626 7.22 9.94a1.995 1.995 0 0 1-3.576 1.77c-1.462-2.947-3.781-6.1-6.523-8.945-2.639-2.742-5.656-5.153-8.637-6.752"/><path fill="#ff9aa1" d="M141.544 234.306c18.779 0 33.961 18.135 33.961 40.52 0 20.666-12.951 44.328-29.71 46.858l3.263 5.66c2.053 3.563.899 4.539-2.619 4.539h-2.142c6.703 16.948 7.28 20.732.721 37.68 0 .599-.51 1.109-1.11 1.109h-3.296c-.599 0-1.11-.51-1.11-1.109 6.648-16.948 5.905-20.732-.721-37.68h-3.685c-2.663.045-2.486-2.53-1.376-4.328l3.64-5.871c-16.836-2.453-29.866-26.148-29.866-46.858 0-22.385 15.216-40.52 33.962-40.52zm6.116 13.496a1.942 1.942 0 0 1 1.842-3.419c3.252 1.754 6.504 4.351 9.345 7.292 2.93 3.03 5.427 6.437 7.014 9.656a1.939 1.939 0 0 1-3.474 1.72c-1.42-2.863-3.673-5.927-6.337-8.69-2.564-2.664-5.494-5.005-8.39-6.559"/><path fill="#ffdb9a" d="M759.041 300.306c17.397 0 31.464 16.801 31.464 37.541 0 19.146-12 41.068-27.526 43.412l3.023 5.244c1.902 3.301.833 4.206-2.427 4.206h-1.984c6.21 15.701 6.745 19.207.668 34.908 0 .555-.473 1.028-1.028 1.028h-3.054a1.045 1.045 0 0 1-1.028-1.028c6.159-15.701 5.47-19.207-.669-34.908h-3.413c-2.468.041-2.304-2.345-1.275-4.011l3.372-5.439c-15.598-2.272-27.67-24.225-27.67-43.412 0-20.74 14.097-37.541 31.464-37.541zm5.665 12.503a1.799 1.799 0 0 1 1.707-3.167c3.013 1.625 6.026 4.031 8.658 6.756 2.714 2.807 5.028 5.964 6.498 8.946a1.795 1.795 0 0 1-3.218 1.593c-1.316-2.652-3.404-5.49-5.871-8.051-2.376-2.467-5.09-4.637-7.774-6.077"/><path fill="#ff9aa0" d="M715.54 545.306c17.121 0 30.964 16.535 30.964 36.945 0 18.842-11.809 40.416-27.088 42.723l2.975 5.161c1.872 3.248.819 4.139-2.389 4.139h-1.953c6.112 15.452 6.639 18.902.658 34.354 0 .547-.465 1.012-1.012 1.012h-3.005a1.03 1.03 0 0 1-1.012-1.012c6.061-15.452 5.383-18.902-.658-34.354h-3.359c-2.429.04-2.267-2.308-1.255-3.947l3.319-5.353c-15.351-2.236-27.231-23.841-27.231-42.723 0-20.41 13.874-36.945 30.965-36.945zm5.576 12.305a1.77 1.77 0 1 1 1.679-3.117c2.965 1.599 5.93 3.967 8.521 6.649 2.671 2.762 4.948 5.869 6.395 8.803a1.767 1.767 0 0 1-3.167 1.569c-1.296-2.611-3.35-5.404-5.778-7.924-2.338-2.428-5.009-4.563-7.65-5.98"/><path fill="#ffb39a" d="M643.052 157.306c21.817 0 39.455 21.068 39.455 47.075 0 24.008-15.047 51.498-34.516 54.438l3.79 6.575c2.386 4.139 1.045 5.274-3.042 5.274h-2.489c7.788 19.689 8.458 24.085.838 43.774a1.31 1.31 0 0 1-1.289 1.29h-3.83a1.31 1.31 0 0 1-1.289-1.29c7.723-19.689 6.859-24.085-.838-43.774h-4.281c-3.094.052-2.888-2.94-1.599-5.029l4.229-6.82c-19.559-2.85-34.697-30.378-34.697-54.438 0-26.007 17.678-47.075 39.455-47.075zm7.105 15.679a2.256 2.256 0 1 1 2.14-3.971c3.778 2.037 7.556 5.054 10.857 8.471 3.404 3.52 6.305 7.478 8.149 11.217a2.254 2.254 0 0 1-4.036 1.999c-1.651-3.327-4.268-6.885-7.362-10.096-2.979-3.094-6.383-5.815-9.748-7.62"/><path fill="#ffcd9a" d="M357.55 804.306c20.988 0 37.957 20.268 37.957 45.288 0 23.096-14.476 49.542-33.206 52.37l3.647 6.326c2.295 3.982 1.005 5.073-2.928 5.073h-2.394c7.492 18.941 8.138 23.171.807 42.112 0 .67-.571 1.24-1.241 1.24h-3.684c-.67 0-1.24-.57-1.24-1.24 7.43-18.941 6.599-23.171-.806-42.112h-4.119c-2.977.05-2.778-2.828-1.538-4.838l4.069-6.561c-18.817-2.742-33.38-29.224-33.38-52.37 0-25.02 17.006-45.288 37.957-45.288zm6.835 15.084a2.171 2.171 0 0 1 2.059-3.821c3.634 1.96 7.269 4.862 10.444 8.15 3.275 3.386 6.066 7.194 7.84 10.791a2.167 2.167 0 0 1-3.883 1.923c-1.588-3.201-4.106-6.624-7.083-9.713-2.865-2.977-6.14-5.594-9.377-7.33"/><path fill="#fff19a" d="M432.049 861.306c20.712 0 37.458 20.002 37.458 44.692 0 22.792-14.286 48.89-32.769 51.681l3.599 6.243c2.264 3.929.991 5.006-2.889 5.006h-2.363c7.394 18.692 8.03 22.866.796 41.562 0 .66-.563 1.22-1.224 1.22h-3.636a1.24 1.24 0 0 1-1.224-1.22c7.332-18.696 6.512-22.87-.796-41.562h-4.064c-2.937.049-2.741-2.791-1.517-4.774l4.015-6.475c-18.57-2.706-32.941-28.84-32.941-51.681 0-24.69 16.783-44.692 37.458-44.692zm6.745 14.885a2.142 2.142 0 0 1 2.032-3.77c3.587 1.934 7.173 4.798 10.307 8.042 3.232 3.342 5.986 7.1 7.736 10.65a2.138 2.138 0 0 1-3.831 1.897c-1.567-3.158-4.052-6.537-6.99-9.585-2.827-2.937-6.059-5.52-9.254-7.234"/><path fill="#ffd49a" d="M462.544 163.306c18.779 0 33.961 18.135 33.961 40.52 0 20.666-12.951 44.328-29.71 46.858l3.263 5.66c2.053 3.563.899 4.539-2.619 4.539h-2.142c6.703 16.948 7.28 20.732.721 37.68 0 .599-.51 1.109-1.11 1.109h-3.296c-.599 0-1.11-.51-1.11-1.109 6.648-16.948 5.905-20.732-.721-37.68h-3.685c-2.663.045-2.486-2.53-1.376-4.328l3.64-5.871c-16.836-2.453-29.866-26.148-29.866-46.858 0-22.385 15.216-40.52 33.962-40.52zm6.116 13.496a1.942 1.942 0 0 1 1.842-3.419c3.252 1.754 6.504 4.351 9.345 7.292 2.93 3.03 5.427 6.437 7.014 9.656a1.939 1.939 0 0 1-3.474 1.72c-1.42-2.863-3.673-5.927-6.337-8.69-2.564-2.664-5.494-5.005-8.39-6.559"/><path fill="#cbff9a" d="M279.034 177.645c17.122 0 30.965 16.535 30.965 36.945 0 18.842-11.809 40.416-27.089 42.723l2.975 5.161c1.872 3.248.82 4.139-2.388 4.139h-1.953c6.112 15.452 6.638 18.903.658 34.354 0 .547-.466 1.012-1.012 1.012h-3.006a1.03 1.03 0 0 1-1.012-1.012c6.062-15.451 5.384-18.902-.657-34.354h-3.36c-2.429.04-2.267-2.307-1.255-3.947l3.319-5.353c-15.35-2.236-27.23-23.84-27.23-42.723 0-20.41 13.873-36.945 30.964-36.945zm5.576 12.305a1.77 1.77 0 1 1 1.68-3.116c2.965 1.598 5.93 3.966 8.52 6.648 2.671 2.762 4.948 5.869 6.395 8.804a1.767 1.767 0 0 1-3.167 1.568c-1.295-2.611-3.349-5.404-5.778-7.923-2.338-2.429-5.009-4.564-7.65-5.981"/><path fill="#ff9aa4" d="M788.532 688.29c18.226 0 32.962 17.601 32.962 39.328 0 20.058-12.571 43.024-28.836 45.48l3.167 5.494c1.993 3.457.872 4.405-2.542 4.405h-2.079c6.506 16.449 7.066 20.122.7 36.571 0 .582-.496 1.077-1.077 1.077h-3.2a1.095 1.095 0 0 1-1.077-1.077c6.452-16.449 5.731-20.122-.7-36.571h-3.576c-2.586.043-2.413-2.456-1.336-4.201l3.533-5.698c-16.341-2.381-28.987-25.379-28.987-45.48 0-21.727 14.768-39.328 32.962-39.328zm5.935 13.099a1.884 1.884 0 0 1 1.789-3.318c3.156 1.702 6.312 4.223 9.07 7.077 2.843 2.941 5.267 6.248 6.808 9.372a1.881 1.881 0 0 1-3.372 1.669c-1.379-2.779-3.566-5.752-6.151-8.434-2.488-2.585-5.332-4.858-8.144-6.366"/><path fill="#ffb69a" d="M348.555 651.891c21.264 0 38.456 20.535 38.456 45.884 0 23.4-14.666 50.194-33.642 53.059l3.694 6.409c2.325 4.034 1.018 5.14-2.965 5.14h-2.426c7.591 19.191 8.244 23.476.817 42.666 0 .679-.578 1.257-1.257 1.257H347.5a1.277 1.277 0 0 1-1.257-1.257c7.528-19.19 6.686-23.475-.817-42.666h-4.172c-3.016.051-2.815-2.865-1.559-4.901l4.123-6.648c-19.065-2.777-33.819-29.609-33.819-53.059 0-25.349 17.23-45.884 38.456-45.884zm6.925 15.282a2.198 2.198 0 1 1 2.086-3.87c3.682 1.985 7.365 4.926 10.582 8.256 3.318 3.431 6.145 7.289 7.942 10.934a2.195 2.195 0 0 1-3.933 1.948c-1.609-3.243-4.16-6.711-7.176-9.84-2.903-3.017-6.221-5.668-9.501-7.428"/><path fill="#beff9a" d="M716.052 790.306c21.817 0 39.455 21.068 39.455 47.075 0 24.008-15.047 51.498-34.516 54.438l3.79 6.575c2.386 4.139 1.045 5.274-3.042 5.274h-2.489c7.788 19.689 8.458 24.085.838 43.774a1.31 1.31 0 0 1-1.289 1.29h-3.83a1.31 1.31 0 0 1-1.289-1.29c7.723-19.689 6.859-24.085-.838-43.774h-4.281c-3.094.052-2.888-2.94-1.599-5.029l4.229-6.82c-19.559-2.85-34.697-30.378-34.697-54.438 0-26.007 17.678-47.075 39.455-47.075zm7.105 15.679a2.256 2.256 0 1 1 2.14-3.971c3.778 2.037 7.556 5.054 10.857 8.471 3.404 3.52 6.305 7.478 8.149 11.217a2.254 2.254 0 0 1-4.036 1.999c-1.651-3.327-4.268-6.885-7.362-10.096-2.979-3.094-6.383-5.815-9.748-7.62"/><path fill="#b6ff9a" d="M660.046 424.435c22.092 0 39.954 21.335 39.954 47.671 0 24.312-15.237 52.15-34.953 55.127l3.839 6.659c2.415 4.191 1.057 5.34-3.082 5.34h-2.52c7.887 19.938 8.566 24.391.849 44.329 0 .705-.601 1.305-1.306 1.305h-3.878c-.705 0-1.305-.6-1.305-1.305 7.821-19.938 6.946-24.391-.849-44.329h-4.335c-3.134.052-2.925-2.977-1.619-5.092l4.283-6.907c-19.808-2.886-35.137-30.762-35.137-55.127 0-26.336 17.901-47.671 39.955-47.671zm7.194 15.878a2.286 2.286 0 0 1 2.168-4.022c3.826 2.063 7.651 5.118 10.994 8.579 3.447 3.564 6.385 7.573 8.252 11.359a2.281 2.281 0 0 1-4.087 2.024c-1.671-3.369-4.322-6.973-7.456-10.224-3.016-3.133-6.463-5.888-9.871-7.716"/><path fill="#ffd89a" d="M155.541 704.306c17.674 0 31.964 17.068 31.964 38.137 0 19.45-12.19 41.719-27.963 44.101l3.071 5.327c1.932 3.353.846 4.273-2.465 4.273h-2.016c6.309 15.95 6.852 19.512.679 35.462 0 .564-.481 1.045-1.045 1.045h-3.102a1.06 1.06 0 0 1-1.045-1.045c6.257-15.95 5.557-19.512-.679-35.462h-3.468c-2.506.041-2.339-2.382-1.295-4.074l3.426-5.526c-15.846-2.308-28.109-24.61-28.109-44.101 0-21.069 14.321-38.137 31.964-38.137zm5.756 12.702a1.827 1.827 0 1 1 1.734-3.217c3.06 1.65 6.121 4.094 8.795 6.862 2.758 2.852 5.108 6.059 6.602 9.088a1.825 1.825 0 0 1-3.27 1.619c-1.337-2.695-3.457-5.578-5.964-8.179-2.413-2.507-5.171-4.711-7.897-6.173"/><path fill="#ffbc9a" d="M549.048 318.306c20.159 0 36.458 19.468 36.458 43.5 0 22.185-13.904 47.586-31.895 50.303l3.503 6.076c2.204 3.825.965 4.873-2.812 4.873h-2.299c7.196 18.194 7.816 22.256.774 40.45a1.21 1.21 0 0 1-1.191 1.191h-3.539a1.21 1.21 0 0 1-1.191-1.191c7.136-18.194 6.338-22.256-.775-40.45h-3.955c-2.86.048-2.669-2.716-1.478-4.646l3.908-6.303c-18.074-2.633-32.062-28.071-32.062-50.303 0-24.032 16.335-43.5 36.459-43.5zm6.565 14.488a2.085 2.085 0 0 1 1.978-3.67c3.491 1.883 6.982 4.671 10.032 7.828 3.145 3.253 5.826 6.911 7.53 10.366a2.082 2.082 0 0 1-3.73 1.847c-1.525-3.074-3.943-6.363-6.803-9.329-2.752-2.86-5.897-5.374-9.007-7.042"/><path fill="#d8ff9a" d="M965.55 26.306c20.988 0 37.96 20.268 37.96 45.288 0 23.096-14.479 49.542-33.209 52.37l3.647 6.326c2.295 3.982 1.005 5.073-2.928 5.073h-2.394c7.492 18.941 8.138 23.171.807 42.112 0 .67-.571 1.24-1.241 1.24h-3.684c-.67 0-1.24-.57-1.24-1.24 7.43-18.941 6.599-23.171-.806-42.112h-4.119c-2.977.05-2.778-2.828-1.538-4.838l4.069-6.561c-18.817-2.742-33.38-29.224-33.38-52.37 0-25.02 17.006-45.288 37.957-45.288zm6.835 15.083a2.17 2.17 0 0 1 2.059-3.82c3.634 1.96 7.269 4.862 10.444 8.15 3.275 3.386 6.066 7.194 7.84 10.791a2.167 2.167 0 0 1-3.883 1.923c-1.588-3.2-4.106-6.624-7.083-9.713-2.865-2.977-6.14-5.594-9.377-7.33Z"/><path fill="#ff9ac7" d="M758.047 385.306c19.606 0 35.459 18.935 35.459 42.308 0 21.577-13.523 46.283-31.021 48.925l3.407 5.91c2.143 3.72.938 4.739-2.735 4.739h-2.237c7 17.695 7.602 21.647.754 39.342 0 .625-.533 1.159-1.159 1.159h-3.442a1.18 1.18 0 0 1-1.159-1.159c6.942-17.695 6.165-21.647-.753-39.342h-3.847c-2.781.047-2.596-2.642-1.437-4.519l3.801-6.13c-17.579-2.561-31.184-27.302-31.184-48.925 0-23.373 15.888-42.308 35.46-42.308zm6.385 14.091a2.027 2.027 0 1 1 1.923-3.569c3.395 1.831 6.791 4.543 9.757 7.613 3.06 3.164 5.667 6.721 7.324 10.082a2.025 2.025 0 0 1-3.627 1.796c-1.483-2.99-3.836-6.188-6.617-9.073-2.677-2.781-5.736-5.226-8.76-6.849"/><path fill="#e0ff9a" d="M573.538 806.306c16.57 0 29.966 16.001 29.966 35.753 0 18.234-11.428 39.112-26.215 41.345l2.879 4.994c1.812 3.144.793 4.006-2.311 4.006h-1.89c5.915 14.953 6.424 18.293.637 33.246a.995.995 0 0 1-.98.979h-2.908a.994.994 0 0 1-.979-.979c5.865-14.953 5.209-18.293-.637-33.246h-3.251c-2.35.039-2.194-2.233-1.214-3.819l3.212-5.181c-14.856-2.164-26.353-23.071-26.353-41.345 0-19.752 13.426-35.753 29.966-35.753zm5.396 11.908a1.713 1.713 0 1 1 1.626-3.016c2.869 1.547 5.738 3.839 8.245 6.434 2.586 2.673 4.789 5.679 6.189 8.519a1.711 1.711 0 0 1-3.065 1.518c-1.253-2.526-3.241-5.229-5.591-7.667-2.263-2.351-4.848-4.417-7.404-5.788"/><path fill="#ffe59a" d="M540.049 17.306c20.712 0 37.458 20.002 37.458 44.692 0 22.792-14.286 48.89-32.769 51.681l3.599 6.243c2.264 3.929.991 5.006-2.889 5.006h-2.363c7.394 18.692 8.03 22.866.796 41.558 0 .661-.563 1.224-1.224 1.224h-3.636a1.244 1.244 0 0 1-1.224-1.224c7.332-18.692 6.512-22.866-.796-41.558h-4.064c-2.937.049-2.741-2.791-1.517-4.774l4.015-6.475c-18.57-2.706-32.941-28.84-32.941-51.681 0-24.69 16.783-44.692 37.458-44.692zm6.745 14.885a2.142 2.142 0 0 1 2.032-3.77c3.587 1.934 7.173 4.798 10.307 8.042 3.232 3.342 5.986 7.1 7.736 10.65a2.138 2.138 0 0 1-3.831 1.897c-1.567-3.158-4.052-6.537-6.99-9.585-2.827-2.937-6.059-5.52-9.254-7.234"/><path fill="#b5ff9a" d="M769.039 547.306c16.846 0 30.465 16.268 30.465 36.349 0 18.538-11.618 39.764-26.652 42.034l2.927 5.078c1.842 3.196.807 4.072-2.349 4.072h-1.922c6.014 15.202 6.531 18.597.647 33.8 0 .538-.458.996-.995.996h-2.957c-.538 0-.996-.458-.996-.996 5.964-15.203 5.297-18.598-.647-33.8h-3.305c-2.39.039-2.23-2.27-1.235-3.883l3.266-5.267c-15.103-2.2-26.792-23.456-26.792-42.034 0-20.081 13.65-36.349 30.466-36.349zm5.486 12.107a1.743 1.743 0 0 1 1.653-3.067c2.917 1.573 5.834 3.903 8.382 6.541 2.629 2.718 4.869 5.775 6.293 8.662a1.74 1.74 0 0 1-3.117 1.543c-1.274-2.569-3.295-5.316-5.684-7.796-2.3-2.389-4.929-4.49-7.527-5.883"/><path fill="#c4ff9a" d="M937.543 475.519c20.711 0 37.457 20.001 37.457 44.691 0 22.793-14.285 48.891-32.769 51.681l3.599 6.243c2.264 3.93.991 5.007-2.889 5.007h-2.362c7.393 18.692 8.03 22.866.795 41.558 0 .661-.563 1.224-1.224 1.224h-3.635a1.244 1.244 0 0 1-1.224-1.224c7.332-18.692 6.512-22.866-.796-41.558h-4.064c-2.938.049-2.742-2.791-1.518-4.774l4.015-6.476c-18.569-2.705-32.94-28.839-32.94-51.681 0-24.69 16.782-44.691 37.457-44.691zm6.745 14.885a2.141 2.141 0 1 1 2.032-3.77c3.586 1.934 7.173 4.798 10.306 8.042 3.232 3.342 5.986 7.1 7.737 10.649a2.14 2.14 0 0 1-3.832 1.898c-1.567-3.158-4.051-6.537-6.989-9.585-2.828-2.938-6.06-5.52-9.254-7.234"/><path fill="#c0ff9a" d="M396.55 384.306c20.988 0 37.957 20.268 37.957 45.288 0 23.096-14.476 49.542-33.206 52.37l3.647 6.326c2.295 3.982 1.005 5.073-2.928 5.073h-2.394c7.492 18.941 8.138 23.171.807 42.112 0 .67-.571 1.24-1.241 1.24h-3.684c-.67 0-1.24-.57-1.24-1.24 7.43-18.941 6.599-23.171-.806-42.112h-4.119c-2.977.05-2.778-2.828-1.538-4.838l4.069-6.561c-18.817-2.742-33.38-29.224-33.38-52.37 0-25.02 17.006-45.288 37.957-45.288zm6.835 15.084a2.171 2.171 0 0 1 2.059-3.821c3.634 1.96 7.269 4.862 10.444 8.15 3.275 3.386 6.066 7.194 7.84 10.791a2.167 2.167 0 0 1-3.883 1.923c-1.588-3.201-4.106-6.624-7.083-9.713-2.865-2.977-6.14-5.594-9.377-7.33"/><path fill="#d6ff9a" d="M828.538 130.306c16.57 0 29.966 16.001 29.966 35.753 0 18.234-11.428 39.112-26.215 41.345l2.879 4.994c1.812 3.144.793 4.006-2.311 4.006h-1.89c5.915 14.953 6.424 18.293.637 33.246a.995.995 0 0 1-.98.979h-2.908a.994.994 0 0 1-.979-.979c5.865-14.953 5.209-18.293-.637-33.246h-3.251c-2.35.039-2.194-2.233-1.214-3.819l3.212-5.181c-14.856-2.164-26.353-23.071-26.353-41.345 0-19.752 13.426-35.753 29.966-35.753zm5.396 11.908a1.713 1.713 0 1 1 1.626-3.016c2.869 1.547 5.738 3.839 8.245 6.434 2.586 2.673 4.789 5.679 6.189 8.519a1.711 1.711 0 0 1-3.065 1.518c-1.253-2.526-3.241-5.229-5.591-7.667-2.263-2.351-4.848-4.417-7.404-5.788"/><path fill="#ffde9a" d="M287.549 512c18.502 0 33.462 17.868 33.462 39.924 0 20.362-12.762 43.676-29.274 46.169l3.215 5.577c2.023 3.51.886 4.472-2.581 4.472h-2.11c6.605 16.698 7.173 20.427.711 37.125 0 .591-.503 1.094-1.094 1.094h-3.248c-.59 0-1.093-.503-1.093-1.094 6.55-16.698 5.817-20.427-.711-37.125h-3.63c-2.625.044-2.45-2.493-1.356-4.264l3.586-5.785C266.838 595.676 254 572.33 254 551.924 254 529.868 268.992 512 287.462 512zm6.025 13.297a1.912 1.912 0 1 1 1.816-3.368c3.204 1.728 6.408 4.287 9.207 7.185 2.887 2.985 5.347 6.342 6.911 9.513a1.91 1.91 0 0 1-3.423 1.695c-1.399-2.821-3.619-5.839-6.244-8.562-2.526-2.625-5.413-4.932-8.267-6.463"/><path fill="#b5ff9a" d="M921.052 838.338c17.397 0 31.464 16.802 31.464 37.541 0 19.146-12 41.068-27.526 43.412l3.023 5.244c1.902 3.301.833 4.206-2.427 4.206h-1.984c6.21 15.701 6.745 19.207.668 34.909 0 .555-.473 1.028-1.028 1.028h-3.054a1.045 1.045 0 0 1-1.028-1.028c6.159-15.702 5.47-19.208-.669-34.909h-3.413c-2.468.041-2.304-2.344-1.275-4.01l3.372-5.44c-15.598-2.272-27.67-24.225-27.67-43.412 0-20.739 14.098-37.541 31.464-37.541zm5.665 12.504a1.8 1.8 0 0 1 1.707-3.167c3.013 1.624 6.026 4.03 8.658 6.755 2.714 2.807 5.028 5.964 6.498 8.946a1.795 1.795 0 0 1-3.218 1.594c-1.316-2.653-3.403-5.491-5.871-8.051-2.375-2.468-5.09-4.638-7.774-6.077"/><path fill="#ff9e9a" d="M111.539 363.476c19.055 0 34.461 18.401 34.461 41.116 0 20.969-13.143 44.979-30.148 47.547l3.311 5.743c2.083 3.615.912 4.606-2.658 4.606h-2.173c6.802 17.197 7.387 21.037.732 38.233 0 .608-.518 1.126-1.126 1.126h-3.345a1.144 1.144 0 0 1-1.126-1.126c6.746-17.196 5.991-21.036-.732-38.233h-3.739c-2.703.045-2.523-2.568-1.397-4.392l3.694-5.957c-17.084-2.489-30.305-26.533-30.305-47.547 0-22.715 15.44-41.116 34.461-41.116zm6.205 13.694a1.97 1.97 0 0 1 1.87-3.469c3.299 1.78 6.599 4.415 9.482 7.399 2.973 3.075 5.507 6.532 7.117 9.798a1.967 1.967 0 0 1-3.525 1.745c-1.441-2.905-3.727-6.013-6.43-8.817-2.602-2.703-5.575-5.079-8.514-6.656"/><path fill="#ff9aa4" d="M218.544 675.306c18.779 0 33.961 18.135 33.961 40.52 0 20.666-12.951 44.328-29.71 46.858l3.263 5.66c2.053 3.563.899 4.539-2.619 4.539h-2.142c6.703 16.948 7.28 20.732.721 37.68 0 .599-.51 1.109-1.11 1.109h-3.296c-.599 0-1.11-.51-1.11-1.109 6.648-16.948 5.905-20.732-.721-37.68h-3.685c-2.663.045-2.486-2.53-1.376-4.328l3.64-5.871c-16.836-2.453-29.866-26.148-29.866-46.858 0-22.385 15.216-40.52 33.962-40.52zm6.116 13.496a1.942 1.942 0 0 1 1.842-3.419c3.252 1.754 6.504 4.351 9.345 7.292 2.93 3.03 5.427 6.437 7.014 9.656a1.939 1.939 0 0 1-3.474 1.72c-1.42-2.863-3.673-5.927-6.337-8.69-2.564-2.664-5.494-5.005-8.39-6.559"/><path fill="#ffce9a" d="M770.54 835.306c17.121 0 30.964 16.535 30.964 36.945 0 18.842-11.809 40.416-27.088 42.723l2.975 5.161c1.872 3.248.819 4.139-2.389 4.139h-1.953c6.112 15.452 6.639 18.902.658 34.354 0 .547-.465 1.012-1.012 1.012h-3.005a1.03 1.03 0 0 1-1.012-1.012c6.061-15.452 5.383-18.902-.658-34.354h-3.359c-2.429.04-2.267-2.308-1.255-3.947l3.319-5.353c-15.351-2.236-27.231-23.841-27.231-42.723 0-20.41 13.874-36.945 30.965-36.945zm5.576 12.305a1.77 1.77 0 1 1 1.679-3.117c2.965 1.599 5.93 3.967 8.521 6.649 2.671 2.762 4.948 5.869 6.395 8.803a1.767 1.767 0 0 1-3.167 1.569c-1.296-2.611-3.35-5.404-5.778-7.924-2.338-2.428-5.009-4.563-7.65-5.98"/><path fill="#ff9aae" d="M559.549 688.29c20.435 0 36.958 19.735 36.958 44.096 0 22.488-14.095 48.238-32.332 50.992l3.551 6.159c2.234 3.877.978 4.94-2.851 4.94h-2.331c7.295 18.443 7.923 22.561.785 41.004 0 .652-.555 1.208-1.207 1.208h-3.587a1.227 1.227 0 0 1-1.208-1.208c7.234-18.443 6.425-22.561-.785-41.004h-4.01c-2.899.048-2.705-2.754-1.498-4.71l3.962-6.389c-18.322-2.67-32.501-28.455-32.501-50.992 0-24.361 16.558-44.096 36.957-44.096zm6.655 14.686a2.113 2.113 0 0 1 2.005-3.72c3.539 1.909 7.077 4.735 10.169 7.936 3.189 3.297 5.906 7.005 7.633 10.507a2.11 2.11 0 0 1-3.78 1.872c-1.546-3.116-3.998-6.449-6.896-9.457-2.79-2.898-5.979-5.447-9.131-7.138"/><path fill="#c2ff9a" d="M852.048 487.32c20.712 0 37.457 20.001 37.457 44.691 0 22.793-14.285 48.89-32.768 51.681l3.598 6.243c2.265 3.929.992 5.007-2.888 5.007h-2.363c7.394 18.691 8.03 22.866.796 41.557 0 .661-.563 1.225-1.224 1.225h-3.636a1.245 1.245 0 0 1-1.224-1.225c7.332-18.691 6.512-22.866-.796-41.557h-4.064c-2.937.049-2.742-2.791-1.518-4.774l4.015-6.476c-18.569-2.705-32.94-28.839-32.94-51.681 0-24.69 16.783-44.691 37.457-44.691zm6.745 14.885a2.143 2.143 0 0 1 2.032-3.771c3.587 1.934 7.173 4.799 10.307 8.043 3.231 3.341 5.986 7.099 7.736 10.649a2.137 2.137 0 0 1-3.831 1.898c-1.567-3.159-4.052-6.537-6.99-9.585-2.827-2.938-6.059-5.521-9.254-7.234"/><path fill="#ffb59a" d="M281.045 826.306c19.055 0 34.461 18.402 34.461 41.116 0 20.969-13.143 44.979-30.148 47.547l3.311 5.743c2.084 3.615.912 4.606-2.658 4.606h-2.173c6.802 17.197 7.388 21.037.732 38.234 0 .608-.518 1.126-1.126 1.126h-3.345a1.144 1.144 0 0 1-1.126-1.126c6.746-17.197 5.991-21.037-.732-38.234h-3.739c-2.703.045-2.523-2.567-1.396-4.392l3.693-5.957c-17.083-2.489-30.305-26.532-30.305-47.547 0-22.714 15.44-41.116 34.461-41.116zM287.25 840a1.969 1.969 0 1 1 1.87-3.468c3.299 1.779 6.599 4.414 9.482 7.399 2.973 3.074 5.507 6.531 7.117 9.797a1.967 1.967 0 0 1-3.525 1.746c-1.441-2.906-3.727-6.014-6.43-8.818-2.601-2.703-5.575-5.079-8.514-6.656"/><path fill="#ff9aa0" d="M573.547 102.306c19.883 0 35.959 19.202 35.959 42.904 0 21.881-13.714 46.935-31.458 49.614l3.455 5.993c2.174 3.772.952 4.806-2.773 4.806h-2.268c7.097 17.944 7.708 21.952.763 39.896 0 .634-.54 1.175-1.175 1.175h-3.49a1.195 1.195 0 0 1-1.175-1.175c7.039-17.944 6.252-21.952-.764-39.896h-3.901c-2.821.047-2.633-2.679-1.457-4.583l3.854-6.216c-17.827-2.597-31.623-27.686-31.623-49.614 0-23.702 16.111-42.904 35.959-42.904zm6.475 14.29a2.056 2.056 0 0 1 1.951-3.62c3.443 1.857 6.886 4.607 9.894 7.721 3.103 3.208 5.747 6.816 7.427 10.223a2.053 2.053 0 0 1-3.678 1.822c-1.504-3.032-3.89-6.275-6.71-9.201-2.714-2.821-5.817-5.3-8.884-6.945"/><path fill="#ffeb9a" d="M467.541 494.134c17.674 0 31.964 17.068 31.964 38.137 0 19.449-12.19 41.719-27.963 44.101l3.071 5.327c1.932 3.353.846 4.272-2.465 4.272h-2.016c6.309 15.951 6.852 19.513.679 35.463 0 .564-.481 1.044-1.045 1.044h-3.102c-.564 0-1.045-.48-1.045-1.044 6.257-15.95 5.557-19.512-.679-35.463h-3.468c-2.506.042-2.339-2.381-1.295-4.074l3.426-5.525c-15.846-2.309-28.109-24.61-28.109-44.101 0-21.069 14.321-38.137 31.964-38.137zm5.756 12.702a1.827 1.827 0 1 1 1.734-3.218c3.06 1.651 6.121 4.095 8.795 6.863 2.758 2.852 5.108 6.059 6.602 9.088a1.825 1.825 0 0 1-3.27 1.619c-1.337-2.695-3.457-5.578-5.964-8.179-2.413-2.507-5.171-4.711-7.897-6.173"/><path fill="#ffb49a" d="M58.535 634.645c19.884 0 35.96 19.202 35.96 42.904 0 21.881-13.714 46.935-31.459 49.614l3.455 5.993c2.174 3.772.952 4.807-2.773 4.807H61.45c7.098 17.944 7.709 21.951.764 39.895 0 .635-.54 1.175-1.175 1.175h-3.49c-.635 0-1.176-.54-1.176-1.175 7.04-17.944 6.252-21.951-.764-39.895h-3.901c-2.82.047-2.632-2.68-1.457-4.583l3.854-6.217c-17.826-2.597-31.622-27.686-31.622-49.614 0-23.702 16.11-42.904 35.959-42.904zm6.475 14.29a2.056 2.056 0 0 1 1.951-3.619c3.443 1.856 6.886 4.606 9.895 7.72 3.102 3.208 5.746 6.816 7.427 10.224a2.052 2.052 0 0 1-3.679 1.821c-1.504-3.032-3.89-6.275-6.71-9.201-2.714-2.82-5.817-5.3-8.884-6.945"/><path fill="#ffaa9a" d="M700.048 221.306c20.159 0 36.458 19.468 36.458 43.5 0 22.185-13.904 47.586-31.895 50.303l3.503 6.076c2.204 3.825.965 4.873-2.812 4.873h-2.299c7.196 18.194 7.816 22.256.774 40.45a1.21 1.21 0 0 1-1.191 1.191h-3.539a1.21 1.21 0 0 1-1.191-1.191c7.136-18.194 6.338-22.256-.775-40.45h-3.955c-2.86.048-2.669-2.716-1.478-4.646l3.908-6.303c-18.074-2.633-32.062-28.071-32.062-50.303 0-24.032 16.335-43.5 36.459-43.5zm6.565 14.488a2.085 2.085 0 0 1 1.978-3.67c3.491 1.883 6.982 4.671 10.032 7.828 3.145 3.253 5.826 6.911 7.53 10.366a2.082 2.082 0 0 1-3.73 1.847c-1.525-3.074-3.943-6.363-6.803-9.329-2.752-2.86-5.897-5.374-9.007-7.042"/><path fill="#ff9abd" d="M128.044 720.306c18.502 0 33.461 17.868 33.461 39.925 0 20.361-12.761 43.675-29.273 46.168l3.215 5.577c2.023 3.51.885 4.472-2.581 4.472h-2.11c6.604 16.698 7.173 20.427.71 37.125 0 .591-.503 1.094-1.093 1.094h-3.248c-.59 0-1.093-.503-1.093-1.094 6.55-16.698 5.817-20.427-.711-37.125h-3.631c-2.624.044-2.449-2.493-1.356-4.264l3.587-5.785c-16.589-2.417-29.427-25.763-29.427-46.168 0-22.057 14.993-39.925 33.462-39.925zm6.025 13.297a1.913 1.913 0 1 1 1.815-3.368c3.204 1.728 6.408 4.287 9.208 7.185 2.886 2.985 5.347 6.342 6.911 9.513a1.91 1.91 0 0 1-3.423 1.695c-1.4-2.821-3.62-5.839-6.244-8.562-2.526-2.624-5.413-4.932-8.267-6.463"/><path fill="#d7ff9a" d="M876.537 678.314c17.95 0 32.463 17.335 32.463 38.733 0 19.753-12.381 42.371-28.4 44.79l3.119 5.411c1.963 3.405.859 4.339-2.504 4.339h-2.047c6.407 16.199 6.959 19.817.689 36.016 0 .573-.488 1.061-1.061 1.061h-3.15a1.08 1.08 0 0 1-1.061-1.061c6.354-16.199 5.644-19.817-.69-36.016h-3.522c-2.546.042-2.376-2.419-1.315-4.138l3.479-5.612c-16.093-2.344-28.548-24.994-28.548-44.79 0-21.398 14.545-38.733 32.463-38.733zm5.845 12.9a1.856 1.856 0 0 1 1.761-3.267c3.109 1.676 6.217 4.159 8.933 6.97 2.801 2.896 5.188 6.153 6.705 9.23a1.853 1.853 0 0 1-3.321 1.644c-1.358-2.737-3.511-5.665-6.058-8.307-2.45-2.546-5.251-4.784-8.02-6.27"/><path fill="#ff9a9c" d="M300.036 312.11c20.159 0 36.458 19.468 36.458 43.499 0 22.185-13.904 47.587-31.895 50.303l3.503 6.077c2.204 3.824.965 4.873-2.812 4.873h-2.299c7.196 18.193 7.816 22.256.774 40.449a1.21 1.21 0 0 1-1.191 1.192h-3.539a1.21 1.21 0 0 1-1.191-1.192c7.137-18.193 6.338-22.256-.775-40.449h-3.955c-2.86.047-2.669-2.717-1.478-4.647l3.908-6.303c-18.074-2.633-32.062-28.07-32.062-50.303 0-24.031 16.335-43.499 36.459-43.499zm6.565 14.488a2.085 2.085 0 0 1 1.978-3.67c3.491 1.882 6.982 4.67 10.032 7.828 3.145 3.252 5.826 6.91 7.53 10.365a2.082 2.082 0 0 1-3.73 1.847c-1.525-3.074-3.943-6.362-6.803-9.329-2.752-2.859-5.897-5.373-9.007-7.041"/><path fill="#ffc09a" d="M596.556 243.897c20.988 0 37.957 20.268 37.957 45.287 0 23.097-14.476 49.542-33.206 52.37l3.647 6.326c2.295 3.982 1.005 5.074-2.927 5.074h-2.394c7.492 18.941 8.137 23.171.806 42.112 0 .67-.571 1.24-1.241 1.24h-3.684a1.26 1.26 0 0 1-1.24-1.24c7.43-18.941 6.599-23.171-.806-42.112h-4.118c-2.977.049-2.779-2.828-1.539-4.838l4.069-6.562c-18.817-2.741-33.379-29.224-33.379-52.37 0-25.019 17.006-45.287 37.956-45.287zm6.835 15.083a2.17 2.17 0 0 1 2.059-3.82c3.635 1.96 7.269 4.862 10.444 8.149 3.275 3.387 6.066 7.195 7.84 10.792a2.166 2.166 0 0 1-3.883 1.922c-1.587-3.2-4.105-6.623-7.082-9.712-2.866-2.977-6.14-5.594-9.378-7.331"/><path fill="#ffeb9a" d="M132.044 166.306c18.502 0 33.461 17.868 33.461 39.925 0 20.361-12.761 43.675-29.273 46.168l3.215 5.577c2.023 3.51.885 4.472-2.581 4.472h-2.11c6.604 16.698 7.173 20.427.71 37.125 0 .591-.503 1.094-1.093 1.094h-3.248c-.59 0-1.093-.503-1.093-1.094 6.55-16.698 5.817-20.427-.711-37.125h-3.631c-2.624.044-2.449-2.493-1.356-4.264l3.587-5.785c-16.589-2.417-29.427-25.763-29.427-46.168 0-22.057 14.993-39.925 33.462-39.925zm6.025 13.297a1.913 1.913 0 1 1 1.815-3.368c3.204 1.728 6.408 4.287 9.208 7.185 2.886 2.985 5.347 6.342 6.911 9.513a1.91 1.91 0 0 1-3.423 1.695c-1.4-2.821-3.62-5.839-6.244-8.562-2.526-2.624-5.413-4.932-8.267-6.463"/></svg>