<svg xmlns="http://www.w3.org/2000/svg" width="3072" height="3072" fill="none" viewBox="0 0 3072 3072"><g clip-path="url(#a)"><g opacity=".65"><path fill="#cbcbcb" d="m542.525 2169.68 886.345-4.38c-1.41-76.6 9.43-165.47 2.19-240.8l6.56 275.83H540.337z"/><path stroke="#c0cdc3" stroke-opacity=".5" stroke-width="4" d="M1435.57 2198.33H542.485l1.903-26.66 884.492-4.37 2.03-.01-.04-2.02c-.51-27.73.59-57.07 1.85-86.84z"/><path fill="#cbcbcb" d="M1426.68 1145.16c51.35 171.74-17.75 311.31-126.93 440.02-93.68 110.43-225.19 190.85-302.017 313.05-10.813-.7-21.937.49-32.827 0-3.566-2.14-2.202-6.86-2.189-10.95.122-37.92 235.873-237.81 275.753-280.21 125.73-133.65 236.33-294.59 175.08-488.18 1.98 5.13 9.17 13.04 13.13 26.27"/><path stroke="#c0cdc3" stroke-opacity=".5" stroke-width="4" d="M1420.26 1134.68c1.65 3.2 3.25 6.85 4.5 11.05 51.07 170.78-17.53 309.66-126.54 438.16-46.73 55.08-102.88 102.67-157.14 151.92-53.91 48.92-105.9 99.45-144.406 160.35-5.122-.26-10.287-.15-15.38-.01-5.32.15-10.554.31-15.727.1-.703-.58-1.025-1.45-1.1-2.87-.044-.84.007-1.77.081-2.82.071-1.01.166-2.16.17-3.27.006-1.92.777-4.59 2.474-8.06 1.678-3.42 4.169-7.44 7.403-11.98 6.465-9.07 15.775-20.09 27.125-32.43 22.69-24.68 53.37-54.51 85.33-84.51 31.96-29.99 65.16-60.13 92.87-85.43 27.68-25.26 49.97-45.77 60.01-56.44 122.21-129.91 230.85-286.31 180.33-473.76Z"/><path fill="#dedede" d="M1413.55 1118.89c61.25 193.59-49.35 354.53-175.08 488.18-39.88 42.4-275.631 242.29-275.753 280.21-.013 4.09-1.378 8.81 2.189 10.95 10.89.49 22.014-.7 32.827 0 140.367 9.07 289.467-13.54 431.137-4.38 4.51 3.2 1.54 23.9 2.19 30.65 7.24 75.33-3.61 164.2-2.19 240.81l-886.345 4.37-17.508-6.56c-2.966-7.54-2.397-150.55 0-162 6.257-29.89 158.238-223.56 188.211-258.32 98.443-114.16 406.772-364.45 407.062-505.7.05-24.25-6.48-48.58-17.51-70.05-65.99-128.5-301.825-69.45-286.692 87.57H529.394c-13.196-18.63 21.565-119.96 30.639-144.49 132.695-358.622 718.177-342.596 853.517 8.76"/><path stroke="#c0cdc3" stroke-opacity=".5" stroke-width="4" d="M561.909 1110.83c65.969-178.292 244.561-263.649 423.857-260.561 179.284 3.087 358.584 94.609 425.894 269.291 60.85 192.4-48.96 352.54-174.65 486.14-9.9 10.53-32.04 30.91-59.78 56.23-27.71 25.29-60.94 55.45-92.92 85.47-31.97 30.01-62.74 59.92-85.536 84.71-11.392 12.39-20.832 23.55-27.438 32.82-3.302 4.64-5.928 8.85-7.736 12.54-1.789 3.65-2.874 6.98-2.883 9.81-.003.93-.084 1.9-.16 2.99-.074 1.05-.144 2.2-.085 3.32.119 2.26.801 4.79 3.404 6.35l.434.26.506.03c5.532.24 11.115.07 16.586-.08 5.501-.15 10.899-.27 16.202.07 70.316 4.55 142.786 1.16 215.296-2.22 72.3-3.36 144.62-6.7 215.09-2.2.11.17.25.41.38.75.28.68.5 1.61.67 2.78.35 2.33.42 5.3.37 8.48s-.21 6.45-.33 9.43c-.12 2.9-.19 5.6-.01 7.45 3.61 37.52 2.71 78.45 1.08 119.65-1.6 40.44-3.91 81.17-3.32 118.98l-883.946 4.36-16.174-6.07a28 28 0 0 1-.22-1.64c-.153-1.42-.296-3.31-.427-5.62-.261-4.62-.472-10.85-.635-18.16-.326-14.62-.458-33.55-.422-52.6.035-19.05.238-38.22.582-53.34.172-7.56.379-14.1.617-19.1.242-5.07.51-8.38.77-9.62.705-3.37 3.588-9.4 8.422-17.66 4.781-8.16 11.319-18.27 19.106-29.71 15.57-22.86 36.07-50.93 57.324-79.17 42.516-56.49 87.974-113.56 102.916-130.89 24.542-28.45 62.2-65.43 104.976-107.18 42.746-41.72 90.556-88.15 135.302-135.43 44.738-47.28 86.469-95.47 117.049-140.72 30.52-45.17 50.15-87.72 50.22-123.66.05-24.61-6.57-49.25-17.73-70.97-33.58-65.38-110.203-82.79-176.088-64.3-65.338 18.33-121.027 72.21-114.569 150.78H530.509c-1.032-1.92-1.715-4.81-1.963-8.68-.284-4.43.013-9.88.777-16.06 1.529-12.37 4.893-27.45 8.972-42.78 8.153-30.64 19.09-62.05 23.614-74.27Z"/><path fill="#cbcbcb" d="M1102.78 1167.05c-96.16-81.54-266.996-39.14-266.996 100.7l-306.39-13.13h286.693c-15.132-157.02 220.703-216.07 286.693-87.57"/><path stroke="#c0cdc3" stroke-opacity=".5" stroke-width="4" d="M929.553 1105.69c61.594-17.28 131.827-2.45 166.427 53.38-47.86-35.78-111.048-43.69-163.38-26.58-54.887 17.93-97.959 63.45-98.802 133.18l-211.058-9.05h195.549l-.211-2.19c-7.446-77.27 46.787-130.59 111.475-148.74Z"/></g><g opacity=".65"><mask id="b" fill="#fff"><path d="M1628.02 1188.94c125.32-388.833 631.24-472.159 818.5-113.83 14.53 27.8 24.96 62.08 35.02 91.94 81.32 241.35 82.74 677.64-87.54 882.23-158.88 190.89-473.99 195.66-647.8 24.08-185.63-223.93-204.96-615.16-118.18-884.42M2056.5 1087c-98.03 0-164.5 199.01-164.5 444.5 32 324.5 20 376.5 164.5 424.5 98.03 0 177.5-179.01 177.5-424.5s-79.47-444.5-177.5-444.5"/></mask><path fill="#dedede" d="M1628.02 1188.94c125.32-388.833 631.24-472.159 818.5-113.83 14.53 27.8 24.96 62.08 35.02 91.94 81.32 241.35 82.74 677.64-87.54 882.23-158.88 190.89-473.99 195.66-647.8 24.08-185.63-223.93-204.96-615.16-118.18-884.42M2056.5 1087c-98.03 0-164.5 199.01-164.5 444.5 32 324.5 20 376.5 164.5 424.5 98.03 0 177.5-179.01 177.5-424.5s-79.47-444.5-177.5-444.5"/><path fill="#c0cdc3" fill-opacity=".5" d="m1628.02 1188.94-3.81-1.22zm818.5-113.83 3.55-1.86zm35.02 91.94-3.79 1.28zM2394 2049.28l3.07 2.56zm-647.8 24.08-3.08 2.55.13.16.14.14zM2056.5 1087v-4zM1892 1531.5h-4v.2l.02.19zm164.5 424.5-1.26 3.8.61.2h.65zm-428.48-767.06 3.81 1.23c62.18-192.932 218.71-309.947 382.8-334.374 164.01-24.416 335.57 43.634 428.35 221.164l3.54-1.85 3.55-1.86c-94.49-180.792-269.52-250.242-436.62-225.367-167.01 24.863-326.1 143.928-389.24 339.837zm818.5-113.83-3.54 1.85c14.34 27.44 24.64 61.3 34.77 91.37l3.79-1.28 3.79-1.28c-10-29.66-20.55-64.36-35.26-92.52zm35.02 91.94-3.79 1.28c40.47 120.1 61.12 288.97 50.38 453.36-10.74 164.49-52.86 323.69-137.21 425.03l3.08 2.56 3.07 2.56c85.94-103.25 128.26-264.49 139.04-429.63 10.8-165.24-9.93-335.19-50.78-456.44zM2394 2049.28l-3.08-2.56c-157.28 188.97-469.66 193.83-641.91 23.79l-2.81 2.85-2.81 2.85c175.37 173.11 493.21 168.43 653.68-24.37zm-647.8 24.08 3.08-2.55c-92.16-111.18-143.21-264.13-160.34-423.09-17.14-158.93-.32-323.49 42.89-457.55l-3.81-1.23-3.81-1.22c-43.57 135.19-60.47 300.88-43.23 460.86 17.24 159.95 68.67 314.57 162.14 427.33zM2056.5 1087v-4c-26 0-49.54 13.23-70.05 36.27-20.48 23.02-38.19 56.08-52.73 96.57-29.07 81-45.72 192.61-45.72 315.66h8c0-122.44 16.58-233.08 45.25-312.96 14.34-39.95 31.63-71.98 51.18-93.95 19.53-21.94 41.05-33.59 64.07-33.59zM1892 1531.5l-3.98.39c7.99 81.02 13.25 145.25 18.89 196.52 5.63 51.28 11.68 90.05 21.34 120.25 9.71 30.32 23.11 52.16 43.5 69.45 20.28 17.19 47.21 29.63 83.49 41.69l1.26-3.8 1.26-3.8c-35.97-11.94-61.73-24-80.84-40.2-19-16.1-31.69-36.54-41.05-65.78-9.4-29.37-15.38-67.44-21.01-118.68-5.63-51.25-10.87-115.2-18.88-196.43zm164.5 424.5v4c25.82 0 50.11-11.81 71.88-32.94 21.73-21.1 41.12-51.66 57.31-89.68 32.39-76.07 52.31-182.76 52.31-305.88h-8c0 122.37-19.81 227.93-51.67 302.74-15.93 37.41-34.79 66.95-55.53 87.08-20.7 20.11-43.1 30.68-66.3 30.68zm177.5-424.5h4c0-123.12-19.92-234.77-52.27-315.79-16.18-40.5-35.53-73.54-57.23-96.52-21.71-23-46.04-36.19-72-36.19v8c23.05 0 45.42 11.68 66.18 33.68 20.78 22 39.67 54.05 55.62 93.99 31.89 79.86 51.7 190.46 51.7 312.83z" mask="url(#b)"/><path fill="#cbcbcb" d="M1746.2 2073.36c173.81 171.58 488.92 166.81 647.8-24.08 170.28-204.59 168.86-640.88 87.54-882.23 32.25 52.55 49.22 141.61 56.9 203.59 45.15 364.57-25.77 887.73-505.55 851.58-122.01-9.19-211.16-57.74-286.69-148.86"/><path stroke="#c0cdc3" stroke-opacity=".5" stroke-width="4" d="M2489.97 1186.79c11.14 23.08 20.13 50.64 27.29 79.01 9.21 36.48 15.36 74.15 19.19 105.09 22.56 182.11 16.09 403.65-55.78 575.04-35.92 85.66-88.14 158.71-161.15 208.09-72.99 49.38-166.92 75.22-286.48 66.21-108.81-8.2-191.29-47.81-261.37-121.2 178.6 147.18 472.08 133.9 623.86-48.47 85.55-102.77 127.81-263.5 138.59-428.48 10.18-155.96-7.75-316.07-44.15-435.29Z"/><path fill="#cbcbcb" d="M1934.41 1250.24c-36.19 117.96-41.29 355.96-26.26 479.43 5.85 48.06 26.85 94.05 30.64 142.29-65.13-138.79-60.63-477.2-21.89-626.1 7.18-.32 9.59 3.74 17.51 4.38"/><path stroke="#c0cdc3" stroke-opacity=".5" stroke-width="4" d="M1918.46 1247.86c2.35.13 4.11.81 6.14 1.67 1.97.84 4.2 1.84 7.22 2.39-17.75 59.22-27.87 147.29-31.74 235.88-3.93 89.75-1.45 180.23 6.09 242.11 2.94 24.2 9.7 47.87 16.14 71.36 5.29 19.3 10.37 38.48 13.07 57.93-28.79-70.25-42.43-182.68-44.49-296.53-2.15-119.67 8.5-240.47 27.57-314.81Z"/><path fill="#cbcbcb" d="M2157.64 1140.78c-96.53-80.27-194.83 16.88-223.23 109.46-7.92-.64-10.33-4.7-17.51-4.38 32.78-125.97 131.33-223.92 240.74-105.08"/><path stroke="#c0cdc3" stroke-opacity=".5" stroke-width="4" d="M2009.56 1103.23c20.82-12.46 43.91-17.36 68.49-11.93 19.34 4.28 39.73 14.99 60.76 33.7-17.76-10.47-35.48-15.46-52.71-16-23.72-.75-46.34 6.92-66.7 20.01-40.21 25.83-71.86 72.91-86.4 119.05-2.74-.43-4.73-1.32-6.84-2.21-1.96-.83-4.01-1.66-6.68-1.92 16.53-61.74 48.85-116.03 90.08-140.7Z"/></g><circle cx="1536" cy="1536" r="1536" fill="url(#c)" fill-opacity=".4"/><circle cx="1789.25" cy="1345.68" r="1174.85" fill="url(#d)"/><path fill="url(#e)" d="M1537.5 3072c847.48 0 1534.5-687.02 1534.5-1534.5C3072 690.016 2384.98 2.996 1537.5 2.996 690.017 2.996 2.997 690.016 2.997 1537.5c0 847.48 687.02 1534.5 1534.503 1534.5" style="mix-blend-mode:multiply"/><mask id="f" width="3070" height="3070" x="2" y="3" maskUnits="userSpaceOnUse" style="mask-type:alpha"><path fill="#d9d9d9" d="M1537.5 3C2384.98 3 3072 690.02 3072 1537.5S2384.98 3072 1537.5 3072C690.017 3072 2.997 2384.98 2.997 1537.5S690.017 3 1537.5 3m0 60C723.156 63 63 723.156 63 1537.5 63 2351.84 723.156 3012 1537.5 3012c814.34 0 1474.5-660.16 1474.5-1474.5C3012 723.156 2351.84 63 1537.5 63"/></mask><g mask="url(#f)"><circle cx="1537.5" cy="1537.5" r="1534.5" fill="url(#g)" transform="rotate(-45 1537.5 1537.5)"/></g></g><defs><radialGradient id="c" cx="0" cy="0" r="1" gradientTransform="rotate(90 0 1536)scale(1536)" gradientUnits="userSpaceOnUse"><stop stop-color="#82af83"/><stop offset="1" stop-color="#82af83" stop-opacity=".8"/></radialGradient><radialGradient id="d" cx="0" cy="0" r="1" gradientTransform="rotate(90 221.785 1567.465)scale(1174.85)" gradientUnits="userSpaceOnUse"><stop offset=".18" stop-color="#ecf6ec" stop-opacity=".14"/><stop offset="1" stop-color="#bcd1bc" stop-opacity="0"/></radialGradient><radialGradient id="e" cx="0" cy="0" r="1" gradientTransform="translate(1537.5 1537.5)scale(1534.5)" gradientUnits="userSpaceOnUse"><stop offset=".955" stop-opacity="0"/><stop offset=".96" stop-opacity=".018"/><stop offset=".965" stop-opacity=".034"/><stop offset=".97" stop-opacity=".05"/><stop offset=".975" stop-opacity=".066"/><stop offset=".98" stop-opacity=".082"/><stop offset=".985" stop-opacity=".096"/><stop offset=".99" stop-opacity=".107"/><stop offset=".995" stop-opacity=".115"/><stop offset="1" stop-opacity=".12"/></radialGradient><linearGradient id="g" x1="1537.5" x2="1537.5" y1="2.999" y2="3072" gradientUnits="userSpaceOnUse"><stop stop-color="#ecf6ec" stop-opacity=".75"/><stop offset=".15" stop-color="#ecf6ec" stop-opacity=".15"/><stop offset=".85" stop-color="#ecf6ec" stop-opacity=".15"/><stop offset="1" stop-color="#ecf6ec" stop-opacity=".75"/></linearGradient><clipPath id="a"><path fill="#fff" d="M0 0h3072v3072H0z"/></clipPath></defs></svg>