<svg xmlns="http://www.w3.org/2000/svg" fill="none" viewBox="0 0 1024 1024"><g clip-path="url(#a)"><circle cx="511.5" cy="511.5" r="512.5" fill="url(#b)" fill-opacity=".4"/><circle cx="596" cy="448" r="392" fill="url(#c)"/><path fill="url(#d)" d="M512 1024c282.77 0 512-229.23 512-512S794.77 0 512 0 0 229.23 0 512s229.23 512 512 512" style="mix-blend-mode:multiply"/><mask id="e" width="1024" height="1024" x="0" y="0" maskUnits="userSpaceOnUse" style="mask-type:alpha"><path fill="#d9d9d9" d="M512 0c282.77 0 512 229.23 512 512s-229.23 512-512 512S0 794.77 0 512 229.23 0 512 0m0 24C242.485 24 24 242.485 24 512s218.485 488 488 488 488-218.485 488-488S781.515 24 512 24"/></mask><g mask="url(#e)"><circle cx="512" cy="512" r="512" fill="url(#f)" transform="rotate(-45 512 512)"/></g></g><defs><radialGradient id="b" cx="0" cy="0" r="1" gradientTransform="rotate(90 0 511.5)scale(512.5)" gradientUnits="userSpaceOnUse"><stop stop-color="#82af83"/><stop offset="1" stop-color="#82af83" stop-opacity=".8"/></radialGradient><radialGradient id="c" cx="0" cy="0" r="1" gradientTransform="rotate(90 74 522)scale(392)" gradientUnits="userSpaceOnUse"><stop offset=".18" stop-color="#ecf6ec" stop-opacity=".14"/><stop offset="1" stop-color="#bcd1bc" stop-opacity="0"/></radialGradient><radialGradient id="d" cx="0" cy="0" r="1" gradientTransform="matrix(512 0 0 512 512 512)" gradientUnits="userSpaceOnUse"><stop offset=".955" stop-opacity="0"/><stop offset=".96" stop-opacity=".018"/><stop offset=".965" stop-opacity=".034"/><stop offset=".97" stop-opacity=".05"/><stop offset=".975" stop-opacity=".066"/><stop offset=".98" stop-opacity=".082"/><stop offset=".985" stop-opacity=".096"/><stop offset=".99" stop-opacity=".107"/><stop offset=".995" stop-opacity=".115"/><stop offset="1" stop-opacity=".12"/></radialGradient><linearGradient id="f" x1="512" x2="512" y1="0" y2="1024" gradientUnits="userSpaceOnUse"><stop stop-color="#ecf6ec" stop-opacity=".75"/><stop offset=".15" stop-color="#ecf6ec" stop-opacity=".15"/><stop offset=".85" stop-color="#ecf6ec" stop-opacity=".15"/><stop offset="1" stop-color="#ecf6ec" stop-opacity=".75"/></linearGradient><clipPath id="a"><path fill="#fff" d="M0 0h1024v1024H0z"/></clipPath></defs></svg>