<svg xmlns="http://www.w3.org/2000/svg" fill="none" viewBox="0 0 313 478"><path fill="url(#a)" d="M270.782 0c-12.833 0-22.737 3.623-29.93 10.82-7.176 7.19-10.805 17.287-10.805 30.193 0 9.235 1.907 16.997 5.535 23.148s8.239 10.49 14.08 13.333q8.754 4.267 22.125 4.275c8.77 0 16.252-1.49 22.126-4.782a33 33 0 0 0 13.323-13.833c3.106-5.917 4.779-13.405 4.779-22.648 0-12.721-3.701-22.624-10.813-29.685C294.09 3.75 283.928 0 270.782 0M4.272 1.514v16.843h39.721L0 64.169v16.344h74.928v-17.11h-45.77l44.25-46.044V1.506zm82.709 0v78.999h24.394v-79zm41.74 0v78.999h19.873V20.128l15.584 60.385h18.102l15.335-60.385v60.385h19.865v-79h-31.941l-12.31 48.05-12.326-48.05zm142.053 17.109c5.149 0 9.324 1.594 12.325 5.024 3.001 3.438 4.522 8.912 4.522 16.36q.016 13.253-4.264 18.365c-2.88 3.414-7.08 5.282-12.326 5.282-5.101 0-9.107-1.796-12.068-5.282s-4.53-9.13-4.53-17.11c0-8.05 1.545-13.872 4.53-17.358s6.887-5.281 11.811-5.281m.008 81.769c-12.833 0-22.737 3.623-29.93 10.82-7.176 7.19-10.805 17.279-10.805 30.193 0 9.235 1.907 16.747 5.535 22.89 3.621 6.151 8.239 10.748 14.08 13.59q8.754 4.268 22.125 4.275c8.77 0 16.252-1.739 22.126-5.032a33 33 0 0 0 13.323-13.84c3.106-5.909 4.779-13.405 4.779-22.64 0-12.729-3.701-22.624-10.813-29.693q-10.684-10.58-30.42-10.563M4.28 101.648v16.859h39.721L0 164.295v16.609h74.928v-17.109h-45.77l44.25-46.294v-15.853zm82.709 0v79.256h24.394v-79.256zm41.74 0v79.256h19.873V120.52l15.584 60.384h18.102l15.335-60.384v60.384h19.865v-79.256h-31.941l-12.31 48.058-12.326-48.058zm142.053 17.109c5.149 0 9.325 1.851 12.326 5.281s4.521 8.913 4.521 16.352c0 8.857-1.4 14.952-4.264 18.373-2.88 3.414-7.08 5.032-12.326 5.032-5.101 0-9.107-1.795-12.068-5.289-2.969-3.486-4.53-9.122-4.53-17.109 0-8.052 1.545-13.873 4.53-17.359s6.887-5.281 11.811-5.281m.016 79.506c-12.833 0-22.737 3.623-29.93 10.821-7.176 7.19-10.805 17.278-10.805 30.192 0 9.235 1.907 16.747 5.535 22.89 3.621 6.151 8.239 10.749 14.08 13.591q8.754 4.267 22.125 4.275c8.77 0 16.253-1.739 22.126-5.032a33 33 0 0 0 13.323-13.832c3.106-5.918 4.779-13.406 4.779-22.648 0-12.722-3.701-22.625-10.813-29.686-7.112-7.069-17.274-10.571-30.42-10.571M4.296 199.519v16.859h39.721L0 262.174v16.602h74.928v-17.109h-45.77l44.25-46.295v-15.853zm82.709 0v79.257h24.394v-79.257zm41.74 0v79.257h19.873v-60.385l15.584 60.385h18.103l15.334-60.385v60.385h19.865v-79.257h-31.941l-12.31 48.308-12.325-48.308zm142.053 17.109c5.149 0 9.325 1.852 12.326 5.29 3.001 3.43 4.521 8.904 4.521 16.344q.017 13.269-4.264 18.373c-2.88 3.414-7.08 5.032-12.326 5.032-5.101 0-9.107-1.795-12.068-5.282s-4.53-9.13-4.53-17.109c0-8.051 1.545-13.872 4.53-17.366 2.985-3.495 6.895-5.282 11.819-5.282m-.024 81.777c-12.833 0-22.737 3.623-29.93 10.813-7.176 7.19-10.805 17.286-10.805 30.192 0 9.243 1.907 17.005 5.535 23.148 3.621 6.151 8.239 10.499 14.08 13.341q8.754 4.259 22.125 4.267c8.77 0 16.252-1.482 22.126-4.775a33 33 0 0 0 13.323-13.84c3.106-5.909 4.779-13.397 4.779-22.64 0-12.729-3.701-22.624-10.813-29.693-7.112-7.061-17.274-10.813-30.42-10.813m-266.51 1.506v16.859h39.721L0 362.55v16.36h74.928v-16.86h-45.77l44.25-46.294v-15.845zm82.709 0v79.007h24.394v-79.007zm41.74 0v79.007h19.873v-60.385l15.584 60.385h18.102l15.335-60.385v60.385h19.865v-79.007h-31.941l-12.31 48.058-12.326-48.058zm142.053 17.109c5.149 0 9.324 1.602 12.325 5.032s4.522 8.912 4.522 16.352q.016 13.26-4.264 18.373c-2.88 3.414-7.08 5.282-12.326 5.282-5.101 0-9.107-1.796-12.068-5.29-2.969-3.486-4.53-9.122-4.53-17.101 0-8.051 1.545-13.881 4.53-17.367s6.887-5.281 11.811-5.281m.016 78.5c-12.833 0-22.737 3.381-29.93 10.571-7.176 7.19-10.805 17.278-10.805 30.192 0 9.235 1.907 16.989 5.535 23.14s8.239 10.748 14.08 13.59q8.754 4.267 22.125 4.276c8.77 0 16.252-1.739 22.126-5.032a33 33 0 0 0 13.323-13.833c3.106-5.917 4.779-13.405 4.779-22.648 0-12.721-3.701-22.624-10.813-29.685q-10.685-10.587-30.42-10.571M4.288 396.776v16.859H44.01L0 459.431v16.344h74.928v-16.851h-45.77l44.25-46.295v-15.853zm82.709 0v79.007h24.394v-79.015zm41.74 0v79.007h19.873v-60.135l15.584 60.135h18.103l15.334-60.135v60.135h19.865v-79.015h-31.941l-12.31 48.058-12.326-48.058zm142.053 17.109c5.149 0 9.325 1.852 12.326 5.289 3.001 3.43 4.521 8.656 4.521 16.103 0 8.84-1.4 15.201-4.264 18.615-2.88 3.413-7.08 5.032-12.326 5.032-5.101 0-9.107-1.796-12.068-5.282s-4.53-9.13-4.53-17.109c0-8.051 1.545-13.872 4.53-17.367 2.985-3.494 6.887-5.281 11.811-5.281"/><defs><linearGradient id="a" x1="495.426" x2="495.428" y1="0" y2="477" gradientUnits="userSpaceOnUse"><stop offset=".6" stop-color="#d9dff1"/><stop offset=".625" stop-color="#d9dff1" stop-opacity=".998"/><stop offset=".65" stop-color="#d9dff1" stop-opacity=".984"/><stop offset=".675" stop-color="#dae0f1" stop-opacity=".949"/><stop offset=".7" stop-color="#dbe0f2" stop-opacity=".896"/><stop offset=".725" stop-color="#dce1f2" stop-opacity=".824"/><stop offset=".75" stop-color="#dee3f2" stop-opacity=".733"/><stop offset=".775" stop-color="#e0e4f3" stop-opacity=".63"/><stop offset=".8" stop-color="#e2e6f4" stop-opacity=".5"/><stop offset=".825" stop-color="#e4e8f4" stop-opacity=".37"/><stop offset=".85" stop-color="#e6e9f5" stop-opacity=".267"/><stop offset=".875" stop-color="#e8ebf5" stop-opacity=".176"/><stop offset=".9" stop-color="#e9ecf5" stop-opacity=".104"/><stop offset=".925" stop-color="#eaecf6" stop-opacity=".051"/><stop offset=".95" stop-color="#ebedf6" stop-opacity=".016"/><stop offset=".975" stop-color="#ebedf6" stop-opacity=".002"/><stop offset="1" stop-color="#ebedf6" stop-opacity="0"/></linearGradient></defs></svg>