<svg xmlns="http://www.w3.org/2000/svg" fill="none" viewBox="0 0 991 478"><path fill="url(#a)" d="M270.782 0c-12.833 0-22.737 3.623-29.93 10.82-7.176 7.19-10.805 17.287-10.805 30.193 0 9.235 1.907 16.997 5.535 23.148s8.239 10.49 14.08 13.333q8.754 4.267 22.125 4.275c8.77 0 16.252-1.49 22.126-4.782a33 33 0 0 0 13.323-13.833c3.106-5.917 4.779-13.405 4.779-22.648 0-12.721-3.701-22.624-10.813-29.685C294.09 3.75 283.928 0 270.782 0m338.155 0c-12.817 0-22.729 3.623-29.913 10.82-7.185 7.19-10.814 17.287-10.814 30.193 0 9.235 1.658 16.997 5.286 23.148a33.24 33.24 0 0 0 14.321 13.333q8.77 4.267 22.126 4.275c8.769 0 16.01-1.49 21.884-4.782A33.57 33.57 0 0 0 645.4 63.154c3.105-5.917 4.529-13.405 4.529-22.648 0-12.721-3.451-22.624-10.564-29.685C632.253 3.75 622.084 0 608.937 0m340.947 0c-12.824 0-22.729 3.623-29.921 10.82-7.185 7.19-10.806 17.287-10.806 30.193 0 9.235 1.65 16.997 5.278 23.148a33.24 33.24 0 0 0 14.33 13.333q8.769 4.267 22.125 4.275c8.77 0 16.003-1.49 21.876-4.782a33.57 33.57 0 0 0 13.573-13.833c3.113-5.917 4.529-13.405 4.529-22.648 0-12.721-3.443-22.624-10.564-29.685C973.184 3.75 963.039 0 949.884 0M4.272 1.514v16.843h39.721L0 64.169v16.344h74.928v-17.11h-45.77l44.25-46.044V1.506zm82.709 0v78.999h24.394v-79zm41.74 0v78.999h19.873V20.128l15.584 60.385h18.102l15.335-60.385v60.385h19.865v-79h-31.941l-12.31 48.05-12.326-48.05zm213.715 0v16.843h39.471l-43.744 45.812v16.344h74.921v-17.11h-46.013l44.508-46.044V1.506zm82.716 0v78.999h24.386v-79zm41.74 0v78.999h19.857V20.128l15.343 60.385h18.102l15.585-60.385v60.385h19.864v-79H523.71l-12.317 48.05-12.576-48.05zm216.475 0v16.843h39.471l-43.744 45.812v16.344h74.921v-17.11H708.01l44.251-46.044V1.506zm82.716 0v78.999h24.394v-79zm41.491 0v78.999h20.114V20.128l15.335 60.385h18.102l15.593-60.385v60.385h19.856v-79h-31.925l-12.575 48.05-12.318-48.05zm-536.8 17.109c5.149 0 9.324 1.594 12.325 5.024 3.001 3.438 4.522 8.912 4.522 16.36q.016 13.253-4.264 18.365c-2.88 3.414-7.08 5.282-12.326 5.282-5.101 0-9.107-1.796-12.068-5.282s-4.53-9.13-4.53-17.11c0-8.05 1.545-13.872 4.53-17.358s6.887-5.281 11.811-5.281m338.179 0c5.133 0 9.068 1.594 12.069 5.024q4.505 5.169 4.521 16.36.016 13.253-4.264 18.365c-2.88 3.414-6.831 5.282-12.068 5.282-5.109 0-9.108-1.796-12.069-5.282-2.977-3.486-4.529-9.13-4.529-17.11 0-8.05 1.536-13.872 4.521-17.358 2.977-3.486 6.895-5.281 11.819-5.281m340.931 0c5.141 0 9.068 1.594 12.069 5.024q4.513 5.169 4.529 16.36c0 8.84-1.4 14.951-4.28 18.365-2.872 3.414-6.815 5.282-12.068 5.282-5.101 0-9.349-1.796-12.318-5.282-2.961-3.486-4.272-9.13-4.272-17.11 0-8.05 1.544-13.872 4.521-17.358s6.895-5.281 11.819-5.281m-679.102 81.769c-12.833 0-22.737 3.623-29.93 10.82-7.176 7.19-10.805 17.279-10.805 30.193 0 9.235 1.907 16.747 5.535 22.89 3.621 6.151 8.239 10.748 14.08 13.59q8.754 4.268 22.125 4.275c8.77 0 16.252-1.739 22.126-5.032a33 33 0 0 0 13.323-13.84c3.106-5.909 4.779-13.405 4.779-22.64 0-12.729-3.701-22.624-10.813-29.693q-10.684-10.58-30.42-10.563m338.155 0c-12.817 0-22.729 3.623-29.913 10.82-7.185 7.19-10.814 17.279-10.814 30.193 0 9.235 1.658 16.747 5.286 22.89 3.621 6.151 8.488 10.748 14.321 13.59q8.77 4.268 22.126 4.275c8.769 0 16.01-1.739 21.884-5.032a33.57 33.57 0 0 0 13.573-13.84c3.105-5.909 4.529-13.405 4.529-22.64 0-12.729-3.451-22.624-10.564-29.693-7.123-7.053-17.271-10.574-30.428-10.563m340.947 0c-12.824 0-22.729 3.623-29.921 10.82-7.185 7.19-10.806 17.279-10.806 30.193 0 9.235 1.65 16.747 5.278 22.89 3.629 6.151 8.497 10.748 14.33 13.59q8.769 4.268 22.125 4.275c8.77 0 16.003-1.739 21.876-5.032a33.57 33.57 0 0 0 13.573-13.84c3.113-5.909 4.529-13.405 4.529-22.64 0-12.729-3.443-22.624-10.564-29.693q-10.675-10.58-30.42-10.563M4.28 101.648v16.859h39.721L0 164.295v16.609h74.928v-17.109h-45.77l44.25-46.294v-15.853zm82.709 0v79.256h24.394v-79.256zm41.74 0v79.256h19.873V120.52l15.584 60.384h18.102l15.335-60.384v60.384h19.865v-79.256h-31.941l-12.31 48.058-12.326-48.058zm213.715 0v16.859h39.471l-43.744 45.788v16.609h74.921v-17.109h-46.013l44.508-46.294v-15.853zm82.716 0v79.256h24.386v-79.256zm41.741 0v79.256h19.856V120.52l15.343 60.384h18.102l15.585-60.384v60.384h19.864v-79.256h-31.933l-12.317 48.058-12.576-48.058zm216.474 0v16.859h39.471l-43.743 45.788v16.609h74.92v-17.109H708.01l44.251-46.294v-15.853zm82.716 0v79.256h24.394v-79.256zm41.491 0v79.256h20.114V120.52l15.335 60.384h18.103l15.592-60.384v60.384h19.856v-79.256h-31.925l-12.575 48.058-12.318-48.058zm-536.8 17.109c5.149 0 9.325 1.851 12.326 5.281s4.521 8.913 4.521 16.352c0 8.857-1.4 14.952-4.264 18.373-2.88 3.414-7.08 5.032-12.326 5.032-5.101 0-9.107-1.795-12.068-5.289-2.969-3.486-4.53-9.122-4.53-17.109 0-8.051 1.545-13.873 4.53-17.359s6.887-5.281 11.811-5.281m338.179 0c5.133 0 9.068 1.851 12.069 5.281s4.521 8.913 4.521 16.352c0 8.857-1.4 14.952-4.264 18.373-2.88 3.414-6.831 5.032-12.068 5.032-5.109 0-9.108-1.795-12.069-5.289-2.977-3.486-4.529-9.122-4.529-17.109 0-8.051 1.536-13.873 4.521-17.359 2.977-3.486 6.895-5.281 11.819-5.281m340.931 0c5.141 0 9.068 1.851 12.069 5.281s4.529 8.913 4.529 16.352c0 8.857-1.4 14.952-4.28 18.373-2.872 3.414-6.815 5.032-12.068 5.032-5.101 0-9.349-1.795-12.318-5.289-2.961-3.486-4.272-9.122-4.272-17.109 0-8.051 1.544-13.873 4.521-17.359s6.895-5.281 11.819-5.281m-679.094 79.506c-12.833 0-22.737 3.623-29.93 10.821-7.176 7.19-10.805 17.278-10.805 30.192 0 9.235 1.907 16.747 5.535 22.89 3.621 6.151 8.239 10.749 14.08 13.591q8.754 4.267 22.125 4.275c8.77 0 16.253-1.739 22.126-5.032a33 33 0 0 0 13.323-13.832c3.106-5.918 4.779-13.406 4.779-22.648 0-12.722-3.701-22.625-10.813-29.686-7.112-7.069-17.274-10.571-30.42-10.571m338.155 0c-12.816 0-22.729 3.623-29.913 10.821-7.185 7.19-10.814 17.278-10.814 30.192 0 9.235 1.658 16.747 5.286 22.89 3.621 6.151 8.488 10.749 14.322 13.591q8.769 4.267 22.125 4.275c8.77 0 16.011-1.739 21.884-5.032a33.57 33.57 0 0 0 13.573-13.832c3.105-5.918 4.529-13.406 4.529-22.648 0-12.722-3.451-22.625-10.564-29.686-7.112-7.069-17.281-10.571-30.428-10.571m340.947 0c-12.824 0-22.728 3.623-29.921 10.821-7.185 7.19-10.805 17.278-10.805 30.192 0 9.235 1.649 16.747 5.278 22.89 3.628 6.151 8.496 10.749 14.329 13.591q8.769 4.267 22.125 4.275c8.77 0 16.003-1.739 21.876-5.032a33.57 33.57 0 0 0 13.573-13.832c3.113-5.918 4.529-13.406 4.529-22.648 0-12.722-3.443-22.625-10.563-29.686-7.113-7.069-17.266-10.571-30.421-10.571M4.296 199.519v16.859h39.721L0 262.174v16.602h74.928v-17.109h-45.77l44.25-46.295v-15.853zm82.709 0v79.257h24.394v-79.257zm41.74 0v79.257h19.873v-60.385l15.584 60.385h18.103l15.334-60.385v60.385h19.865v-79.257h-31.941l-12.31 48.308-12.325-48.308zm213.715 0v16.859h39.471l-43.743 45.796v16.602h74.92v-17.109h-46.013l44.508-46.295v-15.853zm82.716 0v79.257h24.386v-79.257zm41.741 0v79.257h19.856v-60.385l15.343 60.385h18.103l15.584-60.385v60.385h19.864v-79.257h-31.933l-12.317 48.308-12.576-48.308zm216.474 0v16.859h39.471l-43.743 45.796v16.602h74.92v-17.109H708.01l44.251-46.295v-15.853zm82.716 0v79.257h24.394v-79.257zm41.491 0v79.257h20.114v-60.385l15.335 60.385h18.103l15.592-60.385v60.385h19.856v-79.257h-31.924l-12.576 48.308-12.317-48.308zm-536.8 17.109c5.149 0 9.325 1.852 12.326 5.29 3.001 3.43 4.521 8.905 4.521 16.344q.017 13.269-4.264 18.373c-2.88 3.414-7.08 5.032-12.326 5.032-5.101 0-9.107-1.795-12.068-5.282s-4.53-9.13-4.53-17.109c0-8.051 1.545-13.872 4.53-17.366 2.985-3.495 6.895-5.282 11.819-5.282m338.171 0c5.133 0 9.068 1.852 12.069 5.29 3.001 3.43 4.521 8.905 4.521 16.344q.017 13.269-4.264 18.373c-2.88 3.414-6.831 5.032-12.068 5.032-5.109 0-9.108-1.795-12.069-5.282-2.976-3.486-4.529-9.13-4.529-17.109 0-8.051 1.536-13.872 4.521-17.366 2.977-3.486 6.895-5.282 11.819-5.282m340.931 0c5.141 0 9.068 1.852 12.069 5.29 3.001 3.43 4.529 8.905 4.529 16.344 0 8.856-1.4 14.959-4.28 18.373-2.872 3.414-6.815 5.032-12.068 5.032-5.101 0-9.349-1.795-12.318-5.282-2.961-3.486-4.272-9.13-4.272-17.109 0-8.051 1.545-13.872 4.521-17.366 2.977-3.495 6.895-5.282 11.819-5.282m-679.126 81.777c-12.833 0-22.737 3.623-29.93 10.813-7.176 7.19-10.805 17.286-10.805 30.192 0 9.243 1.907 17.005 5.535 23.148 3.621 6.151 8.239 10.499 14.08 13.341q8.754 4.259 22.125 4.267c8.77 0 16.252-1.482 22.126-4.774a33 33 0 0 0 13.323-13.841c3.106-5.909 4.779-13.397 4.779-22.64 0-12.729-3.701-22.624-10.813-29.693-7.112-7.061-17.274-10.813-30.42-10.813m338.155 0c-12.817 0-22.729 3.623-29.913 10.813s-10.814 17.286-10.814 30.192c0 9.243 1.658 17.005 5.286 23.148a33.25 33.25 0 0 0 14.321 13.341q8.77 4.259 22.126 4.267c8.769 0 16.01-1.482 21.884-4.774a33.57 33.57 0 0 0 13.573-13.841c3.105-5.909 4.529-13.397 4.529-22.64 0-12.729-3.451-22.624-10.564-29.693-7.112-7.061-17.281-10.813-30.428-10.813m340.947 0c-12.824 0-22.729 3.623-29.921 10.813s-10.806 17.286-10.806 30.192c0 9.243 1.65 17.005 5.278 23.148a33.25 33.25 0 0 0 14.33 13.341q8.769 4.259 22.125 4.267c8.77 0 16.003-1.482 21.876-4.774a33.57 33.57 0 0 0 13.573-13.841c3.113-5.909 4.529-13.397 4.529-22.64 0-12.729-3.443-22.624-10.564-29.693-7.112-7.061-17.265-10.813-30.42-10.813M4.272 299.911v16.859h39.721L0 362.55v16.36h74.928v-16.859h-45.77l44.25-46.295v-15.845zm82.709 0v79.007h24.394v-79.007zm41.74 0v79.007h19.873v-60.385l15.584 60.385h18.102l15.335-60.385v60.385h19.865v-79.007h-31.941l-12.31 48.058-12.326-48.058zm213.715 0v16.859h39.471l-43.744 45.788v16.36h74.921v-16.859h-46.013l44.508-46.295v-15.853zm82.716 0v79.007h24.386v-79.007zm41.74 0v79.007h19.857v-60.385l15.343 60.385h18.102l15.585-60.385v60.385h19.864v-79.007H523.71l-12.317 48.058-12.576-48.058zm216.475 0v16.859h39.471l-43.744 45.788v16.36h74.921v-16.859H708.01l44.251-46.295v-15.853zm82.716 0v79.007h24.394v-79.007zm41.491 0v79.007h20.114v-60.385l15.335 60.385h18.102l15.593-60.385v60.385h19.856v-79.007h-31.925l-12.575 48.058-12.318-48.058zm-536.8 17.109c5.149 0 9.324 1.602 12.325 5.032s4.522 8.912 4.522 16.352q.016 13.26-4.264 18.373c-2.88 3.414-7.08 5.282-12.326 5.282-5.101 0-9.107-1.796-12.068-5.29-2.969-3.486-4.53-9.122-4.53-17.101 0-8.051 1.545-13.881 4.53-17.367s6.887-5.281 11.811-5.281m338.179 0c5.133 0 9.068 1.602 12.069 5.032s4.521 8.912 4.521 16.352q.016 13.26-4.264 18.373c-2.88 3.414-6.831 5.282-12.068 5.282-5.109 0-9.108-1.796-12.069-5.29-2.977-3.486-4.529-9.122-4.529-17.101 0-8.051 1.536-13.881 4.521-17.367 2.977-3.486 6.895-5.281 11.819-5.281m340.931 0c5.141 0 9.068 1.602 12.069 5.032s4.529 8.912 4.529 16.352c0 8.848-1.4 14.951-4.28 18.373-2.872 3.414-6.815 5.282-12.068 5.282-5.101 0-9.349-1.796-12.318-5.29-2.961-3.486-4.272-9.122-4.272-17.101 0-8.051 1.544-13.881 4.521-17.367s6.895-5.281 11.819-5.281m-679.094 78.5c-12.833 0-22.737 3.381-29.93 10.571-7.176 7.19-10.805 17.278-10.805 30.192 0 9.235 1.907 16.989 5.535 23.14s8.239 10.748 14.08 13.59q8.754 4.267 22.125 4.276c8.77 0 16.252-1.739 22.126-5.032a33 33 0 0 0 13.323-13.833c3.106-5.917 4.779-13.405 4.779-22.648 0-12.721-3.701-22.624-10.813-29.685q-10.685-10.587-30.42-10.571m338.155 0c-12.816 0-22.729 3.381-29.913 10.571s-10.814 17.278-10.814 30.192c0 9.235 1.658 16.989 5.286 23.14 3.621 6.151 8.488 10.748 14.321 13.59q8.77 4.267 22.126 4.276c8.769 0 16.011-1.739 21.884-5.032a33.57 33.57 0 0 0 13.573-13.833c3.105-5.917 4.529-13.405 4.529-22.648 0-12.721-3.451-22.624-10.564-29.685-7.123-7.058-17.271-10.582-30.428-10.571m340.947 0c-12.824 0-22.729 3.381-29.921 10.571s-10.805 17.278-10.805 30.192c0 9.235 1.649 16.989 5.277 23.14s8.497 10.748 14.33 13.59q8.769 4.267 22.125 4.276c8.77 0 16.003-1.739 21.876-5.032a33.57 33.57 0 0 0 13.573-13.833c3.113-5.917 4.529-13.405 4.529-22.648 0-12.721-3.443-22.624-10.563-29.685q-10.677-10.587-30.421-10.571M4.288 396.776v16.859H44.01L0 459.431v16.344h74.928v-16.851h-45.77l44.25-46.295v-15.853zm82.709 0v79.007h24.394v-79.015zm41.74 0v79.007h19.873v-60.135l15.584 60.135h18.103l15.334-60.135v60.135h19.865v-79.015h-31.941l-12.31 48.058-12.326-48.058zm213.715 0v16.859h39.471l-43.744 45.796v16.344H413.1v-16.851h-46.013l44.508-46.295v-15.853zm82.716 0v79.007h24.386v-79.015zm41.741 0v79.007h19.856v-60.135l15.343 60.135h18.103l15.584-60.135v60.135h19.864v-79.015h-31.933l-12.317 48.058-12.576-48.058zm216.474 0v16.859h39.471l-43.743 45.796v16.344h74.92v-16.851H708.01l44.251-46.295v-15.853zm82.716 0v79.007h24.394v-79.015zm41.491 0v79.007h20.114v-60.135l15.335 60.135h18.103l15.592-60.135v60.135h19.856v-79.015h-31.925l-12.575 48.058-12.318-48.058zm-536.8 17.109c5.149 0 9.325 1.852 12.326 5.289 3.001 3.43 4.521 8.656 4.521 16.103 0 8.84-1.4 15.201-4.264 18.615-2.88 3.413-7.08 5.032-12.326 5.032-5.101 0-9.107-1.796-12.068-5.282s-4.53-9.13-4.53-17.109c0-8.051 1.545-13.872 4.53-17.367 2.985-3.494 6.887-5.281 11.811-5.281m338.179 0c5.133 0 9.068 1.852 12.069 5.289 3.001 3.43 4.521 8.656 4.521 16.103 0 8.84-1.4 15.201-4.264 18.615-2.88 3.413-6.831 5.032-12.068 5.032-5.109 0-9.108-1.796-12.069-5.282-2.977-3.486-4.529-9.13-4.529-17.109 0-8.051 1.536-13.872 4.521-17.367 2.977-3.486 6.895-5.281 11.819-5.281m340.931 0c5.141 0 9.068 1.852 12.069 5.289 3.001 3.43 4.529 8.656 4.529 16.103 0 8.84-1.4 15.201-4.28 18.615-2.872 3.413-6.815 5.032-12.068 5.032-5.101 0-9.349-1.796-12.318-5.282-2.961-3.486-4.272-9.13-4.272-17.109 0-8.051 1.544-13.872 4.521-17.367 2.977-3.494 6.895-5.281 11.819-5.281"/><defs><linearGradient id="a" x1="495.426" x2="495.428" y1="0" y2="477" gradientUnits="userSpaceOnUse"><stop offset=".2" stop-color="#d9dff1"/><stop offset=".975" stop-color="#d9dff1" stop-opacity="0"/></linearGradient></defs></svg>