<svg xmlns="http://www.w3.org/2000/svg" fill="none" viewBox="0 0 1024 1024"><g clip-path="url(#a)"><path fill="url(#b)" d="M0 0h1083v1084H0z" transform="matrix(0 -1 -1 0 1056 1058)"/><path fill="url(#c)" d="M-437.395 495.662C800.826-16.344 1419.43 570.968-108.452 1839l-751.445 117.16C-1131.8 1639.99-1427.97 905.267-437.395 495.662"/><path fill="url(#d)" d="M797.115 790.641C664.27 1078.94 1047.02 1142.89 1255 1138.82 1233.65 450.517 1076.6-755.332 619.178-72.287 47.403 781.52 963.172 430.261 797.115 790.641"/><path fill="url(#e)" d="M658.501 304.358C934.794 548.71 1320.81-128.776 1295-197c-25.81-68.225-212.24-201.895-228.45-311.83S-223.563-809.118-223.563-809.118c2.313 294.88 70.331 965.136 323.891 1287.12C417.279 880.483 313.134-1.082 658.501 304.358"/></g><defs><linearGradient id="b" x1="1008.5" x2="88.5" y1="968.5" y2="65.5" gradientUnits="userSpaceOnUse"><stop stop-color="#FA2189"/><stop offset="1" stop-color="#FFB552"/></linearGradient><linearGradient id="c" x1="-238" x2="789" y1="467" y2="833" gradientUnits="userSpaceOnUse"><stop stop-color="#FF1148"/><stop offset="1" stop-color="#EE3CFF"/></linearGradient><linearGradient id="d" x1="469" x2="1031" y1="700.5" y2="232.5" gradientUnits="userSpaceOnUse"><stop stop-color="#00D2FF"/><stop offset="1" stop-color="#2AFF75"/></linearGradient><linearGradient id="e" x1="985.992" x2="-9.157" y1="-121.633" y2="261.532" gradientUnits="userSpaceOnUse"><stop stop-color="#FFBD59"/><stop offset="1" stop-color="#FF6B11"/></linearGradient><clipPath id="a"><path fill="#fff" d="M0 0h1024v1024H0z"/></clipPath></defs></svg>