<svg xmlns="http://www.w3.org/2000/svg" xml:space="preserve" stroke-miterlimit="10" style="fill-rule:nonzero;clip-rule:evenodd;stroke-linecap:round;stroke-linejoin:round" viewBox="0 0 1060.54 1060.54"><defs><linearGradient id="a" x1="22.27" x2="1038.27" y1="530.27" y2="530.27" gradientUnits="userSpaceOnUse"><stop offset="0" stop-color="#111827"/><stop offset="1" stop-color="#374151"/></linearGradient><linearGradient id="c" x1="216.254" x2="925.361" y1="832.966" y2="84.962" gradientTransform="translate(4.143 4.143) scale(.99219)" gradientUnits="userSpaceOnUse"><stop offset="0" stop-color="#111827"/><stop offset="1" stop-color="#374151"/></linearGradient><linearGradient id="d" x1="212.553" x2="945.352" y1="894.627" y2="155.237" gradientTransform="translate(4.143 4.143) scale(.99219)" gradientUnits="userSpaceOnUse"><stop offset="0" stop-color="#111827"/><stop offset="1" stop-color="#374151"/></linearGradient><linearGradient id="e" x1="10.548" x2="1049.99" y1="690.837" y2="690.837" gradientUnits="userSpaceOnUse"><stop offset="0" stop-color="#111827"/><stop offset="1" stop-color="#374151"/></linearGradient><linearGradient id="g" x1="5.314" x2="1052.94" y1="463.128" y2="463.128" gradientTransform="translate(4.143 4.143) scale(.99219)" gradientUnits="userSpaceOnUse"><stop offset="0" stop-color="#111827"/><stop offset="1" stop-color="#374151"/></linearGradient><linearGradient id="j" x1="-276.928" x2="770.698" y1="988.178" y2="988.178" gradientTransform="translate(4.143 4.143) scale(.99219)" gradientUnits="userSpaceOnUse"><stop offset="0" stop-color="#111827"/><stop offset="1" stop-color="#374151"/></linearGradient><linearGradient id="k" x1="545.991" x2="1121.43" y1="1172.51" y2="576.405" gradientTransform="translate(4.143 4.143) scale(.99219)" gradientUnits="userSpaceOnUse"><stop offset="0" stop-color="#111827"/><stop offset="1" stop-color="#374151"/></linearGradient><radialGradient id="h" cx="407.599" cy="369.189" r="176.132" gradientTransform="translate(-469.819 -794.771) scale(3.07428)" gradientUnits="userSpaceOnUse"><stop offset="0" stop-color="#4f538e"/><stop offset="1" stop-color="#404569" stop-opacity="0"/></radialGradient><radialGradient id="i" cx="407.599" cy="369.189" r="176.132" gradientTransform="translate(-1166.59 -1199.89) scale(3.70722)" gradientUnits="userSpaceOnUse"><stop offset="0" stop-color="#4f838e"/><stop offset="1" stop-color="#404b69" stop-opacity="0"/></radialGradient><radialGradient id="l" cx="407.599" cy="369.189" r="176.132" gradientTransform="translate(-772.249 -114.691) scale(2.90431)" gradientUnits="userSpaceOnUse"><stop offset="0" stop-color="#4f8e62"/><stop offset="1" stop-color="#40694c" stop-opacity="0"/></radialGradient><radialGradient id="m" cx="407.599" cy="369.189" r="176.132" gradientTransform="translate(-1269.68 -544.326) scale(3.16966)" gradientUnits="userSpaceOnUse"><stop offset="0" stop-color="#8e4f77"/><stop offset="1" stop-color="#694062" stop-opacity="0"/></radialGradient><radialGradient id="n" cx="407.599" cy="369.189" r="176.132" gradientTransform="translate(-64.818 -359.681) scale(2.57094)" gradientUnits="userSpaceOnUse"><stop offset="0" stop-color="#8e734f"/><stop offset="1" stop-color="#696440" stop-opacity="0"/></radialGradient></defs><path fill="url(#a)" stroke="#f3f4f6" stroke-linecap="butt" stroke-linejoin="miter" stroke-width="40" d="M22.27 530.27c0-280.561 227.439-508 508-508 280.561 0 508 227.439 508 508 0 280.561-227.439 508-508 508-280.561 0-508-227.439-508-508Z"/><clipPath id="b" clip-rule="nonzero"><path d="M22.27 530.27c0-280.561 227.439-508 508-508 280.561 0 508 227.439 508 508 0 280.561-227.439 508-508 508-280.561 0-508-227.439-508-508Z"/></clipPath><g clip-path="url(#b)"><path fill="url(#c)" stroke="#f3f4f6" stroke-linecap="butt" stroke-linejoin="miter" stroke-width="40" d="M526.89-56.031c-219.954.959-407.267 138.433-482.3 331.777-19.167 73.108-30.761 149.294-33.456 227.768.468 6.099.886 12.215 1.559 18.255-.64.327-1.247.709-1.886 1.04-.09 5.673-.26 11.324-.26 17.02 0 378.406 202.391 709.271 504.65 891.061 1.04-.62 2.15-1.13 3.184-1.75 5.094 3.03 10.387 5.71 15.592 8.57 308.563-180.26 516.017-514.735 516.017-897.881 0-1.24-.06-2.465-.07-3.702-1.93-1.155-3.76-2.445-5.71-3.575 2.25-17.002 3.43-34.321 4.03-51.777-3.53-62.833-12.57-124.171-26.77-183.525C951.81 91.06 756.488-57.032 526.89-56.031Z" opacity=".332"/><path fill="url(#d)" stroke="#f3f4f6" stroke-linecap="butt" stroke-linejoin="miter" stroke-width="40" d="M526.89-56.031c-219.954.959-407.267 138.433-482.3 331.777-19.167 73.108-30.761 149.294-33.456 227.768.468 6.099.886 12.215 1.559 18.255-.64.327-1.247.709-1.886 1.04-.09 5.673-.26 11.324-.26 17.02 0 378.406 202.391 709.271 504.65 891.061 1.04-.62 2.15-1.13 3.184-1.75 5.094 3.03 10.387 5.71 15.592 8.57 308.563-180.26 516.017-514.735 516.017-897.881 0-1.24-.06-2.465-.07-3.702-1.93-1.155-3.76-2.445-5.71-3.575 2.25-17.002 3.43-34.321 4.03-51.777-3.53-62.833-12.57-124.171-26.77-183.525C951.81 91.06 756.488-57.032 526.89-56.031Z"/><path fill="url(#e)" stroke="#f3f4f6" stroke-linecap="butt" stroke-linejoin="miter" stroke-width="40" d="M526.89-56.031c-219.954.959-407.267 138.433-482.3 331.777-19.167 73.108-30.761 149.294-33.456 227.768.468 6.099.886 12.215 1.559 18.255-.64.327-1.247.709-1.886 1.04-.09 5.673-.26 11.324-.26 17.02 0 378.406 202.391 709.271 504.65 891.061 1.04-.62 2.15-1.13 3.184-1.75 5.094 3.03 10.387 5.71 15.592 8.57 308.563-180.26 516.017-514.735 516.017-897.881 0-1.24-.06-2.465-.07-3.702-1.93-1.155-3.76-2.445-5.71-3.575 2.25-17.002 3.43-34.321 4.03-51.777-3.53-62.833-12.57-124.171-26.77-183.525C951.81 91.06 756.488-57.032 526.89-56.031Z"/><clipPath id="f" clip-rule="nonzero"><path d="M526.89-56.031c-219.954.959-407.267 138.433-482.3 331.777-19.167 73.108-30.761 149.294-33.456 227.768.468 6.099.886 12.215 1.559 18.255-.64.327-1.247.709-1.886 1.04-.09 5.673-.26 11.324-.26 17.02 0 378.406 202.391 709.271 504.65 891.061 1.04-.62 2.15-1.13 3.184-1.75 5.094 3.03 10.387 5.71 15.592 8.57 308.563-180.26 516.017-514.735 516.017-897.881 0-1.24-.06-2.465-.07-3.702-1.93-1.155-3.76-2.445-5.71-3.575 2.25-17.002 3.43-34.321 4.03-51.777-3.53-62.833-12.57-124.171-26.77-183.525C951.81 91.06 756.488-57.032 526.89-56.031Z"/></clipPath><g clip-path="url(#f)"><path fill="url(#g)" stroke="#f3f4f6" stroke-linecap="butt" stroke-linejoin="miter" stroke-width="40" d="M9.42 465.917C8.17 178.886 239.84-54.813 526.872-56.063c287.031-1.251 520.728 230.42 521.978 517.451 1.25 287.031-230.416 520.729-517.448 521.981-287.032 1.25-520.73-230.42-521.982-517.452Z"/><path fill="url(#h)" d="M241.774 340.217c0-299.05 242.428-541.478 541.478-541.478 299.048 0 541.478 242.428 541.478 541.478 0 299.05-242.43 541.478-541.478 541.478-299.05 0-541.478-242.428-541.478-541.478Z"/><path fill="url(#i)" d="M-308.489 168.777c0-360.62 292.34-652.959 652.959-652.959 360.619 0 652.959 292.339 652.959 652.959 0 360.619-292.34 652.959-652.959 652.959-360.62 0-652.959-292.34-652.959-652.959Z"/><path fill="url(#j)" stroke="#f3f4f6" stroke-linecap="butt" stroke-linejoin="miter" stroke-width="40" d="M-270.617 986.864c-1.251-287.032 230.42-520.73 517.451-521.981 287.031-1.251 520.731 230.42 521.981 517.451 1.252 287.036-230.421 520.736-517.452 521.986-287.03 1.25-520.729-230.43-521.98-517.456Z"/><path fill="url(#k)" stroke="#f3f4f6" stroke-linecap="butt" stroke-linejoin="miter" stroke-width="40" d="M264.061 984.533c-1.25-287.031 230.421-520.729 517.452-521.981 287.027-1.25 520.737 230.421 521.987 517.452 1.25 287.036-230.42 520.726-517.456 521.976-287.033 1.26-520.731-230.42-521.983-517.447Z"/><path fill="url(#l)" d="M-99.997 957.548c0-282.517 229.025-511.542 511.541-511.542 282.517 0 511.542 229.025 511.542 511.542 0 282.512-229.025 511.542-511.542 511.542-282.516 0-511.54-229.03-511.54-511.542Z"/><path fill="url(#m)" d="M-536.007 625.875c0-308.328 249.949-558.277 558.277-558.277 308.328 0 558.277 249.949 558.277 558.277 0 308.328-249.949 558.275-558.277 558.275-308.328 0-558.277-249.947-558.277-558.275Z"/><path fill="url(#n)" d="M530.27 589.481c0-250.088 202.736-452.824 452.824-452.824 250.086 0 452.826 202.736 452.826 452.824 0 250.088-202.74 452.829-452.826 452.829-250.088 0-452.824-202.741-452.824-452.829Z"/><path fill="none" stroke="#f3f4f6" stroke-linecap="butt" stroke-linejoin="miter" stroke-width="40" d="M781.5 462.562c-97.777.427-189.09 27.863-267 75.157-78.321-46.615-169.876-73.27-267.656-72.844-287.031 1.251-518.72 234.968-517.469 522 1.251 287.025 234.97 518.685 522 517.435 97.786-.42 189.116-27.85 267.031-75.15 78.314 46.6 169.858 73.24 267.625 72.81 287.039-1.25 518.719-234.93 517.469-521.97-1.25-287.031-234.97-518.688-522-517.438Z"/><path fill="none" stroke="#f3f4f6" stroke-linecap="butt" stroke-linejoin="miter" stroke-width="40" d="M264.061 984.533c-1.25-287.031 230.421-520.729 517.452-521.981 287.027-1.25 520.737 230.421 521.987 517.452 1.25 287.036-230.42 520.726-517.456 521.976-287.033 1.26-520.731-230.42-521.983-517.447Z"/></g></g><path fill="none" stroke="#f3f4f6" stroke-linecap="butt" stroke-linejoin="miter" stroke-width="40" d="M22.27 530.27c0-280.561 227.439-508 508-508 280.561 0 508 227.439 508 508 0 280.561-227.439 508-508 508-280.561 0-508-227.439-508-508Z"/></svg>