<svg xmlns="http://www.w3.org/2000/svg" xml:space="preserve" stroke-miterlimit="10" style="fill-rule:nonzero;clip-rule:evenodd;stroke-linecap:round;stroke-linejoin:round" viewBox="0 0 1024 1024"><clipPath id="a"><path d="M0 0h1024v1024H0z"/></clipPath><g clip-path="url(#a)"><path fill="#726C5D" d="m547.469 366.594-.813 2.468c11.351 5.67 22.838 11.384 32.938 19.063-18.675-6.109-33.19-13.22-52.75-12.937-40.104.579-79.479 16.33-110.032 42.562-8.607 7.39-16.417 15.697-24.156 24-4.294 4.607-8.38 10.012-9.875 16.125l18-15.969c-5.646 8.449-12.186 16.332-16.937 25.313a117.3 117.3 0 0 0-9.782 25.187c-2.838 10.897-5.077 22.048-5.437 33.282-.354 11.051 1.281 22.125 3.313 32.968.777 4.153 3.356 7.758 5.031 11.625.876-10.446.376-21.093 2.625-31.343 1.498-6.831 5.173-13.041 8.468-19.219.913-1.712 2.689-2.82 4.032-4.219-1.6 9.83-4.403 19.559-4.782 29.5-.342 9.016 1.74 17.94 2.626 26.906 1.063-.042 1.061-.052 2.124-.094 1.183-4.537 1.791-9.248 3.563-13.593 1.238-3.036 3.586-5.501 5.375-8.25 1.73 10.114 2.616 20.42 5.188 30.343 6.069 23.422 21.347 41.508 36.968 58.938.506-.775 1.862-1.456 1.532-2.312-3.356-8.703-8.083-16.823-12.126-25.219 7.861 8.71 17.433 20.962 28.063 27.031 9.88 5.641 20.214 10.612 30.969 14.344 7.135 2.475 14.764 3.621 22.312 4.156 7.874.558 15.792-.611 23.688-.906-10.652-2.625-21.5-4.608-31.969-7.875-7.813-2.439-15.999-5.523-21.781-11.313 16.277 3.515 32.317 8.434 48.844 10.563 14.152 1.823 28.567.828 42.843 1.25.18-.901.164-.912.344-1.813-12.337-3.512-12.35-3.488-24.687-7 19.16-2.988 39.69-5.12 56.187-15.468 10.315-6.471 19.948-14.183 28.656-22.719 7.381-7.236 13.346-15.813 19.281-24.281.452-.645-.432-1.532-.656-2.282-5.655 4.826-10.736 10.46-16.968 14.5-4.78 3.099-10.458 4.456-15.688 6.688 8.555-7.098 19.913-13.835 21.75-25.813-8.899 4.491-8.913 4.509-17.812 9 3.526-5.913 7.594-11.538 10.562-17.75 1.361-2.847 1.52-6.128 2.281-9.187-8.513 6.082-16.608 12.799-25.531 18.25-5.143 3.141-10.98 4.934-16.469 7.406 8.941-6.745 18.789-12.393 26.813-20.219 6.71-6.545 12.45-14.25 16.968-22.469 3.519-6.399 4.566-13.847 6.844-20.781-.781.003-1.798-.567-2.344 0-4.058 4.218-7.269 9.161-10.906 13.75 3.741-7.755 9.049-14.926 11.219-23.25 2.39-9.165 2.829-18.856 2.219-28.281-.663-10.231-2.507-20.519-6-30.125-4.036-11.095-10.445-21.19-16.375-31.375-.596-1.024-2-1.246-3-1.875l2.406 10.719c-6.745-9.851-12.086-20.838-20.219-29.563-6.916-7.42-15.273-13.72-24.344-18.25-10.179-5.083-21.724-6.795-32.593-10.187m11.187 95.437c3.371 2.468 6.796 4.927 9.656 7.969 3.376 3.589 6.41 7.561 8.938 11.781 4.042 6.75 4.734 15.049 5.781 22.813 1.522-4.954 1.51-4.953 3.031-9.906.363.08.357.076.719.156-.289 5.763-.02 11.58-.875 17.281-.998 6.658-3.101 13.111-4.656 19.656 2.387-2.287 3.7-5.583 4.75-8.719 1.407-4.201 2.289-8.563 3.438-12.843.053 3.192.478 6.418.187 9.593-.279 3.045-.816 6.108-1.875 8.969-1.597 4.313-3.702 8.432-6.062 12.375-2.541 4.243-7.542 8.023-11.126 11.125 3.426-1.562 6.739-3.404 10.282-4.687.349-.127.597.414.906.625-7.171 6.164-14.583 12.181-24.094 14.437-4.03.956-8.213 1.23-12.312 1.844 1.095.746 2.065 1.725 3.281 2.25 1.74.752 3.646 1.016 5.469 1.531.008.43.023.445.031.875-3.629.283-7.267 1.058-10.906.844-4.013-.236-7.918-1.459-11.875-2.188.554.555 1.004 1.274 1.687 1.657 2.468 1.382 4.942 2.931 7.688 3.593 4.121.994 8.413.872 12.625 1.313-1.576.644-3.035 1.658-4.719 1.937-4.397.73-8.883 1.298-13.344 1.063-4.534-.239-9.029-1.232-13.406-2.469a47.4 47.4 0 0 1-10.094-4.156c-3.588-1.994-6.728-4.712-10.093-7.062 3.152 3.704 3.159 3.701 6.312 7.406-2.456-.655-4.612-2.352-6.438-4.125-3.289-3.195-6.555-6.4-9.468-9.938-10.341-12.559-16.382-28.609-16.282-44.812.049-7.903 3.033-13.696 5.657-21.188-3.186 4.015-5.584 8.588-7.969 13.125-.49-.172-.51-.171-1-.344 1.461-4.361 2.237-9.024 4.375-13.093 1.905-3.626 4.539-6.925 7.594-9.657 3.592-3.211 8.058-5.295 12.093-7.937-2.176.442-2.167.464-4.343.906.262-.399.363-.986.781-1.219 4.163-2.31 8.297-4.806 12.812-6.343 3.909-1.331 8.081-1.974 12.219-2.157 3.812-.167 7.724.084 11.407 1.126 3.344.946 6.211 3.143 9.312 4.718-1.823-1.507-3.799-2.825-5.469-4.5-.224-.225-.005-.653 0-.968 2.782.978 5.788 1.462 8.344 2.937 3.282 1.894 6.35 4.266 8.937 7.031 3.095 3.306 5.288 7.333 7.938 11-.953-2.237-1.618-4.615-2.844-6.718-2.127-3.65-4.771-6.98-7.156-10.469 1.229.333 2.549.426 3.688 1 2.484 1.25 4.703 2.964 7.062 4.437-1.74-3.632-1.729-3.649-3.469-7.281 4.823.842 7.455 5.517 10.25 9.031-.857-2.131-1.382-4.45-2.593-6.406-1.581-2.551-3.786-4.644-5.688-6.969.305-.084.65-.438.906-.25"/></g></svg>