<svg xmlns="http://www.w3.org/2000/svg" xml:space="preserve" stroke-miterlimit="10" style="fill-rule:nonzero;clip-rule:evenodd;stroke-linecap:round;stroke-linejoin:round" viewBox="0 0 1024 1024"><clipPath id="a"><path d="M0 0h1024v1024H0z"/></clipPath><g clip-path="url(#a)"><path fill="#625C4C" d="M591.156 187.406c-.897 2.729-.884 2.74-1.781 5.469 25.341 12.657 50.985 25.419 73.531 42.563-41.69-13.639-74.112-29.476-117.781-28.844-89.532 1.294-177.449 36.468-245.656 95.031-19.216 16.498-36.66 35.026-53.938 53.563-9.587 10.285-18.694 22.322-22.031 35.968 20.11-17.84 20.109-17.816 40.219-35.656-12.605 18.861-27.204 36.513-37.813 56.562a261.7 261.7 0 0 0-21.844 56.188c-6.336 24.326-11.353 49.266-12.156 74.344-.79 24.673 2.872 49.385 7.406 73.594 1.737 9.27 7.481 17.272 11.219 25.906 1.957-23.321.855-47.084 5.875-69.969 3.346-15.248 11.55-29.114 18.906-42.906 2.038-3.821 5.972-6.252 8.969-9.375-3.572 21.946-9.843 43.649-10.687 65.844-.766 20.128 3.93 40.045 5.906 60.062l4.75-.188c2.64-10.13 3.982-20.705 7.938-30.406 2.764-6.778 7.974-12.268 11.968-18.406 3.862 22.581 5.852 45.595 11.594 67.75 13.551 52.289 47.689 92.68 82.562 131.594 1.129-1.73 4.113-3.275 3.376-5.188-7.492-19.427-18.039-37.504-27.063-56.25 17.548 19.446 38.924 46.764 62.656 60.313 22.057 12.592 45.147 23.701 69.157 32.031 15.929 5.527 32.929 8.055 49.781 9.25 17.577 1.247 35.278-1.341 52.906-2-23.781-5.86-47.972-10.269-71.344-17.562-17.443-5.444-35.716-12.357-48.625-25.282 36.339 7.847 72.135 18.809 109.032 23.563 31.595 4.07 63.752 1.871 95.624 2.812.401-2.01.381-2.021.782-4.031-27.543-7.841-27.551-7.815-55.094-15.656 42.777-6.672 88.578-11.428 125.406-34.532 23.029-14.446 44.528-31.63 63.969-50.687 16.478-16.153 29.812-35.345 43.063-54.25 1.008-1.44-1.001-3.357-1.5-5.031-12.626 10.774-23.961 23.323-37.876 32.344-10.669 6.917-23.354 9.955-35.031 14.937 19.099-15.846 44.462-30.885 48.563-57.625l-39.75 20.062c7.873-13.202 16.999-25.758 23.625-39.624 3.037-6.357 3.394-13.639 5.093-20.469-19.006 13.577-37.078 28.549-57 40.719-11.481 7.013-24.528 11.044-36.781 16.562 19.961-15.059 41.963-27.715 59.875-45.188 14.981-14.612 27.757-31.777 37.844-50.124 7.855-14.288 10.194-30.959 15.281-46.438-1.744.005-4.031-1.266-5.25 0-9.061 9.416-16.224 20.505-24.343 30.75 8.351-17.314 20.185-33.354 25.031-51.938 5.335-20.462 6.331-42.114 4.969-63.156-1.48-22.841-5.608-45.805-13.407-67.25-9.008-24.77-23.26-47.293-36.5-70.031-1.33-2.285-4.485-2.814-6.719-4.219 2.691 11.975 2.685 11.995 5.376 23.969-15.058-21.992-27.002-46.491-45.157-65.969-15.44-16.565-34.063-30.638-54.312-40.75-22.727-11.349-48.548-15.176-72.813-22.75m-32.5 274.625c3.371 2.468 6.796 4.927 9.656 7.969 3.376 3.589 6.41 7.561 8.938 11.781 4.042 6.75 4.734 15.049 5.781 22.813 1.522-4.954 1.51-4.953 3.031-9.906.363.08.357.076.719.156-.289 5.763-.02 11.58-.875 17.281-.998 6.658-3.101 13.111-4.656 19.656 2.387-2.287 3.7-5.583 4.75-8.719 1.407-4.201 2.289-8.563 3.438-12.843.053 3.192.478 6.418.187 9.593-.279 3.045-.816 6.108-1.875 8.969-1.597 4.313-3.702 8.432-6.062 12.375-2.541 4.243-7.542 8.023-11.126 11.125 3.426-1.562 6.739-3.404 10.282-4.687.349-.127.597.414.906.625-7.171 6.164-14.583 12.181-24.094 14.437-4.03.956-8.213 1.23-12.312 1.844 1.095.746 2.065 1.725 3.281 2.25 1.74.752 3.646 1.016 5.469 1.531.008.43.023.445.031.875-3.629.283-7.267 1.058-10.906.844-4.013-.236-7.918-1.459-11.875-2.188.554.555 1.004 1.274 1.687 1.657 2.468 1.382 4.942 2.931 7.688 3.593 4.121.994 8.413.872 12.625 1.313-1.576.644-3.035 1.658-4.719 1.937-4.397.73-8.883 1.298-13.344 1.063-4.534-.239-9.029-1.232-13.406-2.469a47.4 47.4 0 0 1-10.094-4.156c-3.588-1.994-6.728-4.712-10.093-7.062 3.152 3.704 3.159 3.701 6.312 7.406-2.456-.655-4.612-2.352-6.438-4.125-3.289-3.195-6.555-6.4-9.468-9.938-10.341-12.559-16.382-28.609-16.282-44.812.049-7.903 3.033-13.696 5.657-21.188-3.186 4.015-5.584 8.588-7.969 13.125-.49-.172-.51-.171-1-.344 1.461-4.361 2.237-9.024 4.375-13.093 1.905-3.626 4.539-6.925 7.594-9.657 3.592-3.211 8.058-5.295 12.093-7.937-2.176.442-2.167.464-4.343.906.262-.399.363-.986.781-1.219 4.163-2.31 8.297-4.806 12.812-6.343 3.909-1.331 8.081-1.974 12.219-2.157 3.812-.167 7.724.084 11.407 1.126 3.344.946 6.211 3.143 9.312 4.718-1.823-1.507-3.799-2.825-5.469-4.5-.224-.225-.005-.653 0-.968 2.782.978 5.788 1.462 8.344 2.937 3.282 1.894 6.35 4.266 8.937 7.031 3.095 3.306 5.288 7.333 7.938 11-.953-2.237-1.618-4.615-2.844-6.718-2.127-3.65-4.771-6.98-7.156-10.469 1.229.333 2.549.426 3.688 1 2.484 1.25 4.703 2.964 7.062 4.437-1.74-3.632-1.729-3.649-3.469-7.281 4.823.842 7.455 5.517 10.25 9.031-.857-2.131-1.382-4.45-2.593-6.406-1.581-2.551-3.786-4.644-5.688-6.969.305-.084.65-.438.906-.25"/></g></svg>