<svg xmlns="http://www.w3.org/2000/svg" xml:space="preserve" stroke-miterlimit="10" style="fill-rule:nonzero;clip-rule:evenodd;stroke-linecap:round;stroke-linejoin:round" viewBox="0 0 1024 1024"><clipPath id="a"><path d="M0 0h1024v1024H0z"/></clipPath><g clip-path="url(#a)"><path fill="#5A5547" d="M444.969 0c-11.121.032-22.141 1.44-32.438 5.063 40.293 11.026 40.301 11.036 80.594 22.062-35.249-.391-70.649-4.403-105.75-1.187-31.094 2.848-62.048 9.342-91.625 19.25-37.04 12.407-73.805 27.097-107.125 47.343-32.783 19.92-61.812 45.67-89.469 72.125-10.59 10.131-16.124 24.398-24.187 36.594 32.014-17.253 61.984-38.886 96.031-51.781 22.686-8.593 47.71-9.708 71.906-11.844 6.703-.592 13.203 2.5 19.813 3.75-31.596 13.984-65.179 24.223-94.781 41.969-26.847 16.093-48.752 39.12-73.125 58.687l4.28 6.031c15.427-5.165 30.298-12.412 46.282-15.5 11.168-2.157 22.746-.018 34.125-.031-26.109 24.198-54.353 46.311-78.312 72.594C44.639 367.156 21.037 445.886 0 524.312c3.21 0 7.762 2.585 9.625 0 18.924-26.244 33.483-55.308 50.219-82.968-10.41 39.348-27.797 90.359-25.281 132.75 2.338 39.398 7.518 78.866 17.062 117.187 6.332 25.424 17.435 49.71 30.188 72.657 13.301 23.935 31.675 44.741 47.499 67.124-12.564-35.925-27.368-71.14-37.718-107.75-7.725-27.324-14.237-56.944-8.375-84.718 20.64 53.956 36.766 109.819 61.906 161.875 21.528 44.577 51.696 84.532 77.531 126.812 2.957-1.185 2.95-1.159 5.906-2.343-13.179-42.505-13.195-42.528-26.374-85.032 45.001 50.009 90.068 105.559 151.406 133.875 38.353 17.706 78.972 31.129 120.281 40.249 35.013 7.73 71.302 8.78 107.156 9.97 2.731.09 3.496-4.15 5.25-6.22-24.742-7.28-50.664-11.39-74.219-21.842-18.061-8.013-32.789-21.94-49.187-32.907 36.839 11.403 77.935 31.647 116.219 14.281-29.918-17.344-29.926-17.343-59.844-34.687 23.867-.963 47.921.275 71.594-2.875 10.852-1.444 20.668-7.194 31-10.781-33.808-13.208-68.655-24.03-101.406-39.625-18.877-8.988-35.166-22.519-52.75-33.782 36.545 13.193 71.677 31.116 109.624 39.594 31.738 7.091 64.933 9.106 97.376 6.656 25.265-1.907 48.94-13.04 73.406-19.562-1.488-2.266-1.787-6.302-4.469-6.812-19.948-3.799-40.461-3.726-60.687-5.594 29.624-3.831 60.574-2.028 88.874-11.5 31.162-10.429 60.179-27.519 86.407-47.156 28.472-21.319 54.868-46.174 76.156-74.532 24.589-32.755 41.742-70.433 60.094-106.968 1.844-3.673-.121-8.213-.188-12.313-13.3 13.668-13.293 13.676-26.593 27.344 15.837-38.27 37.562-74.647 47.502-114.813 8.45-34.159 10.97-70.341 6.93-105.281-4.52-39.214-21.5-76.02-32.245-114.031-4.313 1.149-4.312 1.132-8.625 2.281 5.043 43.728 10.232 87.976 7.062 131.875-17.645-65.839-24.602-121.515-62.5-177.812-77.7-115.425-198.09-199.982-332.218-239.032-37.787-11-76.706-17.97-115.5-24.718C467.33 1.315 456.09-.033 444.969 0m113.687 462.031c3.371 2.468 6.796 4.927 9.656 7.969 3.376 3.589 6.41 7.561 8.938 11.781 4.042 6.75 4.734 15.049 5.781 22.813 1.522-4.954 1.51-4.953 3.031-9.906.363.08.357.076.719.156-.289 5.763-.02 11.58-.875 17.281-.998 6.658-3.101 13.111-4.656 19.656 2.387-2.287 3.7-5.583 4.75-8.719 1.407-4.201 2.289-8.563 3.438-12.843.053 3.192.478 6.418.187 9.593-.279 3.045-.816 6.108-1.875 8.969-1.597 4.313-3.702 8.432-6.062 12.375-2.541 4.243-7.542 8.023-11.126 11.125 3.426-1.562 6.739-3.404 10.282-4.687.349-.127.597.414.906.625-7.171 6.164-14.583 12.181-24.094 14.437-4.03.956-8.213 1.23-12.312 1.844 1.095.746 2.065 1.725 3.281 2.25 1.74.752 3.646 1.016 5.469 1.531.008.43.023.445.031.875-3.629.283-7.267 1.058-10.906.844-4.013-.236-7.918-1.459-11.875-2.188.554.555 1.004 1.274 1.687 1.657 2.468 1.382 4.942 2.931 7.688 3.593 4.121.994 8.413.872 12.625 1.313-1.576.644-3.035 1.658-4.719 1.937-4.397.73-8.883 1.298-13.344 1.063-4.534-.239-9.029-1.232-13.406-2.469a47.4 47.4 0 0 1-10.094-4.156c-3.588-1.994-6.728-4.712-10.093-7.062 3.152 3.704 3.159 3.701 6.312 7.406-2.456-.655-4.612-2.352-6.438-4.125-3.289-3.195-6.555-6.4-9.468-9.938-10.341-12.559-16.382-28.609-16.282-44.812.049-7.903 3.033-13.696 5.657-21.188-3.186 4.015-5.584 8.588-7.969 13.125-.49-.172-.51-.171-1-.344 1.461-4.361 2.237-9.024 4.375-13.093 1.905-3.626 4.539-6.925 7.594-9.657 3.592-3.211 8.058-5.295 12.093-7.937-2.176.442-2.167.464-4.343.906.262-.399.363-.986.781-1.219 4.163-2.31 8.297-4.806 12.812-6.343 3.909-1.331 8.081-1.974 12.219-2.157 3.812-.167 7.724.084 11.407 1.126 3.344.946 6.211 3.143 9.312 4.718-1.823-1.507-3.799-2.825-5.469-4.5-.224-.225-.005-.653 0-.968 2.782.978 5.788 1.462 8.344 2.937 3.282 1.894 6.35 4.266 8.937 7.031 3.095 3.306 5.288 7.333 7.938 11-.953-2.237-1.618-4.615-2.844-6.718-2.127-3.65-4.771-6.98-7.156-10.469 1.229.333 2.549.426 3.688 1 2.484 1.25 4.703 2.964 7.062 4.437-1.74-3.632-1.729-3.649-3.469-7.281 4.823.842 7.455 5.517 10.25 9.031-.857-2.131-1.382-4.45-2.593-6.406-1.581-2.551-3.786-4.644-5.688-6.969.305-.084.65-.438.906-.25"/></g></svg>