<svg xmlns="http://www.w3.org/2000/svg" xml:space="preserve" stroke-miterlimit="10" style="fill-rule:nonzero;clip-rule:evenodd;stroke-linecap:round;stroke-linejoin:round" viewBox="0 0 1024 218.66"><clipPath id="a"><path d="M0 0h1024v218.66H0z"/></clipPath><g clip-path="url(#a)"><path fill="#948c76" d="M62.272 118.499q.242-.416.47-.841.064.422.135.839zm608.437-19.545c-4.963-3.876-11.161-6.182-17.877-6.172-10.454.019-19.582 5.634-24.685 14.057-9.172-14.091-25.271-23.445-43.55-23.414-12.216.02-23.396 4.23-32.152 11.231-6.974-9.706-17.827-15.42-29.232-14.08-13.105 1.539-23.253 11.956-26.643 25.571-3.616-3.285-8.289-5.281-13.392-5.273-8.133.012-15.106 5.096-18.381 12.435-4.351-11.032-14.96-18.83-27.308-18.81-8.269.014-15.703 3.534-20.978 9.168-3.801-4.705-9.409-7.69-15.66-7.68-6.401.01-12.094 3.153-15.826 8.068-8.09-17.592-26.158-29.85-47.083-29.816-18.221.028-34.146 9.38-43.134 23.427-5.364-5.73-12.925-9.302-21.284-9.289-7.663.012-14.612 3.034-19.786 7.964-10.811-13.387-27.157-21.924-45.401-21.893-15.225.025-29.045 6.012-39.374 15.795-5.933-9.508-15.59-15.706-26.462-15.69-12.385.022-23.083 8.095-28.436 19.927-5.405-6.627-13.552-10.845-22.643-10.83-11.961.02-22.181 7.367-26.628 17.864-2.245-9.626-10.386-16.775-20.062-16.76-7.724.012-14.412 4.589-17.871 11.332C21.206 85.204 11.64 76.596 0 72.028V218.66h694.798V84.273a19.4 19.4 0 0 0-4.655-.565c-9.139.015-16.833 6.416-19.434 15.246"/><path fill="#aba491" d="M.22 87.663c11.642 4.567 21.207 13.175 26.862 24.057 3.459-6.743 10.146-11.319 17.87-11.332 9.677-.014 17.818 7.134 20.063 16.76 4.446-10.496 14.666-17.844 26.628-17.863 9.091-.016 17.238 4.203 22.643 10.83 5.353-11.833 16.052-19.905 28.435-19.926 10.873-.017 20.53 6.18 26.463 15.689 10.33-9.783 24.149-15.77 39.374-15.796 18.244-.03 34.591 8.507 45.4 21.893 5.175-4.929 12.123-7.951 19.786-7.963 8.359-.013 15.92 3.559 21.285 9.289 8.988-14.048 24.913-23.4 43.134-23.429 20.925-.032 38.992 12.226 47.082 29.817 3.733-4.914 9.426-8.057 15.827-8.068 6.25-.009 11.859 2.976 15.66 7.681 5.275-5.634 12.709-9.155 20.978-9.168 12.349-.02 22.956 7.778 27.308 18.811 3.274-7.341 10.247-12.424 18.38-12.436 5.105-.008 9.776 1.987 13.393 5.273 3.39-13.615 13.537-24.033 26.642-25.571 11.405-1.34 22.259 4.373 29.232 14.08 8.756-7.002 19.937-11.213 32.152-11.232 18.28-.03 34.379 9.324 43.551 23.414 5.103-8.423 14.231-14.038 24.684-14.056 6.716-.01 12.916 2.296 17.878 6.171 2.601-8.83 10.295-15.23 19.435-15.245a19.3 19.3 0 0 1 4.433.518V84.273a19.4 19.4 0 0 0-4.655-.565c-9.139.015-16.833 6.415-19.434 15.246-4.962-3.876-11.161-6.182-17.877-6.172-10.454.019-19.582 5.633-24.685 14.056-9.172-14.09-25.27-23.443-43.55-23.413-12.216.019-23.396 4.23-32.152 11.231-6.974-9.707-17.828-15.42-29.232-14.08-13.106 1.539-23.253 11.956-26.642 25.572-3.617-3.287-8.29-5.282-13.392-5.274-8.134.012-15.108 5.095-18.382 12.436-4.351-11.033-14.96-18.83-27.307-18.81-8.27.014-15.704 3.533-20.979 9.167-3.801-4.705-9.409-7.689-15.66-7.68-6.401.01-12.094 3.153-15.826 8.068-8.09-17.592-26.158-29.85-47.082-29.817-18.222.03-34.147 9.38-43.134 23.428-5.365-5.73-12.926-9.302-21.285-9.289-7.663.012-14.612 3.034-19.786 7.963-10.81-13.386-27.157-21.923-45.401-21.892-15.225.025-29.045 6.013-39.374 15.795-5.933-9.509-15.589-15.706-26.463-15.689-12.384.02-23.082 8.094-28.434 19.926-5.406-6.627-13.553-10.845-22.644-10.83-11.961.02-22.181 7.367-26.628 17.863-2.244-9.624-10.386-16.774-20.062-16.76-7.725.013-14.412 4.59-17.871 11.333-5.655-10.882-15.22-19.49-26.86-24.058V218.66h.22z"/><path fill="#948c76" d="M694.798 109.33V.386a27.76 27.76 0 0 0-14.981 1.62c-8.208 3.298-14.003 10.066-16.434 18.003-9.201-8.707-21.834-12.08-33.018-7.586-9.818 3.946-16.242 13.045-18.085 23.769-12.935-5.045-27.617-5.404-41.366.122-16.474 6.62-28.073 20.261-32.884 36.254-6.49-2.552-13.875-2.743-20.796.038-7.549 3.034-13.051 9.005-15.777 16.12-13.299-9.376-31.121-11.995-47.577-5.384-18.894 7.594-30.673 25.215-31.474 44.004-5.184-3.065-11.482-3.822-17.262-1.498-5.644 2.268-9.603 7.001-11.295 12.622-6.842-3.154-14.85-3.614-22.316-.613-11.152 4.481-17.843 15.367-17.697 26.886-5.665-5.416-13.835-7.452-21.18-4.5-4.608 1.851-8.089 5.35-10.136 9.628-8.088-11.028-21.093-16.711-33.487-13.322-10.786 2.946-18.472 12.049-21.178 23.329-10.488-3.115-22.134-2.833-33.165 1.6-16.505 6.632-27.578 20.921-30.653 36.952-7.715-5.726-18.024-7.459-27.465-3.666a27.6 27.6 0 0 0-6.737 3.897h524.963z"/><path fill="#aba491" d="M242.723 190.646c11.032-4.433 22.678-4.715 33.165-1.6 2.706-11.279 10.393-20.382 21.178-23.329 12.395-3.388 25.4 2.295 33.486 13.323 2.048-4.278 5.529-7.777 10.138-9.629 7.344-2.951 15.514-.915 21.18 4.501-.146-11.52 6.545-22.405 17.696-26.886 7.467-3.001 15.475-2.541 22.316.613 1.693-5.622 5.651-10.355 11.295-12.623 5.78-2.323 12.078-1.566 17.261 1.499.803-18.789 12.581-36.411 31.476-44.004 16.455-6.611 34.277-3.993 47.577 5.383 2.726-7.114 8.227-13.085 15.776-16.12 6.92-2.78 14.306-2.588 20.797-.038 4.811-15.993 16.41-29.635 32.883-36.253 13.749-5.526 28.431-5.167 41.366-.122 1.842-10.724 8.268-19.824 18.086-23.769 11.183-4.494 23.817-1.12 33.018 7.586 2.43-7.938 8.225-14.706 16.433-18.004a27.7 27.7 0 0 1 6.948-1.782V.386a27.75 27.75 0 0 0-14.981 1.619c-8.208 3.3-14.003 10.067-16.434 18.004-9.201-8.707-21.834-12.08-33.018-7.586-9.818 3.946-16.242 13.044-18.085 23.768-12.935-5.044-27.617-5.403-41.366.123-16.474 6.62-28.073 20.26-32.883 36.254-6.491-2.552-13.876-2.743-20.798.038-7.548 3.033-13.05 9.006-15.775 16.12-13.301-9.377-31.123-11.995-47.577-5.384-18.895 7.593-30.674 25.216-31.476 44.004-5.184-3.065-11.481-3.821-17.261-1.499-5.645 2.269-9.603 7.001-11.296 12.623-6.84-3.154-14.848-3.615-22.315-.613-11.152 4.481-17.843 15.366-17.697 26.887-5.665-5.418-13.835-7.453-21.179-4.501-4.609 1.851-8.089 5.35-10.138 9.628-8.087-11.027-21.092-16.712-33.486-13.323-10.786 2.948-18.472 12.05-21.178 23.33-10.488-3.115-22.134-2.833-33.165 1.6-16.504 6.632-27.578 20.921-30.653 36.952-7.715-5.726-18.024-7.46-27.465-3.666a27.6 27.6 0 0 0-6.737 3.896h44.854c4.881-12.262 14.677-22.647 28.034-28.014"/><path fill="#918a77" d="M240.942 186.34c-10.734-6.755-24.22-6.379-36.134-.292-3.983-16.445-13.826-31.153-28.857-40.614-18.009-11.336-39.594-12.703-58.794-5.66-1.979-8.267-6.921-15.674-14.486-20.434-8.252-5.196-17.996-6.212-26.944-3.658C75.785 95.693 66 76.23 48.01 64.907 33.167 55.565 15.75 53.69 0 58.2v160.462h256.815c.299-13.322-5.176-25.587-15.874-32.321"/><path fill="#aba491" d="M41.752 76.082c17.989 11.322 27.774 30.785 27.715 50.776 8.949-2.556 18.693-1.539 26.944 3.655 7.566 4.761 12.508 12.169 14.487 20.435 19.2-7.043 40.785-5.675 58.794 5.66 15.031 9.461 24.874 24.169 28.857 40.614 11.914-6.087 25.4-6.463 36.134.292 7.606 4.787 12.555 12.375 14.683 21.146h7.45c.298-13.321-5.176-25.587-15.874-32.32-10.734-6.754-24.22-6.378-36.134-.293-3.983-16.444-13.826-31.153-28.857-40.614-18.009-11.334-39.594-12.703-58.794-5.658-1.979-8.268-6.921-15.676-14.486-20.436-8.253-5.194-17.996-6.211-26.944-3.656.058-19.99-9.728-39.454-27.716-50.776C33.167 55.565 16.319 53.962 0 53.2v10.201c15.195.094 28.85 4.558 41.752 12.68"/><path fill="#918a77" d="M664.375 78.244a33.12 33.12 0 0 0-24.168.585c-8.746 3.659-15.09 10.622-18.197 18.816-15.534-10.362-36.27-12.888-55.336-4.908-21.892 9.16-35.427 29.591-36.2 51.068-6.051-3.366-13.377-4.067-20.075-1.264-6.538 2.736-11.099 8.245-13.017 14.707-7.976-3.422-17.288-3.741-25.939-.119-12.921 5.406-20.604 18.012-20.335 31.164-6.63-6.039-16.142-8.151-24.653-4.589-5.339 2.234-9.352 6.319-11.698 11.258-9.493-12.382-24.653-18.536-39.03-14.343-12.51 3.647-21.36 14.24-24.413 27.192-12.214-3.285-25.743-2.66-38.525 2.689a59.8 59.8 0 0 0-13.461 7.831h349.877l.332.329h46.115l-.849-165.456c-9.633-.003-25.633 8.87-30.428 25.04"/><path fill="#aba491" d="M353.26 218.331h2.592c3.174-12.679 11.912-23.005 24.2-26.595 14.345-4.193 29.473 1.96 38.946 14.343 2.341-4.939 6.345-9.025 11.674-11.258 8.491-3.562 17.983-1.45 24.599 4.588-.269-13.152 7.398-25.757 20.291-31.163 8.632-3.622 17.924-3.303 25.883.119 1.914-6.463 6.465-11.97 12.989-14.708 6.683-2.802 13.993-2.102 20.032 1.265.77-21.478 14.276-41.908 36.122-51.069 19.024-7.98 39.715-5.453 55.216 4.909 3.101-8.195 9.431-15.157 18.158-18.817a32.98 32.98 0 0 1 24.115-.584c4.308-14.557 18.226-30.112 26.721-27.104v-9.056c-13.098-.708-26.426 8.874-31.21 25.043a32.98 32.98 0 0 0-24.116.585c-8.728 3.659-15.058 10.622-18.157 18.817-15.502-10.363-36.192-12.89-55.217-4.91-21.845 9.161-35.352 29.592-36.123 51.069-6.038-3.366-13.347-4.067-20.031-1.264-6.525 2.737-11.074 8.245-12.989 14.707-7.959-3.422-17.251-3.741-25.884-.118-12.892 5.405-20.559 18.011-20.29 31.163-6.616-6.039-16.108-8.151-24.599-4.589-5.328 2.234-9.333 6.319-11.674 11.258-9.472-12.382-24.6-18.536-38.945-14.343-12.483 3.647-21.315 14.24-24.36 27.193-12.188-3.285-25.689-2.661-38.442 2.688a59.6 59.6 0 0 0-13.433 7.831h28.29c8.664-1.916 17.414-1.842 25.642 0"/><path fill="#736d5d" d="M187.594 213.569c-8.034-5.204-17.512-6.732-26.808-5.071.338-10.467-3.897-19.515-12.066-23.353-9.386-4.41-21.328-.708-30.45 8.348-.709-4.081-2.767-7.617-6.123-9.789-5.35-3.466-12.503-2.524-18.371 1.741 2.729-10.373-.288-20.92-8.41-26.181-5.436-3.522-12.102-3.983-18.419-1.888-.114-5.253-2.283-9.955-6.394-12.617-4.21-2.726-9.54-2.735-14.48-.536 3.597-17.03-2.063-34.21-15.82-43.123C21.227 95.253 20.458 91.064 0 90.132L.019 218.66h193.715a34.3 34.3 0 0 0-6.14-5.091M681.368 94.326c-9.912 4.158-16.301 13.497-18.007 24.418-13.215-4.928-28.132-5.068-42.013.754-16.631 6.975-28.206 21.008-32.848 37.325-6.631-2.493-14.135-2.574-21.122.356-7.62 3.195-13.118 9.346-15.779 16.612-13.649-9.32-31.792-11.707-48.405-4.742-19.075 8-30.769 26.079-31.298 45.175-5.311-3.035-11.72-3.707-17.556-1.26-3.03 1.272-5.538 3.26-7.482 5.696h247.94V92.285c-4.524-.397-9.094.221-13.43 2.04"/><path fill="#948c76" d="M690.652 109.33V.386a27.76 27.76 0 0 1 14.981 1.62c8.208 3.298 14.003 10.067 16.434 18.003 9.201-8.706 21.834-12.08 33.018-7.585 9.818 3.945 16.242 13.044 18.085 23.768 12.935-5.045 27.617-5.404 41.366.123 16.474 6.619 28.073 20.26 32.884 36.253 6.49-2.552 13.875-2.743 20.797.038 7.548 3.034 13.05 9.006 15.776 16.12 13.299-9.376 31.121-11.995 47.577-5.384 18.894 7.594 30.673 25.216 31.474 44.004 5.185-3.065 11.482-3.821 17.262-1.498 5.645 2.268 9.603 7.001 11.296 12.622 6.841-3.153 14.848-3.614 22.318-.613 11.15 4.481 17.84 15.367 17.69 26.887 5.67-5.417 13.84-7.453 21.18-4.501 4.61 1.851 8.09 5.35 10.14 9.628 8.09-11.027 21.09-16.711 33.49-13.322 10.78 2.947 18.47 12.049 21.18 23.329 10.48-3.114 22.13-2.833 33.16 1.6 16.51 6.632 27.58 20.921 30.65 36.952 7.72-5.726 18.03-7.459 27.47-3.665a27.4 27.4 0 0 1 6.73 3.896H690.652z"/><path fill="#aba491" d="M1142.73 190.646c-11.03-4.433-22.68-4.714-33.17-1.6-2.7-11.279-10.39-20.381-21.18-23.328-12.39-3.389-25.4 2.294-33.48 13.322-2.05-4.278-5.53-7.777-10.14-9.629-7.34-2.95-15.51-.915-21.18 4.502.15-11.521-6.54-22.406-17.7-26.887-7.463-3.001-15.47-2.54-22.312.613-1.692-5.621-5.651-10.355-11.295-12.623-5.78-2.322-12.078-1.566-17.261 1.499-.802-18.788-12.581-36.41-31.475-44.004-16.456-6.61-34.278-3.993-47.577 5.383-2.727-7.114-8.228-13.085-15.777-16.119-6.92-2.781-14.306-2.59-20.797-.039-4.81-15.992-16.41-29.634-32.883-36.253-13.749-5.526-28.431-5.167-41.366-.122-1.842-10.724-8.268-19.824-18.086-23.768-11.183-4.494-23.816-1.121-33.017 7.585-2.431-7.937-8.226-14.706-16.434-18.004-2.282-.917-4.615-.763-6.948-1.052V.386a27.75 27.75 0 0 1 14.981 1.619c8.208 3.3 14.003 10.067 16.434 18.004 9.201-8.707 21.835-12.079 33.018-7.586 9.818 3.946 16.243 13.045 18.085 23.769 12.935-5.045 27.617-5.404 41.367.122 16.473 6.62 28.072 20.261 32.882 36.255 6.491-2.553 13.877-2.744 20.798.037 7.548 3.034 13.05 9.006 15.775 16.12 13.301-9.376 31.123-11.995 47.577-5.383 18.895 7.592 30.674 25.215 31.476 44.003 5.184-3.065 11.481-3.821 17.261-1.499 5.645 2.269 9.603 7.001 11.296 12.624 6.84-3.155 14.848-3.615 22.318-.614 11.15 4.481 17.84 15.366 17.69 26.887 5.67-5.417 13.84-7.453 21.18-4.5 4.61 1.851 8.09 5.35 10.14 9.627 8.09-11.027 21.09-16.711 33.49-13.323 10.78 2.948 18.47 12.05 21.18 23.331 10.48-3.116 22.13-2.834 33.16 1.6 16.5 6.632 27.58 20.92 30.65 36.951 7.72-5.725 18.03-7.46 27.47-3.666 2.48.998 4.73 2.323 6.73 3.896h-44.85c-4.88-12.261-14.68-22.646-28.03-28.014"/><path fill="#918a77" d="M721.075 78.244a33.12 33.12 0 0 1 24.168.585c8.746 3.66 15.09 10.622 18.197 18.816 15.534-10.362 36.27-12.888 55.336-4.908 21.892 9.16 35.428 29.591 36.2 51.069 6.051-3.367 13.377-4.067 20.075-1.265 6.538 2.737 11.099 8.245 13.017 14.708 7.976-3.423 17.289-3.741 25.939-.12 12.921 5.406 20.604 18.012 20.335 31.164 6.63-6.039 16.142-8.15 24.653-4.588 5.339 2.233 9.353 6.319 11.699 11.257 9.492-12.382 24.652-18.536 39.026-14.342 12.51 3.646 21.36 14.239 24.42 27.191 12.21-3.285 25.74-2.659 38.52 2.69a59.6 59.6 0 0 1 13.46 7.83H736.245l-.332.329h-46.115l.854-165.459c9.276-.526 25.628 8.874 30.423 25.043"/><path fill="#aba491" d="M1032.19 219.331h-2.59c-3.18-12.678-11.91-23.005-24.2-26.595-14.347-4.193-29.475 1.961-38.948 14.343-2.341-4.939-6.345-9.024-11.674-11.258-8.491-3.562-17.983-1.45-24.599 4.589.269-13.152-7.398-25.758-20.291-31.163-8.632-3.623-17.923-3.304-25.883.118-1.914-6.462-6.464-11.97-12.989-14.707-6.683-2.803-13.993-2.102-20.032 1.264-.77-21.477-14.276-41.908-36.122-51.068-19.024-7.98-39.715-5.454-55.216 4.909-3.1-8.195-9.43-15.158-18.158-18.817a32.98 32.98 0 0 0-24.115-.585c-4.308-14.556-19.08-31.147-27.575-28.138l.854-9.019c13.098-.707 26.426 9.87 31.21 26.04a32.98 32.98 0 0 1 24.116.585c8.728 3.66 15.058 10.622 18.158 18.817 15.501-10.363 36.191-12.89 55.217-4.91 21.844 9.161 35.351 29.592 36.122 51.069 6.038-3.366 13.347-4.066 20.031-1.264 6.525 2.737 11.074 8.245 12.989 14.707 7.959-3.422 17.251-3.74 25.884-.118 12.892 5.405 20.559 18.011 20.29 31.163 6.616-6.038 16.108-8.151 24.599-4.589 5.328 2.234 9.333 6.319 11.674 11.258 9.472-12.382 24.6-18.535 38.948-14.342 12.48 3.647 21.31 14.239 24.36 27.192 12.18-3.285 25.69-2.661 38.44 2.688a59.6 59.6 0 0 1 13.43 7.831h-28.29c-8.66-1.915-17.41-1.841-25.64 0"/><path fill="#736d5d" d="M703.228 94.326c9.911 4.158 16.301 13.497 18.007 24.418 13.215-4.927 28.132-5.067 42.013.754 16.631 6.975 28.205 21.008 32.848 37.326 6.631-2.494 14.135-2.574 21.121.356 7.621 3.195 13.119 9.345 15.78 16.612 13.648-9.321 31.792-11.708 48.405-4.742 19.074 8 30.768 26.079 31.297 45.174 5.312-3.034 11.721-3.706 17.557-1.259 3.03 1.272 5.538 3.26 7.482 5.696h-247.94V92.286c4.523-.398 9.093.221 13.43 2.04"/><path fill="#918a77" d="M783.058 186.01c10.734-6.754 24.22-6.378 36.134-.292 3.983-16.444 13.826-31.153 28.857-40.613 18.009-11.336 39.594-12.704 58.794-5.66 1.979-8.268 6.921-15.675 14.486-20.435 8.252-5.195 17.996-6.211 26.944-3.657-.058-19.99 9.727-39.453 27.716-50.775 14.844-9.343 32.261-11.218 48.011-6.708V218.33H767.184c-.299-13.322 5.176-25.587 15.874-32.321"/><path fill="#aba491" d="M982.248 75.752c-17.989 11.322-27.774 30.786-27.715 50.776-8.949-2.556-18.693-1.538-26.944 3.656-7.566 4.761-12.508 12.168-14.487 20.434-19.2-7.042-40.785-5.675-58.794 5.661-15.031 9.46-24.874 24.168-28.857 40.614-11.914-6.088-25.4-6.464-36.134.292-7.606 4.786-12.555 12.374-14.683 21.146h-7.45c-.298-13.322 5.176-25.588 15.874-32.321 10.734-6.754 24.22-6.378 36.134-.292 3.983-16.445 13.826-31.153 28.857-40.615 18.009-11.334 39.594-12.702 58.794-5.658 1.979-8.268 6.921-15.676 14.486-20.435 8.252-5.195 17.996-6.212 26.944-3.657-.058-19.989 9.728-39.453 27.716-50.776 14.844-9.341 31.691-10.945 48.011-11.705v10.2c-15.19.094-28.85 4.559-41.752 12.68"/><path fill="#736d5d" d="M836.406 213.239c8.034-5.203 17.512-6.732 26.808-5.071-.338-10.466 3.897-19.514 12.066-23.353 9.386-4.41 21.328-.707 30.45 8.348.709-4.081 2.767-7.617 6.123-9.789 5.35-3.466 12.503-2.524 18.371 1.742-2.729-10.373.288-20.92 8.41-26.181 5.436-3.522 12.102-3.984 18.419-1.888.114-5.254 2.283-9.955 6.394-12.618 4.209-2.725 9.541-2.735 14.48-.535-3.597-17.03 2.063-34.21 15.82-43.123 9.023-5.848 9.793-10.037 30.253-10.97l-.02 128.53H830.266a34.4 34.4 0 0 1 6.14-5.092"/></g></svg>