<svg xmlns="http://www.w3.org/2000/svg" xml:space="preserve" stroke-miterlimit="10" style="fill-rule:nonzero;clip-rule:evenodd;stroke-linecap:round;stroke-linejoin:round" viewBox="0 0 1024 218.66"><clipPath id="a"><path d="M0 0h1024v218.66H0z"/></clipPath><g clip-path="url(#a)"><path fill="#918a77" d="M240.942 186.34c-10.734-6.755-24.22-6.379-36.134-.292-3.983-16.445-13.826-31.153-28.857-40.614-18.009-11.336-39.594-12.703-58.794-5.66-1.979-8.267-6.921-15.674-14.486-20.434-8.252-5.196-17.996-6.212-26.944-3.658C75.785 95.693 66 76.23 48.01 64.907 33.167 55.565 15.75 53.69 0 58.2v160.462h256.815c.299-13.322-5.176-25.587-15.874-32.321"/><path fill="#aba491" d="M41.752 76.082c17.989 11.322 27.774 30.785 27.715 50.776 8.949-2.556 18.693-1.539 26.944 3.655 7.566 4.761 12.508 12.169 14.487 20.435 19.2-7.043 40.785-5.675 58.794 5.66 15.031 9.461 24.874 24.169 28.857 40.614 11.914-6.087 25.4-6.463 36.134.292 7.606 4.787 12.555 12.375 14.683 21.146h7.45c.298-13.321-5.176-25.587-15.874-32.32-10.734-6.754-24.22-6.378-36.134-.293-3.983-16.444-13.826-31.153-28.857-40.614-18.009-11.334-39.594-12.703-58.794-5.658-1.979-8.268-6.921-15.676-14.486-20.436-8.253-5.194-17.996-6.211-26.944-3.656.058-19.99-9.728-39.454-27.716-50.776C33.167 55.565 16.319 53.962 0 53.2v10.201c15.195.094 28.85 4.558 41.752 12.68"/><path fill="#736d5d" d="M187.594 213.569c-8.034-5.204-17.512-6.732-26.808-5.071.338-10.467-3.897-19.515-12.066-23.353-9.386-4.41-21.328-.708-30.45 8.348-.709-4.081-2.767-7.617-6.123-9.789-5.35-3.466-12.503-2.524-18.371 1.741 2.729-10.373-.288-20.92-8.41-26.181-5.436-3.522-12.102-3.983-18.419-1.888-.114-5.253-2.283-9.955-6.394-12.617-4.21-2.726-9.54-2.735-14.48-.536 3.597-17.03-2.063-34.21-15.82-43.123C21.227 95.253 20.458 91.064 0 90.132L.019 218.66h193.715a34.3 34.3 0 0 0-6.14-5.091"/><path fill="#918a77" d="M783.058 186.01c10.734-6.754 24.22-6.378 36.134-.292 3.983-16.444 13.826-31.153 28.857-40.613 18.009-11.336 39.594-12.704 58.794-5.66 1.979-8.268 6.921-15.675 14.486-20.435 8.252-5.195 17.996-6.211 26.944-3.657-.058-19.99 9.727-39.453 27.716-50.775 14.844-9.343 32.261-11.218 48.011-6.708v160.46H767.184c-.299-13.322 5.176-25.587 15.874-32.321"/><path fill="#aba491" d="M982.248 75.752c-17.989 11.322-27.774 30.786-27.715 50.776-8.949-2.556-18.693-1.538-26.944 3.656-7.566 4.761-12.508 12.168-14.487 20.434-19.2-7.042-40.785-5.675-58.794 5.661-15.031 9.46-24.874 24.168-28.857 40.614-11.914-6.088-25.4-6.464-36.134.292-7.606 4.786-12.555 12.374-14.683 21.146h-7.45c-.298-13.322 5.176-25.588 15.874-32.321 10.734-6.754 24.22-6.378 36.134-.292 3.983-16.445 13.826-31.153 28.857-40.615 18.009-11.334 39.594-12.702 58.794-5.658 1.979-8.268 6.921-15.676 14.486-20.435 8.252-5.195 17.996-6.212 26.944-3.657-.058-19.989 9.728-39.453 27.716-50.776 14.844-9.341 31.691-10.945 48.011-11.705v10.2c-15.19.094-28.85 4.559-41.752 12.68"/><path fill="#736d5d" d="M836.406 213.239c8.034-5.203 17.512-6.732 26.808-5.071-.338-10.466 3.897-19.514 12.066-23.353 9.386-4.41 21.328-.707 30.45 8.348.709-4.081 2.767-7.617 6.123-9.789 5.35-3.466 12.503-2.524 18.371 1.742-2.729-10.373.288-20.92 8.41-26.181 5.436-3.522 12.102-3.984 18.419-1.888.114-5.254 2.283-9.955 6.394-12.618 4.209-2.725 9.541-2.735 14.48-.535-3.597-17.03 2.063-34.21 15.82-43.123 9.023-5.848 9.793-10.037 30.253-10.97l-.02 128.53H830.266a34.4 34.4 0 0 1 6.14-5.092"/><g opacity=".8"><path fill="#736d5d" d="M995.329 83.277c-5.567-.705-10.92.806-14.784 3.737-3.747-5.012-9.988-8.687-17.545-9.643-11.618-1.47-22.557 3.952-26.911 12.584-3.345-3.22-8.019-5.509-13.468-6.198-6.502-.823-12.759.804-17.468 4.03 3.802-24.44-16.512-47.05-45.905-50.77-25.829-3.268-50.165 9.129-59.136 28.658-2.859-1.803-6.282-3.055-10.076-3.535-7.382-.934-14.453 1.28-19.292 5.422-2.142-9.77-11.473-17.785-23.918-19.36a34.4 34.4 0 0 0-7.791-.076c-2.772-14.217-16.239-25.955-34.251-28.234-22.345-2.828-43.211 9.971-46.605 28.588-1.869 10.252 1.959 20.125 9.501 27.404-3.32 3.674-5.656 8.04-6.657 12.866-17.499.602-32.605 11.44-35.334 26.405-3.095 16.984 10.92 32.843 31.306 35.422 13.261 1.678 25.946-2.681 34.049-10.605 3.766 12.779 16.43 23.042 33.016 25.141 20.23 2.561 39.213-7.921 44.68-23.893 4.661 4.657 11.28 7.983 19.042 8.966 11.053 1.399 21.6-2.291 28.292-8.943 5.395 6.881 14.146 11.893 24.666 13.224 16.173 2.047 31.451-5.242 37.978-17.025 6.555 6.15 15.628 10.498 26.149 11.83 23.914 3.026 46.244-10.672 49.877-30.595l.005-.03c.235.035.464.089.704.12 10.238 1.295 19.964-2.755 25.112-9.64 2.528 1.917 5.738 3.259 9.373 3.719 9.801 1.239 18.952-4.374 20.442-12.539s-5.25-15.79-15.051-17.03" opacity="1"/><path fill="#918a77" d="M990.441 111.093c5.305.621 10.399-1.065 13.799-4.135-11.873 4.271-21.071-7.986-21.071-7.986-17.184 15.908-34.549 2.801-34.549 2.801-.331 14.861-13.766 27.181-33.529 28.29-19.763 1.11-36.892-11.969-35.639-23.701-6.396 12.138-44.433 14.129-43.907-3.326 23.207-4.331 30.548-17.767 30.548-17.767-29.899 19.655-67.149-.209-67.149-.209 1.011 11.193 21.064 16.963 21.064 16.963-6.348 17.579-31.666 28.709-37.067 22.038-8.167 8.305-19.055-.218-19.055-.218-12.947 18.016-42.624 7.696-39.12-10.216 18.606-2.856 25.851-14.29 25.851-14.29-36.142 13.689-70.945-2.062-70.945-2.062 3.993 12.145 31.219 16.943 31.219 16.943-22.498 28.864-68.851 17.499-81.651-3.678a25.3 25.3 0 0 0-1.421 4.884c-1.411 7.74.88 15.475 6.453 21.78 5.57 6.304 13.754 10.424 23.046 11.599l.398.048c11.979 1.403 23.825-2.352 31.689-10.043l2.728-2.667 1.002 3.403c3.69 12.52 15.955 21.861 31.248 23.795l.43.053c18.69 2.187 36.685-7.556 41.857-22.663l1.116-3.264 2.609 2.607c4.508 4.504 10.798 7.466 17.711 8.341l.322.039c9.849 1.152 19.568-1.973 25.995-8.361l1.867-1.854 1.587 2.025c5.254 6.7 13.705 11.231 23.188 12.431l.38.047c14.613 1.709 29.136-4.89 35.317-16.05l1.381-2.49 2.185 2.051c6.437 6.038 15.268 10.031 24.863 11.246l.47.058c22.481 2.631 43.544-10.444 46.952-29.148l.002-.01.001-.003.31-1.847 2.207.335q.196.03.388.067.128.025.254.043l.26.031c8.987 1.053 17.898-2.42 22.7-8.846l1.367-1.828 1.912 1.45c2.307 1.749 5.16 2.881 8.247 3.272zM675.288 87.445s-10.446-2.686-7.608-11.56c-3.32 3.674-5.656 8.04-6.657 12.866-13.374.459-25.328 6.909-31.45 16.6 9.002-9.275 28.164-12.647 32.091-8.774 0 0 2.768-9.25 13.624-9.132" opacity="1"/><path fill="#aba491" d="M905.153 87.787c3.802-24.44-16.512-47.051-45.905-50.77-25.829-3.268-50.165 9.128-59.136 28.658-2.859-1.802-6.282-3.056-10.076-3.535-7.382-.934-14.453 1.28-19.292 5.422-2.142-9.77-11.473-17.786-23.917-19.36a34.4 34.4 0 0 0-7.792-.076c-2.772-14.217-16.239-25.955-34.251-28.233-22.345-2.828-43.211 9.97-46.605 28.587-1.869 10.253 1.959 20.125 9.501 27.404-5.237-15.457-.847-31.454 17.747-38.539 0 0-8.134 8.108-6.659 15.126 0 0 11.829-18.548 36.94-6.951 0 0-1.27-6.793-11.94-9.45 16.279-.513 27.832 12.666 25.035 24.948 0 0 15.015-8.785 32.136 1.474 7.155 4.864 4.194 10.96 4.194 10.96s-11.546-1.753-17.759 3.559c0 0 14.781-3.102 34.494 1.824 0 0-.449-3.074-9.837-7.595 0 0 13.178-7.921 32.02.728 0 0 14.856-25.04 47.387-23.045 0 0-14.956 1.27-18.965 7.847 0 0 21.505-7.148 39.237 3.787 0 0-2.557-6.338-8.115-9.205 0 0 18.049-.575 32.753 20.746 4.078 5.914 4.957 17.896 3.509 20.747 0 0 16.806-11.087 36.232-2.89-3.345-3.22-8.019-5.509-13.468-6.198-6.502-.822-12.759.803-17.468 4.03" opacity="1"/><path fill="#aba491" d="M971.895 80.023A28.3 28.3 0 0 0 963 77.371c-11.617-1.47-22.557 3.952-26.912 12.584 0 0 15.699-14.133 35.807-9.932" opacity="1"/></g><g opacity=".8"><path fill="#736d5d" d="M602.201 76.23c-6.654-.843-13.053.964-17.671 4.467-4.479-5.991-11.939-10.384-20.971-11.526-13.886-1.758-26.961 4.723-32.166 15.04-3.998-3.848-9.585-6.584-16.098-7.408-7.772-.983-15.25.962-20.879 4.817 4.545-29.212-19.736-56.238-54.869-60.683-30.872-3.906-59.96 10.911-70.683 34.253-3.417-2.154-7.509-3.651-12.044-4.225-8.823-1.115-17.274 1.53-23.059 6.48-2.559-11.676-13.712-21.257-28.588-23.139a41 41 0 0 0-9.312-.091c-3.313-16.993-19.41-31.023-40.939-33.747-26.709-3.38-51.649 11.918-55.706 34.17-2.234 12.254 2.341 24.055 11.356 32.756-3.967 4.391-6.76 9.61-7.956 15.378-20.916.72-38.972 13.674-42.234 31.561-3.7 20.3 13.053 39.256 37.419 42.338 15.851 2.006 31.013-3.204 40.697-12.676 4.502 15.275 19.639 27.542 39.464 30.051 24.18 3.061 46.87-9.468 53.405-28.558 5.571 5.566 13.482 9.541 22.759 10.716 13.212 1.672 25.818-2.738 33.817-10.689 6.448 8.224 16.909 14.215 29.483 15.806 19.33 2.446 37.591-6.265 45.394-20.349 7.835 7.35 18.679 12.547 31.254 14.14 28.584 3.616 55.274-12.757 59.617-36.569l.005-.037c.282.042.555.107.843.143 12.236 1.549 23.862-3.292 30.014-11.522 3.022 2.292 6.86 3.895 11.204 4.445 11.715 1.482 22.653-5.227 24.433-14.987 1.779-9.76-6.275-18.872-17.989-20.356" opacity="1"/><path fill="#918a77" d="M596.359 109.478c6.34.742 12.428-1.274 16.499-4.943-14.197 5.105-25.192-9.546-25.192-9.546-20.539 19.014-41.295 3.349-41.295 3.349-.396 17.763-16.454 32.488-40.076 33.814s-44.095-14.306-42.598-28.329c-7.646 14.508-53.11 16.888-52.48-3.976 27.738-5.177 36.512-21.236 36.512-21.236-35.737 23.493-80.261-.25-80.261-.25 1.209 13.378 25.177 20.275 25.177 20.275-7.587 21.011-37.85 34.316-44.305 26.341-9.762 9.927-22.776-.261-22.776-.261-15.474 21.534-50.947 9.2-46.759-12.21 22.24-3.413 30.9-17.08 30.9-17.08-43.199 16.362-84.798-2.465-84.798-2.465 4.772 14.517 37.314 20.252 37.314 20.252-26.89 34.5-82.296 20.915-97.595-4.396a30.2 30.2 0 0 0-1.698 5.837c-1.687 9.252 1.052 18.497 7.713 26.032 6.658 7.536 16.44 12.46 27.546 13.864l.476.059c14.317 1.676 28.477-2.812 37.877-12.004l3.261-3.189 1.197 4.068c4.41 14.964 19.071 26.129 37.35 28.441l.514.064c22.339 2.614 43.848-9.032 50.031-27.089l1.333-3.901 3.118 3.116c5.388 5.383 12.907 8.923 21.17 9.969l.385.047c11.772 1.377 23.389-2.357 31.071-9.993l2.231-2.216 1.898 2.42c6.279 8.009 16.381 13.424 27.715 14.858l.454.057c17.467 2.043 34.825-5.845 42.213-19.184l1.651-2.976 2.612 2.451c7.694 7.217 18.249 11.99 29.718 13.442l.562.069c26.871 3.144 52.046-12.484 56.12-34.839l.002-.012.001-.005.372-2.207 2.637.4q.235.037.464.081c.103.018.202.038.304.051l.31.038c10.742 1.258 21.393-2.894 27.133-10.574l1.633-2.185 2.285 1.733c2.759 2.091 6.168 3.444 9.859 3.911zM219.666 81.212s-12.486-3.21-9.094-13.818c-3.967 4.391-6.76 9.61-7.956 15.378-15.986.549-30.275 8.259-37.592 19.842 10.761-11.086 33.664-15.117 38.358-10.487 0 0 3.309-11.056 16.284-10.915" opacity="1"/><path fill="#aba491" d="M494.416 81.62c4.545-29.213-19.736-56.238-54.869-60.684-30.872-3.906-59.96 10.912-70.682 34.255-3.418-2.155-7.51-3.653-12.045-4.226-8.823-1.116-17.274 1.531-23.059 6.481-2.559-11.677-13.712-21.259-28.587-23.14a41 41 0 0 0-9.313-.092c-3.313-16.993-19.41-31.023-40.939-33.746-26.709-3.38-51.649 11.919-55.706 34.17-2.234 12.255 2.341 24.054 11.356 32.755-6.259-18.476-1.012-37.595 21.213-46.064 0 0-9.722 9.691-7.959 18.08 0 0 14.138-22.17 44.153-8.31 0 0-1.519-8.118-14.272-11.295 19.458-.612 33.267 15.14 29.924 29.82 0 0 17.947-10.5 38.412 1.762 8.551 5.814 5.012 13.101 5.012 13.101s-13.801-2.096-21.226 4.253c0 0 17.667-3.707 41.228 2.18 0 0-.536-3.673-11.757-9.078 0 0 15.751-9.468 38.273.87 0 0 17.756-29.93 56.64-27.544 0 0-17.877 1.517-22.669 9.379 0 0 25.704-8.543 46.899 4.527 0 0-3.056-7.577-9.7-11.003 0 0 21.574-.687 39.149 24.797 4.874 7.069 5.925 21.39 4.195 24.798 0 0 20.088-13.252 43.306-3.455-3.998-3.848-9.585-6.584-16.098-7.407-7.772-.983-15.25.96-20.879 4.816m79.775-9.28a33.8 33.8 0 0 0-10.632-3.17c-13.886-1.756-26.961 4.724-32.166 15.041 0 0 18.763-16.892 42.798-11.87" opacity="1"/></g><path fill="#918a77" d="M779.11 126.741c-10.165 0-19.625 2.463-27.569 6.688-.327-6.717-4.427-12.622-10.62-16.329 11.439-6.115 19.01-16.714 19.01-28.773 0-18.942-18.666-34.297-41.691-34.297-6.674 0-12.976 1.295-18.569 3.59-9.385-23.588-36.339-40.632-68.149-40.632-39.603 0-71.707 26.412-71.707 58.993 0 3.122.3 6.187.868 9.177-6.905-3.216-14.879-5.062-23.382-5.062-24.011 0-43.853 14.652-47.063 33.68-5.988-2.24-12.635-3.498-19.642-3.498-10.512 0-20.223 2.814-28.093 7.567-6.357-8.249-17.524-13.741-30.275-13.741-19.801 0-35.854 13.207-35.854 29.497s16.053 29.496 35.854 29.496c4.592 0 8.967-.735 13.001-2.03 6.043 15.883 24.068 27.411 45.367 27.411 17.361 0 32.543-7.662 40.837-19.096 4.427 6.48 12.852 10.863 22.533 10.863 8.631 0 16.253-3.492 20.947-8.839 1.779 26.343 28.303 47.254 60.767 47.254 27.205 0 50.233-14.683 58.032-34.94 6.209 3.02 13.447 4.758 21.182 4.758 13.928 0 26.253-5.625 33.825-14.258 3.347 20.442 24.623 36.209 50.391 36.209 28.091 0 50.863-18.734 50.863-41.844s-22.772-41.844-50.863-41.844"/><path fill="#736d5d" d="m671.327 183.098.951-2.467 2.708 1.317c6.015 2.925 12.899 4.473 19.907 4.473 12.549 0 24.436-5.012 31.797-13.406l3.67-4.185.839 5.115c3.211 19.626 23.809 34.425 47.911 34.425 26.665 0 48.361-17.847 48.361-39.785-50.307 36.447-89.497-2.196-77.546-26.752-27.238 5.807-30.017-12.347-30.017-12.347-10.005 5.486-21.679 4.115-21.679 4.115 8.338-6.859 13.341-19.208 13.341-19.208-21.68 20.579-63.371 24.695-63.371 24.695 11.674 2.745 28.35 1.372 28.35 1.372s-3.334 26.068-35.02 28.811c-31.685 2.744-43.359-19.207-43.359-19.207-21.679 15.091-41.691 0-41.691 0-26.683 9.603-36.688-2.744-36.688-2.744 18.344 0 28.35-6.86 28.35-6.86-43.358 6.86-61.702-12.347-61.702-12.347 0 8.231 11.672 15.091 11.672 15.091-38.355 16.463-58.366-12.347-58.366-12.347-27.1 22.041-54.893 10.61-60.869 2.744 0 15.129 14.962 27.438 33.352 27.438a39.6 39.6 0 0 0 12.095-1.889l2.495-.801.799 2.103c5.907 15.532 23.179 25.969 42.979 25.969 15.768 0 30.593-6.933 38.689-18.094l2.212-3.05 2.116 3.095c4.138 6.054 11.937 9.816 20.353 9.816 7.456 0 14.529-2.986 18.92-7.987l4.133-4.707.392 5.799c1.716 25.406 27.311 45.309 58.27 45.309 25.568 0 47.932-13.463 55.646-33.504"/><path fill="#aba491" d="M493.108 119.882s5.046-37.615 50.852-39.394a58 58 0 0 0-6.659-.392c-24.011 0-43.853 14.652-47.063 33.68-5.988-2.241-12.635-3.498-19.642-3.498-9.754 0-18.796 2.444-26.342 6.591 6.017-1.319 34.022-6.749 48.854 3.013"/><path fill="#aba491" d="M737.974 65.462s-16.014-9.968-38.303-7.842c-9.385-23.588-36.339-40.632-68.148-40.632-39.603 0-71.709 26.411-71.709 58.992 0 3.122.301 6.187.869 9.179v5.226s-28.108-3.43-28.663 18.064c0 0 15.287-17.15 37.522-8.231 0 0 15.564-34.756 57.811-37.271 0 0-16.953-4.115-36.687 2.972 0 0 38.357-31.096 88.941 1.144 0 0-22.236-.23-25.848 15.32 0 0 19.733-16.692 46.415-6.632 0 0 12.23-14.633 37.8-10.289"/><path fill="#fff" d="M824.533 149.764c-8.375-13.654-25.564-23.023-45.423-23.023-10.165 0-19.625 2.464-27.569 6.688 0 0 45.054-9.999 72.992 16.335"/><path fill="#918a77" d="M961.057 121.776c-6.094 0-11.765 1.371-16.528 3.725-.195-3.742-2.653-7.029-6.365-9.093 6.857-3.406 11.396-9.308 11.396-16.022 0-10.547-11.191-19.098-24.993-19.098-4 0-7.779.723-11.133 2-5.625-13.135-21.784-22.627-40.853-22.627-23.742 0-42.988 14.708-42.988 32.85 0 1.739.18 3.446.521 5.11-4.14-1.79-8.92-2.818-14.017-2.818-14.395 0-26.291 8.158-28.215 18.754-3.59-1.247-7.574-1.948-11.775-1.948-6.301 0-12.122 1.566-16.841 4.213-3.811-4.593-10.505-7.651-18.149-7.651-11.87 0-21.495 7.354-21.495 16.426s9.625 16.423 21.495 16.423c2.752 0 5.375-.41 7.795-1.13 3.621 8.845 14.428 15.263 27.195 15.263 10.409 0 19.51-4.266 24.48-10.634 2.656 3.609 7.706 6.05 13.511 6.05 5.173 0 9.743-1.945 12.557-4.922 1.066 14.669 16.966 26.312 36.429 26.312 16.307 0 30.114-8.177 34.788-19.455 3.722 1.68 8.061 2.649 12.699 2.649 8.35 0 15.737-3.132 20.278-7.939 2.005 11.384 14.761 20.162 30.208 20.162 16.84 0 30.491-10.431 30.491-23.3s-13.651-23.3-30.491-23.3"/><path fill="#736d5d" d="m896.443 153.158.569-1.374 1.623.732c3.608 1.63 7.735 2.491 11.936 2.491 7.522 0 14.649-2.79 19.061-7.463l2.2-2.331.502 2.847c1.926 10.93 14.275 19.171 28.722 19.171 15.986 0 28.993-9.939 28.993-22.156-30.158 20.295-53.652-1.222-46.487-14.896-16.329 3.234-17.996-6.875-17.996-6.875-5.998 3.056-12.996 2.292-12.996 2.292 4.998-3.82 7.998-10.695 7.998-10.695-12.997 11.459-37.989 13.751-37.989 13.751 6.998 1.527 16.994.763 16.994.763s-2 14.515-20.995 16.043c-18.993 1.529-25.992-10.696-25.992-10.696-12.996 8.404-24.992 0-24.992 0-15.997 5.349-21.994-1.526-21.994-1.526 10.996 0 16.994-3.821 16.994-3.821-25.993 3.821-36.989-6.875-36.989-6.875 0 4.583 6.997 8.404 6.997 8.404-22.994 9.167-34.99-6.876-34.99-6.876-16.245 12.274-32.907 5.907-36.489 1.528 0 8.425 8.97 15.278 19.994 15.278 2.465 0 4.906-.353 7.25-1.051l1.496-.446.479 1.17c3.542 8.649 13.895 14.46 25.765 14.46 9.453 0 18.34-3.86 23.194-10.075l1.326-1.698 1.268 1.724c2.481 3.37 7.156 5.466 12.202 5.466 4.469 0 8.71-1.662 11.342-4.448l2.477-2.621.235 3.228c1.03 14.149 16.374 25.23 34.933 25.23 15.327 0 28.734-7.497 33.359-18.655"/><path fill="#aba491" d="M787.439 118.451s3.025-20.945 30.484-21.935a37 37 0 0 0-3.992-.219c-14.395 0-26.289 8.158-28.213 18.754-3.59-1.247-7.575-1.947-11.775-1.947-5.848 0-11.269 1.36-15.792 3.67 3.607-.736 20.395-3.758 29.288 1.677m148.958-30.797s-9.601-5.551-22.963-4.367c-5.625-13.135-21.785-22.625-40.853-22.625-23.741 0-42.989 14.706-42.989 32.849 0 1.739.181 3.445.521 5.112v2.908s-16.849-1.909-17.183 10.059c0 0 9.165-9.548 22.494-4.583 0 0 9.33-19.353 34.657-20.753 0 0-10.164-2.292-21.994 1.654 0 0 22.994-17.316 53.319.637 0 0-13.329-.127-15.495 8.53 0 0 11.83-9.294 27.825-3.692 0 0 7.332-8.148 22.661-5.729"/><path fill="#fff" d="M176.367 106.374s8.61-2.214 6.271-9.529c2.735 3.028 4.661 6.626 5.486 10.605 11.024.378 20.878 5.694 25.923 13.682-7.42-7.645-23.214-10.425-26.451-7.231 0 0-2.282-7.624-11.229-7.527"/><clipPath id="b" clip-rule="nonzero"><path d="M0 0h311.358v218.66H0z"/></clipPath><g clip-path="url(#b)"><path fill="#918a77" d="M-87.425 102.938c4.588-.58 9 .665 12.185 3.08 3.088-4.13 8.233-7.16 14.461-7.948 9.576-1.21 18.593 3.258 22.181 10.372 2.758-2.653 6.61-4.54 11.102-5.108 5.36-.679 10.516.663 14.398 3.322C-16.232 86.51.512 67.874 24.739 64.809c21.29-2.694 41.347 7.524 48.742 23.622 2.357-1.487 5.178-2.519 8.306-2.915 6.084-.77 11.912 1.055 15.9 4.47 1.766-8.053 9.457-14.66 19.715-15.957a28.3 28.3 0 0 1 6.422-.064c2.284-11.717 13.385-21.393 28.231-23.272 18.418-2.33 35.617 8.22 38.413 23.564 1.542 8.45-1.614 16.588-7.83 22.588 2.735 3.028 4.662 6.626 5.486 10.605 14.424.495 26.875 9.429 29.124 21.764 2.552 13.998-9 27.071-25.803 29.195-10.93 1.384-21.387-2.208-28.065-8.74-3.105 10.533-13.542 18.994-27.214 20.723-16.674 2.11-32.321-6.53-36.827-19.693-3.842 3.837-9.298 6.58-15.695 7.389-9.11 1.153-17.803-1.888-23.32-7.372-4.446 5.673-11.66 9.803-20.33 10.9-13.33 1.687-25.924-4.32-31.304-14.031-5.402 5.067-12.881 8.652-21.553 9.749-19.711 2.495-38.116-8.796-41.11-25.217l-.004-.025c-.196.029-.384.074-.581.099-8.438 1.067-16.456-2.271-20.697-7.947-2.085 1.582-4.73 2.686-7.727 3.065-8.079 1.023-15.621-3.604-16.848-10.333-1.228-6.731 4.326-13.015 12.405-14.038"/><path fill="#736d5d" d="M-83.397 125.866c-4.372.512-8.57-.879-11.378-3.409 9.79 3.522 17.372-6.583 17.372-6.583 14.164 13.113 28.477 2.31 28.477 2.31.273 12.248 11.347 22.404 27.636 23.319s30.408-9.866 29.375-19.537c5.272 10.005 36.624 11.646 36.19-2.742-19.127-3.568-25.178-14.643-25.178-14.643 24.643 16.2 55.348-.173 55.348-.173-.834 9.226-17.363 13.982-17.363 13.982 5.232 14.489 26.1 23.664 30.552 18.164 6.732 6.845 15.706-.178 15.706-.178 10.671 14.848 35.133 6.342 32.245-8.422-15.337-2.353-21.308-11.778-21.308-11.778 29.79 11.283 58.477-1.699 58.477-1.699-3.293 10.01-25.733 13.965-25.733 13.965 18.543 23.791 56.75 14.423 67.301-3.031a20.8 20.8 0 0 1 1.17 4.025c1.164 6.38-.724 12.755-5.318 17.951-4.591 5.196-11.337 8.593-18.995 9.561l-.328.04c-9.873 1.156-19.639-1.939-26.12-8.278l-2.249-2.2-.826 2.806c-3.041 10.319-13.151 18.018-25.756 19.613l-.354.044c-15.405 1.803-30.238-6.229-34.501-18.68l-.92-2.689-2.15 2.147c-3.715 3.712-8.9 6.154-14.598 6.875l-.265.032c-8.12.95-16.13-1.625-21.426-6.892l-1.54-1.527-1.309 1.669c-4.33 5.523-11.295 9.258-19.11 10.246l-.315.039c-12.044 1.409-24.014-4.03-29.11-13.228l-1.138-2.054-1.801 1.691c-5.305 4.977-12.583 8.269-20.493 9.27l-.387.047c-18.53 2.169-35.89-8.608-38.7-24.025l-.002-.008v-.003l-.256-1.522-1.82.276q-.162.026-.32.056-.103.02-.21.035l-.213.026c-7.408.867-14.753-1.994-18.71-7.292l-1.127-1.507-1.576 1.196c-1.901 1.442-4.253 2.374-6.797 2.696z"/><path fill="#aba491" d="M-13.098 106.656C-16.233 86.511.512 67.874 24.738 64.809c21.29-2.694 41.35 7.524 48.743 23.621 2.356-1.487 5.178-2.518 8.306-2.914 6.083-.77 11.912 1.055 15.901 4.47 1.764-8.052 9.455-14.66 19.714-15.957a28.3 28.3 0 0 1 6.422-.064c2.284-11.717 13.384-21.393 28.23-23.272 18.419-2.33 35.617 8.22 38.415 23.564 1.54 8.451-1.615 16.587-7.831 22.588 4.316-12.741.698-25.925-14.629-31.766 0 0 6.705 6.683 5.489 12.468 0 0-9.749-15.288-30.448-5.73 0 0 1.048-5.6 9.842-7.79-13.417-.421-22.94 10.44-20.635 20.565 0 0-12.376-7.24-26.488 1.214-5.897 4.01-3.457 9.035-3.457 9.035s9.518-1.447 14.638 2.933c0 0-12.183-2.557-28.43 1.503 0 0 .368-2.533 8.106-6.26 0 0-10.86-6.529-26.391.6 0 0-12.245-20.64-39.059-18.995 0 0 12.328 1.046 15.632 6.468 0 0-17.726-5.891-32.34 3.122 0 0 2.105-5.225 6.687-7.588 0 0-14.877-.473-26.995 17.1-3.362 4.875-4.087 14.751-2.894 17.1 0 0-13.852-9.139-29.863-2.382 2.757-2.654 6.61-4.54 11.1-5.108 5.36-.679 10.517.663 14.399 3.322"/></g><path fill="none" stroke="#aba491" stroke-linecap="butt" stroke-linejoin="miter" d="M-68.11 100.256a23.3 23.3 0 0 1 7.332-2.185c9.575-1.212 18.592 3.257 22.18 10.371 0 0-12.938-11.65-29.513-8.186Z"/><path fill="#918a77" d="M438.861 118.176c-5.752-.727-11.281.834-15.271 3.86-3.872-5.176-10.32-8.972-18.125-9.96-12.002-1.519-23.301 4.082-27.799 12.998-3.456-3.326-8.284-5.689-13.912-6.402-6.718-.849-13.181.83-18.046 4.163 3.928-25.247-17.057-48.603-47.42-52.445-26.683-3.377-51.821 9.43-61.087 29.603-2.954-1.863-6.49-3.155-10.41-3.652-7.625-.964-14.929 1.324-19.928 5.601-2.212-10.092-11.852-18.372-24.708-19.997a35.5 35.5 0 0 0-8.048-.08c-2.863-14.685-16.775-26.811-35.382-29.166C115.642 49.779 94.087 63 90.582 82.23c-1.93 10.59 2.023 20.79 9.814 28.309-3.428 3.795-5.842 8.305-6.876 13.291-18.076.621-33.682 11.818-36.5 27.276-3.198 17.545 11.28 33.927 32.338 36.592 13.699 1.733 26.804-2.77 35.173-10.956 3.891 13.201 16.973 23.803 34.106 25.971 20.899 2.644 40.508-8.182 46.156-24.682 4.815 4.811 11.653 8.248 19.67 9.263 11.418 1.444 22.313-2.368 29.226-9.239 5.574 7.107 14.614 12.285 25.481 13.661 16.705 2.114 32.489-5.416 39.231-17.587 6.772 6.352 16.144 10.844 27.013 12.219 24.702 3.127 47.77-11.023 51.522-31.604l.005-.03c.246.036.479.092.728.123 10.576 1.338 20.623-2.845 25.94-9.96 2.612 1.982 5.929 3.368 9.683 3.843 10.124 1.281 19.578-4.518 21.115-12.953 1.54-8.435-5.421-16.311-15.546-17.592"/><path fill="#736d5d" d="M433.813 146.911c5.479.642 10.74-1.1 14.258-4.272-12.27 4.413-21.772-8.25-21.772-8.25-17.75 16.434-35.689 2.895-35.689 2.895-.341 15.351-14.22 28.078-34.636 29.224-20.414 1.146-38.109-12.364-36.814-24.483-6.608 12.537-45.9 14.593-45.356-3.437 23.972-4.475 31.555-18.354 31.555-18.354-30.885 20.304-69.366-.215-69.366-.215 1.045 11.562 21.76 17.521 21.76 17.521-6.558 18.16-32.712 29.658-38.29 22.766-8.438 8.579-19.685-.223-19.685-.223-13.374 18.608-44.03 7.949-40.411-10.555 19.221-2.95 26.704-14.762 26.704-14.762-37.335 14.142-73.287-2.129-73.287-2.129 4.126 12.547 32.25 17.502 32.25 17.502-23.241 29.817-71.124 18.075-84.347-3.799a26.2 26.2 0 0 0-1.467 5.045c-1.458 7.996.91 15.987 6.666 22.498 5.755 6.513 14.208 10.768 23.806 11.982l.412.051c12.373 1.447 24.612-2.43 32.735-10.376l2.818-2.756 1.036 3.517c3.81 12.933 16.481 22.581 32.278 24.581l.445.054c19.307 2.26 37.896-7.806 43.238-23.412l1.154-3.37 2.693 2.692c4.658 4.652 11.156 7.712 18.296 8.617l.334.04c10.175 1.191 20.213-2.039 26.853-8.638l1.928-1.914 1.641 2.091c5.427 6.921 14.156 11.602 23.952 12.842l.393.048c15.095 1.767 30.098-5.051 36.482-16.578l1.427-2.574 2.256 2.12c6.651 6.237 15.772 10.363 25.685 11.617l.486.059c23.223 2.719 44.98-10.789 48.501-30.109l.001-.011.001-.004.322-1.907 2.279.346q.204.031.401.069.132.026.263.045l.269.032c9.284 1.088 18.489-2.5 23.449-9.138l1.412-1.889 1.974 1.498c2.385 1.808 5.33 2.976 8.52 3.38z"/><path fill="#aba491" d="M108.256 122.482s-10.79-2.774-7.859-11.942c-3.43 3.795-5.843 8.305-6.877 13.291-13.815.473-26.164 7.137-32.488 17.147 9.3-9.581 29.094-13.064 33.15-9.062 0 0 2.86-9.555 14.074-9.434m237.452.353c3.928-25.247-17.057-48.603-47.419-52.446-26.683-3.376-51.821 9.431-61.089 29.604-2.952-1.862-6.49-3.156-10.408-3.652-7.626-.964-14.931 1.323-19.929 5.601-2.213-10.091-11.851-18.372-24.707-19.998a35.6 35.6 0 0 0-8.049-.08c-2.864-14.684-16.776-26.81-35.381-29.165-23.083-2.92-44.638 10.302-48.144 29.532-1.931 10.59 2.023 20.789 9.815 28.309-5.41-15.967-.876-32.493 18.333-39.812 0 0-8.402 8.376-6.879 15.626 0 0 12.219-19.16 38.16-7.18 0 0-1.313-7.018-12.335-9.764 16.816-.527 28.751 13.084 25.862 25.773 0 0 15.511-9.075 33.196 1.522 7.391 5.025 4.332 11.323 4.332 11.323s-11.927-1.812-18.344 3.676c0 0 15.269-3.205 35.632 1.883 0 0-.463-3.174-10.161-7.845 0 0 13.612-8.182 33.076.751 0 0 15.346-25.866 48.952-23.805 0 0-15.45 1.311-19.592 8.107 0 0 22.215-7.384 40.532 3.912 0 0-2.641-6.548-8.383-9.509 0 0 18.646-.595 33.834 21.432 4.213 6.108 5.122 18.485 3.626 21.43 0 0 17.361-11.453 37.427-2.986-3.454-3.325-8.283-5.69-13.911-6.402-6.718-.85-13.181.831-18.046 4.163"/><path fill="none" stroke="#aba491" stroke-linecap="butt" stroke-linejoin="miter" d="M414.654 114.816a29.2 29.2 0 0 0-9.189-2.74c-12.001-1.519-23.301 4.082-27.8 12.998 0 0 16.217-14.599 36.989-10.258Z"/><clipPath id="c" clip-rule="nonzero"><path d="M924 0h100v218.66H924z"/></clipPath><g clip-path="url(#c)"><path fill="#918a77" d="M936.575 102.938c4.588-.58 9 .665 12.185 3.08 3.088-4.13 8.233-7.16 14.461-7.948 9.576-1.21 18.593 3.258 22.181 10.372 2.758-2.653 6.611-4.54 11.102-5.108 5.356-.679 10.516.663 14.396 3.322-3.13-20.146 13.61-38.782 37.84-41.847 21.29-2.694 41.35 7.524 48.74 23.622 2.36-1.487 5.18-2.519 8.31-2.915 6.08-.77 11.91 1.055 15.9 4.47 1.76-8.053 9.45-14.66 19.71-15.957 2.18-.277 4.34-.275 6.42-.064 2.29-11.717 13.39-21.393 28.23-23.272 18.42-2.33 35.62 8.22 38.42 23.564 1.54 8.45-1.62 16.588-7.83 22.588 2.73 3.028 4.66 6.626 5.48 10.605 14.43.495 26.88 9.429 29.13 21.764 2.55 13.998-9 27.071-25.81 29.195-10.92 1.384-21.38-2.208-28.06-8.74-3.1 10.533-13.54 18.994-27.21 20.723-16.68 2.11-32.32-6.53-36.83-19.693-3.84 3.837-9.3 6.58-15.7 7.389-9.11 1.153-17.8-1.888-23.32-7.372-4.44 5.673-11.66 9.803-20.33 10.9-13.33 1.687-25.92-4.32-31.3-14.031-5.4 5.067-12.88 8.652-21.55 9.749-19.714 2.495-38.119-8.796-41.113-25.217l-.004-.025c-.196.029-.383.074-.581.099-8.438 1.067-16.456-2.271-20.698-7.947-2.084 1.582-4.73 2.686-7.726 3.065-8.079 1.023-15.621-3.604-16.848-10.333-1.228-6.731 4.326-13.015 12.405-14.038"/><path fill="#736d5d" d="M940.603 125.866c-4.372.512-8.57-.879-11.378-3.409 9.791 3.522 17.372-6.583 17.372-6.583 14.164 13.113 28.477 2.31 28.477 2.31.273 12.248 11.347 22.404 27.636 23.319s30.41-9.866 29.37-19.537c5.28 10.005 36.63 11.646 36.2-2.742-19.13-3.568-25.18-14.643-25.18-14.643 24.64 16.2 55.35-.173 55.35-.173-.84 9.226-17.37 13.982-17.37 13.982 5.23 14.489 26.1 23.664 30.55 18.164 6.74 6.845 15.71-.178 15.71-.178 10.67 14.848 35.13 6.342 32.24-8.422-15.33-2.353-21.3-11.778-21.3-11.778 29.79 11.283 58.47-1.699 58.47-1.699-3.29 10.01-25.73 13.965-25.73 13.965 18.54 23.791 56.75 14.423 67.3-3.031.52 1.294.92 2.637 1.17 4.025 1.17 6.38-.72 12.755-5.32 17.951-4.59 5.196-11.33 8.593-18.99 9.561l-.33.04c-9.87 1.156-19.64-1.939-26.12-8.278l-2.25-2.2-.82 2.806c-3.04 10.319-13.16 18.018-25.76 19.613l-.35.044c-15.41 1.803-30.24-6.229-34.51-18.68l-.91-2.689-2.15 2.147c-3.72 3.712-8.9 6.154-14.6 6.875l-.27.032c-8.12.95-16.13-1.625-21.42-6.892l-1.54-1.527-1.31 1.669c-4.33 5.523-11.3 9.258-19.11 10.246l-.32.039c-12.04 1.409-24.01-4.03-29.11-13.228l-1.14-2.054-1.8 1.691c-5.3 4.977-12.58 8.269-20.49 9.27l-.39.047c-18.527 2.169-35.888-8.608-38.697-24.025l-.002-.008v-.003l-.256-1.522-1.819.276a9 9 0 0 0-.32.056q-.104.02-.21.035l-.214.026c-7.408.867-14.753-1.994-18.711-7.292l-1.126-1.507-1.576 1.196c-1.901 1.442-4.253 2.374-6.797 2.696z"/><path fill="#aba491" d="M1010.9 106.656c-3.13-20.145 13.61-38.782 37.84-41.847 21.29-2.694 41.35 7.524 48.74 23.621 2.36-1.487 5.18-2.518 8.31-2.914 6.08-.77 11.91 1.055 15.9 4.47 1.76-8.052 9.45-14.66 19.71-15.957a28.2 28.2 0 0 1 6.42-.064c2.29-11.717 13.39-21.393 28.23-23.272 18.42-2.33 35.62 8.22 38.42 23.564 1.54 8.451-1.62 16.587-7.83 22.588 4.31-12.741.7-25.925-14.63-31.766 0 0 6.7 6.683 5.49 12.468 0 0-9.75-15.288-30.45-5.73 0 0 1.05-5.6 9.84-7.79-13.42-.421-22.94 10.44-20.63 20.565 0 0-12.38-7.24-26.49 1.214-5.9 4.01-3.46 9.035-3.46 9.035s9.52-1.447 14.64 2.933c0 0-12.18-2.557-28.43 1.503 0 0 .37-2.533 8.11-6.26 0 0-10.86-6.529-26.39.6 0 0-12.25-20.64-39.06-18.995 0 0 12.32 1.046 15.63 6.468 0 0-17.73-5.891-32.34 3.122 0 0 2.1-5.225 6.69-7.588 0 0-14.88-.473-27 17.1-3.36 4.875-4.09 14.751-2.89 17.1 0 0-13.86-9.139-29.867-2.382 2.757-2.654 6.609-4.54 11.1-5.108 5.357-.679 10.517.663 14.397 3.322"/></g><path fill="#918a77" d="M168.13 151.69c4.543-.571 8.913.653 12.066 3.029 3.059-4.064 8.151-7.043 14.318-7.818 9.481-1.19 18.409 3.205 21.962 10.201 2.73-2.609 6.545-4.463 10.993-5.023 5.306-.668 10.411.652 14.255 3.267-3.104-19.813 13.475-38.143 37.464-41.157 21.079-2.65 40.94 7.401 48.26 23.231 2.334-1.462 5.127-2.477 8.223-2.864 6.026-.758 11.796 1.036 15.745 4.394 1.748-7.919 9.363-14.417 19.52-15.693a28.2 28.2 0 0 1 6.358-.063c2.263-11.525 13.254-21.039 27.953-22.888 18.235-2.293 35.265 8.084 38.035 23.177 1.524 8.309-1.599 16.313-7.753 22.214 2.708 2.979 4.614 6.517 5.433 10.43 14.28.486 26.608 9.274 28.834 21.404 2.527 13.769-8.911 26.625-25.548 28.716-10.822 1.361-21.174-2.173-27.787-8.598-3.075 10.36-13.409 18.68-26.945 20.382-16.51 2.075-32.003-6.421-36.465-19.371-3.802 3.777-9.206 6.473-15.539 7.271-9.021 1.133-17.628-1.858-23.09-7.252-4.403 5.58-11.545 9.641-20.131 10.721-13.197 1.66-25.667-4.248-30.994-13.8-5.35 4.984-12.754 8.509-21.34 9.588-19.516 2.453-37.74-8.65-40.705-24.802l-.003-.024c-.193.03-.381.073-.576.097-8.354 1.05-16.292-2.231-20.493-7.814-2.063 1.554-4.684 2.642-7.651 3.014-7.998 1.005-15.467-3.546-16.682-10.164s4.285-12.801 12.283-13.805"/><path fill="#918a77" d="M172.119 174.238c-4.328.504-8.485-.863-11.265-3.352 9.694 3.464 17.2-6.473 17.2-6.473 14.023 12.896 28.197 2.27 28.197 2.27.269 12.048 11.234 22.035 27.363 22.935s30.107-9.701 29.083-19.214c5.221 9.839 36.263 11.454 35.833-2.697-18.937-3.509-24.928-14.403-24.928-14.403 24.4 15.934 54.8-.169 54.8-.169-.825 9.073-17.191 13.751-17.191 13.751 5.181 14.251 25.843 23.273 30.251 17.864 6.665 6.733 15.552-.175 15.552-.175 10.566 14.604 34.785 6.237 31.926-8.282-15.185-2.314-21.098-11.583-21.098-11.583 29.496 11.096 57.9-1.672 57.9-1.672-3.259 9.845-25.478 13.734-25.478 13.734 18.36 23.398 56.189 14.185 66.636-2.982a20.4 20.4 0 0 1 1.158 3.961c1.154 6.274-.718 12.543-5.265 17.655-4.546 5.11-11.226 8.45-18.809 9.403l-.325.038c-9.775 1.139-19.443-1.907-25.86-8.141l-2.228-2.162-.817 2.76c-3.011 10.147-13.022 17.719-25.501 19.289l-.351.043c-15.253 1.771-29.94-6.126-34.161-18.373l-.911-2.645-2.128 2.114c-3.679 3.649-8.813 6.051-14.455 6.759l-.262.033c-8.039.935-15.971-1.599-21.217-6.779l-1.522-1.503-1.297 1.642c-4.286 5.432-11.182 9.106-18.922 10.078l-.311.038c-11.925 1.387-23.778-3.963-28.822-13.011l-1.126-2.02-1.784 1.664c-5.254 4.896-12.46 8.132-20.291 9.116l-.384.048c-18.347 2.131-35.536-8.466-38.317-23.628l-.002-.009v-.004l-.256-1.496-1.8.271c-.106.016-.212.037-.316.054-.07.012-.138.028-.209.036l-.21.027c-7.335.851-14.609-1.963-18.526-7.172l-1.116-1.484-1.559 1.177c-1.884 1.416-4.211 2.336-6.731 2.652z"/><path fill="#aba491" d="M429.319 155.069s8.525-2.178 6.21-9.373c2.708 2.979 4.615 6.517 5.432 10.43 10.915.373 20.67 5.601 25.665 13.457-7.346-7.518-22.984-10.252-26.189-7.112 0 0-2.257-7.498-11.118-7.402m-187.595.277c-3.104-19.812 13.475-38.142 37.463-41.157 21.081-2.649 40.94 7.4 48.261 23.232 2.334-1.462 5.127-2.477 8.224-2.866 6.024-.756 11.795 1.038 15.743 4.394 1.749-7.917 9.365-14.417 19.52-15.693a28.3 28.3 0 0 1 6.358-.061c2.263-11.525 13.254-21.041 27.953-22.888 18.237-2.293 35.267 8.083 38.036 23.175 1.526 8.31-1.599 16.315-7.754 22.214 4.274-12.53.692-25.497-14.485-31.241 0 0 6.64 6.573 5.435 12.261 0 0-9.651-15.035-30.146-5.634 0 0 1.037-5.508 9.745-7.662-13.286-.413-22.715 10.267-20.433 20.226 0 0-12.255-7.122-26.227 1.194-5.838 3.944-3.42 8.885-3.42 8.885s9.422-1.422 14.492 2.887c0 0-12.062-2.517-28.15 1.475 0 0 .365-2.49 8.027-6.156 0 0-10.754-6.42-26.132.59 0 0-12.123-20.299-38.673-18.681 0 0 12.206 1.031 15.477 6.361 0 0-17.551-5.794-32.02 3.071 0 0 2.086-5.139 6.622-7.461 0 0-14.73-.468-26.729 16.817-3.329 4.792-4.047 14.506-2.866 16.818 0 0-13.715-8.99-29.568-2.343 2.729-2.609 6.544-4.467 10.991-5.025 5.307-.667 10.413.652 14.256 3.268"/><path fill="#aba491" stroke="#aba491" stroke-linecap="butt" stroke-linejoin="miter" d="M187.255 149.052a23.2 23.2 0 0 1 7.259-2.15c9.481-1.192 18.41 3.203 21.962 10.201 0 0-12.811-11.458-29.221-8.051Z"/><path fill="#918a77" d="M689.223 166.677c-5.694-.716-11.169.82-15.121 3.796-3.833-5.091-10.217-8.826-17.946-9.796-11.883-1.495-23.071 4.013-27.525 12.783-3.421-3.271-8.202-5.594-13.776-6.297-6.65-.834-13.049.817-17.865 4.095 3.888-24.829-16.889-47.801-46.954-51.58-26.418-3.321-51.309 9.274-60.484 29.114-2.923-1.832-6.425-3.102-10.306-3.589-7.55-.951-14.783 1.3-19.732 5.506-2.19-9.922-11.734-18.068-24.463-19.667a35.4 35.4 0 0 0-7.969-.079c-2.835-14.443-16.609-26.369-35.033-28.684-22.855-2.873-44.196 10.131-47.669 29.044-1.91 10.416 2.004 20.447 9.719 27.844-3.396 3.731-5.786 8.167-6.809 13.07-17.899.612-33.348 11.624-36.14 26.828-3.166 17.254 11.169 33.366 32.02 35.987 13.564 1.705 26.539-2.724 34.826-10.775 3.851 12.984 16.805 23.41 33.768 25.543 20.692 2.602 40.109-8.047 45.7-24.274 4.768 4.731 11.538 8.11 19.477 9.108 11.306 1.421 22.092-2.328 28.937-9.085 5.518 6.99 14.469 12.083 25.229 13.435 16.541 2.08 32.17-5.326 38.844-17.297 6.705 6.248 15.985 10.666 26.747 12.018 24.459 3.075 47.299-10.842 51.013-31.083l.005-.029c.242.034.476.09.722.12 10.471 1.317 20.418-2.799 25.684-9.796 2.587 1.95 5.868 3.314 9.587 3.78 10.024 1.26 19.385-4.442 20.907-12.74 1.523-8.294-5.368-16.04-15.393-17.3"/><path fill="#736d5d" d="M684.224 194.937c5.426.631 10.635-1.083 14.118-4.203-12.149 4.342-21.557-8.113-21.557-8.113-17.575 16.164-35.336 2.847-35.336 2.847-.339 15.099-14.082 27.614-34.295 28.742s-37.733-12.159-36.451-24.08c-6.543 12.331-45.446 14.354-44.909-3.379 23.737-4.399 31.245-18.051 31.245-18.051-30.581 19.97-68.683-.213-68.683-.213 1.036 11.373 21.547 17.235 21.547 17.235-6.493 17.86-32.39 29.166-37.914 22.389-8.353 8.439-19.49-.22-19.49-.22-13.241 18.301-43.596 7.817-40.012-10.38 19.032-2.901 26.441-14.518 26.441-14.518-36.966 13.908-72.563-2.094-72.563-2.094 4.084 12.338 31.929 17.212 31.929 17.212-23.01 29.326-70.42 17.78-83.513-3.735a25.5 25.5 0 0 0-1.451 4.962c-1.446 7.864.898 15.722 6.598 22.127 5.699 6.405 14.069 10.59 23.571 11.784l.408.049c12.252 1.425 24.37-2.39 32.413-10.205l2.79-2.707 1.025 3.457c3.774 12.719 16.319 22.208 31.961 24.174l.44.054c19.115 2.223 37.523-7.677 42.811-23.026l1.142-3.314 2.667 2.647c4.612 4.576 11.045 7.586 18.117 8.473l.328.042c10.076 1.171 20.016-2.004 26.589-8.496l1.908-1.884 1.626 2.06c5.374 6.806 14.017 11.41 23.713 12.628l.392.049c14.945 1.736 29.8-4.969 36.121-16.307l1.413-2.53 2.235 2.084c6.584 6.133 15.615 10.192 25.43 11.426l.481.057c22.993 2.675 44.536-10.611 48.023-29.613l.003-.008v-.004l.318-1.877 2.258.341q.201.03.396.067.129.026.261.044l.264.033c9.194 1.069 18.307-2.459 23.219-8.988l1.397-1.858 1.957 1.473c2.359 1.778 5.277 2.928 8.435 3.324z"/><path fill="#aba491" d="M361.88 170.912s-10.684-2.729-7.781-11.746c-3.395 3.733-5.786 8.167-6.81 13.072-13.679.466-25.906 7.02-32.166 16.864 9.208-9.422 28.806-12.849 32.823-8.913 0 0 2.831-9.397 13.934-9.277m235.109.346c3.89-24.83-16.889-47.802-46.952-51.58-26.418-3.322-51.31 9.274-60.484 29.114-2.925-1.83-6.427-3.102-10.306-3.589-7.55-.951-14.784 1.3-19.732 5.508-2.192-9.925-11.736-18.071-24.463-19.67a35.4 35.4 0 0 0-7.969-.078c-2.837-14.443-16.611-26.368-35.034-28.685-22.854-2.87-44.197 10.133-47.668 29.045-1.912 10.418 2.004 20.446 9.718 27.843-5.357-15.705-.868-31.957 18.152-39.154 0 0-8.319 8.236-6.812 15.366 0 0 12.099-18.842 37.784-7.062 0 0-1.3-6.902-12.214-9.601 16.651-.52 28.468 12.869 25.607 25.348 0 0 15.359-8.925 32.87 1.496 7.317 4.943 4.29 11.136 4.29 11.136s-11.81-1.782-18.165 3.615c0 0 15.12-3.151 35.281 1.853 0 0-.459-3.122-10.062-7.717 0 0 13.479-8.047 32.75.74 0 0 15.196-25.44 48.469-23.413 0 0-15.298 1.29-19.398 7.972 0 0 21.997-7.261 40.133 3.848 0 0-2.616-6.439-8.301-9.352 0 0 18.462-.584 33.501 21.079 4.17 6.007 5.07 18.182 3.589 21.077 0 0 17.189-11.264 37.059-2.935-3.422-3.271-8.202-5.597-13.776-6.297-6.65-.836-13.051.815-17.867 4.093"/><path fill="none" stroke="#aba491" stroke-linecap="butt" stroke-linejoin="miter" d="M665.255 163.37a29.1 29.1 0 0 0-9.099-2.694c-11.883-1.492-23.071 4.015-27.525 12.786 0 0 16.058-14.36 36.624-10.092Z"/></g></svg>