<svg xmlns="http://www.w3.org/2000/svg" fill="none" viewBox="0 0 212 150"><path fill="url(#a)" d="M19.35 0C13.235 0 8.475 1.657 5.077 5.079Q-.008 10.219 0 19.719c0 6.17 1.741 10.931 5.201 14.388 3.456 3.457 8.309 5.203 14.513 5.203 4.438 0 8.05-.794 11.002-2.54 2.956-1.745 5.166-4.087 6.532-6.894q2.052-4.22 2.055-10.645c0-4.22-.836-7.703-2.418-10.53a16.14 16.14 0 0 0-6.653-6.522C27.395.681 23.796.004 19.35.004zm43.173 0c-6.115 0-10.875 1.657-14.269 5.079-3.397 3.422-5.08 8.31-5.08 14.64 0 6.17 1.74 10.935 5.2 14.392 3.456 3.457 8.31 5.203 14.513 5.203 4.442 0 8.05-.794 11.006-2.54 2.957-1.746 5.162-4.087 6.528-6.894q2.052-4.22 2.06-10.645c0-4.22-.84-7.703-2.42-10.53a16.14 16.14 0 0 0-6.656-6.53C70.57.681 66.97.004 62.527.004zM105.7 0c-6.118 0-10.874 1.657-14.272 5.079s-5.082 8.31-5.082 14.64c0 6.17 1.746 10.935 5.202 14.392s8.308 5.203 14.512 5.203c4.443 0 8.05-.794 11.006-2.54 2.957-1.746 5.167-4.087 6.533-6.894q2.046-4.22 2.051-10.645c0-4.22-.836-7.703-2.415-10.53a16.14 16.14 0 0 0-6.653-6.526C113.738.681 110.139.004 105.696.004zm43.173 0c-6.118 0-10.874 1.657-14.272 5.079q-5.085 5.14-5.077 14.64c0 6.17 1.741 10.935 5.197 14.392 3.46 3.457 8.309 5.203 14.512 5.203 4.443 0 8.05-.794 11.006-2.54 2.957-1.746 5.167-4.087 6.533-6.894q2.05-4.22 2.055-10.645c0-4.22-.836-7.703-2.419-10.53a16.15 16.15 0 0 0-6.652-6.526C156.915.681 153.316.004 148.877.004zm43.174 0c-6.115 0-10.875 1.657-14.273 5.079q-5.085 5.14-5.077 14.64c0 6.17 1.741 10.935 5.201 14.392 3.456 3.457 8.305 5.203 14.512 5.203 4.443 0 8.05-.794 11.003-2.54 2.956-1.746 5.166-4.087 6.532-6.894q2.05-4.22 2.055-10.645c0-4.22-.836-7.703-2.419-10.53a16.14 16.14 0 0 0-6.648-6.526C200.088.681 196.489.004 192.043.004zM19.23 11.733c4.249 0 7.186.673 8.827 2.055s2.419 3.283 2.419 5.807c0 2.454-.743 4.382-2.419 5.806-1.675 1.425-4.508 2.18-8.343 2.18-3.87 0-6.668-.744-8.348-2.18s-2.415-3.317-2.415-5.682c0-2.478.766-4.367 2.415-5.807 1.652-1.444 4.284-2.18 7.864-2.18m43.173 0c4.253 0 7.187.673 8.827 2.055 1.641 1.382 2.42 3.283 2.42 5.807 0 2.454-.864 4.382-2.54 5.806-1.675 1.425-4.388 2.18-8.223 2.18-3.87 0-6.668-.744-8.344-2.18s-2.538-3.317-2.538-5.682c0-2.478.89-4.367 2.538-5.807 1.649-1.44 4.284-2.18 7.86-2.18m43.173 0c4.253 0 7.187.673 8.831 2.055 1.641 1.386 2.419 3.283 2.419 5.807 0 2.454-.867 4.382-2.542 5.806-1.676 1.425-4.385 2.18-8.224 2.18-3.87 0-6.668-.744-8.344-2.18s-2.538-3.317-2.538-5.682c0-2.478.89-4.367 2.538-5.807 1.649-1.44 4.284-2.18 7.86-2.18m43.177 0c4.25 0 7.183.673 8.824 2.055 1.645 1.386 2.422 3.283 2.422 5.807 0 2.454-.863 4.382-2.542 5.806-1.676 1.429-4.385 2.18-8.22 2.18-3.87 0-6.672-.744-8.347-2.18-1.676-1.436-2.539-3.317-2.539-5.682 0-2.478.89-4.367 2.539-5.807 1.648-1.44 4.284-2.18 7.863-2.18m43.174 0c4.249 0 7.186.673 8.827 2.055s2.419 3.283 2.419 5.807c0 2.454-.863 4.382-2.539 5.806s-4.389 2.18-8.224 2.18c-3.87 0-6.668-.744-8.347-2.18-1.68-1.436-2.539-3.317-2.539-5.682 0-2.478.89-4.367 2.543-5.807 1.648-1.444 4.28-2.18 7.856-2.18zM.604 45.363v15.36l23.22 5.927L.604 72.7v15.364H38.7v-9.557H9.675L38.7 71.13v-8.71L9.675 54.917H38.7V45.36zm43.173 0v15.36l23.22 5.927-23.22 6.05v15.364h38.096v-9.557H52.848l29.025-7.378v-8.71l-29.025-7.502h29.025V45.36zm43.177 0v15.36l23.22 5.927-23.22 6.05v15.364h38.092v-9.557H96.021l29.025-7.378v-8.71l-29.025-7.502h29.025V45.36zm43.173 0v15.36l23.1 5.927-23.1 6.05v15.364h38.096v-9.557h-29.025l29.025-7.378v-8.71l-29.025-7.502h29.025V45.36zm43.173 0v15.36l23.1 5.927-23.1 6.05v15.364h37.976v-9.557h-28.904l28.904-7.378v-8.71l-28.904-7.502h28.904V45.36zM.604 96.407v11.733H38.7V96.406zm43.173 0v11.733h38.096V96.406zm43.177 0v11.733h38.092V96.406zm43.173 0v11.733h38.096V96.406zm43.173 0v11.733h37.976V96.406zM30.476 113.95v22.138L8.224 114.677H.604v33.264h8.103V128.95L30.72 150h7.98v-36.05zm43.173 0v22.138l-22.252-21.411h-7.62v33.264h8.104V128.95L73.893 150h7.98v-36.05zm43.177 0v22.138l-22.252-21.411H86.95v33.264h8.108V128.95L117.066 150h7.984v-36.05zm43.173 0v22.138l-22.252-21.411h-7.62v33.264h8.104V128.95L160.239 150h7.984v-36.05zm43.174 0v22.138l-22.253-21.411h-7.62v33.264h8.104V128.95L203.416 150h7.856v-36.05z"/><defs><linearGradient id="a" x1="-33.266" x2="240.365" y1="174.495" y2="-21.664" gradientUnits="userSpaceOnUse"><stop stop-color="#FBCEFF"/><stop offset=".487" stop-color="#FFE1E1"/><stop offset="1" stop-color="#D0FFF9"/></linearGradient></defs></svg>