<svg xmlns="http://www.w3.org/2000/svg" fill="none" viewBox="0 0 134 160"><path fill="url(#a)" d="M20.636 0C14.115 0 9.038 1.771 5.415 5.422 1.795 9.068 0 14.287 0 21.034c0 6.582 1.857 11.669 5.547 15.356 3.685 3.687 8.86 5.55 15.477 5.55 4.733 0 8.584-.85 11.733-2.713 3.153-1.858 5.51-4.356 6.967-7.354s2.191-6.78 2.191-11.355c0-4.501-.891-8.213-2.58-11.227a17.2 17.2 0 0 0-7.094-6.966C29.216.727 25.378 0 20.636 0m46.042 0c-6.52 0-11.597 1.771-15.217 5.422-3.623 3.65-5.419 8.865-5.419 15.612 0 6.582 1.858 11.669 5.547 15.356 3.686 3.687 8.861 5.55 15.477 5.55 4.738 0 8.584-.85 11.738-2.713 3.149-1.858 5.505-4.356 6.962-7.354s2.196-6.78 2.196-11.355c0-4.501-.896-8.213-2.58-11.227a17.2 17.2 0 0 0-7.098-6.966C75.258.727 71.416 0 66.678 0m46.047 0c-6.525 0-11.598 1.771-15.221 5.422-3.624 3.65-5.42 8.865-5.42 15.612 0 6.582 1.862 11.669 5.548 15.356s8.861 5.55 15.476 5.55c4.738 0 8.585-.85 11.738-2.713 3.153-1.858 5.51-4.356 6.967-7.354q2.183-4.497 2.187-11.355c0-4.501-.891-8.213-2.575-11.227a17.2 17.2 0 0 0-7.095-6.966C121.297.727 117.463 0 112.725 0M20.504 12.52q6.792-.01 9.414 2.188c1.75 1.478 2.58 3.506 2.58 6.194 0 2.622-.921 4.674-2.708 6.193-1.787 1.528-4.68 2.325-8.77 2.325-4.128 0-7.111-.793-8.903-2.32-1.79-1.528-2.707-3.54-2.707-6.066 0-2.639.95-4.654 2.707-6.194 1.758-1.54 4.569-2.32 8.387-2.32m46.042 0q6.798-.01 9.414 2.188c1.754 1.478 2.58 3.506 2.58 6.194 0 2.622-.92 4.674-2.708 6.193-1.787 1.528-4.68 2.325-8.77 2.325-4.127 0-7.111-.793-8.898-2.32-1.787-1.528-2.708-3.54-2.708-6.066 0-2.639.95-4.654 2.708-6.194s4.569-2.32 8.382-2.32m46.042 0q6.794-.01 9.419 2.188c1.749 1.478 2.579 3.506 2.579 6.194 0 2.622-.924 4.674-2.712 6.193-1.787 1.528-4.676 2.325-8.77 2.325-4.127 0-7.111-.793-8.898-2.32-1.787-1.528-2.707-3.54-2.707-6.066 0-2.639.949-4.654 2.707-6.194s4.569-2.32 8.382-2.32M.644 48.39v16.388L25.407 71.1.644 77.554v16.384H41.27v-10.19H10.318l30.953-7.875v-9.29l-30.953-7.999H41.27V48.39zm46.042 0v16.388l24.64 6.322-24.64 6.454v16.384h40.628v-10.19H56.36l30.954-7.875v-9.29L56.36 58.583h30.954V48.39zm46.047 0v16.388l24.63 6.322-24.63 6.454v16.384h40.495v-10.19h-30.821l30.821-7.875v-9.29l-30.821-7.999h30.821V48.39zM.643 102.843v12.512h40.628v-12.512zm46.043 0v12.512h40.628v-12.512zm46.047 0v12.512h40.495v-12.512zM32.5 121.545v23.619l-23.73-22.842H.643v35.485h8.642V137.55L32.761 160h8.51v-38.451zm46.043 0v23.619l-23.731-22.842h-8.127v35.485h8.642V137.55L78.804 160h8.51v-38.451zm46.046 0v23.619l-23.731-22.842h-8.13v35.485h8.646V137.55L124.846 160h8.382v-38.451z"/><defs><linearGradient id="a" x1="-19.299" x2="150.932" y1="181.583" y2="-13.218" gradientUnits="userSpaceOnUse"><stop stop-color="#FBCEFF"/><stop offset=".487" stop-color="#FFE1E1"/><stop offset="1" stop-color="#D0FFF9"/></linearGradient></defs></svg>