<svg xmlns="http://www.w3.org/2000/svg" xml:space="preserve" stroke-miterlimit="10" style="fill-rule:nonzero;clip-rule:evenodd;stroke-linecap:round;stroke-linejoin:round" viewBox="0 0 84.258 60.984"><defs><linearGradient id="b" x1="63.623" x2="63.846" y1="2.883" y2="61.737" gradientTransform="translate(-.5 -2.5)" gradientUnits="userSpaceOnUse"><stop offset="0" stop-color="#ebebeb"/><stop offset="1" stop-color="#f5f5f5" stop-opacity="0"/></linearGradient></defs><clipPath id="a"><path d="M0 0h84.258v60.984H0z"/></clipPath><g clip-path="url(#a)"><path fill="url(#b)" d="M35.374 0c-1.594 0-2.825.45-3.718 1.344-.893.893-1.344 2.147-1.344 3.75 0 1.147.236 2.111.687 2.875s1.025 1.303 1.75 1.656q1.09.53 2.75.531c1.09 0 2.02-.185 2.75-.594a4.1 4.1 0 0 0 1.657-1.718c.386-.735.593-1.665.593-2.813 0-1.58-.46-2.81-1.343-3.687C38.27.466 37.009 0 35.374 0m42.032 0c-1.595 0-2.826.45-3.72 1.344-.892.893-1.343 2.147-1.343 3.75 0 1.147.205 2.111.656 2.875a4.13 4.13 0 0 0 1.782 1.656q1.088.53 2.75.531c1.09 0 1.988-.185 2.718-.594a4.17 4.17 0 0 0 1.688-1.718c.386-.735.562-1.665.562-2.813 0-1.58-.428-2.81-1.312-3.687C80.303.466 79.04 0 77.406 0m42.375 0c-1.594 0-2.825.45-3.719 1.344-.893.893-1.343 2.147-1.343 3.75 0 1.147.205 2.111.656 2.875a4.13 4.13 0 0 0 1.781 1.656q1.09.53 2.75.531c1.09 0 1.989-.185 2.719-.594a4.17 4.17 0 0 0 1.687-1.718c.387-.735.563-1.665.563-2.813 0-1.58-.428-2.81-1.313-3.687C122.678.466 121.416 0 119.781 0M2.249.188V2.28h4.938L1.718 7.97V10h9.313V7.875H5.343l5.5-5.719V.187zm10.282 0V10h3.03V.188zm5.187 0V10h2.469V2.5l1.937 7.5h2.25l1.907-7.5V10h2.468V.188h-3.968l-1.532 5.968L21.72.188zm26.563 0V2.28h4.906l-5.438 5.69V10h9.313V7.875h-5.719l5.531-5.719V.187zm10.28 0V10h3.032V.188zm5.188 0V10h2.47V2.5l1.905 7.5h2.25l1.938-7.5V10h2.469V.188h-3.97l-1.53 5.968L63.718.188zm26.907 0V2.28h4.906l-5.438 5.69V10h9.313V7.875h-5.719l5.5-5.719V.187zm10.28 0V10h3.033V.188zm5.158 0V10h2.5V2.5L106.5 10h2.25l1.938-7.5V10h2.468V.188h-3.968l-1.563 5.968-1.531-5.968zm-66.72 2.125c.639 0 1.159.198 1.532.624.373.427.562 1.107.562 2.032 0 1.098-.174 1.857-.531 2.281s-.88.656-1.531.656c-.634 0-1.132-.223-1.5-.656s-.563-1.134-.563-2.125c0-1 .192-1.723.563-2.156s.857-.656 1.468-.656m42.032 0c.638 0 1.127.198 1.5.624q.56.642.562 2.032c0 1.098-.174 1.857-.531 2.281s-.848.656-1.5.656c-.634 0-1.132-.223-1.5-.656s-.563-1.134-.563-2.125c0-1 .192-1.723.563-2.156s.857-.656 1.469-.656m42.375 0c.639 0 1.127.198 1.5.624q.561.642.563 2.032c0 1.098-.174 1.857-.532 2.281-.357.424-.847.656-1.5.656-.634 0-1.162-.223-1.531-.656-.368-.433-.531-1.134-.531-2.125 0-1 .192-1.723.562-2.156s.857-.656 1.469-.656M35.374 12.469c-1.594 0-2.825.45-3.718 1.344-.893.893-1.344 2.146-1.344 3.75 0 1.147.236 2.08.687 2.843.451.764 1.025 1.335 1.75 1.688q1.09.53 2.75.531c1.09 0 2.02-.216 2.75-.625a4.1 4.1 0 0 0 1.657-1.719c.386-.734.593-1.665.593-2.812 0-1.581-.46-2.81-1.343-3.688q-1.328-1.314-3.782-1.312m42.032 0c-1.595 0-2.826.45-3.72 1.344-.892.893-1.343 2.146-1.343 3.75 0 1.147.205 2.08.656 2.843.452.764 1.056 1.335 1.782 1.688q1.088.53 2.75.531c1.09 0 1.988-.216 2.718-.625a4.17 4.17 0 0 0 1.688-1.719c.386-.734.562-1.665.562-2.812 0-1.581-.428-2.81-1.312-3.688q-1.328-1.314-3.781-1.312m42.375 0c-1.594 0-2.825.45-3.719 1.344-.893.893-1.343 2.146-1.343 3.75 0 1.147.205 2.08.656 2.843.451.764 1.056 1.335 1.781 1.688q1.09.53 2.75.531c1.09 0 1.989-.216 2.719-.625a4.17 4.17 0 0 0 1.687-1.719c.387-.734.563-1.665.563-2.812 0-1.581-.428-2.81-1.313-3.688q-1.327-1.314-3.781-1.312m-117.532.156v2.094h4.938l-5.469 5.687v2.063h9.313v-2.125H5.343l5.5-5.75v-1.969zm10.282 0v9.844h3.03v-9.844zm5.187 0v9.844h2.469v-7.5l1.937 7.5h2.25l1.907-7.5v7.5h2.468v-9.844h-3.968l-1.532 5.969-1.53-5.969zm26.563 0v2.094h4.906l-5.438 5.687v2.063h9.313v-2.125h-5.719l5.531-5.75v-1.969zm10.28 0v9.844h3.032v-9.844zm5.188 0v9.844h2.47v-7.5l1.905 7.5h2.25l1.938-7.5v7.5h2.469v-9.844h-3.97l-1.53 5.969-1.563-5.969zm26.907 0v2.094h4.906l-5.438 5.687v2.063h9.313v-2.125h-5.719l5.5-5.75v-1.969zm10.28 0v9.844h3.033v-9.844zm5.158 0v9.844h2.5v-7.5l1.906 7.5h2.25l1.938-7.5v7.5h2.468v-9.844h-3.968l-1.563 5.969-1.531-5.969zm-66.72 2.125c.639 0 1.159.23 1.532.656s.562 1.107.562 2.031c0 1.1-.174 1.857-.531 2.282-.357.424-.88.625-1.531.625-.634 0-1.132-.223-1.5-.657-.369-.433-.563-1.133-.563-2.125 0-1 .192-1.723.563-2.156s.857-.656 1.468-.656m42.032 0c.638 0 1.127.23 1.5.656.372.427.562 1.107.562 2.031 0 1.1-.174 1.857-.531 2.282-.357.424-.848.625-1.5.625-.634 0-1.132-.223-1.5-.657-.368-.433-.563-1.133-.563-2.125 0-1 .192-1.723.563-2.156s.857-.656 1.469-.656m42.375 0c.639 0 1.127.23 1.5.656s.563 1.107.563 2.031c0 1.1-.174 1.857-.532 2.282-.357.424-.847.625-1.5.625-.634 0-1.162-.223-1.531-.657-.368-.433-.531-1.133-.531-2.125 0-1 .192-1.723.562-2.156s.857-.656 1.469-.656m-84.407 9.875c-1.594 0-2.825.45-3.718 1.344-.893.893-1.344 2.146-1.344 3.75 0 1.147.236 2.08.687 2.843.451.764 1.025 1.335 1.75 1.688q1.09.53 2.75.531c1.09 0 2.02-.216 2.75-.625a4.1 4.1 0 0 0 1.657-1.718c.386-.735.593-1.665.593-2.813 0-1.58-.46-2.81-1.343-3.687-.885-.878-2.147-1.313-3.782-1.313m42.032 0c-1.595 0-2.826.45-3.72 1.344-.892.893-1.343 2.146-1.343 3.75 0 1.147.205 2.08.656 2.843.452.764 1.056 1.335 1.782 1.688q1.088.53 2.75.531c1.09 0 1.988-.216 2.718-.625a4.17 4.17 0 0 0 1.688-1.718c.386-.735.562-1.665.562-2.813 0-1.58-.428-2.81-1.312-3.687-.884-.878-2.147-1.313-3.781-1.313m42.375 0c-1.594 0-2.825.45-3.719 1.344-.893.893-1.343 2.146-1.343 3.75 0 1.147.205 2.08.656 2.843.451.764 1.056 1.335 1.781 1.688q1.09.53 2.75.531c1.09 0 1.989-.216 2.719-.625a4.17 4.17 0 0 0 1.687-1.718c.387-.735.563-1.665.563-2.813 0-1.58-.428-2.81-1.313-3.687-.884-.878-2.146-1.313-3.781-1.313m-117.532.156v2.094h4.938l-5.469 5.688v2.062h9.313V32.5H5.343l5.5-5.75v-1.969zm10.282 0v9.844h3.03v-9.844zm5.187 0v9.844h2.469v-7.5l1.937 7.5h2.25l1.907-7.5v7.5h2.468v-9.844h-3.968l-1.532 6-1.53-6zm26.563 0v2.094h4.906l-5.438 5.688v2.062h9.313V32.5h-5.719l5.531-5.75v-1.969zm10.28 0v9.844h3.032v-9.844zm5.188 0v9.844h2.47v-7.5l1.905 7.5h2.25l1.938-7.5v7.5h2.469v-9.844h-3.97l-1.53 6-1.563-6zm26.907 0v2.094h4.906l-5.438 5.688v2.062h9.313V32.5h-5.719l5.5-5.75v-1.969zm10.28 0v9.844h3.033v-9.844zm5.158 0v9.844h2.5v-7.5l1.906 7.5h2.25l1.938-7.5v7.5h2.468v-9.844h-3.968l-1.563 6-1.531-6zm-66.72 2.125c.639 0 1.159.23 1.532.657.373.426.562 1.106.562 2.03 0 1.1-.174 1.858-.531 2.282s-.88.625-1.531.625c-.634 0-1.132-.223-1.5-.656s-.563-1.134-.563-2.125c0-1 .192-1.723.563-2.157s.857-.656 1.468-.656m42.032 0c.638 0 1.127.23 1.5.657.372.426.562 1.106.562 2.03 0 1.1-.174 1.858-.531 2.282s-.848.625-1.5.625c-.634 0-1.132-.223-1.5-.656s-.563-1.134-.563-2.125c0-1 .192-1.723.563-2.157s.857-.656 1.469-.656m42.375 0c.639 0 1.127.23 1.5.657.373.426.563 1.106.563 2.03 0 1.1-.174 1.858-.532 2.282-.357.424-.847.625-1.5.625-.634 0-1.162-.223-1.531-.656-.368-.433-.531-1.134-.531-2.125 0-1 .192-1.723.562-2.157s.857-.656 1.469-.656M35.374 37.063c-1.594 0-2.825.45-3.718 1.343s-1.344 2.147-1.344 3.75c0 1.148.236 2.112.687 2.875.451.764 1.025 1.304 1.75 1.657q1.09.529 2.75.53c1.09 0 2.02-.184 2.75-.593a4.1 4.1 0 0 0 1.657-1.719c.386-.734.593-1.664.593-2.812 0-1.581-.46-2.81-1.343-3.688-.885-.877-2.147-1.343-3.782-1.343m42.032 0c-1.595 0-2.826.45-3.72 1.343-.892.893-1.343 2.147-1.343 3.75 0 1.148.205 2.112.656 2.875a4.13 4.13 0 0 0 1.782 1.657q1.088.529 2.75.53c1.09 0 1.988-.184 2.718-.593a4.17 4.17 0 0 0 1.688-1.719c.386-.734.562-1.664.562-2.812 0-1.581-.428-2.81-1.312-3.688-.884-.877-2.147-1.343-3.781-1.343m42.375 0c-1.594 0-2.825.45-3.719 1.343s-1.343 2.147-1.343 3.75c0 1.148.205 2.112.656 2.875a4.13 4.13 0 0 0 1.781 1.657q1.09.529 2.75.53c1.09 0 1.989-.184 2.719-.593a4.17 4.17 0 0 0 1.687-1.719c.387-.734.563-1.664.563-2.812 0-1.581-.428-2.81-1.313-3.688-.884-.877-2.146-1.343-3.781-1.343M2.249 37.25v2.094h4.938L1.718 45.03v2.032h9.313v-2.094H5.343l5.5-5.75V37.25zm10.282 0v9.813h3.03V37.25zm5.187 0v9.813h2.469v-7.5l1.937 7.5h2.25l1.907-7.5v7.5h2.468V37.25h-3.968l-1.532 5.969-1.53-5.969zm26.563 0v2.094h4.906l-5.438 5.687v2.032h9.313v-2.094h-5.719l5.531-5.75V37.25zm10.28 0v9.813h3.032V37.25zm5.188 0v9.813h2.47v-7.5l1.905 7.5h2.25l1.938-7.5v7.5h2.469V37.25h-3.97l-1.53 5.969-1.563-5.969zm26.907 0v2.094h4.906l-5.438 5.687v2.032h9.313v-2.094h-5.719l5.5-5.75V37.25zm10.28 0v9.813h3.033V37.25zm5.158 0v9.813h2.5v-7.5l1.906 7.5h2.25l1.938-7.5v7.5h2.468V37.25h-3.968l-1.563 5.969-1.531-5.969zm-66.72 2.125c.639 0 1.159.199 1.532.625s.562 1.107.562 2.031c0 1.099-.174 1.857-.531 2.282-.357.424-.88.656-1.531.656-.634 0-1.132-.223-1.5-.657-.369-.433-.563-1.133-.563-2.124 0-1 .192-1.724.563-2.157s.857-.656 1.468-.656m42.032 0c.638 0 1.127.199 1.5.625.372.426.562 1.107.562 2.031 0 1.099-.174 1.857-.531 2.282-.357.424-.848.656-1.5.656-.634 0-1.132-.223-1.5-.657-.368-.433-.563-1.133-.563-2.124 0-1 .192-1.724.563-2.157s.857-.656 1.469-.656m42.375 0c.639 0 1.127.199 1.5.625s.563 1.107.563 2.031c0 1.099-.174 1.857-.532 2.282-.357.424-.847.656-1.5.656-.634 0-1.162-.223-1.531-.657-.368-.433-.531-1.133-.531-2.124 0-1 .192-1.724.562-2.157s.857-.656 1.469-.656m-84.407 9.75c-1.594 0-2.825.42-3.718 1.313s-1.344 2.146-1.344 3.75c0 1.147.236 2.11.687 2.874s1.025 1.335 1.75 1.688q1.09.53 2.75.531c1.09 0 2.02-.216 2.75-.625a4.1 4.1 0 0 0 1.657-1.718c.386-.735.593-1.665.593-2.813 0-1.58-.46-2.81-1.343-3.687q-1.328-1.315-3.782-1.313m42.032 0c-1.595 0-2.826.42-3.72 1.313-.892.893-1.343 2.146-1.343 3.75 0 1.147.205 2.11.656 2.874s1.056 1.335 1.782 1.688q1.088.53 2.75.531c1.09 0 1.988-.216 2.718-.625a4.17 4.17 0 0 0 1.688-1.718c.386-.735.562-1.665.562-2.813 0-1.58-.428-2.81-1.312-3.687q-1.328-1.315-3.781-1.313m42.375 0c-1.594 0-2.825.42-3.719 1.313s-1.343 2.146-1.343 3.75c0 1.147.205 2.11.656 2.874s1.056 1.335 1.781 1.688q1.09.53 2.75.531c1.09 0 1.989-.216 2.719-.625a4.17 4.17 0 0 0 1.687-1.718c.387-.735.563-1.665.563-2.813 0-1.58-.428-2.81-1.313-3.687q-1.327-1.315-3.781-1.313m-117.532.156v2.094h4.938l-5.469 5.688v2.03h9.313V57H5.343l5.5-5.75v-1.969zm10.282 0v9.813h3.03V49.28zm5.187 0v9.813h2.469v-7.469l1.937 7.469h2.25l1.907-7.469v7.469h2.468V49.28h-3.968l-1.532 5.969-1.53-5.969zm26.563 0v2.094h4.906l-5.438 5.688v2.03h9.313V57h-5.719l5.531-5.75v-1.969zm10.28 0v9.813h3.032V49.28zm5.188 0v9.813h2.47v-7.469l1.905 7.469h2.25l1.938-7.469v7.469h2.469V49.28h-3.97l-1.53 5.969-1.563-5.969zm26.907 0v2.094h4.906l-5.438 5.688v2.03h9.313V57h-5.719l5.5-5.75v-1.969zm10.28 0v9.813h3.033V49.28zm5.158 0v9.813h2.5v-7.469l1.906 7.469h2.25l1.938-7.469v7.469h2.468V49.28h-3.968l-1.563 5.969-1.531-5.969zm-66.72 2.125c.639 0 1.159.23 1.532.657.373.426.562 1.075.562 2 0 1.098-.174 1.888-.531 2.312s-.88.625-1.531.625c-.634 0-1.132-.223-1.5-.656s-.563-1.134-.563-2.125c0-1 .192-1.723.563-2.157s.857-.656 1.468-.656m42.032 0c.638 0 1.127.23 1.5.657.372.426.562 1.075.562 2 0 1.098-.174 1.888-.531 2.312s-.848.625-1.5.625c-.634 0-1.132-.223-1.5-.656s-.563-1.134-.563-2.125c0-1 .192-1.723.563-2.157s.857-.656 1.469-.656m42.375 0c.639 0 1.127.23 1.5.657.373.426.563 1.075.563 2 0 1.098-.174 1.888-.532 2.312-.357.424-.847.625-1.5.625-.634 0-1.162-.223-1.531-.656-.368-.433-.531-1.134-.531-2.125 0-1 .192-1.723.562-2.157s.857-.656 1.469-.656"/></g></svg>