<svg xmlns="http://www.w3.org/2000/svg" viewBox="0 0 1071 635" fill="none"><path fill="#FFFBFB" fill-rule="evenodd" d="M0 79v555.801l.5.001c70.983 0 134.722-31.009 178.412-80.22C222.607 603.908 286.422 635 357.5 635c71.03 0 134.808-31.051 178.5-80.319C579.692 603.949 643.47 635 714.5 635s134.808-31.051 178.5-80.319c43.59 49.153 107.17 80.174 178 80.319V79.198C1027.34 30.58 963.99 0 893.5 0 822.47 0 758.692 31.05 715 80.319 671.308 31.05 607.53 0 536.5 0c-70.843 0-134.472 30.887-178.154 79.93C314.663 30.887 251.035 0 180.192 0 109.021 0 45.132 31.173 1.433 80.61Q.72 79.804 0 79" clip-rule="evenodd"/><path fill="#F7EAEA" fill-rule="evenodd" d="M14.209 96.396C54.283 49.632 113.777 20 180.192 20c66.05 0 125.255 29.307 165.321 75.627a239 239 0 0 0-11.715 17.136C297.395 68.343 242.103 40 180.192 40c-62.32 0-117.932 28.719-154.324 73.643a239 239 0 0 0-11.66-17.247M1.433 80.61C45.133 31.173 109.022 0 180.192 0c70.843 0 134.471 30.887 178.154 79.93C402.028 30.887 465.657 0 536.5 0h.692c70.843 0 134.471 30.887 178.154 79.93C759.028 30.887 822.657 0 893.5 0c70.49 0 133.84 30.58 177.5 79.198v31.853C1031.34 55.908 966.612 20 893.5 20c-66.05 0-125.255 29.307-165.321 75.627a239 239 0 0 1 11.715 17.136C776.297 68.343 831.588 40 893.5 40c77.646 0 144.88 44.582 177.5 109.544v28.457c-120.444.269-218 97.991-218 218.499s97.556 218.23 218 218.499V635c-70.83-.146-134.41-31.166-178-80.319C849.308 603.949 785.53 635 714.5 635S579.692 603.949 536 554.681C492.308 603.949 428.53 635 357.5 635c-71.078 0-134.893-31.092-178.588-80.418-43.69 49.211-107.43 80.22-178.412 80.22l-.5-.001v-20l.5.001c66.21 0 125.543-29.45 165.612-75.964l.117.156a239 239 0 0 1-11.799-17.351C118.031 566.289 62.595 594.802.5 594.802l-.5-.001v-20l.5.001c58.732 0 110.84-28.366 143.369-72.145-3.485-7-6.636-14.194-9.432-21.564C106.331 525.396 56.85 554.802.5 554.802l-.5-.001v-20l.5.001c55.642 0 103.62-32.812 125.642-80.142-4.665-18.616-7.142-38.099-7.142-58.16 0-20.154 2.5-39.724 7.206-58.417C104.214 290.678 56.196 257.802.5 257.802l-.5.001v-20l.5-.001c56.413 0 105.942 29.471 134.031 73.857a237 237 0 0 1 9.457-21.553C111.466 246.236 59.304 217.802.5 217.802H0v-20h.5c62.175 0 117.673 28.585 154.069 73.33a239 239 0 0 1 11.702-17.182C126.199 207.329 66.798 177.802.5 177.802H0v-28.456a198 198 0 0 1 4.01 8.481c7.496.108 14.908.562 22.222 1.347A218 218 0 0 0 0 110.853V79q.72.803 1.433 1.61M739.5 113.245a239 239 0 0 0-11.691-17.189c-16.01 18.606-28.94 39.939-37.998 63.206a241 241 0 0 1 22.185-1.249 198.5 198.5 0 0 1 27.504-44.768m10.572 18.979a238 238 0 0 1 9.444 21.559 158 158 0 0 0-4.544 7.637 239 239 0 0 0-21.218-2.654 178.5 178.5 0 0 1 16.318-26.542m9.876 20.88a237 237 0 0 0-9.463-21.435C783.039 88.16 834.981 60 893.5 60c69.896 0 130.41 40.174 159.71 98.691a239 239 0 0 0-21.27 2.575C1004.83 112.78 952.996 80 893.5 80c-56.093 0-105.38 29.138-133.552 73.104m-723.54-20.4a237 237 0 0 1 9.414 21.691C73.851 109.709 123.552 80 180.192 80c56.093 0 105.38 29.138 133.551 73.104a238 238 0 0 1 9.463-21.435C290.653 88.16 238.711 60 180.192 60 121.21 60 68.909 88.608 36.408 132.704m261.508 32.799C273.481 126.181 229.894 100 180.192 100c-49.857 0-93.56 26.344-117.952 65.87 45.862 12.257 86.279 37.841 116.848 72.35a239.8 239.8 0 0 1 44.413-39.047C212.8 187.395 197.359 180 180.192 180c-17.514 0-33.231 7.696-43.952 19.892a238 238 0 0 0-17.105-10.735C133.526 171.371 155.531 160 180.192 160c24.356 0 46.122 11.093 60.521 28.502a238 238 0 0 1 18.189-9.231C240.925 155.42 212.359 140 180.192 140c-32.427 0-61.193 15.669-79.142 39.848a237 237 0 0 0-18.994-7.79C103.368 140.642 139.37 120 180.192 120c40.611 0 76.452 20.43 97.804 51.573a237 237 0 0 1 19.92-6.07M873 396.5c0-109.462 88.601-198.23 198-198.499v20c-98.353.269-178 80.083-178 178.499s79.647 178.23 178 178.499v20c-109.399-.269-198-89.037-198-198.499m40 0c0-87.37 70.693-158.23 158-158.499v20c-76.261.269-138 62.174-138 138.499s61.739 138.23 138 138.499v20c-87.307-.269-158-71.129-158-158.499m40 0c0-65.279 52.78-118.23 118-118.499v20c-54.17.269-98 44.266-98 98.499s43.83 98.23 98 98.499v20c-65.22-.269-118-53.22-118-118.499m40 0c0-43.188 34.88-78.229 78-78.498v20c-32.08.269-58 26.356-58 58.498s25.92 58.229 58 58.498v20c-43.12-.269-78-35.31-78-78.498M536.5 20c-92.726 0-171.961 57.76-203.689 139.262a241 241 0 0 1 22.185-1.249C385.872 88.488 455.524 40 536.5 40c62.135 0 117.602 28.549 154 73.245a239 239 0 0 1 11.692-17.189C662.121 49.488 602.754 20 536.5 20M376.754 158.766a239 239 0 0 1 21.218 2.654C425.055 112.85 476.941 80 536.5 80c56.381 0 105.887 29.438 133.984 73.783a237 237 0 0 1 9.445-21.559C647.403 88.4 595.268 60 536.5 60c-69.926 0-130.461 40.208-159.746 98.766m41.787 7.117a236 236 0 0 1 19.824 6.175C459.676 140.642 495.678 120 536.5 120c40.698 0 76.603 20.516 97.939 51.77a237 237 0 0 1 19.881-6.113C629.904 126.249 586.267 100 536.5 100c-49.862 0-93.57 26.349-117.959 65.883m592.779-.226C986.904 126.249 943.267 100 893.5 100c-49.862 0-93.57 26.349-117.959 65.883a236 236 0 0 1 19.824 6.175C816.676 140.642 852.678 120 893.5 120c40.698 0 76.603 20.516 97.939 51.77a237 237 0 0 1 19.881-6.113m-38.933 13.849C954.421 155.521 925.773 140 893.5 140c-32.426 0-61.193 15.669-79.142 39.848a238 238 0 0 1 18.085 9.309C846.835 171.371 868.839 160 893.5 160c24.481 0 46.344 11.206 60.74 28.768a238 238 0 0 1 18.147-9.262m-35.314 19.959C926.362 187.517 910.809 180 893.5 180c-17.514 0-33.23 7.696-43.952 19.892A239.8 239.8 0 0 1 893 238.319a240 240 0 0 1 44.073-38.854m-321.686-19.959C597.421 155.521 568.773 140 536.5 140c-32.426 0-61.193 15.669-79.142 39.848a238 238 0 0 1 18.085 9.309C489.835 171.371 511.839 160 536.5 160c24.481 0 46.344 11.206 60.74 28.768a238 238 0 0 1 18.147-9.262m-35.314 19.959C569.362 187.517 553.809 180 536.5 180c-17.514 0-33.23 7.696-43.952 19.892A239.8 239.8 0 0 1 536 238.319a240 240 0 0 1 44.073-38.854M576 396.5C576 517.174 478.174 615 357.5 615S139 517.174 139 396.5 236.826 178 357.5 178 576 275.826 576 396.5m20 0c0 20.108-2.488 39.634-7.174 58.288C610.833 502.156 658.831 535 714.5 535s103.667-32.844 125.674-80.212C835.488 436.134 833 416.608 833 396.5s2.488-39.634 7.174-58.288C818.167 290.844 770.169 258 714.5 258s-103.667 32.844-125.674 80.212c4.686 18.654 7.174 38.18 7.174 58.288m0 0c0-65.446 53.054-118.5 118.5-118.5S833 331.054 833 396.5 779.946 515 714.5 515 596 461.946 596 396.5m-24.929 106.276a237 237 0 0 0 9.445-21.559C608.613 525.562 658.119 555 714.5 555s105.887-29.438 133.984-73.783a237 237 0 0 0 9.445 21.559C825.403 546.6 773.268 575 714.5 575s-110.903-28.4-143.429-72.224M714.5 595c62.135 0 117.602-28.549 154-73.245a239 239 0 0 0 11.692 17.189h-.001C840.121 585.512 780.754 615 714.5 615s-125.621-29.488-165.691-76.056a239 239 0 0 0 11.691-17.189C596.898 566.451 652.365 595 714.5 595m165.691-340.944a239 239 0 0 0-11.692 17.189C832.102 226.549 776.635 198 714.5 198s-117.602 28.549-154 73.245a239 239 0 0 0-11.691-17.189C588.879 207.488 648.246 178 714.5 178s125.621 29.488 165.691 76.056M714.5 218c58.768 0 110.903 28.4 143.429 72.224a237 237 0 0 0-9.445 21.559C820.387 267.438 770.881 238 714.5 238s-105.887 29.438-133.984 73.783a237 237 0 0 0-9.445-21.559C603.597 246.4 655.732 218 714.5 218M536 396.5c0 98.583-79.917 178.5-178.5 178.5S179 495.083 179 396.5 258.917 218 357.5 218 536 297.917 536 396.5m20 0C556 506.129 467.129 595 357.5 595S159 506.129 159 396.5 247.871 198 357.5 198 556 286.871 556 396.5M357.5 535c76.491 0 138.5-62.009 138.5-138.5S433.991 258 357.5 258 219 320.009 219 396.5 281.009 535 357.5 535m0 20c87.537 0 158.5-70.963 158.5-158.5S445.037 238 357.5 238 199 308.963 199 396.5 269.963 555 357.5 555M456 396.5c0 54.4-44.1 98.5-98.5 98.5S259 450.9 259 396.5s44.1-98.5 98.5-98.5 98.5 44.1 98.5 98.5m20 0c0 65.446-53.054 118.5-118.5 118.5S239 461.946 239 396.5 292.054 278 357.5 278 476 331.054 476 396.5M357.5 455c32.309 0 58.5-26.191 58.5-58.5S389.809 338 357.5 338 299 364.191 299 396.5s26.191 58.5 58.5 58.5m0 20c43.354 0 78.5-35.146 78.5-78.5S400.854 318 357.5 318 279 353.146 279 396.5s35.146 78.5 78.5 78.5m357 20c54.4 0 98.5-44.1 98.5-98.5S768.9 298 714.5 298 616 342.1 616 396.5s44.1 98.5 98.5 98.5m58.5-98.5c0 32.309-26.191 58.5-58.5 58.5S656 428.809 656 396.5s26.191-58.5 58.5-58.5 58.5 26.191 58.5 58.5m20 0c0 43.354-35.146 78.5-78.5 78.5S636 439.854 636 396.5s35.146-78.5 78.5-78.5 78.5 35.146 78.5 78.5M.5 514.802l-.5-.001v-20l.5.001c54.4 0 98.5-44.1 98.5-98.5s-44.1-98.5-98.5-98.5l-.5.001v-20l.5-.001c65.446 0 118.5 53.054 118.5 118.5S65.946 514.802.5 514.802m0-40L0 474.8v-20l.5.002c32.309 0 58.5-26.192 58.5-58.5s-26.191-58.5-58.5-58.5l-.5.002v-20.001l.5-.001c43.354 0 78.5 35.145 78.5 78.5s-35.146 78.5-78.5 78.5" clip-rule="evenodd"/></svg>