<svg xmlns="http://www.w3.org/2000/svg" xml:space="preserve" style="fill-rule:evenodd;clip-rule:evenodd;stroke-linejoin:round;stroke-miterlimit:2" viewBox="0 0 800 500"><path d="M769.651 396.952c-6.636-16.017-14.636-31.276-23.243-46.165-111.545 61.407-178.576 100.885-267.014 158.232.134.185.269.37.353.589C577.971 470.4 651.419 444.581 772.8 405.794c-1.128-2.914-1.937-5.962-3.149-8.842m-342.704 67.84c41.381-97.752 73.516-167.984 128.809-283.15-.927-.387-1.752-.876-2.644-1.263-19.251-7.966-39.411-14.046-60.009-18.964-28.817 124.025-45.474 199.073-66.88 303.158.219.101.489.168.724.219m-53.136-.219c-21.407-104.085-38.064-179.133-66.897-303.158-20.615 4.918-40.775 10.998-60.009 18.964-.909.37-1.751.876-2.644 1.263 55.293 115.166 87.427 185.415 128.808 283.15a4 4 0 0 0 .742-.219m69.557 7.292c59.739-87.309 105.904-149.625 184.388-250.341-1.87-1.313-3.621-2.829-5.524-4.109-15.916-10.661-32.893-19.773-50.308-28.11-55.393 114.628-87.663 184.708-129.229 282.19.219.118.454.252.673.37m14.619 10.173c75.621-73.684 133.558-125.625 230.99-208.118-11.891-12.278-25.044-24.741-35.234-33.095-3.789-3.116-7.932-5.81-11.84-8.791-78.45 100.261-124.665 162.425-184.488 249.499.185.168.387.336.572.505m28.127 43.907c104.505-19.469 181.238-30.551 307.755-45.322-.488-2.88-.926-5.777-1.498-8.623-3.403-17.229-8.304-33.886-13.862-50.257C657.263 460.463 584 486.181 485.912 525.322c.067.202.134.438.202.623m-15.849-31.174c88.556-57.466 155.655-97.062 267.369-158.636-1.752-2.729-3.183-5.642-5.002-8.337-7.31-10.897-15.091-21.406-23.428-31.512-2.459-2.998-5.356-6.315-8.421-9.718-97.415 82.274-155.368 134.08-230.989 207.647.134.151.32.353.471.556M30.349 396.935c-1.195 2.88-2.037 5.928-3.166 8.842 121.398 38.804 194.813 64.606 293.053 103.831.101-.235.236-.421.337-.623-88.438-57.33-155.436-96.825-267.015-158.231-8.573 14.905-16.573 30.164-23.209 46.181m283.739 128.353c-98.105-39.141-171.351-64.859-292.597-103.579-5.575 16.388-10.476 33.045-13.878 50.274-.573 2.846-.994 5.76-1.482 8.623 126.534 14.771 203.25 25.87 307.755 45.339zm28.514-43.739c-59.823-87.09-106.038-149.271-184.505-249.515-3.908 2.981-8.051 5.675-11.84 8.791-10.19 8.371-23.343 20.834-35.217 33.095 97.415 82.493 155.368 134.434 230.973 208.118.185-.185.387-.337.589-.489m-12.396 12.666c-75.638-73.567-133.574-125.356-230.989-207.663-3.065 3.419-5.979 6.736-8.438 9.734a401 401 0 0 0-23.411 31.512c-1.802 2.678-3.267 5.591-5.002 8.337 111.731 61.591 178.83 101.17 267.369 158.636.151-.186.32-.371.471-.556m151.057 93.473c40.303 3.84 78.299 10.493 110.232 20.16 105.768 31.933 194.054 49.483 196.648 39.108a371 371 0 0 0 4.228-18.88c3.402-17.23 5.625-34.897 6.736-52.851-126.804-9.987-203.587-13.979-310.332-15.191-1.061 9.785-3.52 19.115-7.512 27.654M.859 575.225c1.112 17.954 3.335 35.621 6.737 52.851a428 428 0 0 0 4.244 18.897c2.594 10.374 90.897-7.209 196.648-39.108 31.95-9.667 69.929-16.337 110.232-20.16-3.992-8.556-6.451-17.886-7.545-27.671-106.746 1.212-183.512 5.221-310.316 15.191m795.587-77.962c-126.484 14.771-203.031 25.819-307.385 45.272.017.236.051.438.067.657 106.897 1.229 183.849 5.237 310.67 15.191.05-2.796.202-5.558.202-8.354 0-17.886-1.28-35.486-3.554-52.766m-485.507 45.305c-104.354-19.469-180.901-30.517-307.385-45.271C1.28 514.577 0 532.143 0 550.063c0 2.796.152 5.575.202 8.354 126.821-9.988 203.773-13.979 310.67-15.192.016-.236.05-.471.067-.657m46.366-71.056c-41.566-97.499-73.836-167.579-129.229-282.19-17.432 8.303-34.392 17.432-50.308 28.093-1.92 1.28-3.637 2.796-5.541 4.109 78.518 100.716 124.666 163.049 184.405 250.341.219-.118.454-.236.673-.353m33.314-10.341c.269-.034.522-.051.792-.085-.169-106.206-.304-182.905-.506-309.911 7.276-.017 10.931-.017 18.207 0-.203 126.989-.337 203.705-.523 309.911.27.034.523.051.792.085 21.086-104.186 37.541-179.302 65.987-303.512 5.508 1.095 8.927 1.785 13.457 2.695-3.621-.826-7.107-1.971-10.779-2.695a402.7 402.7 0 0 0-78.063-7.613c-26.711 0-52.817 2.611-78.063 7.613-3.638.707-7.124 1.869-10.745 2.695 4.547-.91 7.949-1.6 13.457-2.695 28.463 124.21 44.901 199.326 65.987 303.512m81.65 81.869c-.387-3.924-.993-7.747-1.953-11.469-.219-.859-.505-1.651-.775-2.476-1.145-3.79-2.493-7.444-4.21-10.931-.354-.791-.826-1.516-1.213-2.273-1.87-3.487-3.941-6.805-6.35-9.954-.522-.674-1.077-1.297-1.633-1.954a70 70 0 0 0-8.253-8.589c-.64-.556-1.297-1.078-1.954-1.617-3.099-2.526-6.349-4.8-9.835-6.804-.725-.421-1.482-.809-2.24-1.213a74 74 0 0 0-11.082-4.699c-.792-.269-1.6-.505-2.409-.758-3.857-1.111-7.764-1.886-11.84-2.391a64 64 0 0 0-2.509-.253c-2.021-.168-3.975-.606-6.047-.606s-4.025.438-6.046.606c-.842.067-1.684.152-2.509.253-4.076.488-8 1.263-11.84 2.391-.809.253-1.617.489-2.409.758a75 75 0 0 0-11.082 4.699q-1.125.582-2.223 1.213a74 74 0 0 0-9.853 6.804 43 43 0 0 0-1.953 1.617c-2.998 2.627-5.71 5.49-8.253 8.589-.539.657-1.112 1.28-1.617 1.954-2.392 3.149-4.463 6.467-6.333 9.954-.404.757-.842 1.482-1.229 2.273-1.718 3.487-3.065 7.158-4.211 10.914-.252.825-.555 1.65-.774 2.493-.977 3.722-1.567 7.528-1.954 11.469-.084.876-.219 1.735-.269 2.627-.085 1.482-.438 2.88-.438 4.379 0 3.369.555 6.602.993 9.836 1.297 9.516 4.379 18.375 8.977 26.358 12.632 21.878 35.992 36.783 63.057 36.783s50.425-14.905 63.023-36.783c4.598-8 7.68-16.842 8.977-26.358.421-3.234.977-6.467.977-9.836 0-1.499-.354-2.913-.438-4.395-.034-.876-.185-1.752-.27-2.611" style="fill:#eecfcf;fill-rule:nonzero" transform="translate(0 -150.046)"/></svg>