<svg xmlns="http://www.w3.org/2000/svg" xml:space="preserve" style="fill-rule:evenodd;clip-rule:evenodd;stroke-linejoin:round;stroke-miterlimit:2" viewBox="0 0 138 229.5"><path d="M348.689 392.898h45.985v3.045h-45.985z" style="fill:#4f1f2c" transform="translate(-302.968 -331.667)"/><path d="M348.689 376.875h45.985v13.658h-45.985z" style="fill:#4f1f2c" transform="translate(-302.968 -310.234)"/><path d="M389.646 379.54h-5.247v9.175h5.247zm-10.181 0h-5.248v9.175h5.248zm-10.182 0h-5.248v9.175h5.248zm-10.181 9.175h-5.247v-9.175h5.247z" style="fill:#fff;fill-rule:nonzero" transform="translate(-302.968 -311.081)"/><path d="M340.053 359.892h63.256v3.045h-63.256z" style="fill:#4f1f2c" transform="translate(-302.968 -265.655)"/><path d="M340.053 343.869h63.256v13.657h-63.256z" style="fill:#4f1f2c" transform="translate(-302.968 -244.221)"/><path d="M393.716 346.938h-6.441v9.175h6.441zm-12.497 0h-6.441v9.175h6.441zm-12.497 0h-6.441v9.175h6.441zm-12.496 9.175h-6.441v-9.175h6.441z" style="fill:#fff;fill-rule:nonzero" transform="translate(-302.968 -245.877)"/><path d="M333.422 326.885h76.518v3.046h-76.518z" style="fill:#4f1f2c" transform="translate(-302.968 -199.642)"/><path d="M333.422 308.862h76.518v15.658h-76.518z" style="fill:#4f1f2c" transform="translate(-302.968 -176.208)"/><path d="M395.731 312.104h-7.032v9.175h7.032zm-13.643 0h-7.032v9.175h7.032zm-13.644 0h-7.032v9.175h7.032zm-13.643 9.175h-7.032v-9.175h7.032z" style="fill:#fff;fill-rule:nonzero" transform="translate(-302.968 -176.209)"/><path d="M328.875 291.879h85.613v3.046h-85.613z" style="fill:#4f1f2c" transform="translate(-302.968 -129.63)"/><path d="M328.875 273.856h85.613v15.658h-85.613z" style="fill:#4f1f2c" transform="translate(-302.968 -106.196)"/><path d="M402.829 276.535h-9.113v9.737h9.113zm-17.682 0h-9.113v9.737h9.113zm-17.681 0h-9.113v9.737h9.113zm-17.681 9.737h-9.113v-9.737h9.113z" style="fill:#fff;fill-rule:nonzero" transform="translate(-302.968 -105.633)"/><path d="M346.83 390.532h49.702v2.366H346.83z" style="fill:#7f1d1d" transform="translate(-302.968 -326.256)"/><path d="M338.195 357.526h66.973v2.366h-66.973z" style="fill:#7f1d1d" transform="translate(-302.968 -260.244)"/><path d="M331.563 324.52h80.235v2.365h-80.235z" style="fill:#7f1d1d" transform="translate(-302.968 -194.231)"/><path d="M327.017 289.514h89.33v2.365h-89.33z" style="fill:#7f1d1d" transform="translate(-302.968 -124.219)"/><path d="M0 11.107V0z" style="fill:#4f1f2c;fill-rule:nonzero" transform="translate(25.907 208.988)"/><path d="M-42.944-17.892h85.887V0h-85.887z" style="fill:#4f1f2c;fill-rule:nonzero" transform="translate(68.714 220.095)"/><path d="M366.687 235.362h9.989v14.541h-9.989z" style="fill:#20180f" transform="matrix(-1 0 0 1 440.395 -28.091)"/><path d="M0-4.321 3 0h42.944v-.001V0h42.944l3-4.321z" style="fill:#20180f;fill-rule:nonzero" transform="translate(22.77 202.203)"/><path d="M0 11.107V0z" style="fill:#4f1f2c;fill-rule:nonzero" transform="translate(111.657 208.988)"/><path d="M0-19.335S-12.925-2.134-33.567-3.31A9.5 9.5 0 0 0-26.366 0h60.139c2.767 0 5.4-1.21 7.202-3.31C20.332-2.134 7.408-19.335 7.408-19.335z" style="fill:#7f1d1d;fill-rule:nonzero" transform="translate(65.01 57.004)"/><path d="M0 19.335h24.752C17.788 15.06 13.057 0 13.057 0h-1.363S6.963 15.06 0 19.335" style="fill:#7f1d1d;fill-rule:nonzero" transform="translate(56.338 37.67)"/><path d="M12.91-24.01h4.617l18.516 42.093-3.12 3.402z" style="fill:#20180f;fill-rule:nonzero" transform="scale(1 -1)rotate(-66.255 3.106 -64.222)"/><path d="M18.075-31.917h4.616l25.46 57.907-3.121 3.402z" style="fill:#20180f;fill-rule:nonzero" transform="scale(1 -1)rotate(-66.267 -17.85 -74.103)"/><path d="M22.03-37.984h4.617l30.81 70.041-3.12 3.402z" style="fill:#20180f;fill-rule:nonzero" transform="scale(1 -1)rotate(-66.255 -39.839 -85.531)"/><path d="M24.754-42.15h4.616l34.458 78.373-3.121 3.402z" style="fill:#20180f;fill-rule:nonzero" transform="scale(1 -1)rotate(-66.267 -64.36 -99.546)"/><path d="M325.737 259.292h91.888v4.853h-91.888z" style="fill:#20180f" transform="translate(-302.968 -66.263)"/><path d="M0-9.711h-58.797s-5.89 5.481-15.678 7.223A11.13 11.13 0 0 0-67.462 0H8.665c2.554 0 5.029-.878 7.012-2.488C5.889-4.23 0-9.711 0-9.711" style="fill:#7f1d1d;fill-rule:nonzero" transform="translate(98.112 90.01)"/><path d="M0 9.711h40.395C36.466 5.969 32.138 0 32.138 0H8.257S3.929 5.969 0 9.711" style="fill:#7f1d1d;fill-rule:nonzero" transform="translate(48.516 80.3)"/><path d="M0 1.619h48.278L48.99 0H-.712z" style="fill:#20180f;fill-rule:nonzero" transform="translate(44.575 57.005)"/><path d="M0 1.619h65.549L66.261 0H-.712z" style="fill:#20180f;fill-rule:nonzero" transform="translate(35.939 90.011)"/><path d="M0-9.712h-76.068s-5.89 5.481-15.678 7.223l1.391.852A11.13 11.13 0 0 0-84.546 0H8.478c2.049 0 4.06-.567 5.808-1.637l1.391-.852C5.889-4.231 0-9.712 0-9.712" style="fill:#7f1d1d;fill-rule:nonzero" transform="translate(106.748 123.017)"/><path d="M0 9.711h48.1C43.421 5.969 39.458 0 39.458 0H8.641S4.678 5.969 0 9.711" style="fill:#7f1d1d;fill-rule:nonzero" transform="translate(44.664 113.306)"/><path d="M0-9.711h-89.33s-5.89 5.481-15.678 7.223l1.391.852A11.1 11.1 0 0 0-97.809 0H8.478c2.049 0 4.06-.566 5.808-1.636l1.391-.852C5.889-4.23 0-9.711 0-9.711" style="fill:#7f1d1d;fill-rule:nonzero" transform="translate(113.379 158.023)"/><path d="M0 9.711h58.797C53.078 5.969 50.233 0 50.233 0H7.563S5.718 5.969 0 9.711" style="fill:#7f1d1d;fill-rule:nonzero" transform="translate(39.315 148.307)"/><path d="M-89.33-1.6H0L-.703 0h-87.923z" style="fill:#20180f;fill-rule:nonzero" transform="matrix(-1 0 0 1 24.049 159.623)"/><path d="M0-9.711h-106.073s-5.889 5.481-15.677 7.223l1.391.852A11.1 11.1 0 0 0-114.551 0H8.479c2.05 0 4.06-.566 5.808-1.636l1.391-.852C5.89-4.23 0-9.711 0-9.711" style="fill:#7f1d1d;fill-rule:nonzero" transform="translate(121.75 193.029)"/><path d="M0 9.711h63.256C57.104 5.969 53.892 0 53.892 0H9.364S6.152 5.969 0 9.711" style="fill:#7f1d1d;fill-rule:nonzero" transform="translate(37.085 183.318)"/><path d="M325.737 262.545h91.888v1.6h-91.888z" style="fill:#20180f" transform="matrix(-1 0 0 1 440.394 -69.516)"/><path d="M328.875 251.999h85.75v1h-85.75z" style="fill:#20180f" transform="matrix(-1 0 0 1 440.532 -47.824)"/><path d="M349.812 237.079h1v15.42h-1z" style="fill:#20180f" transform="matrix(-1 0 0 1 397.656 -32.404)"/><path d="M392.687 237.079h1v15.42h-1z" style="fill:#20180f" transform="matrix(-1 0 0 1 483.406 -32.404)"/><path d="M342.783 381.263h57.797v-3.888h-57.797zm58.797 1h-59.797v-5.888h59.797z" style="fill:#20180f;fill-rule:nonzero" transform="translate(-302.968 -301.464)"/><path d="M334.147 348.256h75.068v-3.887h-75.068zm76.069 1h-77.068v-5.887h77.068z" style="fill:#20180f;fill-rule:nonzero" transform="translate(-302.968 -235.451)"/><path d="M327.517 313.25h88.33v-3.888h-88.33zm89.33 1h-90.33v-5.888h90.33z" style="fill:#20180f;fill-rule:nonzero" transform="translate(-302.968 -165.438)"/><path d="M0-.41a.207.207 0 0 0-.205.205c0 .227.41.227.41 0A.207.207 0 0 0 0-.41M0 1h-.034A1.21 1.21 0 0 1-1.24-.206c0-.661.544-1.206 1.206-1.206l.035.001A1.21 1.21 0 0 1 1.172-.206C1.172.443.648.982 0 1" style="fill:#20180f;fill-rule:nonzero" transform="translate(30.68 107.387)"/><path d="M0-.41a.207.207 0 0 0-.205.205c0 .226.41.227.41 0A.207.207 0 0 0 0-.41M0 1h-.034A1.21 1.21 0 0 1-1.24-.206c0-.661.544-1.206 1.206-1.206l.035.001A1.21 1.21 0 0 1 1.172-.206C1.172.443.648.982 0 1" style="fill:#20180f;fill-rule:nonzero" transform="translate(24.049 142.393)"/><path d="M0-.41a.207.207 0 0 0-.205.205c0 .227.41.227.41 0A.207.207 0 0 0 0-.41M0 1h-.034A1.21 1.21 0 0 1-1.24-.206c0-.661.544-1.206 1.206-1.206l.035.001A1.21 1.21 0 0 1 1.172-.206C1.172.443.648.982 0 1" style="fill:#20180f;fill-rule:nonzero" transform="translate(15.677 177.399)"/><path d="M0-.41a.207.207 0 0 0-.205.205c0 .227.41.227.41 0A.207.207 0 0 0 0-.41M0 1C-.664 1-1.205.46-1.205-.205c0-.664.541-1.205 1.205-1.205s1.205.541 1.205 1.205C1.205.46.664 1 0 1" style="fill:#20180f;fill-rule:nonzero" transform="translate(121.75 177.399)"/><path d="M0-.41a.207.207 0 0 0-.205.205c0 .227.41.227.41 0A.207.207 0 0 0 0-.41M0 1h-.034A1.21 1.21 0 0 1-1.24-.206c0-.661.544-1.206 1.206-1.206l.035.001A1.21 1.21 0 0 1 1.172-.206C1.172.443.648.982 0 1" style="fill:#20180f;fill-rule:nonzero" transform="translate(39.315 74.38)"/><path d="M0-.41a.207.207 0 0 0-.205.205c0 .227.41.227.41 0A.207.207 0 0 0 0-.41M0 1C-.664 1-1.205.46-1.205-.205c0-.664.541-1.205 1.205-1.205s1.205.541 1.205 1.205C1.205.46.664 1 0 1" style="fill:#20180f;fill-rule:nonzero" transform="translate(98.112 74.38)"/><path d="M0-.41a.207.207 0 0 0-.205.205c0 .227.41.227.41 0A.207.207 0 0 0 0-.41M0 1C-.664 1-1.205.46-1.205-.205c0-.664.541-1.205 1.205-1.205s1.205.541 1.205 1.205C1.205.46.664 1 0 1" style="fill:#20180f;fill-rule:nonzero" transform="translate(106.748 107.387)"/><path d="M0-.41a.207.207 0 0 0-.205.205c0 .227.41.227.41 0A.207.207 0 0 0 0-.41M0 1C-.664 1-1.205.46-1.205-.205c0-.664.541-1.205 1.205-1.205s1.205.541 1.205 1.205C1.205.46.664 1 0 1" style="fill:#20180f;fill-rule:nonzero" transform="translate(113.379 142.393)"/><path d="M319.145 278.244h105.073v-3.888H319.145zm106.073 1H318.145v-5.888h107.073z" style="fill:#20180f;fill-rule:nonzero" transform="translate(-302.968 -95.426)"/><path d="M371.181 421.534h1v35.64h-1z" style="fill:#20180f" transform="matrix(-1 0 0 1 440.394 -421.534)"/><path d="M367.977 419.505h7.408v4.059h-7.408z" style="fill:#20180f" transform="matrix(-1 0 0 1 440.394 -385.895)"/><path d="M0-2.619c-1.208 0-2.281.896-2.661 2.221L-2.774 0h5.549l-.114-.398C2.282-1.723 1.209-2.619 0-2.619" style="fill:#20180f;fill-rule:nonzero" transform="translate(68.713 33.61)"/><path d="M369.614 427.728h4.136v1h-4.136z" style="fill:#20180f" transform="matrix(-1 0 0 1 440.396 -399.282)"/><path d="M369.614 430.014h4.136v1h-4.136z" style="fill:#20180f" transform="matrix(-1 0 0 1 440.396 -403.854)"/><path d="M369.614 432.3h4.136v1h-4.136z" style="fill:#20180f" transform="matrix(-1 0 0 1 440.396 -408.426)"/><path d="M369.614 434.586h4.136v1h-4.136z" style="fill:#20180f" transform="matrix(-1 0 0 1 440.396 -412.998)"/><path d="M369.614 436.873h4.136v1h-4.136z" style="fill:#20180f" transform="matrix(-1 0 0 1 440.396 -417.572)"/><path d="M369.614 439.159h4.136v1h-4.136z" style="fill:#20180f" transform="matrix(-1 0 0 1 440.396 -422.144)"/><path d="M369.614 441.445h4.136v1h-4.136z" style="fill:#20180f" transform="matrix(-1 0 0 1 440.396 -426.716)"/><path d="M369.614 443.732h4.136v1h-4.136z" style="fill:#20180f" transform="matrix(-1 0 0 1 440.396 -431.29)"/><path d="M369.614 446.018h4.136v1h-4.136z" style="fill:#20180f" transform="matrix(-1 0 0 1 440.396 -435.862)"/><path d="M369.614 448.304h4.136v1h-4.136z" style="fill:#20180f" transform="matrix(-1 0 0 1 440.396 -440.434)"/><path d="M0 1.573h78.852L79.543 0H-.692z" style="fill:#20180f;fill-rule:nonzero" transform="translate(29.288 123.018)"/><path d="M333.422 323.197h76.518v1.323h-76.518z" style="fill:#20180f" transform="translate(-302.968 -190.543)"/><path d="M328.875 288.191h85.613v1.323h-85.613z" style="fill:#20180f" transform="translate(-302.968 -120.531)"/><path d="M323.173 231.27h97.016v5.809h-97.016z" style="fill:#20180f" transform="translate(-302.968 -11.175)"/><path d="M311.781 227.683h119.801v3.588H311.781z" style="fill:#20180f" transform="translate(-302.968 -1.78)"/></svg>