<svg xmlns="http://www.w3.org/2000/svg" width="1069" height="668" fill="none" aria-hidden="true"><g fill="#8b5cf6" stroke="#334155" stroke-miterlimit="10" stroke-opacity=".5" stroke-width="5"><path d="M877.7 483.7c-45.8-88.2-91.6-176.4-137.3-264.7m-.1 0c78.7-18.2 157.3-36.4 236-54.7M534.5 369l205.8-150M327 193c69.2 58.7 138.3 117.3 207.5 176m-256.2 53.3c16.2-76.4 32.4-152.9 48.7-229.3m207.5 176c-85.4 17.8-170.8 35.6-256.2 53.3m599.4 61.4C763.3 445.4 648.9 407.2 534.5 369"/><path d="M740.3 219c-137.8-8.7-275.6-17.3-413.3-26m649.3-28.7c-32.9 106.4-65.8 212.9-98.7 319.3M534.5 369c-18.9 99.7-37.9 199.3-56.8 299M278.3 422.3l84 245.7m515.4-184.3c3.3 61.4 6.7 122.9 10 184.3M740.3 219 755 0M327 193C387 128.7 447 64.3 507 0m469.3 164.3C967.7 109.6 959 54.8 950.3 0m26 164.3L1069 668"/></g><g fill="#8b5cf6" fill-opacity=".95" stroke="#8b5cf6" stroke-opacity=".55" stroke-width="8"><circle cx="534.5" cy="369" r="10"/><circle cx="740.3" cy="219" r="10"/><circle cx="877.7" cy="483.7" r="10"/><circle cx="976.3" cy="164.3" r="10"/><circle cx="327" cy="193" r="10"/><circle cx="278.3" cy="422.3" r="10"/></g></svg>