<svg xmlns="http://www.w3.org/2000/svg" xml:space="preserve" stroke-miterlimit="10" style="fill-rule:nonzero;clip-rule:evenodd;stroke-linecap:round;stroke-linejoin:round" viewBox="0 0 512 512"><g fill="#161420"><path d="M301.995 71.897c-13.406-4.863-38.186 7.38-52.406 11.157-14.221 3.777-19.052-1.102-19.052-1.102s16.621-11.482 16.328-18.244c-5.779-.368-13.393 5.279-13.393 5.279-2.586-4.139-6.499-6.625-12.035-7.098 0 0 1.256-9.394-1.86-14.274-6.061 3.014-8.065 23.117-8.065 23.117s-6.606-1.87-10.182-16.14-4.853-41.882-15.596-51.26c-10.746-9.377-52.48 4.018-52.48 4.018s8.071 3.746 7.072 16.334c-1 12.587-7.438 18.418-7.438 18.418s17.842-2.654 24.684 8.982c6.842 11.637-.823 25.36-.823 25.36s10.376-4.523 18.165 2.604c7.79 7.127 2.415 24.229 2.415 24.229s7.487-4.706 9.363-2.079c1.78 2.491-.433 18.071 4.711 25.371 9.77.908 21.441-8.506 24.482-8.154 3.208.372 2.711 9.2 2.711 9.2s12.367-12.979 22.373-9.611c10.006 3.369 11.069 14.637 11.069 14.637s8.3-13.348 21.794-12.991 19.805 17.255 19.805 17.255 1.989-8.454 12.522-15.42 17.714-1.716 17.714-1.716-8.472-43.005-21.878-47.872m27.035 182.809s4.69 32.031-16.176 31.86c6.237 3.446 14.728 21.403 3.255 33.003 3.264-1.86 17.134 6.181 25.617 20.307s3.676 27.138 3.676 27.138 10.306-8.021 15.193-4.008c4.887 4.012 4.646 12.889 4.646 12.889s6.251-10.155 8.65-7.945c2.401 2.21.944 12.955.944 12.955s6.25-10.155 12.179-7.198c5.932 2.958 6.962 15.506 6.962 15.506s7.676-14.956 21.875-16.2 33.262 11.299 33.262 11.299-.772-13.767 6.884-18.949c7.656-5.181 18.809-3.668 18.809-3.668s-1.457-27.943 22.059-30.614c-5.815-9.311-51.097-.621-63.576 9.916-11.745 9.917-32.637 14.768-41.054 10.008.306.491 6.296-8.444 7.974-18.292l-8.305 6.319-5.404-1.571-1.728-13.12s-6.28 16.1-8.806 16.417c-2.526.314-12.389-7.301-14.596-20.1-1.704-9.874-12.092-49.334-32.34-65.952"/><path d="M276.057 141.166s17.428 2.128 21.27 11.405c3.843 9.278-5.018 18.472-5.018 18.472s5.314-2.777 13.807 4.622c8.492 7.4 2.606 19.403 2.606 19.403s13.778-4.19 28.748 4.488c14.969 8.677 17.886 30.077 17.886 30.077s5.859-2.711 13.558 2.145c7.699 4.854 7.567 19.519 7.567 19.519s7.567-16.693 13.674-16.925c6.108-.232 12.483 6.418 12.483 6.418s8.227-17.59 19.946-23.012c11.716-5.42 36.418.532 36.418.532s-6.623-9.127.368-16.594c6.99-7.465 26.421-3.625 26.421-3.625s-6.211-12.502-1.09-18.24 20.432-4.355 20.432-4.355-26.129-16.893-48.858-11.838-46.222 34.486-56.378 36.182c.369 1.513 2.311-14.399 2.311-14.399l-18.458 15.364-11.322-20.468-2.076 12.469s-7.023-1.347-11.91-15.644c-4.888-14.3-18.138-32.554-40.055-38.656-21.914-6.105-42.33 2.66-42.33 2.66m-85.023 92.117c-14.182 9.788-23.919 35.281-30.907 50.916-6.988 15.636-14.917 17.328-14.917 17.328s1.802-22.435-4.509-26.131c-4.555 5.237-5.032 15.738-5.032 15.738-5.619.005-10.72 2.236-15.193 7.18 0 0-7.547-6.71-14.224-6.636-1.714 7.491 14.938 21.202 14.938 21.202s-6.514 5.134-21.988.116c-15.477-5.018-41.293-20.049-57.597-15.426-16.304 4.626-34.738 51.876-34.738 51.876s9.275-5.411 19.888 2.931c10.615 8.344 11.164 17.845 11.164 17.845s10.646-18.393 26.136-18.008c15.49.387 22.253 15.688 22.253 15.688s3.508-12.451 15.624-15.608 23.599 11.966 23.599 11.966 1.23-9.832 4.97-10.056c3.547-.215 15.969 11.032 26.309 10.471 7.96-8.685 8.006-25.23 10.545-27.892 2.678-2.81 10.275 2.85 10.275 2.85s-2.658-19.296 7.689-26.759c10.347-7.462 21.282-1.838 21.282-1.838s-5.962-15.68 4.223-28.203 30.025-8.54 30.025-8.54-6.166-6.849-4.745-20.881c1.42-14.032 22.805-24.746 22.805-24.746s-53.692-5.171-67.875 4.617M315.607 408.66s-10.064 26.563 8.266 30.201c-6.109 1.818-16.891 15.647-8.986 27.654-2.516-2.183-16.173 2.183-26.237 12.735s-8.265 22.559-8.265 22.559-7.548-8.733-12.579-6.185c-5.03 2.548-6.469 10.189-6.469 10.189s-3.595-9.825-6.109-8.368c-2.516 1.456-3.234 10.916-3.234 10.916s-3.595-9.825-9.344-8.369c-5.751 1.457-8.986 12.008-8.986 12.008s-3.953-14.191-16.173-17.83c-12.22-3.64-31.268 3.639-31.268 3.639s3.235-11.643-2.516-17.465c-5.751-5.823-15.813-6.55-15.813-6.55s6.469-23.651-13.656-30.2c6.829-6.914 44.924 8.733 53.909 20.013 8.458 10.617 25.877 18.557 34.143 16.01-.36.364-3.953-8.369-3.595-17.101l6.109 6.914 5.031-.365 3.953-10.916s2.516 14.918 4.673 15.647c2.156.727 12.22-4.002 16.533-14.555 3.329-8.141 19.77-40.027 40.613-50.581"/></g></svg>