<svg xmlns="http://www.w3.org/2000/svg" xml:space="preserve" stroke-miterlimit="10" style="fill-rule:nonzero;clip-rule:evenodd;stroke-linecap:round;stroke-linejoin:round" viewBox="0 0 512 512"><path fill="#161420" d="M14.688 257.407c5.898-.972 9.634-3.786 11.467-11.942 2.67-11.841 11.286-18.854 15.23-21.527l-2.129-2.943 2.855-2.061 33.215 45.901c33.038 28.009 62.367 41.2 84.768 44.42-6.044 6.047-14.683 9.21-14.683 9.21l49.464 45.691 7.827-3.659-42.038-67.552 11.449-4.874-20.697-36.423-13.404 7.615-3.355-5.914 13.396-7.617-11.377-20.024 2.077-6.575 6.197 1.872 11.379 20.029 13.397-7.615 3.362 5.912-13.399 7.612 21.242 37.376 19.194-8.164 7.757 12.947 5.178-1.158-14.486-60.081s-8.768 2.935-14.897 1.926c7.112-12.649 13.749-51.327 18.271-86.85l-4.224-20.365c-7.983-2.634-18.976 0-24.086 3.731-5.668 4.143-10.285 5.229-18.47 1.159-5.751-2.858-12.956-2.425-20.918 3.419 7.428-10.321 13.101-12.673 20.863-10.614 5.782 1.53 10.345.492 15.359-6.202 7.283-9.704 18.014-12.577 22.71-13.399l-.739-3.552 3.445-.718 9.723 46.886c16.368 30.734 34.737 61.266 54.286 71.434-4.431 2.398-11.571 4.068-17.584 4.496l5.256 65.087 7.765 5.613-1.68-27.008 6.816-6.046 7.7 5.442.195 26.865 9.346-6.373.555-87.111s-12.878 2.862-21.05.938c19.323-21.159 43.915-70.06 56.982-133.92V26.805c-7.277-4.203-18.584-3.853-24.34-1.237-6.394 2.904-11.136 3.028-18.323-2.619-5.045-3.964-12.19-5.006-21.172-.9 9.368-8.597 15.401-9.748 22.585-6.157 5.347 2.673 10.021 2.582 16.296-2.95 9.1-8.025 20.191-8.66 24.954-8.51V.805h3.518v62.126c13.467 65.183 28.922 115.087 50.535 139.459-12.16-.171-22.191-2.907-22.191-2.907l-10.612 90.781 14.413 4.978 28.003-70.742c-5.812-1.662-9.131-4.327-13.938-6.73 17.488-8.517 41.247-32.52 61.136-61.849l10.368-27.75c-5.349-6.484-16.057-10.111-22.37-9.676-7.005.485-11.488-1.06-16.246-8.861-3.336-5.484-9.668-8.958-19.523-8.253 11.787-4.778 17.841-3.746 23.314 2.136 4.076 4.374 8.488 5.927 16.303 2.938 11.33-4.332 21.944-1.048 26.352.762l1.27-3.401 3.296 1.229-19.464 52.097c-3.922 35.743-.617 66.86 11.509 87.068-7.474 0-10.096.477-17.786-4.327l-37.97 79.31 7.631 3.69 8.828-4.226 8.828 4.607-31.574 54.514 7.296 3.347 13.687-16.031 12.032 5.191-3.681 20.716 5.929 2.735 17.937-61.255-15.958-5.624c19.847-10.14 46.318-31.765 71.918-63.775l11.403-26.181c-4.996-6.756-15.499-10.949-21.823-10.853-7.018.114-11.418-1.667-15.75-9.712-3.044-5.652-9.176-9.458-19.057-9.282 12.023-4.143 18.014-2.79 23.166 3.376 3.837 4.584 8.162 6.367 16.124 3.798 11.543-3.718 21.965.127 26.272 2.168l1.452-3.329 3.225 1.405-22.357 51.33c-5.115 37.182-2.873 69.756 6.464 92.326l-17.96-7.555-20.697 46.544-28.183 14.052 24.066 8.483 19.981-8.483 19.057 9.207c-29.707 24.363-34.369 51.103-47.055 88.225-64.721-14.364-97.882-21.811-142.539-21.811-38.029 0-99.825 0-146.103 24.405-17.073-43.651-29.751-74.815-61.548-108.138l16.313-7.436 15.549 6.621 55.242-25.851-37.249-2.539-40.161-32.929c-2.88 3.738-7.485 7.485-15.548 11.226 5.543-13.454-3.379-47.49-17.963-86.86l-16.808-23.226c-8.361.864-17.314 7.776-20.443 13.267-3.48 6.106-7.247 8.984-16.373 8.623-6.417-.254-12.819 3.091-17.685 11.686 2.546-12.461 6.757-16.928 14.688-18.232"/><path fill="#de682f" d="m322.269 281.133 1.911-59.041c0-8.629-6.992-15.624-15.626-15.624s-15.626 6.995-15.626 15.624v59.041z"/><path fill="#e29940" d="m248.315 415.227-10.041-20.275a9.24 9.24 0 0 0-12.383-4.182c-4.576 2.263-6.443 7.806-4.177 12.382l10.042 20.275z"/><path fill="#de682f" d="m371.499 424.057 9.134-20.7c2.062-4.667-.051-10.119-4.724-12.18-4.666-2.061-10.121.054-12.18 4.724l-9.137 20.695zM236.55 276.984l-5.652-40.254a9.23 9.23 0 0 0-10.747-7.425c-5.02.915-8.346 5.727-7.433 10.749l8.978 39.821zm141.76 26.225 21.346-44.794c2.575-5.634.109-12.281-5.533-14.861-5.634-2.577-12.281-.101-14.861 5.535l-18.748 45.86zm69.824 84.237 11.055-25.751c2.259-5.768-.575-12.271-6.349-14.534-5.769-2.261-12.269.58-14.532 6.352l-8.403 26.679zm-38.224 94.859 16.261-35.284c3.309-7.978-.471-17.117-8.444-20.423-7.975-3.311-17.119.477-20.423 8.445l-14.495 36.017z"/><path fill="#e29940" d="m199.179 482.841-17.384-34.749c-3.56-7.864-.073-17.123 7.788-20.68 7.866-3.565 17.127-.077 20.684 7.789l15.645 35.535zm-35.056-131.555-22.798-21.572c-4.555-4.189-11.641-3.909-15.844.654a11.2 11.2 0 0 0 .651 15.841l21.815 17.503zm181.807-24.133c2.025-4.68 7.465-6.837 12.15-4.817 4.685 2.027 6.842 7.464 4.817 12.146l-13.018 30.143c-5.523-2.657-11.315-4.835-17.306-6.547zm-95.567 7.329c-2.027-4.682.128-10.119 4.815-12.146a9.25 9.25 0 0 1 12.149 4.817l12.567 29.105a107.6 107.6 0 0 0-17.788 5.417zm47.048 19.523v-33.632a9.24 9.24 0 0 1 9.24-9.238 9.236 9.236 0 0 1 9.238 9.238v34.34c-4.359-.531-8.79-.84-13.293-.84-1.735 0-3.461.055-5.185.132"/><path fill="#de682f" d="M272.111 486.456c-3.36-10.9-5.297-23.656-5.297-37.307 0-40.207 16.772-63.121 37.467-63.121 20.7 0 37.475 22.914 37.475 63.121 0 13.783-1.973 26.669-5.398 37.641a274 274 0 0 0-33.581-2.071c-10.368 0-20.596.604-30.666 1.737"/><path d="M306.659 239.805h-13.731v-2.741h13.731v-30.471a16 16 0 0 1 1.895-.125c.285 0 .563.023.848.042v30.554h14.293l-.088 2.741h-14.205v18.849h13.596l-.091 2.743h-13.505v19.736h-2.743v-19.736h-13.731v-2.743h13.731zm96.51 216.845-12.479-5.172 1.025-2.544 12.507 5.188 11.703-28.133c.604.168 1.208.36 1.802.609.262.106.511.239.762.361l-11.737 28.213 13.148 5.45-1.144 2.494-13.056-5.418-8.108 19.497-2.533-1.053zm-214.341-28.851c.252-.13.496-.273.755-.387a15 15 0 0 1 1.781-.671l12.536 27.778 12.401-5.618 1.104 2.509-12.38 5.608 8.686 19.246-2.497 1.125-8.688-19.246-12.798 5.8-1.229-2.452 12.901-5.844zm177.411-146.851 1.037-2.538 7.996 3.635 7.804-17.161-8.662-3.936 1.037-2.54 8.758 3.982 8.745-19.235c.391.127.788.223 1.169.399.472.215.887.498 1.312.767l-8.73 19.202 8.642 3.93-1.177 2.476-8.6-3.909-7.804 17.158 8.294 3.77-1.18 2.476-8.247-3.749-6.29 13.835-2.489-1.152 6.282-13.819zm77.112 86.832-8.504-3.277.824-2.616 8.665 3.334 7.104-18.452c.467.119.938.213 1.4.392.415.163.775.396 1.159.599l-7.104 18.441 8.89 3.425-1.084 2.52-8.791-3.383-5.94 15.434-2.549-1.013zm-318.746-36.248c.28-.394.539-.801.876-1.164.298-.33.641-.581.972-.864l14.621 13.304 6.52-7.162 1.991 1.88-6.484 7.13 13.573 12.352-2.212 1.698-13.207-12.022-6.132 6.741-2.146-1.722 6.251-6.865zm97.926-81.315-7.216 1.343-.604-2.673 7.32-1.361-3.314-17.809c.464-.166.931-.322 1.434-.412.422-.081.842-.086 1.257-.104l3.316 17.822 7.426-1.382.384 2.715-7.307 1.361 2.564 13.775 6.687-1.247.381 2.717-6.57 1.224 2.23 11.97-2.689.524-2.232-11.991-6.596 1.223-.604-2.67 6.697-1.247z"/><path fill="#de682f" d="M318.245 485.178c-1.21-.07-2.421-.117-3.637-.166.479.018.967.013 1.449.033.734.039 1.462.088 2.188.133m-26.271-.216c-1.009.044-2.02.078-3.026.133.754-.039 1.511-.081 2.263-.115.254-.007.511-.005.763-.018m13.832-.194c-1.012-.011-2.017-.049-3.029-.049.807 0 1.608.028 2.414.031zm-3.029-.049c-.723 0-1.441.028-2.165.031l.358-.008c.602-.005 1.201-.023 1.807-.023"/><path d="M288.948 485.095c-.656.031-1.307.057-1.963.095v-.002c.654-.039 1.307-.062 1.963-.093m31.333.204c-.677-.046-1.356-.08-2.036-.121.68.041 1.359.067 2.036.111z"/><path d="M276.949 452.642c1.636.251 3.306.425 5.012.425 1.716 0 3.383-.166 5.024-.42v9.572h-10.036zm0 12.069h10.036v4.415h-10.036zm14.262-12.977c3.55-1.055 6.832-2.722 9.759-4.835v15.32h-9.759zm0 12.977h9.759v4.415h-9.759zm13.98-17.931a32.5 32.5 0 0 0 10.866 5.18v10.259h-10.866zm0 17.931h10.866v4.415h-10.866zm15.09-11.932c1.345.171 2.706.285 4.096.285a32.6 32.6 0 0 0 6.059-.583v9.738h-10.155zm0 11.932h10.155v4.415h-10.155zm-47.553-2.492h-5.289c.075.838.153 1.667.244 2.492h5.045v4.415h-4.478c.125.84.268 1.667.408 2.492h4.07v14.77c1.4-.155 2.808-.303 4.221-.435v-14.335h10.036v13.57c.654-.039 1.307-.062 1.963-.093.754-.039 1.511-.081 2.263-.115v-13.362h9.759v13.124c.602-.005 1.201-.023 1.807-.023.807 0 1.608.028 2.414.031v-13.132h10.866v13.427c.734.039 1.462.088 2.188.133.68.041 1.359.067 2.036.111v-13.671h10.155v14.495c1.413.148 2.818.317 4.224.485v-14.98h5.253c.137-.825.287-1.652.412-2.492h-5.665v-4.415h6.227c.094-.82.166-1.66.242-2.492h-6.469v-10.84a32.4 32.4 0 0 0 7.078-3.363q-.01-1.76-.068-3.469a30 30 0 0 1-7.01 3.757v-13.256h3.653l-5.556-19.264-5.473 19.264h3.152v14.503a29.3 29.3 0 0 1-6.059.636c-1.395 0-2.753-.128-4.096-.314v-14.825h3.65l-5.553-19.264-5.476 19.264h3.155v13.951c-4.055-1.182-7.731-3.225-10.866-5.891v-8.06h3.651l-5.551-19.264-5.476 19.264h3.155v8.216a29.7 29.7 0 0 1-9.759 5.424v-13.64h3.653l-5.553-19.264-5.476 19.264h3.15v14.687c-1.631.28-3.305.452-5.024.452-1.712 0-3.381-.182-5.012-.467v-14.672h3.648l-5.554-19.264-5.473 19.264h3.158v13.64a29.4 29.4 0 0 1-5.875-2.683 125 125 0 0 0-.039 3.144v.138c1.875.99 3.845 1.823 5.914 2.432z"/></svg>