<svg xmlns="http://www.w3.org/2000/svg" xml:space="preserve" stroke-miterlimit="10" style="fill-rule:nonzero;clip-rule:evenodd;stroke-linecap:round;stroke-linejoin:round" viewBox="0 0 1024 120.495"><clipPath id="a"><path d="M0 0h1024v120.495H0z"/></clipPath><g clip-path="url(#a)"><path fill="#161420" d="M1009.39 111.789c-.64-.215-1.5-.391-2.51-.538.66-1.607 1.27-3.39 1.79-5.315.94-3.465 1.49-6.707 1.45-9.336-2.06 1.606-4.09 4.596-5.1 8.337a17.6 17.6 0 0 0-.59 6.033c-.81-.068-1.69-.121-2.62-.167.31-.88.62-1.787.9-2.742.75-2.498 1.28-4.852 1.45-7.015-2.01.718-4.181 2.892-5.079 5.935a10.1 10.1 0 0 0-.387 3.71 198 198 0 0 0-3.767-.052c1.183-7.213 2.604-15.89 4.007-24.542a15.5 15.5 0 0 0 13.466-9.329l10.51 1.577 1.09-7.26-10.39-1.56c-.44-6.123-4.42-11.252-9.91-13.355.86-5.587 1.4-9.368 1.4-10.01l-7.343-.129c-.051.736-.549 4.132-1.337 9.208-5.823.652-10.657 4.53-12.703 9.803l-8.67-1.3-1.089 7.261 8.799 1.32c.6 5.528 4.106 10.171 8.958 12.395-1.405 8.67-2.883 17.72-4.237 25.971-1.511.024-3.072.055-4.67.092.178-2.167.364-4.516.639-6.997.509-4.62 1.227-8.775 1.539-12.069-2.396 2.231-4.745 6.493-5.305 11.654a21.2 21.2 0 0 0 .488 7.478q-1.569.04-3.177.086c1.082-13.876.841-41.746-18.805-40.516-19.885 1.242-17.999 28.5-15.97 41.429-2.106.027-4.178.042-6.205.042a19 19 0 0 0-.138-3.772c-.441-3.146-1.561-5.877-2.992-7.693-.876 2.141-1.201 5.074-.76 8.22a19.5 19.5 0 0 0 .764 3.234q-1.323-.011-2.613-.031c.244-2.887.044-6.257-.81-9.743-1.348-5.54-4.026-10.063-6.602-12.64.497 3.636 1.654 8.34 2.923 13.537.781 3.191 1.512 6.155 2.248 8.8-.198-.004-.404-.006-.602-.013-.893-.022-1.765-.007-2.654-.02l-4.519-29.93h13.459l.411-11.42-14.282 1.631-4.899-14.686-8.158 1.631 2.45 14.686-13.054.817 1.631 11.421 11.423-2.448 3.95 28.32c-2.198.044-4.404.075-6.578.154a13.6 13.6 0 0 0 .85-4.626c.022-2.714-.687-5.162-1.838-6.876-1.179 1.697-1.93 4.131-1.952 6.845a13.5 13.5 0 0 0 .813 4.753c-.81.033-1.61.077-2.415.115a21.3 21.3 0 0 0 .18-5.002c-.27-3.359-1.241-6.325-2.571-8.345-.991 2.207-1.476 5.289-1.206 8.648a21.3 21.3 0 0 0 .947 4.824c-1.054.055-2.126.09-3.175.149-.121-13.577-2.343-48.255-22.089-43.647-19.916 4.648-11.744 34.676-8.007 45.709-1.291.087-2.562.155-3.847.235.035-1.316-.048-2.699-.366-4.135-.771-3.501-2.508-6.364-4.378-7.963-.299 2.457-.042 5.518.676 8.778.274 1.24.61 2.4.975 3.508-1.087.064-2.176.123-3.256.178l-1.381-14.495-6.888.101c.418-4.737.916-9.023.98-12.371-2.227 2.463-4.304 6.854-4.758 12.053-.011.127-.009.25-.018.375l-1.752.027 1.013-15.685s-4.734-.138-10.519-.36c.661-2.187.296-4.608-1.427-6.295q-.049-.046-.097-.094a6 6 0 0 0-1.699-1.142c.103-2.586.013-5.247-.165-7.857l5.061.173-.549-5.306h-4.883l-.057-6.587-4.573.731-.156 5.855h-5.7l-.182 4.758 5.75.196-.07 2.639c-.18 1.927-.316 3.86-.301 5.752a6 6 0 0 0-1.016.792l-.097.095c-1.596 1.56-2.027 3.728-1.57 5.767-4.259-.232-8.751-.746-8.751-.746l2.768 17.716-2.691.039c-.071-.331-.112-.65-.194-.986-.972-4.015-2.56-7.458-4.303-9.71-.518 2.799-.353 6.586.622 10.602.013.05.03.096.043.149l-.461.007a27 27 0 0 0-.373-1.695c-1.333-5.226-3.991-9.445-6.538-11.784.492 3.447 1.622 7.858 2.867 12.723l.209.81-5.002.073 1.283 13.465a477 477 0 0 1-5.54-.336c.007-2.171-.074-4.586-.103-7.177-.039-3.605.035-6.894-.16-9.612-1.972 1.827-3.684 5.447-3.629 9.654.024 2.689.766 5.115 1.822 6.986-1.069-.077-2.138-.147-3.21-.231l3.825-65.782 26.111-1.223 3.26-12.646-31.815 3.263.812-19.582-14.685 1.631 3.262 17.134-32.634 3.263 4.079 9.79 28.555-4.08v67.405c-.718-.073-1.438-.139-2.154-.213.549-1.711.778-3.77.486-5.937-.461-3.491-2.148-6.36-4.001-7.847-.3 2.382-.169 5.25.244 8.348a43 43 0 0 0 1.001 5.181 361 361 0 0 1-5.46-.652l-.722-47.111-10.884 1.236c-.52-3.52-3.324-6.367-7.06-6.367-3.75 0-7.344 3.297-7.171 7.17.013.274.07.536.11.801l-10.89 1.239 7.838 40.248a424 424 0 0 0-7.581-.187c.094-.305.217-.595.279-.92.474-2.478-.193-4.832-1.416-6.241-1.109 1.525-1.904 3.409-2.308 5.532a16 16 0 0 0-.219 1.583q-1.87-.018-3.788-.022a27.3 27.3 0 0 0 1.228-4.898c.582-3.759.384-7.254-.402-9.794-1.515 2.184-2.762 5.458-3.342 9.217-.298 1.927-.384 3.778-.298 5.473q-2.535.003-5.129.026l11.878-30.631-6.273-.896c.567-3.048-1.141-6.593-5.15-6.593-3.36 0-5.094 2.502-5.237 5.109l-6.185-.885 3.263-13.87-19.753 1.013c-.683-10.337-3.568-27.238-15.101-28.748l-1.185-7.777 7.892-1.2-.408-5.303-8.288 1.234-.687-4.499-4.896 1.632.518 3.62-5.82.867.816 5.302 5.761-.875 1.043 7.304c-13.142 3.028-10.907 20.686-8.766 29.938l-14.763.758 4.896 15.5-3.155.3c-.492-2.58-2.422-4.834-5.818-4.834-3.877 0-5.849 2.944-5.941 5.957l-2.22.21 6.374 30.452c-3.074.189-5.985.376-8.692.553-.051-.895-.108-1.798-.178-2.742-.154-2.228-.325-4.292-.589-6.327-1.804.882-3.427 3.524-3.192 6.597a7.6 7.6 0 0 0 .694 2.685c-.99.066-1.956.132-2.878.196l-.402.024c.195-2.452.371-5.175.652-8.097.435-4.525 1.049-8.609 1.264-11.85-2.322 2.22-4.557 6.427-5.036 11.488-.312 3.183.127 6.167.957 8.595-1.15.072-2.307.152-3.449.217l-3.497-28.42 17.158-2.556-1.632-6.527-16.391 2.048-1.557-12.655-8.975.817 1.62 12.953-8.415 1.052.665-26.651h24.078l1.223-12.238-24.983-.49.507-20.315-13.463-1.223v21.286l-24.475-.481 3.671 13.463h20.804v60.884a598 598 0 0 1-4.279-.033c.497-2.569.619-5.72.22-9.12-.496-4.225-1.666-7.944-3.135-10.464-.846 2.792-1.124 6.681-.63 10.905.388 3.322 1.205 6.305 2.246 8.666-.736-.011-1.456-.027-2.183-.04-2.729-16.618-15.133-80.88-43.475-78.13a207 207 0 0 0-5.303-16.17l1.676-.542c1.82-.437 3.638-.955 5.275-1.706l3.726-1.205-.654-2.505a3.4 3.4 0 0 0-.307-1.175l-.688-2.632-2.852.979c-2.775.768-5.57 1.756-8.356 2.817l-4.435-13.127s-5.214 1.92-6.037 1.92c-.338 0 1.541 6.328 3.875 13.789l-10.462 3.776 2.745 4.94 9.497-3.07a2164 2164 0 0 0 5.166 16.01c-14.931 8.161-10.813 36.727-5.455 57.426a31 31 0 0 0-.74 3.8c-.569 4.431-.115 8.579.832 11.942q-2.643-.047-5.482-.077c.551-1.497.803-3.302.494-5.223-.466-2.924-2.027-5.282-3.764-6.435-.41 2.066-.386 4.474.022 7.032.268 1.669.685 3.21 1.221 4.602-1.212-.011-2.465-.02-3.721-.028 1.036-3.234 1.62-7.276 1.231-11.632-.549-6.312-2.977-11.658-5.51-14.723.384 3.989 1.223 9.223 1.734 15.054.367 4.128.518 7.966.689 11.285-1.523-.009-3.082-.013-4.658-.017.292-1.028.52-2.106.676-3.243.298-2.189.305-4.259-.018-6.189-1.741.823-3.374 2.955-3.739 5.679a8.2 8.2 0 0 0 .345 3.75c-1.482-.002-2.973-.002-4.494 0 .333-2.072.617-4.373.937-6.839.472-3.62.953-6.913 1.056-9.649-2.162 1.62-4.279 4.993-4.814 9.16-.361 2.729.028 5.289.805 7.333q-2.778.006-5.625.022c.345-1.748.514-3.711.49-5.812-.033-3.021-.43-5.78-1.219-7.963-1.501 1.741-2.61 4.677-2.571 8.005a13.4 13.4 0 0 0 1.362 5.779q-2.708.016-5.463.039c1.212-7.377 2.694-16.436 4.154-25.446a15.5 15.5 0 0 0 13.465-9.329l10.512 1.577 1.089-7.26-10.391-1.56c-.435-6.123-4.417-11.252-9.911-13.355.859-5.588 1.399-9.368 1.399-10.01l-7.34-.129c-.05.736-.548 4.132-1.337 9.208-5.822.652-10.657 4.53-12.703 9.803l-8.67-1.3-1.091 7.26 8.799 1.32c.6 5.529 4.106 10.172 8.958 12.396-1.458 8.995-2.992 18.401-4.389 26.898-.928.01-1.862.024-2.792.035.687-2.815.88-6.376.213-10.135-.879-4.993-3.065-9.142-5.314-11.522.099 3.296.76 7.533 1.581 12.183.622 3.508 1.252 6.762 1.967 9.493q-3.023.04-6.059.086c1.152-13.555 1.313-42.595-18.737-41.342-20.238 1.265-17.924 29.48-15.862 42.11q-2.826.084-5.575.174c.095-.733.138-1.491.064-2.281-.218-2.279-1.14-4.262-2.435-5.583-1.023 1.543-1.554 3.664-1.337 5.943.068.716.226 1.385.424 2.031l-2.205.079c.446-2.216.431-4.925-.311-7.718-1.028-3.901-3.199-6.984-5.353-8.569.099 2.694.749 5.988 1.688 9.538.666 2.509 1.394 4.819 2.205 6.812-1.533.057-3.032.115-4.508.174l-4.725-31.288h13.459l.411-11.422-14.28 1.632-4.898-14.686-8.159 1.631 2.45 14.686-13.054.817 1.631 11.42 11.421-2.447 4.209 30.179c-1.754.09-3.46.183-5.069.277a10 10 0 0 0 .779-2.013c.549-2.169.336-4.299-.448-5.95-1.473 1.078-2.676 2.85-3.225 5.019a9.7 9.7 0 0 0-.277 3.142c-.656.041-1.291.085-1.914.129.843-2.318 1.328-5.227 1.122-8.352-.277-4.678-2.044-8.676-4.029-10.962-.224 3.05-.009 6.934.246 11.204.197 3.014.404 5.82.722 8.248-1.398.106-2.733.211-3.937.321-.397.035-.781.064-1.176.099.094-11.217-1.039-50.943-22.092-46.031-21.206 4.948-10.571 38.66-7.35 47.585-1.375.027-2.747.051-4.108.064a10.8 10.8 0 0 0 .459-4.053c-.187-2.391-1.083-4.483-2.363-5.895-1.042 1.594-1.602 3.803-1.416 6.191.11 1.392.479 2.661 1.006 3.777a561 561 0 0 1-4.299.008l-1.51-15.858-12.434.182 1.013-15.684s-4.734-.139-10.519-.36c.661-2.187.296-4.609-1.427-6.295q-.05-.047-.097-.094c-.459-.448-.986-.782-1.537-1.052l.066-7.985 6.674.393-.548-5.122-6.086-.305.048-5.733-4.94-1.647-.406 7.116-6.912-.345.183 4.94 6.303.371c.048.007.092.02.14.027l-.087 1.567c-.251 2.336-.442 4.69-.424 6.986-.36.224-.703.486-1.017.793l-.096.094c-1.596 1.561-2.027 3.728-1.57 5.768-4.259-.233-8.751-.746-8.751-.746l2.768 17.715-15.823.233 1.306 13.72-4.955-.154c.226-2.259.279-4.828.321-7.623.05-3.159.096-6.053-.141-8.518-1.908 1.519-3.596 4.7-3.649 8.459-.057 3.144 1.052 5.904 2.501 7.651q-2.393-.074-4.958-.156l3.862-66.412 26.112-1.223 3.26-12.646-31.815 3.263.812-19.582-14.686 1.631 3.263 17.134-32.634 3.262 4.079 9.79 28.555-4.079v68.575l-5.384-.163c.672-1.284 1.107-2.827 1.168-4.516.086-2.389-.568-4.564-1.679-6.108-1.216 1.46-2.024 3.583-2.108 5.972-.059 1.693.266 3.269.848 4.6l-2.699-.079-.753-49.11-10.885 1.236c-.52-3.519-3.324-6.367-7.061-6.367-3.75 0-7.344 3.298-7.17 7.17.013.275.07.537.109.802l-10.889 1.239 8.63 44.314c-2.793-.059-5.601-.116-8.411-.167a40 40 0 0 0-.237-4.977c-.274-2.49-.683-4.775-1.335-6.798-1.594 1.353-2.782 4.13-2.433 7.217a9.3 9.3 0 0 0 1.75 4.518l-2.876-.05c-.213-1.363-.452-2.788-.702-4.281-.569-3.401-1.059-6.514-1.75-9.05-1.599 2.042-2.659 5.713-1.989 9.675.217 1.309.61 2.512 1.106 3.608-2.81-.042-5.614-.079-8.398-.108l13.384-34.513-6.272-.896c.566-3.048-1.142-6.593-5.149-6.593-3.359 0-5.096 2.503-5.236 5.109l-6.185-.885 3.265-13.87-19.753 1.013c-.683-10.337-3.568-27.238-15.101-28.748l-1.186-7.777 7.893-1.2-.408-5.303-8.288 1.234-.687-4.499-4.896 1.632.518 3.62-5.821.867.817 5.302 5.761-.876 1.043 7.305c-13.142 3.028-10.907 20.686-8.767 29.938l-14.762.757 4.896 15.5-3.155.302c-.492-2.58-2.422-4.835-5.821-4.835-3.877 0-5.848 2.944-5.938 5.954l-2.22.211 4.722 22.563c-1.095 1.533-2.109 3.384-2.979 5.463-1.001 2.404-1.646 4.731-1.908 6.81-1.005-.006-2.037-.039-3.065-.07a6.26 6.26 0 0 0 1.568-2.959c.498-2.222-.228-4.363-1.5-5.518a11.9 11.9 0 0 0-2.2 4.694 11.8 11.8 0 0 0-.219 3.702c-1.179-.055-2.376-.13-3.579-.213 1.544-1.528 2.771-4.132 2.995-7.177.23-3.074-.615-5.858-1.937-7.594-.998 1.958-1.633 4.498-1.842 7.313-.206 2.792.044 5.377.732 7.454a221 221 0 0 1-4.982-.391l-3.779-30.709 17.158-2.556-1.631-6.527-16.392 2.049-1.556-12.655-8.976.816 1.619 12.954-8.416 1.052.668-26.652h24.078l1.223-12.238-24.985-.49.507-20.314-13.463-1.223v21.285l-24.476-.48L54.6 53.668h20.805v58.059c-.995-.123-1.99-.251-2.984-.369-.149-.946-.3-1.921-.443-2.92-.582-4.069-.931-7.79-1.469-10.745-1.739 2.404-2.953 6.65-2.283 11.28.094.677.237 1.329.4 1.963-1.167-.127-2.332-.261-3.494-.375-.852-7.089-10.068-77.225-40.964-74.224l-4.35-16.273 10.188-3.234-2.378-8.416-9.858 3.983L14.455 0c-1.646 0-9.33 1.647-9.33 1.647l4.77 13.932L0 19.577l2.927 5.856 9.326-2.962 3.704 10.817c.426 1.682.832 3.37 1.298 5.037-20.256 10.655-6.159 58.181-.56 74.601-10.703 3.274-11.39 7.647-11.39 7.647 0-2.195 1017.985 2.196 1017.985 2.196s-5.12-8.053-13.9-10.98m-6.74-48.885a8.96 8.96 0 0 1 4.21 5.607l-4.98-.746c.27-1.682.52-3.305.77-4.861m-1.93 12.112 4.81.723a8.96 8.96 0 0 1-5.52 3.675c.24-1.482.48-2.95.71-4.398M491.095 62.904a8.94 8.94 0 0 1 4.209 5.607l-4.977-.746c.268-1.682.525-3.305.768-4.861m-1.927 12.112 4.812.723a8.97 8.97 0 0 1-5.519 3.675zm-396.81 38.942a8.9 8.9 0 0 0 .83-3.076c.29-3.194-1.154-6.002-2.902-7.179-.417 2.103-.663 4.382-.874 6.85-.092 1.032-.16 2.016-.22 2.988l-2.634-.351.63-25.242 9.511-1.416 3.553 28.416a736 736 0 0 1-7.893-.99Zm32.762 2.692c1.419-1.309 2.747-3.113 3.671-5.329.24-.575.402-1.148.571-1.719l1.425 6.813c-1.84.136-3.726.215-5.667.235m356.157-38.834a8.95 8.95 0 0 1-3.177-4.462l3.803.571q-.31 1.916-.626 3.89Zm-2.347-11.762a8.94 8.94 0 0 1 4.852-3.897l-.718 4.517zm46.255 45.61c.125-2.088.266-4.367.479-6.791a236 236 0 0 0 2.178 6.848c-.872-.02-1.741-.039-2.657-.057m82.964 2.549q.277-1.415.404-2.924c.178-2.042.134-3.97-.138-5.865-1.745.692-3.414 2.826-3.638 5.542a7.26 7.26 0 0 0 .496 3.341c-.654.02-1.317.046-1.969.064.424-2.509.713-5.445 1.032-8.641.382-3.858.751-7.373.718-10.223-2.097 1.882-4.064 5.496-4.49 9.849-.354 3.515.38 6.738 1.561 9.044-1.357.035-2.709.065-4.046.09l.663-26.542 9.511-1.416 3.442 27.54c-1.185.049-2.371.099-3.546.141m384.679-36.397a8.95 8.95 0 0 1-3.177-4.462l3.803.571zm-2.347-11.762a8.94 8.94 0 0 1 4.852-3.897l-.718 4.517z"/></g></svg>