<svg xmlns="http://www.w3.org/2000/svg" xml:space="preserve" stroke-miterlimit="10" style="fill-rule:nonzero;clip-rule:evenodd;stroke-linecap:round;stroke-linejoin:round" viewBox="0 0 512 179.206"><g fill="#161420"><path d="M336.836 44.266c-29.83-12.805-51.276 9.943-51.276 9.943s-1.247-10.454-21.856-13.483l-2.557-28.718-28.623 7.873 10.416 20.423c-21.167 2.056-26.412 12.035-24.439 21.333 0 0-21.419-19.084-39.357-6.773-17.937 12.309-26.303 74.103 12.253 100.084s51.296-3.201 51.296-3.201 2.948 12.905 22.725 13.253c19.774.347 24.585-15.922 24.585-15.922s18.405 16.249 44.115 4.044c32.885-15.61 32.549-96.054 2.718-108.856m-32.191 29.011s7.855 17.066-4.111 23.569c-11.966 6.502-29.54 1.546-29.54 1.546s30.097-24.889 33.651-25.115M206.63 88.571l44.48 9.962s-7.277 11.634-26.398 8.372c-19.123-3.264-18.082-18.334-18.082-18.334m87.283 43.086-11.043-6.234 2.791 13.166s-19.085 6.175-37.039.901c.913.205-5.247-12.879-5.247-12.879l-3.587 11.738s-19.508-6.878-22.5-23.431c-.234-1.293 17.143 6.766 31.057 4.447 1.733.805 10.953 6.634 10.953 6.634l2.149-7.461s34.86.282 46.704-16.292c2.368 19.335-14.238 29.411-14.238 29.411"/><path d="M501.816 71.868c-19.903-12.882-38.371-3.679-38.371-3.679s-7.049-11.93-27.129-17.165l6.614-24.43-22.338-3.236 1.104 25.418c-22.955-1.359-33.577 8.131-33.577 8.131s-22.312-5.976-36.986 2.623c-31.903 18.693-22.997 79.257.008 89.553 17.491 7.828 39.329.605 39.329.605s10.484 9.561 26.713 10.902c16.232 1.341 23.747-4.846 23.747-4.846s5.742 14.595 30.424 8.478c41.553-10.289 50.363-79.472 30.462-92.354m-48.673 22.74 8.346 12.589-25.426 3.324zm-62.165-11.107s5.854 18.805 6.747 20.055l-20.366-11.56zm49.538 59.114-7.023-13.836-13.307 9.379-6.372-13.469-11.654 9.137-8.974-14.946-10.648 8.526-4.783-24.385 8.734 11.264 11.341-5.375 5.268 13.63 14.666-10.971 5.112 15.511 12.812-11.628 9.679 12.984 25.893-11.683zm-268.7-102.874c-30.769-22.486-46.12-2.337-46.12-2.337s-6.7-8.441-23.855-10.077L102.088 0 73.942 4.814l9.155 23.468C66.79 31.494 60.17 39.886 60.17 39.886s-28.166-6.344-41.748 7.907C4.843 62.044-4.034 98.92 1.846 131.315c5.88 32.394 40.377 60.647 68.244 34.342 3.934 3.077 22.433 15.592 36.664 11.112 14.232-4.479 19.526-19.358 19.526-19.358s26.845 22.118 49.39-.479c16.804-16.84 27.95-93.946-3.854-117.19Zm-48.144 47.28c12.207-8.335 25.265-5.032 25.265-5.032l-32.635 25.885c.003.003-4.838-12.518 7.37-20.853M41.359 96.41s8.307-10.365 23.54-5.16c15.23 5.206 18.921 17.637 18.921 17.637zm78.86 42.927-3.871-6.147-3.367 6.379q-2.153.1-4.331.248l-5.066-7.594-5.125 8.567a152 152 0 0 0-4.81.704l-5.419-6.307-1.114 7.526c-17.034 3.49-30.846 8.851-30.846 8.851s2.639-12.35 13.826-22.239a6291 6291 0 0 1 10.417 4.817s-1.15-5.903-1.94-10.717a48 48 0 0 1 3.126-1.525c2.674 3.052 5.856 6.289 6.204 5.466.291-.694.947-4.583 1.51-8.158a59 59 0 0 1 8.857-1.602c7.435-.777 13.998-.228 19.745 1.108-1.152 4.021-2.685 9.804-1.709 8.969.917-.789 4.733-4.562 7.477-7.294a52 52 0 0 1 3.6 1.44l1.479 9.557 6.95-4.907c9.47 6.418 13.926 13.822 13.926 13.822s-13.3-1.241-29.519-.964"/></g></svg>