<svg xmlns="http://www.w3.org/2000/svg" xml:space="preserve" stroke-miterlimit="10" style="fill-rule:nonzero;clip-rule:evenodd;stroke-linecap:round;stroke-linejoin:round" viewBox="0 0 512 512"><clipPath id="a"><path d="M0 0h512v512H0z"/></clipPath><g clip-path="url(#a)"><path fill="#161420" d="M204.754 347.179c1.858-3.774 4.804-14.221 5.704-19.719.903-5.509 3.603-11.478 6.005-14.683 2.402-3.207 2.399-6.421 4.503-8.714 2.101-2.292 3.302-1.377 4.804 1.837 1.503 3.207 3.604 8.714 5.401 8.255 1.803-.459 3.907-4.126 4.208-7.799.298-3.67 2.7-8.255 4.202-5.045 1.499 3.211 3.001 4.13 3.603 6.884.599 2.749.9 5.501 3.302 5.501s3.299-3.667 4.202-5.963c.9-2.292 1.8-7.796 3.901-7.796 2.104 0 4.503 2.749 5.105 5.047.599 2.29.298 9.171 2.402 9.171 2.101 0 3.004-3.67 4.202-6.422 1.202-2.749 2.105-7.796 4.504-4.588 2.402 3.211 5.403 6.425 9.006 11.469s5.704 12.846 7.206 17.885c1.499 5.047 3.302 11.01 4.503 14.68s-.304 9.176-3.603 5.962c-3.302-3.211-9.605-5.962-14.409-4.585-4.807 1.374-14.711 3.67-17.715 5.044-3.001 1.375-11.107 2.749-15.011.916-3.901-1.834-8.103-4.586-11.405-3.211-3.306 1.377-6.307 4.126-9.907 4.126-3.603 0-7.206-3.205-10.508-1.368-3.305 1.827-6.905-1.381-4.205-6.884m33.753-74.665c-2.076-.398-4.15.794-6.482 1.584-2.335.797-5.184 3.564-8.036 5.546-2.849 1.977-4.923 5.938-6.997 7.921-2.076 1.979-5.445 1.979-5.187 0 .262-1.983.52-6.337 1.557-9.903 1.037-3.564 2.593-9.502 3.369-13.066.778-3.563 2.335-8.322 4.409-12.275 2.07-3.964 5.962-5.941 8.033-5.153 2.074.79 3.889 6.738 4.406 9.106.52 2.381 3.372 8.222 4.928 9.113 2.071 1.186 2.071 7.525 0 7.127m15.55-6.732c2.049-2.606 4.923-5.938 5.701-9.109.776-3.169 3.111-7.125 5.184-9.505 2.074-2.372 5.966-3.169 8.554 1.189 2.593 4.363 6.482 10.696 7.777 15.841 1.296 5.148 3.111 13.071 4.406 16.629 1.295 3.567.779 5.154 1.815 7.528 1.037 2.375-1.556 2.375-3.369 1.585-1.815-.791-5.962-3.169-8.036-6.337s-6.738-6.334-9.331-7.921c-2.594-1.584-3.631-.398-7-.787-3.369-.399-4.406-.399-5.962-.399-1.554 0-1.296-6.734.261-8.714M170 453.663c-1.767 2.947-8.836 5.306-14.136 5.896-5.3.587-10.599 8.246-15.203 13.774-3.138 3.77-6.385 9.049-7.981 14.37 6.385-1.6 8.516-7.45 12.238-11.178 3.725-3.721 33.419-19.873 40.872-19.338 7.452.523 10.8 2.025 15.425-2.931 3.581-3.837 10.177-.836 5.299 8.243-3.505 6.531-9.173 7.824-12.369 9.426-3.192 1.599-7.82 10.803-11.016 8.143-3.195-2.664-9.578-.535-11.174 3.189-1.599 3.728-5.856 9.584-6.388 13.841-.532 4.254-6.921 3.193-10.11 7.982 5.853-1.068 11.174-.532 14.899-6.386 3.727-5.853 7.981-11.18 15.969-11.18 7.978 0 18.091-4.257 23.412-10.11 5.324-5.853 17.563-17.03 26.609-21.287 9.048-4.257 18.094 0 25.547 3.199 7.446 3.189 12.767 1.593 21.816-3.199 9.049-4.786 11.177-6.382 19.691-7.446 8.516-1.071 12.773 5.853 16.498 10.645 3.725 4.786 3.193 7.446 0 10.11-3.193 2.654-7.982 5.321-6.92 10.642 1.067 5.324 5.856 11.706 11.174 12.773 5.324 1.064 11.177 6.921 13.841 9.043 2.66 2.128-3.196 5.324-4.792 10.116 3.195-2.664 9.048-4.792 12.773-6.92s1.064-6.386-4.26-9.049c-5.318-2.661-11.171-5.321-12.77-6.918-1.597-1.599-7.45-8.513-6.385-11.709 1.064-3.192 6.917-9.049 11.177-11.706 4.257-2.658 10.107-9.581 6.385-12.774-3.725-3.189-5.324-6.385-3.196-8.516 2.132-2.129 1.597-8.511 1.068-12.236-.533-3.724 0-4.256 6.385-3.195 6.385 1.067 21.111 19.809 24.027 23.649 2.919 3.835 6.993 9.116 11.076 13.911 4.081 4.795 6.994 8.158 12.826 13.436 5.831 5.279 12.822 8.152 20.402 10.074 7.58 1.916 17.489 2.879 27.402 5.284-3.5-4.323-11.664-3.843-18.077-6.722-6.412-2.883-14.57-6.237-20.402-10.077-5.832-3.837-7.577-6.713-6.99-13.436.581-6.717-4.084-8.635-12.245-13.911 9.326 1.919 18.068.955 25.645-1.444 7.58-2.399 16.328 3.84 25.653 7.203 2.916 3.354 5.829 12.95 5.248 15.832-.584 2.877 7.58 7.197 13.409 9.596 5.829 2.393 15.738 6.237 22.735 10.554-1.168-4.801-1.752-6.236-8.742-9.599-6.996-3.354-16.325-9.115-19.244-12.469-2.913-3.363-4.077-6.717-5.245-12.479 6.996 1.919 13.409 5.762 17.493 10.554 4.077 4.801 14.57 7.681 17.483 8.158 2.916.48 9.909 4.795 12.828 7.2 2.916 2.399 10.493 2.876 16.322.961-5.829-2.405-8.158-6.239-11.657-8.638-3.5-2.402-12.242-4.321-20.406-5.282-8.161-.955-9.909-5.753-13.406-9.59-3.503-3.843-13.99-5.281-19.238-9.602-5.248-4.312-6.412-5.272-6.996-9.593-.584-4.318-2.332-3.357-6.413-4.318-4.083-.955-16.902-3.357-23.902-5.759 5.829-4.317 11.089-1.991 16.921-2.946 5.829-.961 13.394.909 17.474 4.266 4.081 3.357 4.081 1.919 6.997.48 2.913-1.438 5.829 4.732 11.074 4.732 5.248 0 11.66 2.043 14.573 5.88 2.916 3.834 8.745 7.678 13.993 7.678 5.245 0 10.493 3.055 14.574 5.932 4.08 2.882 10.493 5.759 19.818 8.161-4.661-1.442-11.074-8.161-15.738-12.956 0 0-9.912-6.419-15.154-7.377-5.251-.958-8.748-5.756-11.08-8.635-2.329-2.876-7.574-6.236-12.825-7.675-5.242-1.441-16.453-6.242-19.95-8.157-3.499-1.919-7.577 0-7.577 0s-8.164-1.32-10.493-.359c-2.332.958-18.529-1.496-21.442-1.496s-9.906.477-12.242 1.441c-2.329.955-4.077 3.354-8.161 1.435-4.077-1.915-29.174-16.249-36.091-17.307-6.921-1.067-21.807-8.203-25.414-16.504-5.321-12.239-4.573-41.684-6.832-48.957-2.891-9.319-3.436-28.964-6.382-34.264s-5.3-14.13-1.767-22.379c3.534-8.24-2.201-18.839-3.968-23.552-1.766-4.71-11.189-17.079-10.599-20.618.587-3.534-1.77-10.603-4.713-15.313-2.943-4.707-.146-10.07 2.353-12.95 3.856-4.436 3.056-8.684 2.46-13.22-.599-4.543-3.086-8.772 4.023-7.395 7.106 1.371 6.82 6.379 10.064 10.636 3.242 4.254 5.078 16.367 6.763 22.075 1.684 5.704 13.351 16.659 16.778 15.644 3.42-1.01 11.228 1.9 14.68.13 3.448-1.76 4.405 3.169 4.691 5.814.283 2.648-2.441 5.19-4.257 3.241-1.815-1.946-5.208-1.687-8.972-1.815-3.759-.131-4.227 2.487-.128 3.758 4.092 1.271 4.743 4.312 8.842 5.583 4.096 1.271 10.605-1.892 11.852-5.239 1.25-3.348.654-7.882-.924-15.127-1.01-4.61-5.382-4.932-9.137-2.399-3.752 2.529-9.481 3.034-14.279-3.035-4.792-6.072-9.304-11.855-10.973-15.878-1.667-4.032-1.396-5.3 3.636-5.75 9.602-.848 13.044 2.822 24.355 3.54 10.062.629 17.529 2.8 26.593 2.91 9.061.106 19.016 6.853 25.301 9.489 4.546 1.907 10.192 3.713 10.296-4.652.1-8.361 6.874-14.801 13.223-20.995 6.346-6.2 8.316-10.679 3.15-15.969-5.166-5.288-5.509-9.949-6.756-17.508-.395-2.405-1.231-3.953-4.61-7.063-6.516-6.015-2.751-14.708-11.91-16.696-5.889-1.283-9.359-2.332-16.489-4.807-6.586-2.287-11.07-4.999-19.794.097-6.014 3.515-14.564 4.138-22.722 2.286-4.765-1.085-6.659.432-7.121 1.302-4.966 9.404-7.657 8.586-1.609 17.584 3.324 4.937 7.544 9.851 7.489 14.728-.058 4.88.636 4.886 7.608 4.969 6.969.088 9.267 5.874 17.608 10.167 4.749 2.448 9.03 1.305 7.224-4.348-3.594-11.235-3.262-17.158-8.772-22.804-1.684-1.724-2.378-.706-2.758 2.359-.377 3.062 1.621 7.185.572 9.222-1.049 2.035-3.609 2.174-7.346.764-3.74-1.411-7.814-2.825-9.824-6.267-1.998-3.436-3.321-7.203.301-10.405 3.624-3.196 6.546-5.038 9.118-6.197 2.573-1.17 4.272-.462 7.52-.93 3.25-.478 16.227-1.688 19.295-1.305 3.068.377 5.27 1.6 6.094 4.166.821 2.572 6.485 13.902 8.836 17.344 2.344 3.438 8.562 11.192 10.231 14.284 1.673 3.096 2.123 8.046.882 11.618-1.237 3.564-6.574 7.425-12.381 8.04-5.814.605-13.169 2.399-18.104 1.484-4.941-.913-10.532-3.883-17.349-4.647-6.821-.766-13.3-.845-19.925-3.14-6.629-2.302-9.323-5.407-13.379-8.526-4.056-3.123-24.221-15.605-27.958-20.333-1.484-1.882-5.124-2.87-9.277-2.636-4.148.231-6.714-1.742-3.628-3.892s8.219-22.12 20.6-29.405c5.641-3.321 11.172-3.631 14.702-4.008 3.53-.383 4.287-7.884 2.943-12.448-1.347-4.564-1.07-12.591 2.387-10.961 3.457 1.623 7.434 2.77 11.104-1.618 4.917-5.899 17.274-9.572 20.05-13.616 2.779-4.047.237-6.771-3.649-12.004-1.906-2.578-4.631-3.415-6.835-7.227-2.199-3.801-3.02-7.781-4.306-11.886-1.28-4.105-3.77-7.194-4.919-10.128-1.147-2.928-.925-7.672-1.241-11.32-.313-3.655 1.432-7.395 3.482-8.584 2.049-1.186 5.15-1.5 7.254-.833 2.101.657 7.614 3.563 10.007 4.6 2.402 1.034 10.046 3.175 11.728 3.372 1.678.204 2.693 1.414 3.296 3.257.592 1.842 1.395 9.976 1.489 12.031.095 2.056.73 3.026.317 4.744-.411 1.724-1.192 3.743-2.734 6.348-1.538 2.61-4.013 2.25-6.37 1.42-2.356-.827-3.706-3.168-5.017-5.3-1.316-2.13-1.532-3.727-.404-4.606 1.125-.894 3.898-.155 5.74-.75 1.846-.6 2.387-1.147 1.122-1.98-4.129-2.722-7.738-1.81-15.078-2.688-3.694-.438-3.889 2.332-1.818 4.962 3.639 4.628 7.467 5.358 8.349 9.636.885 4.275.973 4.707 3.968 4.095 2.998-.62 6.525 1.396 9.958 2.856 6.258 2.654 5.431 1.091 10.63-3.08.484-.387 1.192-1.74-.043-4.54-2.113-4.804-2.739-10.14-1.292-14.26 2.098-5.975-.106-8.417-2.295-12.196-2.375-4.096-3.433-6.109-4.917-9.581-2.317-5.397-7.218-2.05-11.697-5.346-2.317-1.712-3.369-2.043-4.896-2-4.807.133-7.71.474-11.584-2.077-3.874-2.548-6.395-.806-9.45 3.84-3.062 4.65-6.221 9.578-11.36 10.636-5.133 1.058-3.354 4.32-1.639 6.89 2.369 3.558 7.708 8.885 8.854 14.449 1.141 5.564 3.363 9.906 4.947 16.024 1.788 6.878 3.676 8.69 5.081 14.567.882 3.71-.681 4.844-3.238 6.26-2.557 1.424-10.755 6.155-15.252 5.501-4.497-.662-4.6 2.348-5.707 5.324-1.107 2.974-4.393 10.886-10.043 14.881-2.232 1.578-17.781 12.46-22.084 10.229-4.308-2.229-2.87-22.689 3.795-22.458 6.017.21 7.574-1.244 1.076-6.407-2.961-2.35-9.894.076-11.557 4.537-1.663 4.454-9.423 21.886-7.373 27.979 2.046 6.1.723 11.698-1.277 15.018-1.998 3.32-5.47 5.835-7.158 11.046-1.691 5.215-5.929 2.077-4.43-5.6 1.429-7.304-7.149-7.946-13.576-9.396-6.428-1.462-10.335-9.763-12.293-12.378-1.962-2.609-.666-8.669 2.429-11.737 3.089-3.077 9.861-8.529 7.562-16.933-2.229-8.167-7.632-11.268-13.163-16.73-5.537-5.466-5.005-6.226-5.16-10.897-.158-4.676-2.59-13.91-4.758-19.298-2.168-5.394-2.63-7.99-2.141-11.3.487-3.307 3.929-6.61 6.373-11.739 2.451-5.132 5.02-11.092 8.754-13.5 3.737-2.408 6.203.912 9.082 4.302 2.886 3.382 5.765 6.763 7.231 11.202 1.453 4.442.617 7.273-1.715 11.579-2.323 4.308-2.387 4.722-4.862 4.357-2.487-.368-1.706-2.789-2.046-6.215-.335-3.433-1.575-3.619-2.417-.785-.84 2.834-1.314 3.187-3.458 6.249-2.143 3.074-.547 3.724 1.937 4.095 2.478.365 7.024 1.034 8.915 2.582 1.882 1.538 4.488 1.076 4.44-1.466-.049-2.539 1.736-6.078 4.646-8.605 2.912-2.532 2.095-5.613.988-9.575-1.107-3.964 1.404-9.507 3.071-12.226 1.666-2.712.31-5.023-2.643-5.035-2.955-.012-7.254-2.344-10.502-3.238-3.25-.903-8.015-5.832-11.134-10.511-3.111-4.686-6.571 1.562-7.462 4.813-.906 3.244-4.467 7.367-5.841 10.964-1.374 3.603-5.479 8.492-7.684 11.971-2.207 3.478-6.592 7.48-10.1 11.19-3.5 3.709.434 8.51 1.541 12.481 1.107 3.968 4.148 12.02 5.482 17.286 1.335 5.263 3.828 9.94 5.017 14.689 1.113 4.436-1.362 7.361-.948 11.508.416 4.145-.794 2.244-6.057-1.292-2.205-1.487-11.339 2.664-14.872 4.427-3.533 1.77-7.656-5.89-8.833-10.012-1.176-4.126-6.479-1.177-10.012 2.356-2.463 2.46-4.832.976-8.049 1.484-3.223.508-3.305-1.919-.799-5.276 2.456-3.296 3.867-6.874 5.64-10.985 1.782-4.111 5.023-10.037 6.413-13.09 1.389-3.053 4.457-5.798 3.35-10.347-1.1-4.54-2.618-9.67-3.086-13.53-.459-3.86-1.642-9.651-1.642-13.315.006-3.661-1.049-8.59-.869-11.761.176-3.178-.384-9.922-2.983-6.979-2.6 2.938-6.13 5.476-8.034 5.063-1.903-.42-4.661.021-6.227-1.064-1.569-1.083-2.754.44-2.42 3.427.338 2.988.535 8.769-.854 11.827-1.387 3.062-2.448 5.452-1.417 8.745 1.027 3.293 1.259 7.051.717 9.259-.538 2.207.742 3.572 2.059 2.919 1.31-.657 3.858.447 5.251 1.043 1.389.605 2.368.626 1.852-2.852-.511-3.476-.694-3.96-.566-6.747.128-2.792-.566-3.093-1.438-.222-.879 2.879-.955 5.287-2.348 4.682-1.386-.599-1.334-.985-1.693-5.613-.359-4.63-.228-7.419 1.444-10.76 1.676-3.345 3.889-5.233 6.097-7.128 2.219-1.888 4.205-3.876 5.688-.383 1.496 3.49 1.652 9.654 1.904 15.051.261 5.4 1.417 9.56.997 12.63-.41 3.075-1.18 5.182-3.423 9.095-2.241 3.91-5.41 11.08-6.437 15.103-1.031 4.032-.903 4.898-4.944 7.629-4.044 2.73-6.927 4.339-10.375 9.748-1.341 2.1-3.29 4.94-5.692 5.826-2.405.893-4.409 1.362-9.684 1.13-5.276-.224-6.519-1.757-8.638-3.764-2.895-2.748-6.012-9.395-7.976-15.525-1.21-3.782-1.694-8.03-3.132-12.202-1.438-4.16-2.961-10.982-3.977-14.166-1.015-3.183-.483-8.197-4.509-9.152-4.032-.958-8.79-1.718-11.834-3.095s-8-2.87-10.539-4.698c-2.53-1.83-6.786-3.04-8.845-4.84-2.052-1.804-7.185-4.504-7.209.06-.027 4.561-1.064 10.025-2.87 12.08-1.803 2.059-3.685 5.55-5.69 6.878-1.997 1.326-1.885 3.49.457 4.588 2.338 1.095 6.507 3.75 7.52 6.93 1.018 3.183 1.836 5.631 4.934 6.05 3.098.42 5.89 2.029 6.984 3.777 1.101 1.745 3.074.9 3.667-.991.587-1.882 3.375-4.366 4.902-5.72 1.514-1.346 2.304-2.508-.514-3.63-2.816-1.128-3.296-1.155-5.13-2.703-1.827-1.548-2.59-.873-1.292 1.608 1.292 2.475 2.904 3.768 1.38 5.124-1.52 1.353-1.745 1.1-5.242-.785-3.487-1.89-5.32-3.438-6.312-7.1-.985-3.66-.535-7.236-.085-10.815.453-3.575.648-6.932 4.25-6.96 3.607-.033 8 2.874 11.944 5.264 3.95 2.396 7.748 3.098 9.554 5.126 1.803 2.022 2.651 3.995 3.585 8.614.93 4.616 3.381 11.97 5.351 15.212 1.977 3.235 4.683 4.32 1.356 9.687-2.356 3.795-3.928 7.748 1.019 9.715 4.944 1.973 8.209 6.71 11.873 10.466 3.661 3.746 10.086 6.306 15.52 5.604 5.439-.697 16.598-1.405 21.743.073 5.141 1.474 21.445 2.244 25.504 4.998 4.053 2.764 2.372 2.667.204 5.242-2.171 2.576-9.471 12.269-12.631 14.446-3.156 2.18-6.315 7.228-10.763 5.452-4.452-1.776-7.121-5.133-10.585-6.507-3.46-1.38-9.091-.185-10.769 1.149-4.215 3.357-8.097 3.074-12.293 5.698-4.2 2.628-4.598 2.178-7.514 1.591-2.913-.587-8.991-.435-12.646.118-3.654.545-5.333.45-7.315-.337-1.974-.785-3.512-3.406-6.328-5.674-2.824-2.268-6.136-4.737-7.078-7.401-.94-2.663 1.478-3.703 3.995-4.999 2.52-1.283 5.035-2.575 8.003-2.824 2.961-.253 4.591.684 6.917 2.758 2.326 2.07 2.573 2.168 1.983 3.654-.587 1.481-1.974.645-4.151.356-2.174-.298-2.469.438-.836 1.374 1.633.943 1.779 1.287 3.363 3.065 1.584 1.773 2.226.888 2.813-.599.599-1.483 1.678-4.202 2.909-5.141 1.235-.943 1.332-2.618-.246-2.965-1.584-.343-3.512-1.973-4.652-4.144-1.14-2.174-3.168-2.119-5.786-2.022-2.618.103-5.686-2.259-7.118-3.691-1.438-1.429-3.065-.934-3.506.89-.444 1.831-2.518 4.16-3.551 6.036-1.037 1.876-4.79 4.108-8.143 5.348-3.363 1.238.003 4.297 1.882 5.334s3.907 3.849 5.935 5.226c2.028 1.381 4.455 4.637 6.285 6.516 1.83 1.876 3.664 5.185 5.446 7.894 1.782 2.721 5.336.985 7.957.885 2.621-.104 8.052-.8 11.512-.858 3.46-.052 6.744-.538 9.83-.949 4.841-.653 15.759 1.892 21.254 4.169 4.406 1.821 7.376 1.703 9.73 4.646 2.356 2.95 7.069 2.95 6.582-1.018-.592-4.865 2.953-7.41 7.499-10.186 4.536-2.773 13.457-6.313 17.471-10.791 2.417-2.701 7.209-2.053 10.538 2.11 4.713 5.889 11.783 10.599 11.193 15.312-.593 4.713-14.139 8.243-17.082 12.956-2.943 4.71 4.123 6.48 5.889 10.603 1.767 4.126 3.537 10.596-1.176 13.542-5.488 3.43-1.235 8.374-2.019 15.149-.782 6.774-7.69 1.176-11.579-6.827-3.886-8.002-6.689-6.534-13.026-5.199-6.342 1.326-9.997 2.04-13.631 3.679-3.618 1.645-14.886-7.893-17.13-12.278-2.241-4.381-10.347-11.493-14.887-7.899-4.534 3.606-17.182.091-21.695-2.49-4.506-2.579-11.441-2.01-13.42 3.265-1.98 5.263-11.804 13.066-17.387 13.795-5.58.733-13.56-1.563-17.94.688-4.375 2.234-2.6 10.687-.957 14.305 1.639 3.628-.645 11.606-1.274 17.022-.62 5.427 1.18 7.692 7.796 9.83 6.625 2.137 9.8-1.618 15.698-5.06 5.89-3.442 3.044-8.583-2.846-5.138-5.886 3.448-8.133-.934-9.307-8.629-1.177-7.684.335-8.891 8.787-10.667 8.441-1.769 19.47-8.057 28.223-12.548 8.76-4.482 13.583-4.613 20.965-3.08 7.371 1.541 14.127 8.498 21.351 11.514-4.673 2.375-10.347 3.202-15.656 5.613-5.303 2.399-14.072 5.23-18.125 6.96-4.065 1.733-10.724 1.645-11.484 7.054-.76 5.416-1.177 11.764-2.609 15.939-1.435 4.166-2.8 10.867-4.892 14.425s-3.16 9.295-5.276 12.226c-2.113 2.931-5.038 10 .961 9.474 6.008-.529 13.324.171 16.243 2.284 2.928 2.116 7.75 4.165 9.745 6.625 1.98 2.469 4.816 2.056 5.966-1.158 1.161-3.208 4.126-9.009 8.188-10.737 4.059-1.73 7.176-3.101 7.352-7.218.177-4.132 1.937-7.997 4.096-9.66 2.159-1.657.809-4.141-1.751-4.685-2.545-.542-6.152-3.905-8.11-5.738-1.97-1.833-3.582-2.73-4.722 1.104-1.131 3.849-1.11 4.491-2.91 7.078-1.818 2.603-.836 3.512 2.26 1.508 3.095-2.012 4.6-4.275 6.57-2.444 1.958 1.827 1.657 2.156-.389 6.984-2.052 4.822-3.858 7.419-8.553 9.173-4.689 1.74-9.45 1.591-14.212 1.445-4.758-.155-9.18.006-9.666-4.741-.48-4.737 2.791-10.87 5.452-16.349 2.654-5.479 3.116-10.557 5.555-13.19 2.451-2.612 4.935-3.965 10.894-5.756s15.316-5.917 19.333-8.912c4.019-2.992 4.299-3.949 12.575-2.97 8.265.976 15.167 4.728 22.802-.168 5.588-3.575 10.462 9.584 17.024 17.14 1.447 1.666 1.447 5.786.271 8.143-1.867 3.725-5.154 14.729-8.687 17.669-3.533 2.946-6.48 6.482-4.123 12.369 2.356 5.893 6.482 11.779 5.306 14.136-1.183 2.356-4.713 12.363-7.07 16.489-2.353 4.123 2.946 12.953 5.89 18.258 2.946 5.3 2.356 27.679-1.767 32.982-4.123 5.296-5.883 17.52-4.704 24.592 1.174 7.066-.209 12.029-2.219 14.318-3.518 3.999-5.905 8.949-5.905 12.485 0 3.533-7.066 10.745-12.369 10.152-5.3-.586-6.48 3.537-9.092 8.292-4.272 7.76-6.917 4.257-10.645 2.132-3.724-2.132-9.581 4.387-13.302 1.194-3.728-3.195-9.578-3.195-17.566 0-7.981 3.193-6.382 7.45-10.11 12.774-3.724 5.315-9.045 3.722-16.498 1.59-7.45-2.128-10.107 7.988-14.367 13.306-4.257 5.324-8.516 5.324-14.902 3.192-6.385-2.125-11.177-5.321-16.495-4.256-5.32 1.064-11.177 3.192-17.562-.529-6.385-3.725-10.113 2.66-15.434 9.039-5.321 6.392-5.853 7.459-9.046 12.248 6.917-1.067 8.514-1.067 13.838-6.389 5.32-5.321 6.917-5.859 12.238-7.452s14.899-2.125 22.351 3.731c-4.256 0-9.045 3.192-13.837 5.321-4.786 2.125-7.45 7.449-11.707 10.642-4.26 3.189-3.724 6.385-2.128 12.773 2.128-3.73 5.321-7.984 8.514-10.648 3.195-2.66 6.385-7.978 10.642-10.107 4.26-2.131 13.305-5.324 20.758-5.856 7.45-.529 12.238-3.195 14.899-6.385 2.66-3.196 12.238-7.988 17.56-9.581 5.323-1.599 6.92.532 5.855 5.324-1.064 4.786-3.192 7.447-6.385 11.174-3.193 3.725-7.45 4.789-13.302 5.324-5.857.526-6.918 5.847-9.581 10.642-2.661 4.786-10.113 2.129-13.306 7.982 7.981-.529 14.37-1.061 18.627-5.853 4.26-4.789 10.113-6.924 13.305-6.924 3.19 0 10.642-6.382 14.367-9.042s4.257-11.71 6.92-17.034c2.661-5.321 6.383-6.917 12.239-5.321 5.853 1.6 5.853 5.856 13.834 4.26 7.988-1.593 13.841-3.725 18.095-1.593 4.26 2.125 14.358 3.916 20.223 4.254 4.287.243 5.136 1.52 3.369 4.463"/></g></svg>