<svg xmlns="http://www.w3.org/2000/svg" xml:space="preserve" stroke-miterlimit="10" style="fill-rule:nonzero;clip-rule:evenodd;stroke-linecap:round;stroke-linejoin:round" viewBox="0 0 1060 1060"><defs><linearGradient id="a" x1="0" x2="1" y1="0" y2="0" gradientTransform="translate(352.411 528.504)scale(352.185)" gradientUnits="userSpaceOnUse"><stop offset="0" stop-color="#ffbd59"/><stop offset="1" stop-color="#ff6b11"/></linearGradient><linearGradient id="b" x1="0" x2="1" y1="0" y2="0" gradientTransform="translate(441.296 674.409)scale(352.185)" gradientUnits="userSpaceOnUse"><stop offset="0" stop-color="#00d2ff"/><stop offset="1" stop-color="#2aff75"/></linearGradient><linearGradient id="c" x1="0" x2="1" y1="0" y2="0" gradientTransform="translate(261.548 674.409)scale(348.831)" gradientUnits="userSpaceOnUse"><stop offset="0" stop-color="#ff1148"/><stop offset="1" stop-color="#ee3cff"/></linearGradient></defs><path fill="url(#a)" d="M359.881 530.271c0-94.104 76.286-170.39 170.39-170.39s170.391 76.286 170.391 170.39-76.287 170.391-170.391 170.391-170.39-76.287-170.39-170.391"/><path fill="url(#b)" d="M614.537 507.561c-93.877.41-170.06 74.955-173.409 167.927 25.935 15.953 56.465 25.177 89.147 25.177 94.104 0 170.39-76.286 170.39-170.39 0-.126-.01-.251-.01-.377-25.449-14.324-54.828-22.473-86.118-22.337"/><path fill="url(#c)" d="M435.206 508.337c-26.962.118-52.465 6.361-75.206 17.389-.04 1.515-.115 3.024-.115 4.549 0 61.417 32.509 115.229 81.243 145.213 2.179-60.495 35.212-113.163 83.875-142.708-26.271-15.645-56.991-24.586-89.797-24.443"/><path fill="none" stroke="#310024" stroke-linecap="butt" stroke-linejoin="miter" stroke-width="13.33" d="M359.879 530.269c0-94.103 76.287-170.39 170.39-170.39 94.104 0 170.389 76.287 170.389 170.39 0 94.104-76.285 170.389-170.389 170.389s-170.39-76.285-170.39-170.389Zm75.325-21.934c-26.962.118-52.465 6.361-75.206 17.389-.04 1.516-.115 3.025-.115 4.549 0 61.417 32.51 115.229 81.243 145.213 2.179-60.495 35.212-113.163 83.875-142.708-26.271-15.645-56.991-24.586-89.797-24.443Zm179.331-.776c-93.877.41-170.06 74.955-173.409 167.927 25.936 15.955 56.465 25.179 89.147 25.179 94.104 0 170.392-76.288 170.392-170.392 0-.126-.01-.251-.013-.377-25.448-14.324-54.827-22.473-86.117-22.337Z"/><path fill="none" stroke="#fff" stroke-linecap="butt" stroke-opacity=".8" stroke-width="18" d="M320 521.56C320 410.242 410.242 320 521.56 320h16.88C649.758 320 740 410.242 740 521.56v16.88C740 649.758 649.758 740 538.44 740h-16.88C410.242 740 320 649.758 320 538.44z"/><path fill="none" stroke="#fff" stroke-linecap="butt" stroke-opacity=".7" stroke-width="18" d="M270 517.482C270 380.802 380.802 270 517.482 270h25.036C679.198 270 790 380.802 790 517.482v25.036C790 679.198 679.198 790 542.518 790h-25.036C380.802 790 270 679.198 270 542.518z"/><path fill="none" stroke="#fff" stroke-linecap="butt" stroke-opacity=".6" stroke-width="18" d="M220 511.786C220 350.637 350.637 220 511.786 220h36.428C709.363 220 840 350.637 840 511.786v36.428C840 709.363 709.363 840 548.214 840h-36.428C350.637 840 220 709.363 220 548.214z"/><path fill="none" stroke="#fff" stroke-linecap="butt" stroke-opacity=".5" stroke-width="18" d="M170 511.759C170 323.011 323.011 170 511.759 170h36.482C736.989 170 890 323.011 890 511.759v36.482C890 736.989 736.989 890 548.241 890h-36.482C323.011 890 170 736.989 170 548.241z"/><path fill="none" stroke="#fff" stroke-linecap="butt" stroke-opacity=".4" stroke-width="18" d="M120 520c0-220.914 179.086-400 400-400h20c220.914 0 400 179.086 400 400v20c0 220.914-179.086 400-400 400h-20c-220.914 0-400-179.086-400-400z"/><path fill="none" stroke="#fff" stroke-linecap="butt" stroke-opacity=".3" stroke-width="18" d="M70 528.537C70 275.294 275.294 70 528.537 70h2.926C784.706 70 990 275.294 990 528.537v2.926C990 784.706 784.706 990 531.463 990h-2.926C275.294 990 70 784.706 70 531.463z"/><path fill="none" stroke="#fff" stroke-linecap="butt" stroke-opacity=".2" stroke-width="18" d="M20 528.378C20 247.608 247.608 20 528.378 20h3.244C812.392 20 1040 247.608 1040 528.378v3.244C1040 812.392 812.392 1040 531.622 1040h-3.244C247.608 1040 20 812.392 20 531.622z"/></svg>