<svg xmlns="http://www.w3.org/2000/svg" fill="none" viewBox="0 0 1060 1060"><path stroke="#fff" stroke-linejoin="round" stroke-miterlimit="10" stroke-opacity=".8" stroke-width="18" d="M320 521.56C320 410.242 410.242 320 521.56 320h16.88C649.758 320 740 410.242 740 521.56v16.88C740 649.758 649.758 740 538.44 740h-16.88C410.242 740 320 649.758 320 538.44z"/><path stroke="#fff" stroke-linejoin="round" stroke-miterlimit="10" stroke-opacity=".7" stroke-width="18" d="M270 517.482C270 380.802 380.802 270 517.482 270h25.036C679.198 270 790 380.802 790 517.482v25.036C790 679.198 679.198 790 542.518 790h-25.036C380.802 790 270 679.198 270 542.518z"/><path stroke="#fff" stroke-linejoin="round" stroke-miterlimit="10" stroke-opacity=".6" stroke-width="18" d="M220 511.786C220 350.637 350.637 220 511.786 220h36.428C709.363 220 840 350.637 840 511.786v36.428C840 709.363 709.363 840 548.214 840h-36.428C350.637 840 220 709.363 220 548.214z"/><path stroke="#fff" stroke-linejoin="round" stroke-miterlimit="10" stroke-opacity=".5" stroke-width="18" d="M170 511.759C170 323.011 323.011 170 511.759 170h36.482C736.989 170 890 323.011 890 511.759v36.482C890 736.989 736.989 890 548.241 890h-36.482C323.011 890 170 736.989 170 548.241z"/><path stroke="#fff" stroke-linejoin="round" stroke-miterlimit="10" stroke-opacity=".4" stroke-width="18" d="M120 520c0-220.914 179.086-400 400-400h20c220.914 0 400 179.086 400 400v20c0 220.914-179.086 400-400 400h-20c-220.914 0-400-179.086-400-400z"/><path stroke="#fff" stroke-linejoin="round" stroke-miterlimit="10" stroke-opacity=".3" stroke-width="18" d="M70 528.537C70 275.294 275.294 70 528.537 70h2.926C784.706 70 990 275.294 990 528.537v2.926C990 784.706 784.706 990 531.463 990h-2.926C275.294 990 70 784.706 70 531.463z"/><path stroke="#fff" stroke-linejoin="round" stroke-miterlimit="10" stroke-opacity=".2" stroke-width="18" d="M20 528.378C20 247.608 247.608 20 528.378 20h3.244C812.392 20 1040 247.608 1040 528.378v3.244C1040 812.392 812.392 1040 531.622 1040h-3.244C247.608 1040 20 812.392 20 531.622z"/><g clip-path="url(#a)"><path fill="url(#b)" d="M375.957 530c0-85.076 68.967-154.043 154.043-154.043S684.043 444.924 684.043 530 615.076 684.043 530 684.043 375.957 615.076 375.957 530"/><path fill="url(#c)" d="M606.187 509.699c-84.86.369-153.727 67.673-156.753 151.613 23.443 14.403 51.041 22.731 80.584 22.731 85.066 0 154.025-68.875 154.025-153.837 0-.114-.009-.226-.009-.341-23.004-12.932-49.562-20.289-77.847-20.166"/><path fill="url(#d)" d="M443.875 510.343c-24.313.107-47.308 5.752-67.814 15.724-.036 1.37-.104 2.734-.104 4.113 0 55.534 29.314 104.192 73.257 131.304 1.965-54.701 31.751-102.324 75.63-129.039-23.688-14.147-51.389-22.231-80.969-22.102"/><path stroke="#06396A" stroke-linecap="round" stroke-linejoin="round" stroke-miterlimit="10" stroke-width="20.625" d="M449.071 661.83c-44.242-27.22-73.755-76.073-73.755-131.829 0-1.384.069-2.754.104-4.13 20.646-10.011 43.798-15.679 68.275-15.786 29.782-.13 57.671 7.987 81.52 22.19-44.178 26.822-74.166 74.635-76.144 129.555m0 0c3.04-84.403 72.201-152.077 157.426-152.449 28.406-.124 55.077 7.274 78.178 20.278.003.114.013.228.013.342 0 85.43-69.257 154.687-154.687 154.687-29.67 0-57.385-8.374-80.93-22.858m-73.759-131.833c0-85.43 69.255-154.685 154.685-154.685s154.684 69.255 154.684 154.685-69.253 154.684-154.684 154.684-154.685-69.253-154.685-154.684"/></g><defs><linearGradient id="b" x1="384.98" x2="675.02" y1="530" y2="530" gradientUnits="userSpaceOnUse"><stop stop-color="#FFBD59"/><stop offset="1" stop-color="#FF6B11"/></linearGradient><linearGradient id="c" x1="456.62" x2="761.226" y1="670.669" y2="670.669" gradientUnits="userSpaceOnUse"><stop stop-color="#00D2FF"/><stop offset="1" stop-color="#2AFF75"/></linearGradient><linearGradient id="d" x1="290.17" x2="594.775" y1="671.475" y2="671.475" gradientUnits="userSpaceOnUse"><stop stop-color="#FF1148"/><stop offset="1" stop-color="#EE3CFF"/></linearGradient><clipPath id="a"><path fill="#fff" d="M365 365h330v330H365z"/></clipPath></defs></svg>