<svg xmlns="http://www.w3.org/2000/svg" viewBox="0 0 1060 1060" fill="none"><path fill="url(#a)" d="M371 529.711C371 442.057 442.057 371 529.711 371s158.711 71.057 158.711 158.711-71.057 158.711-158.711 158.711S371 617.365 371 529.711"/><path fill="url(#b)" d="M608.207 508.795c-87.432.38-158.385 69.723-161.504 156.207 24.154 14.84 52.588 23.42 83.027 23.42 87.643 0 158.692-70.962 158.692-158.499 0-.118-.009-.233-.009-.351-23.702-13.324-51.064-20.904-80.206-20.777"/><path fill="url(#c)" d="M440.976 509.459c-25.049.109-48.742 5.926-69.869 16.2-.037 1.411-.107 2.817-.107 4.237 0 57.217 30.202 107.35 75.477 135.284 2.024-56.359 32.713-105.426 77.921-132.95-24.405-14.575-52.945-22.905-83.422-22.771"/><path stroke="#06396A" stroke-linecap="round" stroke-linejoin="round" stroke-miterlimit="10" stroke-width="20.58" d="M446.677 664.97c-45.392-27.929-75.673-78.052-75.673-135.258 0-1.42.07-2.826.107-4.237 21.182-10.272 44.936-16.087 70.05-16.197 30.557-.133 59.171 8.195 83.64 22.767-45.326 27.52-76.094 76.576-78.124 132.925m0 0c3.119-86.599 74.079-156.033 161.52-156.414 29.145-.127 56.51 7.463 80.212 20.805.004.118.013.233.013.351 0 87.652-71.058 158.71-158.71 158.71-30.442 0-58.878-8.592-83.035-23.452M371 529.708C371 442.056 442.056 371 529.708 371s158.708 71.056 158.708 158.708-71.055 158.708-158.708 158.708S371 617.361 371 529.708"/><path stroke="#fff" stroke-linejoin="round" stroke-miterlimit="10" stroke-opacity=".8" stroke-width="18" d="M320 521.56C320 410.242 410.242 320 521.56 320h16.88C649.758 320 740 410.242 740 521.56v16.88C740 649.758 649.758 740 538.44 740h-16.88C410.242 740 320 649.758 320 538.44z"/><path stroke="#fff" stroke-linejoin="round" stroke-miterlimit="10" stroke-opacity=".7" stroke-width="18" d="M270 517.482C270 380.802 380.802 270 517.482 270h25.036C679.198 270 790 380.802 790 517.482v25.036C790 679.198 679.198 790 542.518 790h-25.036C380.802 790 270 679.198 270 542.518z"/><path stroke="#fff" stroke-linejoin="round" stroke-miterlimit="10" stroke-opacity=".6" stroke-width="18" d="M220 511.786C220 350.637 350.637 220 511.786 220h36.428C709.363 220 840 350.637 840 511.786v36.428C840 709.363 709.363 840 548.214 840h-36.428C350.637 840 220 709.363 220 548.214z"/><path stroke="#fff" stroke-linejoin="round" stroke-miterlimit="10" stroke-opacity=".5" stroke-width="18" d="M170 511.759C170 323.011 323.011 170 511.759 170h36.482C736.989 170 890 323.011 890 511.759v36.482C890 736.989 736.989 890 548.241 890h-36.482C323.011 890 170 736.989 170 548.241z"/><path stroke="#fff" stroke-linejoin="round" stroke-miterlimit="10" stroke-opacity=".4" stroke-width="18" d="M120 520c0-220.914 179.086-400 400-400h20c220.914 0 400 179.086 400 400v20c0 220.914-179.086 400-400 400h-20c-220.914 0-400-179.086-400-400z"/><path stroke="#fff" stroke-linejoin="round" stroke-miterlimit="10" stroke-opacity=".3" stroke-width="18" d="M70 528.537C70 275.294 275.294 70 528.537 70h2.926C784.706 70 990 275.294 990 528.537v2.926C990 784.706 784.706 990 531.463 990h-2.926C275.294 990 70 784.706 70 531.463z"/><path stroke="#fff" stroke-linejoin="round" stroke-miterlimit="10" stroke-opacity=".2" stroke-width="18" d="M20 528.378C20 247.608 247.608 20 528.378 20h3.244C812.392 20 1040 247.608 1040 528.378v3.244C1040 812.392 812.392 1040 531.622 1040h-3.244C247.608 1040 20 812.392 20 531.622z"/><defs><linearGradient id="a" x1="379.965" x2="679.457" y1="529.711" y2="529.711" gradientUnits="userSpaceOnUse"><stop stop-color="#FFBD59"/><stop offset="1" stop-color="#FF6B11"/></linearGradient><linearGradient id="b" x1="454.439" x2="767.611" y1="674.642" y2="674.642" gradientUnits="userSpaceOnUse"><stop stop-color="#00D2FF"/><stop offset="1" stop-color="#2AFF75"/></linearGradient><linearGradient id="c" x1="282.945" x2="596.117" y1="675.473" y2="675.473" gradientUnits="userSpaceOnUse"><stop stop-color="#FF1148"/><stop offset="1" stop-color="#EE3CFF"/></linearGradient></defs></svg>