<svg xmlns="http://www.w3.org/2000/svg" fill="none" viewBox="0 0 1024 1024"><defs><linearGradient id="a" x1="62" x2="962" y1="512" y2="512" gradientUnits="userSpaceOnUse"><stop offset="0" stop-color="#ff71e7"/><stop offset="1" stop-color="#ffc469"/></linearGradient><linearGradient id="b" x1="284.3" x2="1229.5" y1="948.5" y2="948.5" gradientUnits="userSpaceOnUse"><stop offset="0" stop-color="#ff71e7"/><stop offset="1" stop-color="#ffc469"/></linearGradient><linearGradient id="c" x1="-232.2" x2="713" y1="951" y2="951" gradientUnits="userSpaceOnUse"><stop offset="0" stop-color="#ff71e7"/><stop offset="1" stop-color="#ffc469"/></linearGradient></defs><path fill="url(#a)" d="M34 512C34 248.008 248.008 34 512 34s478 214.008 478 478-214.008 478-478 478S34 775.992 34 512"/><path fill="url(#b)" d="M748.412 449.005C485.086 450.152 271.392 658.997 262 919.466 334.747 964.159 420.382 990 512.056 990 776.018 990 990 776.279 990 512.639c0-.354-.028-.702-.028-1.057-71.383-40.129-153.791-62.959-241.56-62.577"/><path fill="url(#c)" d="M244.75 451.005c-75.441.33-146.797 17.848-210.427 48.791-.112 4.25-.323 8.485-.323 12.763C34 684.882 124.962 835.871 261.32 920c6.096-169.739 98.522-317.516 234.68-400.412-73.504-43.898-159.46-68.984-251.25-68.583"/><path stroke="#c71599" stroke-miterlimit="10" stroke-width="64" d="M260.875 921.071C123.592 836.607 32.011 685.015 32.011 512.004c0-4.296.213-8.547.324-12.815 64.063-31.066 135.905-48.654 211.857-48.986 92.415-.403 178.955 24.785 252.959 68.857-137.084 83.228-230.138 231.594-236.276 402.011Zm0 0c9.434-261.904 224.043-471.899 488.496-473.053 88.145-.383 170.906 22.571 242.591 62.923.01.356.038.707.038 1.063C992 777.096 777.096 992 512.004 992c-92.068 0-178.069-25.984-251.129-70.929ZM32 511.992C32 246.9 246.9 32 511.992 32s479.989 214.9 479.989 479.992-214.895 479.989-479.989 479.989S32 777.086 32 511.992Z"/></svg>