<svg xmlns="http://www.w3.org/2000/svg" xml:space="preserve" stroke-miterlimit="10" aria-label="The website's favicon used for display purposes" style="fill-rule:nonzero;clip-rule:evenodd;stroke-linecap:round;stroke-linejoin:round" viewBox="0 0 1060.54 1060.54"><defs><linearGradient id="a" x1="0" x2="1" y1="0" y2="0" gradientTransform="translate(0 525)scale(1050)" gradientUnits="userSpaceOnUse"><stop offset="0" stop-color="#ffbd59"/><stop offset="1" stop-color="#ff6b11"/></linearGradient><linearGradient id="b" x1="0" x2="1" y1="0" y2="0" gradientTransform="translate(265 960)scale(1050)" gradientUnits="userSpaceOnUse"><stop offset="0" stop-color="#00d2ff"/><stop offset="1" stop-color="#2aff75"/></linearGradient><linearGradient id="c" x1="0" x2="1" y1="0" y2="0" gradientTransform="translate(-270.9 960)scale(1040)" gradientUnits="userSpaceOnUse"><stop offset="0" stop-color="#ff1148"/><stop offset="1" stop-color="#ee3cff"/></linearGradient></defs><path fill="url(#a)" d="M22.27 530.27c0-280.561 227.439-508 508-508s508 227.439 508 508-227.439 508-508 508-508-227.439-508-508"/><path fill="url(#b)" d="M781.5 462.562c-279.885 1.221-507.017 223.47-517 500.657 77.322 47.561 168.342 75.061 265.781 75.061 280.561 0 507.999-227.438 507.999-507.999 0-.377-.03-.748-.03-1.125-75.872-42.705-163.462-67-256.75-66.594"/><path fill="url(#c)" d="M246.844 464.875c-80.385.351-156.418 18.965-224.219 51.844-.119 4.517-.344 9.016-.344 13.562 0 183.107 96.924 343.544 242.219 432.938 6.496-180.361 104.98-337.385 250.062-425.469-78.322-46.645-169.911-73.301-267.718-72.875"/><path fill="none" stroke="#310024" stroke-linecap="butt" stroke-linejoin="miter" stroke-width="40" d="M22.264 530.264c0-280.56 227.44-508 508-508s507.996 227.44 507.996 508-227.435 507.996-507.996 507.996-508-227.435-508-507.996Zm224.574-65.395c-80.385.351-156.418 18.966-224.219 51.844-.118 4.518-.343 9.017-.343 13.563 0 183.106 96.924 343.543 242.218 432.937 6.496-180.361 104.98-337.385 250.063-425.469-78.323-46.644-169.912-73.301-267.719-72.875Zm534.656-2.312c-279.884 1.221-507.016 223.469-517 500.656 77.323 47.567 168.342 75.067 265.782 75.067 280.56 0 508.004-227.444 508.004-508.004 0-.377-.03-.748-.04-1.125-75.868-42.706-163.458-67-256.746-66.594Z"/></svg>