<svg xmlns="http://www.w3.org/2000/svg" style="fill-rule:nonzero;clip-rule:evenodd;stroke-linecap:round;stroke-linejoin:round" viewBox="0 0 1024 1024"><path fill="#87d7ff" d="M511.886 0C229.6 0 0 229.605 0 511.886 0 794.172 229.6 1024 511.886 1024c282.281 0 512.104-229.828 512.114-512.114C1024 229.606 794.172 0 511.886 0m0 141.179c204.41 0 370.708 166.297 370.708 370.707 0 21.941-17.686 39.849-39.621 39.849-21.936.001-39.621-17.908-39.621-39.849-.001-160.608-130.858-291.238-291.466-291.238-21.935.001-39.621-17.68-39.621-39.621 0-21.94 17.686-39.848 39.621-39.848" style="transform:translate(937px,137px) scale(.0673828125);animation:bubbleAnimation0 115.69151636240893s ease-in-out infinite;opacity:.85"/><path fill="#95d5ff" d="M511.886 0C229.6 0 0 229.605 0 511.886 0 794.172 229.6 1024 511.886 1024c282.281 0 512.104-229.828 512.114-512.114C1024 229.606 794.172 0 511.886 0m0 141.179c204.41 0 370.708 166.297 370.708 370.707 0 21.941-17.686 39.849-39.621 39.849-21.936.001-39.621-17.908-39.621-39.849-.001-160.608-130.858-291.238-291.466-291.238-21.935.001-39.621-17.68-39.621-39.621 0-21.94 17.686-39.848 39.621-39.848" style="transform:translate(785px,248px) scale(.0498046875);animation:bubbleAnimation1 115.2065240688253s ease-in-out infinite;opacity:.85"/><path fill="#a0d6ff" d="M511.886 0C229.6 0 0 229.605 0 511.886 0 794.172 229.6 1024 511.886 1024c282.281 0 512.104-229.828 512.114-512.114C1024 229.606 794.172 0 511.886 0m0 141.179c204.41 0 370.708 166.297 370.708 370.707 0 21.941-17.686 39.849-39.621 39.849-21.936.001-39.621-17.908-39.621-39.849-.001-160.608-130.858-291.238-291.466-291.238-21.935.001-39.621-17.68-39.621-39.621 0-21.94 17.686-39.848 39.621-39.848" style="transform:translate(44px,301px) scale(.0419921875);animation:bubbleAnimation2 128.34637797475568s ease-in-out infinite;opacity:.85"/><path fill="#9ed5ff" d="M511.886 0C229.6 0 0 229.605 0 511.886 0 794.172 229.6 1024 511.886 1024c282.281 0 512.104-229.828 512.114-512.114C1024 229.606 794.172 0 511.886 0m0 141.179c204.41 0 370.708 166.297 370.708 370.707 0 21.941-17.686 39.849-39.621 39.849-21.936.001-39.621-17.908-39.621-39.849-.001-160.608-130.858-291.238-291.466-291.238-21.935.001-39.621-17.68-39.621-39.621 0-21.94 17.686-39.848 39.621-39.848" style="transform:translate(34px,428px) scale(.0703125);animation:bubbleAnimation3 150.33420640694686s ease-in-out infinite;opacity:.85"/><path fill="#add6ff" d="M511.886 0C229.6 0 0 229.605 0 511.886 0 794.172 229.6 1024 511.886 1024c282.281 0 512.104-229.828 512.114-512.114C1024 229.606 794.172 0 511.886 0m0 141.179c204.41 0 370.708 166.297 370.708 370.707 0 21.941-17.686 39.849-39.621 39.849-21.936.001-39.621-17.908-39.621-39.849-.001-160.608-130.858-291.238-291.466-291.238-21.935.001-39.621-17.68-39.621-39.621 0-21.94 17.686-39.848 39.621-39.848" style="transform:translate(325px,722px) scale(.064453125);animation:bubbleAnimation4 135.73122740520918s ease-in-out infinite;opacity:.85"/><path fill="#9dd5ff" d="M511.886 0C229.6 0 0 229.605 0 511.886 0 794.172 229.6 1024 511.886 1024c282.281 0 512.104-229.828 512.114-512.114C1024 229.606 794.172 0 511.886 0m0 141.179c204.41 0 370.708 166.297 370.708 370.707 0 21.941-17.686 39.849-39.621 39.849-21.936.001-39.621-17.908-39.621-39.849-.001-160.608-130.858-291.238-291.466-291.238-21.935.001-39.621-17.68-39.621-39.621 0-21.94 17.686-39.848 39.621-39.848" style="transform:translate(760px,144px) scale(.0830078125);animation:bubbleAnimation5 134.35044695960568s ease-in-out infinite;opacity:.85"/><path fill="#a6d7ff" d="M511.886 0C229.6 0 0 229.605 0 511.886 0 794.172 229.6 1024 511.886 1024c282.281 0 512.104-229.828 512.114-512.114C1024 229.606 794.172 0 511.886 0m0 141.179c204.41 0 370.708 166.297 370.708 370.707 0 21.941-17.686 39.849-39.621 39.849-21.936.001-39.621-17.908-39.621-39.849-.001-160.608-130.858-291.238-291.466-291.238-21.935.001-39.621-17.68-39.621-39.621 0-21.94 17.686-39.848 39.621-39.848" style="transform:translate(202px,637px) scale(.0556640625);animation:bubbleAnimation6 153.2092938215187s ease-in-out infinite;opacity:.85"/><path fill="#8bd5ff" d="M511.886 0C229.6 0 0 229.605 0 511.886 0 794.172 229.6 1024 511.886 1024c282.281 0 512.104-229.828 512.114-512.114C1024 229.606 794.172 0 511.886 0m0 141.179c204.41 0 370.708 166.297 370.708 370.707 0 21.941-17.686 39.849-39.621 39.849-21.936.001-39.621-17.908-39.621-39.849-.001-160.608-130.858-291.238-291.466-291.238-21.935.001-39.621-17.68-39.621-39.621 0-21.94 17.686-39.848 39.621-39.848" style="transform:translate(17px,66px) scale(.052734375);animation:bubbleAnimation7 152.9656155369807s ease-in-out infinite;opacity:.85"/><path fill="#add7ff" d="M511.886 0C229.6 0 0 229.605 0 511.886 0 794.172 229.6 1024 511.886 1024c282.281 0 512.104-229.828 512.114-512.114C1024 229.606 794.172 0 511.886 0m0 141.179c204.41 0 370.708 166.297 370.708 370.707 0 21.941-17.686 39.849-39.621 39.849-21.936.001-39.621-17.908-39.621-39.849-.001-160.608-130.858-291.238-291.466-291.238-21.935.001-39.621-17.68-39.621-39.621 0-21.94 17.686-39.848 39.621-39.848" style="transform:translate(168px,863px) scale(.0654296875);animation:bubbleAnimation8 94.80503758865942s ease-in-out infinite;opacity:.85"/><path fill="#a2d5ff" d="M511.886 0C229.6 0 0 229.605 0 511.886 0 794.172 229.6 1024 511.886 1024c282.281 0 512.104-229.828 512.114-512.114C1024 229.606 794.172 0 511.886 0m0 141.179c204.41 0 370.708 166.297 370.708 370.707 0 21.941-17.686 39.849-39.621 39.849-21.936.001-39.621-17.908-39.621-39.849-.001-160.608-130.858-291.238-291.466-291.238-21.935.001-39.621-17.68-39.621-39.621 0-21.94 17.686-39.848 39.621-39.848" style="transform:translate(866px,264px) scale(.076171875);animation:bubbleAnimation9 94.53185138074568s ease-in-out infinite;opacity:.85"/><path fill="#a7d6ff" d="M511.886 0C229.6 0 0 229.605 0 511.886 0 794.172 229.6 1024 511.886 1024c282.281 0 512.104-229.828 512.114-512.114C1024 229.606 794.172 0 511.886 0m0 141.179c204.41 0 370.708 166.297 370.708 370.707 0 21.941-17.686 39.849-39.621 39.849-21.936.001-39.621-17.908-39.621-39.849-.001-160.608-130.858-291.238-291.466-291.238-21.935.001-39.621-17.68-39.621-39.621 0-21.94 17.686-39.848 39.621-39.848" style="transform:translate(291px,547px) scale(.0712890625);animation:bubbleAnimation10 137.4952324933062s ease-in-out infinite;opacity:.85"/><path fill="#85d6ff" d="M511.886 0C229.6 0 0 229.605 0 511.886 0 794.172 229.6 1024 511.886 1024c282.281 0 512.104-229.828 512.114-512.114C1024 229.606 794.172 0 511.886 0m0 141.179c204.41 0 370.708 166.297 370.708 370.707 0 21.941-17.686 39.849-39.621 39.849-21.936.001-39.621-17.908-39.621-39.849-.001-160.608-130.858-291.238-291.466-291.238-21.935.001-39.621-17.68-39.621-39.621 0-21.94 17.686-39.848 39.621-39.848" style="transform:translate(83px,779px) scale(.0546875);animation:bubbleAnimation11 152.34279476683264s ease-in-out infinite;opacity:.85"/><path fill="#96d7ff" d="M511.886 0C229.6 0 0 229.605 0 511.886 0 794.172 229.6 1024 511.886 1024c282.281 0 512.104-229.828 512.114-512.114C1024 229.606 794.172 0 511.886 0m0 141.179c204.41 0 370.708 166.297 370.708 370.707 0 21.941-17.686 39.849-39.621 39.849-21.936.001-39.621-17.908-39.621-39.849-.001-160.608-130.858-291.238-291.466-291.238-21.935.001-39.621-17.68-39.621-39.621 0-21.94 17.686-39.848 39.621-39.848" style="transform:translate(173px,484px) scale(.07421875);animation:bubbleAnimation12 121.44689669510424s ease-in-out infinite;opacity:.85"/><path fill="#a1d5ff" d="M511.886 0C229.6 0 0 229.605 0 511.886 0 794.172 229.6 1024 511.886 1024c282.281 0 512.104-229.828 512.114-512.114C1024 229.606 794.172 0 511.886 0m0 141.179c204.41 0 370.708 166.297 370.708 370.707 0 21.941-17.686 39.849-39.621 39.849-21.936.001-39.621-17.908-39.621-39.849-.001-160.608-130.858-291.238-291.466-291.238-21.935.001-39.621-17.68-39.621-39.621 0-21.94 17.686-39.848 39.621-39.848" style="transform:translate(568px,581px) scale(.056640625);animation:bubbleAnimation13 111.75353762113997s ease-in-out infinite;opacity:.85"/><path fill="#91d6ff" d="M511.886 0C229.6 0 0 229.605 0 511.886 0 794.172 229.6 1024 511.886 1024c282.281 0 512.104-229.828 512.114-512.114C1024 229.606 794.172 0 511.886 0m0 141.179c204.41 0 370.708 166.297 370.708 370.707 0 21.941-17.686 39.849-39.621 39.849-21.936.001-39.621-17.908-39.621-39.849-.001-160.608-130.858-291.238-291.466-291.238-21.935.001-39.621-17.68-39.621-39.621 0-21.94 17.686-39.848 39.621-39.848" style="transform:translate(764px,711px) scale(.0478515625);animation:bubbleAnimation14 90.82819933508159s ease-in-out infinite;opacity:.85"/><path fill="#91d5ff" d="M511.886 0C229.6 0 0 229.605 0 511.886 0 794.172 229.6 1024 511.886 1024c282.281 0 512.104-229.828 512.114-512.114C1024 229.606 794.172 0 511.886 0m0 141.179c204.41 0 370.708 166.297 370.708 370.707 0 21.941-17.686 39.849-39.621 39.849-21.936.001-39.621-17.908-39.621-39.849-.001-160.608-130.858-291.238-291.466-291.238-21.935.001-39.621-17.68-39.621-39.621 0-21.94 17.686-39.848 39.621-39.848" style="transform:translate(877px,901px) scale(.064453125);animation:bubbleAnimation15 139.21772111024165s ease-in-out infinite;opacity:.85"/><path fill="#95d6ff" d="M511.886 0C229.6 0 0 229.605 0 511.886 0 794.172 229.6 1024 511.886 1024c282.281 0 512.104-229.828 512.114-512.114C1024 229.606 794.172 0 511.886 0m0 141.179c204.41 0 370.708 166.297 370.708 370.707 0 21.941-17.686 39.849-39.621 39.849-21.936.001-39.621-17.908-39.621-39.849-.001-160.608-130.858-291.238-291.466-291.238-21.935.001-39.621-17.68-39.621-39.621 0-21.94 17.686-39.848 39.621-39.848" style="transform:translate(730px,772px) scale(.083984375);animation:bubbleAnimation16 140.03539569965048s ease-in-out infinite;opacity:.85"/><path fill="#a0d6ff" d="M511.886 0C229.6 0 0 229.605 0 511.886 0 794.172 229.6 1024 511.886 1024c282.281 0 512.104-229.828 512.114-512.114C1024 229.606 794.172 0 511.886 0m0 141.179c204.41 0 370.708 166.297 370.708 370.707 0 21.941-17.686 39.849-39.621 39.849-21.936.001-39.621-17.908-39.621-39.849-.001-160.608-130.858-291.238-291.466-291.238-21.935.001-39.621-17.68-39.621-39.621 0-21.94 17.686-39.848 39.621-39.848" style="transform:translate(368px,802px) scale(.046875);animation:bubbleAnimation17 116.76878890574376s ease-in-out infinite;opacity:.85"/><path fill="#97d7ff" d="M511.886 0C229.6 0 0 229.605 0 511.886 0 794.172 229.6 1024 511.886 1024c282.281 0 512.104-229.828 512.114-512.114C1024 229.606 794.172 0 511.886 0m0 141.179c204.41 0 370.708 166.297 370.708 370.707 0 21.941-17.686 39.849-39.621 39.849-21.936.001-39.621-17.908-39.621-39.849-.001-160.608-130.858-291.238-291.466-291.238-21.935.001-39.621-17.68-39.621-39.621 0-21.94 17.686-39.848 39.621-39.848" style="transform:translate(346px,231px) scale(.0703125);animation:bubbleAnimation18 91.96145672065713s ease-in-out infinite;opacity:.85"/><path fill="#8fd6ff" d="M511.886 0C229.6 0 0 229.605 0 511.886 0 794.172 229.6 1024 511.886 1024c282.281 0 512.104-229.828 512.114-512.114C1024 229.606 794.172 0 511.886 0m0 141.179c204.41 0 370.708 166.297 370.708 370.707 0 21.941-17.686 39.849-39.621 39.849-21.936.001-39.621-17.908-39.621-39.849-.001-160.608-130.858-291.238-291.466-291.238-21.935.001-39.621-17.68-39.621-39.621 0-21.94 17.686-39.848 39.621-39.848" style="transform:translate(547px,479px) scale(.0712890625);animation:bubbleAnimation19 151.04925164283958s ease-in-out infinite;opacity:.85"/><path fill="#87d5ff" d="M511.886 0C229.6 0 0 229.605 0 511.886 0 794.172 229.6 1024 511.886 1024c282.281 0 512.104-229.828 512.114-512.114C1024 229.606 794.172 0 511.886 0m0 141.179c204.41 0 370.708 166.297 370.708 370.707 0 21.941-17.686 39.849-39.621 39.849-21.936.001-39.621-17.908-39.621-39.849-.001-160.608-130.858-291.238-291.466-291.238-21.935.001-39.621-17.68-39.621-39.621 0-21.94 17.686-39.848 39.621-39.848" style="transform:translate(268px,667px) scale(.0654296875);animation:bubbleAnimation20 154.9607018311359s ease-in-out infinite;opacity:.85"/><path fill="#93d5ff" d="M511.886 0C229.6 0 0 229.605 0 511.886 0 794.172 229.6 1024 511.886 1024c282.281 0 512.104-229.828 512.114-512.114C1024 229.606 794.172 0 511.886 0m0 141.179c204.41 0 370.708 166.297 370.708 370.707 0 21.941-17.686 39.849-39.621 39.849-21.936.001-39.621-17.908-39.621-39.849-.001-160.608-130.858-291.238-291.466-291.238-21.935.001-39.621-17.68-39.621-39.621 0-21.94 17.686-39.848 39.621-39.848" style="transform:translate(122px,196px) scale(.072265625);animation:bubbleAnimation21 117.52046153083955s ease-in-out infinite;opacity:.85"/><path fill="#a5d5ff" d="M511.886 0C229.6 0 0 229.605 0 511.886 0 794.172 229.6 1024 511.886 1024c282.281 0 512.104-229.828 512.114-512.114C1024 229.606 794.172 0 511.886 0m0 141.179c204.41 0 370.708 166.297 370.708 370.707 0 21.941-17.686 39.849-39.621 39.849-21.936.001-39.621-17.908-39.621-39.849-.001-160.608-130.858-291.238-291.466-291.238-21.935.001-39.621-17.68-39.621-39.621 0-21.94 17.686-39.848 39.621-39.848" style="transform:translate(418px,284px) scale(.046875);animation:bubbleAnimation22 131.3973866899678s ease-in-out infinite;opacity:.85"/><path fill="#add7ff" d="M511.886 0C229.6 0 0 229.605 0 511.886 0 794.172 229.6 1024 511.886 1024c282.281 0 512.104-229.828 512.114-512.114C1024 229.606 794.172 0 511.886 0m0 141.179c204.41 0 370.708 166.297 370.708 370.707 0 21.941-17.686 39.849-39.621 39.849-21.936.001-39.621-17.908-39.621-39.849-.001-160.608-130.858-291.238-291.466-291.238-21.935.001-39.621-17.68-39.621-39.621 0-21.94 17.686-39.848 39.621-39.848" style="transform:translate(362px,881px) scale(.0673828125);animation:bubbleAnimation23 159.3037279458264s ease-in-out infinite;opacity:.85"/><path fill="#a8d5ff" d="M511.886 0C229.6 0 0 229.605 0 511.886 0 794.172 229.6 1024 511.886 1024c282.281 0 512.104-229.828 512.114-512.114C1024 229.606 794.172 0 511.886 0m0 141.179c204.41 0 370.708 166.297 370.708 370.707 0 21.941-17.686 39.849-39.621 39.849-21.936.001-39.621-17.908-39.621-39.849-.001-160.608-130.858-291.238-291.466-291.238-21.935.001-39.621-17.68-39.621-39.621 0-21.94 17.686-39.848 39.621-39.848" style="transform:translate(601px,850px) scale(.044921875);animation:bubbleAnimation24 158.1762077063133s ease-in-out infinite;opacity:.85"/><path fill="#97d7ff" d="M511.886 0C229.6 0 0 229.605 0 511.886 0 794.172 229.6 1024 511.886 1024c282.281 0 512.104-229.828 512.114-512.114C1024 229.606 794.172 0 511.886 0m0 141.179c204.41 0 370.708 166.297 370.708 370.707 0 21.941-17.686 39.849-39.621 39.849-21.936.001-39.621-17.908-39.621-39.849-.001-160.608-130.858-291.238-291.466-291.238-21.935.001-39.621-17.68-39.621-39.621 0-21.94 17.686-39.848 39.621-39.848" style="transform:translate(913px,769px) scale(.083984375);animation:bubbleAnimation25 158.6316017782769s ease-in-out infinite;opacity:.85"/><path fill="#95d5ff" d="M511.886 0C229.6 0 0 229.605 0 511.886 0 794.172 229.6 1024 511.886 1024c282.281 0 512.104-229.828 512.114-512.114C1024 229.606 794.172 0 511.886 0m0 141.179c204.41 0 370.708 166.297 370.708 370.707 0 21.941-17.686 39.849-39.621 39.849-21.936.001-39.621-17.908-39.621-39.849-.001-160.608-130.858-291.238-291.466-291.238-21.935.001-39.621-17.68-39.621-39.621 0-21.94 17.686-39.848 39.621-39.848" style="transform:translate(367px,129px) scale(.08203125);animation:bubbleAnimation26 105.6070020490066s ease-in-out infinite;opacity:.85"/><path fill="#88d5ff" d="M511.886 0C229.6 0 0 229.605 0 511.886 0 794.172 229.6 1024 511.886 1024c282.281 0 512.104-229.828 512.114-512.114C1024 229.606 794.172 0 511.886 0m0 141.179c204.41 0 370.708 166.297 370.708 370.707 0 21.941-17.686 39.849-39.621 39.849-21.936.001-39.621-17.908-39.621-39.849-.001-160.608-130.858-291.238-291.466-291.238-21.935.001-39.621-17.68-39.621-39.621 0-21.94 17.686-39.848 39.621-39.848" style="transform:translate(715px,844px) scale(.0419921875);animation:bubbleAnimation27 123.43919087289669s ease-in-out infinite;opacity:.85"/><path fill="#a3d5ff" d="M511.886 0C229.6 0 0 229.605 0 511.886 0 794.172 229.6 1024 511.886 1024c282.281 0 512.104-229.828 512.114-512.114C1024 229.606 794.172 0 511.886 0m0 141.179c204.41 0 370.708 166.297 370.708 370.707 0 21.941-17.686 39.849-39.621 39.849-21.936.001-39.621-17.908-39.621-39.849-.001-160.608-130.858-291.238-291.466-291.238-21.935.001-39.621-17.68-39.621-39.621 0-21.94 17.686-39.848 39.621-39.848" style="transform:translate(727px,325px) scale(.06640625);animation:bubbleAnimation28 128.27885428732958s ease-in-out infinite;opacity:.85"/><path fill="#afd7ff" d="M511.886 0C229.6 0 0 229.605 0 511.886 0 794.172 229.6 1024 511.886 1024c282.281 0 512.104-229.828 512.114-512.114C1024 229.606 794.172 0 511.886 0m0 141.179c204.41 0 370.708 166.297 370.708 370.707 0 21.941-17.686 39.849-39.621 39.849-21.936.001-39.621-17.908-39.621-39.849-.001-160.608-130.858-291.238-291.466-291.238-21.935.001-39.621-17.68-39.621-39.621 0-21.94 17.686-39.848 39.621-39.848" style="transform:translate(417px,478px) scale(.083984375);animation:bubbleAnimation29 111.8785279965s ease-in-out infinite;opacity:.85"/><path fill="#b3d6ff" d="M511.886 0C229.6 0 0 229.605 0 511.886 0 794.172 229.6 1024 511.886 1024c282.281 0 512.104-229.828 512.114-512.114C1024 229.606 794.172 0 511.886 0m0 141.179c204.41 0 370.708 166.297 370.708 370.707 0 21.941-17.686 39.849-39.621 39.849-21.936.001-39.621-17.908-39.621-39.849-.001-160.608-130.858-291.238-291.466-291.238-21.935.001-39.621-17.68-39.621-39.621 0-21.94 17.686-39.848 39.621-39.848" style="transform:translate(832px,676px) scale(.0869140625);animation:bubbleAnimation30 101.67758290275562s ease-in-out infinite;opacity:.85"/><path fill="#8dd6ff" d="M511.886 0C229.6 0 0 229.605 0 511.886 0 794.172 229.6 1024 511.886 1024c282.281 0 512.104-229.828 512.114-512.114C1024 229.606 794.172 0 511.886 0m0 141.179c204.41 0 370.708 166.297 370.708 370.707 0 21.941-17.686 39.849-39.621 39.849-21.936.001-39.621-17.908-39.621-39.849-.001-160.608-130.858-291.238-291.466-291.238-21.935.001-39.621-17.68-39.621-39.621 0-21.94 17.686-39.848 39.621-39.848" style="transform:translate(823px,949px) scale(.0537109375);animation:bubbleAnimation31 155.4202340278094s ease-in-out infinite;opacity:.85"/><path fill="#a9d7ff" d="M511.886 0C229.6 0 0 229.605 0 511.886 0 794.172 229.6 1024 511.886 1024c282.281 0 512.104-229.828 512.114-512.114C1024 229.606 794.172 0 511.886 0m0 141.179c204.41 0 370.708 166.297 370.708 370.707 0 21.941-17.686 39.849-39.621 39.849-21.936.001-39.621-17.908-39.621-39.849-.001-160.608-130.858-291.238-291.466-291.238-21.935.001-39.621-17.68-39.621-39.621 0-21.94 17.686-39.848 39.621-39.848" style="transform:translate(634px,454px) scale(.046875);animation:bubbleAnimation32 148.29643579952148s ease-in-out infinite;opacity:.85"/><path fill="#b2d6ff" d="M511.886 0C229.6 0 0 229.605 0 511.886 0 794.172 229.6 1024 511.886 1024c282.281 0 512.104-229.828 512.114-512.114C1024 229.606 794.172 0 511.886 0m0 141.179c204.41 0 370.708 166.297 370.708 370.707 0 21.941-17.686 39.849-39.621 39.849-21.936.001-39.621-17.908-39.621-39.849-.001-160.608-130.858-291.238-291.466-291.238-21.935.001-39.621-17.68-39.621-39.621 0-21.94 17.686-39.848 39.621-39.848" style="transform:translate(75px,663px) scale(.0419921875);animation:bubbleAnimation33 90.64632304051858s ease-in-out infinite;opacity:.85"/><path fill="#a3d7ff" d="M511.886 0C229.6 0 0 229.605 0 511.886 0 794.172 229.6 1024 511.886 1024c282.281 0 512.104-229.828 512.114-512.114C1024 229.606 794.172 0 511.886 0m0 141.179c204.41 0 370.708 166.297 370.708 370.707 0 21.941-17.686 39.849-39.621 39.849-21.936.001-39.621-17.908-39.621-39.849-.001-160.608-130.858-291.238-291.466-291.238-21.935.001-39.621-17.68-39.621-39.621 0-21.94 17.686-39.848 39.621-39.848" style="transform:translate(427px,655px) scale(.068359375);animation:bubbleAnimation34 108.1740887518755s ease-in-out infinite;opacity:.85"/><path fill="#98d5ff" d="M511.886 0C229.6 0 0 229.605 0 511.886 0 794.172 229.6 1024 511.886 1024c282.281 0 512.104-229.828 512.114-512.114C1024 229.606 794.172 0 511.886 0m0 141.179c204.41 0 370.708 166.297 370.708 370.707 0 21.941-17.686 39.849-39.621 39.849-21.936.001-39.621-17.908-39.621-39.849-.001-160.608-130.858-291.238-291.466-291.238-21.935.001-39.621-17.68-39.621-39.621 0-21.94 17.686-39.848 39.621-39.848" style="transform:translate(101px,99px) scale(.05859375);animation:bubbleAnimation35 146.5161612709216s ease-in-out infinite;opacity:.85"/><path fill="#add7ff" d="M511.886 0C229.6 0 0 229.605 0 511.886 0 794.172 229.6 1024 511.886 1024c282.281 0 512.104-229.828 512.114-512.114C1024 229.606 794.172 0 511.886 0m0 141.179c204.41 0 370.708 166.297 370.708 370.707 0 21.941-17.686 39.849-39.621 39.849-21.936.001-39.621-17.908-39.621-39.849-.001-160.608-130.858-291.238-291.466-291.238-21.935.001-39.621-17.68-39.621-39.621 0-21.94 17.686-39.848 39.621-39.848" style="transform:translate(766px,876px) scale(.05859375);animation:bubbleAnimation36 146.13060794722065s ease-in-out infinite;opacity:.85"/><path fill="#a0d5ff" d="M511.886 0C229.6 0 0 229.605 0 511.886 0 794.172 229.6 1024 511.886 1024c282.281 0 512.104-229.828 512.114-512.114C1024 229.606 794.172 0 511.886 0m0 141.179c204.41 0 370.708 166.297 370.708 370.707 0 21.941-17.686 39.849-39.621 39.849-21.936.001-39.621-17.908-39.621-39.849-.001-160.608-130.858-291.238-291.466-291.238-21.935.001-39.621-17.68-39.621-39.621 0-21.94 17.686-39.848 39.621-39.848" style="transform:translate(732px,585px) scale(.048828125);animation:bubbleAnimation37 130.16316706534565s ease-in-out infinite;opacity:.85"/><path fill="#a9d6ff" d="M511.886 0C229.6 0 0 229.605 0 511.886 0 794.172 229.6 1024 511.886 1024c282.281 0 512.104-229.828 512.114-512.114C1024 229.606 794.172 0 511.886 0m0 141.179c204.41 0 370.708 166.297 370.708 370.707 0 21.941-17.686 39.849-39.621 39.849-21.936.001-39.621-17.908-39.621-39.849-.001-160.608-130.858-291.238-291.466-291.238-21.935.001-39.621-17.68-39.621-39.621 0-21.94 17.686-39.848 39.621-39.848" style="transform:translate(9px,851px) scale(.0849609375);animation:bubbleAnimation38 157.48209313929127s ease-in-out infinite;opacity:.85"/><path fill="#90d6ff" d="M511.886 0C229.6 0 0 229.605 0 511.886 0 794.172 229.6 1024 511.886 1024c282.281 0 512.104-229.828 512.114-512.114C1024 229.606 794.172 0 511.886 0m0 141.179c204.41 0 370.708 166.297 370.708 370.707 0 21.941-17.686 39.849-39.621 39.849-21.936.001-39.621-17.908-39.621-39.849-.001-160.608-130.858-291.238-291.466-291.238-21.935.001-39.621-17.68-39.621-39.621 0-21.94 17.686-39.848 39.621-39.848" style="transform:translate(874px,437px) scale(.0673828125);animation:bubbleAnimation39 104.82510993329745s ease-in-out infinite;opacity:.85"/><path fill="#91d6ff" d="M511.886 0C229.6 0 0 229.605 0 511.886 0 794.172 229.6 1024 511.886 1024c282.281 0 512.104-229.828 512.114-512.114C1024 229.606 794.172 0 511.886 0m0 141.179c204.41 0 370.708 166.297 370.708 370.707 0 21.941-17.686 39.849-39.621 39.849-21.936.001-39.621-17.908-39.621-39.849-.001-160.608-130.858-291.238-291.466-291.238-21.935.001-39.621-17.68-39.621-39.621 0-21.94 17.686-39.848 39.621-39.848" style="transform:translate(4px,654px) scale(.064453125);animation:bubbleAnimation40 119.83491272903983s ease-in-out infinite;opacity:.85"/><path fill="#b3d7ff" d="M511.886 0C229.6 0 0 229.605 0 511.886 0 794.172 229.6 1024 511.886 1024c282.281 0 512.104-229.828 512.114-512.114C1024 229.606 794.172 0 511.886 0m0 141.179c204.41 0 370.708 166.297 370.708 370.707 0 21.941-17.686 39.849-39.621 39.849-21.936.001-39.621-17.908-39.621-39.849-.001-160.608-130.858-291.238-291.466-291.238-21.935.001-39.621-17.68-39.621-39.621 0-21.94 17.686-39.848 39.621-39.848" style="transform:translate(121px,291px) scale(.060546875);animation:bubbleAnimation41 155.66160910153388s ease-in-out infinite;opacity:.85"/><path fill="#acd7ff" d="M511.886 0C229.6 0 0 229.605 0 511.886 0 794.172 229.6 1024 511.886 1024c282.281 0 512.104-229.828 512.114-512.114C1024 229.606 794.172 0 511.886 0m0 141.179c204.41 0 370.708 166.297 370.708 370.707 0 21.941-17.686 39.849-39.621 39.849-21.936.001-39.621-17.908-39.621-39.849-.001-160.608-130.858-291.238-291.466-291.238-21.935.001-39.621-17.68-39.621-39.621 0-21.94 17.686-39.848 39.621-39.848" style="transform:translate(128px,935px) scale(.083984375);animation:bubbleAnimation42 155.1065726401481s ease-in-out infinite;opacity:.85"/><path fill="#a8d6ff" d="M511.886 0C229.6 0 0 229.605 0 511.886 0 794.172 229.6 1024 511.886 1024c282.281 0 512.104-229.828 512.114-512.114C1024 229.606 794.172 0 511.886 0m0 141.179c204.41 0 370.708 166.297 370.708 370.707 0 21.941-17.686 39.849-39.621 39.849-21.936.001-39.621-17.908-39.621-39.849-.001-160.608-130.858-291.238-291.466-291.238-21.935.001-39.621-17.68-39.621-39.621 0-21.94 17.686-39.848 39.621-39.848" style="transform:translate(124px,740px) scale(.0517578125);animation:bubbleAnimation43 108.8191642905791s ease-in-out infinite;opacity:.85"/><path fill="#add7ff" d="M511.886 0C229.6 0 0 229.605 0 511.886 0 794.172 229.6 1024 511.886 1024c282.281 0 512.104-229.828 512.114-512.114C1024 229.606 794.172 0 511.886 0m0 141.179c204.41 0 370.708 166.297 370.708 370.707 0 21.941-17.686 39.849-39.621 39.849-21.936.001-39.621-17.908-39.621-39.849-.001-160.608-130.858-291.238-291.466-291.238-21.935.001-39.621-17.68-39.621-39.621 0-21.94 17.686-39.848 39.621-39.848" style="transform:translate(257px,597px) scale(.0458984375);animation:bubbleAnimation44 146.81025000963058s ease-in-out infinite;opacity:.85"/><path fill="#8ed6ff" d="M511.886 0C229.6 0 0 229.605 0 511.886 0 794.172 229.6 1024 511.886 1024c282.281 0 512.104-229.828 512.114-512.114C1024 229.606 794.172 0 511.886 0m0 141.179c204.41 0 370.708 166.297 370.708 370.707 0 21.941-17.686 39.849-39.621 39.849-21.936.001-39.621-17.908-39.621-39.849-.001-160.608-130.858-291.238-291.466-291.238-21.935.001-39.621-17.68-39.621-39.621 0-21.94 17.686-39.848 39.621-39.848" style="transform:translate(898px,70px) scale(.080078125);animation:bubbleAnimation45 148.837630871626s ease-in-out infinite;opacity:.85"/><path fill="#a4d6ff" d="M511.886 0C229.6 0 0 229.605 0 511.886 0 794.172 229.6 1024 511.886 1024c282.281 0 512.104-229.828 512.114-512.114C1024 229.606 794.172 0 511.886 0m0 141.179c204.41 0 370.708 166.297 370.708 370.707 0 21.941-17.686 39.849-39.621 39.849-21.936.001-39.621-17.908-39.621-39.849-.001-160.608-130.858-291.238-291.466-291.238-21.935.001-39.621-17.68-39.621-39.621 0-21.94 17.686-39.848 39.621-39.848" style="transform:translate(786px,401px) scale(.056640625);animation:bubbleAnimation46 109.04329622988132s ease-in-out infinite;opacity:.85"/><path fill="#87d5ff" d="M511.886 0C229.6 0 0 229.605 0 511.886 0 794.172 229.6 1024 511.886 1024c282.281 0 512.104-229.828 512.114-512.114C1024 229.606 794.172 0 511.886 0m0 141.179c204.41 0 370.708 166.297 370.708 370.707 0 21.941-17.686 39.849-39.621 39.849-21.936.001-39.621-17.908-39.621-39.849-.001-160.608-130.858-291.238-291.466-291.238-21.935.001-39.621-17.68-39.621-39.621 0-21.94 17.686-39.848 39.621-39.848" style="transform:translate(599px,785px) scale(.044921875);animation:bubbleAnimation47 118.86880680982316s ease-in-out infinite;opacity:.85"/><path fill="#96d7ff" d="M511.886 0C229.6 0 0 229.605 0 511.886 0 794.172 229.6 1024 511.886 1024c282.281 0 512.104-229.828 512.114-512.114C1024 229.606 794.172 0 511.886 0m0 141.179c204.41 0 370.708 166.297 370.708 370.707 0 21.941-17.686 39.849-39.621 39.849-21.936.001-39.621-17.908-39.621-39.849-.001-160.608-130.858-291.238-291.466-291.238-21.935.001-39.621-17.68-39.621-39.621 0-21.94 17.686-39.848 39.621-39.848" style="transform:translate(115px,357px) scale(.056640625);animation:bubbleAnimation48 145.98390269774973s ease-in-out infinite;opacity:.85"/><path fill="#9fd6ff" d="M511.886 0C229.6 0 0 229.605 0 511.886 0 794.172 229.6 1024 511.886 1024c282.281 0 512.104-229.828 512.114-512.114C1024 229.606 794.172 0 511.886 0m0 141.179c204.41 0 370.708 166.297 370.708 370.707 0 21.941-17.686 39.849-39.621 39.849-21.936.001-39.621-17.908-39.621-39.849-.001-160.608-130.858-291.238-291.466-291.238-21.935.001-39.621-17.68-39.621-39.621 0-21.94 17.686-39.848 39.621-39.848" style="transform:translate(728px,520px) scale(.0419921875);animation:bubbleAnimation49 93.41113274533754s ease-in-out infinite;opacity:.85"/><path fill="#8cd5ff" d="M511.886 0C229.6 0 0 229.605 0 511.886 0 794.172 229.6 1024 511.886 1024c282.281 0 512.104-229.828 512.114-512.114C1024 229.606 794.172 0 511.886 0m0 141.179c204.41 0 370.708 166.297 370.708 370.707 0 21.941-17.686 39.849-39.621 39.849-21.936.001-39.621-17.908-39.621-39.849-.001-160.608-130.858-291.238-291.466-291.238-21.935.001-39.621-17.68-39.621-39.621 0-21.94 17.686-39.848 39.621-39.848" style="transform:translate(504px,557px) scale(.056640625);animation:bubbleAnimation50 93.54802956498294s ease-in-out infinite;opacity:.85"/><path fill="#97d6ff" d="M511.886 0C229.6 0 0 229.605 0 511.886 0 794.172 229.6 1024 511.886 1024c282.281 0 512.104-229.828 512.114-512.114C1024 229.606 794.172 0 511.886 0m0 141.179c204.41 0 370.708 166.297 370.708 370.707 0 21.941-17.686 39.849-39.621 39.849-21.936.001-39.621-17.908-39.621-39.849-.001-160.608-130.858-291.238-291.466-291.238-21.935.001-39.621-17.68-39.621-39.621 0-21.94 17.686-39.848 39.621-39.848" style="transform:translate(638px,559px) scale(.0859375);animation:bubbleAnimation51 105.86020832051636s ease-in-out infinite;opacity:.85"/><path fill="#97d5ff" d="M511.886 0C229.6 0 0 229.605 0 511.886 0 794.172 229.6 1024 511.886 1024c282.281 0 512.104-229.828 512.114-512.114C1024 229.606 794.172 0 511.886 0m0 141.179c204.41 0 370.708 166.297 370.708 370.707 0 21.941-17.686 39.849-39.621 39.849-21.936.001-39.621-17.908-39.621-39.849-.001-160.608-130.858-291.238-291.466-291.238-21.935.001-39.621-17.68-39.621-39.621 0-21.94 17.686-39.848 39.621-39.848" style="transform:translate(645px,936px) scale(.076171875);animation:bubbleAnimation52 99.06865681151297s ease-in-out infinite;opacity:.85"/><path fill="#a0d5ff" d="M511.886 0C229.6 0 0 229.605 0 511.886 0 794.172 229.6 1024 511.886 1024c282.281 0 512.104-229.828 512.114-512.114C1024 229.606 794.172 0 511.886 0m0 141.179c204.41 0 370.708 166.297 370.708 370.707 0 21.941-17.686 39.849-39.621 39.849-21.936.001-39.621-17.908-39.621-39.849-.001-160.608-130.858-291.238-291.466-291.238-21.935.001-39.621-17.68-39.621-39.621 0-21.94 17.686-39.848 39.621-39.848" style="transform:translate(113px,503px) scale(.0439453125);animation:bubbleAnimation53 118.49222861815018s ease-in-out infinite;opacity:.85"/><path fill="#b0d5ff" d="M511.886 0C229.6 0 0 229.605 0 511.886 0 794.172 229.6 1024 511.886 1024c282.281 0 512.104-229.828 512.114-512.114C1024 229.606 794.172 0 511.886 0m0 141.179c204.41 0 370.708 166.297 370.708 370.707 0 21.941-17.686 39.849-39.621 39.849-21.936.001-39.621-17.908-39.621-39.849-.001-160.608-130.858-291.238-291.466-291.238-21.935.001-39.621-17.68-39.621-39.621 0-21.94 17.686-39.848 39.621-39.848" style="transform:translate(756px,960px) scale(.052734375);animation:bubbleAnimation54 97.64708269949791s ease-in-out infinite;opacity:.85"/><path fill="#8fd5ff" d="M511.886 0C229.6 0 0 229.605 0 511.886 0 794.172 229.6 1024 511.886 1024c282.281 0 512.104-229.828 512.114-512.114C1024 229.606 794.172 0 511.886 0m0 141.179c204.41 0 370.708 166.297 370.708 370.707 0 21.941-17.686 39.849-39.621 39.849-21.936.001-39.621-17.908-39.621-39.849-.001-160.608-130.858-291.238-291.466-291.238-21.935.001-39.621-17.68-39.621-39.621 0-21.94 17.686-39.848 39.621-39.848" style="transform:translate(502px,370px) scale(.0517578125);animation:bubbleAnimation55 91.27726439074628s ease-in-out infinite;opacity:.85"/><path fill="#a9d7ff" d="M511.886 0C229.6 0 0 229.605 0 511.886 0 794.172 229.6 1024 511.886 1024c282.281 0 512.104-229.828 512.114-512.114C1024 229.606 794.172 0 511.886 0m0 141.179c204.41 0 370.708 166.297 370.708 370.707 0 21.941-17.686 39.849-39.621 39.849-21.936.001-39.621-17.908-39.621-39.849-.001-160.608-130.858-291.238-291.466-291.238-21.935.001-39.621-17.68-39.621-39.621 0-21.94 17.686-39.848 39.621-39.848" style="transform:translate(631px,272px) scale(.048828125);animation:bubbleAnimation56 127.91519297691907s ease-in-out infinite;opacity:.85"/><path fill="#a9d6ff" d="M511.886 0C229.6 0 0 229.605 0 511.886 0 794.172 229.6 1024 511.886 1024c282.281 0 512.104-229.828 512.114-512.114C1024 229.606 794.172 0 511.886 0m0 141.179c204.41 0 370.708 166.297 370.708 370.707 0 21.941-17.686 39.849-39.621 39.849-21.936.001-39.621-17.908-39.621-39.849-.001-160.608-130.858-291.238-291.466-291.238-21.935.001-39.621-17.68-39.621-39.621 0-21.94 17.686-39.848 39.621-39.848" style="transform:translate(476px,249px) scale(.0712890625);animation:bubbleAnimation57 131.2390344757461s ease-in-out infinite;opacity:.85"/><path fill="#8cd5ff" d="M511.886 0C229.6 0 0 229.605 0 511.886 0 794.172 229.6 1024 511.886 1024c282.281 0 512.104-229.828 512.114-512.114C1024 229.606 794.172 0 511.886 0m0 141.179c204.41 0 370.708 166.297 370.708 370.707 0 21.941-17.686 39.849-39.621 39.849-21.936.001-39.621-17.908-39.621-39.849-.001-160.608-130.858-291.238-291.466-291.238-21.935.001-39.621-17.68-39.621-39.621 0-21.94 17.686-39.848 39.621-39.848" style="transform:translate(209px,199px) scale(.07421875);animation:bubbleAnimation58 134.04395646601876s ease-in-out infinite;opacity:.85"/><path fill="#aed7ff" d="M511.886 0C229.6 0 0 229.605 0 511.886 0 794.172 229.6 1024 511.886 1024c282.281 0 512.104-229.828 512.114-512.114C1024 229.606 794.172 0 511.886 0m0 141.179c204.41 0 370.708 166.297 370.708 370.707 0 21.941-17.686 39.849-39.621 39.849-21.936.001-39.621-17.908-39.621-39.849-.001-160.608-130.858-291.238-291.466-291.238-21.935.001-39.621-17.68-39.621-39.621 0-21.94 17.686-39.848 39.621-39.848" style="transform:translate(559px,3px) scale(.0634765625);animation:bubbleAnimation59 96.79958694372996s ease-in-out infinite;opacity:.85"/><path fill="#98d6ff" d="M511.886 0C229.6 0 0 229.605 0 511.886 0 794.172 229.6 1024 511.886 1024c282.281 0 512.104-229.828 512.114-512.114C1024 229.606 794.172 0 511.886 0m0 141.179c204.41 0 370.708 166.297 370.708 370.707 0 21.941-17.686 39.849-39.621 39.849-21.936.001-39.621-17.908-39.621-39.849-.001-160.608-130.858-291.238-291.466-291.238-21.935.001-39.621-17.68-39.621-39.621 0-21.94 17.686-39.848 39.621-39.848" style="transform:translate(385px,380px) scale(.0791015625);animation:bubbleAnimation60 91.85612674709809s ease-in-out infinite;opacity:.85"/><path fill="#86d7ff" d="M511.886 0C229.6 0 0 229.605 0 511.886 0 794.172 229.6 1024 511.886 1024c282.281 0 512.104-229.828 512.114-512.114C1024 229.606 794.172 0 511.886 0m0 141.179c204.41 0 370.708 166.297 370.708 370.707 0 21.941-17.686 39.849-39.621 39.849-21.936.001-39.621-17.908-39.621-39.849-.001-160.608-130.858-291.238-291.466-291.238-21.935.001-39.621-17.68-39.621-39.621 0-21.94 17.686-39.848 39.621-39.848" style="transform:translate(822px,793px) scale(.0634765625);animation:bubbleAnimation61 105.1209094557334s ease-in-out infinite;opacity:.85"/><path fill="#add6ff" d="M511.886 0C229.6 0 0 229.605 0 511.886 0 794.172 229.6 1024 511.886 1024c282.281 0 512.104-229.828 512.114-512.114C1024 229.606 794.172 0 511.886 0m0 141.179c204.41 0 370.708 166.297 370.708 370.707 0 21.941-17.686 39.849-39.621 39.849-21.936.001-39.621-17.908-39.621-39.849-.001-160.608-130.858-291.238-291.466-291.238-21.935.001-39.621-17.68-39.621-39.621 0-21.94 17.686-39.848 39.621-39.848" style="transform:translate(532px,680px) scale(.076171875);animation:bubbleAnimation62 140.42986336531482s ease-in-out infinite;opacity:.85"/><path fill="#98d6ff" d="M511.886 0C229.6 0 0 229.605 0 511.886 0 794.172 229.6 1024 511.886 1024c282.281 0 512.104-229.828 512.114-512.114C1024 229.606 794.172 0 511.886 0m0 141.179c204.41 0 370.708 166.297 370.708 370.707 0 21.941-17.686 39.849-39.621 39.849-21.936.001-39.621-17.908-39.621-39.849-.001-160.608-130.858-291.238-291.466-291.238-21.935.001-39.621-17.68-39.621-39.621 0-21.94 17.686-39.848 39.621-39.848" style="transform:translate(777px,452px) scale(.041015625);animation:bubbleAnimation63 121.92554956225766s ease-in-out infinite;opacity:.85"/><path fill="#a7d7ff" d="M511.886 0C229.6 0 0 229.605 0 511.886 0 794.172 229.6 1024 511.886 1024c282.281 0 512.104-229.828 512.114-512.114C1024 229.606 794.172 0 511.886 0m0 141.179c204.41 0 370.708 166.297 370.708 370.707 0 21.941-17.686 39.849-39.621 39.849-21.936.001-39.621-17.908-39.621-39.849-.001-160.608-130.858-291.238-291.466-291.238-21.935.001-39.621-17.68-39.621-39.621 0-21.94 17.686-39.848 39.621-39.848" style="transform:translate(945px,598px) scale(.0546875);animation:bubbleAnimation64 119.14431480390185s ease-in-out infinite;opacity:.85"/><path fill="#a3d7ff" d="M511.886 0C229.6 0 0 229.605 0 511.886 0 794.172 229.6 1024 511.886 1024c282.281 0 512.104-229.828 512.114-512.114C1024 229.606 794.172 0 511.886 0m0 141.179c204.41 0 370.708 166.297 370.708 370.707 0 21.941-17.686 39.849-39.621 39.849-21.936.001-39.621-17.908-39.621-39.849-.001-160.608-130.858-291.238-291.466-291.238-21.935.001-39.621-17.68-39.621-39.621 0-21.94 17.686-39.848 39.621-39.848" style="transform:translate(428px,582px) scale(.052734375);animation:bubbleAnimation65 152.32267288739857s ease-in-out infinite;opacity:.85"/><path fill="#98d6ff" d="M511.886 0C229.6 0 0 229.605 0 511.886 0 794.172 229.6 1024 511.886 1024c282.281 0 512.104-229.828 512.114-512.114C1024 229.606 794.172 0 511.886 0m0 141.179c204.41 0 370.708 166.297 370.708 370.707 0 21.941-17.686 39.849-39.621 39.849-21.936.001-39.621-17.908-39.621-39.849-.001-160.608-130.858-291.238-291.466-291.238-21.935.001-39.621-17.68-39.621-39.621 0-21.94 17.686-39.848 39.621-39.848" style="transform:translate(221px,340px) scale(.083984375);animation:bubbleAnimation66 148.82470781747153s ease-in-out infinite;opacity:.85"/><path fill="#89d5ff" d="M511.886 0C229.6 0 0 229.605 0 511.886 0 794.172 229.6 1024 511.886 1024c282.281 0 512.104-229.828 512.114-512.114C1024 229.606 794.172 0 511.886 0m0 141.179c204.41 0 370.708 166.297 370.708 370.707 0 21.941-17.686 39.849-39.621 39.849-21.936.001-39.621-17.908-39.621-39.849-.001-160.608-130.858-291.238-291.466-291.238-21.935.001-39.621-17.68-39.621-39.621 0-21.94 17.686-39.848 39.621-39.848" style="transform:translate(687px,406px) scale(.0859375);animation:bubbleAnimation67 134.61225805005392s ease-in-out infinite;opacity:.85"/><path fill="#b0d6ff" d="M511.886 0C229.6 0 0 229.605 0 511.886 0 794.172 229.6 1024 511.886 1024c282.281 0 512.104-229.828 512.114-512.114C1024 229.606 794.172 0 511.886 0m0 141.179c204.41 0 370.708 166.297 370.708 370.707 0 21.941-17.686 39.849-39.621 39.849-21.936.001-39.621-17.908-39.621-39.849-.001-160.608-130.858-291.238-291.466-291.238-21.935.001-39.621-17.68-39.621-39.621 0-21.94 17.686-39.848 39.621-39.848" style="transform:translate(210px,931px) scale(.0634765625);animation:bubbleAnimation68 107.64056789090323s ease-in-out infinite;opacity:.85"/><path fill="#a8d7ff" d="M511.886 0C229.6 0 0 229.605 0 511.886 0 794.172 229.6 1024 511.886 1024c282.281 0 512.104-229.828 512.114-512.114C1024 229.606 794.172 0 511.886 0m0 141.179c204.41 0 370.708 166.297 370.708 370.707 0 21.941-17.686 39.849-39.621 39.849-21.936.001-39.621-17.908-39.621-39.849-.001-160.608-130.858-291.238-291.466-291.238-21.935.001-39.621-17.68-39.621-39.621 0-21.94 17.686-39.848 39.621-39.848" style="transform:translate(305px,1px) scale(.076171875);animation:bubbleAnimation69 128.29891933185476s ease-in-out infinite;opacity:.85"/><path fill="#8dd5ff" d="M511.886 0C229.6 0 0 229.605 0 511.886 0 794.172 229.6 1024 511.886 1024c282.281 0 512.104-229.828 512.114-512.114C1024 229.606 794.172 0 511.886 0m0 141.179c204.41 0 370.708 166.297 370.708 370.707 0 21.941-17.686 39.849-39.621 39.849-21.936.001-39.621-17.908-39.621-39.849-.001-160.608-130.858-291.238-291.466-291.238-21.935.001-39.621-17.68-39.621-39.621 0-21.94 17.686-39.848 39.621-39.848" style="transform:translate(593px,132px) scale(.0556640625);animation:bubbleAnimation70 149.21422231728246s ease-in-out infinite;opacity:.85"/><path fill="#99d7ff" d="M511.886 0C229.6 0 0 229.605 0 511.886 0 794.172 229.6 1024 511.886 1024c282.281 0 512.104-229.828 512.114-512.114C1024 229.606 794.172 0 511.886 0m0 141.179c204.41 0 370.708 166.297 370.708 370.707 0 21.941-17.686 39.849-39.621 39.849-21.936.001-39.621-17.908-39.621-39.849-.001-160.608-130.858-291.238-291.466-291.238-21.935.001-39.621-17.68-39.621-39.621 0-21.94 17.686-39.848 39.621-39.848" style="transform:translate(599px,62px) scale(.046875);animation:bubbleAnimation71 123.88640748854397s ease-in-out infinite;opacity:.85"/><path fill="#b1d7ff" d="M511.886 0C229.6 0 0 229.605 0 511.886 0 794.172 229.6 1024 511.886 1024c282.281 0 512.104-229.828 512.114-512.114C1024 229.606 794.172 0 511.886 0m0 141.179c204.41 0 370.708 166.297 370.708 370.707 0 21.941-17.686 39.849-39.621 39.849-21.936.001-39.621-17.908-39.621-39.849-.001-160.608-130.858-291.238-291.466-291.238-21.935.001-39.621-17.68-39.621-39.621 0-21.94 17.686-39.848 39.621-39.848" style="transform:translate(591px,706px) scale(.0390625);animation:bubbleAnimation72 141.5879384195872s ease-in-out infinite;opacity:.85"/><path fill="#91d6ff" d="M511.886 0C229.6 0 0 229.605 0 511.886 0 794.172 229.6 1024 511.886 1024c282.281 0 512.104-229.828 512.114-512.114C1024 229.606 794.172 0 511.886 0m0 141.179c204.41 0 370.708 166.297 370.708 370.707 0 21.941-17.686 39.849-39.621 39.849-21.936.001-39.621-17.908-39.621-39.849-.001-160.608-130.858-291.238-291.466-291.238-21.935.001-39.621-17.68-39.621-39.621 0-21.94 17.686-39.848 39.621-39.848" style="transform:translate(109px,567px) scale(.07421875);animation:bubbleAnimation73 152.23098257661613s ease-in-out infinite;opacity:.85"/><path fill="#8ad7ff" d="M511.886 0C229.6 0 0 229.605 0 511.886 0 794.172 229.6 1024 511.886 1024c282.281 0 512.104-229.828 512.114-512.114C1024 229.606 794.172 0 511.886 0m0 141.179c204.41 0 370.708 166.297 370.708 370.707 0 21.941-17.686 39.849-39.621 39.849-21.936.001-39.621-17.908-39.621-39.849-.001-160.608-130.858-291.238-291.466-291.238-21.935.001-39.621-17.68-39.621-39.621 0-21.94 17.686-39.848 39.621-39.848" style="transform:translate(512px,830px) scale(.0517578125);animation:bubbleAnimation74 94.95339340230956s ease-in-out infinite;opacity:.85"/><path fill="#89d5ff" d="M511.886 0C229.6 0 0 229.605 0 511.886 0 794.172 229.6 1024 511.886 1024c282.281 0 512.104-229.828 512.114-512.114C1024 229.606 794.172 0 511.886 0m0 141.179c204.41 0 370.708 166.297 370.708 370.707 0 21.941-17.686 39.849-39.621 39.849-21.936.001-39.621-17.908-39.621-39.849-.001-160.608-130.858-291.238-291.466-291.238-21.935.001-39.621-17.68-39.621-39.621 0-21.94 17.686-39.848 39.621-39.848" style="transform:translate(315px,316px) scale(.078125);animation:bubbleAnimation75 151.50347530310177s ease-in-out infinite;opacity:.85"/><path fill="#99d5ff" d="M511.886 0C229.6 0 0 229.605 0 511.886 0 794.172 229.6 1024 511.886 1024c282.281 0 512.104-229.828 512.114-512.114C1024 229.606 794.172 0 511.886 0m0 141.179c204.41 0 370.708 166.297 370.708 370.707 0 21.941-17.686 39.849-39.621 39.849-21.936.001-39.621-17.908-39.621-39.849-.001-160.608-130.858-291.238-291.466-291.238-21.935.001-39.621-17.68-39.621-39.621 0-21.94 17.686-39.848 39.621-39.848" style="transform:translate(157px,7px) scale(.052734375);animation:bubbleAnimation76 143.54966163319267s ease-in-out infinite;opacity:.85"/><path fill="#97d7ff" d="M511.886 0C229.6 0 0 229.605 0 511.886 0 794.172 229.6 1024 511.886 1024c282.281 0 512.104-229.828 512.114-512.114C1024 229.606 794.172 0 511.886 0m0 141.179c204.41 0 370.708 166.297 370.708 370.707 0 21.941-17.686 39.849-39.621 39.849-21.936.001-39.621-17.908-39.621-39.849-.001-160.608-130.858-291.238-291.466-291.238-21.935.001-39.621-17.68-39.621-39.621 0-21.94 17.686-39.848 39.621-39.848" style="transform:translate(243px,798px) scale(.0830078125);animation:bubbleAnimation77 127.68898015389567s ease-in-out infinite;opacity:.85"/><path fill="#91d6ff" d="M511.886 0C229.6 0 0 229.605 0 511.886 0 794.172 229.6 1024 511.886 1024c282.281 0 512.104-229.828 512.114-512.114C1024 229.606 794.172 0 511.886 0m0 141.179c204.41 0 370.708 166.297 370.708 370.707 0 21.941-17.686 39.849-39.621 39.849-21.936.001-39.621-17.908-39.621-39.849-.001-160.608-130.858-291.238-291.466-291.238-21.935.001-39.621-17.68-39.621-39.621 0-21.94 17.686-39.848 39.621-39.848" style="transform:translate(882px,571px) scale(.0419921875);animation:bubbleAnimation78 133.26042663547491s ease-in-out infinite;opacity:.85"/><path fill="#8dd6ff" d="M511.886 0C229.6 0 0 229.605 0 511.886 0 794.172 229.6 1024 511.886 1024c282.281 0 512.104-229.828 512.114-512.114C1024 229.606 794.172 0 511.886 0m0 141.179c204.41 0 370.708 166.297 370.708 370.707 0 21.941-17.686 39.849-39.621 39.849-21.936.001-39.621-17.908-39.621-39.849-.001-160.608-130.858-291.238-291.466-291.238-21.935.001-39.621-17.68-39.621-39.621 0-21.94 17.686-39.848 39.621-39.848" style="transform:translate(732px,19px) scale(.041015625);animation:bubbleAnimation79 94.14365457010281s ease-in-out infinite;opacity:.85"/><path fill="#85d7ff" d="M511.886 0C229.6 0 0 229.605 0 511.886 0 794.172 229.6 1024 511.886 1024c282.281 0 512.104-229.828 512.114-512.114C1024 229.606 794.172 0 511.886 0m0 141.179c204.41 0 370.708 166.297 370.708 370.707 0 21.941-17.686 39.849-39.621 39.849-21.936.001-39.621-17.908-39.621-39.849-.001-160.608-130.858-291.238-291.466-291.238-21.935.001-39.621-17.68-39.621-39.621 0-21.94 17.686-39.848 39.621-39.848" style="transform:translate(385px,42px) scale(.0654296875);animation:bubbleAnimation80 137.06878530539313s ease-in-out infinite;opacity:.85"/><path fill="#afd6ff" d="M511.886 0C229.6 0 0 229.605 0 511.886 0 794.172 229.6 1024 511.886 1024c282.281 0 512.104-229.828 512.114-512.114C1024 229.606 794.172 0 511.886 0m0 141.179c204.41 0 370.708 166.297 370.708 370.707 0 21.941-17.686 39.849-39.621 39.849-21.936.001-39.621-17.908-39.621-39.849-.001-160.608-130.858-291.238-291.466-291.238-21.935.001-39.621-17.68-39.621-39.621 0-21.94 17.686-39.848 39.621-39.848" style="transform:translate(8px,934px) scale(.0517578125);animation:bubbleAnimation81 152.44705057245062s ease-in-out infinite;opacity:.85"/><path fill="#91d5ff" d="M511.886 0C229.6 0 0 229.605 0 511.886 0 794.172 229.6 1024 511.886 1024c282.281 0 512.104-229.828 512.114-512.114C1024 229.606 794.172 0 511.886 0m0 141.179c204.41 0 370.708 166.297 370.708 370.707 0 21.941-17.686 39.849-39.621 39.849-21.936.001-39.621-17.908-39.621-39.849-.001-160.608-130.858-291.238-291.466-291.238-21.935.001-39.621-17.68-39.621-39.621 0-21.94 17.686-39.848 39.621-39.848" style="transform:translate(304px,402px) scale(.07421875);animation:bubbleAnimation82 96.04450137074868s ease-in-out infinite;opacity:.85"/><path fill="#98d6ff" d="M511.886 0C229.6 0 0 229.605 0 511.886 0 794.172 229.6 1024 511.886 1024c282.281 0 512.104-229.828 512.114-512.114C1024 229.606 794.172 0 511.886 0m0 141.179c204.41 0 370.708 166.297 370.708 370.707 0 21.941-17.686 39.849-39.621 39.849-21.936.001-39.621-17.908-39.621-39.849-.001-160.608-130.858-291.238-291.466-291.238-21.935.001-39.621-17.68-39.621-39.621 0-21.94 17.686-39.848 39.621-39.848" style="transform:translate(848px,496px) scale(.05078125);animation:bubbleAnimation83 131.7155459273571s ease-in-out infinite;opacity:.85"/><path fill="#a3d5ff" d="M511.886 0C229.6 0 0 229.605 0 511.886 0 794.172 229.6 1024 511.886 1024c282.281 0 512.104-229.828 512.114-512.114C1024 229.606 794.172 0 511.886 0m0 141.179c204.41 0 370.708 166.297 370.708 370.707 0 21.941-17.686 39.849-39.621 39.849-21.936.001-39.621-17.908-39.621-39.849-.001-160.608-130.858-291.238-291.466-291.238-21.935.001-39.621-17.68-39.621-39.621 0-21.94 17.686-39.848 39.621-39.848" style="transform:translate(526px,134px) scale(.06640625);animation:bubbleAnimation84 118.6940806069623s ease-in-out infinite;opacity:.85"/><path fill="#9ed6ff" d="M511.886 0C229.6 0 0 229.605 0 511.886 0 794.172 229.6 1024 511.886 1024c282.281 0 512.104-229.828 512.114-512.114C1024 229.606 794.172 0 511.886 0m0 141.179c204.41 0 370.708 166.297 370.708 370.707 0 21.941-17.686 39.849-39.621 39.849-21.936.001-39.621-17.908-39.621-39.849-.001-160.608-130.858-291.238-291.466-291.238-21.935.001-39.621-17.68-39.621-39.621 0-21.94 17.686-39.848 39.621-39.848" style="transform:translate(953px,891px) scale(.0419921875);animation:bubbleAnimation85 104.85020399743017s ease-in-out infinite;opacity:.85"/><path fill="#b0d6ff" d="M511.886 0C229.6 0 0 229.605 0 511.886 0 794.172 229.6 1024 511.886 1024c282.281 0 512.104-229.828 512.114-512.114C1024 229.606 794.172 0 511.886 0m0 141.179c204.41 0 370.708 166.297 370.708 370.707 0 21.941-17.686 39.849-39.621 39.849-21.936.001-39.621-17.908-39.621-39.849-.001-160.608-130.858-291.238-291.466-291.238-21.935.001-39.621-17.68-39.621-39.621 0-21.94 17.686-39.848 39.621-39.848" style="transform:translate(485px,763px) scale(.0673828125);animation:bubbleAnimation86 158.5480941694s ease-in-out infinite;opacity:.85"/><path fill="#87d5ff" d="M511.886 0C229.6 0 0 229.605 0 511.886 0 794.172 229.6 1024 511.886 1024c282.281 0 512.104-229.828 512.114-512.114C1024 229.606 794.172 0 511.886 0m0 141.179c204.41 0 370.708 166.297 370.708 370.707 0 21.941-17.686 39.849-39.621 39.849-21.936.001-39.621-17.908-39.621-39.849-.001-160.608-130.858-291.238-291.466-291.238-21.935.001-39.621-17.68-39.621-39.621 0-21.94 17.686-39.848 39.621-39.848" style="transform:translate(927px,350px) scale(.0654296875);animation:bubbleAnimation87 106.61803839398162s ease-in-out infinite;opacity:.85"/><path fill="#a2d7ff" d="M511.886 0C229.6 0 0 229.605 0 511.886 0 794.172 229.6 1024 511.886 1024c282.281 0 512.104-229.828 512.114-512.114C1024 229.606 794.172 0 511.886 0m0 141.179c204.41 0 370.708 166.297 370.708 370.707 0 21.941-17.686 39.849-39.621 39.849-21.936.001-39.621-17.908-39.621-39.849-.001-160.608-130.858-291.238-291.466-291.238-21.935.001-39.621-17.68-39.621-39.621 0-21.94 17.686-39.848 39.621-39.848" style="transform:translate(783px,597px) scale(.046875);animation:bubbleAnimation88 124.83010369640964s ease-in-out infinite;opacity:.85"/><path fill="#94d5ff" d="M511.886 0C229.6 0 0 229.605 0 511.886 0 794.172 229.6 1024 511.886 1024c282.281 0 512.104-229.828 512.114-512.114C1024 229.606 794.172 0 511.886 0m0 141.179c204.41 0 370.708 166.297 370.708 370.707 0 21.941-17.686 39.849-39.621 39.849-21.936.001-39.621-17.908-39.621-39.849-.001-160.608-130.858-291.238-291.466-291.238-21.935.001-39.621-17.68-39.621-39.621 0-21.94 17.686-39.848 39.621-39.848" style="transform:translate(1px,232px) scale(.064453125);animation:bubbleAnimation89 143.38349041680632s ease-in-out infinite;opacity:.85"/><path fill="#aad7ff" d="M511.886 0C229.6 0 0 229.605 0 511.886 0 794.172 229.6 1024 511.886 1024c282.281 0 512.104-229.828 512.114-512.114C1024 229.606 794.172 0 511.886 0m0 141.179c204.41 0 370.708 166.297 370.708 370.707 0 21.941-17.686 39.849-39.621 39.849-21.936.001-39.621-17.908-39.621-39.849-.001-160.608-130.858-291.238-291.466-291.238-21.935.001-39.621-17.68-39.621-39.621 0-21.94 17.686-39.848 39.621-39.848" style="transform:translate(758px,638px) scale(.0458984375);animation:bubbleAnimation90 159.21378776607241s ease-in-out infinite;opacity:.85"/><path fill="#92d6ff" d="M511.886 0C229.6 0 0 229.605 0 511.886 0 794.172 229.6 1024 511.886 1024c282.281 0 512.104-229.828 512.114-512.114C1024 229.606 794.172 0 511.886 0m0 141.179c204.41 0 370.708 166.297 370.708 370.707 0 21.941-17.686 39.849-39.621 39.849-21.936.001-39.621-17.908-39.621-39.849-.001-160.608-130.858-291.238-291.466-291.238-21.935.001-39.621-17.68-39.621-39.621 0-21.94 17.686-39.848 39.621-39.848" style="transform:translate(596px,227px) scale(.0576171875);animation:bubbleAnimation91 109.54262323544572s ease-in-out infinite;opacity:.85"/><path fill="#96d7ff" d="M511.886 0C229.6 0 0 229.605 0 511.886 0 794.172 229.6 1024 511.886 1024c282.281 0 512.104-229.828 512.114-512.114C1024 229.606 794.172 0 511.886 0m0 141.179c204.41 0 370.708 166.297 370.708 370.707 0 21.941-17.686 39.849-39.621 39.849-21.936.001-39.621-17.908-39.621-39.849-.001-160.608-130.858-291.238-291.466-291.238-21.935.001-39.621-17.68-39.621-39.621 0-21.94 17.686-39.848 39.621-39.848" style="transform:translate(666px,40px) scale(.0400390625);animation:bubbleAnimation92 115.5271350861785s ease-in-out infinite;opacity:.85"/><path fill="#acd5ff" d="M511.886 0C229.6 0 0 229.605 0 511.886 0 794.172 229.6 1024 511.886 1024c282.281 0 512.104-229.828 512.114-512.114C1024 229.606 794.172 0 511.886 0m0 141.179c204.41 0 370.708 166.297 370.708 370.707 0 21.941-17.686 39.849-39.621 39.849-21.936.001-39.621-17.908-39.621-39.849-.001-160.608-130.858-291.238-291.466-291.238-21.935.001-39.621-17.68-39.621-39.621 0-21.94 17.686-39.848 39.621-39.848" style="transform:translate(454px,830px) scale(.052734375);animation:bubbleAnimation93 149.65456932126943s ease-in-out infinite;opacity:.85"/><path fill="#99d5ff" d="M511.886 0C229.6 0 0 229.605 0 511.886 0 794.172 229.6 1024 511.886 1024c282.281 0 512.104-229.828 512.114-512.114C1024 229.606 794.172 0 511.886 0m0 141.179c204.41 0 370.708 166.297 370.708 370.707 0 21.941-17.686 39.849-39.621 39.849-21.936.001-39.621-17.908-39.621-39.849-.001-160.608-130.858-291.238-291.466-291.238-21.935.001-39.621-17.68-39.621-39.621 0-21.94 17.686-39.848 39.621-39.848" style="transform:translate(693px,657px) scale(.0751953125);animation:bubbleAnimation94 158.95992606561612s ease-in-out infinite;opacity:.85"/><path fill="#85d5ff" d="M511.886 0C229.6 0 0 229.605 0 511.886 0 794.172 229.6 1024 511.886 1024c282.281 0 512.104-229.828 512.114-512.114C1024 229.606 794.172 0 511.886 0m0 141.179c204.41 0 370.708 166.297 370.708 370.707 0 21.941-17.686 39.849-39.621 39.849-21.936.001-39.621-17.908-39.621-39.849-.001-160.608-130.858-291.238-291.466-291.238-21.935.001-39.621-17.68-39.621-39.621 0-21.94 17.686-39.848 39.621-39.848" style="transform:translate(2px,737px) scale(.07421875);animation:bubbleAnimation95 117.76291521871794s ease-in-out infinite;opacity:.85"/><path fill="#8ad6ff" d="M511.886 0C229.6 0 0 229.605 0 511.886 0 794.172 229.6 1024 511.886 1024c282.281 0 512.104-229.828 512.114-512.114C1024 229.606 794.172 0 511.886 0m0 141.179c204.41 0 370.708 166.297 370.708 370.707 0 21.941-17.686 39.849-39.621 39.849-21.936.001-39.621-17.908-39.621-39.849-.001-160.608-130.858-291.238-291.466-291.238-21.935.001-39.621-17.68-39.621-39.621 0-21.94 17.686-39.848 39.621-39.848" style="transform:translate(805px,43px) scale(.08203125);animation:bubbleAnimation96 152.22337627260023s ease-in-out infinite;opacity:.85"/><path fill="#a6d5ff" d="M511.886 0C229.6 0 0 229.605 0 511.886 0 794.172 229.6 1024 511.886 1024c282.281 0 512.104-229.828 512.114-512.114C1024 229.606 794.172 0 511.886 0m0 141.179c204.41 0 370.708 166.297 370.708 370.707 0 21.941-17.686 39.849-39.621 39.849-21.936.001-39.621-17.908-39.621-39.849-.001-160.608-130.858-291.238-291.466-291.238-21.935.001-39.621-17.68-39.621-39.621 0-21.94 17.686-39.848 39.621-39.848" style="transform:translate(17px,527px) scale(.0498046875);animation:bubbleAnimation97 142.63125395456385s ease-in-out infinite;opacity:.85"/><path fill="#86d5ff" d="M511.886 0C229.6 0 0 229.605 0 511.886 0 794.172 229.6 1024 511.886 1024c282.281 0 512.104-229.828 512.114-512.114C1024 229.606 794.172 0 511.886 0m0 141.179c204.41 0 370.708 166.297 370.708 370.707 0 21.941-17.686 39.849-39.621 39.849-21.936.001-39.621-17.908-39.621-39.849-.001-160.608-130.858-291.238-291.466-291.238-21.935.001-39.621-17.68-39.621-39.621 0-21.94 17.686-39.848 39.621-39.848" style="transform:translate(50px,589px) scale(.046875);animation:bubbleAnimation98 131.8559763173754s ease-in-out infinite;opacity:.85"/><path fill="#b2d7ff" d="M511.886 0C229.6 0 0 229.605 0 511.886 0 794.172 229.6 1024 511.886 1024c282.281 0 512.104-229.828 512.114-512.114C1024 229.606 794.172 0 511.886 0m0 141.179c204.41 0 370.708 166.297 370.708 370.707 0 21.941-17.686 39.849-39.621 39.849-21.936.001-39.621-17.908-39.621-39.849-.001-160.608-130.858-291.238-291.466-291.238-21.935.001-39.621-17.68-39.621-39.621 0-21.94 17.686-39.848 39.621-39.848" style="transform:translate(21px,354px) scale(.060546875);animation:bubbleAnimation99 137.37219458361892s ease-in-out infinite;opacity:.85"/><path fill="#a6d7ff" d="M511.886 0C229.6 0 0 229.605 0 511.886 0 794.172 229.6 1024 511.886 1024c282.281 0 512.104-229.828 512.114-512.114C1024 229.606 794.172 0 511.886 0m0 141.179c204.41 0 370.708 166.297 370.708 370.707 0 21.941-17.686 39.849-39.621 39.849-21.936.001-39.621-17.908-39.621-39.849-.001-160.608-130.858-291.238-291.466-291.238-21.935.001-39.621-17.68-39.621-39.621 0-21.94 17.686-39.848 39.621-39.848" style="transform:translate(940px,970px) scale(.052734375);animation:bubbleAnimation100 132.84760231301988s ease-in-out infinite;opacity:.85"/><path fill="#acd6ff" d="M511.886 0C229.6 0 0 229.605 0 511.886 0 794.172 229.6 1024 511.886 1024c282.281 0 512.104-229.828 512.114-512.114C1024 229.606 794.172 0 511.886 0m0 141.179c204.41 0 370.708 166.297 370.708 370.707 0 21.941-17.686 39.849-39.621 39.849-21.936.001-39.621-17.908-39.621-39.849-.001-160.608-130.858-291.238-291.466-291.238-21.935.001-39.621-17.68-39.621-39.621 0-21.94 17.686-39.848 39.621-39.848" style="transform:translate(296px,175px) scale(.0595703125);animation:bubbleAnimation101 114.04891524506586s ease-in-out infinite;opacity:.85"/><path fill="#8bd5ff" d="M511.886 0C229.6 0 0 229.605 0 511.886 0 794.172 229.6 1024 511.886 1024c282.281 0 512.104-229.828 512.114-512.114C1024 229.606 794.172 0 511.886 0m0 141.179c204.41 0 370.708 166.297 370.708 370.707 0 21.941-17.686 39.849-39.621 39.849-21.936.001-39.621-17.908-39.621-39.849-.001-160.608-130.858-291.238-291.466-291.238-21.935.001-39.621-17.68-39.621-39.621 0-21.94 17.686-39.848 39.621-39.848" style="transform:translate(40px,168px) scale(.076171875);animation:bubbleAnimation102 146.05277966969308s ease-in-out infinite;opacity:.85"/></svg>