<svg xmlns="http://www.w3.org/2000/svg" xmlns:xlink="http://www.w3.org/1999/xlink" xml:space="preserve" stroke-miterlimit="10" style="fill-rule:nonzero;clip-rule:evenodd;stroke-linecap:round;stroke-linejoin:round" viewBox="0 0 1024 1024"><defs><path id="a" d="M708.585 118.829h196.586v196.586H708.585z"/><path id="c" d="M512 315.415H315.415V512H512z"/><path id="e" d="M315.415 118.829H512v196.586H315.415z"/><path id="g" d="M413.707 20.537 512 118.829 315.415 315.415l-98.293-98.293z"/><path id="i" d="M315.415 512H512v196.585H315.415z"/><path id="k" d="M413.707 413.707 512 512 315.415 708.585l-98.293-98.292z"/><path id="n" d="M708.585 905.171H512V708.585h196.585z"/><path id="p" d="M118.829 512h196.586V315.415H118.829z"/><path id="r" d="M118.829 905.171h196.586V708.585H118.829z"/><path id="t" d="m217.122 1003.46 98.293-98.289-196.586-196.586-98.292 98.293z"/><path id="v" d="M905.171 512H708.585V315.415h196.586z"/><path id="x" d="M806.878 610.293 708.585 512l196.586-196.585 98.289 98.292z"/></defs><path fill="#407A8C" d="M118.829 118.829h196.586v196.586H118.829z"/><path fill="#66A2A3" d="m217.122 159.673 57.449 57.449-57.449 57.449-57.449-57.449z"/><use xlink:href="#a" fill="#407A8C"/><clipPath id="b" clip-rule="nonzero"><use xlink:href="#a"/></clipPath><g clip-path="url(#b)"><path fill="#66A2A3" d="m708.585 118.829 196.586 196.586-98.293 98.292-196.585-196.585z"/><path fill="#407A8C" d="M708.585 157.86 866.14 315.415l-78.777 78.777-157.555-157.555z"/><path fill="#66A2A3" d="m708.104 198.232 117.664 117.664-58.832 58.832-117.664-117.664z"/><path fill="#407A8C" d="m708.585 236.637 78.778 78.778-39.389 39.388-78.777-78.777z"/><path fill="#66A2A3" d="m708.104 277.022 38.874 38.874-19.437 19.437-38.874-38.874z"/></g><use xlink:href="#c" fill="#66A2A3"/><clipPath id="d" clip-rule="nonzero"><use xlink:href="#c"/></clipPath><g clip-path="url(#d)"><path fill="#407A8C" d="M512 315.415 315.415 512l98.292 98.293 196.586-196.586z"/><path fill="#66A2A3" d="M512 354.445 354.445 512l78.778 78.777 157.554-157.554z"/><path fill="#407A8C" d="M512.481 394.817 394.817 512.481l58.832 58.832 117.664-117.664z"/><path fill="#66A2A3" d="M512 433.223 433.223 512l39.388 39.389 78.778-78.778z"/><path fill="#407A8C" d="m512.481 473.607-38.874 38.874 19.437 19.437 38.874-38.874z"/></g><use xlink:href="#e" fill="#407A8C"/><clipPath id="f" clip-rule="nonzero"><use xlink:href="#e"/></clipPath><g clip-path="url(#f)"><path fill="#66A2A3" d="M374.813 217.122c0-21.481 17.414-38.894 38.894-38.894 21.481 0 38.895 17.413 38.895 38.894s-17.414 38.894-38.895 38.894c-21.48 0-38.894-17.413-38.894-38.894"/><use xlink:href="#g" fill="#66A2A3"/><clipPath id="h" clip-rule="nonzero"><use xlink:href="#g"/></clipPath><g clip-path="url(#h)"><path fill="#407A8C" d="M374.813 217.122c0-21.481 17.414-38.894 38.894-38.894 21.481 0 38.895 17.413 38.895 38.894s-17.414 38.894-38.895 38.894c-21.48 0-38.894-17.413-38.894-38.894"/></g></g><use xlink:href="#i" fill="#407A8C"/><clipPath id="j" clip-rule="nonzero"><use xlink:href="#i"/></clipPath><g clip-path="url(#j)"><path fill="#66A2A3" d="M315.415 610.293c0-54.286 44.007-98.293 98.292-98.293S512 556.007 512 610.293c0 54.285-44.007 98.292-98.293 98.292-54.285 0-98.292-44.007-98.292-98.292"/><use xlink:href="#k" fill="#66A2A3"/><clipPath id="l" clip-rule="nonzero"><use xlink:href="#k"/></clipPath><g clip-path="url(#l)"><path fill="#407A8C" d="M315.415 610.293c0-54.286 44.007-98.293 98.292-98.293S512 556.007 512 610.293c0 54.285-44.007 98.292-98.293 98.292-54.285 0-98.292-44.007-98.292-98.292"/></g><path fill="#407A8C" d="M364.561 610.293c0-27.143 22.004-49.147 49.146-49.147 27.143 0 49.147 22.004 49.147 49.147s-22.004 49.146-49.147 49.146-49.146-22.004-49.146-49.146"/><clipPath id="m" clip-rule="nonzero"><path d="M413.707 413.707 512 512 315.415 708.585l-98.293-98.292z"/></clipPath><g clip-path="url(#m)"><path fill="#66A2A3" d="M364.561 610.293c0-27.143 22.004-49.147 49.146-49.147 27.143 0 49.147 22.004 49.147 49.147s-22.004 49.146-49.147 49.146-49.146-22.004-49.146-49.146"/></g></g><path fill="#407A8C" d="M512 118.829h196.585v196.586H512z"/><path fill="#66A2A3" d="M708.585 118.829C600.014 118.829 512 206.843 512 315.415c108.571 0 196.585-88.015 196.585-196.586"/><path fill="#407A8C" d="M561.146 217.122c0-27.143 22.004-49.146 49.147-49.146s49.146 22.003 49.146 49.146-22.004 49.146-49.146 49.146c-27.143 0-49.147-22.003-49.147-49.146"/><path fill="#66A2A3" d="M585.72 217.122c0-13.571 11.001-24.573 24.573-24.573 13.571 0 24.573 11.002 24.573 24.573s-11.002 24.573-24.573 24.573-24.573-11.002-24.573-24.573m122.865 98.293H512V512h196.585z"/><path fill="#407A8C" d="M512 315.415c108.571 0 196.585 88.014 196.585 196.585C600.014 512 512 423.986 512 315.415"/><path fill="#66A2A3" d="M659.439 413.707c0-27.142-22.004-49.146-49.146-49.146-27.143 0-49.147 22.004-49.147 49.146 0 27.143 22.004 49.147 49.147 49.147s49.146-22.004 49.146-49.147"/><path fill="#407A8C" d="M634.866 413.707c0-13.571-11.002-24.573-24.573-24.573s-24.573 11.002-24.573 24.573 11.001 24.573 24.573 24.573c13.571 0 24.573-11.001 24.573-24.573m270.305 294.878H708.585v196.586h196.586z"/><path fill="#66A2A3" d="M905.171 806.878c0-54.285-44.007-98.293-98.293-98.293-54.285 0-98.293 44.008-98.293 98.293s44.008 98.293 98.293 98.293 98.293-44.007 98.293-98.293"/><path fill="#407A8C" d="M882.085 806.878c0-41.536-33.671-75.207-75.207-75.207s-75.207 33.671-75.207 75.207 33.671 75.207 75.207 75.207 75.207-33.671 75.207-75.207"/><path fill="#66A2A3" d="M856.024 806.878c0-27.143-22.003-49.146-49.146-49.146s-49.146 22.003-49.146 49.146 22.003 49.146 49.146 49.146 49.146-22.003 49.146-49.146"/><path fill="#407A8C" d="M831.451 806.878c0-13.571-11.002-24.573-24.573-24.573s-24.573 11.002-24.573 24.573 11.002 24.573 24.573 24.573 24.573-11.002 24.573-24.573m-122.866-98.293H512V512h196.585z"/><path fill="#66A2A3" d="m610.293 667.741-57.449-57.448 57.449-57.449 57.448 57.449z"/><use xlink:href="#n" fill="#407A8C"/><clipPath id="o" clip-rule="nonzero"><use xlink:href="#n"/></clipPath><g clip-path="url(#o)"><path fill="#66A2A3" d="M708.585 905.171 512 708.585l98.293-98.292 196.585 196.585z"/><path fill="#407A8C" d="M708.585 866.14 551.031 708.585l78.777-78.777 157.555 157.555z"/><path fill="#66A2A3" d="M709.066 825.768 591.402 708.104l58.832-58.832 117.664 117.664z"/><path fill="#407A8C" d="m708.585 787.363-78.777-78.778 39.389-39.388 78.777 78.777z"/><path fill="#66A2A3" d="m709.066 746.978-38.874-38.874 19.437-19.437 38.874 38.874z"/></g><use xlink:href="#p" fill="#66A2A3"/><clipPath id="q" clip-rule="nonzero"><use xlink:href="#p"/></clipPath><g clip-path="url(#q)"><path fill="#407A8C" d="m118.829 512 196.586-196.585-98.293-98.293L20.536 413.707z"/><path fill="#66A2A3" d="m118.829 472.969 157.555-157.554-78.777-78.778L40.052 394.192z"/><path fill="#407A8C" d="m118.348 432.598 117.664-117.664-58.832-58.832L59.516 373.766z"/><path fill="#66A2A3" d="m118.829 394.192 78.778-78.777-39.389-39.389-78.777 78.777z"/><path fill="#407A8C" d="m118.348 353.808 38.874-38.874-19.437-19.437-38.874 38.874z"/></g><use xlink:href="#r" fill="#407A8C"/><clipPath id="s" clip-rule="nonzero"><use xlink:href="#r"/></clipPath><g clip-path="url(#s)"><path fill="#66A2A3" d="M178.228 806.878c0 21.481 17.413 38.894 38.894 38.894s38.894-17.413 38.894-38.894-17.413-38.894-38.894-38.894-38.894 17.413-38.894 38.894"/><use xlink:href="#t" fill="#66A2A3"/><clipPath id="u" clip-rule="nonzero"><use xlink:href="#t"/></clipPath><g clip-path="url(#u)"><path fill="#407A8C" d="M178.228 806.878c0 21.481 17.413 38.894 38.894 38.894s38.894-17.413 38.894-38.894-17.413-38.894-38.894-38.894-38.894 17.413-38.894 38.894"/></g></g><use xlink:href="#v" fill="#407A8C"/><clipPath id="w" clip-rule="nonzero"><use xlink:href="#v"/></clipPath><g clip-path="url(#w)"><path fill="#66A2A3" d="M905.171 413.707c0 54.286-44.007 98.293-98.293 98.293-54.285 0-98.293-44.007-98.293-98.293 0-54.285 44.008-98.292 98.293-98.292s98.293 44.007 98.293 98.292"/><use xlink:href="#x" fill="#66A2A3"/><clipPath id="y" clip-rule="nonzero"><use xlink:href="#x"/></clipPath><g clip-path="url(#y)"><path fill="#407A8C" d="M905.171 413.707c0 54.286-44.007 98.293-98.293 98.293-54.285 0-98.293-44.007-98.293-98.293 0-54.285 44.008-98.292 98.293-98.292s98.293 44.007 98.293 98.292"/></g><path fill="#407A8C" d="M856.024 413.707c0 27.143-22.003 49.147-49.146 49.147s-49.146-22.004-49.146-49.147 22.003-49.146 49.146-49.146 49.146 22.004 49.146 49.146"/><clipPath id="z" clip-rule="nonzero"><path d="M806.878 610.293 708.585 512l196.586-196.585 98.289 98.292z"/></clipPath><g clip-path="url(#z)"><path fill="#66A2A3" d="M856.024 413.707c0 27.143-22.003 49.147-49.146 49.147s-49.146-22.004-49.146-49.147 22.003-49.146 49.146-49.146 49.146 22.004 49.146 49.146"/></g></g><path fill="#407A8C" d="M905.171 708.585H708.585V512h196.586z"/><path fill="#66A2A3" d="M708.585 708.585c108.572 0 196.586-88.014 196.586-196.585-108.571 0-196.586 88.014-196.586 196.585"/><path fill="#407A8C" d="M856.024 610.293c0 27.142-22.003 49.146-49.146 49.146s-49.146-22.004-49.146-49.146c0-27.143 22.003-49.147 49.146-49.147s49.146 22.004 49.146 49.147"/><path fill="#66A2A3" d="M831.451 610.293c0 13.571-11.002 24.573-24.573 24.573s-24.573-11.002-24.573-24.573 11.002-24.573 24.573-24.573 24.573 11.001 24.573 24.573M315.415 905.171H512V708.585H315.415z"/><path fill="#407A8C" d="M512 905.171c-108.571 0-196.585-88.014-196.585-196.586C423.986 708.585 512 796.6 512 905.171"/><path fill="#66A2A3" d="M364.561 806.878c0 27.143 22.004 49.146 49.146 49.146 27.143 0 49.147-22.003 49.147-49.146s-22.004-49.146-49.147-49.146-49.146 22.003-49.146 49.146"/><path fill="#407A8C" d="M389.134 806.878c0 13.571 11.002 24.573 24.573 24.573s24.573-11.002 24.573-24.573-11.001-24.573-24.573-24.573c-13.571 0-24.573 11.002-24.573 24.573m-270.305-98.293h196.586V512H118.829z"/><path fill="#66A2A3" d="M118.829 610.293c0 54.285 44.007 98.292 98.293 98.292 54.285 0 98.293-44.007 98.293-98.292S271.407 512 217.122 512s-98.293 44.007-98.293 98.293"/><path fill="#407A8C" d="M141.915 610.293c0 41.536 33.671 75.207 75.207 75.207s75.207-33.671 75.207-75.207-33.671-75.208-75.207-75.208-75.207 33.672-75.207 75.208"/><path fill="#66A2A3" d="M167.976 610.293c0 27.142 22.003 49.146 49.146 49.146s49.146-22.004 49.146-49.146c0-27.143-22.003-49.147-49.146-49.147s-49.146 22.004-49.146 49.147"/><path fill="#407A8C" d="M192.549 610.293c0 13.571 11.002 24.573 24.573 24.573s24.573-11.002 24.573-24.573-11.002-24.573-24.573-24.573-24.573 11.001-24.573 24.573"/></svg>